G04 Layer_Color=8388736*
%FSAX25Y25*%
%MOIN*%
G70*
G01*
G75*
%ADD24C,0.01000*%
%ADD31C,0.00800*%
%ADD40C,0.06496*%
%ADD61R,0.07677X0.05512*%
%ADD62R,0.04331X0.04134*%
G04:AMPARAMS|DCode=63|XSize=66.93mil|YSize=82.68mil|CornerRadius=3.86mil|HoleSize=0mil|Usage=FLASHONLY|Rotation=270.000|XOffset=0mil|YOffset=0mil|HoleType=Round|Shape=RoundedRectangle|*
%AMROUNDEDRECTD63*
21,1,0.06693,0.07496,0,0,270.0*
21,1,0.05921,0.08268,0,0,270.0*
1,1,0.00772,-0.03748,-0.02961*
1,1,0.00772,-0.03748,0.02961*
1,1,0.00772,0.03748,0.02961*
1,1,0.00772,0.03748,-0.02961*
%
%ADD63ROUNDEDRECTD63*%
%ADD64R,0.04134X0.04331*%
G04:AMPARAMS|DCode=65|XSize=27.56mil|YSize=43.31mil|CornerRadius=7.87mil|HoleSize=0mil|Usage=FLASHONLY|Rotation=270.000|XOffset=0mil|YOffset=0mil|HoleType=Round|Shape=RoundedRectangle|*
%AMROUNDEDRECTD65*
21,1,0.02756,0.02756,0,0,270.0*
21,1,0.01181,0.04331,0,0,270.0*
1,1,0.01575,-0.01378,-0.00591*
1,1,0.01575,-0.01378,0.00591*
1,1,0.01575,0.01378,0.00591*
1,1,0.01575,0.01378,-0.00591*
%
%ADD65ROUNDEDRECTD65*%
%ADD66R,0.05394X0.06694*%
G04:AMPARAMS|DCode=67|XSize=21.65mil|YSize=57.09mil|CornerRadius=10.83mil|HoleSize=0mil|Usage=FLASHONLY|Rotation=0.000|XOffset=0mil|YOffset=0mil|HoleType=Round|Shape=RoundedRectangle|*
%AMROUNDEDRECTD67*
21,1,0.02165,0.03543,0,0,0.0*
21,1,0.00000,0.05709,0,0,0.0*
1,1,0.02165,0.00000,-0.01772*
1,1,0.02165,0.00000,-0.01772*
1,1,0.02165,0.00000,0.01772*
1,1,0.02165,0.00000,0.01772*
%
%ADD67ROUNDEDRECTD67*%
G04:AMPARAMS|DCode=68|XSize=77.95mil|YSize=81.89mil|CornerRadius=3.82mil|HoleSize=0mil|Usage=FLASHONLY|Rotation=270.000|XOffset=0mil|YOffset=0mil|HoleType=Round|Shape=RoundedRectangle|*
%AMROUNDEDRECTD68*
21,1,0.07795,0.07425,0,0,270.0*
21,1,0.07032,0.08189,0,0,270.0*
1,1,0.00764,-0.03713,-0.03516*
1,1,0.00764,-0.03713,0.03516*
1,1,0.00764,0.03713,0.03516*
1,1,0.00764,0.03713,-0.03516*
%
%ADD68ROUNDEDRECTD68*%
%ADD69R,0.04724X0.10236*%
G04:AMPARAMS|DCode=70|XSize=27.56mil|YSize=43.31mil|CornerRadius=3.98mil|HoleSize=0mil|Usage=FLASHONLY|Rotation=180.000|XOffset=0mil|YOffset=0mil|HoleType=Round|Shape=RoundedRectangle|*
%AMROUNDEDRECTD70*
21,1,0.02756,0.03535,0,0,180.0*
21,1,0.01961,0.04331,0,0,180.0*
1,1,0.00795,-0.00980,0.01768*
1,1,0.00795,0.00980,0.01768*
1,1,0.00795,0.00980,-0.01768*
1,1,0.00795,-0.00980,-0.01768*
%
%ADD70ROUNDEDRECTD70*%
G04:AMPARAMS|DCode=71|XSize=27.56mil|YSize=74.8mil|CornerRadius=3.98mil|HoleSize=0mil|Usage=FLASHONLY|Rotation=270.000|XOffset=0mil|YOffset=0mil|HoleType=Round|Shape=RoundedRectangle|*
%AMROUNDEDRECTD71*
21,1,0.02756,0.06685,0,0,270.0*
21,1,0.01961,0.07480,0,0,270.0*
1,1,0.00795,-0.03342,-0.00980*
1,1,0.00795,-0.03342,0.00980*
1,1,0.00795,0.03342,0.00980*
1,1,0.00795,0.03342,-0.00980*
%
%ADD71ROUNDEDRECTD71*%
G04:AMPARAMS|DCode=72|XSize=27.56mil|YSize=68.9mil|CornerRadius=3.98mil|HoleSize=0mil|Usage=FLASHONLY|Rotation=90.000|XOffset=0mil|YOffset=0mil|HoleType=Round|Shape=RoundedRectangle|*
%AMROUNDEDRECTD72*
21,1,0.02756,0.06094,0,0,90.0*
21,1,0.01961,0.06890,0,0,90.0*
1,1,0.00795,0.03047,0.00980*
1,1,0.00795,0.03047,-0.00980*
1,1,0.00795,-0.03047,-0.00980*
1,1,0.00795,-0.03047,0.00980*
%
%ADD72ROUNDEDRECTD72*%
%ADD73R,0.11118X0.02362*%
%ADD74C,0.07874*%
%ADD75R,0.07480X0.07480*%
%ADD76C,0.07480*%
G04:AMPARAMS|DCode=77|XSize=83.66mil|YSize=83.66mil|CornerRadius=21.9mil|HoleSize=0mil|Usage=FLASHONLY|Rotation=0.000|XOffset=0mil|YOffset=0mil|HoleType=Round|Shape=RoundedRectangle|*
%AMROUNDEDRECTD77*
21,1,0.08366,0.03986,0,0,0.0*
21,1,0.03986,0.08366,0,0,0.0*
1,1,0.04380,0.01993,-0.01993*
1,1,0.04380,-0.01993,-0.01993*
1,1,0.04380,-0.01993,0.01993*
1,1,0.04380,0.01993,0.01993*
%
%ADD77ROUNDEDRECTD77*%
%ADD78C,0.08366*%
%ADD79C,0.14567*%
%ADD80R,0.06496X0.06496*%
%ADD81R,0.06890X0.06890*%
%ADD82C,0.06890*%
%ADD83C,0.06100*%
%ADD84C,0.05701*%
%ADD85C,0.32696*%
%ADD86C,0.02362*%
%ADD87C,0.02794*%
%ADD88C,0.02394*%
G54D24*
X0559400Y0039400D02*
Y0059683D01*
X0440500Y0040050D02*
X0700200D01*
Y0101050D01*
X0286500Y0040050D02*
Y0101050D01*
X0040000Y0040050D02*
Y0101050D01*
X0040050Y0040050D02*
X0197600D01*
X0040050D02*
Y0101050D01*
Y0101050D02*
X0700200D01*
X0040000Y0040050D02*
X0440500D01*
X0040000Y0060383D02*
X0700000D01*
X0040000Y0080717D02*
X0700200D01*
X0413200D02*
Y0101050D01*
X0497200Y0080717D02*
Y0101050D01*
G54D31*
X0126900Y0073549D02*
X0130899D01*
X0128899D01*
Y0067551D01*
X0133898D02*
X0135897D01*
X0136897Y0068550D01*
Y0070550D01*
X0135897Y0071549D01*
X0133898D01*
X0132898Y0070550D01*
Y0068550D01*
X0133898Y0067551D01*
X0138896Y0065551D02*
Y0071549D01*
X0141895D01*
X0142895Y0070550D01*
Y0068550D01*
X0141895Y0067551D01*
X0138896D01*
X0154891Y0072549D02*
X0153891Y0073549D01*
X0151892D01*
X0150892Y0072549D01*
Y0071549D01*
X0151892Y0070550D01*
X0153891D01*
X0154891Y0069550D01*
Y0068550D01*
X0153891Y0067551D01*
X0151892D01*
X0150892Y0068550D01*
X0157890Y0067551D02*
X0159889D01*
X0160889Y0068550D01*
Y0070550D01*
X0159889Y0071549D01*
X0157890D01*
X0156890Y0070550D01*
Y0068550D01*
X0157890Y0067551D01*
X0162888D02*
X0164888D01*
X0163888D01*
Y0073549D01*
X0162888D01*
X0171885D02*
Y0067551D01*
X0168886D01*
X0167887Y0068550D01*
Y0070550D01*
X0168886Y0071549D01*
X0171885D01*
X0176884Y0067551D02*
X0174884D01*
X0173885Y0068550D01*
Y0070550D01*
X0174884Y0071549D01*
X0176884D01*
X0177884Y0070550D01*
Y0069550D01*
X0173885D01*
X0179883Y0071549D02*
Y0067551D01*
Y0069550D01*
X0180883Y0070550D01*
X0181882Y0071549D01*
X0182882D01*
X0126900Y0073549D02*
X0130899D01*
X0128899D01*
Y0067551D01*
X0133898D02*
X0135897D01*
X0136897Y0068550D01*
Y0070550D01*
X0135897Y0071549D01*
X0133898D01*
X0132898Y0070550D01*
Y0068550D01*
X0133898Y0067551D01*
X0138896Y0065551D02*
Y0071549D01*
X0141895D01*
X0142895Y0070550D01*
Y0068550D01*
X0141895Y0067551D01*
X0138896D01*
X0154891Y0072549D02*
X0153891Y0073549D01*
X0151892D01*
X0150892Y0072549D01*
Y0071549D01*
X0151892Y0070550D01*
X0153891D01*
X0154891Y0069550D01*
Y0068550D01*
X0153891Y0067551D01*
X0151892D01*
X0150892Y0068550D01*
X0157890Y0067551D02*
X0159889D01*
X0160889Y0068550D01*
Y0070550D01*
X0159889Y0071549D01*
X0157890D01*
X0156890Y0070550D01*
Y0068550D01*
X0157890Y0067551D01*
X0162888D02*
X0164888D01*
X0163888D01*
Y0073549D01*
X0162888D01*
X0171885D02*
Y0067551D01*
X0168886D01*
X0167887Y0068550D01*
Y0070550D01*
X0168886Y0071549D01*
X0171885D01*
X0176884Y0067551D02*
X0174884D01*
X0173885Y0068550D01*
Y0070550D01*
X0174884Y0071549D01*
X0176884D01*
X0177884Y0070550D01*
Y0069550D01*
X0173885D01*
X0179883Y0071549D02*
Y0067551D01*
Y0069550D01*
X0180883Y0070550D01*
X0181882Y0071549D01*
X0182882D01*
X0348550Y0072498D02*
X0349550Y0073498D01*
X0351549D01*
X0352549Y0072498D01*
Y0068500D01*
X0351549Y0067500D01*
X0349550D01*
X0348550Y0068500D01*
Y0072498D01*
X0354548Y0067500D02*
X0356547D01*
X0355548D01*
Y0073498D01*
X0354548Y0072498D01*
X0359546D02*
X0360546Y0073498D01*
X0362545D01*
X0363545Y0072498D01*
Y0071499D01*
X0362545Y0070499D01*
X0361546D01*
X0362545D01*
X0363545Y0069499D01*
Y0068500D01*
X0362545Y0067500D01*
X0360546D01*
X0359546Y0068500D01*
X0368544Y0067500D02*
Y0073498D01*
X0365545Y0070499D01*
X0369543D01*
X0371543Y0068500D02*
X0372542Y0067500D01*
X0374542D01*
X0375541Y0068500D01*
Y0072498D01*
X0374542Y0073498D01*
X0372542D01*
X0371543Y0072498D01*
Y0071499D01*
X0372542Y0070499D01*
X0375541D01*
X0294000Y0073498D02*
X0297999D01*
X0295999D01*
Y0067500D01*
X0299998Y0073498D02*
X0301997D01*
X0300998D01*
Y0067500D01*
X0299998D01*
X0301997D01*
X0304996Y0073498D02*
Y0067500D01*
X0307996D01*
X0308995Y0068500D01*
Y0072498D01*
X0307996Y0073498D01*
X0304996D01*
X0317992Y0067500D02*
Y0073498D01*
X0319992D02*
Y0067500D01*
X0316993Y0071499D02*
X0319992D01*
X0320991D01*
X0316993Y0069499D02*
X0320991D01*
X0322991Y0071499D02*
X0323990D01*
Y0070499D01*
X0322991D01*
Y0071499D01*
Y0068500D02*
X0323990D01*
Y0067500D01*
X0322991D01*
Y0068500D01*
X0580500Y0052965D02*
X0584499D01*
X0582499D01*
Y0046966D01*
X0590497Y0052965D02*
X0586498D01*
Y0046966D01*
X0590497D01*
X0586498Y0049966D02*
X0588497D01*
X0592496Y0052965D02*
X0596495Y0046966D01*
Y0052965D02*
X0592496Y0046966D01*
X0598494D02*
Y0050965D01*
X0600493Y0052965D01*
X0602493Y0050965D01*
Y0046966D01*
Y0049966D01*
X0598494D01*
X0608491Y0051965D02*
X0607491Y0052965D01*
X0605492D01*
X0604492Y0051965D01*
Y0050965D01*
X0605492Y0049966D01*
X0607491D01*
X0608491Y0048966D01*
Y0047966D01*
X0607491Y0046966D01*
X0605492D01*
X0604492Y0047966D01*
X0616488Y0052965D02*
X0618488D01*
X0617488D01*
Y0046966D01*
X0616488D01*
X0618488D01*
X0621487D02*
Y0052965D01*
X0625486Y0046966D01*
Y0052965D01*
X0631484Y0051965D02*
X0630484Y0052965D01*
X0628484D01*
X0627485Y0051965D01*
Y0050965D01*
X0628484Y0049966D01*
X0630484D01*
X0631484Y0048966D01*
Y0047966D01*
X0630484Y0046966D01*
X0628484D01*
X0627485Y0047966D01*
X0633483Y0052965D02*
X0637482D01*
X0635482D01*
Y0046966D01*
X0639481D02*
Y0052965D01*
X0642480D01*
X0643480Y0051965D01*
Y0049966D01*
X0642480Y0048966D01*
X0639481D01*
X0641480D02*
X0643480Y0046966D01*
X0645479Y0052965D02*
Y0047966D01*
X0646479Y0046966D01*
X0648478D01*
X0649478Y0047966D01*
Y0052965D01*
X0651477Y0046966D02*
Y0052965D01*
X0653476Y0050965D01*
X0655476Y0052965D01*
Y0046966D01*
X0661474Y0052965D02*
X0657475D01*
Y0046966D01*
X0661474D01*
X0657475Y0049966D02*
X0659474D01*
X0663473Y0046966D02*
Y0052965D01*
X0667472Y0046966D01*
Y0052965D01*
X0669471D02*
X0673470D01*
X0671471D01*
Y0046966D01*
X0679468Y0051965D02*
X0678468Y0052965D01*
X0676469D01*
X0675469Y0051965D01*
Y0050965D01*
X0676469Y0049966D01*
X0678468D01*
X0679468Y0048966D01*
Y0047966D01*
X0678468Y0046966D01*
X0676469D01*
X0675469Y0047966D01*
X0454050Y0046966D02*
X0456049D01*
X0455050D01*
Y0052965D01*
X0454050Y0051965D01*
X0463047Y0046966D02*
X0459048D01*
X0463047Y0050965D01*
Y0051965D01*
X0462047Y0052965D01*
X0460048D01*
X0459048Y0051965D01*
X0465046Y0050965D02*
X0466046D01*
Y0049966D01*
X0465046D01*
Y0050965D01*
Y0047966D02*
X0466046D01*
Y0046966D01*
X0465046D01*
Y0047966D01*
X0470045Y0046966D02*
X0472044D01*
X0471044D01*
Y0052965D01*
X0470045Y0051965D01*
X0478042Y0046966D02*
Y0052965D01*
X0475043Y0049966D01*
X0479042D01*
X0481041Y0050965D02*
X0482041D01*
Y0049966D01*
X0481041D01*
Y0050965D01*
Y0047966D02*
X0482041D01*
Y0046966D01*
X0481041D01*
Y0047966D01*
X0490038Y0052965D02*
X0486040D01*
Y0049966D01*
X0488039Y0050965D01*
X0489039D01*
X0490038Y0049966D01*
Y0047966D01*
X0489039Y0046966D01*
X0487039D01*
X0486040Y0047966D01*
X0495037Y0046966D02*
Y0052965D01*
X0492038Y0049966D01*
X0496036D01*
X0504034Y0046966D02*
Y0052965D01*
X0507033D01*
X0508033Y0051965D01*
Y0049966D01*
X0507033Y0048966D01*
X0504034D01*
X0510032Y0046966D02*
Y0052965D01*
X0512031Y0050965D01*
X0514031Y0052965D01*
Y0046966D01*
X0046350D02*
Y0052965D01*
X0049349D01*
X0050349Y0051965D01*
Y0049966D01*
X0049349Y0048966D01*
X0046350D01*
X0052348Y0052965D02*
Y0046966D01*
X0056347D01*
X0061345Y0052965D02*
X0059346D01*
X0058346Y0051965D01*
Y0047966D01*
X0059346Y0046966D01*
X0061345D01*
X0062345Y0047966D01*
Y0051965D01*
X0061345Y0052965D01*
X0064344D02*
X0068343D01*
X0066343D01*
Y0046966D01*
X0076340D02*
Y0052965D01*
X0080339Y0046966D01*
Y0052965D01*
X0082338Y0046966D02*
Y0050965D01*
X0084338Y0052965D01*
X0086337Y0050965D01*
Y0046966D01*
Y0049966D01*
X0082338D01*
X0088336Y0046966D02*
Y0052965D01*
X0090336Y0050965D01*
X0092335Y0052965D01*
Y0046966D01*
X0098333Y0052965D02*
X0094335D01*
Y0046966D01*
X0098333D01*
X0094335Y0049966D02*
X0096334D01*
X0106331Y0048966D02*
X0110329D01*
X0106331Y0050965D02*
X0110329D01*
X0046350Y0073549D02*
Y0067551D01*
X0050349D01*
X0052348D02*
Y0071549D01*
X0054347Y0073549D01*
X0056347Y0071549D01*
Y0067551D01*
Y0070550D01*
X0052348D01*
X0058346Y0073549D02*
Y0072549D01*
X0060346Y0070550D01*
X0062345Y0072549D01*
Y0073549D01*
X0060346Y0070550D02*
Y0067551D01*
X0068343Y0073549D02*
X0064344D01*
Y0067551D01*
X0068343D01*
X0064344Y0070550D02*
X0066343D01*
X0070342Y0067551D02*
Y0073549D01*
X0073341D01*
X0074341Y0072549D01*
Y0070550D01*
X0073341Y0069550D01*
X0070342D01*
X0072342D02*
X0074341Y0067551D01*
X0082338D02*
Y0073549D01*
X0086337Y0067551D01*
Y0073549D01*
X0088336Y0067551D02*
Y0071549D01*
X0090336Y0073549D01*
X0092335Y0071549D01*
Y0067551D01*
Y0070550D01*
X0088336D01*
X0094335Y0067551D02*
Y0073549D01*
X0096334Y0071549D01*
X0098333Y0073549D01*
Y0067551D01*
X0104331Y0073549D02*
X0100332D01*
Y0067551D01*
X0104331D01*
X0100332Y0070550D02*
X0102332D01*
X0112329Y0069550D02*
X0116327D01*
X0112329Y0071549D02*
X0116327D01*
X0294000Y0093831D02*
Y0087833D01*
X0296999D01*
X0297999Y0088833D01*
Y0089833D01*
X0296999Y0090832D01*
X0294000D01*
X0296999D01*
X0297999Y0091832D01*
Y0092832D01*
X0296999Y0093831D01*
X0294000D01*
X0302997D02*
X0300998D01*
X0299998Y0092832D01*
Y0088833D01*
X0300998Y0087833D01*
X0302997D01*
X0303997Y0088833D01*
Y0092832D01*
X0302997Y0093831D01*
X0305996Y0087833D02*
Y0091832D01*
X0307996Y0093831D01*
X0309995Y0091832D01*
Y0087833D01*
Y0090832D01*
X0305996D01*
X0311994Y0087833D02*
Y0093831D01*
X0314993D01*
X0315993Y0092832D01*
Y0090832D01*
X0314993Y0089833D01*
X0311994D01*
X0313994D02*
X0315993Y0087833D01*
X0317992Y0093831D02*
Y0087833D01*
X0320991D01*
X0321991Y0088833D01*
Y0092832D01*
X0320991Y0093831D01*
X0317992D01*
X0330988Y0087833D02*
Y0093831D01*
X0332987D02*
Y0087833D01*
X0329988Y0091832D02*
X0332987D01*
X0333987D01*
X0329988Y0089833D02*
X0333987D01*
X0335986Y0091832D02*
X0336986D01*
Y0090832D01*
X0335986D01*
Y0091832D01*
Y0088833D02*
X0336986D01*
Y0087833D01*
X0335986D01*
Y0088833D01*
X0348550Y0093831D02*
X0352549D01*
X0350549D01*
Y0087833D01*
X0354548Y0093831D02*
X0356547D01*
X0355548D01*
Y0087833D01*
X0354548D01*
X0356547D01*
X0359546Y0093831D02*
Y0087833D01*
X0362545D01*
X0363545Y0088833D01*
Y0092832D01*
X0362545Y0093831D01*
X0359546D01*
X0365545Y0087833D02*
Y0091832D01*
X0367544Y0093831D01*
X0369543Y0091832D01*
Y0087833D01*
Y0090832D01*
X0365545D01*
X0371543D02*
X0375541D01*
X0377541Y0092832D02*
X0378540Y0093831D01*
X0380540D01*
X0381539Y0092832D01*
Y0088833D01*
X0380540Y0087833D01*
X0378540D01*
X0377541Y0088833D01*
Y0092832D01*
X0383539Y0087833D02*
X0385538D01*
X0384538D01*
Y0093831D01*
X0383539Y0092832D01*
X0388537D02*
X0389537Y0093831D01*
X0391536D01*
X0392536Y0092832D01*
Y0091832D01*
X0391536Y0090832D01*
X0390536D01*
X0391536D01*
X0392536Y0089833D01*
Y0088833D01*
X0391536Y0087833D01*
X0389537D01*
X0388537Y0088833D01*
X0397534Y0087833D02*
Y0093831D01*
X0394535Y0090832D01*
X0398534D01*
X0400533Y0088833D02*
X0401533Y0087833D01*
X0403532D01*
X0404532Y0088833D01*
Y0092832D01*
X0403532Y0093831D01*
X0401533D01*
X0400533Y0092832D01*
Y0091832D01*
X0401533Y0090832D01*
X0404532D01*
X0466149Y0093831D02*
X0462150D01*
Y0087833D01*
X0466149D01*
X0462150Y0090832D02*
X0464149D01*
X0468148Y0087833D02*
X0470147D01*
X0469148D01*
Y0093831D01*
X0468148Y0092832D01*
X0046350Y0087833D02*
Y0091832D01*
X0048349Y0093831D01*
X0050349Y0091832D01*
Y0087833D01*
Y0090832D01*
X0046350D01*
X0052348Y0093831D02*
Y0087833D01*
X0056347D01*
X0058346Y0093831D02*
Y0087833D01*
X0062345D01*
X0070342D02*
Y0091832D01*
X0072342Y0093831D01*
X0074341Y0091832D01*
Y0087833D01*
Y0090832D01*
X0070342D01*
X0076340Y0087833D02*
Y0093831D01*
X0079339D01*
X0080339Y0092832D01*
Y0090832D01*
X0079339Y0089833D01*
X0076340D01*
X0078340D02*
X0080339Y0087833D01*
X0082338Y0093831D02*
X0086337D01*
X0084338D01*
Y0087833D01*
X0088336Y0093831D02*
Y0087833D01*
X0090336Y0089833D01*
X0092335Y0087833D01*
Y0093831D01*
X0097334D02*
X0095334D01*
X0094335Y0092832D01*
Y0088833D01*
X0095334Y0087833D01*
X0097334D01*
X0098333Y0088833D01*
Y0092832D01*
X0097334Y0093831D01*
X0100332Y0087833D02*
Y0093831D01*
X0103332D01*
X0104331Y0092832D01*
Y0090832D01*
X0103332Y0089833D01*
X0100332D01*
X0102332D02*
X0104331Y0087833D01*
X0106331Y0093831D02*
Y0087833D01*
Y0089833D01*
X0110329Y0093831D01*
X0107330Y0090832D01*
X0110329Y0087833D01*
X0118327Y0093831D02*
Y0089833D01*
X0120326Y0087833D01*
X0122325Y0089833D01*
Y0093831D01*
X0124325D02*
X0126324D01*
X0125324D01*
Y0087833D01*
X0124325D01*
X0126324D01*
X0133322Y0093831D02*
X0129323D01*
Y0087833D01*
X0133322D01*
X0129323Y0090832D02*
X0131323D01*
X0135321Y0093831D02*
Y0087833D01*
X0137321Y0089833D01*
X0139320Y0087833D01*
Y0093831D01*
X0145318D02*
X0141319D01*
Y0087833D01*
X0145318D01*
X0141319Y0090832D02*
X0143319D01*
X0147317Y0093831D02*
Y0087833D01*
X0150316D01*
X0151316Y0088833D01*
Y0092832D01*
X0150316Y0093831D01*
X0147317D01*
X0163312D02*
X0159313D01*
Y0090832D01*
X0161313D01*
X0159313D01*
Y0087833D01*
X0165312D02*
Y0093831D01*
X0168310D01*
X0169310Y0092832D01*
Y0090832D01*
X0168310Y0089833D01*
X0165312D01*
X0167311D02*
X0169310Y0087833D01*
X0174309Y0093831D02*
X0172309D01*
X0171310Y0092832D01*
Y0088833D01*
X0172309Y0087833D01*
X0174309D01*
X0175308Y0088833D01*
Y0092832D01*
X0174309Y0093831D01*
X0177308Y0087833D02*
Y0093831D01*
X0179307Y0091832D01*
X0181306Y0093831D01*
Y0087833D01*
X0189304Y0093831D02*
X0193303D01*
X0191303D01*
Y0087833D01*
X0198301Y0093831D02*
X0196301D01*
X0195302Y0092832D01*
Y0088833D01*
X0196301Y0087833D01*
X0198301D01*
X0199301Y0088833D01*
Y0092832D01*
X0198301Y0093831D01*
X0201300Y0087833D02*
Y0093831D01*
X0204299D01*
X0205299Y0092832D01*
Y0090832D01*
X0204299Y0089833D01*
X0201300D01*
X0217295Y0092832D02*
X0216295Y0093831D01*
X0214296D01*
X0213296Y0092832D01*
Y0091832D01*
X0214296Y0090832D01*
X0216295D01*
X0217295Y0089833D01*
Y0088833D01*
X0216295Y0087833D01*
X0214296D01*
X0213296Y0088833D01*
X0219294Y0093831D02*
X0221293D01*
X0220294D01*
Y0087833D01*
X0219294D01*
X0221293D01*
X0224292Y0093831D02*
Y0087833D01*
X0227291D01*
X0228291Y0088833D01*
Y0092832D01*
X0227291Y0093831D01*
X0224292D01*
X0234289D02*
X0230291D01*
Y0087833D01*
X0234289D01*
X0230291Y0090832D02*
X0232290D01*
X0298199Y0051965D02*
X0297199Y0052965D01*
X0295200D01*
X0294200Y0051965D01*
Y0047966D01*
X0295200Y0046966D01*
X0297199D01*
X0298199Y0047966D01*
Y0049966D01*
X0296199D01*
X0304197Y0052965D02*
X0300198D01*
Y0046966D01*
X0304197D01*
X0300198Y0049966D02*
X0302197D01*
X0306196Y0046966D02*
Y0052965D01*
X0310195Y0046966D01*
Y0052965D01*
X0316193D02*
X0312194D01*
Y0046966D01*
X0316193D01*
X0312194Y0049966D02*
X0314194D01*
X0318192Y0046966D02*
Y0052965D01*
X0321191D01*
X0322191Y0051965D01*
Y0049966D01*
X0321191Y0048966D01*
X0318192D01*
X0320192D02*
X0322191Y0046966D01*
X0324190D02*
Y0050965D01*
X0326190Y0052965D01*
X0328189Y0050965D01*
Y0046966D01*
Y0049966D01*
X0324190D01*
X0330188Y0052965D02*
X0334187D01*
X0332188D01*
Y0046966D01*
X0340185Y0052965D02*
X0336186D01*
Y0046966D01*
X0340185D01*
X0336186Y0049966D02*
X0338186D01*
X0342184Y0052965D02*
Y0046966D01*
X0345183D01*
X0346183Y0047966D01*
Y0051965D01*
X0345183Y0052965D01*
X0342184D01*
X0372175Y0050965D02*
X0373175D01*
Y0049966D01*
X0372175D01*
Y0050965D01*
Y0047966D02*
X0373175D01*
Y0046966D01*
X0372175D01*
Y0047966D01*
X0381150Y0046966D02*
X0383149D01*
X0382150D01*
Y0052965D01*
X0381150Y0051965D01*
X0390147Y0046966D02*
X0386148D01*
X0390147Y0050965D01*
Y0051965D01*
X0389147Y0052965D01*
X0387148D01*
X0386148Y0051965D01*
X0392146Y0046966D02*
X0396145Y0050965D01*
X0398145Y0046966D02*
X0400144D01*
X0399144D01*
Y0052965D01*
X0398145Y0051965D01*
X0403143Y0047966D02*
X0404143Y0046966D01*
X0406142D01*
X0407142Y0047966D01*
Y0051965D01*
X0406142Y0052965D01*
X0404143D01*
X0403143Y0051965D01*
Y0050965D01*
X0404143Y0049966D01*
X0407142D01*
X0409141Y0046966D02*
X0413140Y0050965D01*
X0419138Y0046966D02*
X0415139D01*
X0419138Y0050965D01*
Y0051965D01*
X0418138Y0052965D01*
X0416139D01*
X0415139Y0051965D01*
X0421137D02*
X0422137Y0052965D01*
X0424136D01*
X0425136Y0051965D01*
Y0047966D01*
X0424136Y0046966D01*
X0422137D01*
X0421137Y0047966D01*
Y0051965D01*
X0427135Y0046966D02*
X0429135D01*
X0428135D01*
Y0052965D01*
X0427135Y0051965D01*
X0432133Y0052965D02*
X0436132D01*
Y0051965D01*
X0432133Y0047966D01*
Y0046966D01*
X0126900Y0052965D02*
X0130899D01*
X0128899D01*
Y0046966D01*
X0132898Y0052965D02*
X0134897D01*
X0133898D01*
Y0046966D01*
X0132898D01*
X0134897D01*
X0137896Y0052965D02*
Y0046966D01*
X0140895D01*
X0141895Y0047966D01*
Y0051965D01*
X0140895Y0052965D01*
X0137896D01*
X0143895Y0046966D02*
Y0050965D01*
X0145894Y0052965D01*
X0147893Y0050965D01*
Y0046966D01*
Y0049966D01*
X0143895D01*
X0149893D02*
X0153891D01*
X0155891Y0051965D02*
X0156890Y0052965D01*
X0158890D01*
X0159889Y0051965D01*
Y0047966D01*
X0158890Y0046966D01*
X0156890D01*
X0155891Y0047966D01*
Y0051965D01*
X0161889Y0046966D02*
X0163888D01*
X0162888D01*
Y0052965D01*
X0161889Y0051965D01*
X0166887D02*
X0167887Y0052965D01*
X0169886D01*
X0170886Y0051965D01*
Y0050965D01*
X0169886Y0049966D01*
X0168886D01*
X0169886D01*
X0170886Y0048966D01*
Y0047966D01*
X0169886Y0046966D01*
X0167887D01*
X0166887Y0047966D01*
X0175884Y0046966D02*
Y0052965D01*
X0172885Y0049966D01*
X0176884D01*
X0178883Y0047966D02*
X0179883Y0046966D01*
X0181882D01*
X0182882Y0047966D01*
Y0051965D01*
X0181882Y0052965D01*
X0179883D01*
X0178883Y0051965D01*
Y0050965D01*
X0179883Y0049966D01*
X0182882D01*
X0188880Y0052965D02*
X0184881D01*
Y0046966D01*
X0188880D01*
X0184881Y0049966D02*
X0186881D01*
X0190879Y0046966D02*
X0192879D01*
X0191879D01*
Y0052965D01*
X0190879Y0051965D01*
X0195878Y0046966D02*
Y0047966D01*
X0196877D01*
Y0046966D01*
X0195878D01*
X0204875Y0051965D02*
X0203875Y0052965D01*
X0201876D01*
X0200876Y0051965D01*
Y0047966D01*
X0201876Y0046966D01*
X0203875D01*
X0204875Y0047966D01*
Y0049966D01*
X0202875D01*
X0206874Y0052965D02*
X0210873D01*
X0208874D01*
Y0046966D01*
X0216871Y0051965D02*
X0215871Y0052965D01*
X0213872D01*
X0212872Y0051965D01*
Y0050965D01*
X0213872Y0049966D01*
X0215871D01*
X0216871Y0048966D01*
Y0047966D01*
X0215871Y0046966D01*
X0213872D01*
X0212872Y0047966D01*
X0433000Y0087833D02*
Y0093831D01*
X0435999D01*
X0436999Y0092832D01*
Y0090832D01*
X0435999Y0089833D01*
X0433000D01*
X0434999D02*
X0436999Y0087833D01*
X0442997Y0093831D02*
X0438998D01*
Y0087833D01*
X0442997D01*
X0438998Y0090832D02*
X0440997D01*
X0444996Y0093831D02*
Y0089833D01*
X0446995Y0087833D01*
X0448995Y0089833D01*
Y0093831D01*
X0450994Y0091832D02*
X0451994D01*
Y0090832D01*
X0450994D01*
Y0091832D01*
Y0088833D02*
X0451994D01*
Y0087833D01*
X0450994D01*
Y0088833D01*
X0520799Y0092832D02*
X0519799Y0093831D01*
X0517800D01*
X0516800Y0092832D01*
Y0091832D01*
X0517800Y0090832D01*
X0519799D01*
X0520799Y0089833D01*
Y0088833D01*
X0519799Y0087833D01*
X0517800D01*
X0516800Y0088833D01*
X0522798Y0093831D02*
Y0089833D01*
X0524797Y0087833D01*
X0526797Y0089833D01*
Y0093831D01*
X0528796Y0087833D02*
Y0093831D01*
X0532795Y0087833D01*
Y0093831D01*
X0540792Y0087833D02*
Y0093831D01*
X0543791D01*
X0544791Y0092832D01*
Y0090832D01*
X0543791Y0089833D01*
X0540792D01*
X0542792D02*
X0544791Y0087833D01*
X0550789Y0093831D02*
X0546790D01*
Y0087833D01*
X0550789D01*
X0546790Y0090832D02*
X0548790D01*
X0552788Y0093831D02*
Y0089833D01*
X0554788Y0087833D01*
X0556787Y0089833D01*
Y0093831D01*
X0558786Y0091832D02*
X0559786D01*
Y0090832D01*
X0558786D01*
Y0091832D01*
Y0088833D02*
X0559786D01*
Y0087833D01*
X0558786D01*
Y0088833D01*
X0567400Y0087833D02*
Y0093831D01*
X0571399Y0087833D01*
Y0093831D01*
X0574398Y0087833D02*
X0576397D01*
X0577397Y0088833D01*
Y0090832D01*
X0576397Y0091832D01*
X0574398D01*
X0573398Y0090832D01*
Y0088833D01*
X0574398Y0087833D01*
X0580396Y0092832D02*
Y0091832D01*
X0579396D01*
X0581395D01*
X0580396D01*
Y0088833D01*
X0581395Y0087833D01*
X0590393Y0093831D02*
X0592392D01*
X0591392D01*
Y0087833D01*
X0590393D01*
X0592392D01*
X0595391D02*
Y0091832D01*
X0598390D01*
X0599390Y0090832D01*
Y0087833D01*
X0607387Y0093831D02*
Y0089833D01*
X0609386Y0087833D01*
X0611386Y0089833D01*
Y0093831D01*
X0616384Y0087833D02*
X0614385D01*
X0613385Y0088833D01*
Y0090832D01*
X0614385Y0091832D01*
X0616384D01*
X0617384Y0090832D01*
Y0089833D01*
X0613385D01*
X0619383Y0091832D02*
Y0087833D01*
Y0089833D01*
X0620383Y0090832D01*
X0621383Y0091832D01*
X0622382D01*
X0625381Y0087833D02*
X0628380D01*
X0629380Y0088833D01*
X0628380Y0089833D01*
X0626381D01*
X0625381Y0090832D01*
X0626381Y0091832D01*
X0629380D01*
X0631379Y0087833D02*
X0633379D01*
X0632379D01*
Y0091832D01*
X0631379D01*
X0637377Y0087833D02*
X0639377D01*
X0640376Y0088833D01*
Y0090832D01*
X0639377Y0091832D01*
X0637377D01*
X0636378Y0090832D01*
Y0088833D01*
X0637377Y0087833D01*
X0642376D02*
Y0091832D01*
X0645375D01*
X0646374Y0090832D01*
Y0087833D01*
X0652373Y0092832D02*
X0651373Y0093831D01*
X0649373D01*
X0648374Y0092832D01*
Y0088833D01*
X0649373Y0087833D01*
X0651373D01*
X0652373Y0088833D01*
X0655372Y0087833D02*
X0657371D01*
X0658371Y0088833D01*
Y0090832D01*
X0657371Y0091832D01*
X0655372D01*
X0654372Y0090832D01*
Y0088833D01*
X0655372Y0087833D01*
X0660370D02*
Y0091832D01*
X0663369D01*
X0664369Y0090832D01*
Y0087833D01*
X0667368Y0092832D02*
Y0091832D01*
X0666368D01*
X0668367D01*
X0667368D01*
Y0088833D01*
X0668367Y0087833D01*
X0671366Y0091832D02*
Y0087833D01*
Y0089833D01*
X0672366Y0090832D01*
X0673366Y0091832D01*
X0674365D01*
X0678364Y0087833D02*
X0680364D01*
X0681363Y0088833D01*
Y0090832D01*
X0680364Y0091832D01*
X0678364D01*
X0677364Y0090832D01*
Y0088833D01*
X0678364Y0087833D01*
X0683362D02*
X0685362D01*
X0684362D01*
Y0093831D01*
X0683362D01*
G54D40*
X0207200Y0163400D02*
D03*
X0147200D02*
D03*
G54D61*
X0490700Y0411191D02*
D03*
Y0422609D02*
D03*
Y0431191D02*
D03*
Y0442609D02*
D03*
Y0451191D02*
D03*
Y0462609D02*
D03*
Y0471191D02*
D03*
Y0482609D02*
D03*
Y0491191D02*
D03*
Y0502609D02*
D03*
Y0511191D02*
D03*
Y0522609D02*
D03*
X0203900Y0369609D02*
D03*
Y0358191D02*
D03*
X0204500Y0309709D02*
D03*
Y0298291D02*
D03*
G54D62*
X0475550Y0524900D02*
D03*
X0481850D02*
D03*
X0272350Y0280900D02*
D03*
X0266050D02*
D03*
X0272350Y0340900D02*
D03*
X0266050D02*
D03*
X0272350Y0520900D02*
D03*
X0266050D02*
D03*
Y0535900D02*
D03*
X0272350D02*
D03*
X0272350Y0542400D02*
D03*
X0266050D02*
D03*
X0272350Y0549900D02*
D03*
X0266050D02*
D03*
X0266050Y0556400D02*
D03*
X0272350D02*
D03*
X0266050Y0563400D02*
D03*
X0272350D02*
D03*
X0272350Y0569900D02*
D03*
X0266050D02*
D03*
X0215750Y0552900D02*
D03*
X0209450D02*
D03*
X0215850Y0546500D02*
D03*
X0209550D02*
D03*
X0228850Y0546400D02*
D03*
X0222550D02*
D03*
X0203050Y0540000D02*
D03*
X0209350D02*
D03*
X0209850Y0511400D02*
D03*
X0203550D02*
D03*
X0227100Y0360500D02*
D03*
X0220801D02*
D03*
X0227100Y0367000D02*
D03*
X0220801D02*
D03*
X0225350Y0301050D02*
D03*
X0219050D02*
D03*
X0225350Y0307050D02*
D03*
X0219050D02*
D03*
X0201050Y0228400D02*
D03*
X0207350D02*
D03*
X0201050Y0220900D02*
D03*
X0207350D02*
D03*
X0207350Y0185900D02*
D03*
X0201050D02*
D03*
X0113050Y0171400D02*
D03*
X0119350D02*
D03*
X0145550Y0188900D02*
D03*
X0139250D02*
D03*
X0113050Y0205900D02*
D03*
X0119350D02*
D03*
X0113599Y0357539D02*
D03*
X0119899D02*
D03*
X0113550Y0379400D02*
D03*
X0119850D02*
D03*
X0142450Y0506600D02*
D03*
X0136150D02*
D03*
X0142450Y0512800D02*
D03*
X0136150D02*
D03*
X0266050Y0395900D02*
D03*
X0272350D02*
D03*
X0266050Y0328900D02*
D03*
X0272350D02*
D03*
X0266050Y0265900D02*
D03*
X0272350D02*
D03*
X0142350Y0546900D02*
D03*
X0136050D02*
D03*
X0142350Y0553400D02*
D03*
X0136050D02*
D03*
X0142350Y0361254D02*
D03*
X0136050D02*
D03*
X0142350Y0367754D02*
D03*
X0136050D02*
D03*
X0142480Y0300900D02*
D03*
X0136180D02*
D03*
X0142480Y0307400D02*
D03*
X0136180D02*
D03*
X0272350Y0389400D02*
D03*
X0266050D02*
D03*
X0272350Y0334900D02*
D03*
X0266050D02*
D03*
X0272350Y0272400D02*
D03*
X0266050D02*
D03*
X0142350Y0540400D02*
D03*
X0136050D02*
D03*
X0142350Y0354754D02*
D03*
X0136050D02*
D03*
X0142480Y0294400D02*
D03*
X0136180D02*
D03*
X0136250Y0500300D02*
D03*
X0142550D02*
D03*
X0145450Y0182400D02*
D03*
X0139150D02*
D03*
G54D63*
X0377074Y0240093D02*
D03*
Y0226707D02*
D03*
X0331700Y0240093D02*
D03*
Y0226707D02*
D03*
G54D64*
X0271700Y0404250D02*
D03*
Y0410550D02*
D03*
X0289330Y0488719D02*
D03*
Y0482420D02*
D03*
X0289200Y0502750D02*
D03*
Y0509050D02*
D03*
X0295830Y0502920D02*
D03*
Y0509219D02*
D03*
X0202200Y0521750D02*
D03*
Y0528050D02*
D03*
X0224200Y0524550D02*
D03*
Y0518250D02*
D03*
X0203700Y0498750D02*
D03*
Y0505050D02*
D03*
X0210200Y0505050D02*
D03*
Y0498750D02*
D03*
X0216700Y0498750D02*
D03*
Y0505050D02*
D03*
X0194200Y0488750D02*
D03*
Y0495050D02*
D03*
X0208700Y0451750D02*
D03*
Y0458050D02*
D03*
X0202200Y0451750D02*
D03*
Y0458050D02*
D03*
X0214300Y0360650D02*
D03*
Y0366950D02*
D03*
X0212700Y0300900D02*
D03*
Y0307199D02*
D03*
X0203200Y0253750D02*
D03*
Y0260050D02*
D03*
X0194200Y0186550D02*
D03*
Y0180250D02*
D03*
X0138000Y0221050D02*
D03*
Y0227350D02*
D03*
X0114200Y0402278D02*
D03*
Y0408577D02*
D03*
X0149300Y0465350D02*
D03*
Y0459050D02*
D03*
X0114200Y0470750D02*
D03*
Y0477050D02*
D03*
X0155500Y0459050D02*
D03*
Y0465350D02*
D03*
X0203000Y0552750D02*
D03*
Y0546450D02*
D03*
G54D65*
X0208476Y0521900D02*
D03*
X0217924Y0525640D02*
D03*
Y0518160D02*
D03*
G54D66*
X0195200Y0245900D02*
D03*
X0203200D02*
D03*
X0195200Y0235900D02*
D03*
X0203200D02*
D03*
X0146500Y0174500D02*
D03*
X0138500D02*
D03*
X0138600Y0212500D02*
D03*
X0146600D02*
D03*
G54D67*
X0195361Y0194640D02*
D03*
X0197921D02*
D03*
X0200480D02*
D03*
X0195361Y0212160D02*
D03*
X0197921D02*
D03*
X0200480D02*
D03*
X0203039Y0194640D02*
D03*
Y0212160D02*
D03*
G54D68*
X0199200Y0203400D02*
D03*
G54D69*
X0200204Y0175900D02*
D03*
X0213196D02*
D03*
G54D70*
X0138760Y0194387D02*
D03*
X0142500D02*
D03*
X0146240D02*
D03*
Y0205213D02*
D03*
X0138760D02*
D03*
G54D71*
X0194157Y0541900D02*
D03*
Y0546900D02*
D03*
Y0551900D02*
D03*
Y0556900D02*
D03*
X0151243Y0541900D02*
D03*
Y0546900D02*
D03*
Y0551900D02*
D03*
Y0556900D02*
D03*
X0194157Y0356400D02*
D03*
Y0361400D02*
D03*
Y0366400D02*
D03*
Y0371400D02*
D03*
X0151243Y0356400D02*
D03*
Y0361400D02*
D03*
Y0366400D02*
D03*
Y0371400D02*
D03*
X0194157Y0296400D02*
D03*
Y0301400D02*
D03*
Y0306400D02*
D03*
Y0311400D02*
D03*
X0151243Y0296400D02*
D03*
Y0301400D02*
D03*
Y0306400D02*
D03*
Y0311400D02*
D03*
X0194157Y0501400D02*
D03*
Y0506400D02*
D03*
Y0511400D02*
D03*
Y0516400D02*
D03*
X0151243Y0501400D02*
D03*
Y0506400D02*
D03*
Y0511400D02*
D03*
Y0516400D02*
D03*
G54D72*
X0193893Y0416900D02*
D03*
Y0421900D02*
D03*
Y0426900D02*
D03*
Y0431900D02*
D03*
Y0436900D02*
D03*
Y0441900D02*
D03*
Y0446900D02*
D03*
Y0451900D02*
D03*
X0155507Y0416900D02*
D03*
Y0421900D02*
D03*
Y0426900D02*
D03*
Y0431900D02*
D03*
Y0436900D02*
D03*
Y0441900D02*
D03*
Y0446900D02*
D03*
Y0451900D02*
D03*
G54D73*
X0084276Y0262602D02*
D03*
Y0259452D02*
D03*
Y0256303D02*
D03*
Y0253153D02*
D03*
Y0250004D02*
D03*
Y0246854D02*
D03*
Y0243704D02*
D03*
Y0240555D02*
D03*
Y0237405D02*
D03*
Y0234256D02*
D03*
Y0231106D02*
D03*
Y0227956D02*
D03*
Y0224807D02*
D03*
Y0221657D02*
D03*
Y0218507D02*
D03*
Y0215358D02*
D03*
Y0212208D02*
D03*
Y0209059D02*
D03*
Y0205909D02*
D03*
Y0202759D02*
D03*
Y0199610D02*
D03*
Y0196460D02*
D03*
Y0193311D02*
D03*
Y0190161D02*
D03*
Y0187011D02*
D03*
Y0183862D02*
D03*
Y0180712D02*
D03*
Y0177563D02*
D03*
Y0174413D02*
D03*
Y0171263D02*
D03*
X0103662Y0262602D02*
D03*
Y0259452D02*
D03*
Y0256303D02*
D03*
Y0253153D02*
D03*
Y0250004D02*
D03*
Y0246854D02*
D03*
Y0243704D02*
D03*
Y0240555D02*
D03*
Y0237405D02*
D03*
Y0234256D02*
D03*
Y0231106D02*
D03*
Y0227956D02*
D03*
Y0224807D02*
D03*
Y0221657D02*
D03*
Y0218507D02*
D03*
Y0215358D02*
D03*
Y0212208D02*
D03*
Y0209059D02*
D03*
Y0205909D02*
D03*
Y0202759D02*
D03*
Y0199610D02*
D03*
Y0196460D02*
D03*
Y0193311D02*
D03*
Y0190161D02*
D03*
Y0187011D02*
D03*
Y0183862D02*
D03*
Y0180712D02*
D03*
Y0177563D02*
D03*
Y0174413D02*
D03*
Y0171263D02*
D03*
X0103662Y0344671D02*
D03*
X0084276D02*
D03*
X0103662Y0347820D02*
D03*
X0084276D02*
D03*
X0103662Y0350970D02*
D03*
X0084276D02*
D03*
X0103662Y0354119D02*
D03*
X0084276D02*
D03*
X0103662Y0357269D02*
D03*
X0084276D02*
D03*
X0103662Y0360419D02*
D03*
X0084276D02*
D03*
X0103662Y0363568D02*
D03*
X0084276D02*
D03*
X0103662Y0366718D02*
D03*
X0084276D02*
D03*
X0103662Y0369867D02*
D03*
X0084276D02*
D03*
X0103662Y0373017D02*
D03*
X0084276D02*
D03*
X0103662Y0376167D02*
D03*
X0084276D02*
D03*
X0103662Y0379316D02*
D03*
X0084276D02*
D03*
X0103662Y0382466D02*
D03*
X0084276D02*
D03*
X0103662Y0385615D02*
D03*
X0084276D02*
D03*
X0103662Y0388765D02*
D03*
X0084276D02*
D03*
X0103662Y0391915D02*
D03*
X0084276D02*
D03*
X0103662Y0395064D02*
D03*
X0084276D02*
D03*
X0103662Y0398214D02*
D03*
X0084276D02*
D03*
X0103662Y0401364D02*
D03*
X0084276D02*
D03*
X0103662Y0404513D02*
D03*
X0084276D02*
D03*
X0103662Y0407663D02*
D03*
X0084276D02*
D03*
X0103662Y0410812D02*
D03*
X0084276D02*
D03*
X0103662Y0413962D02*
D03*
X0084276D02*
D03*
X0103662Y0417112D02*
D03*
X0084276D02*
D03*
X0103662Y0420261D02*
D03*
X0084276D02*
D03*
X0103662Y0423411D02*
D03*
X0084276D02*
D03*
X0103662Y0426560D02*
D03*
X0084276D02*
D03*
X0103662Y0429710D02*
D03*
X0084276D02*
D03*
X0103662Y0432860D02*
D03*
X0084276D02*
D03*
X0103662Y0436009D02*
D03*
X0084276D02*
D03*
X0103662Y0439159D02*
D03*
X0084276D02*
D03*
X0103662Y0442308D02*
D03*
X0084276D02*
D03*
X0103662Y0458056D02*
D03*
X0084276D02*
D03*
X0103662Y0461206D02*
D03*
X0084276D02*
D03*
X0103662Y0464356D02*
D03*
X0084276D02*
D03*
X0103662Y0467505D02*
D03*
X0084276D02*
D03*
X0103662Y0470655D02*
D03*
X0084276D02*
D03*
X0103662Y0473805D02*
D03*
X0084276D02*
D03*
X0103662Y0476954D02*
D03*
X0084276D02*
D03*
X0103662Y0480104D02*
D03*
X0084276D02*
D03*
X0103662Y0483253D02*
D03*
X0084276D02*
D03*
X0103662Y0486403D02*
D03*
X0084276D02*
D03*
X0103662Y0489552D02*
D03*
X0084276D02*
D03*
X0103662Y0492702D02*
D03*
X0084276D02*
D03*
X0103662Y0495852D02*
D03*
X0084276D02*
D03*
X0103662Y0499001D02*
D03*
X0084276D02*
D03*
X0103662Y0502151D02*
D03*
X0084276D02*
D03*
X0103662Y0505301D02*
D03*
X0084276D02*
D03*
X0103662Y0508450D02*
D03*
X0084276D02*
D03*
X0103662Y0511600D02*
D03*
X0084276D02*
D03*
X0103662Y0514749D02*
D03*
X0084276D02*
D03*
X0103662Y0517899D02*
D03*
X0084276D02*
D03*
X0103662Y0521049D02*
D03*
X0084276D02*
D03*
X0103662Y0524198D02*
D03*
X0084276D02*
D03*
X0103662Y0527348D02*
D03*
X0084276Y0527348D02*
D03*
X0103662Y0530497D02*
D03*
X0084276D02*
D03*
X0103662Y0533647D02*
D03*
X0084276Y0533647D02*
D03*
X0103662Y0536797D02*
D03*
X0084276D02*
D03*
X0103662Y0539946D02*
D03*
X0084276D02*
D03*
X0103662Y0543096D02*
D03*
X0084276D02*
D03*
G54D74*
X0130769Y0575300D02*
D03*
X0492200Y0576400D02*
D03*
Y0160400D02*
D03*
G54D75*
X0427960Y0198105D02*
D03*
X0331960D02*
D03*
X0256999D02*
D03*
G54D76*
X0465440D02*
D03*
X0458700Y0403266D02*
D03*
Y0511534D02*
D03*
X0369440Y0198105D02*
D03*
X0294479D02*
D03*
G54D77*
X0280440Y0270900D02*
D03*
G54D78*
Y0280900D02*
D03*
Y0300900D02*
D03*
Y0310900D02*
D03*
Y0330900D02*
D03*
Y0340900D02*
D03*
Y0360900D02*
D03*
Y0370900D02*
D03*
Y0390900D02*
D03*
Y0400900D02*
D03*
Y0410900D02*
D03*
Y0430900D02*
D03*
Y0440900D02*
D03*
Y0460900D02*
D03*
Y0480900D02*
D03*
Y0490900D02*
D03*
Y0500900D02*
D03*
Y0510900D02*
D03*
Y0520900D02*
D03*
Y0530900D02*
D03*
Y0540900D02*
D03*
Y0550900D02*
D03*
Y0560900D02*
D03*
G54D79*
X0422960Y0549876D02*
D03*
Y0510506D02*
D03*
Y0471136D02*
D03*
Y0431766D02*
D03*
Y0392396D02*
D03*
Y0353026D02*
D03*
Y0313656D02*
D03*
G54D80*
X0197200Y0163400D02*
D03*
X0137200D02*
D03*
G54D81*
X0122498Y0278400D02*
D03*
X0129200Y0465900D02*
D03*
G54D82*
X0132498Y0278400D02*
D03*
Y0268400D02*
D03*
X0132498Y0258400D02*
D03*
X0132498Y0248400D02*
D03*
Y0238400D02*
D03*
X0122498Y0268400D02*
D03*
Y0258400D02*
D03*
Y0248400D02*
D03*
Y0238400D02*
D03*
X0139200Y0405900D02*
D03*
X0129200D02*
D03*
X0139200Y0415900D02*
D03*
X0129200D02*
D03*
X0139200Y0425900D02*
D03*
X0129200D02*
D03*
X0139200Y0435900D02*
D03*
X0129200D02*
D03*
X0139200Y0445900D02*
D03*
X0129200D02*
D03*
X0139200Y0455900D02*
D03*
X0129200D02*
D03*
X0139200Y0465900D02*
D03*
G54D83*
X0099874Y0165358D02*
D03*
X0093969Y0268507D02*
D03*
X0099874Y0338765D02*
D03*
X0093969Y0549001D02*
D03*
G54D84*
X0093969Y0329513D02*
D03*
Y0558253D02*
D03*
G54D85*
X0362330Y0549876D02*
D03*
Y0274286D02*
D03*
G54D86*
X0196287Y0200683D02*
D03*
Y0206117D02*
D03*
X0202113Y0200683D02*
D03*
Y0206117D02*
D03*
X0199200Y0203400D02*
D03*
G54D87*
X0194500Y0256800D02*
D03*
Y0251400D02*
D03*
X0196800Y0254200D02*
D03*
X0192123Y0254237D02*
D03*
X0207350Y0260050D02*
D03*
X0203200Y0264493D02*
D03*
X0199050Y0260050D02*
D03*
X0194751Y0224451D02*
D03*
X0194157Y0560357D02*
D03*
X0152200Y0205900D02*
D03*
Y0209900D02*
D03*
Y0213900D02*
D03*
X0133700Y0186400D02*
D03*
Y0190900D02*
D03*
Y0194900D02*
D03*
X0261700Y0520900D02*
D03*
X0198350Y0528050D02*
D03*
X0203050Y0536050D02*
D03*
X0224200Y0529400D02*
D03*
X0217924Y0529124D02*
D03*
X0203700Y0494900D02*
D03*
X0198050Y0488750D02*
D03*
Y0495050D02*
D03*
X0194157Y0519857D02*
D03*
X0142550Y0495750D02*
D03*
X0136250D02*
D03*
X0146200Y0516400D02*
D03*
X0208700Y0462693D02*
D03*
X0202200Y0462400D02*
D03*
X0149300Y0470300D02*
D03*
X0155500Y0470200D02*
D03*
X0214200Y0540000D02*
D03*
X0112600Y0383600D02*
D03*
X0132100Y0294300D02*
D03*
X0131200Y0354900D02*
D03*
X0127100Y0379400D02*
D03*
X0127400Y0357500D02*
D03*
X0091500Y0429700D02*
D03*
X0091400Y0401400D02*
D03*
X0112830Y0353069D02*
D03*
X0199200Y0416900D02*
D03*
X0076700Y0379316D02*
D03*
X0262511Y0404250D02*
D03*
X0262830Y0413569D02*
D03*
Y0410069D02*
D03*
X0118149Y0470750D02*
D03*
X0076530Y0357269D02*
D03*
X0113050Y0166790D02*
D03*
Y0201290D02*
D03*
X0118621Y0402278D02*
D03*
X0095095Y0473805D02*
D03*
X0142480Y0290179D02*
D03*
X0131700Y0540400D02*
D03*
X0145200Y0558400D02*
D03*
X0142350Y0536050D02*
D03*
X0145200Y0372900D02*
D03*
X0262000Y0280900D02*
D03*
X0075734Y0240555D02*
D03*
Y0205909D02*
D03*
Y0171263D02*
D03*
X0144700Y0312900D02*
D03*
X0142350Y0350050D02*
D03*
X0245330Y0491569D02*
D03*
X0243200Y0483900D02*
D03*
Y0479900D02*
D03*
X0261200Y0569900D02*
D03*
X0260700Y0549900D02*
D03*
Y0542400D02*
D03*
X0261700Y0389400D02*
D03*
X0261200Y0334900D02*
D03*
Y0340900D02*
D03*
X0112203Y0530497D02*
D03*
Y0521049D02*
D03*
Y0511600D02*
D03*
Y0486403D02*
D03*
X0076400Y0533647D02*
D03*
Y0524198D02*
D03*
Y0514749D02*
D03*
Y0499001D02*
D03*
Y0489552D02*
D03*
X0245200Y0496400D02*
D03*
X0150200Y0416900D02*
D03*
X0114200Y0481400D02*
D03*
Y0412900D02*
D03*
X0124200Y0205900D02*
D03*
Y0171400D02*
D03*
X0262000Y0272400D02*
D03*
X0204500Y0313900D02*
D03*
X0204500Y0294100D02*
D03*
X0203900Y0354000D02*
D03*
Y0373800D02*
D03*
X0138000Y0231699D02*
D03*
X0142350Y0227350D02*
D03*
X0133650D02*
D03*
G54D88*
X0201050Y0224650D02*
D03*
X0224200Y0513900D02*
D03*
X0220550Y0498750D02*
D03*
X0131800Y0506600D02*
D03*
Y0512800D02*
D03*
X0141600Y0381200D02*
D03*
X0134300Y0380900D02*
D03*
X0115330Y0454069D02*
D03*
X0122700Y0555900D02*
D03*
X0131700Y0546900D02*
D03*
X0091667Y0376167D02*
D03*
X0091700Y0372900D02*
D03*
X0077356Y0458056D02*
D03*
X0077244Y0464356D02*
D03*
X0112346Y0367754D02*
D03*
X0112300Y0363300D02*
D03*
X0110698Y0391900D02*
D03*
X0091198Y0413900D02*
D03*
X0091200Y0410900D02*
D03*
X0110698Y0398400D02*
D03*
M02*
