G04 Layer_Physical_Order=2*
G04 Layer_Color=36540*
%FSAX25Y25*%
%MOIN*%
G70*
G01*
G75*
%ADD24C,0.01000*%
%ADD31C,0.00800*%
%ADD33C,0.07087*%
%ADD35C,0.07972*%
%ADD36C,0.14173*%
%ADD37C,0.06102*%
%ADD39R,0.06496X0.06496*%
%ADD40C,0.06496*%
%ADD44C,0.01968*%
%ADD45C,0.02400*%
%ADD47C,0.08000*%
%ADD48C,0.00700*%
G36*
X0264300Y0406904D02*
X0263398Y0406341D01*
X0263300Y0406336D01*
X0262511Y0406494D01*
X0261652Y0406323D01*
X0260925Y0405836D01*
X0260438Y0405109D01*
X0260268Y0404250D01*
X0260438Y0403392D01*
X0260925Y0402664D01*
X0261652Y0402178D01*
X0262511Y0402007D01*
X0263300Y0402164D01*
X0263398Y0402160D01*
X0264300Y0401597D01*
Y0229400D01*
X0221400Y0186500D01*
X0221400Y0155949D01*
X0190500D01*
Y0275500D01*
X0195400Y0280400D01*
X0211200D01*
X0217900Y0287100D01*
Y0384000D01*
X0211600Y0390300D01*
X0191600D01*
X0190500Y0391400D01*
Y0580851D01*
X0264300D01*
Y0406904D01*
D02*
G37*
G36*
X0496651Y0578449D02*
Y0158351D01*
X0494249Y0155949D01*
X0419271D01*
X0418823Y0156396D01*
X0418823Y0180900D01*
X0442200Y0180900D01*
X0444200Y0182900D01*
X0444200Y0213400D01*
X0441700Y0215900D01*
X0419537Y0215900D01*
X0418845Y0216584D01*
X0418824Y0294624D01*
X0419210Y0294941D01*
X0420463Y0294692D01*
X0422960Y0294528D01*
X0425456Y0294692D01*
X0427910Y0295180D01*
X0430280Y0295984D01*
X0432524Y0297091D01*
X0434604Y0298481D01*
X0436485Y0300131D01*
X0438135Y0302012D01*
X0439525Y0304092D01*
X0440631Y0306336D01*
X0441436Y0308705D01*
X0441924Y0311159D01*
X0442087Y0313656D01*
X0441924Y0316153D01*
X0441436Y0318606D01*
X0441038Y0319778D01*
X0447330Y0326069D01*
X0447330Y0386069D01*
X0448830Y0387569D01*
X0460869Y0387569D01*
X0461175Y0387876D01*
X0463518Y0388438D01*
X0465778Y0389374D01*
X0467864Y0390652D01*
X0469725Y0392241D01*
X0471314Y0394102D01*
X0472592Y0396188D01*
X0473528Y0398448D01*
X0474099Y0400827D01*
X0474291Y0403266D01*
X0474099Y0405705D01*
X0473528Y0408084D01*
X0472592Y0410345D01*
X0471314Y0412430D01*
X0469725Y0414291D01*
X0467864Y0415880D01*
X0465778Y0417158D01*
X0463518Y0418094D01*
X0461139Y0418666D01*
X0458700Y0418857D01*
X0456261Y0418666D01*
X0453882Y0418094D01*
X0451622Y0417158D01*
X0449569Y0415900D01*
X0449200D01*
X0446700Y0418400D01*
X0446700Y0460900D01*
X0444200Y0463400D01*
X0411700D01*
X0409200Y0465900D01*
Y0578400D01*
X0411651Y0580851D01*
X0494249D01*
X0496651Y0578449D01*
D02*
G37*
G36*
X0155000Y0577600D02*
X0155000Y0480100D01*
X0158900Y0476200D01*
X0158900Y0408100D01*
X0155000Y0404200D01*
Y0156700D01*
X0154249Y0155949D01*
X0074251D01*
X0071749Y0158451D01*
Y0578449D01*
X0074151Y0580851D01*
X0151749D01*
X0155000Y0577600D01*
D02*
G37*
%LPC*%
G36*
X0203200Y0266736D02*
X0202342Y0266565D01*
X0201614Y0266079D01*
X0201128Y0265351D01*
X0200957Y0264493D01*
X0201128Y0263634D01*
X0201614Y0262906D01*
X0202342Y0262420D01*
X0203200Y0262249D01*
X0204058Y0262420D01*
X0204786Y0262906D01*
X0205272Y0263634D01*
X0205443Y0264493D01*
X0205272Y0265351D01*
X0204786Y0266079D01*
X0204058Y0266565D01*
X0203200Y0266736D01*
D02*
G37*
G36*
X0201050Y0226689D02*
X0200270Y0226534D01*
X0199609Y0226092D01*
X0199166Y0225430D01*
X0199011Y0224650D01*
X0199166Y0223870D01*
X0199609Y0223208D01*
X0200270Y0222766D01*
X0201050Y0222611D01*
X0201831Y0222766D01*
X0202492Y0223208D01*
X0202934Y0223870D01*
X0203090Y0224650D01*
X0202934Y0225430D01*
X0202492Y0226092D01*
X0201831Y0226534D01*
X0201050Y0226689D01*
D02*
G37*
G36*
X0201251Y0167451D02*
X0193149D01*
Y0159349D01*
X0201251D01*
Y0167451D01*
D02*
G37*
G36*
X0207350Y0262293D02*
X0206491Y0262122D01*
X0205764Y0261636D01*
X0205277Y0260908D01*
X0205106Y0260050D01*
X0205277Y0259191D01*
X0205764Y0258464D01*
X0206491Y0257977D01*
X0207350Y0257806D01*
X0208208Y0257977D01*
X0208936Y0258464D01*
X0209422Y0259191D01*
X0209593Y0260050D01*
X0209422Y0260908D01*
X0208936Y0261636D01*
X0208208Y0262122D01*
X0207350Y0262293D01*
D02*
G37*
G36*
X0199050D02*
X0198192Y0262122D01*
X0197464Y0261636D01*
X0196978Y0260908D01*
X0196807Y0260050D01*
X0196978Y0259191D01*
X0197464Y0258464D01*
X0198192Y0257977D01*
X0199050Y0257806D01*
X0199909Y0257977D01*
X0200637Y0258464D01*
X0201123Y0259191D01*
X0201293Y0260050D01*
X0201123Y0260908D01*
X0200637Y0261636D01*
X0199909Y0262122D01*
X0199050Y0262293D01*
D02*
G37*
G36*
X0198050Y0497293D02*
X0197192Y0497122D01*
X0196464Y0496636D01*
X0195978Y0495908D01*
X0195807Y0495050D01*
X0195978Y0494191D01*
X0196464Y0493464D01*
X0197192Y0492977D01*
X0198050Y0492806D01*
X0198909Y0492977D01*
X0199636Y0493464D01*
X0200123Y0494191D01*
X0200293Y0495050D01*
X0200123Y0495908D01*
X0199636Y0496636D01*
X0198909Y0497122D01*
X0198050Y0497293D01*
D02*
G37*
G36*
X0243200Y0486143D02*
X0242342Y0485972D01*
X0241614Y0485486D01*
X0241128Y0484758D01*
X0240957Y0483900D01*
X0241128Y0483042D01*
X0241614Y0482314D01*
Y0481486D01*
X0241128Y0480758D01*
X0240957Y0479900D01*
X0241128Y0479042D01*
X0241614Y0478314D01*
X0242342Y0477828D01*
X0243200Y0477657D01*
X0244058Y0477828D01*
X0244786Y0478314D01*
X0245272Y0479042D01*
X0245443Y0479900D01*
X0245272Y0480758D01*
X0244786Y0481486D01*
Y0482314D01*
X0245272Y0483042D01*
X0245443Y0483900D01*
X0245272Y0484758D01*
X0244786Y0485486D01*
X0244058Y0485972D01*
X0243200Y0486143D01*
D02*
G37*
G36*
X0220550Y0500790D02*
X0219770Y0500634D01*
X0219109Y0500192D01*
X0218666Y0499531D01*
X0218511Y0498750D01*
X0218666Y0497970D01*
X0219109Y0497308D01*
X0219770Y0496866D01*
X0220550Y0496711D01*
X0221331Y0496866D01*
X0221992Y0497308D01*
X0222434Y0497970D01*
X0222590Y0498750D01*
X0222434Y0499531D01*
X0221992Y0500192D01*
X0221331Y0500634D01*
X0220550Y0500790D01*
D02*
G37*
G36*
X0203050Y0538293D02*
X0202192Y0538122D01*
X0201464Y0537636D01*
X0200978Y0536908D01*
X0200807Y0536050D01*
X0200978Y0535191D01*
X0201464Y0534464D01*
X0202192Y0533977D01*
X0203050Y0533807D01*
X0203909Y0533977D01*
X0204637Y0534464D01*
X0205123Y0535191D01*
X0205293Y0536050D01*
X0205123Y0536908D01*
X0204637Y0537636D01*
X0203909Y0538122D01*
X0203050Y0538293D01*
D02*
G37*
G36*
X0224200Y0531643D02*
X0223342Y0531472D01*
X0222614Y0530986D01*
X0222128Y0530258D01*
X0221957Y0529400D01*
X0222128Y0528542D01*
X0222614Y0527814D01*
X0223342Y0527328D01*
X0224200Y0527157D01*
X0225058Y0527328D01*
X0225786Y0527814D01*
X0226272Y0528542D01*
X0226443Y0529400D01*
X0226272Y0530258D01*
X0225786Y0530986D01*
X0225058Y0531472D01*
X0224200Y0531643D01*
D02*
G37*
G36*
X0198350Y0530293D02*
X0197491Y0530122D01*
X0196764Y0529636D01*
X0196277Y0528908D01*
X0196107Y0528050D01*
X0196277Y0527191D01*
X0196764Y0526464D01*
X0197491Y0525977D01*
X0198350Y0525807D01*
X0199208Y0525977D01*
X0199936Y0526464D01*
X0200422Y0527191D01*
X0200593Y0528050D01*
X0200422Y0528908D01*
X0199936Y0529636D01*
X0199208Y0530122D01*
X0198350Y0530293D01*
D02*
G37*
G36*
X0224200Y0515939D02*
X0223420Y0515784D01*
X0222758Y0515342D01*
X0222316Y0514680D01*
X0222161Y0513900D01*
X0222316Y0513120D01*
X0222758Y0512458D01*
X0223420Y0512016D01*
X0224200Y0511861D01*
X0224980Y0512016D01*
X0225642Y0512458D01*
X0226084Y0513120D01*
X0226239Y0513900D01*
X0226084Y0514680D01*
X0225642Y0515342D01*
X0224980Y0515784D01*
X0224200Y0515939D01*
D02*
G37*
G36*
X0208700Y0464936D02*
X0207842Y0464766D01*
X0207114Y0464279D01*
X0206628Y0463552D01*
X0206457Y0462693D01*
X0206628Y0461835D01*
X0207114Y0461107D01*
X0207842Y0460621D01*
X0208700Y0460450D01*
X0209558Y0460621D01*
X0210286Y0461107D01*
X0210772Y0461835D01*
X0210943Y0462693D01*
X0210772Y0463552D01*
X0210286Y0464279D01*
X0209558Y0464766D01*
X0208700Y0464936D01*
D02*
G37*
G36*
X0099874Y0342295D02*
X0098960Y0342175D01*
X0098109Y0341822D01*
X0097378Y0341261D01*
X0096817Y0340530D01*
X0096464Y0339679D01*
X0096344Y0338765D01*
X0096464Y0337851D01*
X0096817Y0337000D01*
X0097378Y0336269D01*
X0098109Y0335708D01*
X0098960Y0335355D01*
X0099874Y0335235D01*
X0100788Y0335355D01*
X0101639Y0335708D01*
X0102370Y0336269D01*
X0102931Y0337000D01*
X0103284Y0337851D01*
X0103404Y0338765D01*
X0103284Y0339679D01*
X0102931Y0340530D01*
X0102370Y0341261D01*
X0101639Y0341822D01*
X0100788Y0342175D01*
X0099874Y0342295D01*
D02*
G37*
G36*
X0093969Y0333198D02*
X0093015Y0333072D01*
X0092126Y0332704D01*
X0091363Y0332119D01*
X0090778Y0331355D01*
X0090409Y0330467D01*
X0090284Y0329513D01*
X0090409Y0328559D01*
X0090778Y0327670D01*
X0091363Y0326907D01*
X0092126Y0326322D01*
X0093015Y0325953D01*
X0093969Y0325828D01*
X0094923Y0325953D01*
X0095811Y0326322D01*
X0096575Y0326907D01*
X0097160Y0327670D01*
X0097528Y0328559D01*
X0097654Y0329513D01*
X0097528Y0330467D01*
X0097160Y0331355D01*
X0096575Y0332119D01*
X0095811Y0332704D01*
X0094923Y0333072D01*
X0093969Y0333198D01*
D02*
G37*
G36*
X0112830Y0355312D02*
X0111971Y0355142D01*
X0111244Y0354655D01*
X0110757Y0353928D01*
X0110587Y0353069D01*
X0110757Y0352211D01*
X0111244Y0351483D01*
X0111971Y0350997D01*
X0112830Y0350826D01*
X0113688Y0350997D01*
X0114416Y0351483D01*
X0114902Y0352211D01*
X0115073Y0353069D01*
X0114902Y0353928D01*
X0114416Y0354655D01*
X0113688Y0355142D01*
X0112830Y0355312D01*
D02*
G37*
G36*
X0142350Y0352293D02*
X0141491Y0352122D01*
X0140763Y0351636D01*
X0140277Y0350908D01*
X0140106Y0350050D01*
X0140277Y0349191D01*
X0140763Y0348464D01*
X0141491Y0347977D01*
X0142350Y0347807D01*
X0143208Y0347977D01*
X0143936Y0348464D01*
X0144422Y0349191D01*
X0144593Y0350050D01*
X0144422Y0350908D01*
X0143936Y0351636D01*
X0143208Y0352122D01*
X0142350Y0352293D01*
D02*
G37*
G36*
X0093969Y0272038D02*
X0093055Y0271917D01*
X0092204Y0271565D01*
X0091473Y0271004D01*
X0090912Y0270272D01*
X0090559Y0269421D01*
X0090439Y0268507D01*
X0090559Y0267594D01*
X0090912Y0266742D01*
X0091473Y0266011D01*
X0092204Y0265450D01*
X0093055Y0265097D01*
X0093969Y0264977D01*
X0094883Y0265097D01*
X0095734Y0265450D01*
X0096465Y0266011D01*
X0097026Y0266742D01*
X0097379Y0267594D01*
X0097499Y0268507D01*
X0097379Y0269421D01*
X0097026Y0270272D01*
X0096465Y0271004D01*
X0095734Y0271565D01*
X0094883Y0271917D01*
X0093969Y0272038D01*
D02*
G37*
G36*
X0132498Y0272685D02*
X0131389Y0272539D01*
X0130355Y0272111D01*
X0129468Y0271430D01*
X0128787Y0270542D01*
X0128359Y0269509D01*
X0128213Y0268400D01*
X0128359Y0267291D01*
X0128787Y0266258D01*
X0129468Y0265370D01*
X0130355Y0264689D01*
X0131389Y0264261D01*
X0132498Y0264115D01*
X0133607Y0264261D01*
X0134640Y0264689D01*
X0135527Y0265370D01*
X0136208Y0266258D01*
X0136636Y0267291D01*
X0136782Y0268400D01*
X0136636Y0269509D01*
X0136208Y0270542D01*
X0135527Y0271430D01*
X0134640Y0272111D01*
X0133607Y0272539D01*
X0132498Y0272685D01*
D02*
G37*
G36*
X0142480Y0292423D02*
X0141621Y0292252D01*
X0140893Y0291766D01*
X0140407Y0291038D01*
X0140236Y0290179D01*
X0140407Y0289321D01*
X0140893Y0288593D01*
X0141621Y0288107D01*
X0142480Y0287936D01*
X0143338Y0288107D01*
X0144066Y0288593D01*
X0144552Y0289321D01*
X0144723Y0290179D01*
X0144552Y0291038D01*
X0144066Y0291766D01*
X0143338Y0292252D01*
X0142480Y0292423D01*
D02*
G37*
G36*
X0132498Y0282685D02*
X0131389Y0282539D01*
X0130355Y0282111D01*
X0129468Y0281430D01*
X0128787Y0280542D01*
X0128359Y0279509D01*
X0128213Y0278400D01*
X0128359Y0277291D01*
X0128787Y0276258D01*
X0129468Y0275370D01*
X0130355Y0274689D01*
X0131389Y0274261D01*
X0132498Y0274115D01*
X0133607Y0274261D01*
X0134640Y0274689D01*
X0135527Y0275370D01*
X0136208Y0276258D01*
X0136636Y0277291D01*
X0136782Y0278400D01*
X0136636Y0279509D01*
X0136208Y0280542D01*
X0135527Y0281430D01*
X0134640Y0282111D01*
X0133607Y0282539D01*
X0132498Y0282685D01*
D02*
G37*
G36*
X0122700Y0557939D02*
X0121920Y0557784D01*
X0121258Y0557342D01*
X0120816Y0556680D01*
X0120661Y0555900D01*
X0120816Y0555120D01*
X0121258Y0554458D01*
X0121920Y0554016D01*
X0122700Y0553861D01*
X0123480Y0554016D01*
X0124142Y0554458D01*
X0124584Y0555120D01*
X0124739Y0555900D01*
X0124584Y0556680D01*
X0124142Y0557342D01*
X0123480Y0557784D01*
X0122700Y0557939D01*
D02*
G37*
G36*
X0112600Y0385843D02*
X0111742Y0385672D01*
X0111014Y0385186D01*
X0110528Y0384458D01*
X0110357Y0383600D01*
X0110528Y0382742D01*
X0111014Y0382014D01*
X0111742Y0381528D01*
X0112600Y0381357D01*
X0113458Y0381528D01*
X0114186Y0382014D01*
X0114672Y0382742D01*
X0114843Y0383600D01*
X0114672Y0384458D01*
X0114186Y0385186D01*
X0113458Y0385672D01*
X0112600Y0385843D01*
D02*
G37*
G36*
X0110698Y0400439D02*
X0109918Y0400284D01*
X0109257Y0399842D01*
X0108815Y0399180D01*
X0108659Y0398400D01*
X0108815Y0397620D01*
X0109257Y0396958D01*
X0109918Y0396516D01*
X0110698Y0396361D01*
X0111479Y0396516D01*
X0112141Y0396958D01*
X0112583Y0397620D01*
X0112738Y0398400D01*
X0112583Y0399180D01*
X0112141Y0399842D01*
X0111479Y0400284D01*
X0110698Y0400439D01*
D02*
G37*
G36*
Y0393939D02*
X0109918Y0393784D01*
X0109257Y0393342D01*
X0108815Y0392680D01*
X0108659Y0391900D01*
X0108815Y0391120D01*
X0109257Y0390458D01*
X0109918Y0390016D01*
X0110698Y0389861D01*
X0111479Y0390016D01*
X0112141Y0390458D01*
X0112583Y0391120D01*
X0112738Y0391900D01*
X0112583Y0392680D01*
X0112141Y0393342D01*
X0111479Y0393784D01*
X0110698Y0393939D01*
D02*
G37*
G36*
X0091667Y0378206D02*
X0090886Y0378051D01*
X0090225Y0377609D01*
X0089783Y0376947D01*
X0089627Y0376167D01*
X0089783Y0375386D01*
X0090225Y0374725D01*
X0089869Y0373760D01*
X0089816Y0373680D01*
X0089661Y0372900D01*
X0089816Y0372120D01*
X0090258Y0371458D01*
X0090920Y0371016D01*
X0091700Y0370861D01*
X0092480Y0371016D01*
X0093142Y0371458D01*
X0093584Y0372120D01*
X0093739Y0372900D01*
X0093584Y0373680D01*
X0093142Y0374342D01*
X0093498Y0375307D01*
X0093551Y0375386D01*
X0093706Y0376167D01*
X0093551Y0376947D01*
X0093109Y0377609D01*
X0092447Y0378051D01*
X0091667Y0378206D01*
D02*
G37*
G36*
X0112346Y0369794D02*
X0111565Y0369638D01*
X0110904Y0369196D01*
X0110462Y0368535D01*
X0110307Y0367754D01*
X0110462Y0366974D01*
X0110904Y0366312D01*
X0111225Y0366098D01*
X0111258Y0365994D01*
X0111236Y0365016D01*
X0111225Y0364987D01*
X0110858Y0364742D01*
X0110416Y0364080D01*
X0110261Y0363300D01*
X0110416Y0362520D01*
X0110858Y0361858D01*
X0111520Y0361416D01*
X0112300Y0361261D01*
X0113080Y0361416D01*
X0113742Y0361858D01*
X0114184Y0362520D01*
X0114339Y0363300D01*
X0114184Y0364080D01*
X0113742Y0364742D01*
X0113421Y0364956D01*
X0113387Y0365060D01*
X0113410Y0366038D01*
X0113421Y0366068D01*
X0113788Y0366312D01*
X0114230Y0366974D01*
X0114385Y0367754D01*
X0114230Y0368535D01*
X0113788Y0369196D01*
X0113126Y0369638D01*
X0112346Y0369794D01*
D02*
G37*
G36*
X0141600Y0383239D02*
X0140820Y0383084D01*
X0140158Y0382642D01*
X0139716Y0381980D01*
X0139561Y0381200D01*
X0139716Y0380420D01*
X0140158Y0379758D01*
X0140820Y0379316D01*
X0141600Y0379161D01*
X0142380Y0379316D01*
X0143042Y0379758D01*
X0143484Y0380420D01*
X0143639Y0381200D01*
X0143484Y0381980D01*
X0143042Y0382642D01*
X0142380Y0383084D01*
X0141600Y0383239D01*
D02*
G37*
G36*
X0134300Y0382939D02*
X0133520Y0382784D01*
X0132858Y0382342D01*
X0132416Y0381680D01*
X0132261Y0380900D01*
X0132416Y0380120D01*
X0132858Y0379458D01*
X0133520Y0379016D01*
X0134300Y0378861D01*
X0135080Y0379016D01*
X0135742Y0379458D01*
X0136184Y0380120D01*
X0136339Y0380900D01*
X0136184Y0381680D01*
X0135742Y0382342D01*
X0135080Y0382784D01*
X0134300Y0382939D01*
D02*
G37*
G36*
X0133700Y0197143D02*
X0132842Y0196972D01*
X0132114Y0196486D01*
X0131628Y0195758D01*
X0131457Y0194900D01*
X0131628Y0194042D01*
X0132114Y0193314D01*
Y0192486D01*
X0131628Y0191758D01*
X0131457Y0190900D01*
X0131628Y0190042D01*
X0132114Y0189314D01*
X0132208Y0189251D01*
Y0188049D01*
X0132114Y0187986D01*
X0131628Y0187258D01*
X0131457Y0186400D01*
X0131628Y0185542D01*
X0132114Y0184814D01*
X0132842Y0184328D01*
X0133700Y0184157D01*
X0134558Y0184328D01*
X0135286Y0184814D01*
X0135772Y0185542D01*
X0135943Y0186400D01*
X0135772Y0187258D01*
X0135286Y0187986D01*
X0135193Y0188049D01*
Y0189251D01*
X0135286Y0189314D01*
X0135772Y0190042D01*
X0135943Y0190900D01*
X0135772Y0191758D01*
X0135286Y0192486D01*
Y0193314D01*
X0135772Y0194042D01*
X0135943Y0194900D01*
X0135772Y0195758D01*
X0135286Y0196486D01*
X0134558Y0196972D01*
X0133700Y0197143D01*
D02*
G37*
G36*
X0113050Y0169033D02*
X0112192Y0168862D01*
X0111464Y0168376D01*
X0110978Y0167648D01*
X0110807Y0166790D01*
X0110978Y0165931D01*
X0111464Y0165204D01*
X0112192Y0164718D01*
X0113050Y0164547D01*
X0113909Y0164718D01*
X0114637Y0165204D01*
X0115123Y0165931D01*
X0115294Y0166790D01*
X0115123Y0167648D01*
X0114637Y0168376D01*
X0113909Y0168862D01*
X0113050Y0169033D01*
D02*
G37*
G36*
Y0203533D02*
X0112192Y0203362D01*
X0111464Y0202876D01*
X0110978Y0202148D01*
X0110807Y0201290D01*
X0110978Y0200431D01*
X0111464Y0199704D01*
X0112192Y0199218D01*
X0113050Y0199047D01*
X0113909Y0199218D01*
X0114637Y0199704D01*
X0115123Y0200431D01*
X0115294Y0201290D01*
X0115123Y0202148D01*
X0114637Y0202876D01*
X0113909Y0203362D01*
X0113050Y0203533D01*
D02*
G37*
G36*
X0141251Y0167451D02*
X0133149D01*
Y0159349D01*
X0141251D01*
Y0167451D01*
D02*
G37*
G36*
X0093969Y0561938D02*
X0093015Y0561812D01*
X0092126Y0561444D01*
X0091363Y0560858D01*
X0090778Y0560095D01*
X0090409Y0559207D01*
X0090284Y0558253D01*
X0090409Y0557299D01*
X0090778Y0556410D01*
X0091363Y0555647D01*
X0092126Y0555061D01*
X0093015Y0554693D01*
X0093969Y0554568D01*
X0094923Y0554693D01*
X0095811Y0555061D01*
X0096575Y0555647D01*
X0097160Y0556410D01*
X0097528Y0557299D01*
X0097654Y0558253D01*
X0097528Y0559207D01*
X0097160Y0560095D01*
X0096575Y0560858D01*
X0095811Y0561444D01*
X0094923Y0561812D01*
X0093969Y0561938D01*
D02*
G37*
G36*
X0099874Y0168888D02*
X0098961Y0168768D01*
X0098109Y0168415D01*
X0097378Y0167854D01*
X0096817Y0167123D01*
X0096464Y0166271D01*
X0096344Y0165358D01*
X0096464Y0164444D01*
X0096817Y0163593D01*
X0097378Y0162862D01*
X0098109Y0162301D01*
X0098961Y0161948D01*
X0099874Y0161828D01*
X0100788Y0161948D01*
X0101639Y0162301D01*
X0102371Y0162862D01*
X0102932Y0163593D01*
X0103284Y0164444D01*
X0103404Y0165358D01*
X0103284Y0166271D01*
X0102932Y0167123D01*
X0102371Y0167854D01*
X0101639Y0168415D01*
X0100788Y0168768D01*
X0099874Y0168888D01*
D02*
G37*
G36*
X0132498Y0262685D02*
X0131389Y0262539D01*
X0130355Y0262111D01*
X0129468Y0261430D01*
X0128787Y0260542D01*
X0128359Y0259509D01*
X0128213Y0258400D01*
X0128359Y0257291D01*
X0128787Y0256258D01*
X0129468Y0255370D01*
X0130355Y0254689D01*
X0131389Y0254261D01*
X0132498Y0254115D01*
X0133607Y0254261D01*
X0134640Y0254689D01*
X0135527Y0255370D01*
X0136208Y0256258D01*
X0136636Y0257291D01*
X0136782Y0258400D01*
X0136636Y0259509D01*
X0136208Y0260542D01*
X0135527Y0261430D01*
X0134640Y0262111D01*
X0133607Y0262539D01*
X0132498Y0262685D01*
D02*
G37*
G36*
X0132498Y0252685D02*
X0131389Y0252539D01*
X0130355Y0252111D01*
X0129468Y0251430D01*
X0128787Y0250542D01*
X0128359Y0249509D01*
X0128213Y0248400D01*
X0128359Y0247291D01*
X0128787Y0246258D01*
X0129468Y0245370D01*
X0130355Y0244689D01*
X0131389Y0244261D01*
X0132498Y0244115D01*
X0133607Y0244261D01*
X0134640Y0244689D01*
X0135527Y0245370D01*
X0136208Y0246258D01*
X0136636Y0247291D01*
X0136782Y0248400D01*
X0136636Y0249509D01*
X0136208Y0250542D01*
X0135527Y0251430D01*
X0134640Y0252111D01*
X0133607Y0252539D01*
X0132498Y0252685D01*
D02*
G37*
G36*
X0142350Y0229593D02*
X0141491Y0229422D01*
X0140763Y0228936D01*
X0140277Y0228208D01*
X0140106Y0227350D01*
X0140277Y0226491D01*
X0140763Y0225764D01*
X0141491Y0225277D01*
X0142350Y0225107D01*
X0143208Y0225277D01*
X0143936Y0225764D01*
X0144422Y0226491D01*
X0144593Y0227350D01*
X0144422Y0228208D01*
X0143936Y0228936D01*
X0143208Y0229422D01*
X0142350Y0229593D01*
D02*
G37*
G36*
X0133650D02*
X0132792Y0229422D01*
X0132064Y0228936D01*
X0131578Y0228208D01*
X0131407Y0227350D01*
X0131578Y0226491D01*
X0132064Y0225764D01*
X0132792Y0225277D01*
X0133650Y0225107D01*
X0134509Y0225277D01*
X0135237Y0225764D01*
X0135723Y0226491D01*
X0135893Y0227350D01*
X0135723Y0228208D01*
X0135237Y0228936D01*
X0134509Y0229422D01*
X0133650Y0229593D01*
D02*
G37*
G36*
X0132498Y0242685D02*
X0131389Y0242539D01*
X0130355Y0242111D01*
X0129468Y0241430D01*
X0128787Y0240542D01*
X0128359Y0239509D01*
X0128213Y0238400D01*
X0128359Y0237291D01*
X0128787Y0236258D01*
X0129468Y0235370D01*
X0130355Y0234689D01*
X0131389Y0234261D01*
X0132498Y0234115D01*
X0133607Y0234261D01*
X0134640Y0234689D01*
X0135527Y0235370D01*
X0136208Y0236258D01*
X0136636Y0237291D01*
X0136782Y0238400D01*
X0136636Y0239509D01*
X0136208Y0240542D01*
X0135527Y0241430D01*
X0134640Y0242111D01*
X0133607Y0242539D01*
X0132498Y0242685D01*
D02*
G37*
G36*
X0138000Y0233942D02*
X0137142Y0233771D01*
X0136414Y0233285D01*
X0135928Y0232558D01*
X0135757Y0231699D01*
X0135928Y0230841D01*
X0136414Y0230113D01*
X0137142Y0229627D01*
X0138000Y0229456D01*
X0138858Y0229627D01*
X0139586Y0230113D01*
X0140072Y0230841D01*
X0140243Y0231699D01*
X0140072Y0232558D01*
X0139586Y0233285D01*
X0138858Y0233771D01*
X0138000Y0233942D01*
D02*
G37*
G36*
X0118621Y0404521D02*
X0117762Y0404351D01*
X0117035Y0403864D01*
X0116549Y0403136D01*
X0116378Y0402278D01*
X0116549Y0401420D01*
X0117035Y0400692D01*
X0117762Y0400206D01*
X0118621Y0400035D01*
X0119479Y0400206D01*
X0120207Y0400692D01*
X0120693Y0401420D01*
X0120864Y0402278D01*
X0120693Y0403136D01*
X0120207Y0403864D01*
X0119479Y0404351D01*
X0118621Y0404521D01*
D02*
G37*
G36*
X0142550Y0497994D02*
X0141691Y0497823D01*
X0140963Y0497336D01*
X0140477Y0496609D01*
X0140306Y0495750D01*
X0140477Y0494892D01*
X0140963Y0494164D01*
X0141691Y0493678D01*
X0142550Y0493507D01*
X0143408Y0493678D01*
X0144136Y0494164D01*
X0144622Y0494892D01*
X0144793Y0495750D01*
X0144622Y0496609D01*
X0144136Y0497336D01*
X0143408Y0497823D01*
X0142550Y0497994D01*
D02*
G37*
G36*
X0077244Y0466395D02*
X0076464Y0466240D01*
X0075802Y0465798D01*
X0075360Y0465136D01*
X0075205Y0464356D01*
X0075360Y0463575D01*
X0075802Y0462914D01*
X0076464Y0462472D01*
X0077244Y0462317D01*
X0078025Y0462472D01*
X0078686Y0462914D01*
X0079128Y0463575D01*
X0079283Y0464356D01*
X0079128Y0465136D01*
X0078686Y0465798D01*
X0078025Y0466240D01*
X0077244Y0466395D01*
D02*
G37*
G36*
X0133448Y0470148D02*
X0124952D01*
Y0461652D01*
X0133448D01*
Y0470148D01*
D02*
G37*
G36*
X0118149Y0472994D02*
X0117290Y0472823D01*
X0116563Y0472336D01*
X0116076Y0471609D01*
X0115906Y0470750D01*
X0116076Y0469892D01*
X0116563Y0469164D01*
X0117290Y0468678D01*
X0118149Y0468507D01*
X0119007Y0468678D01*
X0119735Y0469164D01*
X0120221Y0469892D01*
X0120392Y0470750D01*
X0120221Y0471609D01*
X0119735Y0472336D01*
X0119007Y0472823D01*
X0118149Y0472994D01*
D02*
G37*
G36*
X0149300Y0472543D02*
X0148442Y0472372D01*
X0147714Y0471886D01*
X0147228Y0471158D01*
X0147057Y0470300D01*
X0147228Y0469442D01*
X0147714Y0468714D01*
X0148442Y0468228D01*
X0149300Y0468057D01*
X0150158Y0468228D01*
X0150886Y0468714D01*
X0151372Y0469442D01*
X0151543Y0470300D01*
X0151372Y0471158D01*
X0150886Y0471886D01*
X0150158Y0472372D01*
X0149300Y0472543D01*
D02*
G37*
G36*
X0131700Y0548939D02*
X0130920Y0548784D01*
X0130258Y0548342D01*
X0129816Y0547680D01*
X0129661Y0546900D01*
X0129816Y0546120D01*
X0130258Y0545458D01*
X0130920Y0545016D01*
X0131700Y0544861D01*
X0132480Y0545016D01*
X0133142Y0545458D01*
X0133584Y0546120D01*
X0133739Y0546900D01*
X0133584Y0547680D01*
X0133142Y0548342D01*
X0132480Y0548784D01*
X0131700Y0548939D01*
D02*
G37*
G36*
X0142350Y0538293D02*
X0141491Y0538122D01*
X0140763Y0537636D01*
X0140277Y0536908D01*
X0140106Y0536050D01*
X0140277Y0535191D01*
X0140763Y0534464D01*
X0141491Y0533977D01*
X0142350Y0533807D01*
X0143208Y0533977D01*
X0143936Y0534464D01*
X0144422Y0535191D01*
X0144593Y0536050D01*
X0144422Y0536908D01*
X0143936Y0537636D01*
X0143208Y0538122D01*
X0142350Y0538293D01*
D02*
G37*
G36*
X0131800Y0514839D02*
X0131020Y0514684D01*
X0130358Y0514242D01*
X0129916Y0513580D01*
X0129761Y0512800D01*
X0129916Y0512020D01*
X0130358Y0511358D01*
X0131020Y0510916D01*
X0131800Y0510761D01*
X0132580Y0510916D01*
X0133242Y0511358D01*
X0133684Y0512020D01*
X0133839Y0512800D01*
X0133684Y0513580D01*
X0133242Y0514242D01*
X0132580Y0514684D01*
X0131800Y0514839D01*
D02*
G37*
G36*
Y0508639D02*
X0131020Y0508484D01*
X0130358Y0508042D01*
X0129916Y0507380D01*
X0129761Y0506600D01*
X0129916Y0505820D01*
X0130358Y0505158D01*
X0131020Y0504716D01*
X0131800Y0504561D01*
X0132580Y0504716D01*
X0133242Y0505158D01*
X0133684Y0505820D01*
X0133839Y0506600D01*
X0133684Y0507380D01*
X0133242Y0508042D01*
X0132580Y0508484D01*
X0131800Y0508639D01*
D02*
G37*
G36*
X0139200Y0470185D02*
X0138091Y0470039D01*
X0137058Y0469611D01*
X0136170Y0468930D01*
X0135489Y0468042D01*
X0135061Y0467009D01*
X0134915Y0465900D01*
X0135061Y0464791D01*
X0135489Y0463758D01*
X0136170Y0462870D01*
X0137058Y0462189D01*
X0138091Y0461761D01*
X0139200Y0461615D01*
X0140309Y0461761D01*
X0141342Y0462189D01*
X0142230Y0462870D01*
X0142911Y0463758D01*
X0143339Y0464791D01*
X0143485Y0465900D01*
X0143339Y0467009D01*
X0142911Y0468042D01*
X0142230Y0468930D01*
X0141342Y0469611D01*
X0140309Y0470039D01*
X0139200Y0470185D01*
D02*
G37*
G36*
X0129200Y0430185D02*
X0128091Y0430039D01*
X0127058Y0429611D01*
X0126170Y0428930D01*
X0125489Y0428042D01*
X0125061Y0427009D01*
X0124915Y0425900D01*
X0125061Y0424791D01*
X0125489Y0423758D01*
X0126170Y0422870D01*
X0127058Y0422189D01*
X0128091Y0421761D01*
X0129200Y0421615D01*
X0130309Y0421761D01*
X0131342Y0422189D01*
X0132230Y0422870D01*
X0132911Y0423758D01*
X0133339Y0424791D01*
X0133485Y0425900D01*
X0133339Y0427009D01*
X0132911Y0428042D01*
X0132230Y0428930D01*
X0131342Y0429611D01*
X0130309Y0430039D01*
X0129200Y0430185D01*
D02*
G37*
G36*
X0139200Y0420185D02*
X0138091Y0420039D01*
X0137058Y0419611D01*
X0136170Y0418930D01*
X0135489Y0418042D01*
X0135061Y0417009D01*
X0134915Y0415900D01*
X0135061Y0414791D01*
X0135489Y0413758D01*
X0136170Y0412870D01*
X0137058Y0412189D01*
X0138091Y0411761D01*
X0139200Y0411615D01*
X0140309Y0411761D01*
X0141342Y0412189D01*
X0142230Y0412870D01*
X0142911Y0413758D01*
X0143339Y0414791D01*
X0143485Y0415900D01*
X0143339Y0417009D01*
X0142911Y0418042D01*
X0142230Y0418930D01*
X0141342Y0419611D01*
X0140309Y0420039D01*
X0139200Y0420185D01*
D02*
G37*
G36*
X0129200Y0440185D02*
X0128091Y0440039D01*
X0127058Y0439611D01*
X0126170Y0438930D01*
X0125489Y0438042D01*
X0125061Y0437009D01*
X0124915Y0435900D01*
X0125061Y0434791D01*
X0125489Y0433758D01*
X0126170Y0432870D01*
X0127058Y0432189D01*
X0128091Y0431761D01*
X0129200Y0431615D01*
X0130309Y0431761D01*
X0131342Y0432189D01*
X0132230Y0432870D01*
X0132911Y0433758D01*
X0133339Y0434791D01*
X0133485Y0435900D01*
X0133339Y0437009D01*
X0132911Y0438042D01*
X0132230Y0438930D01*
X0131342Y0439611D01*
X0130309Y0440039D01*
X0129200Y0440185D01*
D02*
G37*
G36*
X0139200Y0430185D02*
X0138091Y0430039D01*
X0137058Y0429611D01*
X0136170Y0428930D01*
X0135489Y0428042D01*
X0135061Y0427009D01*
X0134915Y0425900D01*
X0135061Y0424791D01*
X0135489Y0423758D01*
X0136170Y0422870D01*
X0137058Y0422189D01*
X0138091Y0421761D01*
X0139200Y0421615D01*
X0140309Y0421761D01*
X0141342Y0422189D01*
X0142230Y0422870D01*
X0142911Y0423758D01*
X0143339Y0424791D01*
X0143485Y0425900D01*
X0143339Y0427009D01*
X0142911Y0428042D01*
X0142230Y0428930D01*
X0141342Y0429611D01*
X0140309Y0430039D01*
X0139200Y0430185D01*
D02*
G37*
G36*
X0093969Y0552531D02*
X0093055Y0552411D01*
X0092204Y0552059D01*
X0091473Y0551498D01*
X0090912Y0550766D01*
X0090559Y0549915D01*
X0090439Y0549001D01*
X0090559Y0548088D01*
X0090912Y0547236D01*
X0091473Y0546505D01*
X0092204Y0545944D01*
X0093055Y0545591D01*
X0093969Y0545471D01*
X0094883Y0545591D01*
X0095734Y0545944D01*
X0096465Y0546505D01*
X0097026Y0547236D01*
X0097379Y0548088D01*
X0097499Y0549001D01*
X0097379Y0549915D01*
X0097026Y0550766D01*
X0096465Y0551498D01*
X0095734Y0552059D01*
X0094883Y0552411D01*
X0093969Y0552531D01*
D02*
G37*
G36*
X0129200Y0410185D02*
X0128091Y0410039D01*
X0127058Y0409611D01*
X0126170Y0408930D01*
X0125489Y0408042D01*
X0125061Y0407009D01*
X0124915Y0405900D01*
X0125061Y0404791D01*
X0125489Y0403758D01*
X0126170Y0402870D01*
X0127058Y0402189D01*
X0128091Y0401761D01*
X0129200Y0401615D01*
X0130309Y0401761D01*
X0131342Y0402189D01*
X0132230Y0402870D01*
X0132911Y0403758D01*
X0133339Y0404791D01*
X0133485Y0405900D01*
X0133339Y0407009D01*
X0132911Y0408042D01*
X0132230Y0408930D01*
X0131342Y0409611D01*
X0130309Y0410039D01*
X0129200Y0410185D01*
D02*
G37*
G36*
Y0420185D02*
X0128091Y0420039D01*
X0127058Y0419611D01*
X0126170Y0418930D01*
X0125489Y0418042D01*
X0125061Y0417009D01*
X0124915Y0415900D01*
X0125061Y0414791D01*
X0125489Y0413758D01*
X0126170Y0412870D01*
X0127058Y0412189D01*
X0128091Y0411761D01*
X0129200Y0411615D01*
X0130309Y0411761D01*
X0131342Y0412189D01*
X0132230Y0412870D01*
X0132911Y0413758D01*
X0133339Y0414791D01*
X0133485Y0415900D01*
X0133339Y0417009D01*
X0132911Y0418042D01*
X0132230Y0418930D01*
X0131342Y0419611D01*
X0130309Y0420039D01*
X0129200Y0420185D01*
D02*
G37*
G36*
X0091198Y0415939D02*
X0090418Y0415784D01*
X0089757Y0415342D01*
X0089315Y0414680D01*
X0089159Y0413900D01*
X0089315Y0413120D01*
X0089757Y0412458D01*
X0089316Y0411680D01*
X0089161Y0410900D01*
X0089316Y0410120D01*
X0089758Y0409458D01*
X0090420Y0409016D01*
X0091200Y0408861D01*
X0091980Y0409016D01*
X0092642Y0409458D01*
X0093084Y0410120D01*
X0093239Y0410900D01*
X0093084Y0411680D01*
X0092642Y0412342D01*
X0093082Y0413120D01*
X0093238Y0413900D01*
X0093082Y0414680D01*
X0092640Y0415342D01*
X0091979Y0415784D01*
X0091198Y0415939D01*
D02*
G37*
G36*
X0115330Y0456109D02*
X0114549Y0455953D01*
X0113888Y0455511D01*
X0113446Y0454850D01*
X0113291Y0454069D01*
X0113446Y0453289D01*
X0113888Y0452627D01*
X0114549Y0452185D01*
X0115330Y0452030D01*
X0116110Y0452185D01*
X0116772Y0452627D01*
X0117214Y0453289D01*
X0117369Y0454069D01*
X0117214Y0454850D01*
X0116772Y0455511D01*
X0116110Y0455953D01*
X0115330Y0456109D01*
D02*
G37*
G36*
X0139200Y0460185D02*
X0138091Y0460039D01*
X0137058Y0459611D01*
X0136170Y0458930D01*
X0135489Y0458042D01*
X0135061Y0457009D01*
X0134915Y0455900D01*
X0135061Y0454791D01*
X0135489Y0453758D01*
X0136170Y0452870D01*
X0137058Y0452189D01*
X0138091Y0451761D01*
X0139200Y0451615D01*
X0140309Y0451761D01*
X0141342Y0452189D01*
X0142230Y0452870D01*
X0142911Y0453758D01*
X0143339Y0454791D01*
X0143485Y0455900D01*
X0143339Y0457009D01*
X0142911Y0458042D01*
X0142230Y0458930D01*
X0141342Y0459611D01*
X0140309Y0460039D01*
X0139200Y0460185D01*
D02*
G37*
G36*
X0077356Y0460096D02*
X0076576Y0459940D01*
X0075915Y0459498D01*
X0075472Y0458837D01*
X0075317Y0458056D01*
X0075472Y0457276D01*
X0075915Y0456614D01*
X0076576Y0456173D01*
X0077356Y0456017D01*
X0078137Y0456173D01*
X0078798Y0456614D01*
X0079240Y0457276D01*
X0079396Y0458056D01*
X0079240Y0458837D01*
X0078798Y0459498D01*
X0078137Y0459940D01*
X0077356Y0460096D01*
D02*
G37*
G36*
X0129200Y0450185D02*
X0128091Y0450039D01*
X0127058Y0449611D01*
X0126170Y0448930D01*
X0125489Y0448042D01*
X0125061Y0447009D01*
X0124915Y0445900D01*
X0125061Y0444791D01*
X0125489Y0443758D01*
X0126170Y0442870D01*
X0127058Y0442189D01*
X0128091Y0441761D01*
X0129200Y0441615D01*
X0130309Y0441761D01*
X0131342Y0442189D01*
X0132230Y0442870D01*
X0132911Y0443758D01*
X0133339Y0444791D01*
X0133485Y0445900D01*
X0133339Y0447009D01*
X0132911Y0448042D01*
X0132230Y0448930D01*
X0131342Y0449611D01*
X0130309Y0450039D01*
X0129200Y0450185D01*
D02*
G37*
G36*
X0139200Y0440185D02*
X0138091Y0440039D01*
X0137058Y0439611D01*
X0136170Y0438930D01*
X0135489Y0438042D01*
X0135061Y0437009D01*
X0134915Y0435900D01*
X0135061Y0434791D01*
X0135489Y0433758D01*
X0136170Y0432870D01*
X0137058Y0432189D01*
X0138091Y0431761D01*
X0139200Y0431615D01*
X0140309Y0431761D01*
X0141342Y0432189D01*
X0142230Y0432870D01*
X0142911Y0433758D01*
X0143339Y0434791D01*
X0143485Y0435900D01*
X0143339Y0437009D01*
X0142911Y0438042D01*
X0142230Y0438930D01*
X0141342Y0439611D01*
X0140309Y0440039D01*
X0139200Y0440185D01*
D02*
G37*
G36*
X0129200Y0460185D02*
X0128091Y0460039D01*
X0127058Y0459611D01*
X0126170Y0458930D01*
X0125489Y0458042D01*
X0125061Y0457009D01*
X0124915Y0455900D01*
X0125061Y0454791D01*
X0125489Y0453758D01*
X0126170Y0452870D01*
X0127058Y0452189D01*
X0128091Y0451761D01*
X0129200Y0451615D01*
X0130309Y0451761D01*
X0131342Y0452189D01*
X0132230Y0452870D01*
X0132911Y0453758D01*
X0133339Y0454791D01*
X0133485Y0455900D01*
X0133339Y0457009D01*
X0132911Y0458042D01*
X0132230Y0458930D01*
X0131342Y0459611D01*
X0130309Y0460039D01*
X0129200Y0460185D01*
D02*
G37*
G36*
X0139200Y0450185D02*
X0138091Y0450039D01*
X0137058Y0449611D01*
X0136170Y0448930D01*
X0135489Y0448042D01*
X0135061Y0447009D01*
X0134915Y0445900D01*
X0135061Y0444791D01*
X0135489Y0443758D01*
X0136170Y0442870D01*
X0137058Y0442189D01*
X0138091Y0441761D01*
X0139200Y0441615D01*
X0140309Y0441761D01*
X0141342Y0442189D01*
X0142230Y0442870D01*
X0142911Y0443758D01*
X0143339Y0444791D01*
X0143485Y0445900D01*
X0143339Y0447009D01*
X0142911Y0448042D01*
X0142230Y0448930D01*
X0141342Y0449611D01*
X0140309Y0450039D01*
X0139200Y0450185D01*
D02*
G37*
%LPD*%
G54D24*
X0559400Y0039400D02*
Y0059683D01*
X0440500Y0040050D02*
X0700200D01*
Y0101050D01*
X0286500Y0040050D02*
Y0101050D01*
X0040000Y0040050D02*
Y0101050D01*
X0040050Y0040050D02*
X0197600D01*
X0040050D02*
Y0101050D01*
Y0101050D02*
X0700200D01*
X0040000Y0040050D02*
X0440500D01*
X0040000Y0060383D02*
X0700000D01*
X0040000Y0080717D02*
X0700200D01*
X0413200D02*
Y0101050D01*
X0497200Y0080717D02*
Y0101050D01*
G54D31*
X0348550Y0072498D02*
X0349550Y0073498D01*
X0351549D01*
X0352549Y0072498D01*
Y0068500D01*
X0351549Y0067500D01*
X0349550D01*
X0348550Y0068500D01*
Y0072498D01*
X0354548Y0067500D02*
X0356547D01*
X0355548D01*
Y0073498D01*
X0354548Y0072498D01*
X0359546D02*
X0360546Y0073498D01*
X0362545D01*
X0363545Y0072498D01*
Y0071499D01*
X0362545Y0070499D01*
X0361546D01*
X0362545D01*
X0363545Y0069499D01*
Y0068500D01*
X0362545Y0067500D01*
X0360546D01*
X0359546Y0068500D01*
X0368544Y0067500D02*
Y0073498D01*
X0365545Y0070499D01*
X0369543D01*
X0371543Y0068500D02*
X0372542Y0067500D01*
X0374542D01*
X0375541Y0068500D01*
Y0072498D01*
X0374542Y0073498D01*
X0372542D01*
X0371543Y0072498D01*
Y0071499D01*
X0372542Y0070499D01*
X0375541D01*
X0294000Y0073498D02*
X0297999D01*
X0295999D01*
Y0067500D01*
X0299998Y0073498D02*
X0301997D01*
X0300998D01*
Y0067500D01*
X0299998D01*
X0301997D01*
X0304996Y0073498D02*
Y0067500D01*
X0307996D01*
X0308995Y0068500D01*
Y0072498D01*
X0307996Y0073498D01*
X0304996D01*
X0317992Y0067500D02*
Y0073498D01*
X0319992D02*
Y0067500D01*
X0316993Y0071499D02*
X0319992D01*
X0320991D01*
X0316993Y0069499D02*
X0320991D01*
X0322991Y0071499D02*
X0323990D01*
Y0070499D01*
X0322991D01*
Y0071499D01*
Y0068500D02*
X0323990D01*
Y0067500D01*
X0322991D01*
Y0068500D01*
X0580500Y0052965D02*
X0584499D01*
X0582499D01*
Y0046966D01*
X0590497Y0052965D02*
X0586498D01*
Y0046966D01*
X0590497D01*
X0586498Y0049966D02*
X0588497D01*
X0592496Y0052965D02*
X0596495Y0046966D01*
Y0052965D02*
X0592496Y0046966D01*
X0598494D02*
Y0050965D01*
X0600493Y0052965D01*
X0602493Y0050965D01*
Y0046966D01*
Y0049966D01*
X0598494D01*
X0608491Y0051965D02*
X0607491Y0052965D01*
X0605492D01*
X0604492Y0051965D01*
Y0050965D01*
X0605492Y0049966D01*
X0607491D01*
X0608491Y0048966D01*
Y0047966D01*
X0607491Y0046966D01*
X0605492D01*
X0604492Y0047966D01*
X0616488Y0052965D02*
X0618488D01*
X0617488D01*
Y0046966D01*
X0616488D01*
X0618488D01*
X0621487D02*
Y0052965D01*
X0625486Y0046966D01*
Y0052965D01*
X0631484Y0051965D02*
X0630484Y0052965D01*
X0628484D01*
X0627485Y0051965D01*
Y0050965D01*
X0628484Y0049966D01*
X0630484D01*
X0631484Y0048966D01*
Y0047966D01*
X0630484Y0046966D01*
X0628484D01*
X0627485Y0047966D01*
X0633483Y0052965D02*
X0637482D01*
X0635482D01*
Y0046966D01*
X0639481D02*
Y0052965D01*
X0642480D01*
X0643480Y0051965D01*
Y0049966D01*
X0642480Y0048966D01*
X0639481D01*
X0641480D02*
X0643480Y0046966D01*
X0645479Y0052965D02*
Y0047966D01*
X0646479Y0046966D01*
X0648478D01*
X0649478Y0047966D01*
Y0052965D01*
X0651477Y0046966D02*
Y0052965D01*
X0653476Y0050965D01*
X0655476Y0052965D01*
Y0046966D01*
X0661474Y0052965D02*
X0657475D01*
Y0046966D01*
X0661474D01*
X0657475Y0049966D02*
X0659474D01*
X0663473Y0046966D02*
Y0052965D01*
X0667472Y0046966D01*
Y0052965D01*
X0669471D02*
X0673470D01*
X0671471D01*
Y0046966D01*
X0679468Y0051965D02*
X0678468Y0052965D01*
X0676469D01*
X0675469Y0051965D01*
Y0050965D01*
X0676469Y0049966D01*
X0678468D01*
X0679468Y0048966D01*
Y0047966D01*
X0678468Y0046966D01*
X0676469D01*
X0675469Y0047966D01*
X0454050Y0046966D02*
X0456049D01*
X0455050D01*
Y0052965D01*
X0454050Y0051965D01*
X0463047Y0046966D02*
X0459048D01*
X0463047Y0050965D01*
Y0051965D01*
X0462047Y0052965D01*
X0460048D01*
X0459048Y0051965D01*
X0465046Y0050965D02*
X0466046D01*
Y0049966D01*
X0465046D01*
Y0050965D01*
Y0047966D02*
X0466046D01*
Y0046966D01*
X0465046D01*
Y0047966D01*
X0470045Y0046966D02*
X0472044D01*
X0471044D01*
Y0052965D01*
X0470045Y0051965D01*
X0478042Y0046966D02*
Y0052965D01*
X0475043Y0049966D01*
X0479042D01*
X0481041Y0050965D02*
X0482041D01*
Y0049966D01*
X0481041D01*
Y0050965D01*
Y0047966D02*
X0482041D01*
Y0046966D01*
X0481041D01*
Y0047966D01*
X0490038Y0052965D02*
X0486040D01*
Y0049966D01*
X0488039Y0050965D01*
X0489039D01*
X0490038Y0049966D01*
Y0047966D01*
X0489039Y0046966D01*
X0487039D01*
X0486040Y0047966D01*
X0492038Y0051965D02*
X0493037Y0052965D01*
X0495037D01*
X0496036Y0051965D01*
Y0050965D01*
X0495037Y0049966D01*
X0494037D01*
X0495037D01*
X0496036Y0048966D01*
Y0047966D01*
X0495037Y0046966D01*
X0493037D01*
X0492038Y0047966D01*
X0504034Y0046966D02*
Y0052965D01*
X0507033D01*
X0508033Y0051965D01*
Y0049966D01*
X0507033Y0048966D01*
X0504034D01*
X0510032Y0046966D02*
Y0052965D01*
X0512031Y0050965D01*
X0514031Y0052965D01*
Y0046966D01*
X0046350D02*
Y0052965D01*
X0049349D01*
X0050349Y0051965D01*
Y0049966D01*
X0049349Y0048966D01*
X0046350D01*
X0052348Y0052965D02*
Y0046966D01*
X0056347D01*
X0061345Y0052965D02*
X0059346D01*
X0058346Y0051965D01*
Y0047966D01*
X0059346Y0046966D01*
X0061345D01*
X0062345Y0047966D01*
Y0051965D01*
X0061345Y0052965D01*
X0064344D02*
X0068343D01*
X0066343D01*
Y0046966D01*
X0076340D02*
Y0052965D01*
X0080339Y0046966D01*
Y0052965D01*
X0082338Y0046966D02*
Y0050965D01*
X0084338Y0052965D01*
X0086337Y0050965D01*
Y0046966D01*
Y0049966D01*
X0082338D01*
X0088336Y0046966D02*
Y0052965D01*
X0090336Y0050965D01*
X0092335Y0052965D01*
Y0046966D01*
X0098333Y0052965D02*
X0094335D01*
Y0046966D01*
X0098333D01*
X0094335Y0049966D02*
X0096334D01*
X0106331Y0048966D02*
X0110329D01*
X0106331Y0050965D02*
X0110329D01*
X0046350Y0073549D02*
Y0067551D01*
X0050349D01*
X0052348D02*
Y0071549D01*
X0054347Y0073549D01*
X0056347Y0071549D01*
Y0067551D01*
Y0070550D01*
X0052348D01*
X0058346Y0073549D02*
Y0072549D01*
X0060346Y0070550D01*
X0062345Y0072549D01*
Y0073549D01*
X0060346Y0070550D02*
Y0067551D01*
X0068343Y0073549D02*
X0064344D01*
Y0067551D01*
X0068343D01*
X0064344Y0070550D02*
X0066343D01*
X0070342Y0067551D02*
Y0073549D01*
X0073341D01*
X0074341Y0072549D01*
Y0070550D01*
X0073341Y0069550D01*
X0070342D01*
X0072342D02*
X0074341Y0067551D01*
X0082338D02*
Y0073549D01*
X0086337Y0067551D01*
Y0073549D01*
X0088336Y0067551D02*
Y0071549D01*
X0090336Y0073549D01*
X0092335Y0071549D01*
Y0067551D01*
Y0070550D01*
X0088336D01*
X0094335Y0067551D02*
Y0073549D01*
X0096334Y0071549D01*
X0098333Y0073549D01*
Y0067551D01*
X0104331Y0073549D02*
X0100332D01*
Y0067551D01*
X0104331D01*
X0100332Y0070550D02*
X0102332D01*
X0112329Y0069550D02*
X0116327D01*
X0112329Y0071549D02*
X0116327D01*
X0294000Y0093831D02*
Y0087833D01*
X0296999D01*
X0297999Y0088833D01*
Y0089833D01*
X0296999Y0090832D01*
X0294000D01*
X0296999D01*
X0297999Y0091832D01*
Y0092832D01*
X0296999Y0093831D01*
X0294000D01*
X0302997D02*
X0300998D01*
X0299998Y0092832D01*
Y0088833D01*
X0300998Y0087833D01*
X0302997D01*
X0303997Y0088833D01*
Y0092832D01*
X0302997Y0093831D01*
X0305996Y0087833D02*
Y0091832D01*
X0307996Y0093831D01*
X0309995Y0091832D01*
Y0087833D01*
Y0090832D01*
X0305996D01*
X0311994Y0087833D02*
Y0093831D01*
X0314993D01*
X0315993Y0092832D01*
Y0090832D01*
X0314993Y0089833D01*
X0311994D01*
X0313994D02*
X0315993Y0087833D01*
X0317992Y0093831D02*
Y0087833D01*
X0320991D01*
X0321991Y0088833D01*
Y0092832D01*
X0320991Y0093831D01*
X0317992D01*
X0330988Y0087833D02*
Y0093831D01*
X0332987D02*
Y0087833D01*
X0329988Y0091832D02*
X0332987D01*
X0333987D01*
X0329988Y0089833D02*
X0333987D01*
X0335986Y0091832D02*
X0336986D01*
Y0090832D01*
X0335986D01*
Y0091832D01*
Y0088833D02*
X0336986D01*
Y0087833D01*
X0335986D01*
Y0088833D01*
X0348550Y0093831D02*
X0352549D01*
X0350549D01*
Y0087833D01*
X0354548Y0093831D02*
X0356547D01*
X0355548D01*
Y0087833D01*
X0354548D01*
X0356547D01*
X0359546Y0093831D02*
Y0087833D01*
X0362545D01*
X0363545Y0088833D01*
Y0092832D01*
X0362545Y0093831D01*
X0359546D01*
X0365545Y0087833D02*
Y0091832D01*
X0367544Y0093831D01*
X0369543Y0091832D01*
Y0087833D01*
Y0090832D01*
X0365545D01*
X0371543D02*
X0375541D01*
X0377541Y0092832D02*
X0378540Y0093831D01*
X0380540D01*
X0381539Y0092832D01*
Y0088833D01*
X0380540Y0087833D01*
X0378540D01*
X0377541Y0088833D01*
Y0092832D01*
X0383539Y0087833D02*
X0385538D01*
X0384538D01*
Y0093831D01*
X0383539Y0092832D01*
X0388537D02*
X0389537Y0093831D01*
X0391536D01*
X0392536Y0092832D01*
Y0091832D01*
X0391536Y0090832D01*
X0390536D01*
X0391536D01*
X0392536Y0089833D01*
Y0088833D01*
X0391536Y0087833D01*
X0389537D01*
X0388537Y0088833D01*
X0397534Y0087833D02*
Y0093831D01*
X0394535Y0090832D01*
X0398534D01*
X0400533Y0088833D02*
X0401533Y0087833D01*
X0403532D01*
X0404532Y0088833D01*
Y0092832D01*
X0403532Y0093831D01*
X0401533D01*
X0400533Y0092832D01*
Y0091832D01*
X0401533Y0090832D01*
X0404532D01*
X0466149Y0093831D02*
X0462150D01*
Y0087833D01*
X0466149D01*
X0462150Y0090832D02*
X0464149D01*
X0468148Y0087833D02*
X0470147D01*
X0469148D01*
Y0093831D01*
X0468148Y0092832D01*
X0046350Y0087833D02*
Y0091832D01*
X0048349Y0093831D01*
X0050349Y0091832D01*
Y0087833D01*
Y0090832D01*
X0046350D01*
X0052348Y0093831D02*
Y0087833D01*
X0056347D01*
X0058346Y0093831D02*
Y0087833D01*
X0062345D01*
X0070342D02*
Y0091832D01*
X0072342Y0093831D01*
X0074341Y0091832D01*
Y0087833D01*
Y0090832D01*
X0070342D01*
X0076340Y0087833D02*
Y0093831D01*
X0079339D01*
X0080339Y0092832D01*
Y0090832D01*
X0079339Y0089833D01*
X0076340D01*
X0078340D02*
X0080339Y0087833D01*
X0082338Y0093831D02*
X0086337D01*
X0084338D01*
Y0087833D01*
X0088336Y0093831D02*
Y0087833D01*
X0090336Y0089833D01*
X0092335Y0087833D01*
Y0093831D01*
X0097334D02*
X0095334D01*
X0094335Y0092832D01*
Y0088833D01*
X0095334Y0087833D01*
X0097334D01*
X0098333Y0088833D01*
Y0092832D01*
X0097334Y0093831D01*
X0100332Y0087833D02*
Y0093831D01*
X0103332D01*
X0104331Y0092832D01*
Y0090832D01*
X0103332Y0089833D01*
X0100332D01*
X0102332D02*
X0104331Y0087833D01*
X0106331Y0093831D02*
Y0087833D01*
Y0089833D01*
X0110329Y0093831D01*
X0107330Y0090832D01*
X0110329Y0087833D01*
X0118327Y0093831D02*
Y0089833D01*
X0120326Y0087833D01*
X0122325Y0089833D01*
Y0093831D01*
X0124325D02*
X0126324D01*
X0125324D01*
Y0087833D01*
X0124325D01*
X0126324D01*
X0133322Y0093831D02*
X0129323D01*
Y0087833D01*
X0133322D01*
X0129323Y0090832D02*
X0131323D01*
X0135321Y0093831D02*
Y0087833D01*
X0137321Y0089833D01*
X0139320Y0087833D01*
Y0093831D01*
X0145318D02*
X0141319D01*
Y0087833D01*
X0145318D01*
X0141319Y0090832D02*
X0143319D01*
X0147317Y0093831D02*
Y0087833D01*
X0150316D01*
X0151316Y0088833D01*
Y0092832D01*
X0150316Y0093831D01*
X0147317D01*
X0163312D02*
X0159313D01*
Y0090832D01*
X0161313D01*
X0159313D01*
Y0087833D01*
X0165312D02*
Y0093831D01*
X0168310D01*
X0169310Y0092832D01*
Y0090832D01*
X0168310Y0089833D01*
X0165312D01*
X0167311D02*
X0169310Y0087833D01*
X0174309Y0093831D02*
X0172309D01*
X0171310Y0092832D01*
Y0088833D01*
X0172309Y0087833D01*
X0174309D01*
X0175308Y0088833D01*
Y0092832D01*
X0174309Y0093831D01*
X0177308Y0087833D02*
Y0093831D01*
X0179307Y0091832D01*
X0181306Y0093831D01*
Y0087833D01*
X0189304Y0093831D02*
X0193303D01*
X0191303D01*
Y0087833D01*
X0198301Y0093831D02*
X0196301D01*
X0195302Y0092832D01*
Y0088833D01*
X0196301Y0087833D01*
X0198301D01*
X0199301Y0088833D01*
Y0092832D01*
X0198301Y0093831D01*
X0201300Y0087833D02*
Y0093831D01*
X0204299D01*
X0205299Y0092832D01*
Y0090832D01*
X0204299Y0089833D01*
X0201300D01*
X0217295Y0092832D02*
X0216295Y0093831D01*
X0214296D01*
X0213296Y0092832D01*
Y0091832D01*
X0214296Y0090832D01*
X0216295D01*
X0217295Y0089833D01*
Y0088833D01*
X0216295Y0087833D01*
X0214296D01*
X0213296Y0088833D01*
X0219294Y0093831D02*
X0221293D01*
X0220294D01*
Y0087833D01*
X0219294D01*
X0221293D01*
X0224292Y0093831D02*
Y0087833D01*
X0227291D01*
X0228291Y0088833D01*
Y0092832D01*
X0227291Y0093831D01*
X0224292D01*
X0234289D02*
X0230291D01*
Y0087833D01*
X0234289D01*
X0230291Y0090832D02*
X0232290D01*
X0298199Y0051965D02*
X0297199Y0052965D01*
X0295200D01*
X0294200Y0051965D01*
Y0047966D01*
X0295200Y0046966D01*
X0297199D01*
X0298199Y0047966D01*
Y0049966D01*
X0296199D01*
X0304197Y0052965D02*
X0300198D01*
Y0046966D01*
X0304197D01*
X0300198Y0049966D02*
X0302197D01*
X0306196Y0046966D02*
Y0052965D01*
X0310195Y0046966D01*
Y0052965D01*
X0316193D02*
X0312194D01*
Y0046966D01*
X0316193D01*
X0312194Y0049966D02*
X0314194D01*
X0318192Y0046966D02*
Y0052965D01*
X0321191D01*
X0322191Y0051965D01*
Y0049966D01*
X0321191Y0048966D01*
X0318192D01*
X0320192D02*
X0322191Y0046966D01*
X0324190D02*
Y0050965D01*
X0326190Y0052965D01*
X0328189Y0050965D01*
Y0046966D01*
Y0049966D01*
X0324190D01*
X0330188Y0052965D02*
X0334187D01*
X0332188D01*
Y0046966D01*
X0340185Y0052965D02*
X0336186D01*
Y0046966D01*
X0340185D01*
X0336186Y0049966D02*
X0338186D01*
X0342184Y0052965D02*
Y0046966D01*
X0345183D01*
X0346183Y0047966D01*
Y0051965D01*
X0345183Y0052965D01*
X0342184D01*
X0372175Y0050965D02*
X0373175D01*
Y0049966D01*
X0372175D01*
Y0050965D01*
Y0047966D02*
X0373175D01*
Y0046966D01*
X0372175D01*
Y0047966D01*
X0381150Y0046966D02*
X0383149D01*
X0382150D01*
Y0052965D01*
X0381150Y0051965D01*
X0390147Y0046966D02*
X0386148D01*
X0390147Y0050965D01*
Y0051965D01*
X0389147Y0052965D01*
X0387148D01*
X0386148Y0051965D01*
X0392146Y0046966D02*
X0396145Y0050965D01*
X0398145Y0046966D02*
X0400144D01*
X0399144D01*
Y0052965D01*
X0398145Y0051965D01*
X0403143Y0047966D02*
X0404143Y0046966D01*
X0406142D01*
X0407142Y0047966D01*
Y0051965D01*
X0406142Y0052965D01*
X0404143D01*
X0403143Y0051965D01*
Y0050965D01*
X0404143Y0049966D01*
X0407142D01*
X0409141Y0046966D02*
X0413140Y0050965D01*
X0419138Y0046966D02*
X0415139D01*
X0419138Y0050965D01*
Y0051965D01*
X0418138Y0052965D01*
X0416139D01*
X0415139Y0051965D01*
X0421137D02*
X0422137Y0052965D01*
X0424136D01*
X0425136Y0051965D01*
Y0047966D01*
X0424136Y0046966D01*
X0422137D01*
X0421137Y0047966D01*
Y0051965D01*
X0427135Y0046966D02*
X0429135D01*
X0428135D01*
Y0052965D01*
X0427135Y0051965D01*
X0432133Y0052965D02*
X0436132D01*
Y0051965D01*
X0432133Y0047966D01*
Y0046966D01*
X0126900Y0052965D02*
X0130899D01*
X0128899D01*
Y0046966D01*
X0132898Y0052965D02*
X0134897D01*
X0133898D01*
Y0046966D01*
X0132898D01*
X0134897D01*
X0137896Y0052965D02*
Y0046966D01*
X0140895D01*
X0141895Y0047966D01*
Y0051965D01*
X0140895Y0052965D01*
X0137896D01*
X0143895Y0046966D02*
Y0050965D01*
X0145894Y0052965D01*
X0147893Y0050965D01*
Y0046966D01*
Y0049966D01*
X0143895D01*
X0149893D02*
X0153891D01*
X0155891Y0051965D02*
X0156890Y0052965D01*
X0158890D01*
X0159889Y0051965D01*
Y0047966D01*
X0158890Y0046966D01*
X0156890D01*
X0155891Y0047966D01*
Y0051965D01*
X0161889Y0046966D02*
X0163888D01*
X0162888D01*
Y0052965D01*
X0161889Y0051965D01*
X0166887D02*
X0167887Y0052965D01*
X0169886D01*
X0170886Y0051965D01*
Y0050965D01*
X0169886Y0049966D01*
X0168886D01*
X0169886D01*
X0170886Y0048966D01*
Y0047966D01*
X0169886Y0046966D01*
X0167887D01*
X0166887Y0047966D01*
X0175884Y0046966D02*
Y0052965D01*
X0172885Y0049966D01*
X0176884D01*
X0178883Y0047966D02*
X0179883Y0046966D01*
X0181882D01*
X0182882Y0047966D01*
Y0051965D01*
X0181882Y0052965D01*
X0179883D01*
X0178883Y0051965D01*
Y0050965D01*
X0179883Y0049966D01*
X0182882D01*
X0188880Y0052965D02*
X0184881D01*
Y0046966D01*
X0188880D01*
X0184881Y0049966D02*
X0186881D01*
X0190879Y0046966D02*
X0192879D01*
X0191879D01*
Y0052965D01*
X0190879Y0051965D01*
X0195878Y0046966D02*
Y0047966D01*
X0196877D01*
Y0046966D01*
X0195878D01*
X0204875Y0051965D02*
X0203875Y0052965D01*
X0201876D01*
X0200876Y0051965D01*
Y0047966D01*
X0201876Y0046966D01*
X0203875D01*
X0204875Y0047966D01*
Y0049966D01*
X0202875D01*
X0206874Y0046966D02*
X0208874D01*
X0207874D01*
Y0052965D01*
X0206874Y0051965D01*
X0433000Y0087833D02*
Y0093831D01*
X0435999D01*
X0436999Y0092832D01*
Y0090832D01*
X0435999Y0089833D01*
X0433000D01*
X0434999D02*
X0436999Y0087833D01*
X0442997Y0093831D02*
X0438998D01*
Y0087833D01*
X0442997D01*
X0438998Y0090832D02*
X0440997D01*
X0444996Y0093831D02*
Y0089833D01*
X0446995Y0087833D01*
X0448995Y0089833D01*
Y0093831D01*
X0450994Y0091832D02*
X0451994D01*
Y0090832D01*
X0450994D01*
Y0091832D01*
Y0088833D02*
X0451994D01*
Y0087833D01*
X0450994D01*
Y0088833D01*
X0520799Y0092832D02*
X0519799Y0093831D01*
X0517800D01*
X0516800Y0092832D01*
Y0091832D01*
X0517800Y0090832D01*
X0519799D01*
X0520799Y0089833D01*
Y0088833D01*
X0519799Y0087833D01*
X0517800D01*
X0516800Y0088833D01*
X0522798Y0093831D02*
Y0089833D01*
X0524797Y0087833D01*
X0526797Y0089833D01*
Y0093831D01*
X0528796Y0087833D02*
Y0093831D01*
X0532795Y0087833D01*
Y0093831D01*
X0540792Y0087833D02*
Y0093831D01*
X0543791D01*
X0544791Y0092832D01*
Y0090832D01*
X0543791Y0089833D01*
X0540792D01*
X0542792D02*
X0544791Y0087833D01*
X0550789Y0093831D02*
X0546790D01*
Y0087833D01*
X0550789D01*
X0546790Y0090832D02*
X0548790D01*
X0552788Y0093831D02*
Y0089833D01*
X0554788Y0087833D01*
X0556787Y0089833D01*
Y0093831D01*
X0558786Y0091832D02*
X0559786D01*
Y0090832D01*
X0558786D01*
Y0091832D01*
Y0088833D02*
X0559786D01*
Y0087833D01*
X0558786D01*
Y0088833D01*
X0567400Y0087833D02*
Y0093831D01*
X0571399Y0087833D01*
Y0093831D01*
X0574398Y0087833D02*
X0576397D01*
X0577397Y0088833D01*
Y0090832D01*
X0576397Y0091832D01*
X0574398D01*
X0573398Y0090832D01*
Y0088833D01*
X0574398Y0087833D01*
X0580396Y0092832D02*
Y0091832D01*
X0579396D01*
X0581395D01*
X0580396D01*
Y0088833D01*
X0581395Y0087833D01*
X0590393Y0093831D02*
X0592392D01*
X0591392D01*
Y0087833D01*
X0590393D01*
X0592392D01*
X0595391D02*
Y0091832D01*
X0598390D01*
X0599390Y0090832D01*
Y0087833D01*
X0607387Y0093831D02*
Y0089833D01*
X0609386Y0087833D01*
X0611386Y0089833D01*
Y0093831D01*
X0616384Y0087833D02*
X0614385D01*
X0613385Y0088833D01*
Y0090832D01*
X0614385Y0091832D01*
X0616384D01*
X0617384Y0090832D01*
Y0089833D01*
X0613385D01*
X0619383Y0091832D02*
Y0087833D01*
Y0089833D01*
X0620383Y0090832D01*
X0621383Y0091832D01*
X0622382D01*
X0625381Y0087833D02*
X0628380D01*
X0629380Y0088833D01*
X0628380Y0089833D01*
X0626381D01*
X0625381Y0090832D01*
X0626381Y0091832D01*
X0629380D01*
X0631379Y0087833D02*
X0633379D01*
X0632379D01*
Y0091832D01*
X0631379D01*
X0637377Y0087833D02*
X0639377D01*
X0640376Y0088833D01*
Y0090832D01*
X0639377Y0091832D01*
X0637377D01*
X0636378Y0090832D01*
Y0088833D01*
X0637377Y0087833D01*
X0642376D02*
Y0091832D01*
X0645375D01*
X0646374Y0090832D01*
Y0087833D01*
X0652373Y0092832D02*
X0651373Y0093831D01*
X0649373D01*
X0648374Y0092832D01*
Y0088833D01*
X0649373Y0087833D01*
X0651373D01*
X0652373Y0088833D01*
X0655372Y0087833D02*
X0657371D01*
X0658371Y0088833D01*
Y0090832D01*
X0657371Y0091832D01*
X0655372D01*
X0654372Y0090832D01*
Y0088833D01*
X0655372Y0087833D01*
X0660370D02*
Y0091832D01*
X0663369D01*
X0664369Y0090832D01*
Y0087833D01*
X0667368Y0092832D02*
Y0091832D01*
X0666368D01*
X0668367D01*
X0667368D01*
Y0088833D01*
X0668367Y0087833D01*
X0671366Y0091832D02*
Y0087833D01*
Y0089833D01*
X0672366Y0090832D01*
X0673366Y0091832D01*
X0674365D01*
X0678364Y0087833D02*
X0680364D01*
X0681363Y0088833D01*
Y0090832D01*
X0680364Y0091832D01*
X0678364D01*
X0677364Y0090832D01*
Y0088833D01*
X0678364Y0087833D01*
X0683362D02*
X0685362D01*
X0684362D01*
Y0093831D01*
X0683362D01*
G54D33*
X0465440Y0198105D02*
D03*
X0458700Y0511534D02*
D03*
G54D35*
X0280440Y0490900D02*
D03*
G54D36*
X0422960Y0549876D02*
D03*
Y0510506D02*
D03*
Y0471136D02*
D03*
G54D37*
X0207200Y0163400D02*
D03*
X0147200D02*
D03*
G54D39*
X0122498Y0278400D02*
D03*
G54D40*
Y0268400D02*
D03*
Y0258400D02*
D03*
Y0248400D02*
D03*
Y0238400D02*
D03*
X0139200Y0405900D02*
D03*
G54D44*
X0196287Y0200683D02*
D03*
Y0206117D02*
D03*
X0202113Y0200683D02*
D03*
Y0206117D02*
D03*
X0199200Y0203400D02*
D03*
G54D45*
X0194500Y0256800D02*
D03*
Y0251400D02*
D03*
X0196800Y0254200D02*
D03*
X0192123Y0254237D02*
D03*
X0194751Y0224451D02*
D03*
X0194157Y0560357D02*
D03*
X0152200Y0205900D02*
D03*
Y0209900D02*
D03*
Y0213900D02*
D03*
X0261700Y0520900D02*
D03*
X0217924Y0529124D02*
D03*
X0203700Y0494900D02*
D03*
X0198050Y0488750D02*
D03*
X0194157Y0519857D02*
D03*
X0136250Y0495750D02*
D03*
X0146200Y0516400D02*
D03*
X0202200Y0462400D02*
D03*
X0155500Y0470200D02*
D03*
X0214200Y0540000D02*
D03*
X0132100Y0294300D02*
D03*
X0131200Y0354900D02*
D03*
X0127100Y0379400D02*
D03*
X0127400Y0357500D02*
D03*
X0091500Y0429700D02*
D03*
X0091400Y0401400D02*
D03*
X0199200Y0416900D02*
D03*
X0076700Y0379316D02*
D03*
X0262830Y0413569D02*
D03*
Y0410069D02*
D03*
X0076530Y0357269D02*
D03*
X0095095Y0473805D02*
D03*
X0131700Y0540400D02*
D03*
X0145200Y0558400D02*
D03*
X0145200Y0372900D02*
D03*
X0262000Y0280900D02*
D03*
X0075734Y0240555D02*
D03*
Y0205909D02*
D03*
Y0171263D02*
D03*
X0144700Y0312900D02*
D03*
X0245330Y0491569D02*
D03*
X0261200Y0569900D02*
D03*
X0260700Y0549900D02*
D03*
Y0542400D02*
D03*
X0261700Y0389400D02*
D03*
X0261200Y0334900D02*
D03*
Y0340900D02*
D03*
X0112203Y0530497D02*
D03*
Y0521049D02*
D03*
Y0511600D02*
D03*
Y0486403D02*
D03*
X0076400Y0533647D02*
D03*
Y0524198D02*
D03*
Y0514749D02*
D03*
Y0499001D02*
D03*
Y0489552D02*
D03*
X0245200Y0496400D02*
D03*
X0150200Y0416900D02*
D03*
X0114200Y0481400D02*
D03*
Y0412900D02*
D03*
X0124200Y0205900D02*
D03*
Y0171400D02*
D03*
X0262000Y0272400D02*
D03*
G54D47*
X0255999Y0490900D02*
X0280440D01*
G54D48*
X0144054Y0074468D02*
X0142841Y0075681D01*
X0140413D01*
X0139200Y0074468D01*
Y0069613D01*
X0140413Y0068400D01*
X0142841D01*
X0144054Y0069613D01*
Y0072040D01*
X0141627D01*
X0146481Y0073254D02*
Y0068400D01*
Y0070827D01*
X0147695Y0072040D01*
X0148908Y0073254D01*
X0150122D01*
X0154976Y0068400D02*
X0157403D01*
X0158616Y0069613D01*
Y0072040D01*
X0157403Y0073254D01*
X0154976D01*
X0153762Y0072040D01*
Y0069613D01*
X0154976Y0068400D01*
X0161043Y0073254D02*
Y0069613D01*
X0162257Y0068400D01*
X0165897D01*
Y0073254D01*
X0168324Y0068400D02*
Y0073254D01*
X0171965D01*
X0173179Y0072040D01*
Y0068400D01*
X0180460Y0075681D02*
Y0068400D01*
X0176819D01*
X0175605Y0069613D01*
Y0072040D01*
X0176819Y0073254D01*
X0180460D01*
M02*
