G04 Layer_Physical_Order=3*
G04 Layer_Color=16440176*
%FSAX25Y25*%
%MOIN*%
G70*
G01*
G75*
%ADD24C,0.01000*%
%ADD31C,0.00800*%
%ADD32R,0.07087X0.07087*%
%ADD33C,0.07087*%
%ADD35C,0.07972*%
%ADD36C,0.14173*%
%ADD38R,0.06102X0.06102*%
%ADD40C,0.06496*%
%ADD45C,0.02400*%
%ADD48C,0.00700*%
G36*
X0230200Y0260600D02*
X0223400Y0253800D01*
X0200800Y0253800D01*
X0190500Y0264100D01*
Y0275500D01*
X0195400Y0280400D01*
X0211200Y0280400D01*
X0217900Y0287100D01*
Y0384000D01*
X0211600Y0390300D01*
X0191600Y0390300D01*
X0190500Y0391400D01*
Y0580851D01*
X0230200D01*
X0230200Y0260600D01*
D02*
G37*
G36*
X0264200Y0484900D02*
Y0416411D01*
X0263200Y0415739D01*
X0262830Y0415812D01*
X0261971Y0415642D01*
X0261244Y0415155D01*
X0260757Y0414428D01*
X0260587Y0413569D01*
X0260757Y0412711D01*
X0261244Y0411983D01*
Y0411655D01*
X0260757Y0410928D01*
X0260587Y0410069D01*
X0260757Y0409211D01*
X0261244Y0408483D01*
X0261971Y0407997D01*
X0262830Y0407826D01*
X0263200Y0407900D01*
X0264200Y0407228D01*
Y0391418D01*
X0263618Y0391143D01*
X0263200Y0391044D01*
X0262558Y0391472D01*
X0261700Y0391643D01*
X0260842Y0391472D01*
X0260114Y0390986D01*
X0259628Y0390258D01*
X0259457Y0389400D01*
X0259628Y0388542D01*
X0260114Y0387814D01*
X0260842Y0387328D01*
X0261700Y0387157D01*
X0262558Y0387328D01*
X0263200Y0387756D01*
X0263618Y0387657D01*
X0264200Y0387382D01*
Y0347400D01*
X0266731Y0344869D01*
X0280377D01*
X0280440Y0344864D01*
X0280503Y0344869D01*
X0282730D01*
X0284530Y0343069D01*
Y0338069D01*
X0283430Y0336969D01*
X0268269Y0336969D01*
X0264254Y0332954D01*
X0264254Y0286645D01*
X0266035Y0284864D01*
X0282735D01*
X0284530Y0283069D01*
Y0278069D01*
X0283430Y0276969D01*
X0265430D01*
X0264254Y0275793D01*
Y0274651D01*
X0264251Y0274649D01*
X0263254Y0274208D01*
X0262858Y0274472D01*
X0262000Y0274643D01*
X0261142Y0274472D01*
X0260414Y0273986D01*
X0259928Y0273258D01*
X0259757Y0272400D01*
X0259928Y0271542D01*
X0260414Y0270814D01*
X0261142Y0270328D01*
X0262000Y0270157D01*
X0262858Y0270328D01*
X0263254Y0270592D01*
X0264251Y0270151D01*
X0264254Y0270149D01*
Y0229454D01*
X0213200Y0178400D01*
Y0155949D01*
X0190700D01*
X0190700Y0179900D01*
X0250531Y0239731D01*
X0250531Y0476860D01*
X0250531Y0476869D01*
X0249830Y0477569D01*
X0249821Y0477569D01*
X0242123D01*
X0241330Y0478362D01*
Y0485569D01*
X0242161Y0486400D01*
X0262700D01*
X0264200Y0484900D01*
D02*
G37*
G36*
X0155000Y0577600D02*
Y0480100D01*
X0158900Y0476200D01*
Y0408100D01*
X0155000Y0404200D01*
Y0218200D01*
X0153000Y0216200D01*
X0124800D01*
X0123400Y0217600D01*
Y0234234D01*
X0123607Y0234261D01*
X0124640Y0234689D01*
X0125527Y0235370D01*
X0126208Y0236258D01*
X0126636Y0237291D01*
X0126782Y0238400D01*
X0126636Y0239509D01*
X0126208Y0240542D01*
X0125527Y0241430D01*
X0124640Y0242111D01*
X0123607Y0242539D01*
X0123400Y0242566D01*
Y0244234D01*
X0123607Y0244261D01*
X0124640Y0244689D01*
X0125527Y0245370D01*
X0126208Y0246258D01*
X0126636Y0247291D01*
X0126782Y0248400D01*
X0126636Y0249509D01*
X0126208Y0250542D01*
X0125527Y0251430D01*
X0124640Y0252111D01*
X0123607Y0252539D01*
X0123400Y0252566D01*
Y0254234D01*
X0123607Y0254261D01*
X0124640Y0254689D01*
X0125527Y0255370D01*
X0126208Y0256258D01*
X0126636Y0257291D01*
X0126782Y0258400D01*
X0126636Y0259509D01*
X0126208Y0260542D01*
X0125527Y0261430D01*
X0124640Y0262111D01*
X0123607Y0262539D01*
X0123400Y0262566D01*
Y0264234D01*
X0123607Y0264261D01*
X0124640Y0264689D01*
X0125527Y0265370D01*
X0126208Y0266258D01*
X0126636Y0267291D01*
X0126782Y0268400D01*
X0126636Y0269509D01*
X0126208Y0270542D01*
X0125527Y0271430D01*
X0124640Y0272111D01*
X0123607Y0272539D01*
X0123400Y0272566D01*
Y0274152D01*
X0126746D01*
Y0282648D01*
X0123400D01*
Y0554000D01*
X0123480Y0554016D01*
X0124142Y0554458D01*
X0124584Y0555120D01*
X0124739Y0555900D01*
X0124584Y0556680D01*
X0124142Y0557342D01*
X0123480Y0557784D01*
X0123400Y0557800D01*
Y0579400D01*
X0123400Y0579400D01*
X0124851Y0580851D01*
Y0580851D01*
X0151749D01*
X0155000Y0577600D01*
D02*
G37*
G36*
X0121330Y0578369D02*
Y0557390D01*
X0121258Y0557342D01*
X0120816Y0556680D01*
X0120661Y0555900D01*
X0120816Y0555120D01*
X0121258Y0554458D01*
X0121330Y0554410D01*
X0121330Y0282648D01*
X0118250D01*
Y0274152D01*
X0121330D01*
Y0272514D01*
X0120355Y0272111D01*
X0119468Y0271430D01*
X0118787Y0270542D01*
X0118359Y0269509D01*
X0118213Y0268400D01*
X0118359Y0267291D01*
X0118787Y0266258D01*
X0119468Y0265370D01*
X0120355Y0264689D01*
X0121330Y0264286D01*
Y0262514D01*
X0120355Y0262111D01*
X0119468Y0261430D01*
X0118787Y0260542D01*
X0118359Y0259509D01*
X0118213Y0258400D01*
X0118359Y0257291D01*
X0118787Y0256258D01*
X0119468Y0255370D01*
X0120355Y0254689D01*
X0121330Y0254286D01*
Y0252514D01*
X0120355Y0252111D01*
X0119468Y0251430D01*
X0118787Y0250542D01*
X0118359Y0249509D01*
X0118213Y0248400D01*
X0118359Y0247291D01*
X0118787Y0246258D01*
X0119468Y0245370D01*
X0120355Y0244689D01*
X0121330Y0244286D01*
Y0242514D01*
X0120355Y0242111D01*
X0119468Y0241430D01*
X0118787Y0240542D01*
X0118359Y0239509D01*
X0118213Y0238400D01*
X0118359Y0237291D01*
X0118787Y0236258D01*
X0119468Y0235370D01*
X0120355Y0234689D01*
X0121330Y0234286D01*
X0121330Y0201770D01*
X0123100Y0200000D01*
X0153300D01*
X0155000Y0198300D01*
X0155000Y0156700D01*
X0154249Y0155949D01*
X0074150D01*
X0071749Y0158350D01*
Y0578388D01*
X0074212Y0580851D01*
X0118848D01*
X0121330Y0578369D01*
D02*
G37*
G36*
X0496651Y0155949D02*
X0418830D01*
Y0303569D01*
X0414830Y0307569D01*
X0414830Y0317930D01*
X0419469Y0322569D01*
X0443830D01*
X0447330Y0326069D01*
Y0410069D01*
X0451330Y0414069D01*
X0496651D01*
Y0155949D01*
D02*
G37*
%LPC*%
G36*
X0194157Y0562600D02*
X0193298Y0562429D01*
X0192571Y0561943D01*
X0192084Y0561215D01*
X0191914Y0560357D01*
X0192084Y0559498D01*
X0192571Y0558771D01*
X0193298Y0558284D01*
X0194157Y0558114D01*
X0195015Y0558284D01*
X0195743Y0558771D01*
X0196229Y0559498D01*
X0196400Y0560357D01*
X0196229Y0561215D01*
X0195743Y0561943D01*
X0195015Y0562429D01*
X0194157Y0562600D01*
D02*
G37*
G36*
X0220550Y0500790D02*
X0219770Y0500634D01*
X0219109Y0500192D01*
X0218666Y0499531D01*
X0218511Y0498750D01*
X0218666Y0497970D01*
X0219109Y0497308D01*
X0219770Y0496866D01*
X0220550Y0496711D01*
X0221331Y0496866D01*
X0221992Y0497308D01*
X0222434Y0497970D01*
X0222590Y0498750D01*
X0222434Y0499531D01*
X0221992Y0500192D01*
X0221331Y0500634D01*
X0220550Y0500790D01*
D02*
G37*
G36*
X0198050Y0490993D02*
X0197192Y0490823D01*
X0196464Y0490337D01*
X0195978Y0489609D01*
X0195807Y0488750D01*
X0195978Y0487892D01*
X0196464Y0487164D01*
X0197192Y0486678D01*
X0198050Y0486507D01*
X0198909Y0486678D01*
X0199636Y0487164D01*
X0200123Y0487892D01*
X0200293Y0488750D01*
X0200123Y0489609D01*
X0199636Y0490337D01*
X0198909Y0490823D01*
X0198050Y0490993D01*
D02*
G37*
G36*
X0203700Y0497143D02*
X0202842Y0496972D01*
X0202114Y0496486D01*
X0201628Y0495758D01*
X0201457Y0494900D01*
X0201628Y0494042D01*
X0202114Y0493314D01*
X0202842Y0492828D01*
X0203700Y0492657D01*
X0204558Y0492828D01*
X0205286Y0493314D01*
X0205772Y0494042D01*
X0205943Y0494900D01*
X0205772Y0495758D01*
X0205286Y0496486D01*
X0204558Y0496972D01*
X0203700Y0497143D01*
D02*
G37*
G36*
X0224200Y0515939D02*
X0223420Y0515784D01*
X0222758Y0515342D01*
X0222316Y0514680D01*
X0222161Y0513900D01*
X0222316Y0513120D01*
X0222758Y0512458D01*
X0223420Y0512016D01*
X0224200Y0511861D01*
X0224980Y0512016D01*
X0225642Y0512458D01*
X0226084Y0513120D01*
X0226239Y0513900D01*
X0226084Y0514680D01*
X0225642Y0515342D01*
X0224980Y0515784D01*
X0224200Y0515939D01*
D02*
G37*
G36*
X0217924Y0531367D02*
X0217066Y0531197D01*
X0216338Y0530711D01*
X0215852Y0529983D01*
X0215681Y0529124D01*
X0215852Y0528266D01*
X0216338Y0527538D01*
X0217066Y0527052D01*
X0217924Y0526881D01*
X0218783Y0527052D01*
X0219511Y0527538D01*
X0219997Y0528266D01*
X0220167Y0529124D01*
X0219997Y0529983D01*
X0219511Y0530711D01*
X0218783Y0531197D01*
X0217924Y0531367D01*
D02*
G37*
G36*
X0214200Y0542243D02*
X0213342Y0542072D01*
X0212614Y0541586D01*
X0212128Y0540858D01*
X0211957Y0540000D01*
X0212128Y0539142D01*
X0212614Y0538414D01*
X0213342Y0537928D01*
X0214200Y0537757D01*
X0215058Y0537928D01*
X0215786Y0538414D01*
X0216272Y0539142D01*
X0216443Y0540000D01*
X0216272Y0540858D01*
X0215786Y0541586D01*
X0215058Y0542072D01*
X0214200Y0542243D01*
D02*
G37*
G36*
X0194157Y0522100D02*
X0193298Y0521929D01*
X0192571Y0521443D01*
X0192084Y0520715D01*
X0191914Y0519857D01*
X0192084Y0518998D01*
X0192571Y0518271D01*
X0193298Y0517784D01*
X0194157Y0517614D01*
X0195015Y0517784D01*
X0195743Y0518271D01*
X0196229Y0518998D01*
X0196400Y0519857D01*
X0196229Y0520715D01*
X0195743Y0521443D01*
X0195015Y0521929D01*
X0194157Y0522100D01*
D02*
G37*
G36*
X0199200Y0419143D02*
X0198342Y0418972D01*
X0197614Y0418486D01*
X0197128Y0417758D01*
X0196957Y0416900D01*
X0197128Y0416042D01*
X0197614Y0415314D01*
X0198342Y0414828D01*
X0199200Y0414657D01*
X0200058Y0414828D01*
X0200786Y0415314D01*
X0201272Y0416042D01*
X0201443Y0416900D01*
X0201272Y0417758D01*
X0200786Y0418486D01*
X0200058Y0418972D01*
X0199200Y0419143D01*
D02*
G37*
G36*
X0202200Y0464643D02*
X0201342Y0464472D01*
X0200614Y0463986D01*
X0200128Y0463258D01*
X0199957Y0462400D01*
X0200128Y0461542D01*
X0200614Y0460814D01*
X0201342Y0460328D01*
X0202200Y0460157D01*
X0203058Y0460328D01*
X0203786Y0460814D01*
X0204272Y0461542D01*
X0204443Y0462400D01*
X0204272Y0463258D01*
X0203786Y0463986D01*
X0203058Y0464472D01*
X0202200Y0464643D01*
D02*
G37*
G36*
X0261200Y0337143D02*
X0260342Y0336972D01*
X0259614Y0336486D01*
X0259128Y0335758D01*
X0258957Y0334900D01*
X0259128Y0334042D01*
X0259614Y0333314D01*
X0260342Y0332828D01*
X0261200Y0332657D01*
X0262058Y0332828D01*
X0262786Y0333314D01*
X0263272Y0334042D01*
X0263443Y0334900D01*
X0263272Y0335758D01*
X0262786Y0336486D01*
X0262058Y0336972D01*
X0261200Y0337143D01*
D02*
G37*
G36*
Y0343143D02*
X0260342Y0342972D01*
X0259614Y0342486D01*
X0259128Y0341758D01*
X0258957Y0340900D01*
X0259128Y0340042D01*
X0259614Y0339314D01*
X0260342Y0338828D01*
X0261200Y0338657D01*
X0262058Y0338828D01*
X0262786Y0339314D01*
X0263272Y0340042D01*
X0263443Y0340900D01*
X0263272Y0341758D01*
X0262786Y0342486D01*
X0262058Y0342972D01*
X0261200Y0343143D01*
D02*
G37*
G36*
X0207200Y0167486D02*
X0206142Y0167347D01*
X0205157Y0166939D01*
X0204311Y0166289D01*
X0203661Y0165443D01*
X0203253Y0164458D01*
X0203114Y0163400D01*
X0203253Y0162342D01*
X0203661Y0161357D01*
X0204311Y0160511D01*
X0205157Y0159861D01*
X0206142Y0159453D01*
X0207200Y0159314D01*
X0208258Y0159453D01*
X0209243Y0159861D01*
X0210089Y0160511D01*
X0210739Y0161357D01*
X0211147Y0162342D01*
X0211286Y0163400D01*
X0211147Y0164458D01*
X0210739Y0165443D01*
X0210089Y0166289D01*
X0209243Y0166939D01*
X0208258Y0167347D01*
X0207200Y0167486D01*
D02*
G37*
G36*
X0262000Y0283143D02*
X0261142Y0282972D01*
X0260414Y0282486D01*
X0259928Y0281758D01*
X0259757Y0280900D01*
X0259928Y0280042D01*
X0260414Y0279314D01*
X0261142Y0278828D01*
X0262000Y0278657D01*
X0262858Y0278828D01*
X0263586Y0279314D01*
X0264072Y0280042D01*
X0264243Y0280900D01*
X0264072Y0281758D01*
X0263586Y0282486D01*
X0262858Y0282972D01*
X0262000Y0283143D01*
D02*
G37*
G36*
X0145200Y0375143D02*
X0144342Y0374972D01*
X0143614Y0374486D01*
X0143128Y0373758D01*
X0142957Y0372900D01*
X0143128Y0372042D01*
X0143614Y0371314D01*
X0144342Y0370828D01*
X0145200Y0370657D01*
X0146058Y0370828D01*
X0146786Y0371314D01*
X0147272Y0372042D01*
X0147443Y0372900D01*
X0147272Y0373758D01*
X0146786Y0374486D01*
X0146058Y0374972D01*
X0145200Y0375143D01*
D02*
G37*
G36*
X0127400Y0359743D02*
X0126542Y0359572D01*
X0125814Y0359086D01*
X0125328Y0358358D01*
X0125157Y0357500D01*
X0125328Y0356642D01*
X0125814Y0355914D01*
X0126542Y0355428D01*
X0127400Y0355257D01*
X0128033Y0355383D01*
X0128623Y0355074D01*
X0128993Y0354716D01*
X0129128Y0354042D01*
X0129614Y0353314D01*
X0130342Y0352828D01*
X0131200Y0352657D01*
X0132058Y0352828D01*
X0132786Y0353314D01*
X0133272Y0354042D01*
X0133443Y0354900D01*
X0133272Y0355758D01*
X0132786Y0356486D01*
X0132058Y0356972D01*
X0131200Y0357143D01*
X0130567Y0357017D01*
X0129977Y0357326D01*
X0129606Y0357684D01*
X0129472Y0358358D01*
X0128986Y0359086D01*
X0128258Y0359572D01*
X0127400Y0359743D01*
D02*
G37*
G36*
X0127100Y0381643D02*
X0126242Y0381472D01*
X0125514Y0380986D01*
X0125028Y0380258D01*
X0124857Y0379400D01*
X0125028Y0378542D01*
X0125514Y0377814D01*
X0126242Y0377328D01*
X0127100Y0377157D01*
X0127958Y0377328D01*
X0128686Y0377814D01*
X0129172Y0378542D01*
X0129343Y0379400D01*
X0129172Y0380258D01*
X0128686Y0380986D01*
X0127958Y0381472D01*
X0127100Y0381643D01*
D02*
G37*
G36*
X0139200Y0410185D02*
X0138091Y0410039D01*
X0137058Y0409611D01*
X0136170Y0408930D01*
X0135489Y0408042D01*
X0135061Y0407009D01*
X0134915Y0405900D01*
X0135061Y0404791D01*
X0135489Y0403758D01*
X0136170Y0402870D01*
X0137058Y0402189D01*
X0138091Y0401761D01*
X0139200Y0401615D01*
X0140309Y0401761D01*
X0141342Y0402189D01*
X0142230Y0402870D01*
X0142911Y0403758D01*
X0143339Y0404791D01*
X0143485Y0405900D01*
X0143339Y0407009D01*
X0142911Y0408042D01*
X0142230Y0408930D01*
X0141342Y0409611D01*
X0140309Y0410039D01*
X0139200Y0410185D01*
D02*
G37*
G36*
Y0420185D02*
X0138091Y0420039D01*
X0137058Y0419611D01*
X0136170Y0418930D01*
X0135489Y0418042D01*
X0135061Y0417009D01*
X0134915Y0415900D01*
X0135061Y0414791D01*
X0135489Y0413758D01*
X0136170Y0412870D01*
X0137058Y0412189D01*
X0138091Y0411761D01*
X0139200Y0411615D01*
X0140309Y0411761D01*
X0141342Y0412189D01*
X0142230Y0412870D01*
X0142911Y0413758D01*
X0143339Y0414791D01*
X0143485Y0415900D01*
X0143339Y0417009D01*
X0142911Y0418042D01*
X0142230Y0418930D01*
X0141342Y0419611D01*
X0140309Y0420039D01*
X0139200Y0420185D01*
D02*
G37*
G36*
X0129200D02*
X0128091Y0420039D01*
X0127058Y0419611D01*
X0126170Y0418930D01*
X0125489Y0418042D01*
X0125061Y0417009D01*
X0124915Y0415900D01*
X0125061Y0414791D01*
X0125489Y0413758D01*
X0126170Y0412870D01*
X0127058Y0412189D01*
X0128091Y0411761D01*
X0129200Y0411615D01*
X0130309Y0411761D01*
X0131342Y0412189D01*
X0132230Y0412870D01*
X0132911Y0413758D01*
X0133339Y0414791D01*
X0133485Y0415900D01*
X0133339Y0417009D01*
X0132911Y0418042D01*
X0132230Y0418930D01*
X0131342Y0419611D01*
X0130309Y0420039D01*
X0129200Y0420185D01*
D02*
G37*
G36*
X0141600Y0383239D02*
X0140820Y0383084D01*
X0140158Y0382642D01*
X0139716Y0381980D01*
X0139561Y0381200D01*
X0139716Y0380420D01*
X0140158Y0379758D01*
X0140820Y0379316D01*
X0141600Y0379161D01*
X0142380Y0379316D01*
X0143042Y0379758D01*
X0143484Y0380420D01*
X0143639Y0381200D01*
X0143484Y0381980D01*
X0143042Y0382642D01*
X0142380Y0383084D01*
X0141600Y0383239D01*
D02*
G37*
G36*
X0134300Y0382939D02*
X0133520Y0382784D01*
X0132858Y0382342D01*
X0132416Y0381680D01*
X0132261Y0380900D01*
X0132416Y0380120D01*
X0132858Y0379458D01*
X0133520Y0379016D01*
X0134300Y0378861D01*
X0135080Y0379016D01*
X0135742Y0379458D01*
X0136184Y0380120D01*
X0136339Y0380900D01*
X0136184Y0381680D01*
X0135742Y0382342D01*
X0135080Y0382784D01*
X0134300Y0382939D01*
D02*
G37*
G36*
X0145200Y0560643D02*
X0144342Y0560472D01*
X0143614Y0559986D01*
X0143128Y0559258D01*
X0142957Y0558400D01*
X0143128Y0557542D01*
X0143614Y0556814D01*
X0144342Y0556328D01*
X0145200Y0556157D01*
X0146058Y0556328D01*
X0146786Y0556814D01*
X0147272Y0557542D01*
X0147443Y0558400D01*
X0147272Y0559258D01*
X0146786Y0559986D01*
X0146058Y0560472D01*
X0145200Y0560643D01*
D02*
G37*
G36*
X0132498Y0242685D02*
X0131389Y0242539D01*
X0130355Y0242111D01*
X0129468Y0241430D01*
X0128787Y0240542D01*
X0128359Y0239509D01*
X0128213Y0238400D01*
X0128359Y0237291D01*
X0128787Y0236258D01*
X0129468Y0235370D01*
X0130355Y0234689D01*
X0131389Y0234261D01*
X0132498Y0234115D01*
X0133607Y0234261D01*
X0134640Y0234689D01*
X0135527Y0235370D01*
X0136208Y0236258D01*
X0136636Y0237291D01*
X0136782Y0238400D01*
X0136636Y0239509D01*
X0136208Y0240542D01*
X0135527Y0241430D01*
X0134640Y0242111D01*
X0133607Y0242539D01*
X0132498Y0242685D01*
D02*
G37*
G36*
Y0282685D02*
X0131389Y0282539D01*
X0130355Y0282111D01*
X0129468Y0281430D01*
X0128787Y0280542D01*
X0128359Y0279509D01*
X0128213Y0278400D01*
X0128359Y0277291D01*
X0128787Y0276258D01*
X0129468Y0275370D01*
X0130355Y0274689D01*
X0131389Y0274261D01*
X0132498Y0274115D01*
X0133607Y0274261D01*
X0134640Y0274689D01*
X0135527Y0275370D01*
X0136208Y0276258D01*
X0136636Y0277291D01*
X0136782Y0278400D01*
X0136636Y0279509D01*
X0136208Y0280542D01*
X0135527Y0281430D01*
X0134640Y0282111D01*
X0133607Y0282539D01*
X0132498Y0282685D01*
D02*
G37*
G36*
X0144700Y0315143D02*
X0143842Y0314972D01*
X0143114Y0314486D01*
X0142628Y0313758D01*
X0142457Y0312900D01*
X0142628Y0312042D01*
X0143114Y0311314D01*
X0143842Y0310828D01*
X0144700Y0310657D01*
X0145558Y0310828D01*
X0146286Y0311314D01*
X0146772Y0312042D01*
X0146943Y0312900D01*
X0146772Y0313758D01*
X0146286Y0314486D01*
X0145558Y0314972D01*
X0144700Y0315143D01*
D02*
G37*
G36*
X0132100Y0296543D02*
X0131242Y0296372D01*
X0130514Y0295886D01*
X0130028Y0295158D01*
X0129857Y0294300D01*
X0130028Y0293442D01*
X0130514Y0292714D01*
X0131242Y0292228D01*
X0132100Y0292057D01*
X0132958Y0292228D01*
X0133686Y0292714D01*
X0134172Y0293442D01*
X0134343Y0294300D01*
X0134172Y0295158D01*
X0133686Y0295886D01*
X0132958Y0296372D01*
X0132100Y0296543D01*
D02*
G37*
G36*
X0132498Y0252685D02*
X0131389Y0252539D01*
X0130355Y0252111D01*
X0129468Y0251430D01*
X0128787Y0250542D01*
X0128359Y0249509D01*
X0128213Y0248400D01*
X0128359Y0247291D01*
X0128787Y0246258D01*
X0129468Y0245370D01*
X0130355Y0244689D01*
X0131389Y0244261D01*
X0132498Y0244115D01*
X0133607Y0244261D01*
X0134640Y0244689D01*
X0135527Y0245370D01*
X0136208Y0246258D01*
X0136636Y0247291D01*
X0136782Y0248400D01*
X0136636Y0249509D01*
X0136208Y0250542D01*
X0135527Y0251430D01*
X0134640Y0252111D01*
X0133607Y0252539D01*
X0132498Y0252685D01*
D02*
G37*
G36*
Y0272685D02*
X0131389Y0272539D01*
X0130355Y0272111D01*
X0129468Y0271430D01*
X0128787Y0270542D01*
X0128359Y0269509D01*
X0128213Y0268400D01*
X0128359Y0267291D01*
X0128787Y0266258D01*
X0129468Y0265370D01*
X0130355Y0264689D01*
X0131389Y0264261D01*
X0132498Y0264115D01*
X0133607Y0264261D01*
X0134640Y0264689D01*
X0135527Y0265370D01*
X0136208Y0266258D01*
X0136636Y0267291D01*
X0136782Y0268400D01*
X0136636Y0269509D01*
X0136208Y0270542D01*
X0135527Y0271430D01*
X0134640Y0272111D01*
X0133607Y0272539D01*
X0132498Y0272685D01*
D02*
G37*
G36*
X0132498Y0262685D02*
X0131389Y0262539D01*
X0130355Y0262111D01*
X0129468Y0261430D01*
X0128787Y0260542D01*
X0128359Y0259509D01*
X0128213Y0258400D01*
X0128359Y0257291D01*
X0128787Y0256258D01*
X0129468Y0255370D01*
X0130355Y0254689D01*
X0131389Y0254261D01*
X0132498Y0254115D01*
X0133607Y0254261D01*
X0134640Y0254689D01*
X0135527Y0255370D01*
X0136208Y0256258D01*
X0136636Y0257291D01*
X0136782Y0258400D01*
X0136636Y0259509D01*
X0136208Y0260542D01*
X0135527Y0261430D01*
X0134640Y0262111D01*
X0133607Y0262539D01*
X0132498Y0262685D01*
D02*
G37*
G36*
X0131800Y0508639D02*
X0131020Y0508484D01*
X0130358Y0508042D01*
X0129916Y0507380D01*
X0129761Y0506600D01*
X0129916Y0505820D01*
X0130358Y0505158D01*
X0131020Y0504716D01*
X0131800Y0504561D01*
X0132580Y0504716D01*
X0133242Y0505158D01*
X0133684Y0505820D01*
X0133839Y0506600D01*
X0133684Y0507380D01*
X0133242Y0508042D01*
X0132580Y0508484D01*
X0131800Y0508639D01*
D02*
G37*
G36*
Y0514839D02*
X0131020Y0514684D01*
X0130358Y0514242D01*
X0129916Y0513580D01*
X0129761Y0512800D01*
X0129916Y0512020D01*
X0130358Y0511358D01*
X0131020Y0510916D01*
X0131800Y0510761D01*
X0132580Y0510916D01*
X0133242Y0511358D01*
X0133684Y0512020D01*
X0133839Y0512800D01*
X0133684Y0513580D01*
X0133242Y0514242D01*
X0132580Y0514684D01*
X0131800Y0514839D01*
D02*
G37*
G36*
X0136250Y0497994D02*
X0135392Y0497823D01*
X0134664Y0497336D01*
X0134178Y0496609D01*
X0134007Y0495750D01*
X0134178Y0494892D01*
X0134664Y0494164D01*
X0135392Y0493678D01*
X0136250Y0493507D01*
X0137109Y0493678D01*
X0137837Y0494164D01*
X0138323Y0494892D01*
X0138494Y0495750D01*
X0138323Y0496609D01*
X0137837Y0497336D01*
X0137109Y0497823D01*
X0136250Y0497994D01*
D02*
G37*
G36*
X0131700Y0542643D02*
X0130842Y0542472D01*
X0130114Y0541986D01*
X0129628Y0541258D01*
X0129457Y0540400D01*
X0129628Y0539542D01*
X0130114Y0538814D01*
X0130842Y0538328D01*
X0131700Y0538157D01*
X0132558Y0538328D01*
X0133286Y0538814D01*
X0133772Y0539542D01*
X0133943Y0540400D01*
X0133772Y0541258D01*
X0133286Y0541986D01*
X0132558Y0542472D01*
X0131700Y0542643D01*
D02*
G37*
G36*
X0146200Y0518643D02*
X0145342Y0518472D01*
X0144614Y0517986D01*
X0144128Y0517258D01*
X0143957Y0516400D01*
X0144128Y0515542D01*
X0144614Y0514814D01*
X0145342Y0514328D01*
X0146200Y0514157D01*
X0147058Y0514328D01*
X0147786Y0514814D01*
X0148272Y0515542D01*
X0148443Y0516400D01*
X0148272Y0517258D01*
X0147786Y0517986D01*
X0147058Y0518472D01*
X0146200Y0518643D01*
D02*
G37*
G36*
X0129200Y0440185D02*
X0128091Y0440039D01*
X0127058Y0439611D01*
X0126170Y0438930D01*
X0125489Y0438042D01*
X0125061Y0437009D01*
X0124915Y0435900D01*
X0125061Y0434791D01*
X0125489Y0433758D01*
X0126170Y0432870D01*
X0127058Y0432189D01*
X0128091Y0431761D01*
X0129200Y0431615D01*
X0130309Y0431761D01*
X0131342Y0432189D01*
X0132230Y0432870D01*
X0132911Y0433758D01*
X0133339Y0434791D01*
X0133485Y0435900D01*
X0133339Y0437009D01*
X0132911Y0438042D01*
X0132230Y0438930D01*
X0131342Y0439611D01*
X0130309Y0440039D01*
X0129200Y0440185D01*
D02*
G37*
G36*
X0139200D02*
X0138091Y0440039D01*
X0137058Y0439611D01*
X0136170Y0438930D01*
X0135489Y0438042D01*
X0135061Y0437009D01*
X0134915Y0435900D01*
X0135061Y0434791D01*
X0135489Y0433758D01*
X0136170Y0432870D01*
X0137058Y0432189D01*
X0138091Y0431761D01*
X0139200Y0431615D01*
X0140309Y0431761D01*
X0141342Y0432189D01*
X0142230Y0432870D01*
X0142911Y0433758D01*
X0143339Y0434791D01*
X0143485Y0435900D01*
X0143339Y0437009D01*
X0142911Y0438042D01*
X0142230Y0438930D01*
X0141342Y0439611D01*
X0140309Y0440039D01*
X0139200Y0440185D01*
D02*
G37*
G36*
Y0450185D02*
X0138091Y0450039D01*
X0137058Y0449611D01*
X0136170Y0448930D01*
X0135489Y0448042D01*
X0135061Y0447009D01*
X0134915Y0445900D01*
X0135061Y0444791D01*
X0135489Y0443758D01*
X0136170Y0442870D01*
X0137058Y0442189D01*
X0138091Y0441761D01*
X0139200Y0441615D01*
X0140309Y0441761D01*
X0141342Y0442189D01*
X0142230Y0442870D01*
X0142911Y0443758D01*
X0143339Y0444791D01*
X0143485Y0445900D01*
X0143339Y0447009D01*
X0142911Y0448042D01*
X0142230Y0448930D01*
X0141342Y0449611D01*
X0140309Y0450039D01*
X0139200Y0450185D01*
D02*
G37*
G36*
X0129200D02*
X0128091Y0450039D01*
X0127058Y0449611D01*
X0126170Y0448930D01*
X0125489Y0448042D01*
X0125061Y0447009D01*
X0124915Y0445900D01*
X0125061Y0444791D01*
X0125489Y0443758D01*
X0126170Y0442870D01*
X0127058Y0442189D01*
X0128091Y0441761D01*
X0129200Y0441615D01*
X0130309Y0441761D01*
X0131342Y0442189D01*
X0132230Y0442870D01*
X0132911Y0443758D01*
X0133339Y0444791D01*
X0133485Y0445900D01*
X0133339Y0447009D01*
X0132911Y0448042D01*
X0132230Y0448930D01*
X0131342Y0449611D01*
X0130309Y0450039D01*
X0129200Y0450185D01*
D02*
G37*
G36*
X0150200Y0419143D02*
X0149342Y0418972D01*
X0148614Y0418486D01*
X0148128Y0417758D01*
X0147957Y0416900D01*
X0148128Y0416042D01*
X0148614Y0415314D01*
X0149342Y0414828D01*
X0150200Y0414657D01*
X0151058Y0414828D01*
X0151786Y0415314D01*
X0152272Y0416042D01*
X0152443Y0416900D01*
X0152272Y0417758D01*
X0151786Y0418486D01*
X0151058Y0418972D01*
X0150200Y0419143D01*
D02*
G37*
G36*
X0131700Y0548939D02*
X0130920Y0548784D01*
X0130258Y0548342D01*
X0129816Y0547680D01*
X0129661Y0546900D01*
X0129816Y0546120D01*
X0130258Y0545458D01*
X0130920Y0545016D01*
X0131700Y0544861D01*
X0132480Y0545016D01*
X0133142Y0545458D01*
X0133584Y0546120D01*
X0133739Y0546900D01*
X0133584Y0547680D01*
X0133142Y0548342D01*
X0132480Y0548784D01*
X0131700Y0548939D01*
D02*
G37*
G36*
X0139200Y0430185D02*
X0138091Y0430039D01*
X0137058Y0429611D01*
X0136170Y0428930D01*
X0135489Y0428042D01*
X0135061Y0427009D01*
X0134915Y0425900D01*
X0135061Y0424791D01*
X0135489Y0423758D01*
X0136170Y0422870D01*
X0137058Y0422189D01*
X0138091Y0421761D01*
X0139200Y0421615D01*
X0140309Y0421761D01*
X0141342Y0422189D01*
X0142230Y0422870D01*
X0142911Y0423758D01*
X0143339Y0424791D01*
X0143485Y0425900D01*
X0143339Y0427009D01*
X0142911Y0428042D01*
X0142230Y0428930D01*
X0141342Y0429611D01*
X0140309Y0430039D01*
X0139200Y0430185D01*
D02*
G37*
G36*
X0129200D02*
X0128091Y0430039D01*
X0127058Y0429611D01*
X0126170Y0428930D01*
X0125489Y0428042D01*
X0125061Y0427009D01*
X0124915Y0425900D01*
X0125061Y0424791D01*
X0125489Y0423758D01*
X0126170Y0422870D01*
X0127058Y0422189D01*
X0128091Y0421761D01*
X0129200Y0421615D01*
X0130309Y0421761D01*
X0131342Y0422189D01*
X0132230Y0422870D01*
X0132911Y0423758D01*
X0133339Y0424791D01*
X0133485Y0425900D01*
X0133339Y0427009D01*
X0132911Y0428042D01*
X0132230Y0428930D01*
X0131342Y0429611D01*
X0130309Y0430039D01*
X0129200Y0430185D01*
D02*
G37*
G36*
Y0460185D02*
X0128091Y0460039D01*
X0127058Y0459611D01*
X0126170Y0458930D01*
X0125489Y0458042D01*
X0125061Y0457009D01*
X0124915Y0455900D01*
X0125061Y0454791D01*
X0125489Y0453758D01*
X0126170Y0452870D01*
X0127058Y0452189D01*
X0128091Y0451761D01*
X0129200Y0451615D01*
X0130309Y0451761D01*
X0131342Y0452189D01*
X0132230Y0452870D01*
X0132911Y0453758D01*
X0133339Y0454791D01*
X0133485Y0455900D01*
X0133339Y0457009D01*
X0132911Y0458042D01*
X0132230Y0458930D01*
X0131342Y0459611D01*
X0130309Y0460039D01*
X0129200Y0460185D01*
D02*
G37*
G36*
X0133448Y0470148D02*
X0124952D01*
Y0461652D01*
X0133448D01*
Y0470148D01*
D02*
G37*
G36*
X0155500Y0472443D02*
X0154642Y0472272D01*
X0153914Y0471786D01*
X0153428Y0471058D01*
X0153257Y0470200D01*
X0153428Y0469342D01*
X0153914Y0468614D01*
X0154642Y0468128D01*
X0155500Y0467957D01*
X0156358Y0468128D01*
X0157086Y0468614D01*
X0157572Y0469342D01*
X0157743Y0470200D01*
X0157572Y0471058D01*
X0157086Y0471786D01*
X0156358Y0472272D01*
X0155500Y0472443D01*
D02*
G37*
G36*
X0139200Y0460185D02*
X0138091Y0460039D01*
X0137058Y0459611D01*
X0136170Y0458930D01*
X0135489Y0458042D01*
X0135061Y0457009D01*
X0134915Y0455900D01*
X0135061Y0454791D01*
X0135489Y0453758D01*
X0136170Y0452870D01*
X0137058Y0452189D01*
X0138091Y0451761D01*
X0139200Y0451615D01*
X0140309Y0451761D01*
X0141342Y0452189D01*
X0142230Y0452870D01*
X0142911Y0453758D01*
X0143339Y0454791D01*
X0143485Y0455900D01*
X0143339Y0457009D01*
X0142911Y0458042D01*
X0142230Y0458930D01*
X0141342Y0459611D01*
X0140309Y0460039D01*
X0139200Y0460185D01*
D02*
G37*
G36*
Y0470185D02*
X0138091Y0470039D01*
X0137058Y0469611D01*
X0136170Y0468930D01*
X0135489Y0468042D01*
X0135061Y0467009D01*
X0134915Y0465900D01*
X0135061Y0464791D01*
X0135489Y0463758D01*
X0136170Y0462870D01*
X0137058Y0462189D01*
X0138091Y0461761D01*
X0139200Y0461615D01*
X0140309Y0461761D01*
X0141342Y0462189D01*
X0142230Y0462870D01*
X0142911Y0463758D01*
X0143339Y0464791D01*
X0143485Y0465900D01*
X0143339Y0467009D01*
X0142911Y0468042D01*
X0142230Y0468930D01*
X0141342Y0469611D01*
X0140309Y0470039D01*
X0139200Y0470185D01*
D02*
G37*
G36*
X0112346Y0369794D02*
X0111565Y0369638D01*
X0110904Y0369196D01*
X0110462Y0368535D01*
X0110307Y0367754D01*
X0110462Y0366974D01*
X0110904Y0366312D01*
X0111565Y0365870D01*
X0111986Y0365787D01*
Y0365277D01*
X0111520Y0365184D01*
X0110858Y0364742D01*
X0110416Y0364080D01*
X0110261Y0363300D01*
X0110416Y0362520D01*
X0110858Y0361858D01*
X0111520Y0361416D01*
X0112300Y0361261D01*
X0113080Y0361416D01*
X0113742Y0361858D01*
X0114184Y0362520D01*
X0114339Y0363300D01*
X0114184Y0364080D01*
X0113742Y0364742D01*
X0113080Y0365184D01*
X0112659Y0365268D01*
Y0365777D01*
X0113126Y0365870D01*
X0113788Y0366312D01*
X0114230Y0366974D01*
X0114385Y0367754D01*
X0114230Y0368535D01*
X0113788Y0369196D01*
X0113126Y0369638D01*
X0112346Y0369794D01*
D02*
G37*
G36*
X0076530Y0359512D02*
X0075671Y0359341D01*
X0074943Y0358855D01*
X0074457Y0358127D01*
X0074286Y0357269D01*
X0074457Y0356411D01*
X0074943Y0355683D01*
X0075671Y0355197D01*
X0076530Y0355026D01*
X0077388Y0355197D01*
X0078116Y0355683D01*
X0078602Y0356411D01*
X0078773Y0357269D01*
X0078602Y0358127D01*
X0078116Y0358855D01*
X0077388Y0359341D01*
X0076530Y0359512D01*
D02*
G37*
G36*
X0076700Y0381559D02*
X0075842Y0381389D01*
X0075114Y0380902D01*
X0074628Y0380175D01*
X0074457Y0379316D01*
X0074628Y0378458D01*
X0075114Y0377730D01*
X0075842Y0377244D01*
X0076700Y0377073D01*
X0077558Y0377244D01*
X0078286Y0377730D01*
X0078772Y0378458D01*
X0078943Y0379316D01*
X0078772Y0380175D01*
X0078286Y0380902D01*
X0077558Y0381389D01*
X0076700Y0381559D01*
D02*
G37*
G36*
X0091667Y0378206D02*
X0090886Y0378051D01*
X0090225Y0377609D01*
X0089783Y0376947D01*
X0089627Y0376167D01*
X0089783Y0375386D01*
X0090225Y0374725D01*
X0090147Y0374176D01*
X0089816Y0373680D01*
X0089661Y0372900D01*
X0089816Y0372120D01*
X0090258Y0371458D01*
X0090920Y0371016D01*
X0091700Y0370861D01*
X0092480Y0371016D01*
X0093142Y0371458D01*
X0093584Y0372120D01*
X0093739Y0372900D01*
X0093584Y0373680D01*
X0093142Y0374342D01*
X0093220Y0374891D01*
X0093551Y0375386D01*
X0093706Y0376167D01*
X0093551Y0376947D01*
X0093109Y0377609D01*
X0092447Y0378051D01*
X0091667Y0378206D01*
D02*
G37*
G36*
X0093969Y0333198D02*
X0093015Y0333072D01*
X0092126Y0332704D01*
X0091363Y0332119D01*
X0090778Y0331355D01*
X0090409Y0330467D01*
X0090284Y0329513D01*
X0090409Y0328559D01*
X0090778Y0327670D01*
X0091363Y0326907D01*
X0092126Y0326322D01*
X0093015Y0325953D01*
X0093969Y0325828D01*
X0094923Y0325953D01*
X0095811Y0326322D01*
X0096575Y0326907D01*
X0097160Y0327670D01*
X0097528Y0328559D01*
X0097654Y0329513D01*
X0097528Y0330467D01*
X0097160Y0331355D01*
X0096575Y0332119D01*
X0095811Y0332704D01*
X0094923Y0333072D01*
X0093969Y0333198D01*
D02*
G37*
G36*
X0099874Y0342295D02*
X0098960Y0342175D01*
X0098109Y0341822D01*
X0097378Y0341261D01*
X0096817Y0340530D01*
X0096464Y0339679D01*
X0096344Y0338765D01*
X0096464Y0337851D01*
X0096817Y0337000D01*
X0097378Y0336269D01*
X0098109Y0335708D01*
X0098960Y0335355D01*
X0099874Y0335235D01*
X0100788Y0335355D01*
X0101639Y0335708D01*
X0102370Y0336269D01*
X0102931Y0337000D01*
X0103284Y0337851D01*
X0103404Y0338765D01*
X0103284Y0339679D01*
X0102931Y0340530D01*
X0102370Y0341261D01*
X0101639Y0341822D01*
X0100788Y0342175D01*
X0099874Y0342295D01*
D02*
G37*
G36*
X0091198Y0415939D02*
X0090418Y0415784D01*
X0089757Y0415342D01*
X0089315Y0414680D01*
X0089159Y0413900D01*
X0089315Y0413120D01*
X0089757Y0412458D01*
X0089534Y0412006D01*
X0089316Y0411680D01*
X0089161Y0410900D01*
X0089316Y0410120D01*
X0089758Y0409458D01*
X0090420Y0409016D01*
X0091200Y0408861D01*
X0091980Y0409016D01*
X0092642Y0409458D01*
X0093084Y0410120D01*
X0093239Y0410900D01*
X0093084Y0411680D01*
X0092642Y0412342D01*
X0092865Y0412794D01*
X0093082Y0413120D01*
X0093238Y0413900D01*
X0093082Y0414680D01*
X0092640Y0415342D01*
X0091979Y0415784D01*
X0091198Y0415939D01*
D02*
G37*
G36*
X0114200Y0415143D02*
X0113342Y0414972D01*
X0112614Y0414486D01*
X0112128Y0413758D01*
X0111957Y0412900D01*
X0112128Y0412042D01*
X0112614Y0411314D01*
X0113342Y0410828D01*
X0114200Y0410657D01*
X0115058Y0410828D01*
X0115786Y0411314D01*
X0116272Y0412042D01*
X0116443Y0412900D01*
X0116272Y0413758D01*
X0115786Y0414486D01*
X0115058Y0414972D01*
X0114200Y0415143D01*
D02*
G37*
G36*
X0110698Y0393939D02*
X0109918Y0393784D01*
X0109257Y0393342D01*
X0108815Y0392680D01*
X0108659Y0391900D01*
X0108815Y0391120D01*
X0109257Y0390458D01*
X0109918Y0390016D01*
X0110698Y0389861D01*
X0111479Y0390016D01*
X0112141Y0390458D01*
X0112583Y0391120D01*
X0112738Y0391900D01*
X0112583Y0392680D01*
X0112141Y0393342D01*
X0111479Y0393784D01*
X0110698Y0393939D01*
D02*
G37*
G36*
X0091400Y0403643D02*
X0090542Y0403472D01*
X0089814Y0402986D01*
X0089328Y0402258D01*
X0089157Y0401400D01*
X0089328Y0400542D01*
X0089814Y0399814D01*
X0090542Y0399328D01*
X0091400Y0399157D01*
X0092258Y0399328D01*
X0092986Y0399814D01*
X0093472Y0400542D01*
X0093643Y0401400D01*
X0093472Y0402258D01*
X0092986Y0402986D01*
X0092258Y0403472D01*
X0091400Y0403643D01*
D02*
G37*
G36*
X0110698Y0400439D02*
X0109918Y0400284D01*
X0109257Y0399842D01*
X0108815Y0399180D01*
X0108659Y0398400D01*
X0108815Y0397620D01*
X0109257Y0396958D01*
X0109918Y0396516D01*
X0110698Y0396361D01*
X0111479Y0396516D01*
X0112141Y0396958D01*
X0112583Y0397620D01*
X0112738Y0398400D01*
X0112583Y0399180D01*
X0112141Y0399842D01*
X0111479Y0400284D01*
X0110698Y0400439D01*
D02*
G37*
G36*
X0124200Y0173643D02*
X0123342Y0173472D01*
X0122614Y0172986D01*
X0122128Y0172258D01*
X0121957Y0171400D01*
X0122128Y0170542D01*
X0122614Y0169814D01*
X0123342Y0169328D01*
X0124200Y0169157D01*
X0125058Y0169328D01*
X0125786Y0169814D01*
X0126272Y0170542D01*
X0126443Y0171400D01*
X0126272Y0172258D01*
X0125786Y0172986D01*
X0125058Y0173472D01*
X0124200Y0173643D01*
D02*
G37*
G36*
X0075734Y0173506D02*
X0074876Y0173336D01*
X0074148Y0172850D01*
X0073662Y0172122D01*
X0073491Y0171263D01*
X0073662Y0170405D01*
X0074148Y0169677D01*
X0074876Y0169191D01*
X0075734Y0169020D01*
X0076593Y0169191D01*
X0077320Y0169677D01*
X0077807Y0170405D01*
X0077977Y0171263D01*
X0077807Y0172122D01*
X0077320Y0172850D01*
X0076593Y0173336D01*
X0075734Y0173506D01*
D02*
G37*
G36*
X0093969Y0561938D02*
X0093015Y0561812D01*
X0092126Y0561444D01*
X0091363Y0560858D01*
X0090778Y0560095D01*
X0090409Y0559207D01*
X0090284Y0558253D01*
X0090409Y0557299D01*
X0090778Y0556410D01*
X0091363Y0555647D01*
X0092126Y0555061D01*
X0093015Y0554693D01*
X0093969Y0554568D01*
X0094923Y0554693D01*
X0095811Y0555061D01*
X0096575Y0555647D01*
X0097160Y0556410D01*
X0097528Y0557299D01*
X0097654Y0558253D01*
X0097528Y0559207D01*
X0097160Y0560095D01*
X0096575Y0560858D01*
X0095811Y0561444D01*
X0094923Y0561812D01*
X0093969Y0561938D01*
D02*
G37*
G36*
X0075734Y0208152D02*
X0074876Y0207981D01*
X0074148Y0207495D01*
X0073662Y0206767D01*
X0073491Y0205909D01*
X0073662Y0205051D01*
X0074148Y0204323D01*
X0074876Y0203837D01*
X0075734Y0203666D01*
X0076593Y0203837D01*
X0077320Y0204323D01*
X0077807Y0205051D01*
X0077977Y0205909D01*
X0077807Y0206767D01*
X0077320Y0207495D01*
X0076593Y0207981D01*
X0075734Y0208152D01*
D02*
G37*
G36*
X0147200Y0167486D02*
X0146142Y0167347D01*
X0145157Y0166939D01*
X0144311Y0166289D01*
X0143661Y0165443D01*
X0143253Y0164458D01*
X0143114Y0163400D01*
X0143253Y0162342D01*
X0143661Y0161357D01*
X0144311Y0160511D01*
X0145157Y0159861D01*
X0146142Y0159453D01*
X0147200Y0159314D01*
X0148258Y0159453D01*
X0149243Y0159861D01*
X0150089Y0160511D01*
X0150739Y0161357D01*
X0151147Y0162342D01*
X0151286Y0163400D01*
X0151147Y0164458D01*
X0150739Y0165443D01*
X0150089Y0166289D01*
X0149243Y0166939D01*
X0148258Y0167347D01*
X0147200Y0167486D01*
D02*
G37*
G36*
X0099874Y0168888D02*
X0098961Y0168768D01*
X0098109Y0168415D01*
X0097378Y0167854D01*
X0096817Y0167123D01*
X0096464Y0166271D01*
X0096344Y0165358D01*
X0096464Y0164444D01*
X0096817Y0163593D01*
X0097378Y0162862D01*
X0098109Y0162301D01*
X0098961Y0161948D01*
X0099874Y0161828D01*
X0100788Y0161948D01*
X0101639Y0162301D01*
X0102371Y0162862D01*
X0102932Y0163593D01*
X0103284Y0164444D01*
X0103404Y0165358D01*
X0103284Y0166271D01*
X0102932Y0167123D01*
X0102371Y0167854D01*
X0101639Y0168415D01*
X0100788Y0168768D01*
X0099874Y0168888D01*
D02*
G37*
G36*
X0093969Y0272038D02*
X0093055Y0271917D01*
X0092204Y0271565D01*
X0091473Y0271004D01*
X0090912Y0270272D01*
X0090559Y0269421D01*
X0090439Y0268507D01*
X0090559Y0267594D01*
X0090912Y0266742D01*
X0091473Y0266011D01*
X0092204Y0265450D01*
X0093055Y0265097D01*
X0093969Y0264977D01*
X0094883Y0265097D01*
X0095734Y0265450D01*
X0096465Y0266011D01*
X0097026Y0266742D01*
X0097379Y0267594D01*
X0097499Y0268507D01*
X0097379Y0269421D01*
X0097026Y0270272D01*
X0096465Y0271004D01*
X0095734Y0271565D01*
X0094883Y0271917D01*
X0093969Y0272038D01*
D02*
G37*
G36*
X0075734Y0242798D02*
X0074876Y0242627D01*
X0074148Y0242141D01*
X0073662Y0241413D01*
X0073491Y0240555D01*
X0073662Y0239696D01*
X0074148Y0238969D01*
X0074876Y0238482D01*
X0075734Y0238312D01*
X0076593Y0238482D01*
X0077320Y0238969D01*
X0077807Y0239696D01*
X0077977Y0240555D01*
X0077807Y0241413D01*
X0077320Y0242141D01*
X0076593Y0242627D01*
X0075734Y0242798D01*
D02*
G37*
G36*
X0093969Y0552531D02*
X0093055Y0552411D01*
X0092204Y0552059D01*
X0091473Y0551498D01*
X0090912Y0550766D01*
X0090559Y0549915D01*
X0090439Y0549001D01*
X0090559Y0548088D01*
X0090912Y0547236D01*
X0091473Y0546505D01*
X0092204Y0545944D01*
X0093055Y0545591D01*
X0093969Y0545471D01*
X0094883Y0545591D01*
X0095734Y0545944D01*
X0096465Y0546505D01*
X0097026Y0547236D01*
X0097379Y0548088D01*
X0097499Y0549001D01*
X0097379Y0549915D01*
X0097026Y0550766D01*
X0096465Y0551498D01*
X0095734Y0552059D01*
X0094883Y0552411D01*
X0093969Y0552531D01*
D02*
G37*
G36*
X0076400Y0501244D02*
X0075542Y0501074D01*
X0074814Y0500587D01*
X0074328Y0499860D01*
X0074157Y0499001D01*
X0074328Y0498143D01*
X0074814Y0497415D01*
X0075542Y0496929D01*
X0076400Y0496758D01*
X0077258Y0496929D01*
X0077986Y0497415D01*
X0078472Y0498143D01*
X0078643Y0499001D01*
X0078472Y0499860D01*
X0077986Y0500587D01*
X0077258Y0501074D01*
X0076400Y0501244D01*
D02*
G37*
G36*
X0112203Y0513843D02*
X0111345Y0513672D01*
X0110617Y0513186D01*
X0110131Y0512458D01*
X0109960Y0511600D01*
X0110131Y0510741D01*
X0110617Y0510014D01*
X0111345Y0509527D01*
X0112203Y0509357D01*
X0113062Y0509527D01*
X0113789Y0510014D01*
X0114276Y0510741D01*
X0114446Y0511600D01*
X0114276Y0512458D01*
X0113789Y0513186D01*
X0113062Y0513672D01*
X0112203Y0513843D01*
D02*
G37*
G36*
Y0488646D02*
X0111345Y0488475D01*
X0110617Y0487989D01*
X0110131Y0487261D01*
X0109960Y0486403D01*
X0110131Y0485544D01*
X0110617Y0484817D01*
X0111345Y0484331D01*
X0112203Y0484160D01*
X0113062Y0484331D01*
X0113789Y0484817D01*
X0114276Y0485544D01*
X0114446Y0486403D01*
X0114276Y0487261D01*
X0113789Y0487989D01*
X0113062Y0488475D01*
X0112203Y0488646D01*
D02*
G37*
G36*
X0076400Y0491796D02*
X0075542Y0491625D01*
X0074814Y0491139D01*
X0074328Y0490411D01*
X0074157Y0489552D01*
X0074328Y0488694D01*
X0074814Y0487966D01*
X0075542Y0487480D01*
X0076400Y0487309D01*
X0077258Y0487480D01*
X0077986Y0487966D01*
X0078472Y0488694D01*
X0078643Y0489552D01*
X0078472Y0490411D01*
X0077986Y0491139D01*
X0077258Y0491625D01*
X0076400Y0491796D01*
D02*
G37*
G36*
X0112203Y0532740D02*
X0111345Y0532570D01*
X0110617Y0532084D01*
X0110131Y0531356D01*
X0109960Y0530497D01*
X0110131Y0529639D01*
X0110617Y0528911D01*
X0111345Y0528425D01*
X0112203Y0528254D01*
X0113062Y0528425D01*
X0113789Y0528911D01*
X0114276Y0529639D01*
X0114446Y0530497D01*
X0114276Y0531356D01*
X0113789Y0532084D01*
X0113062Y0532570D01*
X0112203Y0532740D01*
D02*
G37*
G36*
X0076400Y0535890D02*
X0075542Y0535719D01*
X0074814Y0535233D01*
X0074328Y0534505D01*
X0074157Y0533647D01*
X0074328Y0532789D01*
X0074814Y0532061D01*
X0075542Y0531575D01*
X0076400Y0531404D01*
X0077258Y0531575D01*
X0077986Y0532061D01*
X0078472Y0532789D01*
X0078643Y0533647D01*
X0078472Y0534505D01*
X0077986Y0535233D01*
X0077258Y0535719D01*
X0076400Y0535890D01*
D02*
G37*
G36*
Y0516993D02*
X0075542Y0516822D01*
X0074814Y0516335D01*
X0074328Y0515608D01*
X0074157Y0514749D01*
X0074328Y0513891D01*
X0074814Y0513163D01*
X0075542Y0512677D01*
X0076400Y0512506D01*
X0077258Y0512677D01*
X0077986Y0513163D01*
X0078472Y0513891D01*
X0078643Y0514749D01*
X0078472Y0515608D01*
X0077986Y0516335D01*
X0077258Y0516822D01*
X0076400Y0516993D01*
D02*
G37*
G36*
Y0526441D02*
X0075542Y0526270D01*
X0074814Y0525784D01*
X0074328Y0525057D01*
X0074157Y0524198D01*
X0074328Y0523340D01*
X0074814Y0522612D01*
X0075542Y0522126D01*
X0076400Y0521955D01*
X0077258Y0522126D01*
X0077986Y0522612D01*
X0078472Y0523340D01*
X0078643Y0524198D01*
X0078472Y0525057D01*
X0077986Y0525784D01*
X0077258Y0526270D01*
X0076400Y0526441D01*
D02*
G37*
G36*
X0112203Y0523292D02*
X0111345Y0523121D01*
X0110617Y0522635D01*
X0110131Y0521907D01*
X0109960Y0521049D01*
X0110131Y0520190D01*
X0110617Y0519462D01*
X0111345Y0518976D01*
X0112203Y0518806D01*
X0113062Y0518976D01*
X0113789Y0519462D01*
X0114276Y0520190D01*
X0114446Y0521049D01*
X0114276Y0521907D01*
X0113789Y0522635D01*
X0113062Y0523121D01*
X0112203Y0523292D01*
D02*
G37*
G36*
X0091500Y0431943D02*
X0090642Y0431772D01*
X0089914Y0431286D01*
X0089428Y0430558D01*
X0089257Y0429700D01*
X0089428Y0428842D01*
X0089914Y0428114D01*
X0090642Y0427628D01*
X0091500Y0427457D01*
X0092358Y0427628D01*
X0093086Y0428114D01*
X0093572Y0428842D01*
X0093743Y0429700D01*
X0093572Y0430558D01*
X0093086Y0431286D01*
X0092358Y0431772D01*
X0091500Y0431943D01*
D02*
G37*
G36*
X0077244Y0466395D02*
X0076464Y0466240D01*
X0075802Y0465798D01*
X0075360Y0465136D01*
X0075205Y0464356D01*
X0075360Y0463575D01*
X0075802Y0462914D01*
X0076464Y0462472D01*
X0077244Y0462317D01*
X0078025Y0462472D01*
X0078686Y0462914D01*
X0079128Y0463575D01*
X0079283Y0464356D01*
X0079128Y0465136D01*
X0078686Y0465798D01*
X0078025Y0466240D01*
X0077244Y0466395D01*
D02*
G37*
G36*
X0114200Y0483643D02*
X0113342Y0483472D01*
X0112614Y0482986D01*
X0112128Y0482258D01*
X0111957Y0481400D01*
X0112128Y0480542D01*
X0112614Y0479814D01*
X0113342Y0479328D01*
X0114200Y0479157D01*
X0115058Y0479328D01*
X0115786Y0479814D01*
X0116272Y0480542D01*
X0116443Y0481400D01*
X0116272Y0482258D01*
X0115786Y0482986D01*
X0115058Y0483472D01*
X0114200Y0483643D01*
D02*
G37*
G36*
X0095095Y0476048D02*
X0094236Y0475877D01*
X0093508Y0475391D01*
X0093022Y0474663D01*
X0092852Y0473805D01*
X0093022Y0472946D01*
X0093508Y0472218D01*
X0094236Y0471732D01*
X0095095Y0471561D01*
X0095953Y0471732D01*
X0096681Y0472218D01*
X0097167Y0472946D01*
X0097338Y0473805D01*
X0097167Y0474663D01*
X0096681Y0475391D01*
X0095953Y0475877D01*
X0095095Y0476048D01*
D02*
G37*
G36*
X0115330Y0456109D02*
X0114549Y0455953D01*
X0113888Y0455511D01*
X0113446Y0454850D01*
X0113291Y0454069D01*
X0113446Y0453289D01*
X0113888Y0452627D01*
X0114549Y0452185D01*
X0115330Y0452030D01*
X0116110Y0452185D01*
X0116772Y0452627D01*
X0117214Y0453289D01*
X0117369Y0454069D01*
X0117214Y0454850D01*
X0116772Y0455511D01*
X0116110Y0455953D01*
X0115330Y0456109D01*
D02*
G37*
G36*
X0077356Y0460096D02*
X0076576Y0459940D01*
X0075915Y0459498D01*
X0075472Y0458837D01*
X0075317Y0458056D01*
X0075472Y0457276D01*
X0075915Y0456614D01*
X0076576Y0456173D01*
X0077356Y0456017D01*
X0078137Y0456173D01*
X0078798Y0456614D01*
X0079240Y0457276D01*
X0079396Y0458056D01*
X0079240Y0458837D01*
X0078798Y0459498D01*
X0078137Y0459940D01*
X0077356Y0460096D01*
D02*
G37*
G36*
X0465440Y0213696D02*
X0463001Y0213504D01*
X0460622Y0212933D01*
X0458362Y0211997D01*
X0456276Y0210718D01*
X0454415Y0209130D01*
X0452826Y0207269D01*
X0451548Y0205183D01*
X0450612Y0202923D01*
X0450041Y0200544D01*
X0449849Y0198105D01*
X0450041Y0195666D01*
X0450612Y0193287D01*
X0451548Y0191026D01*
X0452826Y0188940D01*
X0454415Y0187080D01*
X0456276Y0185491D01*
X0458362Y0184213D01*
X0460622Y0183276D01*
X0463001Y0182705D01*
X0465440Y0182513D01*
X0467879Y0182705D01*
X0470258Y0183276D01*
X0472518Y0184213D01*
X0474605Y0185491D01*
X0476465Y0187080D01*
X0478054Y0188940D01*
X0479332Y0191026D01*
X0480268Y0193287D01*
X0480840Y0195666D01*
X0481032Y0198105D01*
X0480840Y0200544D01*
X0480268Y0202923D01*
X0479332Y0205183D01*
X0478054Y0207269D01*
X0476465Y0209130D01*
X0474605Y0210718D01*
X0472518Y0211997D01*
X0470258Y0212933D01*
X0467879Y0213504D01*
X0465440Y0213696D01*
D02*
G37*
%LPD*%
G54D24*
X0559400Y0039400D02*
Y0059683D01*
X0440500Y0040050D02*
X0700200D01*
Y0101050D01*
X0286500Y0040050D02*
Y0101050D01*
X0040000Y0040050D02*
Y0101050D01*
X0040050Y0040050D02*
X0197600D01*
X0040050D02*
Y0101050D01*
Y0101050D02*
X0700200D01*
X0040000Y0040050D02*
X0440500D01*
X0040000Y0060383D02*
X0700000D01*
X0040000Y0080717D02*
X0700200D01*
X0413200D02*
Y0101050D01*
X0497200Y0080717D02*
Y0101050D01*
G54D31*
X0348550Y0072498D02*
X0349550Y0073498D01*
X0351549D01*
X0352549Y0072498D01*
Y0068500D01*
X0351549Y0067500D01*
X0349550D01*
X0348550Y0068500D01*
Y0072498D01*
X0354548Y0067500D02*
X0356547D01*
X0355548D01*
Y0073498D01*
X0354548Y0072498D01*
X0359546D02*
X0360546Y0073498D01*
X0362545D01*
X0363545Y0072498D01*
Y0071499D01*
X0362545Y0070499D01*
X0361546D01*
X0362545D01*
X0363545Y0069499D01*
Y0068500D01*
X0362545Y0067500D01*
X0360546D01*
X0359546Y0068500D01*
X0368544Y0067500D02*
Y0073498D01*
X0365545Y0070499D01*
X0369543D01*
X0371543Y0068500D02*
X0372542Y0067500D01*
X0374542D01*
X0375541Y0068500D01*
Y0072498D01*
X0374542Y0073498D01*
X0372542D01*
X0371543Y0072498D01*
Y0071499D01*
X0372542Y0070499D01*
X0375541D01*
X0294000Y0073498D02*
X0297999D01*
X0295999D01*
Y0067500D01*
X0299998Y0073498D02*
X0301997D01*
X0300998D01*
Y0067500D01*
X0299998D01*
X0301997D01*
X0304996Y0073498D02*
Y0067500D01*
X0307996D01*
X0308995Y0068500D01*
Y0072498D01*
X0307996Y0073498D01*
X0304996D01*
X0317992Y0067500D02*
Y0073498D01*
X0319992D02*
Y0067500D01*
X0316993Y0071499D02*
X0319992D01*
X0320991D01*
X0316993Y0069499D02*
X0320991D01*
X0322991Y0071499D02*
X0323990D01*
Y0070499D01*
X0322991D01*
Y0071499D01*
Y0068500D02*
X0323990D01*
Y0067500D01*
X0322991D01*
Y0068500D01*
X0580500Y0052965D02*
X0584499D01*
X0582499D01*
Y0046966D01*
X0590497Y0052965D02*
X0586498D01*
Y0046966D01*
X0590497D01*
X0586498Y0049966D02*
X0588497D01*
X0592496Y0052965D02*
X0596495Y0046966D01*
Y0052965D02*
X0592496Y0046966D01*
X0598494D02*
Y0050965D01*
X0600493Y0052965D01*
X0602493Y0050965D01*
Y0046966D01*
Y0049966D01*
X0598494D01*
X0608491Y0051965D02*
X0607491Y0052965D01*
X0605492D01*
X0604492Y0051965D01*
Y0050965D01*
X0605492Y0049966D01*
X0607491D01*
X0608491Y0048966D01*
Y0047966D01*
X0607491Y0046966D01*
X0605492D01*
X0604492Y0047966D01*
X0616488Y0052965D02*
X0618488D01*
X0617488D01*
Y0046966D01*
X0616488D01*
X0618488D01*
X0621487D02*
Y0052965D01*
X0625486Y0046966D01*
Y0052965D01*
X0631484Y0051965D02*
X0630484Y0052965D01*
X0628484D01*
X0627485Y0051965D01*
Y0050965D01*
X0628484Y0049966D01*
X0630484D01*
X0631484Y0048966D01*
Y0047966D01*
X0630484Y0046966D01*
X0628484D01*
X0627485Y0047966D01*
X0633483Y0052965D02*
X0637482D01*
X0635482D01*
Y0046966D01*
X0639481D02*
Y0052965D01*
X0642480D01*
X0643480Y0051965D01*
Y0049966D01*
X0642480Y0048966D01*
X0639481D01*
X0641480D02*
X0643480Y0046966D01*
X0645479Y0052965D02*
Y0047966D01*
X0646479Y0046966D01*
X0648478D01*
X0649478Y0047966D01*
Y0052965D01*
X0651477Y0046966D02*
Y0052965D01*
X0653476Y0050965D01*
X0655476Y0052965D01*
Y0046966D01*
X0661474Y0052965D02*
X0657475D01*
Y0046966D01*
X0661474D01*
X0657475Y0049966D02*
X0659474D01*
X0663473Y0046966D02*
Y0052965D01*
X0667472Y0046966D01*
Y0052965D01*
X0669471D02*
X0673470D01*
X0671471D01*
Y0046966D01*
X0679468Y0051965D02*
X0678468Y0052965D01*
X0676469D01*
X0675469Y0051965D01*
Y0050965D01*
X0676469Y0049966D01*
X0678468D01*
X0679468Y0048966D01*
Y0047966D01*
X0678468Y0046966D01*
X0676469D01*
X0675469Y0047966D01*
X0454050Y0046966D02*
X0456049D01*
X0455050D01*
Y0052965D01*
X0454050Y0051965D01*
X0463047Y0046966D02*
X0459048D01*
X0463047Y0050965D01*
Y0051965D01*
X0462047Y0052965D01*
X0460048D01*
X0459048Y0051965D01*
X0465046Y0050965D02*
X0466046D01*
Y0049966D01*
X0465046D01*
Y0050965D01*
Y0047966D02*
X0466046D01*
Y0046966D01*
X0465046D01*
Y0047966D01*
X0470045Y0046966D02*
X0472044D01*
X0471044D01*
Y0052965D01*
X0470045Y0051965D01*
X0478042Y0046966D02*
Y0052965D01*
X0475043Y0049966D01*
X0479042D01*
X0481041Y0050965D02*
X0482041D01*
Y0049966D01*
X0481041D01*
Y0050965D01*
Y0047966D02*
X0482041D01*
Y0046966D01*
X0481041D01*
Y0047966D01*
X0490038Y0052965D02*
X0486040D01*
Y0049966D01*
X0488039Y0050965D01*
X0489039D01*
X0490038Y0049966D01*
Y0047966D01*
X0489039Y0046966D01*
X0487039D01*
X0486040Y0047966D01*
X0492038Y0051965D02*
X0493037Y0052965D01*
X0495037D01*
X0496036Y0051965D01*
Y0050965D01*
X0495037Y0049966D01*
X0494037D01*
X0495037D01*
X0496036Y0048966D01*
Y0047966D01*
X0495037Y0046966D01*
X0493037D01*
X0492038Y0047966D01*
X0504034Y0046966D02*
Y0052965D01*
X0507033D01*
X0508033Y0051965D01*
Y0049966D01*
X0507033Y0048966D01*
X0504034D01*
X0510032Y0046966D02*
Y0052965D01*
X0512031Y0050965D01*
X0514031Y0052965D01*
Y0046966D01*
X0046350D02*
Y0052965D01*
X0049349D01*
X0050349Y0051965D01*
Y0049966D01*
X0049349Y0048966D01*
X0046350D01*
X0052348Y0052965D02*
Y0046966D01*
X0056347D01*
X0061345Y0052965D02*
X0059346D01*
X0058346Y0051965D01*
Y0047966D01*
X0059346Y0046966D01*
X0061345D01*
X0062345Y0047966D01*
Y0051965D01*
X0061345Y0052965D01*
X0064344D02*
X0068343D01*
X0066343D01*
Y0046966D01*
X0076340D02*
Y0052965D01*
X0080339Y0046966D01*
Y0052965D01*
X0082338Y0046966D02*
Y0050965D01*
X0084338Y0052965D01*
X0086337Y0050965D01*
Y0046966D01*
Y0049966D01*
X0082338D01*
X0088336Y0046966D02*
Y0052965D01*
X0090336Y0050965D01*
X0092335Y0052965D01*
Y0046966D01*
X0098333Y0052965D02*
X0094335D01*
Y0046966D01*
X0098333D01*
X0094335Y0049966D02*
X0096334D01*
X0106331Y0048966D02*
X0110329D01*
X0106331Y0050965D02*
X0110329D01*
X0046350Y0073549D02*
Y0067551D01*
X0050349D01*
X0052348D02*
Y0071549D01*
X0054347Y0073549D01*
X0056347Y0071549D01*
Y0067551D01*
Y0070550D01*
X0052348D01*
X0058346Y0073549D02*
Y0072549D01*
X0060346Y0070550D01*
X0062345Y0072549D01*
Y0073549D01*
X0060346Y0070550D02*
Y0067551D01*
X0068343Y0073549D02*
X0064344D01*
Y0067551D01*
X0068343D01*
X0064344Y0070550D02*
X0066343D01*
X0070342Y0067551D02*
Y0073549D01*
X0073341D01*
X0074341Y0072549D01*
Y0070550D01*
X0073341Y0069550D01*
X0070342D01*
X0072342D02*
X0074341Y0067551D01*
X0082338D02*
Y0073549D01*
X0086337Y0067551D01*
Y0073549D01*
X0088336Y0067551D02*
Y0071549D01*
X0090336Y0073549D01*
X0092335Y0071549D01*
Y0067551D01*
Y0070550D01*
X0088336D01*
X0094335Y0067551D02*
Y0073549D01*
X0096334Y0071549D01*
X0098333Y0073549D01*
Y0067551D01*
X0104331Y0073549D02*
X0100332D01*
Y0067551D01*
X0104331D01*
X0100332Y0070550D02*
X0102332D01*
X0112329Y0069550D02*
X0116327D01*
X0112329Y0071549D02*
X0116327D01*
X0294000Y0093831D02*
Y0087833D01*
X0296999D01*
X0297999Y0088833D01*
Y0089833D01*
X0296999Y0090832D01*
X0294000D01*
X0296999D01*
X0297999Y0091832D01*
Y0092832D01*
X0296999Y0093831D01*
X0294000D01*
X0302997D02*
X0300998D01*
X0299998Y0092832D01*
Y0088833D01*
X0300998Y0087833D01*
X0302997D01*
X0303997Y0088833D01*
Y0092832D01*
X0302997Y0093831D01*
X0305996Y0087833D02*
Y0091832D01*
X0307996Y0093831D01*
X0309995Y0091832D01*
Y0087833D01*
Y0090832D01*
X0305996D01*
X0311994Y0087833D02*
Y0093831D01*
X0314993D01*
X0315993Y0092832D01*
Y0090832D01*
X0314993Y0089833D01*
X0311994D01*
X0313994D02*
X0315993Y0087833D01*
X0317992Y0093831D02*
Y0087833D01*
X0320991D01*
X0321991Y0088833D01*
Y0092832D01*
X0320991Y0093831D01*
X0317992D01*
X0330988Y0087833D02*
Y0093831D01*
X0332987D02*
Y0087833D01*
X0329988Y0091832D02*
X0332987D01*
X0333987D01*
X0329988Y0089833D02*
X0333987D01*
X0335986Y0091832D02*
X0336986D01*
Y0090832D01*
X0335986D01*
Y0091832D01*
Y0088833D02*
X0336986D01*
Y0087833D01*
X0335986D01*
Y0088833D01*
X0348550Y0093831D02*
X0352549D01*
X0350549D01*
Y0087833D01*
X0354548Y0093831D02*
X0356547D01*
X0355548D01*
Y0087833D01*
X0354548D01*
X0356547D01*
X0359546Y0093831D02*
Y0087833D01*
X0362545D01*
X0363545Y0088833D01*
Y0092832D01*
X0362545Y0093831D01*
X0359546D01*
X0365545Y0087833D02*
Y0091832D01*
X0367544Y0093831D01*
X0369543Y0091832D01*
Y0087833D01*
Y0090832D01*
X0365545D01*
X0371543D02*
X0375541D01*
X0377541Y0092832D02*
X0378540Y0093831D01*
X0380540D01*
X0381539Y0092832D01*
Y0088833D01*
X0380540Y0087833D01*
X0378540D01*
X0377541Y0088833D01*
Y0092832D01*
X0383539Y0087833D02*
X0385538D01*
X0384538D01*
Y0093831D01*
X0383539Y0092832D01*
X0388537D02*
X0389537Y0093831D01*
X0391536D01*
X0392536Y0092832D01*
Y0091832D01*
X0391536Y0090832D01*
X0390536D01*
X0391536D01*
X0392536Y0089833D01*
Y0088833D01*
X0391536Y0087833D01*
X0389537D01*
X0388537Y0088833D01*
X0397534Y0087833D02*
Y0093831D01*
X0394535Y0090832D01*
X0398534D01*
X0400533Y0088833D02*
X0401533Y0087833D01*
X0403532D01*
X0404532Y0088833D01*
Y0092832D01*
X0403532Y0093831D01*
X0401533D01*
X0400533Y0092832D01*
Y0091832D01*
X0401533Y0090832D01*
X0404532D01*
X0466149Y0093831D02*
X0462150D01*
Y0087833D01*
X0466149D01*
X0462150Y0090832D02*
X0464149D01*
X0468148Y0087833D02*
X0470147D01*
X0469148D01*
Y0093831D01*
X0468148Y0092832D01*
X0046350Y0087833D02*
Y0091832D01*
X0048349Y0093831D01*
X0050349Y0091832D01*
Y0087833D01*
Y0090832D01*
X0046350D01*
X0052348Y0093831D02*
Y0087833D01*
X0056347D01*
X0058346Y0093831D02*
Y0087833D01*
X0062345D01*
X0070342D02*
Y0091832D01*
X0072342Y0093831D01*
X0074341Y0091832D01*
Y0087833D01*
Y0090832D01*
X0070342D01*
X0076340Y0087833D02*
Y0093831D01*
X0079339D01*
X0080339Y0092832D01*
Y0090832D01*
X0079339Y0089833D01*
X0076340D01*
X0078340D02*
X0080339Y0087833D01*
X0082338Y0093831D02*
X0086337D01*
X0084338D01*
Y0087833D01*
X0088336Y0093831D02*
Y0087833D01*
X0090336Y0089833D01*
X0092335Y0087833D01*
Y0093831D01*
X0097334D02*
X0095334D01*
X0094335Y0092832D01*
Y0088833D01*
X0095334Y0087833D01*
X0097334D01*
X0098333Y0088833D01*
Y0092832D01*
X0097334Y0093831D01*
X0100332Y0087833D02*
Y0093831D01*
X0103332D01*
X0104331Y0092832D01*
Y0090832D01*
X0103332Y0089833D01*
X0100332D01*
X0102332D02*
X0104331Y0087833D01*
X0106331Y0093831D02*
Y0087833D01*
Y0089833D01*
X0110329Y0093831D01*
X0107330Y0090832D01*
X0110329Y0087833D01*
X0118327Y0093831D02*
Y0089833D01*
X0120326Y0087833D01*
X0122325Y0089833D01*
Y0093831D01*
X0124325D02*
X0126324D01*
X0125324D01*
Y0087833D01*
X0124325D01*
X0126324D01*
X0133322Y0093831D02*
X0129323D01*
Y0087833D01*
X0133322D01*
X0129323Y0090832D02*
X0131323D01*
X0135321Y0093831D02*
Y0087833D01*
X0137321Y0089833D01*
X0139320Y0087833D01*
Y0093831D01*
X0145318D02*
X0141319D01*
Y0087833D01*
X0145318D01*
X0141319Y0090832D02*
X0143319D01*
X0147317Y0093831D02*
Y0087833D01*
X0150316D01*
X0151316Y0088833D01*
Y0092832D01*
X0150316Y0093831D01*
X0147317D01*
X0163312D02*
X0159313D01*
Y0090832D01*
X0161313D01*
X0159313D01*
Y0087833D01*
X0165312D02*
Y0093831D01*
X0168310D01*
X0169310Y0092832D01*
Y0090832D01*
X0168310Y0089833D01*
X0165312D01*
X0167311D02*
X0169310Y0087833D01*
X0174309Y0093831D02*
X0172309D01*
X0171310Y0092832D01*
Y0088833D01*
X0172309Y0087833D01*
X0174309D01*
X0175308Y0088833D01*
Y0092832D01*
X0174309Y0093831D01*
X0177308Y0087833D02*
Y0093831D01*
X0179307Y0091832D01*
X0181306Y0093831D01*
Y0087833D01*
X0189304Y0093831D02*
X0193303D01*
X0191303D01*
Y0087833D01*
X0198301Y0093831D02*
X0196301D01*
X0195302Y0092832D01*
Y0088833D01*
X0196301Y0087833D01*
X0198301D01*
X0199301Y0088833D01*
Y0092832D01*
X0198301Y0093831D01*
X0201300Y0087833D02*
Y0093831D01*
X0204299D01*
X0205299Y0092832D01*
Y0090832D01*
X0204299Y0089833D01*
X0201300D01*
X0217295Y0092832D02*
X0216295Y0093831D01*
X0214296D01*
X0213296Y0092832D01*
Y0091832D01*
X0214296Y0090832D01*
X0216295D01*
X0217295Y0089833D01*
Y0088833D01*
X0216295Y0087833D01*
X0214296D01*
X0213296Y0088833D01*
X0219294Y0093831D02*
X0221293D01*
X0220294D01*
Y0087833D01*
X0219294D01*
X0221293D01*
X0224292Y0093831D02*
Y0087833D01*
X0227291D01*
X0228291Y0088833D01*
Y0092832D01*
X0227291Y0093831D01*
X0224292D01*
X0234289D02*
X0230291D01*
Y0087833D01*
X0234289D01*
X0230291Y0090832D02*
X0232290D01*
X0298199Y0051965D02*
X0297199Y0052965D01*
X0295200D01*
X0294200Y0051965D01*
Y0047966D01*
X0295200Y0046966D01*
X0297199D01*
X0298199Y0047966D01*
Y0049966D01*
X0296199D01*
X0304197Y0052965D02*
X0300198D01*
Y0046966D01*
X0304197D01*
X0300198Y0049966D02*
X0302197D01*
X0306196Y0046966D02*
Y0052965D01*
X0310195Y0046966D01*
Y0052965D01*
X0316193D02*
X0312194D01*
Y0046966D01*
X0316193D01*
X0312194Y0049966D02*
X0314194D01*
X0318192Y0046966D02*
Y0052965D01*
X0321191D01*
X0322191Y0051965D01*
Y0049966D01*
X0321191Y0048966D01*
X0318192D01*
X0320192D02*
X0322191Y0046966D01*
X0324190D02*
Y0050965D01*
X0326190Y0052965D01*
X0328189Y0050965D01*
Y0046966D01*
Y0049966D01*
X0324190D01*
X0330188Y0052965D02*
X0334187D01*
X0332188D01*
Y0046966D01*
X0340185Y0052965D02*
X0336186D01*
Y0046966D01*
X0340185D01*
X0336186Y0049966D02*
X0338186D01*
X0342184Y0052965D02*
Y0046966D01*
X0345183D01*
X0346183Y0047966D01*
Y0051965D01*
X0345183Y0052965D01*
X0342184D01*
X0372175Y0050965D02*
X0373175D01*
Y0049966D01*
X0372175D01*
Y0050965D01*
Y0047966D02*
X0373175D01*
Y0046966D01*
X0372175D01*
Y0047966D01*
X0381150Y0046966D02*
X0383149D01*
X0382150D01*
Y0052965D01*
X0381150Y0051965D01*
X0390147Y0046966D02*
X0386148D01*
X0390147Y0050965D01*
Y0051965D01*
X0389147Y0052965D01*
X0387148D01*
X0386148Y0051965D01*
X0392146Y0046966D02*
X0396145Y0050965D01*
X0398145Y0046966D02*
X0400144D01*
X0399144D01*
Y0052965D01*
X0398145Y0051965D01*
X0403143Y0047966D02*
X0404143Y0046966D01*
X0406142D01*
X0407142Y0047966D01*
Y0051965D01*
X0406142Y0052965D01*
X0404143D01*
X0403143Y0051965D01*
Y0050965D01*
X0404143Y0049966D01*
X0407142D01*
X0409141Y0046966D02*
X0413140Y0050965D01*
X0419138Y0046966D02*
X0415139D01*
X0419138Y0050965D01*
Y0051965D01*
X0418138Y0052965D01*
X0416139D01*
X0415139Y0051965D01*
X0421137D02*
X0422137Y0052965D01*
X0424136D01*
X0425136Y0051965D01*
Y0047966D01*
X0424136Y0046966D01*
X0422137D01*
X0421137Y0047966D01*
Y0051965D01*
X0427135Y0046966D02*
X0429135D01*
X0428135D01*
Y0052965D01*
X0427135Y0051965D01*
X0432133Y0052965D02*
X0436132D01*
Y0051965D01*
X0432133Y0047966D01*
Y0046966D01*
X0126900Y0052965D02*
X0130899D01*
X0128899D01*
Y0046966D01*
X0132898Y0052965D02*
X0134897D01*
X0133898D01*
Y0046966D01*
X0132898D01*
X0134897D01*
X0137896Y0052965D02*
Y0046966D01*
X0140895D01*
X0141895Y0047966D01*
Y0051965D01*
X0140895Y0052965D01*
X0137896D01*
X0143895Y0046966D02*
Y0050965D01*
X0145894Y0052965D01*
X0147893Y0050965D01*
Y0046966D01*
Y0049966D01*
X0143895D01*
X0149893D02*
X0153891D01*
X0155891Y0051965D02*
X0156890Y0052965D01*
X0158890D01*
X0159889Y0051965D01*
Y0047966D01*
X0158890Y0046966D01*
X0156890D01*
X0155891Y0047966D01*
Y0051965D01*
X0161889Y0046966D02*
X0163888D01*
X0162888D01*
Y0052965D01*
X0161889Y0051965D01*
X0166887D02*
X0167887Y0052965D01*
X0169886D01*
X0170886Y0051965D01*
Y0050965D01*
X0169886Y0049966D01*
X0168886D01*
X0169886D01*
X0170886Y0048966D01*
Y0047966D01*
X0169886Y0046966D01*
X0167887D01*
X0166887Y0047966D01*
X0175884Y0046966D02*
Y0052965D01*
X0172885Y0049966D01*
X0176884D01*
X0178883Y0047966D02*
X0179883Y0046966D01*
X0181882D01*
X0182882Y0047966D01*
Y0051965D01*
X0181882Y0052965D01*
X0179883D01*
X0178883Y0051965D01*
Y0050965D01*
X0179883Y0049966D01*
X0182882D01*
X0188880Y0052965D02*
X0184881D01*
Y0046966D01*
X0188880D01*
X0184881Y0049966D02*
X0186881D01*
X0190879Y0046966D02*
X0192879D01*
X0191879D01*
Y0052965D01*
X0190879Y0051965D01*
X0195878Y0046966D02*
Y0047966D01*
X0196877D01*
Y0046966D01*
X0195878D01*
X0204875Y0051965D02*
X0203875Y0052965D01*
X0201876D01*
X0200876Y0051965D01*
Y0047966D01*
X0201876Y0046966D01*
X0203875D01*
X0204875Y0047966D01*
Y0049966D01*
X0202875D01*
X0210873Y0046966D02*
X0206874D01*
X0210873Y0050965D01*
Y0051965D01*
X0209873Y0052965D01*
X0207874D01*
X0206874Y0051965D01*
X0433000Y0087833D02*
Y0093831D01*
X0435999D01*
X0436999Y0092832D01*
Y0090832D01*
X0435999Y0089833D01*
X0433000D01*
X0434999D02*
X0436999Y0087833D01*
X0442997Y0093831D02*
X0438998D01*
Y0087833D01*
X0442997D01*
X0438998Y0090832D02*
X0440997D01*
X0444996Y0093831D02*
Y0089833D01*
X0446995Y0087833D01*
X0448995Y0089833D01*
Y0093831D01*
X0450994Y0091832D02*
X0451994D01*
Y0090832D01*
X0450994D01*
Y0091832D01*
Y0088833D02*
X0451994D01*
Y0087833D01*
X0450994D01*
Y0088833D01*
X0520799Y0092832D02*
X0519799Y0093831D01*
X0517800D01*
X0516800Y0092832D01*
Y0091832D01*
X0517800Y0090832D01*
X0519799D01*
X0520799Y0089833D01*
Y0088833D01*
X0519799Y0087833D01*
X0517800D01*
X0516800Y0088833D01*
X0522798Y0093831D02*
Y0089833D01*
X0524797Y0087833D01*
X0526797Y0089833D01*
Y0093831D01*
X0528796Y0087833D02*
Y0093831D01*
X0532795Y0087833D01*
Y0093831D01*
X0540792Y0087833D02*
Y0093831D01*
X0543791D01*
X0544791Y0092832D01*
Y0090832D01*
X0543791Y0089833D01*
X0540792D01*
X0542792D02*
X0544791Y0087833D01*
X0550789Y0093831D02*
X0546790D01*
Y0087833D01*
X0550789D01*
X0546790Y0090832D02*
X0548790D01*
X0552788Y0093831D02*
Y0089833D01*
X0554788Y0087833D01*
X0556787Y0089833D01*
Y0093831D01*
X0558786Y0091832D02*
X0559786D01*
Y0090832D01*
X0558786D01*
Y0091832D01*
Y0088833D02*
X0559786D01*
Y0087833D01*
X0558786D01*
Y0088833D01*
X0567400Y0087833D02*
Y0093831D01*
X0571399Y0087833D01*
Y0093831D01*
X0574398Y0087833D02*
X0576397D01*
X0577397Y0088833D01*
Y0090832D01*
X0576397Y0091832D01*
X0574398D01*
X0573398Y0090832D01*
Y0088833D01*
X0574398Y0087833D01*
X0580396Y0092832D02*
Y0091832D01*
X0579396D01*
X0581395D01*
X0580396D01*
Y0088833D01*
X0581395Y0087833D01*
X0590393Y0093831D02*
X0592392D01*
X0591392D01*
Y0087833D01*
X0590393D01*
X0592392D01*
X0595391D02*
Y0091832D01*
X0598390D01*
X0599390Y0090832D01*
Y0087833D01*
X0607387Y0093831D02*
Y0089833D01*
X0609386Y0087833D01*
X0611386Y0089833D01*
Y0093831D01*
X0616384Y0087833D02*
X0614385D01*
X0613385Y0088833D01*
Y0090832D01*
X0614385Y0091832D01*
X0616384D01*
X0617384Y0090832D01*
Y0089833D01*
X0613385D01*
X0619383Y0091832D02*
Y0087833D01*
Y0089833D01*
X0620383Y0090832D01*
X0621383Y0091832D01*
X0622382D01*
X0625381Y0087833D02*
X0628380D01*
X0629380Y0088833D01*
X0628380Y0089833D01*
X0626381D01*
X0625381Y0090832D01*
X0626381Y0091832D01*
X0629380D01*
X0631379Y0087833D02*
X0633379D01*
X0632379D01*
Y0091832D01*
X0631379D01*
X0637377Y0087833D02*
X0639377D01*
X0640376Y0088833D01*
Y0090832D01*
X0639377Y0091832D01*
X0637377D01*
X0636378Y0090832D01*
Y0088833D01*
X0637377Y0087833D01*
X0642376D02*
Y0091832D01*
X0645375D01*
X0646374Y0090832D01*
Y0087833D01*
X0652373Y0092832D02*
X0651373Y0093831D01*
X0649373D01*
X0648374Y0092832D01*
Y0088833D01*
X0649373Y0087833D01*
X0651373D01*
X0652373Y0088833D01*
X0655372Y0087833D02*
X0657371D01*
X0658371Y0088833D01*
Y0090832D01*
X0657371Y0091832D01*
X0655372D01*
X0654372Y0090832D01*
Y0088833D01*
X0655372Y0087833D01*
X0660370D02*
Y0091832D01*
X0663369D01*
X0664369Y0090832D01*
Y0087833D01*
X0667368Y0092832D02*
Y0091832D01*
X0666368D01*
X0668367D01*
X0667368D01*
Y0088833D01*
X0668367Y0087833D01*
X0671366Y0091832D02*
Y0087833D01*
Y0089833D01*
X0672366Y0090832D01*
X0673366Y0091832D01*
X0674365D01*
X0678364Y0087833D02*
X0680364D01*
X0681363Y0088833D01*
Y0090832D01*
X0680364Y0091832D01*
X0678364D01*
X0677364Y0090832D01*
Y0088833D01*
X0678364Y0087833D01*
X0683362D02*
X0685362D01*
X0684362D01*
Y0093831D01*
X0683362D01*
G54D32*
X0427960Y0198105D02*
D03*
G54D33*
X0458700Y0403266D02*
D03*
G54D35*
X0280440Y0280900D02*
D03*
Y0340900D02*
D03*
G54D36*
X0422960Y0313656D02*
D03*
G54D38*
X0197200Y0163400D02*
D03*
X0137200D02*
D03*
G54D40*
X0129200Y0405900D02*
D03*
G54D45*
X0207350Y0260050D02*
D03*
X0203200Y0264493D02*
D03*
X0199050Y0260050D02*
D03*
X0133700Y0186400D02*
D03*
Y0190900D02*
D03*
Y0194900D02*
D03*
X0198350Y0528050D02*
D03*
X0203050Y0536050D02*
D03*
X0224200Y0529400D02*
D03*
X0198050Y0495050D02*
D03*
X0142550Y0495750D02*
D03*
X0208700Y0462693D02*
D03*
X0149300Y0470300D02*
D03*
X0112600Y0383600D02*
D03*
X0112830Y0353069D02*
D03*
X0262511Y0404250D02*
D03*
X0118149Y0470750D02*
D03*
X0113050Y0166790D02*
D03*
Y0201290D02*
D03*
X0118621Y0402278D02*
D03*
X0142480Y0290179D02*
D03*
X0142350Y0536050D02*
D03*
X0142350Y0350050D02*
D03*
X0243200Y0483900D02*
D03*
Y0479900D02*
D03*
X0138000Y0231699D02*
D03*
X0142350Y0227350D02*
D03*
X0133650D02*
D03*
G54D48*
X0141700Y0067700D02*
Y0074981D01*
X0145341D01*
X0146554Y0073768D01*
Y0071341D01*
X0145341Y0070127D01*
X0141700D01*
X0150195Y0067700D02*
X0152622D01*
X0153835Y0068914D01*
Y0071341D01*
X0152622Y0072554D01*
X0150195D01*
X0148981Y0071341D01*
Y0068914D01*
X0150195Y0067700D01*
X0156262Y0072554D02*
Y0068914D01*
X0157476Y0067700D01*
X0158689Y0068914D01*
X0159903Y0067700D01*
X0161116Y0068914D01*
Y0072554D01*
X0167184Y0067700D02*
X0164757D01*
X0163543Y0068914D01*
Y0071341D01*
X0164757Y0072554D01*
X0167184D01*
X0168397Y0071341D01*
Y0070127D01*
X0163543D01*
X0170824Y0072554D02*
Y0067700D01*
Y0070127D01*
X0172038Y0071341D01*
X0173251Y0072554D01*
X0174465D01*
M02*
