M48
;Layer_Color=9474304
;FILE_FORMAT=2:5
INCH
;TYPE=PLATED
T1F00S00C0.00787
T2F00S00C0.01000
T3F00S00C0.01200
T4F00S00C0.03307
T5F00S00C0.04000
T6F00S00C0.04134
T7F00S00C0.04528
T8F00S00C0.05118
T9F00S00C0.05315
T10F00S00C0.09449
;TYPE=NON_PLATED
T11F00S00C0.05000
T12F00S00C0.31496
%
T01
X0196287Y0200683
Y0206117
X0199200Y0203400
X0202113Y0200683
Y0206117
T02
X0201050Y0224650
X0141600Y0381200
X0134300Y0380900
X0110698Y0391900
Y0398400
X0091200Y0410900
X0091198Y0413900
X0091667Y0376167
X0091700Y0372900
X0112346Y0367754
X0112300Y0363300
X0115330Y0454069
X0077356Y0458056
X0077244Y0464356
X0220550Y0498750
X0224200Y0513900
X0131800Y0512800
Y0506600
X0131700Y0546900
X0122700Y0555900
T03
X0194751Y0224451
X0194500Y0251400
X0196800Y0254200
X0192123Y0254237
X0194500Y0256800
X0199050Y0260050
X0207350
X0203200Y0264493
X0204500Y0294100
X0262000Y0280900
Y0272400
X0142480Y0290179
X0132100Y0294300
X0138000Y0231699
X0142350Y0227350
X0133650
X0124200Y0205900
X0113050Y0201290
X0133700Y0194900
Y0190900
Y0186400
X0124200Y0171400
X0113050Y0166790
X0075734Y0171263
Y0205909
Y0240555
X0152200Y0213900
Y0209900
Y0205900
X0144700Y0312900
X0142350Y0350050
X0131200Y0354900
X0127400Y0357500
X0112830Y0353069
X0112600Y0383600
X0127100Y0379400
X0145200Y0372900
X0150200Y0416900
X0114200Y0412900
X0118621Y0402278
X0091400Y0401400
X0091500Y0429700
X0076700Y0379316
X0076530Y0357269
X0203900Y0354000
Y0373800
X0199200Y0416900
X0202200Y0462400
X0208700Y0462693
X0262830Y0413569
Y0410069
X0262511Y0404250
X0261700Y0389400
X0261200Y0340900
Y0334900
X0204500Y0313900
X0198050Y0488750
Y0495050
X0203700Y0494900
X0194157Y0519857
X0198350Y0528050
X0203050Y0536050
X0214200Y0540000
X0217924Y0529124
X0224200Y0529400
X0261700Y0520900
X0260700Y0542400
Y0549900
X0261200Y0569900
X0194157Y0560357
X0245200Y0496400
X0245330Y0491569
X0243200Y0483900
Y0479900
X0155500Y0470200
X0149300Y0470300
X0118149Y0470750
X0114200Y0481400
X0112203Y0486403
Y0511600
Y0521049
Y0530497
X0131700Y0540400
X0142350Y0536050
X0146200Y0516400
X0142550Y0495750
X0136250
X0076400Y0499001
Y0489552
Y0514749
Y0524198
Y0533647
X0095095Y0473805
X0145200Y0558400
T04
X0093969Y0329513
Y0558253
T05
X0197200Y0163400
X0207200
X0147200
X0137200
X0139200Y0405900
X0129200
Y0415900
X0139200
Y0425900
X0129200
Y0435900
X0139200
Y0445900
X0129200
Y0455900
X0139200
Y0465900
X0129200
T06
X0458700Y0403266
Y0511534
T07
X0122498Y0238400
X0132498Y0238400
Y0248400
X0122498
Y0258400
X0132498
X0132498Y0268400
X0122498
Y0278400
X0132498Y0278400
T08
X0331960Y0198105
X0369440
X0427960
X0465440
X0294479
X0256999
T09
X0280440Y0270900
Y0280900
Y0300900
Y0310900
Y0330900
Y0340900
Y0360900
Y0370900
Y0390900
Y0400900
Y0410900
Y0430900
Y0440900
Y0460900
Y0480900
Y0490900
Y0500900
Y0510900
Y0520900
Y0530900
Y0540900
Y0550900
Y0560900
T10
X0422960Y0313656
Y0353026
Y0392396
Y0431766
Y0471136
Y0510506
Y0549876
T11
X0099874Y0165358
X0093969Y0268507
X0099874Y0338765
X0093969Y0549001
T12
X0362330Y0274286
Y0549876
M30
