G04 Layer_Color=9218505*
%FSAX25Y25*%
%MOIN*%
G70*
G01*
G75*
%ADD14C,0.00800*%
%ADD16C,0.01000*%
%ADD24C,0.00700*%
%ADD25C,0.00600*%
G36*
X0151087Y0221780D02*
X0151222Y0221767D01*
X0151350Y0221747D01*
X0151471Y0221720D01*
X0151586Y0221686D01*
X0151687Y0221645D01*
X0151788Y0221605D01*
X0151869Y0221565D01*
X0151943Y0221524D01*
X0152011Y0221484D01*
X0152071Y0221443D01*
X0152118Y0221410D01*
X0152152Y0221383D01*
X0152179Y0221362D01*
X0152193Y0221349D01*
X0152199Y0221342D01*
X0152280Y0221255D01*
X0152348Y0221167D01*
X0152415Y0221073D01*
X0152462Y0220978D01*
X0152509Y0220884D01*
X0152543Y0220790D01*
X0152604Y0220607D01*
X0152617Y0220520D01*
X0152631Y0220446D01*
X0152644Y0220378D01*
X0152651Y0220318D01*
X0152658Y0220270D01*
Y0220237D01*
Y0220210D01*
Y0220203D01*
X0152651Y0220089D01*
X0152644Y0219981D01*
X0152597Y0219772D01*
X0152536Y0219590D01*
X0152503Y0219509D01*
X0152469Y0219435D01*
X0152435Y0219367D01*
X0152401Y0219313D01*
X0152368Y0219260D01*
X0152341Y0219219D01*
X0152314Y0219185D01*
X0152294Y0219158D01*
X0152287Y0219145D01*
X0152280Y0219138D01*
X0152193Y0219044D01*
X0152092Y0218970D01*
X0151984Y0218896D01*
X0151876Y0218842D01*
X0151761Y0218788D01*
X0151640Y0218747D01*
X0151525Y0218714D01*
X0151418Y0218687D01*
X0151310Y0218660D01*
X0151215Y0218646D01*
X0151121Y0218633D01*
X0151047Y0218626D01*
X0150979D01*
X0150932Y0218619D01*
X0150892D01*
X0150737Y0218626D01*
X0150588Y0218639D01*
X0150454Y0218660D01*
X0150326Y0218687D01*
X0150211Y0218720D01*
X0150103Y0218754D01*
X0150002Y0218794D01*
X0149914Y0218835D01*
X0149834Y0218875D01*
X0149766Y0218916D01*
X0149712Y0218950D01*
X0149665Y0218983D01*
X0149625Y0219010D01*
X0149598Y0219030D01*
X0149584Y0219044D01*
X0149577Y0219051D01*
X0149497Y0219138D01*
X0149429Y0219226D01*
X0149369Y0219320D01*
X0149315Y0219414D01*
X0149274Y0219509D01*
X0149234Y0219610D01*
X0149180Y0219792D01*
X0149166Y0219873D01*
X0149153Y0219954D01*
X0149139Y0220021D01*
X0149133Y0220082D01*
X0149126Y0220136D01*
Y0220169D01*
Y0220196D01*
Y0220203D01*
X0149133Y0220365D01*
X0149160Y0220513D01*
X0149193Y0220655D01*
X0149227Y0220769D01*
X0149267Y0220870D01*
X0149281Y0220911D01*
X0149294Y0220944D01*
X0149308Y0220978D01*
X0149321Y0220998D01*
X0149328Y0221005D01*
Y0221012D01*
X0149416Y0221147D01*
X0149510Y0221261D01*
X0149604Y0221362D01*
X0149699Y0221443D01*
X0149780Y0221504D01*
X0149847Y0221551D01*
X0149874Y0221565D01*
X0149894Y0221578D01*
X0149901Y0221585D01*
X0149908D01*
X0150063Y0221652D01*
X0150231Y0221699D01*
X0150400Y0221740D01*
X0150568Y0221760D01*
X0150642Y0221774D01*
X0150710D01*
X0150777Y0221780D01*
X0150831Y0221787D01*
X0150939D01*
X0151087Y0221780D01*
D02*
G37*
G36*
X0151532Y0225198D02*
X0151626Y0225191D01*
X0151707D01*
X0151761Y0225184D01*
X0151802Y0225177D01*
X0151829Y0225170D01*
X0151835D01*
X0151923Y0225150D01*
X0152004Y0225117D01*
X0152071Y0225090D01*
X0152139Y0225063D01*
X0152186Y0225029D01*
X0152219Y0225009D01*
X0152246Y0224995D01*
X0152253Y0224989D01*
X0152321Y0224935D01*
X0152374Y0224874D01*
X0152428Y0224813D01*
X0152469Y0224746D01*
X0152503Y0224692D01*
X0152523Y0224645D01*
X0152536Y0224618D01*
X0152543Y0224604D01*
X0152584Y0224510D01*
X0152610Y0224409D01*
X0152631Y0224314D01*
X0152644Y0224227D01*
X0152651Y0224153D01*
X0152658Y0224099D01*
Y0224058D01*
Y0224052D01*
Y0224045D01*
X0152651Y0223917D01*
X0152631Y0223796D01*
X0152604Y0223688D01*
X0152570Y0223580D01*
X0152530Y0223485D01*
X0152482Y0223398D01*
X0152428Y0223317D01*
X0152381Y0223250D01*
X0152327Y0223182D01*
X0152273Y0223128D01*
X0152226Y0223081D01*
X0152186Y0223041D01*
X0152152Y0223014D01*
X0152125Y0222993D01*
X0152105Y0222980D01*
X0152098Y0222973D01*
X0152584D01*
Y0222461D01*
X0149200D01*
Y0223034D01*
X0151155D01*
X0151269Y0223047D01*
X0151364Y0223061D01*
X0151451Y0223074D01*
X0151532Y0223095D01*
X0151606Y0223115D01*
X0151674Y0223142D01*
X0151727Y0223169D01*
X0151775Y0223189D01*
X0151815Y0223216D01*
X0151849Y0223236D01*
X0151876Y0223256D01*
X0151909Y0223283D01*
X0151923Y0223297D01*
X0152004Y0223398D01*
X0152058Y0223506D01*
X0152098Y0223614D01*
X0152132Y0223708D01*
X0152145Y0223796D01*
X0152152Y0223863D01*
X0152159Y0223890D01*
Y0223910D01*
Y0223917D01*
Y0223924D01*
X0152152Y0224005D01*
X0152145Y0224085D01*
X0152125Y0224153D01*
X0152105Y0224207D01*
X0152085Y0224254D01*
X0152071Y0224294D01*
X0152058Y0224314D01*
X0152051Y0224321D01*
X0152011Y0224382D01*
X0151963Y0224436D01*
X0151916Y0224476D01*
X0151876Y0224510D01*
X0151835Y0224530D01*
X0151802Y0224550D01*
X0151781Y0224564D01*
X0151775D01*
X0151700Y0224584D01*
X0151620Y0224604D01*
X0151532Y0224618D01*
X0151444Y0224625D01*
X0151370Y0224631D01*
X0149200D01*
Y0225204D01*
X0151418D01*
X0151532Y0225198D01*
D02*
G37*
G36*
X0153864Y0226074D02*
X0149200D01*
Y0226647D01*
X0153864D01*
Y0226074D01*
D02*
G37*
G36*
Y0208320D02*
X0153210D01*
Y0208893D01*
X0153864D01*
Y0208320D01*
D02*
G37*
G36*
X0151087Y0212715D02*
X0151222Y0212702D01*
X0151350Y0212681D01*
X0151471Y0212654D01*
X0151586Y0212621D01*
X0151687Y0212580D01*
X0151788Y0212540D01*
X0151869Y0212499D01*
X0151943Y0212459D01*
X0152011Y0212418D01*
X0152071Y0212378D01*
X0152118Y0212344D01*
X0152152Y0212317D01*
X0152179Y0212297D01*
X0152193Y0212284D01*
X0152199Y0212277D01*
X0152280Y0212189D01*
X0152348Y0212102D01*
X0152415Y0212007D01*
X0152462Y0211913D01*
X0152509Y0211819D01*
X0152543Y0211724D01*
X0152604Y0211542D01*
X0152617Y0211455D01*
X0152631Y0211381D01*
X0152644Y0211313D01*
X0152651Y0211252D01*
X0152658Y0211205D01*
Y0211172D01*
Y0211145D01*
Y0211138D01*
X0152651Y0211023D01*
X0152644Y0210915D01*
X0152597Y0210706D01*
X0152536Y0210525D01*
X0152503Y0210444D01*
X0152469Y0210369D01*
X0152435Y0210302D01*
X0152401Y0210248D01*
X0152368Y0210194D01*
X0152341Y0210154D01*
X0152314Y0210120D01*
X0152294Y0210093D01*
X0152287Y0210080D01*
X0152280Y0210073D01*
X0152193Y0209979D01*
X0152092Y0209904D01*
X0151984Y0209830D01*
X0151876Y0209776D01*
X0151761Y0209722D01*
X0151640Y0209682D01*
X0151525Y0209648D01*
X0151418Y0209621D01*
X0151310Y0209594D01*
X0151215Y0209581D01*
X0151121Y0209567D01*
X0151047Y0209561D01*
X0150979D01*
X0150932Y0209554D01*
X0150892D01*
X0150737Y0209561D01*
X0150588Y0209574D01*
X0150454Y0209594D01*
X0150326Y0209621D01*
X0150211Y0209655D01*
X0150103Y0209689D01*
X0150002Y0209729D01*
X0149914Y0209770D01*
X0149834Y0209810D01*
X0149766Y0209851D01*
X0149712Y0209884D01*
X0149665Y0209918D01*
X0149625Y0209945D01*
X0149598Y0209965D01*
X0149584Y0209979D01*
X0149577Y0209985D01*
X0149497Y0210073D01*
X0149429Y0210160D01*
X0149369Y0210255D01*
X0149315Y0210349D01*
X0149274Y0210444D01*
X0149234Y0210545D01*
X0149180Y0210727D01*
X0149166Y0210808D01*
X0149153Y0210888D01*
X0149139Y0210956D01*
X0149133Y0211017D01*
X0149126Y0211070D01*
Y0211104D01*
Y0211131D01*
Y0211138D01*
X0149133Y0211300D01*
X0149160Y0211448D01*
X0149193Y0211589D01*
X0149227Y0211704D01*
X0149267Y0211805D01*
X0149281Y0211845D01*
X0149294Y0211879D01*
X0149308Y0211913D01*
X0149321Y0211933D01*
X0149328Y0211940D01*
Y0211947D01*
X0149416Y0212081D01*
X0149510Y0212196D01*
X0149604Y0212297D01*
X0149699Y0212378D01*
X0149780Y0212439D01*
X0149847Y0212486D01*
X0149874Y0212499D01*
X0149894Y0212513D01*
X0149901Y0212520D01*
X0149908D01*
X0150063Y0212587D01*
X0150231Y0212634D01*
X0150400Y0212674D01*
X0150568Y0212695D01*
X0150642Y0212708D01*
X0150710D01*
X0150777Y0212715D01*
X0150831Y0212722D01*
X0150939D01*
X0151087Y0212715D01*
D02*
G37*
G36*
X0151532Y0216132D02*
X0151626Y0216125D01*
X0151707D01*
X0151761Y0216119D01*
X0151802Y0216112D01*
X0151829Y0216105D01*
X0151835D01*
X0151923Y0216085D01*
X0152004Y0216051D01*
X0152071Y0216024D01*
X0152139Y0215997D01*
X0152186Y0215964D01*
X0152219Y0215943D01*
X0152246Y0215930D01*
X0152253Y0215923D01*
X0152321Y0215869D01*
X0152374Y0215809D01*
X0152428Y0215748D01*
X0152469Y0215681D01*
X0152503Y0215627D01*
X0152523Y0215580D01*
X0152536Y0215552D01*
X0152543Y0215539D01*
X0152584Y0215445D01*
X0152610Y0215344D01*
X0152631Y0215249D01*
X0152644Y0215162D01*
X0152651Y0215088D01*
X0152658Y0215034D01*
Y0214993D01*
Y0214986D01*
Y0214980D01*
X0152651Y0214852D01*
X0152631Y0214730D01*
X0152604Y0214622D01*
X0152570Y0214515D01*
X0152530Y0214420D01*
X0152482Y0214333D01*
X0152428Y0214252D01*
X0152381Y0214184D01*
X0152327Y0214117D01*
X0152273Y0214063D01*
X0152226Y0214016D01*
X0152186Y0213975D01*
X0152152Y0213948D01*
X0152125Y0213928D01*
X0152105Y0213915D01*
X0152098Y0213908D01*
X0152584D01*
Y0213396D01*
X0149200D01*
Y0213969D01*
X0151155D01*
X0151269Y0213982D01*
X0151364Y0213996D01*
X0151451Y0214009D01*
X0151532Y0214029D01*
X0151606Y0214050D01*
X0151674Y0214076D01*
X0151727Y0214103D01*
X0151775Y0214124D01*
X0151815Y0214151D01*
X0151849Y0214171D01*
X0151876Y0214191D01*
X0151909Y0214218D01*
X0151923Y0214231D01*
X0152004Y0214333D01*
X0152058Y0214440D01*
X0152098Y0214548D01*
X0152132Y0214643D01*
X0152145Y0214730D01*
X0152152Y0214798D01*
X0152159Y0214825D01*
Y0214845D01*
Y0214852D01*
Y0214858D01*
X0152152Y0214939D01*
X0152145Y0215020D01*
X0152125Y0215088D01*
X0152105Y0215141D01*
X0152085Y0215189D01*
X0152071Y0215229D01*
X0152058Y0215249D01*
X0152051Y0215256D01*
X0152011Y0215317D01*
X0151963Y0215370D01*
X0151916Y0215411D01*
X0151876Y0215445D01*
X0151835Y0215465D01*
X0151802Y0215485D01*
X0151781Y0215499D01*
X0151775D01*
X0151700Y0215519D01*
X0151620Y0215539D01*
X0151532Y0215552D01*
X0151444Y0215559D01*
X0151370Y0215566D01*
X0149200D01*
Y0216139D01*
X0151418D01*
X0151532Y0216132D01*
D02*
G37*
G36*
X0152584Y0229733D02*
X0150609Y0229006D01*
X0150467Y0228952D01*
X0150332Y0228911D01*
X0150198Y0228864D01*
X0150083Y0228830D01*
X0149982Y0228803D01*
X0149941Y0228790D01*
X0149908Y0228783D01*
X0149881Y0228776D01*
X0149861Y0228770D01*
X0149847Y0228763D01*
X0149840D01*
X0149995Y0228723D01*
X0150137Y0228682D01*
X0150272Y0228642D01*
X0150386Y0228601D01*
X0150481Y0228568D01*
X0150521Y0228554D01*
X0150555Y0228540D01*
X0150588Y0228534D01*
X0150609Y0228527D01*
X0150615Y0228520D01*
X0150622D01*
X0152584Y0227813D01*
Y0227206D01*
X0149200Y0228487D01*
X0149139Y0228460D01*
X0149092Y0228446D01*
X0149065Y0228433D01*
X0149058D01*
X0148944Y0228392D01*
X0148849Y0228352D01*
X0148769Y0228325D01*
X0148715Y0228298D01*
X0148674Y0228284D01*
X0148647Y0228271D01*
X0148634Y0228257D01*
X0148627D01*
X0148553Y0228204D01*
X0148499Y0228143D01*
X0148479Y0228116D01*
X0148465Y0228096D01*
X0148452Y0228082D01*
Y0228075D01*
X0148432Y0228028D01*
X0148411Y0227981D01*
X0148391Y0227880D01*
Y0227839D01*
X0148384Y0227806D01*
Y0227779D01*
Y0227772D01*
X0148391Y0227664D01*
X0148411Y0227556D01*
X0148425Y0227516D01*
X0148432Y0227482D01*
X0148438Y0227455D01*
Y0227449D01*
X0147906Y0227509D01*
X0147879Y0227583D01*
X0147865Y0227651D01*
X0147852Y0227712D01*
X0147838Y0227765D01*
Y0227813D01*
X0147832Y0227846D01*
Y0227867D01*
Y0227873D01*
X0147838Y0227974D01*
X0147852Y0228062D01*
X0147872Y0228143D01*
X0147899Y0228210D01*
X0147926Y0228271D01*
X0147946Y0228311D01*
X0147960Y0228338D01*
X0147967Y0228345D01*
X0148021Y0228419D01*
X0148088Y0228480D01*
X0148155Y0228540D01*
X0148223Y0228594D01*
X0148283Y0228635D01*
X0148330Y0228669D01*
X0148364Y0228689D01*
X0148378Y0228696D01*
X0148425Y0228716D01*
X0148472Y0228743D01*
X0148587Y0228797D01*
X0148715Y0228851D01*
X0148843Y0228898D01*
X0148957Y0228945D01*
X0149011Y0228965D01*
X0149058Y0228985D01*
X0149092Y0228999D01*
X0149119Y0229012D01*
X0149139Y0229019D01*
X0149146D01*
X0152584Y0230306D01*
Y0229733D01*
D02*
G37*
G36*
X0142764Y0170879D02*
X0138100D01*
Y0171500D01*
X0140216D01*
Y0173690D01*
X0140769D01*
Y0171500D01*
X0142211D01*
Y0174034D01*
X0142764D01*
Y0170879D01*
D02*
G37*
G36*
X0139731Y0178159D02*
X0139623Y0178132D01*
X0139522Y0178098D01*
X0139428Y0178064D01*
X0139340Y0178031D01*
X0139259Y0177990D01*
X0139192Y0177950D01*
X0139125Y0177902D01*
X0139064Y0177862D01*
X0139010Y0177828D01*
X0138970Y0177788D01*
X0138929Y0177754D01*
X0138895Y0177727D01*
X0138875Y0177700D01*
X0138855Y0177680D01*
X0138848Y0177673D01*
X0138841Y0177667D01*
X0138787Y0177599D01*
X0138747Y0177525D01*
X0138673Y0177377D01*
X0138619Y0177235D01*
X0138585Y0177094D01*
X0138558Y0176972D01*
X0138552Y0176925D01*
Y0176878D01*
X0138545Y0176838D01*
Y0176811D01*
Y0176797D01*
Y0176790D01*
X0138552Y0176635D01*
X0138578Y0176487D01*
X0138612Y0176352D01*
X0138653Y0176231D01*
X0138693Y0176137D01*
X0138713Y0176096D01*
X0138727Y0176063D01*
X0138740Y0176036D01*
X0138754Y0176015D01*
X0138760Y0176002D01*
Y0175995D01*
X0138855Y0175867D01*
X0138956Y0175759D01*
X0139071Y0175665D01*
X0139178Y0175591D01*
X0139273Y0175530D01*
X0139354Y0175490D01*
X0139387Y0175476D01*
X0139408Y0175463D01*
X0139421Y0175456D01*
X0139428D01*
X0139603Y0175402D01*
X0139778Y0175362D01*
X0139953Y0175328D01*
X0140115Y0175308D01*
X0140189Y0175301D01*
X0140257Y0175294D01*
X0140317D01*
X0140365Y0175287D01*
X0140466D01*
X0140641Y0175294D01*
X0140803Y0175308D01*
X0140951Y0175335D01*
X0141086Y0175362D01*
X0141200Y0175382D01*
X0141248Y0175395D01*
X0141288Y0175409D01*
X0141322Y0175416D01*
X0141342Y0175422D01*
X0141355Y0175429D01*
X0141362D01*
X0141517Y0175496D01*
X0141659Y0175570D01*
X0141773Y0175651D01*
X0141874Y0175739D01*
X0141955Y0175813D01*
X0142009Y0175874D01*
X0142043Y0175921D01*
X0142056Y0175928D01*
Y0175935D01*
X0142144Y0176076D01*
X0142211Y0176231D01*
X0142259Y0176379D01*
X0142286Y0176521D01*
X0142306Y0176649D01*
X0142313Y0176703D01*
Y0176750D01*
X0142319Y0176784D01*
Y0176811D01*
Y0176831D01*
Y0176838D01*
X0142313Y0177006D01*
X0142286Y0177161D01*
X0142245Y0177289D01*
X0142205Y0177404D01*
X0142157Y0177491D01*
X0142124Y0177559D01*
X0142097Y0177599D01*
X0142083Y0177613D01*
X0141982Y0177721D01*
X0141868Y0177822D01*
X0141746Y0177902D01*
X0141625Y0177970D01*
X0141517Y0178024D01*
X0141463Y0178044D01*
X0141423Y0178058D01*
X0141389Y0178071D01*
X0141362Y0178085D01*
X0141349Y0178091D01*
X0141342D01*
X0141483Y0178698D01*
X0141605Y0178657D01*
X0141713Y0178617D01*
X0141814Y0178563D01*
X0141915Y0178516D01*
X0142002Y0178462D01*
X0142083Y0178401D01*
X0142164Y0178347D01*
X0142232Y0178294D01*
X0142286Y0178240D01*
X0142340Y0178192D01*
X0142387Y0178145D01*
X0142420Y0178112D01*
X0142454Y0178078D01*
X0142474Y0178051D01*
X0142481Y0178037D01*
X0142488Y0178031D01*
X0142548Y0177936D01*
X0142609Y0177842D01*
X0142656Y0177747D01*
X0142697Y0177646D01*
X0142757Y0177444D01*
X0142798Y0177262D01*
X0142818Y0177175D01*
X0142825Y0177101D01*
X0142832Y0177026D01*
X0142838Y0176966D01*
X0142845Y0176918D01*
Y0176885D01*
Y0176858D01*
Y0176851D01*
X0142832Y0176629D01*
X0142798Y0176413D01*
X0142757Y0176224D01*
X0142730Y0176137D01*
X0142703Y0176056D01*
X0142676Y0175982D01*
X0142649Y0175914D01*
X0142629Y0175860D01*
X0142609Y0175806D01*
X0142589Y0175773D01*
X0142575Y0175746D01*
X0142569Y0175725D01*
X0142562Y0175719D01*
X0142447Y0175537D01*
X0142313Y0175382D01*
X0142178Y0175247D01*
X0142043Y0175132D01*
X0141922Y0175045D01*
X0141868Y0175011D01*
X0141821Y0174984D01*
X0141787Y0174957D01*
X0141760Y0174944D01*
X0141740Y0174937D01*
X0141733Y0174930D01*
X0141524Y0174836D01*
X0141308Y0174768D01*
X0141093Y0174721D01*
X0140897Y0174688D01*
X0140810Y0174674D01*
X0140722Y0174667D01*
X0140655Y0174661D01*
X0140587D01*
X0140540Y0174654D01*
X0140466D01*
X0140223Y0174667D01*
X0139987Y0174694D01*
X0139778Y0174728D01*
X0139677Y0174755D01*
X0139590Y0174775D01*
X0139509Y0174795D01*
X0139435Y0174822D01*
X0139367Y0174843D01*
X0139313Y0174856D01*
X0139273Y0174876D01*
X0139239Y0174883D01*
X0139219Y0174897D01*
X0139212D01*
X0139010Y0174998D01*
X0138828Y0175112D01*
X0138673Y0175233D01*
X0138612Y0175294D01*
X0138552Y0175348D01*
X0138498Y0175402D01*
X0138451Y0175456D01*
X0138410Y0175503D01*
X0138383Y0175543D01*
X0138356Y0175570D01*
X0138336Y0175598D01*
X0138329Y0175611D01*
X0138322Y0175618D01*
X0138268Y0175712D01*
X0138221Y0175806D01*
X0138147Y0176009D01*
X0138093Y0176211D01*
X0138060Y0176406D01*
X0138046Y0176501D01*
X0138033Y0176582D01*
X0138026Y0176656D01*
Y0176716D01*
X0138019Y0176770D01*
Y0176811D01*
Y0176838D01*
Y0176844D01*
X0138026Y0176979D01*
X0138039Y0177107D01*
X0138053Y0177228D01*
X0138080Y0177343D01*
X0138113Y0177451D01*
X0138147Y0177552D01*
X0138181Y0177646D01*
X0138221Y0177734D01*
X0138255Y0177808D01*
X0138289Y0177882D01*
X0138322Y0177936D01*
X0138356Y0177990D01*
X0138383Y0178024D01*
X0138397Y0178058D01*
X0138410Y0178071D01*
X0138417Y0178078D01*
X0138498Y0178172D01*
X0138578Y0178253D01*
X0138673Y0178327D01*
X0138767Y0178401D01*
X0138956Y0178523D01*
X0139145Y0178617D01*
X0139232Y0178657D01*
X0139313Y0178691D01*
X0139387Y0178718D01*
X0139448Y0178738D01*
X0139502Y0178759D01*
X0139542Y0178772D01*
X0139569Y0178779D01*
X0139576D01*
X0139731Y0178159D01*
D02*
G37*
G36*
Y0182863D02*
X0139623Y0182836D01*
X0139522Y0182802D01*
X0139428Y0182769D01*
X0139340Y0182735D01*
X0139259Y0182695D01*
X0139192Y0182654D01*
X0139125Y0182607D01*
X0139064Y0182567D01*
X0139010Y0182533D01*
X0138970Y0182492D01*
X0138929Y0182459D01*
X0138895Y0182432D01*
X0138875Y0182405D01*
X0138855Y0182385D01*
X0138848Y0182378D01*
X0138841Y0182371D01*
X0138787Y0182304D01*
X0138747Y0182230D01*
X0138673Y0182081D01*
X0138619Y0181940D01*
X0138585Y0181798D01*
X0138558Y0181677D01*
X0138552Y0181630D01*
Y0181583D01*
X0138545Y0181542D01*
Y0181515D01*
Y0181502D01*
Y0181495D01*
X0138552Y0181340D01*
X0138578Y0181192D01*
X0138612Y0181057D01*
X0138653Y0180936D01*
X0138693Y0180841D01*
X0138713Y0180801D01*
X0138727Y0180767D01*
X0138740Y0180740D01*
X0138754Y0180720D01*
X0138760Y0180706D01*
Y0180700D01*
X0138855Y0180572D01*
X0138956Y0180464D01*
X0139071Y0180369D01*
X0139178Y0180295D01*
X0139273Y0180235D01*
X0139354Y0180194D01*
X0139387Y0180181D01*
X0139408Y0180167D01*
X0139421Y0180160D01*
X0139428D01*
X0139603Y0180106D01*
X0139778Y0180066D01*
X0139953Y0180032D01*
X0140115Y0180012D01*
X0140189Y0180005D01*
X0140257Y0179999D01*
X0140317D01*
X0140365Y0179992D01*
X0140466D01*
X0140641Y0179999D01*
X0140803Y0180012D01*
X0140951Y0180039D01*
X0141086Y0180066D01*
X0141200Y0180086D01*
X0141248Y0180100D01*
X0141288Y0180113D01*
X0141322Y0180120D01*
X0141342Y0180127D01*
X0141355Y0180133D01*
X0141362D01*
X0141517Y0180201D01*
X0141659Y0180275D01*
X0141773Y0180356D01*
X0141874Y0180444D01*
X0141955Y0180518D01*
X0142009Y0180578D01*
X0142043Y0180625D01*
X0142056Y0180632D01*
Y0180639D01*
X0142144Y0180780D01*
X0142211Y0180936D01*
X0142259Y0181084D01*
X0142286Y0181225D01*
X0142306Y0181353D01*
X0142313Y0181407D01*
Y0181455D01*
X0142319Y0181488D01*
Y0181515D01*
Y0181535D01*
Y0181542D01*
X0142313Y0181711D01*
X0142286Y0181866D01*
X0142245Y0181994D01*
X0142205Y0182108D01*
X0142157Y0182196D01*
X0142124Y0182263D01*
X0142097Y0182304D01*
X0142083Y0182317D01*
X0141982Y0182425D01*
X0141868Y0182526D01*
X0141746Y0182607D01*
X0141625Y0182675D01*
X0141517Y0182728D01*
X0141463Y0182749D01*
X0141423Y0182762D01*
X0141389Y0182776D01*
X0141362Y0182789D01*
X0141349Y0182796D01*
X0141342D01*
X0141483Y0183402D01*
X0141605Y0183362D01*
X0141713Y0183321D01*
X0141814Y0183268D01*
X0141915Y0183220D01*
X0142002Y0183167D01*
X0142083Y0183106D01*
X0142164Y0183052D01*
X0142232Y0182998D01*
X0142286Y0182944D01*
X0142340Y0182897D01*
X0142387Y0182850D01*
X0142420Y0182816D01*
X0142454Y0182782D01*
X0142474Y0182755D01*
X0142481Y0182742D01*
X0142488Y0182735D01*
X0142548Y0182641D01*
X0142609Y0182546D01*
X0142656Y0182452D01*
X0142697Y0182351D01*
X0142757Y0182149D01*
X0142798Y0181967D01*
X0142818Y0181879D01*
X0142825Y0181805D01*
X0142832Y0181731D01*
X0142838Y0181670D01*
X0142845Y0181623D01*
Y0181589D01*
Y0181562D01*
Y0181556D01*
X0142832Y0181333D01*
X0142798Y0181117D01*
X0142757Y0180929D01*
X0142730Y0180841D01*
X0142703Y0180760D01*
X0142676Y0180686D01*
X0142649Y0180619D01*
X0142629Y0180565D01*
X0142609Y0180511D01*
X0142589Y0180477D01*
X0142575Y0180450D01*
X0142569Y0180430D01*
X0142562Y0180423D01*
X0142447Y0180241D01*
X0142313Y0180086D01*
X0142178Y0179952D01*
X0142043Y0179837D01*
X0141922Y0179749D01*
X0141868Y0179716D01*
X0141821Y0179689D01*
X0141787Y0179662D01*
X0141760Y0179648D01*
X0141740Y0179641D01*
X0141733Y0179635D01*
X0141524Y0179540D01*
X0141308Y0179473D01*
X0141093Y0179426D01*
X0140897Y0179392D01*
X0140810Y0179379D01*
X0140722Y0179372D01*
X0140655Y0179365D01*
X0140587D01*
X0140540Y0179358D01*
X0140466D01*
X0140223Y0179372D01*
X0139987Y0179399D01*
X0139778Y0179432D01*
X0139677Y0179460D01*
X0139590Y0179480D01*
X0139509Y0179500D01*
X0139435Y0179527D01*
X0139367Y0179547D01*
X0139313Y0179561D01*
X0139273Y0179581D01*
X0139239Y0179587D01*
X0139219Y0179601D01*
X0139212D01*
X0139010Y0179702D01*
X0138828Y0179817D01*
X0138673Y0179938D01*
X0138612Y0179999D01*
X0138552Y0180053D01*
X0138498Y0180106D01*
X0138451Y0180160D01*
X0138410Y0180208D01*
X0138383Y0180248D01*
X0138356Y0180275D01*
X0138336Y0180302D01*
X0138329Y0180315D01*
X0138322Y0180322D01*
X0138268Y0180417D01*
X0138221Y0180511D01*
X0138147Y0180713D01*
X0138093Y0180915D01*
X0138060Y0181111D01*
X0138046Y0181205D01*
X0138033Y0181286D01*
X0138026Y0181360D01*
Y0181421D01*
X0138019Y0181475D01*
Y0181515D01*
Y0181542D01*
Y0181549D01*
X0138026Y0181684D01*
X0138039Y0181812D01*
X0138053Y0181933D01*
X0138080Y0182048D01*
X0138113Y0182156D01*
X0138147Y0182257D01*
X0138181Y0182351D01*
X0138221Y0182439D01*
X0138255Y0182513D01*
X0138289Y0182587D01*
X0138322Y0182641D01*
X0138356Y0182695D01*
X0138383Y0182728D01*
X0138397Y0182762D01*
X0138410Y0182776D01*
X0138417Y0182782D01*
X0138498Y0182877D01*
X0138578Y0182957D01*
X0138673Y0183032D01*
X0138767Y0183106D01*
X0138956Y0183227D01*
X0139145Y0183321D01*
X0139232Y0183362D01*
X0139313Y0183396D01*
X0139387Y0183423D01*
X0139448Y0183443D01*
X0139502Y0183463D01*
X0139542Y0183476D01*
X0139569Y0183483D01*
X0139576D01*
X0139731Y0182863D01*
D02*
G37*
G36*
X0140432Y0162636D02*
X0140526Y0162630D01*
X0140607D01*
X0140661Y0162623D01*
X0140702Y0162616D01*
X0140729Y0162610D01*
X0140735D01*
X0140823Y0162589D01*
X0140904Y0162556D01*
X0140971Y0162529D01*
X0141039Y0162502D01*
X0141086Y0162468D01*
X0141120Y0162448D01*
X0141147Y0162434D01*
X0141153Y0162427D01*
X0141221Y0162374D01*
X0141274Y0162313D01*
X0141329Y0162252D01*
X0141369Y0162185D01*
X0141403Y0162131D01*
X0141423Y0162084D01*
X0141436Y0162057D01*
X0141443Y0162043D01*
X0141483Y0161949D01*
X0141510Y0161848D01*
X0141531Y0161753D01*
X0141544Y0161666D01*
X0141551Y0161592D01*
X0141558Y0161538D01*
Y0161497D01*
Y0161491D01*
Y0161484D01*
X0141551Y0161356D01*
X0141531Y0161234D01*
X0141504Y0161127D01*
X0141470Y0161019D01*
X0141430Y0160924D01*
X0141382Y0160837D01*
X0141329Y0160756D01*
X0141281Y0160689D01*
X0141227Y0160621D01*
X0141173Y0160567D01*
X0141126Y0160520D01*
X0141086Y0160480D01*
X0141052Y0160453D01*
X0141025Y0160433D01*
X0141005Y0160419D01*
X0140998Y0160412D01*
X0141483D01*
Y0159900D01*
X0138100D01*
Y0160473D01*
X0140055D01*
X0140169Y0160486D01*
X0140263Y0160500D01*
X0140351Y0160513D01*
X0140432Y0160534D01*
X0140506Y0160554D01*
X0140574Y0160581D01*
X0140628Y0160608D01*
X0140675Y0160628D01*
X0140715Y0160655D01*
X0140749Y0160675D01*
X0140776Y0160695D01*
X0140810Y0160722D01*
X0140823Y0160736D01*
X0140904Y0160837D01*
X0140958Y0160945D01*
X0140998Y0161053D01*
X0141032Y0161147D01*
X0141045Y0161234D01*
X0141052Y0161302D01*
X0141059Y0161329D01*
Y0161349D01*
Y0161356D01*
Y0161363D01*
X0141052Y0161443D01*
X0141045Y0161524D01*
X0141025Y0161592D01*
X0141005Y0161646D01*
X0140985Y0161693D01*
X0140971Y0161733D01*
X0140958Y0161753D01*
X0140951Y0161760D01*
X0140911Y0161821D01*
X0140863Y0161875D01*
X0140816Y0161915D01*
X0140776Y0161949D01*
X0140735Y0161969D01*
X0140702Y0161989D01*
X0140681Y0162003D01*
X0140675D01*
X0140601Y0162023D01*
X0140520Y0162043D01*
X0140432Y0162057D01*
X0140344Y0162064D01*
X0140270Y0162070D01*
X0138100D01*
Y0162643D01*
X0140317D01*
X0140432Y0162636D01*
D02*
G37*
G36*
X0139987Y0166472D02*
X0140122Y0166458D01*
X0140250Y0166438D01*
X0140371Y0166411D01*
X0140486Y0166377D01*
X0140587Y0166337D01*
X0140688Y0166296D01*
X0140769Y0166256D01*
X0140843Y0166215D01*
X0140911Y0166175D01*
X0140971Y0166135D01*
X0141018Y0166101D01*
X0141052Y0166074D01*
X0141079Y0166054D01*
X0141093Y0166040D01*
X0141099Y0166033D01*
X0141180Y0165946D01*
X0141248Y0165858D01*
X0141315Y0165764D01*
X0141362Y0165669D01*
X0141409Y0165575D01*
X0141443Y0165481D01*
X0141504Y0165299D01*
X0141517Y0165211D01*
X0141531Y0165137D01*
X0141544Y0165070D01*
X0141551Y0165009D01*
X0141558Y0164962D01*
Y0164928D01*
Y0164901D01*
Y0164894D01*
X0141551Y0164780D01*
X0141544Y0164672D01*
X0141497Y0164463D01*
X0141436Y0164281D01*
X0141403Y0164200D01*
X0141369Y0164126D01*
X0141335Y0164059D01*
X0141302Y0164005D01*
X0141268Y0163951D01*
X0141241Y0163910D01*
X0141214Y0163877D01*
X0141194Y0163850D01*
X0141187Y0163836D01*
X0141180Y0163829D01*
X0141093Y0163735D01*
X0140991Y0163661D01*
X0140884Y0163587D01*
X0140776Y0163533D01*
X0140661Y0163479D01*
X0140540Y0163438D01*
X0140425Y0163405D01*
X0140317Y0163378D01*
X0140210Y0163351D01*
X0140115Y0163337D01*
X0140021Y0163324D01*
X0139947Y0163317D01*
X0139879D01*
X0139832Y0163310D01*
X0139792D01*
X0139637Y0163317D01*
X0139488Y0163331D01*
X0139354Y0163351D01*
X0139226Y0163378D01*
X0139111Y0163411D01*
X0139003Y0163445D01*
X0138902Y0163486D01*
X0138814Y0163526D01*
X0138734Y0163567D01*
X0138666Y0163607D01*
X0138612Y0163641D01*
X0138565Y0163674D01*
X0138525Y0163701D01*
X0138498Y0163722D01*
X0138484Y0163735D01*
X0138477Y0163742D01*
X0138397Y0163829D01*
X0138329Y0163917D01*
X0138268Y0164011D01*
X0138215Y0164106D01*
X0138174Y0164200D01*
X0138134Y0164301D01*
X0138080Y0164483D01*
X0138066Y0164564D01*
X0138053Y0164645D01*
X0138039Y0164712D01*
X0138033Y0164773D01*
X0138026Y0164827D01*
Y0164861D01*
Y0164888D01*
Y0164894D01*
X0138033Y0165056D01*
X0138060Y0165204D01*
X0138093Y0165346D01*
X0138127Y0165461D01*
X0138167Y0165562D01*
X0138181Y0165602D01*
X0138194Y0165636D01*
X0138208Y0165669D01*
X0138221Y0165690D01*
X0138228Y0165696D01*
Y0165703D01*
X0138316Y0165838D01*
X0138410Y0165953D01*
X0138504Y0166054D01*
X0138599Y0166135D01*
X0138680Y0166195D01*
X0138747Y0166242D01*
X0138774Y0166256D01*
X0138794Y0166269D01*
X0138801Y0166276D01*
X0138808D01*
X0138963Y0166343D01*
X0139131Y0166391D01*
X0139300Y0166431D01*
X0139468Y0166451D01*
X0139542Y0166465D01*
X0139610D01*
X0139677Y0166472D01*
X0139731Y0166478D01*
X0139839D01*
X0139987Y0166472D01*
D02*
G37*
G36*
X0138605Y0168399D02*
X0138599Y0168345D01*
X0138592Y0168291D01*
Y0168244D01*
X0138585Y0168210D01*
Y0168184D01*
Y0168163D01*
Y0168150D01*
Y0168143D01*
X0138592Y0168055D01*
X0138605Y0167995D01*
X0138619Y0167961D01*
X0138626Y0167948D01*
X0138659Y0167900D01*
X0138693Y0167873D01*
X0138720Y0167853D01*
X0138734Y0167847D01*
X0138767Y0167840D01*
X0138814Y0167833D01*
X0138922Y0167826D01*
X0138970Y0167819D01*
X0141039D01*
Y0168399D01*
X0141483D01*
Y0167819D01*
X0142663D01*
X0142319Y0167247D01*
X0141483D01*
Y0166822D01*
X0141039D01*
Y0167247D01*
X0138909D01*
X0138835Y0167253D01*
X0138760Y0167260D01*
X0138700D01*
X0138646Y0167267D01*
X0138558Y0167280D01*
X0138491Y0167294D01*
X0138444Y0167300D01*
X0138417Y0167314D01*
X0138410D01*
X0138349Y0167341D01*
X0138302Y0167381D01*
X0138255Y0167422D01*
X0138221Y0167455D01*
X0138188Y0167496D01*
X0138167Y0167523D01*
X0138154Y0167543D01*
X0138147Y0167550D01*
X0138113Y0167624D01*
X0138093Y0167698D01*
X0138073Y0167779D01*
X0138066Y0167860D01*
X0138060Y0167927D01*
X0138053Y0167981D01*
Y0168022D01*
Y0168035D01*
X0138060Y0168184D01*
X0138066Y0168258D01*
X0138080Y0168325D01*
X0138086Y0168386D01*
X0138093Y0168433D01*
X0138100Y0168460D01*
Y0168473D01*
X0138605Y0168399D01*
D02*
G37*
G36*
X0151087Y0182628D02*
X0151222Y0182614D01*
X0151350Y0182594D01*
X0151471Y0182567D01*
X0151586Y0182533D01*
X0151687Y0182493D01*
X0151788Y0182452D01*
X0151869Y0182412D01*
X0151943Y0182371D01*
X0152011Y0182331D01*
X0152071Y0182291D01*
X0152118Y0182257D01*
X0152152Y0182230D01*
X0152179Y0182210D01*
X0152193Y0182196D01*
X0152199Y0182190D01*
X0152280Y0182102D01*
X0152348Y0182014D01*
X0152415Y0181920D01*
X0152462Y0181826D01*
X0152509Y0181731D01*
X0152543Y0181637D01*
X0152604Y0181455D01*
X0152617Y0181367D01*
X0152631Y0181293D01*
X0152644Y0181226D01*
X0152651Y0181165D01*
X0152658Y0181118D01*
Y0181084D01*
Y0181057D01*
Y0181051D01*
X0152651Y0180936D01*
X0152644Y0180828D01*
X0152597Y0180619D01*
X0152536Y0180437D01*
X0152503Y0180356D01*
X0152469Y0180282D01*
X0152435Y0180215D01*
X0152401Y0180161D01*
X0152368Y0180107D01*
X0152341Y0180066D01*
X0152314Y0180033D01*
X0152294Y0180006D01*
X0152287Y0179992D01*
X0152280Y0179985D01*
X0152193Y0179891D01*
X0152092Y0179817D01*
X0151984Y0179743D01*
X0151876Y0179689D01*
X0151761Y0179635D01*
X0151640Y0179595D01*
X0151525Y0179561D01*
X0151418Y0179534D01*
X0151310Y0179507D01*
X0151215Y0179493D01*
X0151121Y0179480D01*
X0151047Y0179473D01*
X0150979D01*
X0150932Y0179467D01*
X0150892D01*
X0150737Y0179473D01*
X0150588Y0179487D01*
X0150454Y0179507D01*
X0150326Y0179534D01*
X0150211Y0179568D01*
X0150103Y0179601D01*
X0150002Y0179642D01*
X0149914Y0179682D01*
X0149834Y0179723D01*
X0149766Y0179763D01*
X0149712Y0179797D01*
X0149665Y0179831D01*
X0149625Y0179858D01*
X0149598Y0179878D01*
X0149584Y0179891D01*
X0149577Y0179898D01*
X0149497Y0179985D01*
X0149429Y0180073D01*
X0149369Y0180167D01*
X0149315Y0180262D01*
X0149274Y0180356D01*
X0149234Y0180457D01*
X0149180Y0180639D01*
X0149166Y0180720D01*
X0149153Y0180801D01*
X0149139Y0180868D01*
X0149133Y0180929D01*
X0149126Y0180983D01*
Y0181017D01*
Y0181044D01*
Y0181051D01*
X0149133Y0181212D01*
X0149160Y0181360D01*
X0149193Y0181502D01*
X0149227Y0181617D01*
X0149267Y0181718D01*
X0149281Y0181758D01*
X0149294Y0181792D01*
X0149308Y0181826D01*
X0149321Y0181846D01*
X0149328Y0181852D01*
Y0181859D01*
X0149416Y0181994D01*
X0149510Y0182109D01*
X0149604Y0182210D01*
X0149699Y0182291D01*
X0149780Y0182351D01*
X0149847Y0182398D01*
X0149874Y0182412D01*
X0149894Y0182425D01*
X0149901Y0182432D01*
X0149908D01*
X0150063Y0182500D01*
X0150231Y0182547D01*
X0150400Y0182587D01*
X0150568Y0182607D01*
X0150642Y0182621D01*
X0150710D01*
X0150777Y0182628D01*
X0150831Y0182634D01*
X0150939D01*
X0151087Y0182628D01*
D02*
G37*
G36*
X0152530Y0185020D02*
X0152577Y0184913D01*
X0152610Y0184818D01*
X0152637Y0184731D01*
X0152651Y0184656D01*
X0152658Y0184596D01*
Y0184562D01*
Y0184548D01*
X0152651Y0184474D01*
X0152637Y0184407D01*
X0152617Y0184340D01*
X0152597Y0184286D01*
X0152577Y0184245D01*
X0152557Y0184205D01*
X0152543Y0184185D01*
X0152536Y0184178D01*
X0152482Y0184117D01*
X0152415Y0184056D01*
X0152334Y0183996D01*
X0152260Y0183942D01*
X0152186Y0183888D01*
X0152125Y0183854D01*
X0152078Y0183827D01*
X0152071Y0183821D01*
X0152584D01*
Y0183302D01*
X0149200D01*
Y0183874D01*
X0150966D01*
X0151101Y0183881D01*
X0151222Y0183888D01*
X0151337Y0183902D01*
X0151438Y0183922D01*
X0151519Y0183942D01*
X0151579Y0183955D01*
X0151620Y0183962D01*
X0151633Y0183969D01*
X0151707Y0183996D01*
X0151768Y0184029D01*
X0151822Y0184063D01*
X0151869Y0184097D01*
X0151903Y0184131D01*
X0151930Y0184151D01*
X0151943Y0184171D01*
X0151950Y0184178D01*
X0151990Y0184232D01*
X0152017Y0184292D01*
X0152038Y0184353D01*
X0152051Y0184400D01*
X0152058Y0184447D01*
X0152065Y0184481D01*
Y0184508D01*
Y0184515D01*
X0152058Y0184589D01*
X0152044Y0184663D01*
X0152024Y0184737D01*
X0152004Y0184798D01*
X0151984Y0184852D01*
X0151963Y0184892D01*
X0151950Y0184919D01*
X0151943Y0184926D01*
X0152469Y0185135D01*
X0152530Y0185020D01*
D02*
G37*
G36*
X0151047Y0190210D02*
X0151188Y0190197D01*
X0151323Y0190176D01*
X0151451Y0190149D01*
X0151566Y0190116D01*
X0151674Y0190082D01*
X0151768Y0190042D01*
X0151856Y0190001D01*
X0151936Y0189961D01*
X0152004Y0189920D01*
X0152058Y0189887D01*
X0152105Y0189853D01*
X0152145Y0189826D01*
X0152172Y0189806D01*
X0152186Y0189792D01*
X0152193Y0189786D01*
X0152273Y0189705D01*
X0152348Y0189617D01*
X0152408Y0189523D01*
X0152462Y0189428D01*
X0152509Y0189334D01*
X0152543Y0189246D01*
X0152577Y0189152D01*
X0152597Y0189071D01*
X0152617Y0188983D01*
X0152631Y0188909D01*
X0152644Y0188842D01*
X0152651Y0188788D01*
X0152658Y0188741D01*
Y0188700D01*
Y0188680D01*
Y0188673D01*
X0152651Y0188545D01*
X0152637Y0188424D01*
X0152617Y0188309D01*
X0152584Y0188202D01*
X0152550Y0188101D01*
X0152509Y0188006D01*
X0152469Y0187918D01*
X0152422Y0187844D01*
X0152381Y0187770D01*
X0152334Y0187710D01*
X0152294Y0187656D01*
X0152260Y0187615D01*
X0152226Y0187582D01*
X0152206Y0187555D01*
X0152193Y0187541D01*
X0152186Y0187534D01*
X0152092Y0187460D01*
X0151990Y0187393D01*
X0151889Y0187332D01*
X0151781Y0187278D01*
X0151667Y0187238D01*
X0151559Y0187204D01*
X0151343Y0187150D01*
X0151249Y0187130D01*
X0151155Y0187117D01*
X0151074Y0187110D01*
X0151000Y0187103D01*
X0150939Y0187096D01*
X0150858D01*
X0150710Y0187103D01*
X0150568Y0187117D01*
X0150433Y0187137D01*
X0150312Y0187164D01*
X0150198Y0187197D01*
X0150090Y0187231D01*
X0149995Y0187271D01*
X0149908Y0187312D01*
X0149834Y0187352D01*
X0149766Y0187393D01*
X0149712Y0187426D01*
X0149665Y0187460D01*
X0149625Y0187487D01*
X0149598Y0187507D01*
X0149584Y0187521D01*
X0149577Y0187528D01*
X0149497Y0187615D01*
X0149429Y0187703D01*
X0149369Y0187797D01*
X0149315Y0187898D01*
X0149274Y0187993D01*
X0149234Y0188094D01*
X0149180Y0188283D01*
X0149166Y0188370D01*
X0149153Y0188451D01*
X0149139Y0188525D01*
X0149133Y0188586D01*
X0149126Y0188633D01*
Y0188673D01*
Y0188700D01*
Y0188707D01*
X0149139Y0188916D01*
X0149173Y0189105D01*
X0149214Y0189273D01*
X0149240Y0189341D01*
X0149267Y0189408D01*
X0149294Y0189469D01*
X0149321Y0189523D01*
X0149341Y0189563D01*
X0149362Y0189603D01*
X0149382Y0189630D01*
X0149396Y0189651D01*
X0149409Y0189664D01*
Y0189671D01*
X0149530Y0189806D01*
X0149658Y0189914D01*
X0149793Y0190008D01*
X0149921Y0190075D01*
X0150036Y0190129D01*
X0150090Y0190149D01*
X0150130Y0190170D01*
X0150171Y0190183D01*
X0150198Y0190190D01*
X0150211Y0190197D01*
X0150218D01*
X0150292Y0189603D01*
X0150164Y0189550D01*
X0150056Y0189489D01*
X0149962Y0189428D01*
X0149888Y0189374D01*
X0149834Y0189327D01*
X0149793Y0189287D01*
X0149766Y0189253D01*
X0149759Y0189246D01*
X0149706Y0189159D01*
X0149665Y0189071D01*
X0149638Y0188977D01*
X0149618Y0188896D01*
X0149604Y0188822D01*
X0149598Y0188761D01*
Y0188721D01*
Y0188714D01*
Y0188707D01*
X0149604Y0188626D01*
X0149611Y0188552D01*
X0149645Y0188417D01*
X0149692Y0188296D01*
X0149746Y0188188D01*
X0149793Y0188107D01*
X0149840Y0188047D01*
X0149874Y0188006D01*
X0149888Y0187999D01*
Y0187993D01*
X0150009Y0187898D01*
X0150144Y0187824D01*
X0150292Y0187770D01*
X0150427Y0187730D01*
X0150548Y0187710D01*
X0150602Y0187696D01*
X0150649Y0187689D01*
X0150689D01*
X0150716Y0187683D01*
X0150743D01*
Y0190210D01*
X0150811Y0190217D01*
X0150892D01*
X0151047Y0190210D01*
D02*
G37*
G36*
X0119630Y0234270D02*
X0119780Y0234248D01*
X0119902Y0234209D01*
X0120013Y0234170D01*
X0120057Y0234148D01*
X0120096Y0234126D01*
X0120129Y0234109D01*
X0120163Y0234087D01*
X0120185Y0234076D01*
X0120202Y0234065D01*
X0120207Y0234054D01*
X0120213D01*
X0120312Y0233965D01*
X0120396Y0233876D01*
X0120462Y0233782D01*
X0120512Y0233699D01*
X0120546Y0233621D01*
X0120573Y0233560D01*
X0120579Y0233538D01*
X0120584Y0233521D01*
X0120590Y0233510D01*
Y0233504D01*
X0120601Y0233460D01*
X0120612Y0233404D01*
X0120618Y0233338D01*
X0120623Y0233271D01*
X0120634Y0233116D01*
X0120645Y0232961D01*
Y0232888D01*
Y0232816D01*
X0120651Y0232755D01*
Y0232694D01*
Y0232650D01*
Y0232616D01*
Y0232589D01*
Y0232583D01*
Y0231340D01*
X0116810D01*
Y0232117D01*
X0118259D01*
Y0232622D01*
Y0232716D01*
Y0232805D01*
X0118265Y0232888D01*
Y0232966D01*
X0118270Y0233038D01*
X0118276Y0233105D01*
X0118281Y0233166D01*
X0118287Y0233216D01*
Y0233266D01*
X0118292Y0233305D01*
X0118298Y0233343D01*
X0118303Y0233371D01*
Y0233393D01*
X0118309Y0233410D01*
Y0233416D01*
Y0233421D01*
X0118331Y0233499D01*
X0118359Y0233571D01*
X0118387Y0233638D01*
X0118420Y0233699D01*
X0118448Y0233749D01*
X0118470Y0233787D01*
X0118487Y0233810D01*
X0118492Y0233821D01*
X0118548Y0233893D01*
X0118609Y0233954D01*
X0118675Y0234015D01*
X0118731Y0234059D01*
X0118786Y0234098D01*
X0118831Y0234126D01*
X0118858Y0234143D01*
X0118869Y0234148D01*
X0118964Y0234193D01*
X0119064Y0234226D01*
X0119169Y0234248D01*
X0119264Y0234265D01*
X0119341Y0234276D01*
X0119380D01*
X0119408Y0234281D01*
X0119469D01*
X0119630Y0234270D01*
D02*
G37*
G36*
X0118359Y0237600D02*
X0118475Y0237589D01*
X0118586Y0237573D01*
X0118686Y0237556D01*
X0118781Y0237528D01*
X0118869Y0237500D01*
X0118947Y0237467D01*
X0119019Y0237439D01*
X0119080Y0237406D01*
X0119136Y0237373D01*
X0119180Y0237345D01*
X0119219Y0237323D01*
X0119247Y0237301D01*
X0119269Y0237284D01*
X0119280Y0237273D01*
X0119286Y0237267D01*
X0119352Y0237201D01*
X0119408Y0237134D01*
X0119458Y0237068D01*
X0119502Y0236995D01*
X0119536Y0236923D01*
X0119569Y0236857D01*
X0119613Y0236723D01*
X0119624Y0236657D01*
X0119635Y0236601D01*
X0119647Y0236551D01*
X0119652Y0236507D01*
X0119658Y0236474D01*
Y0236446D01*
Y0236429D01*
Y0236424D01*
X0119652Y0236340D01*
X0119641Y0236257D01*
X0119624Y0236174D01*
X0119597Y0236102D01*
X0119536Y0235963D01*
X0119463Y0235846D01*
X0119430Y0235796D01*
X0119391Y0235752D01*
X0119358Y0235713D01*
X0119330Y0235680D01*
X0119302Y0235652D01*
X0119286Y0235636D01*
X0119275Y0235625D01*
X0119269Y0235619D01*
X0120651D01*
Y0234881D01*
X0116810D01*
Y0235563D01*
X0117216D01*
X0117132Y0235630D01*
X0117060Y0235697D01*
X0117005Y0235763D01*
X0116955Y0235824D01*
X0116916Y0235880D01*
X0116888Y0235924D01*
X0116872Y0235952D01*
X0116866Y0235963D01*
X0116827Y0236052D01*
X0116799Y0236135D01*
X0116777Y0236213D01*
X0116766Y0236285D01*
X0116755Y0236346D01*
X0116749Y0236396D01*
Y0236424D01*
Y0236435D01*
X0116755Y0236524D01*
X0116766Y0236612D01*
X0116783Y0236690D01*
X0116810Y0236768D01*
X0116872Y0236912D01*
X0116905Y0236973D01*
X0116944Y0237034D01*
X0116977Y0237084D01*
X0117010Y0237128D01*
X0117044Y0237167D01*
X0117071Y0237201D01*
X0117099Y0237228D01*
X0117116Y0237245D01*
X0117127Y0237256D01*
X0117132Y0237262D01*
X0117210Y0237323D01*
X0117288Y0237373D01*
X0117376Y0237423D01*
X0117465Y0237461D01*
X0117560Y0237495D01*
X0117648Y0237523D01*
X0117826Y0237561D01*
X0117909Y0237578D01*
X0117987Y0237589D01*
X0118054Y0237595D01*
X0118115Y0237600D01*
X0118165Y0237606D01*
X0118231D01*
X0118359Y0237600D01*
D02*
G37*
G36*
X0153864Y0175800D02*
X0149200D01*
Y0176420D01*
X0151316D01*
Y0178611D01*
X0151869D01*
Y0176420D01*
X0153311D01*
Y0178954D01*
X0153864D01*
Y0175800D01*
D02*
G37*
G36*
X0152584Y0193075D02*
X0150514Y0192326D01*
X0150380Y0192279D01*
X0150258Y0192232D01*
X0150144Y0192198D01*
X0150056Y0192165D01*
X0149975Y0192145D01*
X0149921Y0192124D01*
X0149888Y0192118D01*
X0149874Y0192111D01*
X0150002Y0192070D01*
X0150130Y0192037D01*
X0150245Y0191996D01*
X0150346Y0191963D01*
X0150433Y0191936D01*
X0150501Y0191915D01*
X0150521Y0191909D01*
X0150541Y0191902D01*
X0150548Y0191895D01*
X0150555D01*
X0152584Y0191167D01*
Y0190561D01*
X0149200Y0191834D01*
Y0192380D01*
X0152584Y0193668D01*
Y0193075D01*
D02*
G37*
G36*
X0149274Y0205766D02*
X0149348Y0205732D01*
X0149416Y0205705D01*
X0149476Y0205692D01*
X0149530Y0205672D01*
X0149571Y0205665D01*
X0149598Y0205658D01*
X0149604D01*
X0149652Y0205651D01*
X0149712Y0205645D01*
X0149780D01*
X0149854Y0205638D01*
X0150022Y0205631D01*
X0150191D01*
X0150353Y0205625D01*
X0151512D01*
X0151626Y0205618D01*
X0151714Y0205611D01*
X0151788D01*
X0151842Y0205604D01*
X0151883Y0205597D01*
X0151903Y0205591D01*
X0151909D01*
X0151997Y0205571D01*
X0152071Y0205544D01*
X0152132Y0205517D01*
X0152193Y0205483D01*
X0152233Y0205456D01*
X0152267Y0205436D01*
X0152287Y0205422D01*
X0152294Y0205416D01*
X0152348Y0205362D01*
X0152401Y0205301D01*
X0152442Y0205234D01*
X0152482Y0205166D01*
X0152509Y0205105D01*
X0152530Y0205058D01*
X0152543Y0205025D01*
X0152550Y0205011D01*
X0152584Y0204903D01*
X0152610Y0204789D01*
X0152631Y0204674D01*
X0152644Y0204560D01*
X0152651Y0204458D01*
X0152658Y0204384D01*
Y0204351D01*
Y0204330D01*
Y0204317D01*
Y0204310D01*
X0152651Y0204148D01*
X0152637Y0204007D01*
X0152617Y0203872D01*
X0152597Y0203764D01*
X0152577Y0203670D01*
X0152557Y0203603D01*
X0152550Y0203575D01*
X0152543Y0203555D01*
X0152536Y0203549D01*
Y0203542D01*
X0152489Y0203427D01*
X0152428Y0203326D01*
X0152374Y0203239D01*
X0152321Y0203164D01*
X0152267Y0203111D01*
X0152226Y0203070D01*
X0152199Y0203043D01*
X0152193Y0203036D01*
X0152105Y0202976D01*
X0152011Y0202922D01*
X0151916Y0202881D01*
X0151829Y0202848D01*
X0151741Y0202821D01*
X0151680Y0202800D01*
X0151653Y0202794D01*
X0151633D01*
X0151626Y0202787D01*
X0151620D01*
X0151546Y0203346D01*
X0151667Y0203387D01*
X0151775Y0203427D01*
X0151862Y0203474D01*
X0151930Y0203515D01*
X0151984Y0203555D01*
X0152017Y0203589D01*
X0152038Y0203616D01*
X0152044Y0203623D01*
X0152092Y0203704D01*
X0152125Y0203798D01*
X0152152Y0203899D01*
X0152166Y0203993D01*
X0152179Y0204088D01*
X0152186Y0204155D01*
Y0204182D01*
Y0204202D01*
Y0204216D01*
Y0204223D01*
X0152179Y0204378D01*
X0152159Y0204512D01*
X0152125Y0204620D01*
X0152092Y0204715D01*
X0152051Y0204782D01*
X0152024Y0204836D01*
X0151997Y0204870D01*
X0151990Y0204876D01*
X0151930Y0204930D01*
X0151856Y0204971D01*
X0151775Y0205004D01*
X0151694Y0205025D01*
X0151620Y0205038D01*
X0151552Y0205045D01*
X0151411D01*
X0151370Y0205038D01*
X0151350D01*
X0151330Y0204971D01*
X0151310Y0204897D01*
X0151269Y0204742D01*
X0151235Y0204566D01*
X0151202Y0204405D01*
X0151188Y0204324D01*
X0151182Y0204250D01*
X0151168Y0204182D01*
X0151161Y0204128D01*
X0151155Y0204081D01*
Y0204047D01*
X0151148Y0204020D01*
Y0204014D01*
X0151134Y0203892D01*
X0151114Y0203791D01*
X0151101Y0203704D01*
X0151087Y0203636D01*
X0151081Y0203582D01*
X0151067Y0203542D01*
X0151060Y0203515D01*
Y0203508D01*
X0151033Y0203420D01*
X0151006Y0203346D01*
X0150973Y0203272D01*
X0150946Y0203212D01*
X0150919Y0203158D01*
X0150892Y0203124D01*
X0150878Y0203097D01*
X0150872Y0203090D01*
X0150824Y0203023D01*
X0150770Y0202969D01*
X0150716Y0202915D01*
X0150663Y0202875D01*
X0150615Y0202841D01*
X0150575Y0202814D01*
X0150548Y0202800D01*
X0150541Y0202794D01*
X0150467Y0202760D01*
X0150386Y0202733D01*
X0150312Y0202713D01*
X0150238Y0202699D01*
X0150177Y0202693D01*
X0150130Y0202686D01*
X0150090D01*
X0150009Y0202693D01*
X0149941Y0202699D01*
X0149800Y0202733D01*
X0149685Y0202780D01*
X0149584Y0202834D01*
X0149503Y0202888D01*
X0149443Y0202935D01*
X0149409Y0202969D01*
X0149396Y0202982D01*
X0149308Y0203104D01*
X0149240Y0203239D01*
X0149193Y0203387D01*
X0149160Y0203522D01*
X0149139Y0203643D01*
X0149133Y0203697D01*
Y0203744D01*
X0149126Y0203784D01*
Y0203811D01*
Y0203832D01*
Y0203838D01*
X0149133Y0203960D01*
X0149146Y0204081D01*
X0149160Y0204189D01*
X0149180Y0204283D01*
X0149200Y0204357D01*
X0149220Y0204418D01*
X0149227Y0204458D01*
X0149234Y0204472D01*
X0149281Y0204587D01*
X0149341Y0204694D01*
X0149409Y0204796D01*
X0149470Y0204897D01*
X0149530Y0204977D01*
X0149577Y0205038D01*
X0149611Y0205079D01*
X0149625Y0205085D01*
Y0205092D01*
X0149537Y0205105D01*
X0149456Y0205119D01*
X0149382Y0205133D01*
X0149321Y0205153D01*
X0149267Y0205173D01*
X0149234Y0205186D01*
X0149207Y0205193D01*
X0149200Y0205200D01*
Y0205800D01*
X0149274Y0205766D01*
D02*
G37*
G36*
X0149706Y0207754D02*
X0149699Y0207700D01*
X0149692Y0207646D01*
Y0207599D01*
X0149685Y0207566D01*
Y0207539D01*
Y0207518D01*
Y0207505D01*
Y0207498D01*
X0149692Y0207411D01*
X0149706Y0207350D01*
X0149719Y0207316D01*
X0149726Y0207303D01*
X0149759Y0207256D01*
X0149793Y0207229D01*
X0149820Y0207208D01*
X0149834Y0207202D01*
X0149867Y0207195D01*
X0149914Y0207188D01*
X0150022Y0207181D01*
X0150069Y0207175D01*
X0152139D01*
Y0207754D01*
X0152584D01*
Y0207175D01*
X0153763D01*
X0153419Y0206602D01*
X0152584D01*
Y0206177D01*
X0152139D01*
Y0206602D01*
X0150009D01*
X0149935Y0206609D01*
X0149861Y0206615D01*
X0149800D01*
X0149746Y0206622D01*
X0149658Y0206635D01*
X0149591Y0206649D01*
X0149544Y0206656D01*
X0149517Y0206669D01*
X0149510D01*
X0149449Y0206696D01*
X0149402Y0206737D01*
X0149355Y0206777D01*
X0149321Y0206811D01*
X0149288Y0206851D01*
X0149267Y0206878D01*
X0149254Y0206898D01*
X0149247Y0206905D01*
X0149214Y0206979D01*
X0149193Y0207053D01*
X0149173Y0207134D01*
X0149166Y0207215D01*
X0149160Y0207282D01*
X0149153Y0207336D01*
Y0207377D01*
Y0207390D01*
X0149160Y0207539D01*
X0149166Y0207613D01*
X0149180Y0207680D01*
X0149187Y0207741D01*
X0149193Y0207788D01*
X0149200Y0207815D01*
Y0207828D01*
X0149706Y0207754D01*
D02*
G37*
G36*
X0152584Y0208320D02*
X0149200D01*
Y0208893D01*
X0152584D01*
Y0208320D01*
D02*
G37*
G36*
X0149274Y0197065D02*
X0149348Y0197031D01*
X0149416Y0197004D01*
X0149476Y0196991D01*
X0149530Y0196970D01*
X0149571Y0196964D01*
X0149598Y0196957D01*
X0149604D01*
X0149652Y0196950D01*
X0149712Y0196943D01*
X0149780D01*
X0149854Y0196937D01*
X0150022Y0196930D01*
X0150191D01*
X0150353Y0196923D01*
X0151512D01*
X0151626Y0196916D01*
X0151714Y0196910D01*
X0151788D01*
X0151842Y0196903D01*
X0151883Y0196896D01*
X0151903Y0196889D01*
X0151909D01*
X0151997Y0196869D01*
X0152071Y0196842D01*
X0152132Y0196815D01*
X0152193Y0196782D01*
X0152233Y0196755D01*
X0152267Y0196734D01*
X0152287Y0196721D01*
X0152294Y0196714D01*
X0152348Y0196660D01*
X0152401Y0196600D01*
X0152442Y0196532D01*
X0152482Y0196465D01*
X0152509Y0196404D01*
X0152530Y0196357D01*
X0152543Y0196323D01*
X0152550Y0196310D01*
X0152584Y0196202D01*
X0152610Y0196087D01*
X0152631Y0195973D01*
X0152644Y0195858D01*
X0152651Y0195757D01*
X0152658Y0195683D01*
Y0195649D01*
Y0195629D01*
Y0195616D01*
Y0195609D01*
X0152651Y0195447D01*
X0152637Y0195306D01*
X0152617Y0195171D01*
X0152597Y0195063D01*
X0152577Y0194969D01*
X0152557Y0194901D01*
X0152550Y0194874D01*
X0152543Y0194854D01*
X0152536Y0194847D01*
Y0194841D01*
X0152489Y0194726D01*
X0152428Y0194625D01*
X0152374Y0194537D01*
X0152321Y0194463D01*
X0152267Y0194409D01*
X0152226Y0194369D01*
X0152199Y0194342D01*
X0152193Y0194335D01*
X0152105Y0194274D01*
X0152011Y0194220D01*
X0151916Y0194180D01*
X0151829Y0194146D01*
X0151741Y0194119D01*
X0151680Y0194099D01*
X0151653Y0194092D01*
X0151633D01*
X0151626Y0194086D01*
X0151620D01*
X0151546Y0194645D01*
X0151667Y0194685D01*
X0151775Y0194726D01*
X0151862Y0194773D01*
X0151930Y0194814D01*
X0151984Y0194854D01*
X0152017Y0194888D01*
X0152038Y0194915D01*
X0152044Y0194921D01*
X0152092Y0195002D01*
X0152125Y0195097D01*
X0152152Y0195198D01*
X0152166Y0195292D01*
X0152179Y0195386D01*
X0152186Y0195454D01*
Y0195481D01*
Y0195501D01*
Y0195515D01*
Y0195521D01*
X0152179Y0195676D01*
X0152159Y0195811D01*
X0152125Y0195919D01*
X0152092Y0196013D01*
X0152051Y0196081D01*
X0152024Y0196135D01*
X0151997Y0196168D01*
X0151990Y0196175D01*
X0151930Y0196229D01*
X0151856Y0196269D01*
X0151775Y0196303D01*
X0151694Y0196323D01*
X0151620Y0196337D01*
X0151552Y0196344D01*
X0151411D01*
X0151370Y0196337D01*
X0151350D01*
X0151330Y0196269D01*
X0151310Y0196195D01*
X0151269Y0196040D01*
X0151235Y0195865D01*
X0151202Y0195703D01*
X0151188Y0195622D01*
X0151182Y0195548D01*
X0151168Y0195481D01*
X0151161Y0195427D01*
X0151155Y0195380D01*
Y0195346D01*
X0151148Y0195319D01*
Y0195312D01*
X0151134Y0195191D01*
X0151114Y0195090D01*
X0151101Y0195002D01*
X0151087Y0194935D01*
X0151081Y0194881D01*
X0151067Y0194841D01*
X0151060Y0194814D01*
Y0194807D01*
X0151033Y0194719D01*
X0151006Y0194645D01*
X0150973Y0194571D01*
X0150946Y0194510D01*
X0150919Y0194456D01*
X0150892Y0194423D01*
X0150878Y0194396D01*
X0150872Y0194389D01*
X0150824Y0194322D01*
X0150770Y0194268D01*
X0150716Y0194214D01*
X0150663Y0194173D01*
X0150615Y0194140D01*
X0150575Y0194113D01*
X0150548Y0194099D01*
X0150541Y0194092D01*
X0150467Y0194059D01*
X0150386Y0194032D01*
X0150312Y0194011D01*
X0150238Y0193998D01*
X0150177Y0193991D01*
X0150130Y0193984D01*
X0150090D01*
X0150009Y0193991D01*
X0149941Y0193998D01*
X0149800Y0194032D01*
X0149685Y0194079D01*
X0149584Y0194133D01*
X0149503Y0194187D01*
X0149443Y0194234D01*
X0149409Y0194268D01*
X0149396Y0194281D01*
X0149308Y0194402D01*
X0149240Y0194537D01*
X0149193Y0194685D01*
X0149160Y0194820D01*
X0149139Y0194942D01*
X0149133Y0194995D01*
Y0195043D01*
X0149126Y0195083D01*
Y0195110D01*
Y0195130D01*
Y0195137D01*
X0149133Y0195258D01*
X0149146Y0195380D01*
X0149160Y0195487D01*
X0149180Y0195582D01*
X0149200Y0195656D01*
X0149220Y0195717D01*
X0149227Y0195757D01*
X0149234Y0195771D01*
X0149281Y0195885D01*
X0149341Y0195993D01*
X0149409Y0196094D01*
X0149470Y0196195D01*
X0149530Y0196276D01*
X0149577Y0196337D01*
X0149611Y0196377D01*
X0149625Y0196384D01*
Y0196391D01*
X0149537Y0196404D01*
X0149456Y0196418D01*
X0149382Y0196431D01*
X0149321Y0196451D01*
X0149267Y0196472D01*
X0149234Y0196485D01*
X0149207Y0196492D01*
X0149200Y0196499D01*
Y0197098D01*
X0149274Y0197065D01*
D02*
G37*
G36*
X0153864Y0197793D02*
X0149200D01*
Y0198365D01*
X0153864D01*
Y0197793D01*
D02*
G37*
G36*
X0152584Y0201412D02*
X0150770D01*
X0150615Y0201405D01*
X0150481Y0201398D01*
X0150366Y0201385D01*
X0150272Y0201365D01*
X0150198Y0201345D01*
X0150144Y0201331D01*
X0150117Y0201324D01*
X0150103Y0201318D01*
X0150022Y0201277D01*
X0149955Y0201230D01*
X0149894Y0201176D01*
X0149840Y0201122D01*
X0149800Y0201075D01*
X0149773Y0201035D01*
X0149753Y0201008D01*
X0149746Y0200994D01*
X0149706Y0200906D01*
X0149672Y0200819D01*
X0149652Y0200738D01*
X0149631Y0200664D01*
X0149625Y0200603D01*
X0149618Y0200556D01*
Y0200522D01*
Y0200509D01*
X0149625Y0200414D01*
X0149638Y0200334D01*
X0149658Y0200259D01*
X0149685Y0200199D01*
X0149706Y0200145D01*
X0149726Y0200111D01*
X0149739Y0200084D01*
X0149746Y0200078D01*
X0149800Y0200017D01*
X0149854Y0199970D01*
X0149914Y0199929D01*
X0149968Y0199896D01*
X0150022Y0199875D01*
X0150063Y0199862D01*
X0150090Y0199848D01*
X0150096D01*
X0150171Y0199835D01*
X0150258Y0199828D01*
X0150359Y0199821D01*
X0150460D01*
X0150555Y0199815D01*
X0152584D01*
Y0199242D01*
X0150359D01*
X0150245Y0199249D01*
X0150157Y0199255D01*
X0150076Y0199262D01*
X0150022D01*
X0149982Y0199269D01*
X0149955Y0199275D01*
X0149948D01*
X0149861Y0199296D01*
X0149780Y0199323D01*
X0149706Y0199350D01*
X0149645Y0199383D01*
X0149591Y0199410D01*
X0149557Y0199430D01*
X0149530Y0199444D01*
X0149523Y0199451D01*
X0149463Y0199505D01*
X0149409Y0199565D01*
X0149362Y0199626D01*
X0149321Y0199693D01*
X0149288Y0199747D01*
X0149261Y0199794D01*
X0149247Y0199821D01*
X0149240Y0199835D01*
X0149200Y0199936D01*
X0149173Y0200030D01*
X0149153Y0200125D01*
X0149139Y0200212D01*
X0149133Y0200286D01*
X0149126Y0200347D01*
Y0200381D01*
Y0200394D01*
X0149133Y0200516D01*
X0149153Y0200637D01*
X0149180Y0200745D01*
X0149214Y0200853D01*
X0149261Y0200947D01*
X0149308Y0201035D01*
X0149355Y0201115D01*
X0149409Y0201190D01*
X0149463Y0201257D01*
X0149510Y0201311D01*
X0149564Y0201358D01*
X0149604Y0201398D01*
X0149638Y0201432D01*
X0149665Y0201452D01*
X0149685Y0201466D01*
X0149692Y0201473D01*
X0149200D01*
Y0201985D01*
X0152584D01*
Y0201412D01*
D02*
G37*
G36*
X0138174Y0188868D02*
X0138248Y0188835D01*
X0138316Y0188808D01*
X0138376Y0188794D01*
X0138430Y0188774D01*
X0138471Y0188767D01*
X0138498Y0188761D01*
X0138504D01*
X0138552Y0188754D01*
X0138612Y0188747D01*
X0138680D01*
X0138754Y0188741D01*
X0138922Y0188734D01*
X0139091D01*
X0139252Y0188727D01*
X0140412D01*
X0140526Y0188720D01*
X0140614Y0188714D01*
X0140688D01*
X0140742Y0188707D01*
X0140782Y0188700D01*
X0140803Y0188693D01*
X0140810D01*
X0140897Y0188673D01*
X0140971Y0188646D01*
X0141032Y0188619D01*
X0141093Y0188585D01*
X0141133Y0188558D01*
X0141167Y0188538D01*
X0141187Y0188525D01*
X0141194Y0188518D01*
X0141248Y0188464D01*
X0141302Y0188403D01*
X0141342Y0188336D01*
X0141382Y0188269D01*
X0141409Y0188208D01*
X0141430Y0188161D01*
X0141443Y0188127D01*
X0141450Y0188114D01*
X0141483Y0188006D01*
X0141510Y0187891D01*
X0141531Y0187777D01*
X0141544Y0187662D01*
X0141551Y0187561D01*
X0141558Y0187487D01*
Y0187453D01*
Y0187433D01*
Y0187419D01*
Y0187413D01*
X0141551Y0187251D01*
X0141537Y0187109D01*
X0141517Y0186975D01*
X0141497Y0186867D01*
X0141477Y0186772D01*
X0141456Y0186705D01*
X0141450Y0186678D01*
X0141443Y0186658D01*
X0141436Y0186651D01*
Y0186644D01*
X0141389Y0186530D01*
X0141329Y0186429D01*
X0141274Y0186341D01*
X0141221Y0186267D01*
X0141167Y0186213D01*
X0141126Y0186172D01*
X0141099Y0186146D01*
X0141093Y0186139D01*
X0141005Y0186078D01*
X0140911Y0186024D01*
X0140816Y0185984D01*
X0140729Y0185950D01*
X0140641Y0185923D01*
X0140580Y0185903D01*
X0140553Y0185896D01*
X0140533D01*
X0140526Y0185889D01*
X0140520D01*
X0140445Y0186449D01*
X0140567Y0186489D01*
X0140675Y0186530D01*
X0140762Y0186577D01*
X0140830Y0186617D01*
X0140884Y0186658D01*
X0140917Y0186691D01*
X0140937Y0186718D01*
X0140944Y0186725D01*
X0140991Y0186806D01*
X0141025Y0186900D01*
X0141052Y0187002D01*
X0141066Y0187096D01*
X0141079Y0187190D01*
X0141086Y0187258D01*
Y0187285D01*
Y0187305D01*
Y0187318D01*
Y0187325D01*
X0141079Y0187480D01*
X0141059Y0187615D01*
X0141025Y0187723D01*
X0140991Y0187817D01*
X0140951Y0187884D01*
X0140924Y0187938D01*
X0140897Y0187972D01*
X0140890Y0187979D01*
X0140830Y0188033D01*
X0140756Y0188073D01*
X0140675Y0188107D01*
X0140594Y0188127D01*
X0140520Y0188141D01*
X0140452Y0188147D01*
X0140311D01*
X0140270Y0188141D01*
X0140250D01*
X0140230Y0188073D01*
X0140210Y0187999D01*
X0140169Y0187844D01*
X0140136Y0187669D01*
X0140102Y0187507D01*
X0140088Y0187426D01*
X0140082Y0187352D01*
X0140068Y0187285D01*
X0140061Y0187231D01*
X0140055Y0187183D01*
Y0187150D01*
X0140048Y0187123D01*
Y0187116D01*
X0140034Y0186995D01*
X0140014Y0186894D01*
X0140001Y0186806D01*
X0139987Y0186739D01*
X0139980Y0186685D01*
X0139967Y0186644D01*
X0139960Y0186617D01*
Y0186611D01*
X0139933Y0186523D01*
X0139906Y0186449D01*
X0139873Y0186375D01*
X0139846Y0186314D01*
X0139819Y0186260D01*
X0139792Y0186226D01*
X0139778Y0186199D01*
X0139771Y0186193D01*
X0139724Y0186125D01*
X0139670Y0186071D01*
X0139617Y0186018D01*
X0139563Y0185977D01*
X0139515Y0185943D01*
X0139475Y0185916D01*
X0139448Y0185903D01*
X0139441Y0185896D01*
X0139367Y0185863D01*
X0139286Y0185836D01*
X0139212Y0185815D01*
X0139138Y0185802D01*
X0139077Y0185795D01*
X0139030Y0185788D01*
X0138990D01*
X0138909Y0185795D01*
X0138841Y0185802D01*
X0138700Y0185836D01*
X0138585Y0185883D01*
X0138484Y0185937D01*
X0138403Y0185991D01*
X0138343Y0186038D01*
X0138309Y0186071D01*
X0138295Y0186085D01*
X0138208Y0186206D01*
X0138140Y0186341D01*
X0138093Y0186489D01*
X0138060Y0186624D01*
X0138039Y0186745D01*
X0138033Y0186799D01*
Y0186846D01*
X0138026Y0186887D01*
Y0186914D01*
Y0186934D01*
Y0186941D01*
X0138033Y0187062D01*
X0138046Y0187183D01*
X0138060Y0187291D01*
X0138080Y0187386D01*
X0138100Y0187460D01*
X0138120Y0187521D01*
X0138127Y0187561D01*
X0138134Y0187574D01*
X0138181Y0187689D01*
X0138242Y0187797D01*
X0138309Y0187898D01*
X0138370Y0187999D01*
X0138430Y0188080D01*
X0138477Y0188141D01*
X0138511Y0188181D01*
X0138525Y0188188D01*
Y0188195D01*
X0138437Y0188208D01*
X0138356Y0188222D01*
X0138282Y0188235D01*
X0138221Y0188255D01*
X0138167Y0188275D01*
X0138134Y0188289D01*
X0138107Y0188296D01*
X0138100Y0188302D01*
Y0188902D01*
X0138174Y0188868D01*
D02*
G37*
G36*
X0139987Y0219744D02*
X0140122Y0219731D01*
X0140250Y0219711D01*
X0140371Y0219684D01*
X0140486Y0219650D01*
X0140587Y0219610D01*
X0140688Y0219569D01*
X0140769Y0219529D01*
X0140843Y0219488D01*
X0140911Y0219448D01*
X0140971Y0219408D01*
X0141018Y0219374D01*
X0141052Y0219347D01*
X0141079Y0219327D01*
X0141093Y0219313D01*
X0141099Y0219306D01*
X0141180Y0219219D01*
X0141248Y0219131D01*
X0141315Y0219037D01*
X0141362Y0218942D01*
X0141409Y0218848D01*
X0141443Y0218754D01*
X0141504Y0218572D01*
X0141517Y0218484D01*
X0141531Y0218410D01*
X0141544Y0218342D01*
X0141551Y0218282D01*
X0141558Y0218235D01*
Y0218201D01*
Y0218174D01*
Y0218167D01*
X0141551Y0218053D01*
X0141544Y0217945D01*
X0141497Y0217736D01*
X0141436Y0217554D01*
X0141403Y0217473D01*
X0141369Y0217399D01*
X0141335Y0217332D01*
X0141302Y0217278D01*
X0141268Y0217224D01*
X0141241Y0217183D01*
X0141214Y0217150D01*
X0141194Y0217123D01*
X0141187Y0217109D01*
X0141180Y0217102D01*
X0141093Y0217008D01*
X0140991Y0216934D01*
X0140884Y0216860D01*
X0140776Y0216806D01*
X0140661Y0216752D01*
X0140540Y0216711D01*
X0140425Y0216678D01*
X0140317Y0216651D01*
X0140210Y0216624D01*
X0140115Y0216610D01*
X0140021Y0216597D01*
X0139947Y0216590D01*
X0139879D01*
X0139832Y0216583D01*
X0139792D01*
X0139637Y0216590D01*
X0139488Y0216604D01*
X0139354Y0216624D01*
X0139226Y0216651D01*
X0139111Y0216685D01*
X0139003Y0216718D01*
X0138902Y0216759D01*
X0138814Y0216799D01*
X0138734Y0216840D01*
X0138666Y0216880D01*
X0138612Y0216914D01*
X0138565Y0216947D01*
X0138525Y0216974D01*
X0138498Y0216995D01*
X0138484Y0217008D01*
X0138477Y0217015D01*
X0138397Y0217102D01*
X0138329Y0217190D01*
X0138268Y0217284D01*
X0138215Y0217379D01*
X0138174Y0217473D01*
X0138134Y0217574D01*
X0138080Y0217756D01*
X0138066Y0217837D01*
X0138053Y0217918D01*
X0138039Y0217985D01*
X0138033Y0218046D01*
X0138026Y0218100D01*
Y0218134D01*
Y0218161D01*
Y0218167D01*
X0138033Y0218329D01*
X0138060Y0218477D01*
X0138093Y0218619D01*
X0138127Y0218734D01*
X0138167Y0218835D01*
X0138181Y0218875D01*
X0138194Y0218909D01*
X0138208Y0218942D01*
X0138221Y0218963D01*
X0138228Y0218969D01*
Y0218976D01*
X0138316Y0219111D01*
X0138410Y0219226D01*
X0138504Y0219327D01*
X0138599Y0219408D01*
X0138680Y0219468D01*
X0138747Y0219515D01*
X0138774Y0219529D01*
X0138794Y0219542D01*
X0138801Y0219549D01*
X0138808D01*
X0138963Y0219616D01*
X0139131Y0219664D01*
X0139300Y0219704D01*
X0139468Y0219724D01*
X0139542Y0219738D01*
X0139610D01*
X0139677Y0219744D01*
X0139731Y0219751D01*
X0139839D01*
X0139987Y0219744D01*
D02*
G37*
G36*
X0141430Y0222137D02*
X0141477Y0222029D01*
X0141510Y0221935D01*
X0141537Y0221847D01*
X0141551Y0221773D01*
X0141558Y0221712D01*
Y0221679D01*
Y0221665D01*
X0141551Y0221591D01*
X0141537Y0221524D01*
X0141517Y0221456D01*
X0141497Y0221403D01*
X0141477Y0221362D01*
X0141456Y0221322D01*
X0141443Y0221301D01*
X0141436Y0221295D01*
X0141382Y0221234D01*
X0141315Y0221173D01*
X0141234Y0221113D01*
X0141160Y0221059D01*
X0141086Y0221005D01*
X0141025Y0220971D01*
X0140978Y0220944D01*
X0140971Y0220937D01*
X0141483D01*
Y0220419D01*
X0138100D01*
Y0220991D01*
X0139866D01*
X0140001Y0220998D01*
X0140122Y0221005D01*
X0140237Y0221018D01*
X0140338Y0221039D01*
X0140419Y0221059D01*
X0140479Y0221072D01*
X0140520Y0221079D01*
X0140533Y0221086D01*
X0140607Y0221113D01*
X0140668Y0221146D01*
X0140722Y0221180D01*
X0140769Y0221214D01*
X0140803Y0221248D01*
X0140830Y0221268D01*
X0140843Y0221288D01*
X0140850Y0221295D01*
X0140890Y0221349D01*
X0140917Y0221409D01*
X0140937Y0221470D01*
X0140951Y0221517D01*
X0140958Y0221564D01*
X0140964Y0221598D01*
Y0221625D01*
Y0221632D01*
X0140958Y0221706D01*
X0140944Y0221780D01*
X0140924Y0221854D01*
X0140904Y0221915D01*
X0140884Y0221969D01*
X0140863Y0222009D01*
X0140850Y0222036D01*
X0140843Y0222043D01*
X0141369Y0222252D01*
X0141430Y0222137D01*
D02*
G37*
G36*
X0142805Y0216482D02*
X0142818Y0216388D01*
X0142832Y0216294D01*
X0142838Y0216213D01*
X0142845Y0216152D01*
Y0216098D01*
Y0216071D01*
Y0216058D01*
X0142838Y0215923D01*
X0142825Y0215808D01*
X0142798Y0215707D01*
X0142778Y0215626D01*
X0142751Y0215559D01*
X0142724Y0215512D01*
X0142710Y0215478D01*
X0142703Y0215471D01*
X0142649Y0215397D01*
X0142589Y0215336D01*
X0142528Y0215289D01*
X0142474Y0215249D01*
X0142427Y0215215D01*
X0142387Y0215195D01*
X0142353Y0215188D01*
X0142346Y0215181D01*
X0142279Y0215161D01*
X0142198Y0215148D01*
X0142110Y0215134D01*
X0142029Y0215128D01*
X0141955D01*
X0141895Y0215121D01*
X0141483D01*
Y0214615D01*
X0141039D01*
Y0215121D01*
X0138100D01*
Y0215694D01*
X0141039D01*
Y0216348D01*
X0141483D01*
Y0215694D01*
X0141794D01*
X0141901Y0215701D01*
X0141989Y0215714D01*
X0142056Y0215727D01*
X0142110Y0215748D01*
X0142157Y0215768D01*
X0142184Y0215788D01*
X0142198Y0215795D01*
X0142205Y0215802D01*
X0142245Y0215849D01*
X0142272Y0215903D01*
X0142292Y0215963D01*
X0142306Y0216024D01*
X0142313Y0216078D01*
X0142319Y0216125D01*
Y0216152D01*
Y0216165D01*
X0142313Y0216287D01*
X0142306Y0216341D01*
Y0216395D01*
X0142299Y0216442D01*
X0142292Y0216476D01*
X0142286Y0216496D01*
Y0216502D01*
X0142784Y0216590D01*
X0142805Y0216482D01*
D02*
G37*
G36*
X0139947Y0208839D02*
X0140088Y0208826D01*
X0140223Y0208805D01*
X0140351Y0208779D01*
X0140466Y0208745D01*
X0140574Y0208711D01*
X0140668Y0208671D01*
X0140756Y0208630D01*
X0140836Y0208590D01*
X0140904Y0208549D01*
X0140958Y0208516D01*
X0141005Y0208482D01*
X0141045Y0208455D01*
X0141072Y0208435D01*
X0141086Y0208421D01*
X0141093Y0208415D01*
X0141173Y0208334D01*
X0141248Y0208246D01*
X0141308Y0208152D01*
X0141362Y0208057D01*
X0141409Y0207963D01*
X0141443Y0207875D01*
X0141477Y0207781D01*
X0141497Y0207700D01*
X0141517Y0207612D01*
X0141531Y0207538D01*
X0141544Y0207471D01*
X0141551Y0207417D01*
X0141558Y0207370D01*
Y0207329D01*
Y0207309D01*
Y0207302D01*
X0141551Y0207174D01*
X0141537Y0207053D01*
X0141517Y0206939D01*
X0141483Y0206831D01*
X0141450Y0206730D01*
X0141409Y0206635D01*
X0141369Y0206547D01*
X0141322Y0206473D01*
X0141281Y0206399D01*
X0141234Y0206339D01*
X0141194Y0206285D01*
X0141160Y0206244D01*
X0141126Y0206210D01*
X0141106Y0206184D01*
X0141093Y0206170D01*
X0141086Y0206163D01*
X0140991Y0206089D01*
X0140890Y0206022D01*
X0140789Y0205961D01*
X0140681Y0205907D01*
X0140567Y0205867D01*
X0140459Y0205833D01*
X0140243Y0205779D01*
X0140149Y0205759D01*
X0140055Y0205746D01*
X0139974Y0205739D01*
X0139900Y0205732D01*
X0139839Y0205725D01*
X0139758D01*
X0139610Y0205732D01*
X0139468Y0205746D01*
X0139333Y0205766D01*
X0139212Y0205793D01*
X0139097Y0205826D01*
X0138990Y0205860D01*
X0138895Y0205901D01*
X0138808Y0205941D01*
X0138734Y0205981D01*
X0138666Y0206022D01*
X0138612Y0206055D01*
X0138565Y0206089D01*
X0138525Y0206116D01*
X0138498Y0206136D01*
X0138484Y0206150D01*
X0138477Y0206157D01*
X0138397Y0206244D01*
X0138329Y0206332D01*
X0138268Y0206426D01*
X0138215Y0206527D01*
X0138174Y0206622D01*
X0138134Y0206723D01*
X0138080Y0206911D01*
X0138066Y0206999D01*
X0138053Y0207080D01*
X0138039Y0207154D01*
X0138033Y0207215D01*
X0138026Y0207262D01*
Y0207302D01*
Y0207329D01*
Y0207336D01*
X0138039Y0207545D01*
X0138073Y0207734D01*
X0138113Y0207902D01*
X0138140Y0207970D01*
X0138167Y0208037D01*
X0138194Y0208098D01*
X0138221Y0208152D01*
X0138242Y0208192D01*
X0138262Y0208232D01*
X0138282Y0208260D01*
X0138295Y0208280D01*
X0138309Y0208293D01*
Y0208300D01*
X0138430Y0208435D01*
X0138558Y0208543D01*
X0138693Y0208637D01*
X0138821Y0208704D01*
X0138936Y0208758D01*
X0138990Y0208779D01*
X0139030Y0208799D01*
X0139071Y0208812D01*
X0139097Y0208819D01*
X0139111Y0208826D01*
X0139118D01*
X0139192Y0208232D01*
X0139064Y0208179D01*
X0138956Y0208118D01*
X0138862Y0208057D01*
X0138787Y0208003D01*
X0138734Y0207956D01*
X0138693Y0207916D01*
X0138666Y0207882D01*
X0138659Y0207875D01*
X0138605Y0207788D01*
X0138565Y0207700D01*
X0138538Y0207606D01*
X0138518Y0207525D01*
X0138504Y0207451D01*
X0138498Y0207390D01*
Y0207350D01*
Y0207343D01*
Y0207336D01*
X0138504Y0207255D01*
X0138511Y0207181D01*
X0138545Y0207046D01*
X0138592Y0206925D01*
X0138646Y0206817D01*
X0138693Y0206736D01*
X0138740Y0206676D01*
X0138774Y0206635D01*
X0138787Y0206628D01*
Y0206622D01*
X0138909Y0206527D01*
X0139044Y0206453D01*
X0139192Y0206399D01*
X0139327Y0206359D01*
X0139448Y0206339D01*
X0139502Y0206325D01*
X0139549Y0206318D01*
X0139590D01*
X0139617Y0206312D01*
X0139644D01*
Y0208839D01*
X0139711Y0208846D01*
X0139792D01*
X0139947Y0208839D01*
D02*
G37*
G36*
X0142764Y0211690D02*
X0141093D01*
X0141167Y0211630D01*
X0141227Y0211562D01*
X0141288Y0211501D01*
X0141335Y0211434D01*
X0141369Y0211380D01*
X0141403Y0211340D01*
X0141416Y0211313D01*
X0141423Y0211299D01*
X0141470Y0211212D01*
X0141504Y0211117D01*
X0141524Y0211023D01*
X0141544Y0210935D01*
X0141551Y0210861D01*
X0141558Y0210807D01*
Y0210767D01*
Y0210760D01*
Y0210753D01*
X0141551Y0210605D01*
X0141524Y0210464D01*
X0141490Y0210335D01*
X0141450Y0210228D01*
X0141403Y0210133D01*
X0141369Y0210066D01*
X0141355Y0210039D01*
X0141342Y0210019D01*
X0141335Y0210012D01*
Y0210005D01*
X0141248Y0209884D01*
X0141140Y0209783D01*
X0141039Y0209695D01*
X0140937Y0209628D01*
X0140843Y0209574D01*
X0140769Y0209533D01*
X0140742Y0209520D01*
X0140722Y0209506D01*
X0140708Y0209500D01*
X0140702D01*
X0140547Y0209446D01*
X0140385Y0209405D01*
X0140230Y0209372D01*
X0140088Y0209351D01*
X0139967Y0209338D01*
X0139913D01*
X0139873Y0209331D01*
X0139785D01*
X0139596Y0209338D01*
X0139421Y0209358D01*
X0139266Y0209392D01*
X0139131Y0209425D01*
X0139071Y0209439D01*
X0139023Y0209453D01*
X0138976Y0209473D01*
X0138936Y0209486D01*
X0138909Y0209500D01*
X0138889Y0209506D01*
X0138875Y0209513D01*
X0138868D01*
X0138727Y0209587D01*
X0138605Y0209675D01*
X0138498Y0209763D01*
X0138410Y0209850D01*
X0138343Y0209924D01*
X0138289Y0209985D01*
X0138262Y0210025D01*
X0138248Y0210032D01*
Y0210039D01*
X0138174Y0210167D01*
X0138120Y0210295D01*
X0138080Y0210423D01*
X0138053Y0210538D01*
X0138039Y0210632D01*
X0138033Y0210713D01*
X0138026Y0210740D01*
Y0210760D01*
Y0210773D01*
Y0210780D01*
X0138033Y0210895D01*
X0138046Y0211003D01*
X0138073Y0211104D01*
X0138107Y0211191D01*
X0138140Y0211279D01*
X0138181Y0211360D01*
X0138228Y0211427D01*
X0138275Y0211488D01*
X0138322Y0211549D01*
X0138370Y0211596D01*
X0138410Y0211636D01*
X0138444Y0211670D01*
X0138477Y0211697D01*
X0138504Y0211717D01*
X0138518Y0211724D01*
X0138525Y0211731D01*
X0138100D01*
Y0212263D01*
X0142764D01*
Y0211690D01*
D02*
G37*
G36*
X0141430Y0226120D02*
X0141477Y0226013D01*
X0141510Y0225918D01*
X0141537Y0225831D01*
X0141551Y0225757D01*
X0141558Y0225696D01*
Y0225662D01*
Y0225649D01*
X0141551Y0225575D01*
X0141537Y0225507D01*
X0141517Y0225440D01*
X0141497Y0225386D01*
X0141477Y0225345D01*
X0141456Y0225305D01*
X0141443Y0225285D01*
X0141436Y0225278D01*
X0141382Y0225217D01*
X0141315Y0225157D01*
X0141234Y0225096D01*
X0141160Y0225042D01*
X0141086Y0224988D01*
X0141025Y0224955D01*
X0140978Y0224927D01*
X0140971Y0224921D01*
X0141483D01*
Y0224402D01*
X0138100D01*
Y0224975D01*
X0139866D01*
X0140001Y0224981D01*
X0140122Y0224988D01*
X0140237Y0225002D01*
X0140338Y0225022D01*
X0140419Y0225042D01*
X0140479Y0225056D01*
X0140520Y0225062D01*
X0140533Y0225069D01*
X0140607Y0225096D01*
X0140668Y0225130D01*
X0140722Y0225163D01*
X0140769Y0225197D01*
X0140803Y0225231D01*
X0140830Y0225251D01*
X0140843Y0225271D01*
X0140850Y0225278D01*
X0140890Y0225332D01*
X0140917Y0225393D01*
X0140937Y0225453D01*
X0140951Y0225500D01*
X0140958Y0225548D01*
X0140964Y0225581D01*
Y0225608D01*
Y0225615D01*
X0140958Y0225689D01*
X0140944Y0225763D01*
X0140924Y0225837D01*
X0140904Y0225898D01*
X0140884Y0225952D01*
X0140863Y0225992D01*
X0140850Y0226019D01*
X0140843Y0226026D01*
X0141369Y0226235D01*
X0141430Y0226120D01*
D02*
G37*
G36*
X0142764Y0237080D02*
X0138100D01*
Y0237653D01*
X0142764D01*
Y0237080D01*
D02*
G37*
G36*
X0139947Y0241461D02*
X0140088Y0241447D01*
X0140223Y0241427D01*
X0140351Y0241400D01*
X0140466Y0241366D01*
X0140574Y0241333D01*
X0140668Y0241292D01*
X0140756Y0241252D01*
X0140836Y0241211D01*
X0140904Y0241171D01*
X0140958Y0241137D01*
X0141005Y0241104D01*
X0141045Y0241077D01*
X0141072Y0241056D01*
X0141086Y0241043D01*
X0141093Y0241036D01*
X0141173Y0240955D01*
X0141248Y0240868D01*
X0141308Y0240773D01*
X0141362Y0240679D01*
X0141409Y0240584D01*
X0141443Y0240497D01*
X0141477Y0240403D01*
X0141497Y0240322D01*
X0141517Y0240234D01*
X0141531Y0240160D01*
X0141544Y0240092D01*
X0141551Y0240039D01*
X0141558Y0239991D01*
Y0239951D01*
Y0239931D01*
Y0239924D01*
X0141551Y0239796D01*
X0141537Y0239675D01*
X0141517Y0239560D01*
X0141483Y0239452D01*
X0141450Y0239351D01*
X0141409Y0239257D01*
X0141369Y0239169D01*
X0141322Y0239095D01*
X0141281Y0239021D01*
X0141234Y0238960D01*
X0141194Y0238906D01*
X0141160Y0238866D01*
X0141126Y0238832D01*
X0141106Y0238805D01*
X0141093Y0238792D01*
X0141086Y0238785D01*
X0140991Y0238711D01*
X0140890Y0238643D01*
X0140789Y0238583D01*
X0140681Y0238529D01*
X0140567Y0238488D01*
X0140459Y0238455D01*
X0140243Y0238401D01*
X0140149Y0238381D01*
X0140055Y0238367D01*
X0139974Y0238360D01*
X0139900Y0238354D01*
X0139839Y0238347D01*
X0139758D01*
X0139610Y0238354D01*
X0139468Y0238367D01*
X0139333Y0238387D01*
X0139212Y0238414D01*
X0139097Y0238448D01*
X0138990Y0238482D01*
X0138895Y0238522D01*
X0138808Y0238562D01*
X0138734Y0238603D01*
X0138666Y0238643D01*
X0138612Y0238677D01*
X0138565Y0238711D01*
X0138525Y0238738D01*
X0138498Y0238758D01*
X0138484Y0238772D01*
X0138477Y0238778D01*
X0138397Y0238866D01*
X0138329Y0238953D01*
X0138268Y0239048D01*
X0138215Y0239149D01*
X0138174Y0239243D01*
X0138134Y0239344D01*
X0138080Y0239533D01*
X0138066Y0239621D01*
X0138053Y0239702D01*
X0138039Y0239776D01*
X0138033Y0239836D01*
X0138026Y0239884D01*
Y0239924D01*
Y0239951D01*
Y0239958D01*
X0138039Y0240167D01*
X0138073Y0240355D01*
X0138113Y0240524D01*
X0138140Y0240591D01*
X0138167Y0240659D01*
X0138194Y0240719D01*
X0138221Y0240773D01*
X0138242Y0240814D01*
X0138262Y0240854D01*
X0138282Y0240881D01*
X0138295Y0240901D01*
X0138309Y0240915D01*
Y0240921D01*
X0138430Y0241056D01*
X0138558Y0241164D01*
X0138693Y0241259D01*
X0138821Y0241326D01*
X0138936Y0241380D01*
X0138990Y0241400D01*
X0139030Y0241420D01*
X0139071Y0241434D01*
X0139097Y0241441D01*
X0139111Y0241447D01*
X0139118D01*
X0139192Y0240854D01*
X0139064Y0240800D01*
X0138956Y0240740D01*
X0138862Y0240679D01*
X0138787Y0240625D01*
X0138734Y0240578D01*
X0138693Y0240537D01*
X0138666Y0240504D01*
X0138659Y0240497D01*
X0138605Y0240409D01*
X0138565Y0240322D01*
X0138538Y0240227D01*
X0138518Y0240146D01*
X0138504Y0240072D01*
X0138498Y0240012D01*
Y0239971D01*
Y0239965D01*
Y0239958D01*
X0138504Y0239877D01*
X0138511Y0239803D01*
X0138545Y0239668D01*
X0138592Y0239547D01*
X0138646Y0239439D01*
X0138693Y0239358D01*
X0138740Y0239297D01*
X0138774Y0239257D01*
X0138787Y0239250D01*
Y0239243D01*
X0138909Y0239149D01*
X0139044Y0239075D01*
X0139192Y0239021D01*
X0139327Y0238980D01*
X0139448Y0238960D01*
X0139502Y0238947D01*
X0139549Y0238940D01*
X0139590D01*
X0139617Y0238933D01*
X0139644D01*
Y0241461D01*
X0139711Y0241467D01*
X0139792D01*
X0139947Y0241461D01*
D02*
G37*
G36*
X0138174Y0236352D02*
X0138248Y0236318D01*
X0138316Y0236291D01*
X0138376Y0236278D01*
X0138430Y0236258D01*
X0138471Y0236251D01*
X0138498Y0236244D01*
X0138504D01*
X0138552Y0236237D01*
X0138612Y0236230D01*
X0138680D01*
X0138754Y0236224D01*
X0138922Y0236217D01*
X0139091D01*
X0139252Y0236210D01*
X0140412D01*
X0140526Y0236204D01*
X0140614Y0236197D01*
X0140688D01*
X0140742Y0236190D01*
X0140782Y0236183D01*
X0140803Y0236177D01*
X0140810D01*
X0140897Y0236156D01*
X0140971Y0236129D01*
X0141032Y0236102D01*
X0141093Y0236069D01*
X0141133Y0236042D01*
X0141167Y0236022D01*
X0141187Y0236008D01*
X0141194Y0236001D01*
X0141248Y0235947D01*
X0141302Y0235887D01*
X0141342Y0235819D01*
X0141382Y0235752D01*
X0141409Y0235691D01*
X0141430Y0235644D01*
X0141443Y0235610D01*
X0141450Y0235597D01*
X0141483Y0235489D01*
X0141510Y0235374D01*
X0141531Y0235260D01*
X0141544Y0235145D01*
X0141551Y0235044D01*
X0141558Y0234970D01*
Y0234936D01*
Y0234916D01*
Y0234903D01*
Y0234896D01*
X0141551Y0234734D01*
X0141537Y0234593D01*
X0141517Y0234458D01*
X0141497Y0234350D01*
X0141477Y0234256D01*
X0141456Y0234188D01*
X0141450Y0234161D01*
X0141443Y0234141D01*
X0141436Y0234134D01*
Y0234128D01*
X0141389Y0234013D01*
X0141329Y0233912D01*
X0141274Y0233824D01*
X0141221Y0233750D01*
X0141167Y0233696D01*
X0141126Y0233656D01*
X0141099Y0233629D01*
X0141093Y0233622D01*
X0141005Y0233561D01*
X0140911Y0233507D01*
X0140816Y0233467D01*
X0140729Y0233433D01*
X0140641Y0233406D01*
X0140580Y0233386D01*
X0140553Y0233380D01*
X0140533D01*
X0140526Y0233373D01*
X0140520D01*
X0140445Y0233932D01*
X0140567Y0233973D01*
X0140675Y0234013D01*
X0140762Y0234060D01*
X0140830Y0234101D01*
X0140884Y0234141D01*
X0140917Y0234175D01*
X0140937Y0234202D01*
X0140944Y0234208D01*
X0140991Y0234289D01*
X0141025Y0234384D01*
X0141052Y0234485D01*
X0141066Y0234579D01*
X0141079Y0234674D01*
X0141086Y0234741D01*
Y0234768D01*
Y0234788D01*
Y0234802D01*
Y0234808D01*
X0141079Y0234963D01*
X0141059Y0235098D01*
X0141025Y0235206D01*
X0140991Y0235300D01*
X0140951Y0235368D01*
X0140924Y0235422D01*
X0140897Y0235455D01*
X0140890Y0235462D01*
X0140830Y0235516D01*
X0140756Y0235557D01*
X0140675Y0235590D01*
X0140594Y0235610D01*
X0140520Y0235624D01*
X0140452Y0235631D01*
X0140311D01*
X0140270Y0235624D01*
X0140250D01*
X0140230Y0235557D01*
X0140210Y0235482D01*
X0140169Y0235327D01*
X0140136Y0235152D01*
X0140102Y0234990D01*
X0140088Y0234910D01*
X0140082Y0234835D01*
X0140068Y0234768D01*
X0140061Y0234714D01*
X0140055Y0234667D01*
Y0234633D01*
X0140048Y0234606D01*
Y0234599D01*
X0140034Y0234478D01*
X0140014Y0234377D01*
X0140001Y0234289D01*
X0139987Y0234222D01*
X0139980Y0234168D01*
X0139967Y0234128D01*
X0139960Y0234101D01*
Y0234094D01*
X0139933Y0234006D01*
X0139906Y0233932D01*
X0139873Y0233858D01*
X0139846Y0233797D01*
X0139819Y0233743D01*
X0139792Y0233710D01*
X0139778Y0233683D01*
X0139771Y0233676D01*
X0139724Y0233609D01*
X0139670Y0233555D01*
X0139617Y0233501D01*
X0139563Y0233460D01*
X0139515Y0233427D01*
X0139475Y0233400D01*
X0139448Y0233386D01*
X0139441Y0233380D01*
X0139367Y0233346D01*
X0139286Y0233319D01*
X0139212Y0233299D01*
X0139138Y0233285D01*
X0139077Y0233278D01*
X0139030Y0233272D01*
X0138990D01*
X0138909Y0233278D01*
X0138841Y0233285D01*
X0138700Y0233319D01*
X0138585Y0233366D01*
X0138484Y0233420D01*
X0138403Y0233474D01*
X0138343Y0233521D01*
X0138309Y0233555D01*
X0138295Y0233568D01*
X0138208Y0233689D01*
X0138140Y0233824D01*
X0138093Y0233973D01*
X0138060Y0234107D01*
X0138039Y0234229D01*
X0138033Y0234283D01*
Y0234330D01*
X0138026Y0234370D01*
Y0234397D01*
Y0234417D01*
Y0234424D01*
X0138033Y0234545D01*
X0138046Y0234667D01*
X0138060Y0234775D01*
X0138080Y0234869D01*
X0138100Y0234943D01*
X0138120Y0235004D01*
X0138127Y0235044D01*
X0138134Y0235058D01*
X0138181Y0235172D01*
X0138242Y0235280D01*
X0138309Y0235381D01*
X0138370Y0235482D01*
X0138430Y0235563D01*
X0138477Y0235624D01*
X0138511Y0235664D01*
X0138525Y0235671D01*
Y0235678D01*
X0138437Y0235691D01*
X0138356Y0235705D01*
X0138282Y0235718D01*
X0138221Y0235738D01*
X0138167Y0235759D01*
X0138134Y0235772D01*
X0138107Y0235779D01*
X0138100Y0235786D01*
Y0236385D01*
X0138174Y0236352D01*
D02*
G37*
G36*
X0139947Y0229497D02*
X0140088Y0229484D01*
X0140223Y0229464D01*
X0140351Y0229437D01*
X0140466Y0229403D01*
X0140574Y0229369D01*
X0140668Y0229329D01*
X0140756Y0229288D01*
X0140836Y0229248D01*
X0140904Y0229207D01*
X0140958Y0229174D01*
X0141005Y0229140D01*
X0141045Y0229113D01*
X0141072Y0229093D01*
X0141086Y0229079D01*
X0141093Y0229073D01*
X0141173Y0228992D01*
X0141248Y0228904D01*
X0141308Y0228810D01*
X0141362Y0228715D01*
X0141409Y0228621D01*
X0141443Y0228533D01*
X0141477Y0228439D01*
X0141497Y0228358D01*
X0141517Y0228271D01*
X0141531Y0228196D01*
X0141544Y0228129D01*
X0141551Y0228075D01*
X0141558Y0228028D01*
Y0227988D01*
Y0227967D01*
Y0227960D01*
X0141551Y0227833D01*
X0141537Y0227711D01*
X0141517Y0227597D01*
X0141483Y0227489D01*
X0141450Y0227388D01*
X0141409Y0227293D01*
X0141369Y0227206D01*
X0141322Y0227132D01*
X0141281Y0227057D01*
X0141234Y0226997D01*
X0141194Y0226943D01*
X0141160Y0226902D01*
X0141126Y0226869D01*
X0141106Y0226842D01*
X0141093Y0226828D01*
X0141086Y0226821D01*
X0140991Y0226747D01*
X0140890Y0226680D01*
X0140789Y0226619D01*
X0140681Y0226565D01*
X0140567Y0226525D01*
X0140459Y0226491D01*
X0140243Y0226437D01*
X0140149Y0226417D01*
X0140055Y0226404D01*
X0139974Y0226397D01*
X0139900Y0226390D01*
X0139839Y0226383D01*
X0139758D01*
X0139610Y0226390D01*
X0139468Y0226404D01*
X0139333Y0226424D01*
X0139212Y0226451D01*
X0139097Y0226484D01*
X0138990Y0226518D01*
X0138895Y0226559D01*
X0138808Y0226599D01*
X0138734Y0226640D01*
X0138666Y0226680D01*
X0138612Y0226714D01*
X0138565Y0226747D01*
X0138525Y0226774D01*
X0138498Y0226795D01*
X0138484Y0226808D01*
X0138477Y0226815D01*
X0138397Y0226902D01*
X0138329Y0226990D01*
X0138268Y0227084D01*
X0138215Y0227185D01*
X0138174Y0227280D01*
X0138134Y0227381D01*
X0138080Y0227570D01*
X0138066Y0227657D01*
X0138053Y0227738D01*
X0138039Y0227812D01*
X0138033Y0227873D01*
X0138026Y0227920D01*
Y0227960D01*
Y0227988D01*
Y0227994D01*
X0138039Y0228203D01*
X0138073Y0228392D01*
X0138113Y0228560D01*
X0138140Y0228628D01*
X0138167Y0228695D01*
X0138194Y0228756D01*
X0138221Y0228810D01*
X0138242Y0228850D01*
X0138262Y0228891D01*
X0138282Y0228918D01*
X0138295Y0228938D01*
X0138309Y0228951D01*
Y0228958D01*
X0138430Y0229093D01*
X0138558Y0229201D01*
X0138693Y0229295D01*
X0138821Y0229362D01*
X0138936Y0229416D01*
X0138990Y0229437D01*
X0139030Y0229457D01*
X0139071Y0229470D01*
X0139097Y0229477D01*
X0139111Y0229484D01*
X0139118D01*
X0139192Y0228891D01*
X0139064Y0228837D01*
X0138956Y0228776D01*
X0138862Y0228715D01*
X0138787Y0228661D01*
X0138734Y0228614D01*
X0138693Y0228574D01*
X0138666Y0228540D01*
X0138659Y0228533D01*
X0138605Y0228446D01*
X0138565Y0228358D01*
X0138538Y0228264D01*
X0138518Y0228183D01*
X0138504Y0228109D01*
X0138498Y0228048D01*
Y0228008D01*
Y0228001D01*
Y0227994D01*
X0138504Y0227913D01*
X0138511Y0227839D01*
X0138545Y0227704D01*
X0138592Y0227583D01*
X0138646Y0227475D01*
X0138693Y0227394D01*
X0138740Y0227334D01*
X0138774Y0227293D01*
X0138787Y0227287D01*
Y0227280D01*
X0138909Y0227185D01*
X0139044Y0227111D01*
X0139192Y0227057D01*
X0139327Y0227017D01*
X0139448Y0226997D01*
X0139502Y0226983D01*
X0139549Y0226976D01*
X0139590D01*
X0139617Y0226970D01*
X0139644D01*
Y0229497D01*
X0139711Y0229504D01*
X0139792D01*
X0139947Y0229497D01*
D02*
G37*
G36*
X0139199Y0232780D02*
X0139293Y0232766D01*
X0139374Y0232739D01*
X0139448Y0232719D01*
X0139509Y0232692D01*
X0139549Y0232665D01*
X0139576Y0232652D01*
X0139583Y0232645D01*
X0139650Y0232591D01*
X0139711Y0232530D01*
X0139765Y0232470D01*
X0139805Y0232409D01*
X0139839Y0232348D01*
X0139859Y0232308D01*
X0139873Y0232281D01*
X0139879Y0232267D01*
X0139900Y0232220D01*
X0139920Y0232166D01*
X0139967Y0232038D01*
X0140014Y0231897D01*
X0140055Y0231755D01*
X0140095Y0231627D01*
X0140109Y0231566D01*
X0140122Y0231519D01*
X0140136Y0231479D01*
X0140142Y0231445D01*
X0140149Y0231425D01*
Y0231418D01*
X0140169Y0231344D01*
X0140189Y0231277D01*
X0140203Y0231216D01*
X0140223Y0231162D01*
X0140243Y0231074D01*
X0140263Y0231007D01*
X0140284Y0230960D01*
X0140290Y0230933D01*
X0140297Y0230919D01*
Y0230913D01*
X0140324Y0230859D01*
X0140344Y0230812D01*
X0140371Y0230771D01*
X0140392Y0230744D01*
X0140412Y0230717D01*
X0140432Y0230704D01*
X0140439Y0230697D01*
X0140445Y0230690D01*
X0140513Y0230650D01*
X0140580Y0230630D01*
X0140607D01*
X0140628Y0230623D01*
X0140648D01*
X0140708Y0230630D01*
X0140769Y0230650D01*
X0140823Y0230677D01*
X0140863Y0230710D01*
X0140904Y0230737D01*
X0140931Y0230764D01*
X0140944Y0230785D01*
X0140951Y0230791D01*
X0140998Y0230866D01*
X0141032Y0230953D01*
X0141052Y0231047D01*
X0141072Y0231135D01*
X0141079Y0231223D01*
X0141086Y0231290D01*
Y0231317D01*
Y0231337D01*
Y0231351D01*
Y0231358D01*
X0141079Y0231472D01*
X0141066Y0231580D01*
X0141039Y0231667D01*
X0141012Y0231735D01*
X0140985Y0231796D01*
X0140958Y0231836D01*
X0140944Y0231863D01*
X0140937Y0231870D01*
X0140877Y0231937D01*
X0140810Y0231984D01*
X0140742Y0232025D01*
X0140681Y0232058D01*
X0140621Y0232079D01*
X0140574Y0232092D01*
X0140547Y0232099D01*
X0140533D01*
X0140607Y0232658D01*
X0140722Y0232631D01*
X0140823Y0232604D01*
X0140911Y0232571D01*
X0140991Y0232537D01*
X0141045Y0232503D01*
X0141093Y0232476D01*
X0141120Y0232463D01*
X0141126Y0232456D01*
X0141194Y0232395D01*
X0141254Y0232328D01*
X0141308Y0232254D01*
X0141355Y0232180D01*
X0141389Y0232112D01*
X0141416Y0232058D01*
X0141430Y0232025D01*
X0141436Y0232018D01*
Y0232011D01*
X0141477Y0231897D01*
X0141504Y0231775D01*
X0141531Y0231661D01*
X0141544Y0231553D01*
X0141551Y0231452D01*
X0141558Y0231378D01*
Y0231351D01*
Y0231330D01*
Y0231317D01*
Y0231310D01*
Y0231216D01*
X0141544Y0231122D01*
X0141537Y0231041D01*
X0141524Y0230967D01*
X0141510Y0230906D01*
X0141497Y0230859D01*
X0141490Y0230832D01*
X0141483Y0230818D01*
X0141456Y0230737D01*
X0141430Y0230663D01*
X0141403Y0230603D01*
X0141376Y0230549D01*
X0141355Y0230508D01*
X0141335Y0230481D01*
X0141329Y0230461D01*
X0141322Y0230454D01*
X0141274Y0230387D01*
X0141221Y0230333D01*
X0141160Y0230286D01*
X0141113Y0230245D01*
X0141066Y0230212D01*
X0141032Y0230191D01*
X0141005Y0230178D01*
X0140998Y0230171D01*
X0140924Y0230137D01*
X0140857Y0230111D01*
X0140782Y0230097D01*
X0140722Y0230084D01*
X0140661Y0230077D01*
X0140621Y0230070D01*
X0140580D01*
X0140486Y0230077D01*
X0140405Y0230090D01*
X0140324Y0230111D01*
X0140257Y0230131D01*
X0140203Y0230151D01*
X0140156Y0230171D01*
X0140129Y0230185D01*
X0140122Y0230191D01*
X0140048Y0230245D01*
X0139987Y0230306D01*
X0139933Y0230367D01*
X0139886Y0230427D01*
X0139852Y0230481D01*
X0139825Y0230522D01*
X0139812Y0230549D01*
X0139805Y0230562D01*
X0139785Y0230609D01*
X0139758Y0230670D01*
X0139711Y0230805D01*
X0139670Y0230946D01*
X0139623Y0231095D01*
X0139590Y0231223D01*
X0139569Y0231283D01*
X0139556Y0231337D01*
X0139542Y0231378D01*
X0139536Y0231411D01*
X0139529Y0231432D01*
Y0231438D01*
X0139509Y0231526D01*
X0139488Y0231600D01*
X0139468Y0231667D01*
X0139448Y0231728D01*
X0139435Y0231782D01*
X0139414Y0231829D01*
X0139387Y0231910D01*
X0139367Y0231964D01*
X0139347Y0231998D01*
X0139340Y0232018D01*
X0139333Y0232025D01*
X0139293Y0232085D01*
X0139239Y0232126D01*
X0139192Y0232159D01*
X0139145Y0232180D01*
X0139097Y0232193D01*
X0139064Y0232200D01*
X0139030D01*
X0138949Y0232193D01*
X0138882Y0232173D01*
X0138814Y0232139D01*
X0138760Y0232106D01*
X0138713Y0232065D01*
X0138680Y0232038D01*
X0138659Y0232011D01*
X0138653Y0232004D01*
X0138599Y0231924D01*
X0138565Y0231836D01*
X0138538Y0231735D01*
X0138518Y0231641D01*
X0138504Y0231553D01*
X0138498Y0231486D01*
Y0231459D01*
Y0231438D01*
Y0231425D01*
Y0231418D01*
X0138504Y0231277D01*
X0138525Y0231155D01*
X0138552Y0231054D01*
X0138585Y0230967D01*
X0138619Y0230899D01*
X0138646Y0230845D01*
X0138666Y0230818D01*
X0138673Y0230805D01*
X0138747Y0230731D01*
X0138835Y0230670D01*
X0138922Y0230630D01*
X0139003Y0230596D01*
X0139077Y0230569D01*
X0139145Y0230555D01*
X0139185Y0230542D01*
X0139199D01*
X0139111Y0229976D01*
X0138922Y0230023D01*
X0138754Y0230084D01*
X0138619Y0230158D01*
X0138504Y0230232D01*
X0138410Y0230299D01*
X0138349Y0230360D01*
X0138309Y0230400D01*
X0138302Y0230407D01*
X0138295Y0230414D01*
X0138248Y0230481D01*
X0138208Y0230555D01*
X0138140Y0230717D01*
X0138093Y0230886D01*
X0138060Y0231047D01*
X0138046Y0231122D01*
X0138039Y0231189D01*
X0138033Y0231256D01*
Y0231310D01*
X0138026Y0231358D01*
Y0231391D01*
Y0231411D01*
Y0231418D01*
X0138033Y0231566D01*
X0138046Y0231695D01*
X0138066Y0231816D01*
X0138093Y0231924D01*
X0138120Y0232011D01*
X0138140Y0232079D01*
X0138154Y0232119D01*
X0138161Y0232126D01*
Y0232133D01*
X0138221Y0232247D01*
X0138282Y0232342D01*
X0138349Y0232422D01*
X0138410Y0232497D01*
X0138464Y0232551D01*
X0138511Y0232584D01*
X0138538Y0232611D01*
X0138552Y0232618D01*
X0138646Y0232672D01*
X0138747Y0232712D01*
X0138835Y0232746D01*
X0138916Y0232766D01*
X0138990Y0232780D01*
X0139044Y0232786D01*
X0139091D01*
X0139199Y0232780D01*
D02*
G37*
G36*
X0139987Y0201978D02*
X0140122Y0201964D01*
X0140250Y0201944D01*
X0140371Y0201917D01*
X0140486Y0201884D01*
X0140587Y0201843D01*
X0140688Y0201803D01*
X0140769Y0201762D01*
X0140843Y0201722D01*
X0140911Y0201681D01*
X0140971Y0201641D01*
X0141018Y0201607D01*
X0141052Y0201580D01*
X0141079Y0201560D01*
X0141093Y0201547D01*
X0141099Y0201540D01*
X0141180Y0201452D01*
X0141248Y0201364D01*
X0141315Y0201270D01*
X0141362Y0201176D01*
X0141409Y0201081D01*
X0141443Y0200987D01*
X0141504Y0200805D01*
X0141517Y0200717D01*
X0141531Y0200643D01*
X0141544Y0200576D01*
X0141551Y0200515D01*
X0141558Y0200468D01*
Y0200434D01*
Y0200407D01*
Y0200401D01*
X0141551Y0200286D01*
X0141544Y0200178D01*
X0141497Y0199969D01*
X0141436Y0199787D01*
X0141403Y0199706D01*
X0141369Y0199632D01*
X0141335Y0199565D01*
X0141302Y0199511D01*
X0141268Y0199457D01*
X0141241Y0199417D01*
X0141214Y0199383D01*
X0141194Y0199356D01*
X0141187Y0199343D01*
X0141180Y0199336D01*
X0141093Y0199241D01*
X0140991Y0199167D01*
X0140884Y0199093D01*
X0140776Y0199039D01*
X0140661Y0198985D01*
X0140540Y0198945D01*
X0140425Y0198911D01*
X0140317Y0198884D01*
X0140210Y0198857D01*
X0140115Y0198844D01*
X0140021Y0198830D01*
X0139947Y0198823D01*
X0139879D01*
X0139832Y0198817D01*
X0139792D01*
X0139637Y0198823D01*
X0139488Y0198837D01*
X0139354Y0198857D01*
X0139226Y0198884D01*
X0139111Y0198918D01*
X0139003Y0198952D01*
X0138902Y0198992D01*
X0138814Y0199032D01*
X0138734Y0199073D01*
X0138666Y0199113D01*
X0138612Y0199147D01*
X0138565Y0199181D01*
X0138525Y0199208D01*
X0138498Y0199228D01*
X0138484Y0199241D01*
X0138477Y0199248D01*
X0138397Y0199336D01*
X0138329Y0199423D01*
X0138268Y0199518D01*
X0138215Y0199612D01*
X0138174Y0199706D01*
X0138134Y0199808D01*
X0138080Y0199989D01*
X0138066Y0200070D01*
X0138053Y0200151D01*
X0138039Y0200219D01*
X0138033Y0200279D01*
X0138026Y0200333D01*
Y0200367D01*
Y0200394D01*
Y0200401D01*
X0138033Y0200562D01*
X0138060Y0200711D01*
X0138093Y0200852D01*
X0138127Y0200967D01*
X0138167Y0201068D01*
X0138181Y0201108D01*
X0138194Y0201142D01*
X0138208Y0201176D01*
X0138221Y0201196D01*
X0138228Y0201203D01*
Y0201209D01*
X0138316Y0201344D01*
X0138410Y0201459D01*
X0138504Y0201560D01*
X0138599Y0201641D01*
X0138680Y0201701D01*
X0138747Y0201749D01*
X0138774Y0201762D01*
X0138794Y0201776D01*
X0138801Y0201782D01*
X0138808D01*
X0138963Y0201850D01*
X0139131Y0201897D01*
X0139300Y0201937D01*
X0139468Y0201958D01*
X0139542Y0201971D01*
X0139610D01*
X0139677Y0201978D01*
X0139731Y0201985D01*
X0139839D01*
X0139987Y0201978D01*
D02*
G37*
G36*
Y0192535D02*
X0140156Y0192515D01*
X0140304Y0192488D01*
X0140439Y0192454D01*
X0140547Y0192420D01*
X0140594Y0192407D01*
X0140634Y0192394D01*
X0140661Y0192380D01*
X0140681Y0192373D01*
X0140695Y0192367D01*
X0140702D01*
X0140843Y0192299D01*
X0140971Y0192218D01*
X0141079Y0192137D01*
X0141167Y0192057D01*
X0141234Y0191982D01*
X0141288Y0191922D01*
X0141315Y0191881D01*
X0141329Y0191875D01*
Y0191868D01*
X0141403Y0191740D01*
X0141463Y0191612D01*
X0141504Y0191484D01*
X0141531Y0191362D01*
X0141544Y0191261D01*
X0141551Y0191214D01*
X0141558Y0191180D01*
Y0191147D01*
Y0191126D01*
Y0191113D01*
Y0191106D01*
X0141551Y0190985D01*
X0141537Y0190877D01*
X0141517Y0190783D01*
X0141490Y0190702D01*
X0141463Y0190634D01*
X0141443Y0190580D01*
X0141430Y0190553D01*
X0141423Y0190540D01*
X0141369Y0190459D01*
X0141308Y0190378D01*
X0141248Y0190311D01*
X0141180Y0190250D01*
X0141126Y0190196D01*
X0141079Y0190163D01*
X0141052Y0190136D01*
X0141039Y0190129D01*
X0141483D01*
Y0189610D01*
X0136806D01*
Y0190183D01*
X0138451D01*
X0138383Y0190237D01*
X0138322Y0190297D01*
X0138268Y0190365D01*
X0138228Y0190419D01*
X0138188Y0190473D01*
X0138161Y0190513D01*
X0138147Y0190547D01*
X0138140Y0190553D01*
X0138100Y0190641D01*
X0138073Y0190729D01*
X0138053Y0190816D01*
X0138039Y0190897D01*
X0138033Y0190965D01*
X0138026Y0191019D01*
Y0191052D01*
Y0191066D01*
X0138033Y0191207D01*
X0138060Y0191349D01*
X0138093Y0191470D01*
X0138134Y0191585D01*
X0138174Y0191679D01*
X0138208Y0191746D01*
X0138221Y0191773D01*
X0138235Y0191794D01*
X0138242Y0191800D01*
Y0191807D01*
X0138336Y0191935D01*
X0138437Y0192043D01*
X0138538Y0192137D01*
X0138639Y0192212D01*
X0138734Y0192272D01*
X0138808Y0192319D01*
X0138835Y0192333D01*
X0138855Y0192346D01*
X0138868Y0192353D01*
X0138875D01*
X0139037Y0192414D01*
X0139199Y0192461D01*
X0139354Y0192495D01*
X0139502Y0192522D01*
X0139623Y0192535D01*
X0139677D01*
X0139724Y0192542D01*
X0139812D01*
X0139987Y0192535D01*
D02*
G37*
G36*
Y0196161D02*
X0140156Y0196141D01*
X0140304Y0196114D01*
X0140439Y0196080D01*
X0140547Y0196047D01*
X0140594Y0196033D01*
X0140634Y0196020D01*
X0140661Y0196006D01*
X0140681Y0195999D01*
X0140695Y0195993D01*
X0140702D01*
X0140843Y0195925D01*
X0140971Y0195844D01*
X0141079Y0195764D01*
X0141167Y0195683D01*
X0141234Y0195608D01*
X0141288Y0195548D01*
X0141315Y0195507D01*
X0141329Y0195501D01*
Y0195494D01*
X0141403Y0195366D01*
X0141463Y0195238D01*
X0141504Y0195110D01*
X0141531Y0194988D01*
X0141544Y0194887D01*
X0141551Y0194840D01*
X0141558Y0194807D01*
Y0194773D01*
Y0194753D01*
Y0194739D01*
Y0194732D01*
X0141551Y0194611D01*
X0141537Y0194503D01*
X0141517Y0194409D01*
X0141490Y0194328D01*
X0141463Y0194261D01*
X0141443Y0194207D01*
X0141430Y0194180D01*
X0141423Y0194166D01*
X0141369Y0194085D01*
X0141308Y0194004D01*
X0141248Y0193937D01*
X0141180Y0193876D01*
X0141126Y0193822D01*
X0141079Y0193789D01*
X0141052Y0193762D01*
X0141039Y0193755D01*
X0141483D01*
Y0193236D01*
X0136806D01*
Y0193809D01*
X0138451D01*
X0138383Y0193863D01*
X0138322Y0193923D01*
X0138268Y0193991D01*
X0138228Y0194045D01*
X0138188Y0194099D01*
X0138161Y0194139D01*
X0138147Y0194173D01*
X0138140Y0194180D01*
X0138100Y0194267D01*
X0138073Y0194355D01*
X0138053Y0194442D01*
X0138039Y0194523D01*
X0138033Y0194591D01*
X0138026Y0194645D01*
Y0194678D01*
Y0194692D01*
X0138033Y0194833D01*
X0138060Y0194975D01*
X0138093Y0195096D01*
X0138134Y0195211D01*
X0138174Y0195305D01*
X0138208Y0195373D01*
X0138221Y0195400D01*
X0138235Y0195420D01*
X0138242Y0195426D01*
Y0195433D01*
X0138336Y0195561D01*
X0138437Y0195669D01*
X0138538Y0195764D01*
X0138639Y0195838D01*
X0138734Y0195898D01*
X0138808Y0195946D01*
X0138835Y0195959D01*
X0138855Y0195973D01*
X0138868Y0195979D01*
X0138875D01*
X0139037Y0196040D01*
X0139199Y0196087D01*
X0139354Y0196121D01*
X0139502Y0196148D01*
X0139623Y0196161D01*
X0139677D01*
X0139724Y0196168D01*
X0139812D01*
X0139987Y0196161D01*
D02*
G37*
G36*
X0141430Y0198574D02*
X0141477Y0198466D01*
X0141510Y0198372D01*
X0141537Y0198284D01*
X0141551Y0198210D01*
X0141558Y0198150D01*
Y0198116D01*
Y0198102D01*
X0141551Y0198028D01*
X0141537Y0197961D01*
X0141517Y0197893D01*
X0141497Y0197839D01*
X0141477Y0197799D01*
X0141456Y0197759D01*
X0141443Y0197738D01*
X0141436Y0197732D01*
X0141382Y0197671D01*
X0141315Y0197610D01*
X0141234Y0197550D01*
X0141160Y0197496D01*
X0141086Y0197442D01*
X0141025Y0197408D01*
X0140978Y0197381D01*
X0140971Y0197374D01*
X0141483D01*
Y0196855D01*
X0138100D01*
Y0197428D01*
X0139866D01*
X0140001Y0197435D01*
X0140122Y0197442D01*
X0140237Y0197455D01*
X0140338Y0197476D01*
X0140419Y0197496D01*
X0140479Y0197509D01*
X0140520Y0197516D01*
X0140533Y0197523D01*
X0140607Y0197550D01*
X0140668Y0197583D01*
X0140722Y0197617D01*
X0140769Y0197651D01*
X0140803Y0197684D01*
X0140830Y0197705D01*
X0140843Y0197725D01*
X0140850Y0197732D01*
X0140890Y0197785D01*
X0140917Y0197846D01*
X0140937Y0197907D01*
X0140951Y0197954D01*
X0140958Y0198001D01*
X0140964Y0198035D01*
Y0198062D01*
Y0198069D01*
X0140958Y0198143D01*
X0140944Y0198217D01*
X0140924Y0198291D01*
X0140904Y0198352D01*
X0140884Y0198406D01*
X0140863Y0198446D01*
X0140850Y0198473D01*
X0140843Y0198480D01*
X0141369Y0198689D01*
X0141430Y0198574D01*
D02*
G37*
G36*
X0141483Y0204815D02*
X0139414Y0204067D01*
X0139279Y0204020D01*
X0139158Y0203973D01*
X0139044Y0203939D01*
X0138956Y0203906D01*
X0138875Y0203885D01*
X0138821Y0203865D01*
X0138787Y0203858D01*
X0138774Y0203852D01*
X0138902Y0203811D01*
X0139030Y0203777D01*
X0139145Y0203737D01*
X0139246Y0203703D01*
X0139333Y0203676D01*
X0139401Y0203656D01*
X0139421Y0203649D01*
X0139441Y0203643D01*
X0139448Y0203636D01*
X0139455D01*
X0141483Y0202908D01*
Y0202301D01*
X0138100Y0203575D01*
Y0204121D01*
X0141483Y0205409D01*
Y0204815D01*
D02*
G37*
%LPC*%
G36*
X0150973Y0221201D02*
X0150791D01*
X0150676Y0221187D01*
X0150575Y0221174D01*
X0150474Y0221153D01*
X0150386Y0221133D01*
X0150305Y0221106D01*
X0150231Y0221086D01*
X0150164Y0221059D01*
X0150110Y0221032D01*
X0150056Y0221005D01*
X0150015Y0220978D01*
X0149982Y0220958D01*
X0149955Y0220938D01*
X0149935Y0220924D01*
X0149928Y0220918D01*
X0149921Y0220911D01*
X0149867Y0220857D01*
X0149813Y0220796D01*
X0149732Y0220682D01*
X0149679Y0220560D01*
X0149638Y0220452D01*
X0149618Y0220351D01*
X0149604Y0220277D01*
X0149598Y0220244D01*
Y0220223D01*
Y0220210D01*
Y0220203D01*
X0149604Y0220122D01*
X0149611Y0220048D01*
X0149645Y0219907D01*
X0149699Y0219785D01*
X0149759Y0219684D01*
X0149813Y0219603D01*
X0149867Y0219543D01*
X0149901Y0219502D01*
X0149914Y0219495D01*
Y0219489D01*
X0149982Y0219442D01*
X0150049Y0219394D01*
X0150204Y0219327D01*
X0150366Y0219273D01*
X0150528Y0219239D01*
X0150669Y0219219D01*
X0150730Y0219212D01*
X0150784D01*
X0150831Y0219206D01*
X0150892D01*
X0151006Y0219212D01*
X0151121Y0219219D01*
X0151222Y0219233D01*
X0151316Y0219253D01*
X0151404Y0219273D01*
X0151485Y0219293D01*
X0151552Y0219320D01*
X0151620Y0219347D01*
X0151674Y0219374D01*
X0151727Y0219401D01*
X0151768Y0219421D01*
X0151802Y0219442D01*
X0151829Y0219462D01*
X0151849Y0219475D01*
X0151856Y0219489D01*
X0151862D01*
X0151916Y0219543D01*
X0151970Y0219603D01*
X0152051Y0219718D01*
X0152105Y0219839D01*
X0152145Y0219954D01*
X0152172Y0220055D01*
X0152179Y0220129D01*
X0152186Y0220163D01*
Y0220183D01*
Y0220196D01*
Y0220203D01*
X0152179Y0220284D01*
X0152172Y0220358D01*
X0152139Y0220493D01*
X0152085Y0220614D01*
X0152024Y0220715D01*
X0151963Y0220796D01*
X0151916Y0220857D01*
X0151876Y0220897D01*
X0151869Y0220911D01*
X0151862D01*
X0151802Y0220965D01*
X0151727Y0221005D01*
X0151579Y0221079D01*
X0151418Y0221133D01*
X0151269Y0221167D01*
X0151128Y0221187D01*
X0151067Y0221194D01*
X0151013D01*
X0150973Y0221201D01*
D02*
G37*
G36*
Y0212135D02*
X0150791D01*
X0150676Y0212122D01*
X0150575Y0212108D01*
X0150474Y0212088D01*
X0150386Y0212068D01*
X0150305Y0212041D01*
X0150231Y0212021D01*
X0150164Y0211994D01*
X0150110Y0211967D01*
X0150056Y0211940D01*
X0150015Y0211913D01*
X0149982Y0211893D01*
X0149955Y0211873D01*
X0149935Y0211859D01*
X0149928Y0211852D01*
X0149921Y0211845D01*
X0149867Y0211792D01*
X0149813Y0211731D01*
X0149732Y0211616D01*
X0149679Y0211495D01*
X0149638Y0211387D01*
X0149618Y0211286D01*
X0149604Y0211212D01*
X0149598Y0211178D01*
Y0211158D01*
Y0211145D01*
Y0211138D01*
X0149604Y0211057D01*
X0149611Y0210983D01*
X0149645Y0210841D01*
X0149699Y0210720D01*
X0149759Y0210619D01*
X0149813Y0210538D01*
X0149867Y0210477D01*
X0149901Y0210437D01*
X0149914Y0210430D01*
Y0210423D01*
X0149982Y0210376D01*
X0150049Y0210329D01*
X0150204Y0210262D01*
X0150366Y0210208D01*
X0150528Y0210174D01*
X0150669Y0210154D01*
X0150730Y0210147D01*
X0150784D01*
X0150831Y0210140D01*
X0150892D01*
X0151006Y0210147D01*
X0151121Y0210154D01*
X0151222Y0210167D01*
X0151316Y0210188D01*
X0151404Y0210208D01*
X0151485Y0210228D01*
X0151552Y0210255D01*
X0151620Y0210282D01*
X0151674Y0210309D01*
X0151727Y0210336D01*
X0151768Y0210356D01*
X0151802Y0210376D01*
X0151829Y0210396D01*
X0151849Y0210410D01*
X0151856Y0210423D01*
X0151862D01*
X0151916Y0210477D01*
X0151970Y0210538D01*
X0152051Y0210652D01*
X0152105Y0210774D01*
X0152145Y0210888D01*
X0152172Y0210989D01*
X0152179Y0211064D01*
X0152186Y0211097D01*
Y0211118D01*
Y0211131D01*
Y0211138D01*
X0152179Y0211219D01*
X0152172Y0211293D01*
X0152139Y0211428D01*
X0152085Y0211549D01*
X0152024Y0211650D01*
X0151963Y0211731D01*
X0151916Y0211792D01*
X0151876Y0211832D01*
X0151869Y0211845D01*
X0151862D01*
X0151802Y0211899D01*
X0151727Y0211940D01*
X0151579Y0212014D01*
X0151418Y0212068D01*
X0151269Y0212102D01*
X0151128Y0212122D01*
X0151067Y0212129D01*
X0151013D01*
X0150973Y0212135D01*
D02*
G37*
G36*
X0139873Y0165892D02*
X0139691D01*
X0139576Y0165878D01*
X0139475Y0165865D01*
X0139374Y0165845D01*
X0139286Y0165824D01*
X0139205Y0165797D01*
X0139131Y0165777D01*
X0139064Y0165750D01*
X0139010Y0165723D01*
X0138956Y0165696D01*
X0138916Y0165669D01*
X0138882Y0165649D01*
X0138855Y0165629D01*
X0138835Y0165615D01*
X0138828Y0165609D01*
X0138821Y0165602D01*
X0138767Y0165548D01*
X0138713Y0165488D01*
X0138633Y0165373D01*
X0138578Y0165252D01*
X0138538Y0165144D01*
X0138518Y0165043D01*
X0138504Y0164969D01*
X0138498Y0164935D01*
Y0164915D01*
Y0164901D01*
Y0164894D01*
X0138504Y0164813D01*
X0138511Y0164739D01*
X0138545Y0164598D01*
X0138599Y0164477D01*
X0138659Y0164375D01*
X0138713Y0164295D01*
X0138767Y0164234D01*
X0138801Y0164193D01*
X0138814Y0164187D01*
Y0164180D01*
X0138882Y0164133D01*
X0138949Y0164085D01*
X0139104Y0164018D01*
X0139266Y0163964D01*
X0139428Y0163930D01*
X0139569Y0163910D01*
X0139630Y0163904D01*
X0139684D01*
X0139731Y0163897D01*
X0139792D01*
X0139906Y0163904D01*
X0140021Y0163910D01*
X0140122Y0163924D01*
X0140216Y0163944D01*
X0140304Y0163964D01*
X0140385Y0163984D01*
X0140452Y0164011D01*
X0140520Y0164038D01*
X0140574Y0164065D01*
X0140628Y0164092D01*
X0140668Y0164112D01*
X0140702Y0164133D01*
X0140729Y0164153D01*
X0140749Y0164166D01*
X0140756Y0164180D01*
X0140762D01*
X0140816Y0164234D01*
X0140870Y0164295D01*
X0140951Y0164409D01*
X0141005Y0164530D01*
X0141045Y0164645D01*
X0141072Y0164746D01*
X0141079Y0164820D01*
X0141086Y0164854D01*
Y0164874D01*
Y0164888D01*
Y0164894D01*
X0141079Y0164975D01*
X0141072Y0165049D01*
X0141039Y0165184D01*
X0140985Y0165305D01*
X0140924Y0165407D01*
X0140863Y0165488D01*
X0140816Y0165548D01*
X0140776Y0165589D01*
X0140769Y0165602D01*
X0140762D01*
X0140702Y0165656D01*
X0140628Y0165696D01*
X0140479Y0165770D01*
X0140317Y0165824D01*
X0140169Y0165858D01*
X0140028Y0165878D01*
X0139967Y0165885D01*
X0139913D01*
X0139873Y0165892D01*
D02*
G37*
G36*
X0150973Y0182048D02*
X0150791D01*
X0150676Y0182035D01*
X0150575Y0182021D01*
X0150474Y0182001D01*
X0150386Y0181981D01*
X0150305Y0181954D01*
X0150231Y0181933D01*
X0150164Y0181906D01*
X0150110Y0181879D01*
X0150056Y0181852D01*
X0150015Y0181826D01*
X0149982Y0181805D01*
X0149955Y0181785D01*
X0149935Y0181772D01*
X0149928Y0181765D01*
X0149921Y0181758D01*
X0149867Y0181704D01*
X0149813Y0181644D01*
X0149732Y0181529D01*
X0149679Y0181408D01*
X0149638Y0181300D01*
X0149618Y0181199D01*
X0149604Y0181125D01*
X0149598Y0181091D01*
Y0181071D01*
Y0181057D01*
Y0181051D01*
X0149604Y0180970D01*
X0149611Y0180895D01*
X0149645Y0180754D01*
X0149699Y0180633D01*
X0149759Y0180532D01*
X0149813Y0180451D01*
X0149867Y0180390D01*
X0149901Y0180350D01*
X0149914Y0180343D01*
Y0180336D01*
X0149982Y0180289D01*
X0150049Y0180242D01*
X0150204Y0180174D01*
X0150366Y0180120D01*
X0150528Y0180087D01*
X0150669Y0180066D01*
X0150730Y0180060D01*
X0150784D01*
X0150831Y0180053D01*
X0150892D01*
X0151006Y0180060D01*
X0151121Y0180066D01*
X0151222Y0180080D01*
X0151316Y0180100D01*
X0151404Y0180120D01*
X0151485Y0180141D01*
X0151552Y0180167D01*
X0151620Y0180194D01*
X0151674Y0180221D01*
X0151727Y0180248D01*
X0151768Y0180269D01*
X0151802Y0180289D01*
X0151829Y0180309D01*
X0151849Y0180323D01*
X0151856Y0180336D01*
X0151862D01*
X0151916Y0180390D01*
X0151970Y0180451D01*
X0152051Y0180565D01*
X0152105Y0180686D01*
X0152145Y0180801D01*
X0152172Y0180902D01*
X0152179Y0180976D01*
X0152186Y0181010D01*
Y0181030D01*
Y0181044D01*
Y0181051D01*
X0152179Y0181131D01*
X0152172Y0181205D01*
X0152139Y0181340D01*
X0152085Y0181462D01*
X0152024Y0181563D01*
X0151963Y0181644D01*
X0151916Y0181704D01*
X0151876Y0181745D01*
X0151869Y0181758D01*
X0151862D01*
X0151802Y0181812D01*
X0151727Y0181852D01*
X0151579Y0181927D01*
X0151418Y0181981D01*
X0151269Y0182014D01*
X0151128Y0182035D01*
X0151067Y0182041D01*
X0151013D01*
X0150973Y0182048D01*
D02*
G37*
G36*
X0151235Y0189610D02*
X0151215D01*
Y0187716D01*
X0151370Y0187736D01*
X0151512Y0187777D01*
X0151633Y0187824D01*
X0151727Y0187878D01*
X0151808Y0187925D01*
X0151869Y0187972D01*
X0151903Y0187999D01*
X0151916Y0188013D01*
X0152004Y0188121D01*
X0152071Y0188229D01*
X0152118Y0188343D01*
X0152152Y0188451D01*
X0152172Y0188539D01*
X0152179Y0188613D01*
X0152186Y0188640D01*
Y0188660D01*
Y0188673D01*
Y0188680D01*
X0152179Y0188761D01*
X0152172Y0188835D01*
X0152132Y0188977D01*
X0152078Y0189098D01*
X0152017Y0189199D01*
X0151957Y0189280D01*
X0151903Y0189341D01*
X0151862Y0189374D01*
X0151856Y0189388D01*
X0151849D01*
X0151761Y0189448D01*
X0151660Y0189502D01*
X0151559Y0189536D01*
X0151451Y0189570D01*
X0151364Y0189590D01*
X0151283Y0189603D01*
X0151256D01*
X0151235Y0189610D01*
D02*
G37*
G36*
X0119485Y0233482D02*
X0119452D01*
X0119391Y0233477D01*
X0119336Y0233471D01*
X0119286Y0233454D01*
X0119241Y0233438D01*
X0119202Y0233421D01*
X0119175Y0233410D01*
X0119158Y0233399D01*
X0119152Y0233393D01*
X0119108Y0233360D01*
X0119069Y0233316D01*
X0119036Y0233277D01*
X0119008Y0233238D01*
X0118992Y0233205D01*
X0118975Y0233177D01*
X0118969Y0233155D01*
X0118964Y0233149D01*
X0118953Y0233116D01*
X0118947Y0233077D01*
X0118930Y0232988D01*
X0118920Y0232888D01*
X0118914Y0232788D01*
Y0232688D01*
X0118908Y0232650D01*
Y0232611D01*
Y0232583D01*
Y0232561D01*
Y0232544D01*
Y0232539D01*
Y0232117D01*
X0120002D01*
Y0232489D01*
Y0232566D01*
Y0232633D01*
Y0232694D01*
X0119996Y0232750D01*
Y0232800D01*
X0119991Y0232850D01*
Y0232922D01*
X0119985Y0232977D01*
X0119980Y0233016D01*
X0119974Y0233038D01*
Y0233044D01*
X0119957Y0233110D01*
X0119935Y0233171D01*
X0119907Y0233227D01*
X0119874Y0233271D01*
X0119846Y0233305D01*
X0119824Y0233332D01*
X0119807Y0233349D01*
X0119802Y0233355D01*
X0119746Y0233399D01*
X0119691Y0233427D01*
X0119630Y0233449D01*
X0119574Y0233466D01*
X0119524Y0233477D01*
X0119485Y0233482D01*
D02*
G37*
G36*
X0118270Y0236851D02*
X0118109D01*
X0118037Y0236845D01*
X0117965Y0236834D01*
X0117898Y0236823D01*
X0117787Y0236796D01*
X0117699Y0236762D01*
X0117626Y0236729D01*
X0117576Y0236701D01*
X0117549Y0236679D01*
X0117537Y0236673D01*
X0117471Y0236607D01*
X0117421Y0236535D01*
X0117382Y0236468D01*
X0117360Y0236402D01*
X0117343Y0236346D01*
X0117338Y0236296D01*
X0117332Y0236268D01*
Y0236263D01*
Y0236257D01*
X0117338Y0236196D01*
X0117343Y0236141D01*
X0117376Y0236041D01*
X0117421Y0235952D01*
X0117476Y0235880D01*
X0117532Y0235819D01*
X0117576Y0235774D01*
X0117610Y0235752D01*
X0117615Y0235741D01*
X0117621D01*
X0117710Y0235697D01*
X0117809Y0235663D01*
X0117915Y0235641D01*
X0118015Y0235625D01*
X0118109Y0235613D01*
X0118154D01*
X0118187Y0235608D01*
X0118259D01*
X0118409Y0235613D01*
X0118536Y0235636D01*
X0118642Y0235663D01*
X0118731Y0235697D01*
X0118797Y0235724D01*
X0118847Y0235752D01*
X0118875Y0235774D01*
X0118886Y0235780D01*
X0118953Y0235852D01*
X0119003Y0235924D01*
X0119042Y0236002D01*
X0119064Y0236074D01*
X0119080Y0236135D01*
X0119086Y0236185D01*
X0119091Y0236218D01*
Y0236224D01*
Y0236229D01*
X0119080Y0236329D01*
X0119058Y0236413D01*
X0119025Y0236490D01*
X0118986Y0236551D01*
X0118947Y0236607D01*
X0118914Y0236640D01*
X0118892Y0236668D01*
X0118881Y0236673D01*
X0118836Y0236707D01*
X0118792Y0236735D01*
X0118686Y0236779D01*
X0118570Y0236807D01*
X0118459Y0236829D01*
X0118353Y0236840D01*
X0118309Y0236845D01*
X0118270Y0236851D01*
D02*
G37*
G36*
X0150899Y0205045D02*
X0150683Y0205038D01*
X0150548Y0205031D01*
X0150433Y0205025D01*
X0150339Y0205011D01*
X0150258Y0204991D01*
X0150198Y0204971D01*
X0150150Y0204957D01*
X0150123Y0204950D01*
X0150117Y0204944D01*
X0150029Y0204890D01*
X0149948Y0204836D01*
X0149881Y0204768D01*
X0149827Y0204708D01*
X0149780Y0204654D01*
X0149746Y0204607D01*
X0149726Y0204580D01*
X0149719Y0204566D01*
X0149672Y0204465D01*
X0149638Y0204364D01*
X0149611Y0204270D01*
X0149598Y0204175D01*
X0149584Y0204101D01*
X0149577Y0204034D01*
Y0203993D01*
Y0203987D01*
Y0203980D01*
X0149584Y0203859D01*
X0149598Y0203758D01*
X0149625Y0203670D01*
X0149652Y0203596D01*
X0149679Y0203542D01*
X0149706Y0203501D01*
X0149719Y0203474D01*
X0149726Y0203468D01*
X0149786Y0203414D01*
X0149854Y0203373D01*
X0149914Y0203340D01*
X0149975Y0203319D01*
X0150029Y0203306D01*
X0150069Y0203299D01*
X0150110D01*
X0150164Y0203306D01*
X0150218Y0203313D01*
X0150258Y0203326D01*
X0150299Y0203340D01*
X0150332Y0203353D01*
X0150359Y0203360D01*
X0150373Y0203373D01*
X0150380D01*
X0150460Y0203441D01*
X0150514Y0203522D01*
X0150534Y0203549D01*
X0150548Y0203575D01*
X0150561Y0203596D01*
Y0203603D01*
X0150588Y0203670D01*
X0150609Y0203744D01*
X0150629Y0203825D01*
X0150642Y0203906D01*
X0150656Y0203980D01*
X0150669Y0204047D01*
X0150676Y0204088D01*
Y0204095D01*
Y0204101D01*
X0150696Y0204216D01*
X0150710Y0204324D01*
X0150730Y0204418D01*
X0150750Y0204512D01*
X0150770Y0204600D01*
X0150791Y0204674D01*
X0150804Y0204748D01*
X0150824Y0204809D01*
X0150838Y0204863D01*
X0150851Y0204910D01*
X0150865Y0204950D01*
X0150878Y0204984D01*
X0150885Y0205011D01*
X0150892Y0205031D01*
X0150899Y0205038D01*
Y0205045D01*
D02*
G37*
G36*
Y0196344D02*
X0150683Y0196337D01*
X0150548Y0196330D01*
X0150433Y0196323D01*
X0150339Y0196310D01*
X0150258Y0196290D01*
X0150198Y0196269D01*
X0150150Y0196256D01*
X0150123Y0196249D01*
X0150117Y0196242D01*
X0150029Y0196188D01*
X0149948Y0196135D01*
X0149881Y0196067D01*
X0149827Y0196007D01*
X0149780Y0195953D01*
X0149746Y0195905D01*
X0149726Y0195879D01*
X0149719Y0195865D01*
X0149672Y0195764D01*
X0149638Y0195663D01*
X0149611Y0195568D01*
X0149598Y0195474D01*
X0149584Y0195400D01*
X0149577Y0195333D01*
Y0195292D01*
Y0195285D01*
Y0195279D01*
X0149584Y0195157D01*
X0149598Y0195056D01*
X0149625Y0194969D01*
X0149652Y0194894D01*
X0149679Y0194841D01*
X0149706Y0194800D01*
X0149719Y0194773D01*
X0149726Y0194766D01*
X0149786Y0194712D01*
X0149854Y0194672D01*
X0149914Y0194638D01*
X0149975Y0194618D01*
X0150029Y0194605D01*
X0150069Y0194598D01*
X0150110D01*
X0150164Y0194605D01*
X0150218Y0194611D01*
X0150258Y0194625D01*
X0150299Y0194638D01*
X0150332Y0194652D01*
X0150359Y0194659D01*
X0150373Y0194672D01*
X0150380D01*
X0150460Y0194739D01*
X0150514Y0194820D01*
X0150534Y0194847D01*
X0150548Y0194874D01*
X0150561Y0194894D01*
Y0194901D01*
X0150588Y0194969D01*
X0150609Y0195043D01*
X0150629Y0195124D01*
X0150642Y0195204D01*
X0150656Y0195279D01*
X0150669Y0195346D01*
X0150676Y0195386D01*
Y0195393D01*
Y0195400D01*
X0150696Y0195515D01*
X0150710Y0195622D01*
X0150730Y0195717D01*
X0150750Y0195811D01*
X0150770Y0195899D01*
X0150791Y0195973D01*
X0150804Y0196047D01*
X0150824Y0196108D01*
X0150838Y0196161D01*
X0150851Y0196209D01*
X0150865Y0196249D01*
X0150878Y0196283D01*
X0150885Y0196310D01*
X0150892Y0196330D01*
X0150899Y0196337D01*
Y0196344D01*
D02*
G37*
G36*
X0139798Y0188147D02*
X0139583Y0188141D01*
X0139448Y0188134D01*
X0139333Y0188127D01*
X0139239Y0188114D01*
X0139158Y0188093D01*
X0139097Y0188073D01*
X0139050Y0188060D01*
X0139023Y0188053D01*
X0139017Y0188046D01*
X0138929Y0187992D01*
X0138848Y0187938D01*
X0138781Y0187871D01*
X0138727Y0187810D01*
X0138680Y0187756D01*
X0138646Y0187709D01*
X0138626Y0187682D01*
X0138619Y0187669D01*
X0138572Y0187568D01*
X0138538Y0187467D01*
X0138511Y0187372D01*
X0138498Y0187278D01*
X0138484Y0187204D01*
X0138477Y0187136D01*
Y0187096D01*
Y0187089D01*
Y0187082D01*
X0138484Y0186961D01*
X0138498Y0186860D01*
X0138525Y0186772D01*
X0138552Y0186698D01*
X0138578Y0186644D01*
X0138605Y0186604D01*
X0138619Y0186577D01*
X0138626Y0186570D01*
X0138686Y0186516D01*
X0138754Y0186476D01*
X0138814Y0186442D01*
X0138875Y0186422D01*
X0138929Y0186408D01*
X0138970Y0186402D01*
X0139010D01*
X0139064Y0186408D01*
X0139118Y0186415D01*
X0139158Y0186429D01*
X0139199Y0186442D01*
X0139232Y0186456D01*
X0139259Y0186462D01*
X0139273Y0186476D01*
X0139279D01*
X0139360Y0186543D01*
X0139414Y0186624D01*
X0139435Y0186651D01*
X0139448Y0186678D01*
X0139462Y0186698D01*
Y0186705D01*
X0139488Y0186772D01*
X0139509Y0186846D01*
X0139529Y0186927D01*
X0139542Y0187008D01*
X0139556Y0187082D01*
X0139569Y0187150D01*
X0139576Y0187190D01*
Y0187197D01*
Y0187204D01*
X0139596Y0187318D01*
X0139610Y0187426D01*
X0139630Y0187521D01*
X0139650Y0187615D01*
X0139670Y0187703D01*
X0139691Y0187777D01*
X0139704Y0187851D01*
X0139724Y0187911D01*
X0139738Y0187965D01*
X0139751Y0188013D01*
X0139765Y0188053D01*
X0139778Y0188087D01*
X0139785Y0188114D01*
X0139792Y0188134D01*
X0139798Y0188141D01*
Y0188147D01*
D02*
G37*
G36*
X0139873Y0219165D02*
X0139691D01*
X0139576Y0219151D01*
X0139475Y0219138D01*
X0139374Y0219118D01*
X0139286Y0219097D01*
X0139205Y0219071D01*
X0139131Y0219050D01*
X0139064Y0219023D01*
X0139010Y0218996D01*
X0138956Y0218969D01*
X0138916Y0218942D01*
X0138882Y0218922D01*
X0138855Y0218902D01*
X0138835Y0218888D01*
X0138828Y0218882D01*
X0138821Y0218875D01*
X0138767Y0218821D01*
X0138713Y0218760D01*
X0138633Y0218646D01*
X0138578Y0218525D01*
X0138538Y0218417D01*
X0138518Y0218316D01*
X0138504Y0218241D01*
X0138498Y0218208D01*
Y0218187D01*
Y0218174D01*
Y0218167D01*
X0138504Y0218086D01*
X0138511Y0218012D01*
X0138545Y0217871D01*
X0138599Y0217749D01*
X0138659Y0217648D01*
X0138713Y0217567D01*
X0138767Y0217507D01*
X0138801Y0217466D01*
X0138814Y0217460D01*
Y0217453D01*
X0138882Y0217406D01*
X0138949Y0217358D01*
X0139104Y0217291D01*
X0139266Y0217237D01*
X0139428Y0217203D01*
X0139569Y0217183D01*
X0139630Y0217177D01*
X0139684D01*
X0139731Y0217170D01*
X0139792D01*
X0139906Y0217177D01*
X0140021Y0217183D01*
X0140122Y0217197D01*
X0140216Y0217217D01*
X0140304Y0217237D01*
X0140385Y0217257D01*
X0140452Y0217284D01*
X0140520Y0217311D01*
X0140574Y0217338D01*
X0140628Y0217365D01*
X0140668Y0217386D01*
X0140702Y0217406D01*
X0140729Y0217426D01*
X0140749Y0217439D01*
X0140756Y0217453D01*
X0140762D01*
X0140816Y0217507D01*
X0140870Y0217567D01*
X0140951Y0217682D01*
X0141005Y0217803D01*
X0141045Y0217918D01*
X0141072Y0218019D01*
X0141079Y0218093D01*
X0141086Y0218127D01*
Y0218147D01*
Y0218161D01*
Y0218167D01*
X0141079Y0218248D01*
X0141072Y0218322D01*
X0141039Y0218457D01*
X0140985Y0218578D01*
X0140924Y0218679D01*
X0140863Y0218760D01*
X0140816Y0218821D01*
X0140776Y0218862D01*
X0140769Y0218875D01*
X0140762D01*
X0140702Y0218929D01*
X0140628Y0218969D01*
X0140479Y0219043D01*
X0140317Y0219097D01*
X0140169Y0219131D01*
X0140028Y0219151D01*
X0139967Y0219158D01*
X0139913D01*
X0139873Y0219165D01*
D02*
G37*
G36*
X0140136Y0208239D02*
X0140115D01*
Y0206345D01*
X0140270Y0206366D01*
X0140412Y0206406D01*
X0140533Y0206453D01*
X0140628Y0206507D01*
X0140708Y0206554D01*
X0140769Y0206602D01*
X0140803Y0206628D01*
X0140816Y0206642D01*
X0140904Y0206750D01*
X0140971Y0206858D01*
X0141018Y0206972D01*
X0141052Y0207080D01*
X0141072Y0207168D01*
X0141079Y0207242D01*
X0141086Y0207269D01*
Y0207289D01*
Y0207302D01*
Y0207309D01*
X0141079Y0207390D01*
X0141072Y0207464D01*
X0141032Y0207606D01*
X0140978Y0207727D01*
X0140917Y0207828D01*
X0140857Y0207909D01*
X0140803Y0207970D01*
X0140762Y0208003D01*
X0140756Y0208017D01*
X0140749D01*
X0140661Y0208078D01*
X0140560Y0208131D01*
X0140459Y0208165D01*
X0140351Y0208199D01*
X0140263Y0208219D01*
X0140183Y0208232D01*
X0140156D01*
X0140136Y0208239D01*
D02*
G37*
G36*
X0139805Y0211744D02*
X0139623D01*
X0139515Y0211731D01*
X0139421Y0211717D01*
X0139327Y0211704D01*
X0139246Y0211683D01*
X0139165Y0211656D01*
X0139097Y0211636D01*
X0139037Y0211609D01*
X0138983Y0211582D01*
X0138929Y0211562D01*
X0138895Y0211535D01*
X0138862Y0211515D01*
X0138835Y0211501D01*
X0138814Y0211488D01*
X0138808Y0211474D01*
X0138801D01*
X0138747Y0211427D01*
X0138700Y0211373D01*
X0138626Y0211265D01*
X0138572Y0211158D01*
X0138538Y0211057D01*
X0138511Y0210969D01*
X0138504Y0210895D01*
X0138498Y0210868D01*
Y0210854D01*
Y0210841D01*
Y0210834D01*
X0138504Y0210767D01*
X0138511Y0210699D01*
X0138545Y0210578D01*
X0138599Y0210464D01*
X0138659Y0210369D01*
X0138713Y0210295D01*
X0138767Y0210234D01*
X0138801Y0210201D01*
X0138814Y0210194D01*
Y0210187D01*
X0138882Y0210140D01*
X0138949Y0210100D01*
X0139104Y0210032D01*
X0139266Y0209985D01*
X0139421Y0209951D01*
X0139563Y0209931D01*
X0139623Y0209924D01*
X0139677D01*
X0139724Y0209917D01*
X0139906D01*
X0140021Y0209931D01*
X0140129Y0209945D01*
X0140223Y0209958D01*
X0140311Y0209978D01*
X0140392Y0209998D01*
X0140466Y0210019D01*
X0140533Y0210046D01*
X0140587Y0210073D01*
X0140634Y0210093D01*
X0140675Y0210113D01*
X0140708Y0210133D01*
X0140735Y0210153D01*
X0140756Y0210160D01*
X0140762Y0210174D01*
X0140769D01*
X0140823Y0210221D01*
X0140877Y0210275D01*
X0140951Y0210383D01*
X0141012Y0210490D01*
X0141045Y0210592D01*
X0141072Y0210679D01*
X0141079Y0210753D01*
X0141086Y0210780D01*
Y0210801D01*
Y0210807D01*
Y0210814D01*
X0141079Y0210888D01*
X0141072Y0210956D01*
X0141032Y0211084D01*
X0140985Y0211198D01*
X0140924Y0211293D01*
X0140863Y0211367D01*
X0140810Y0211427D01*
X0140769Y0211461D01*
X0140762Y0211474D01*
X0140756D01*
X0140688Y0211522D01*
X0140621Y0211562D01*
X0140459Y0211630D01*
X0140290Y0211677D01*
X0140129Y0211710D01*
X0140048Y0211724D01*
X0139974Y0211731D01*
X0139906Y0211737D01*
X0139852D01*
X0139805Y0211744D01*
D02*
G37*
G36*
X0140136Y0240861D02*
X0140115D01*
Y0238967D01*
X0140270Y0238987D01*
X0140412Y0239028D01*
X0140533Y0239075D01*
X0140628Y0239129D01*
X0140708Y0239176D01*
X0140769Y0239223D01*
X0140803Y0239250D01*
X0140816Y0239264D01*
X0140904Y0239371D01*
X0140971Y0239479D01*
X0141018Y0239594D01*
X0141052Y0239702D01*
X0141072Y0239789D01*
X0141079Y0239863D01*
X0141086Y0239890D01*
Y0239911D01*
Y0239924D01*
Y0239931D01*
X0141079Y0240012D01*
X0141072Y0240086D01*
X0141032Y0240227D01*
X0140978Y0240349D01*
X0140917Y0240450D01*
X0140857Y0240531D01*
X0140803Y0240591D01*
X0140762Y0240625D01*
X0140756Y0240638D01*
X0140749D01*
X0140661Y0240699D01*
X0140560Y0240753D01*
X0140459Y0240787D01*
X0140351Y0240820D01*
X0140263Y0240841D01*
X0140183Y0240854D01*
X0140156D01*
X0140136Y0240861D01*
D02*
G37*
G36*
X0139798Y0235631D02*
X0139583Y0235624D01*
X0139448Y0235617D01*
X0139333Y0235610D01*
X0139239Y0235597D01*
X0139158Y0235577D01*
X0139097Y0235557D01*
X0139050Y0235543D01*
X0139023Y0235536D01*
X0139017Y0235529D01*
X0138929Y0235476D01*
X0138848Y0235422D01*
X0138781Y0235354D01*
X0138727Y0235294D01*
X0138680Y0235240D01*
X0138646Y0235192D01*
X0138626Y0235166D01*
X0138619Y0235152D01*
X0138572Y0235051D01*
X0138538Y0234950D01*
X0138511Y0234856D01*
X0138498Y0234761D01*
X0138484Y0234687D01*
X0138477Y0234620D01*
Y0234579D01*
Y0234573D01*
Y0234566D01*
X0138484Y0234444D01*
X0138498Y0234343D01*
X0138525Y0234256D01*
X0138552Y0234181D01*
X0138578Y0234128D01*
X0138605Y0234087D01*
X0138619Y0234060D01*
X0138626Y0234053D01*
X0138686Y0234000D01*
X0138754Y0233959D01*
X0138814Y0233925D01*
X0138875Y0233905D01*
X0138929Y0233892D01*
X0138970Y0233885D01*
X0139010D01*
X0139064Y0233892D01*
X0139118Y0233898D01*
X0139158Y0233912D01*
X0139199Y0233925D01*
X0139232Y0233939D01*
X0139259Y0233946D01*
X0139273Y0233959D01*
X0139279D01*
X0139360Y0234027D01*
X0139414Y0234107D01*
X0139435Y0234134D01*
X0139448Y0234161D01*
X0139462Y0234181D01*
Y0234188D01*
X0139488Y0234256D01*
X0139509Y0234330D01*
X0139529Y0234411D01*
X0139542Y0234492D01*
X0139556Y0234566D01*
X0139569Y0234633D01*
X0139576Y0234674D01*
Y0234680D01*
Y0234687D01*
X0139596Y0234802D01*
X0139610Y0234910D01*
X0139630Y0235004D01*
X0139650Y0235098D01*
X0139670Y0235186D01*
X0139691Y0235260D01*
X0139704Y0235334D01*
X0139724Y0235395D01*
X0139738Y0235449D01*
X0139751Y0235496D01*
X0139765Y0235536D01*
X0139778Y0235570D01*
X0139785Y0235597D01*
X0139792Y0235617D01*
X0139798Y0235624D01*
Y0235631D01*
D02*
G37*
G36*
X0140136Y0228897D02*
X0140115D01*
Y0227003D01*
X0140270Y0227024D01*
X0140412Y0227064D01*
X0140533Y0227111D01*
X0140628Y0227165D01*
X0140708Y0227212D01*
X0140769Y0227260D01*
X0140803Y0227287D01*
X0140816Y0227300D01*
X0140904Y0227408D01*
X0140971Y0227516D01*
X0141018Y0227630D01*
X0141052Y0227738D01*
X0141072Y0227826D01*
X0141079Y0227900D01*
X0141086Y0227927D01*
Y0227947D01*
Y0227960D01*
Y0227967D01*
X0141079Y0228048D01*
X0141072Y0228122D01*
X0141032Y0228264D01*
X0140978Y0228385D01*
X0140917Y0228486D01*
X0140857Y0228567D01*
X0140803Y0228628D01*
X0140762Y0228661D01*
X0140756Y0228675D01*
X0140749D01*
X0140661Y0228736D01*
X0140560Y0228789D01*
X0140459Y0228823D01*
X0140351Y0228857D01*
X0140263Y0228877D01*
X0140183Y0228891D01*
X0140156D01*
X0140136Y0228897D01*
D02*
G37*
G36*
X0139873Y0201398D02*
X0139691D01*
X0139576Y0201385D01*
X0139475Y0201371D01*
X0139374Y0201351D01*
X0139286Y0201331D01*
X0139205Y0201304D01*
X0139131Y0201284D01*
X0139064Y0201257D01*
X0139010Y0201230D01*
X0138956Y0201203D01*
X0138916Y0201176D01*
X0138882Y0201155D01*
X0138855Y0201135D01*
X0138835Y0201122D01*
X0138828Y0201115D01*
X0138821Y0201108D01*
X0138767Y0201054D01*
X0138713Y0200994D01*
X0138633Y0200879D01*
X0138578Y0200758D01*
X0138538Y0200650D01*
X0138518Y0200549D01*
X0138504Y0200475D01*
X0138498Y0200441D01*
Y0200421D01*
Y0200407D01*
Y0200401D01*
X0138504Y0200320D01*
X0138511Y0200246D01*
X0138545Y0200104D01*
X0138599Y0199983D01*
X0138659Y0199882D01*
X0138713Y0199801D01*
X0138767Y0199740D01*
X0138801Y0199700D01*
X0138814Y0199693D01*
Y0199686D01*
X0138882Y0199639D01*
X0138949Y0199592D01*
X0139104Y0199524D01*
X0139266Y0199470D01*
X0139428Y0199437D01*
X0139569Y0199417D01*
X0139630Y0199410D01*
X0139684D01*
X0139731Y0199403D01*
X0139792D01*
X0139906Y0199410D01*
X0140021Y0199417D01*
X0140122Y0199430D01*
X0140216Y0199450D01*
X0140304Y0199470D01*
X0140385Y0199491D01*
X0140452Y0199518D01*
X0140520Y0199545D01*
X0140574Y0199572D01*
X0140628Y0199599D01*
X0140668Y0199619D01*
X0140702Y0199639D01*
X0140729Y0199659D01*
X0140749Y0199673D01*
X0140756Y0199686D01*
X0140762D01*
X0140816Y0199740D01*
X0140870Y0199801D01*
X0140951Y0199915D01*
X0141005Y0200037D01*
X0141045Y0200151D01*
X0141072Y0200252D01*
X0141079Y0200326D01*
X0141086Y0200360D01*
Y0200380D01*
Y0200394D01*
Y0200401D01*
X0141079Y0200482D01*
X0141072Y0200556D01*
X0141039Y0200691D01*
X0140985Y0200812D01*
X0140924Y0200913D01*
X0140863Y0200994D01*
X0140816Y0201054D01*
X0140776Y0201095D01*
X0140769Y0201108D01*
X0140762D01*
X0140702Y0201162D01*
X0140628Y0201203D01*
X0140479Y0201277D01*
X0140317Y0201331D01*
X0140169Y0201364D01*
X0140028Y0201385D01*
X0139967Y0201391D01*
X0139913D01*
X0139873Y0201398D01*
D02*
G37*
G36*
X0139879Y0191955D02*
X0139697D01*
X0139583Y0191942D01*
X0139475Y0191929D01*
X0139374Y0191915D01*
X0139286Y0191895D01*
X0139205Y0191868D01*
X0139125Y0191841D01*
X0139064Y0191821D01*
X0139003Y0191794D01*
X0138956Y0191767D01*
X0138909Y0191746D01*
X0138875Y0191719D01*
X0138848Y0191706D01*
X0138828Y0191693D01*
X0138821Y0191679D01*
X0138814D01*
X0138760Y0191625D01*
X0138713Y0191571D01*
X0138633Y0191463D01*
X0138578Y0191356D01*
X0138538Y0191254D01*
X0138518Y0191160D01*
X0138504Y0191093D01*
X0138498Y0191066D01*
Y0191045D01*
Y0191032D01*
Y0191025D01*
X0138504Y0190958D01*
X0138511Y0190891D01*
X0138545Y0190769D01*
X0138599Y0190661D01*
X0138653Y0190567D01*
X0138707Y0190493D01*
X0138760Y0190439D01*
X0138794Y0190405D01*
X0138808Y0190392D01*
X0138868Y0190345D01*
X0138936Y0190304D01*
X0139091Y0190237D01*
X0139246Y0190196D01*
X0139408Y0190163D01*
X0139549Y0190142D01*
X0139610Y0190136D01*
X0139664D01*
X0139711Y0190129D01*
X0139893D01*
X0140001Y0190142D01*
X0140102Y0190156D01*
X0140203Y0190169D01*
X0140290Y0190196D01*
X0140371Y0190217D01*
X0140445Y0190243D01*
X0140513Y0190270D01*
X0140567Y0190291D01*
X0140621Y0190318D01*
X0140661Y0190345D01*
X0140702Y0190365D01*
X0140729Y0190378D01*
X0140749Y0190392D01*
X0140756Y0190405D01*
X0140762D01*
X0140823Y0190459D01*
X0140877Y0190513D01*
X0140924Y0190567D01*
X0140964Y0190628D01*
X0141025Y0190735D01*
X0141066Y0190837D01*
X0141086Y0190924D01*
X0141099Y0190992D01*
X0141106Y0191019D01*
Y0191039D01*
Y0191045D01*
Y0191052D01*
X0141099Y0191120D01*
X0141093Y0191187D01*
X0141059Y0191308D01*
X0141005Y0191416D01*
X0140944Y0191511D01*
X0140884Y0191585D01*
X0140836Y0191639D01*
X0140796Y0191672D01*
X0140789Y0191686D01*
X0140782D01*
X0140722Y0191733D01*
X0140648Y0191773D01*
X0140493Y0191841D01*
X0140338Y0191888D01*
X0140183Y0191922D01*
X0140041Y0191942D01*
X0139980Y0191949D01*
X0139927D01*
X0139879Y0191955D01*
D02*
G37*
G36*
Y0195582D02*
X0139697D01*
X0139583Y0195568D01*
X0139475Y0195555D01*
X0139374Y0195541D01*
X0139286Y0195521D01*
X0139205Y0195494D01*
X0139125Y0195467D01*
X0139064Y0195447D01*
X0139003Y0195420D01*
X0138956Y0195393D01*
X0138909Y0195373D01*
X0138875Y0195346D01*
X0138848Y0195332D01*
X0138828Y0195319D01*
X0138821Y0195305D01*
X0138814D01*
X0138760Y0195251D01*
X0138713Y0195197D01*
X0138633Y0195089D01*
X0138578Y0194982D01*
X0138538Y0194881D01*
X0138518Y0194786D01*
X0138504Y0194719D01*
X0138498Y0194692D01*
Y0194672D01*
Y0194658D01*
Y0194651D01*
X0138504Y0194584D01*
X0138511Y0194517D01*
X0138545Y0194395D01*
X0138599Y0194288D01*
X0138653Y0194193D01*
X0138707Y0194119D01*
X0138760Y0194065D01*
X0138794Y0194031D01*
X0138808Y0194018D01*
X0138868Y0193971D01*
X0138936Y0193930D01*
X0139091Y0193863D01*
X0139246Y0193822D01*
X0139408Y0193789D01*
X0139549Y0193769D01*
X0139610Y0193762D01*
X0139664D01*
X0139711Y0193755D01*
X0139893D01*
X0140001Y0193769D01*
X0140102Y0193782D01*
X0140203Y0193796D01*
X0140290Y0193822D01*
X0140371Y0193843D01*
X0140445Y0193870D01*
X0140513Y0193897D01*
X0140567Y0193917D01*
X0140621Y0193944D01*
X0140661Y0193971D01*
X0140702Y0193991D01*
X0140729Y0194004D01*
X0140749Y0194018D01*
X0140756Y0194031D01*
X0140762D01*
X0140823Y0194085D01*
X0140877Y0194139D01*
X0140924Y0194193D01*
X0140964Y0194254D01*
X0141025Y0194362D01*
X0141066Y0194463D01*
X0141086Y0194550D01*
X0141099Y0194618D01*
X0141106Y0194645D01*
Y0194665D01*
Y0194672D01*
Y0194678D01*
X0141099Y0194746D01*
X0141093Y0194813D01*
X0141059Y0194934D01*
X0141005Y0195042D01*
X0140944Y0195137D01*
X0140884Y0195211D01*
X0140836Y0195265D01*
X0140796Y0195299D01*
X0140789Y0195312D01*
X0140782D01*
X0140722Y0195359D01*
X0140648Y0195400D01*
X0140493Y0195467D01*
X0140338Y0195514D01*
X0140183Y0195548D01*
X0140041Y0195568D01*
X0139980Y0195575D01*
X0139927D01*
X0139879Y0195582D01*
D02*
G37*
%LPD*%
G54D14*
X0123300Y0234300D02*
G03*
X0123300Y0234300I-0004600J0000000D01*
G01*
X0115447Y0237553D02*
X0121953Y0231047D01*
X0126900Y0073549D02*
Y0067551D01*
X0129899D01*
X0130899Y0068550D01*
Y0069550D01*
X0129899Y0070550D01*
X0126900D01*
X0129899D01*
X0130899Y0071549D01*
Y0072549D01*
X0129899Y0073549D01*
X0126900D01*
X0133898Y0067551D02*
X0135897D01*
X0136897Y0068550D01*
Y0070550D01*
X0135897Y0071549D01*
X0133898D01*
X0132898Y0070550D01*
Y0068550D01*
X0133898Y0067551D01*
X0139896Y0072549D02*
Y0071549D01*
X0138896D01*
X0140895D01*
X0139896D01*
Y0068550D01*
X0140895Y0067551D01*
X0144894Y0072549D02*
Y0071549D01*
X0143895D01*
X0145894D01*
X0144894D01*
Y0068550D01*
X0145894Y0067551D01*
X0149893D02*
X0151892D01*
X0152892Y0068550D01*
Y0070550D01*
X0151892Y0071549D01*
X0149893D01*
X0148893Y0070550D01*
Y0068550D01*
X0149893Y0067551D01*
X0154891D02*
Y0071549D01*
X0155891D01*
X0156890Y0070550D01*
Y0067551D01*
Y0070550D01*
X0157890Y0071549D01*
X0158890Y0070550D01*
Y0067551D01*
X0169886Y0073549D02*
X0167887D01*
X0166887Y0072549D01*
Y0068550D01*
X0167887Y0067551D01*
X0169886D01*
X0170886Y0068550D01*
Y0072549D01*
X0169886Y0073549D01*
X0172885Y0071549D02*
X0174884Y0067551D01*
X0176884Y0071549D01*
X0181882Y0067551D02*
X0179883D01*
X0178883Y0068550D01*
Y0070550D01*
X0179883Y0071549D01*
X0181882D01*
X0182882Y0070550D01*
Y0069550D01*
X0178883D01*
X0184881Y0071549D02*
Y0067551D01*
Y0069550D01*
X0185881Y0070550D01*
X0186881Y0071549D01*
X0187880D01*
X0190879Y0067551D02*
X0192879D01*
X0191879D01*
Y0073549D01*
X0190879D01*
X0196877Y0071549D02*
X0198877D01*
X0199876Y0070550D01*
Y0067551D01*
X0196877D01*
X0195878Y0068550D01*
X0196877Y0069550D01*
X0199876D01*
X0201876Y0071549D02*
Y0068550D01*
X0202875Y0067551D01*
X0205874D01*
Y0066551D01*
X0204875Y0065551D01*
X0203875D01*
X0205874Y0067551D02*
Y0071549D01*
X0567400Y0087833D02*
Y0093831D01*
X0571399Y0087833D01*
Y0093831D01*
X0574398Y0087833D02*
X0576397D01*
X0577397Y0088833D01*
Y0090832D01*
X0576397Y0091832D01*
X0574398D01*
X0573398Y0090832D01*
Y0088833D01*
X0574398Y0087833D01*
X0580396Y0092832D02*
Y0091832D01*
X0579396D01*
X0581395D01*
X0580396D01*
Y0088833D01*
X0581395Y0087833D01*
X0590393Y0093831D02*
X0592392D01*
X0591392D01*
Y0087833D01*
X0590393D01*
X0592392D01*
X0595391D02*
Y0091832D01*
X0598390D01*
X0599390Y0090832D01*
Y0087833D01*
X0607387Y0093831D02*
Y0089833D01*
X0609386Y0087833D01*
X0611386Y0089833D01*
Y0093831D01*
X0616384Y0087833D02*
X0614385D01*
X0613385Y0088833D01*
Y0090832D01*
X0614385Y0091832D01*
X0616384D01*
X0617384Y0090832D01*
Y0089833D01*
X0613385D01*
X0619383Y0091832D02*
Y0087833D01*
Y0089833D01*
X0620383Y0090832D01*
X0621383Y0091832D01*
X0622382D01*
X0625381Y0087833D02*
X0628380D01*
X0629380Y0088833D01*
X0628380Y0089833D01*
X0626381D01*
X0625381Y0090832D01*
X0626381Y0091832D01*
X0629380D01*
X0631379Y0087833D02*
X0633379D01*
X0632379D01*
Y0091832D01*
X0631379D01*
X0637377Y0087833D02*
X0639377D01*
X0640376Y0088833D01*
Y0090832D01*
X0639377Y0091832D01*
X0637377D01*
X0636378Y0090832D01*
Y0088833D01*
X0637377Y0087833D01*
X0642376D02*
Y0091832D01*
X0645375D01*
X0646374Y0090832D01*
Y0087833D01*
X0652373Y0092832D02*
X0651373Y0093831D01*
X0649373D01*
X0648374Y0092832D01*
Y0088833D01*
X0649373Y0087833D01*
X0651373D01*
X0652373Y0088833D01*
X0655372Y0087833D02*
X0657371D01*
X0658371Y0088833D01*
Y0090832D01*
X0657371Y0091832D01*
X0655372D01*
X0654372Y0090832D01*
Y0088833D01*
X0655372Y0087833D01*
X0660370D02*
Y0091832D01*
X0663369D01*
X0664369Y0090832D01*
Y0087833D01*
X0667368Y0092832D02*
Y0091832D01*
X0666368D01*
X0668367D01*
X0667368D01*
Y0088833D01*
X0668367Y0087833D01*
X0671366Y0091832D02*
Y0087833D01*
Y0089833D01*
X0672366Y0090832D01*
X0673366Y0091832D01*
X0674365D01*
X0678364Y0087833D02*
X0680364D01*
X0681363Y0088833D01*
Y0090832D01*
X0680364Y0091832D01*
X0678364D01*
X0677364Y0090832D01*
Y0088833D01*
X0678364Y0087833D01*
X0683362D02*
X0685362D01*
X0684362D01*
Y0093831D01*
X0683362D01*
X0520799Y0092832D02*
X0519799Y0093831D01*
X0517800D01*
X0516800Y0092832D01*
Y0091832D01*
X0517800Y0090832D01*
X0519799D01*
X0520799Y0089833D01*
Y0088833D01*
X0519799Y0087833D01*
X0517800D01*
X0516800Y0088833D01*
X0522798Y0093831D02*
Y0089833D01*
X0524797Y0087833D01*
X0526797Y0089833D01*
Y0093831D01*
X0528796Y0087833D02*
Y0093831D01*
X0532795Y0087833D01*
Y0093831D01*
X0540792Y0087833D02*
Y0093831D01*
X0543791D01*
X0544791Y0092832D01*
Y0090832D01*
X0543791Y0089833D01*
X0540792D01*
X0542792D02*
X0544791Y0087833D01*
X0550789Y0093831D02*
X0546790D01*
Y0087833D01*
X0550789D01*
X0546790Y0090832D02*
X0548790D01*
X0552788Y0093831D02*
Y0089833D01*
X0554788Y0087833D01*
X0556787Y0089833D01*
Y0093831D01*
X0558786Y0091832D02*
X0559786D01*
Y0090832D01*
X0558786D01*
Y0091832D01*
Y0088833D02*
X0559786D01*
Y0087833D01*
X0558786D01*
Y0088833D01*
X0433000Y0087833D02*
Y0093831D01*
X0435999D01*
X0436999Y0092832D01*
Y0090832D01*
X0435999Y0089833D01*
X0433000D01*
X0434999D02*
X0436999Y0087833D01*
X0442997Y0093831D02*
X0438998D01*
Y0087833D01*
X0442997D01*
X0438998Y0090832D02*
X0440997D01*
X0444996Y0093831D02*
Y0089833D01*
X0446995Y0087833D01*
X0448995Y0089833D01*
Y0093831D01*
X0450994Y0091832D02*
X0451994D01*
Y0090832D01*
X0450994D01*
Y0091832D01*
Y0088833D02*
X0451994D01*
Y0087833D01*
X0450994D01*
Y0088833D01*
X0126900Y0052965D02*
X0130899D01*
X0128899D01*
Y0046966D01*
X0132898Y0052965D02*
X0134897D01*
X0133898D01*
Y0046966D01*
X0132898D01*
X0134897D01*
X0137896Y0052965D02*
Y0046966D01*
X0140895D01*
X0141895Y0047966D01*
Y0051965D01*
X0140895Y0052965D01*
X0137896D01*
X0143895Y0046966D02*
Y0050965D01*
X0145894Y0052965D01*
X0147893Y0050965D01*
Y0046966D01*
Y0049966D01*
X0143895D01*
X0149893D02*
X0153891D01*
X0155891Y0051965D02*
X0156890Y0052965D01*
X0158890D01*
X0159889Y0051965D01*
Y0047966D01*
X0158890Y0046966D01*
X0156890D01*
X0155891Y0047966D01*
Y0051965D01*
X0161889Y0046966D02*
X0163888D01*
X0162888D01*
Y0052965D01*
X0161889Y0051965D01*
X0166887D02*
X0167887Y0052965D01*
X0169886D01*
X0170886Y0051965D01*
Y0050965D01*
X0169886Y0049966D01*
X0168886D01*
X0169886D01*
X0170886Y0048966D01*
Y0047966D01*
X0169886Y0046966D01*
X0167887D01*
X0166887Y0047966D01*
X0175884Y0046966D02*
Y0052965D01*
X0172885Y0049966D01*
X0176884D01*
X0178883Y0047966D02*
X0179883Y0046966D01*
X0181882D01*
X0182882Y0047966D01*
Y0051965D01*
X0181882Y0052965D01*
X0179883D01*
X0178883Y0051965D01*
Y0050965D01*
X0179883Y0049966D01*
X0182882D01*
X0188880Y0052965D02*
X0184881D01*
Y0046966D01*
X0188880D01*
X0184881Y0049966D02*
X0186881D01*
X0190879Y0046966D02*
X0192879D01*
X0191879D01*
Y0052965D01*
X0190879Y0051965D01*
X0195878Y0046966D02*
Y0047966D01*
X0196877D01*
Y0046966D01*
X0195878D01*
X0204875Y0051965D02*
X0203875Y0052965D01*
X0201876D01*
X0200876Y0051965D01*
Y0047966D01*
X0201876Y0046966D01*
X0203875D01*
X0204875Y0047966D01*
Y0049966D01*
X0202875D01*
X0206874Y0052965D02*
Y0046966D01*
X0209873D01*
X0210873Y0047966D01*
Y0048966D01*
X0209873Y0049966D01*
X0206874D01*
X0209873D01*
X0210873Y0050965D01*
Y0051965D01*
X0209873Y0052965D01*
X0206874D01*
X0215871D02*
X0213872D01*
X0212872Y0051965D01*
Y0047966D01*
X0213872Y0046966D01*
X0215871D01*
X0216871Y0047966D01*
Y0051965D01*
X0215871Y0052965D01*
X0381150Y0046966D02*
X0383149D01*
X0382150D01*
Y0052965D01*
X0381150Y0051965D01*
X0390147Y0046966D02*
X0386148D01*
X0390147Y0050965D01*
Y0051965D01*
X0389147Y0052965D01*
X0387148D01*
X0386148Y0051965D01*
X0392146Y0046966D02*
X0396145Y0050965D01*
X0398145Y0046966D02*
X0400144D01*
X0399144D01*
Y0052965D01*
X0398145Y0051965D01*
X0403143Y0047966D02*
X0404143Y0046966D01*
X0406142D01*
X0407142Y0047966D01*
Y0051965D01*
X0406142Y0052965D01*
X0404143D01*
X0403143Y0051965D01*
Y0050965D01*
X0404143Y0049966D01*
X0407142D01*
X0409141Y0046966D02*
X0413140Y0050965D01*
X0419138Y0046966D02*
X0415139D01*
X0419138Y0050965D01*
Y0051965D01*
X0418138Y0052965D01*
X0416139D01*
X0415139Y0051965D01*
X0421137D02*
X0422137Y0052965D01*
X0424136D01*
X0425136Y0051965D01*
Y0047966D01*
X0424136Y0046966D01*
X0422137D01*
X0421137Y0047966D01*
Y0051965D01*
X0427135Y0046966D02*
X0429135D01*
X0428135D01*
Y0052965D01*
X0427135Y0051965D01*
X0432133Y0052965D02*
X0436132D01*
Y0051965D01*
X0432133Y0047966D01*
Y0046966D01*
X0298199Y0051965D02*
X0297199Y0052965D01*
X0295200D01*
X0294200Y0051965D01*
Y0047966D01*
X0295200Y0046966D01*
X0297199D01*
X0298199Y0047966D01*
Y0049966D01*
X0296199D01*
X0304197Y0052965D02*
X0300198D01*
Y0046966D01*
X0304197D01*
X0300198Y0049966D02*
X0302197D01*
X0306196Y0046966D02*
Y0052965D01*
X0310195Y0046966D01*
Y0052965D01*
X0316193D02*
X0312194D01*
Y0046966D01*
X0316193D01*
X0312194Y0049966D02*
X0314194D01*
X0318192Y0046966D02*
Y0052965D01*
X0321191D01*
X0322191Y0051965D01*
Y0049966D01*
X0321191Y0048966D01*
X0318192D01*
X0320192D02*
X0322191Y0046966D01*
X0324190D02*
Y0050965D01*
X0326190Y0052965D01*
X0328189Y0050965D01*
Y0046966D01*
Y0049966D01*
X0324190D01*
X0330188Y0052965D02*
X0334187D01*
X0332188D01*
Y0046966D01*
X0340185Y0052965D02*
X0336186D01*
Y0046966D01*
X0340185D01*
X0336186Y0049966D02*
X0338186D01*
X0342184Y0052965D02*
Y0046966D01*
X0345183D01*
X0346183Y0047966D01*
Y0051965D01*
X0345183Y0052965D01*
X0342184D01*
X0372175Y0050965D02*
X0373175D01*
Y0049966D01*
X0372175D01*
Y0050965D01*
Y0047966D02*
X0373175D01*
Y0046966D01*
X0372175D01*
Y0047966D01*
X0046350Y0087833D02*
Y0091832D01*
X0048349Y0093831D01*
X0050349Y0091832D01*
Y0087833D01*
Y0090832D01*
X0046350D01*
X0052348Y0093831D02*
Y0087833D01*
X0056347D01*
X0058346Y0093831D02*
Y0087833D01*
X0062345D01*
X0070342D02*
Y0091832D01*
X0072342Y0093831D01*
X0074341Y0091832D01*
Y0087833D01*
Y0090832D01*
X0070342D01*
X0076340Y0087833D02*
Y0093831D01*
X0079339D01*
X0080339Y0092832D01*
Y0090832D01*
X0079339Y0089833D01*
X0076340D01*
X0078340D02*
X0080339Y0087833D01*
X0082338Y0093831D02*
X0086337D01*
X0084338D01*
Y0087833D01*
X0088336Y0093831D02*
Y0087833D01*
X0090336Y0089833D01*
X0092335Y0087833D01*
Y0093831D01*
X0097334D02*
X0095334D01*
X0094335Y0092832D01*
Y0088833D01*
X0095334Y0087833D01*
X0097334D01*
X0098333Y0088833D01*
Y0092832D01*
X0097334Y0093831D01*
X0100332Y0087833D02*
Y0093831D01*
X0103332D01*
X0104331Y0092832D01*
Y0090832D01*
X0103332Y0089833D01*
X0100332D01*
X0102332D02*
X0104331Y0087833D01*
X0106331Y0093831D02*
Y0087833D01*
Y0089833D01*
X0110329Y0093831D01*
X0107330Y0090832D01*
X0110329Y0087833D01*
X0118327Y0093831D02*
Y0089833D01*
X0120326Y0087833D01*
X0122325Y0089833D01*
Y0093831D01*
X0124325D02*
X0126324D01*
X0125324D01*
Y0087833D01*
X0124325D01*
X0126324D01*
X0133322Y0093831D02*
X0129323D01*
Y0087833D01*
X0133322D01*
X0129323Y0090832D02*
X0131323D01*
X0135321Y0093831D02*
Y0087833D01*
X0137321Y0089833D01*
X0139320Y0087833D01*
Y0093831D01*
X0145318D02*
X0141319D01*
Y0087833D01*
X0145318D01*
X0141319Y0090832D02*
X0143319D01*
X0147317Y0093831D02*
Y0087833D01*
X0150316D01*
X0151316Y0088833D01*
Y0092832D01*
X0150316Y0093831D01*
X0147317D01*
X0163312D02*
X0159313D01*
Y0090832D01*
X0161313D01*
X0159313D01*
Y0087833D01*
X0165312D02*
Y0093831D01*
X0168310D01*
X0169310Y0092832D01*
Y0090832D01*
X0168310Y0089833D01*
X0165312D01*
X0167311D02*
X0169310Y0087833D01*
X0174309Y0093831D02*
X0172309D01*
X0171310Y0092832D01*
Y0088833D01*
X0172309Y0087833D01*
X0174309D01*
X0175308Y0088833D01*
Y0092832D01*
X0174309Y0093831D01*
X0177308Y0087833D02*
Y0093831D01*
X0179307Y0091832D01*
X0181306Y0093831D01*
Y0087833D01*
X0189304Y0093831D02*
X0193303D01*
X0191303D01*
Y0087833D01*
X0198301Y0093831D02*
X0196301D01*
X0195302Y0092832D01*
Y0088833D01*
X0196301Y0087833D01*
X0198301D01*
X0199301Y0088833D01*
Y0092832D01*
X0198301Y0093831D01*
X0201300Y0087833D02*
Y0093831D01*
X0204299D01*
X0205299Y0092832D01*
Y0090832D01*
X0204299Y0089833D01*
X0201300D01*
X0217295Y0092832D02*
X0216295Y0093831D01*
X0214296D01*
X0213296Y0092832D01*
Y0091832D01*
X0214296Y0090832D01*
X0216295D01*
X0217295Y0089833D01*
Y0088833D01*
X0216295Y0087833D01*
X0214296D01*
X0213296Y0088833D01*
X0219294Y0093831D02*
X0221293D01*
X0220294D01*
Y0087833D01*
X0219294D01*
X0221293D01*
X0224292Y0093831D02*
Y0087833D01*
X0227291D01*
X0228291Y0088833D01*
Y0092832D01*
X0227291Y0093831D01*
X0224292D01*
X0234289D02*
X0230291D01*
Y0087833D01*
X0234289D01*
X0230291Y0090832D02*
X0232290D01*
X0466149Y0093831D02*
X0462150D01*
Y0087833D01*
X0466149D01*
X0462150Y0090832D02*
X0464149D01*
X0468148Y0087833D02*
X0470147D01*
X0469148D01*
Y0093831D01*
X0468148Y0092832D01*
X0348550Y0093831D02*
X0352549D01*
X0350549D01*
Y0087833D01*
X0354548Y0093831D02*
X0356547D01*
X0355548D01*
Y0087833D01*
X0354548D01*
X0356547D01*
X0359546Y0093831D02*
Y0087833D01*
X0362545D01*
X0363545Y0088833D01*
Y0092832D01*
X0362545Y0093831D01*
X0359546D01*
X0365545Y0087833D02*
Y0091832D01*
X0367544Y0093831D01*
X0369543Y0091832D01*
Y0087833D01*
Y0090832D01*
X0365545D01*
X0371543D02*
X0375541D01*
X0377541Y0092832D02*
X0378540Y0093831D01*
X0380540D01*
X0381539Y0092832D01*
Y0088833D01*
X0380540Y0087833D01*
X0378540D01*
X0377541Y0088833D01*
Y0092832D01*
X0383539Y0087833D02*
X0385538D01*
X0384538D01*
Y0093831D01*
X0383539Y0092832D01*
X0388537D02*
X0389537Y0093831D01*
X0391536D01*
X0392536Y0092832D01*
Y0091832D01*
X0391536Y0090832D01*
X0390536D01*
X0391536D01*
X0392536Y0089833D01*
Y0088833D01*
X0391536Y0087833D01*
X0389537D01*
X0388537Y0088833D01*
X0397534Y0087833D02*
Y0093831D01*
X0394535Y0090832D01*
X0398534D01*
X0400533Y0088833D02*
X0401533Y0087833D01*
X0403532D01*
X0404532Y0088833D01*
Y0092832D01*
X0403532Y0093831D01*
X0401533D01*
X0400533Y0092832D01*
Y0091832D01*
X0401533Y0090832D01*
X0404532D01*
X0294000Y0093831D02*
Y0087833D01*
X0296999D01*
X0297999Y0088833D01*
Y0089833D01*
X0296999Y0090832D01*
X0294000D01*
X0296999D01*
X0297999Y0091832D01*
Y0092832D01*
X0296999Y0093831D01*
X0294000D01*
X0302997D02*
X0300998D01*
X0299998Y0092832D01*
Y0088833D01*
X0300998Y0087833D01*
X0302997D01*
X0303997Y0088833D01*
Y0092832D01*
X0302997Y0093831D01*
X0305996Y0087833D02*
Y0091832D01*
X0307996Y0093831D01*
X0309995Y0091832D01*
Y0087833D01*
Y0090832D01*
X0305996D01*
X0311994Y0087833D02*
Y0093831D01*
X0314993D01*
X0315993Y0092832D01*
Y0090832D01*
X0314993Y0089833D01*
X0311994D01*
X0313994D02*
X0315993Y0087833D01*
X0317992Y0093831D02*
Y0087833D01*
X0320991D01*
X0321991Y0088833D01*
Y0092832D01*
X0320991Y0093831D01*
X0317992D01*
X0330988Y0087833D02*
Y0093831D01*
X0332987D02*
Y0087833D01*
X0329988Y0091832D02*
X0332987D01*
X0333987D01*
X0329988Y0089833D02*
X0333987D01*
X0335986Y0091832D02*
X0336986D01*
Y0090832D01*
X0335986D01*
Y0091832D01*
Y0088833D02*
X0336986D01*
Y0087833D01*
X0335986D01*
Y0088833D01*
X0046350Y0073549D02*
Y0067551D01*
X0050349D01*
X0052348D02*
Y0071549D01*
X0054347Y0073549D01*
X0056347Y0071549D01*
Y0067551D01*
Y0070550D01*
X0052348D01*
X0058346Y0073549D02*
Y0072549D01*
X0060346Y0070550D01*
X0062345Y0072549D01*
Y0073549D01*
X0060346Y0070550D02*
Y0067551D01*
X0068343Y0073549D02*
X0064344D01*
Y0067551D01*
X0068343D01*
X0064344Y0070550D02*
X0066343D01*
X0070342Y0067551D02*
Y0073549D01*
X0073341D01*
X0074341Y0072549D01*
Y0070550D01*
X0073341Y0069550D01*
X0070342D01*
X0072342D02*
X0074341Y0067551D01*
X0082338D02*
Y0073549D01*
X0086337Y0067551D01*
Y0073549D01*
X0088336Y0067551D02*
Y0071549D01*
X0090336Y0073549D01*
X0092335Y0071549D01*
Y0067551D01*
Y0070550D01*
X0088336D01*
X0094335Y0067551D02*
Y0073549D01*
X0096334Y0071549D01*
X0098333Y0073549D01*
Y0067551D01*
X0104331Y0073549D02*
X0100332D01*
Y0067551D01*
X0104331D01*
X0100332Y0070550D02*
X0102332D01*
X0112329Y0069550D02*
X0116327D01*
X0112329Y0071549D02*
X0116327D01*
X0046350Y0046966D02*
Y0052965D01*
X0049349D01*
X0050349Y0051965D01*
Y0049966D01*
X0049349Y0048966D01*
X0046350D01*
X0052348Y0052965D02*
Y0046966D01*
X0056347D01*
X0061345Y0052965D02*
X0059346D01*
X0058346Y0051965D01*
Y0047966D01*
X0059346Y0046966D01*
X0061345D01*
X0062345Y0047966D01*
Y0051965D01*
X0061345Y0052965D01*
X0064344D02*
X0068343D01*
X0066343D01*
Y0046966D01*
X0076340D02*
Y0052965D01*
X0080339Y0046966D01*
Y0052965D01*
X0082338Y0046966D02*
Y0050965D01*
X0084338Y0052965D01*
X0086337Y0050965D01*
Y0046966D01*
Y0049966D01*
X0082338D01*
X0088336Y0046966D02*
Y0052965D01*
X0090336Y0050965D01*
X0092335Y0052965D01*
Y0046966D01*
X0098333Y0052965D02*
X0094335D01*
Y0046966D01*
X0098333D01*
X0094335Y0049966D02*
X0096334D01*
X0106331Y0048966D02*
X0110329D01*
X0106331Y0050965D02*
X0110329D01*
X0454050Y0046966D02*
X0456049D01*
X0455050D01*
Y0052965D01*
X0454050Y0051965D01*
X0459048Y0050965D02*
X0460048D01*
Y0049966D01*
X0459048D01*
Y0050965D01*
Y0047966D02*
X0460048D01*
Y0046966D01*
X0459048D01*
Y0047966D01*
X0467046Y0046966D02*
Y0052965D01*
X0464047Y0049966D01*
X0468046D01*
X0473044Y0046966D02*
Y0052965D01*
X0470045Y0049966D01*
X0474044D01*
X0476043Y0050965D02*
X0477043D01*
Y0049966D01*
X0476043D01*
Y0050965D01*
Y0047966D02*
X0477043D01*
Y0046966D01*
X0476043D01*
Y0047966D01*
X0481041Y0051965D02*
X0482041Y0052965D01*
X0484040D01*
X0485040Y0051965D01*
Y0050965D01*
X0484040Y0049966D01*
X0483041D01*
X0484040D01*
X0485040Y0048966D01*
Y0047966D01*
X0484040Y0046966D01*
X0482041D01*
X0481041Y0047966D01*
X0491038Y0052965D02*
X0487039D01*
Y0049966D01*
X0489039Y0050965D01*
X0490038D01*
X0491038Y0049966D01*
Y0047966D01*
X0490038Y0046966D01*
X0488039D01*
X0487039Y0047966D01*
X0499035Y0046966D02*
Y0052965D01*
X0502035D01*
X0503034Y0051965D01*
Y0049966D01*
X0502035Y0048966D01*
X0499035D01*
X0505033Y0046966D02*
Y0052965D01*
X0507033Y0050965D01*
X0509032Y0052965D01*
Y0046966D01*
X0580500Y0052965D02*
X0584499D01*
X0582499D01*
Y0046966D01*
X0590497Y0052965D02*
X0586498D01*
Y0046966D01*
X0590497D01*
X0586498Y0049966D02*
X0588497D01*
X0592496Y0052965D02*
X0596495Y0046966D01*
Y0052965D02*
X0592496Y0046966D01*
X0598494D02*
Y0050965D01*
X0600493Y0052965D01*
X0602493Y0050965D01*
Y0046966D01*
Y0049966D01*
X0598494D01*
X0608491Y0051965D02*
X0607491Y0052965D01*
X0605492D01*
X0604492Y0051965D01*
Y0050965D01*
X0605492Y0049966D01*
X0607491D01*
X0608491Y0048966D01*
Y0047966D01*
X0607491Y0046966D01*
X0605492D01*
X0604492Y0047966D01*
X0616488Y0052965D02*
X0618488D01*
X0617488D01*
Y0046966D01*
X0616488D01*
X0618488D01*
X0621487D02*
Y0052965D01*
X0625486Y0046966D01*
Y0052965D01*
X0631484Y0051965D02*
X0630484Y0052965D01*
X0628484D01*
X0627485Y0051965D01*
Y0050965D01*
X0628484Y0049966D01*
X0630484D01*
X0631484Y0048966D01*
Y0047966D01*
X0630484Y0046966D01*
X0628484D01*
X0627485Y0047966D01*
X0633483Y0052965D02*
X0637482D01*
X0635482D01*
Y0046966D01*
X0639481D02*
Y0052965D01*
X0642480D01*
X0643480Y0051965D01*
Y0049966D01*
X0642480Y0048966D01*
X0639481D01*
X0641480D02*
X0643480Y0046966D01*
X0645479Y0052965D02*
Y0047966D01*
X0646479Y0046966D01*
X0648478D01*
X0649478Y0047966D01*
Y0052965D01*
X0651477Y0046966D02*
Y0052965D01*
X0653476Y0050965D01*
X0655476Y0052965D01*
Y0046966D01*
X0661474Y0052965D02*
X0657475D01*
Y0046966D01*
X0661474D01*
X0657475Y0049966D02*
X0659474D01*
X0663473Y0046966D02*
Y0052965D01*
X0667472Y0046966D01*
Y0052965D01*
X0669471D02*
X0673470D01*
X0671471D01*
Y0046966D01*
X0679468Y0051965D02*
X0678468Y0052965D01*
X0676469D01*
X0675469Y0051965D01*
Y0050965D01*
X0676469Y0049966D01*
X0678468D01*
X0679468Y0048966D01*
Y0047966D01*
X0678468Y0046966D01*
X0676469D01*
X0675469Y0047966D01*
X0294000Y0073498D02*
X0297999D01*
X0295999D01*
Y0067500D01*
X0299998Y0073498D02*
X0301997D01*
X0300998D01*
Y0067500D01*
X0299998D01*
X0301997D01*
X0304996Y0073498D02*
Y0067500D01*
X0307996D01*
X0308995Y0068500D01*
Y0072498D01*
X0307996Y0073498D01*
X0304996D01*
X0317992Y0067500D02*
Y0073498D01*
X0319992D02*
Y0067500D01*
X0316993Y0071499D02*
X0319992D01*
X0320991D01*
X0316993Y0069499D02*
X0320991D01*
X0322991Y0071499D02*
X0323990D01*
Y0070499D01*
X0322991D01*
Y0071499D01*
Y0068500D02*
X0323990D01*
Y0067500D01*
X0322991D01*
Y0068500D01*
X0348550Y0072498D02*
X0349550Y0073498D01*
X0351549D01*
X0352549Y0072498D01*
Y0068500D01*
X0351549Y0067500D01*
X0349550D01*
X0348550Y0068500D01*
Y0072498D01*
X0354548Y0067500D02*
X0356547D01*
X0355548D01*
Y0073498D01*
X0354548Y0072498D01*
X0359546D02*
X0360546Y0073498D01*
X0362545D01*
X0363545Y0072498D01*
Y0071499D01*
X0362545Y0070499D01*
X0361546D01*
X0362545D01*
X0363545Y0069499D01*
Y0068500D01*
X0362545Y0067500D01*
X0360546D01*
X0359546Y0068500D01*
X0368544Y0067500D02*
Y0073498D01*
X0365545Y0070499D01*
X0369543D01*
X0371543Y0068500D02*
X0372542Y0067500D01*
X0374542D01*
X0375541Y0068500D01*
Y0072498D01*
X0374542Y0073498D01*
X0372542D01*
X0371543Y0072498D01*
Y0071499D01*
X0372542Y0070499D01*
X0375541D01*
G54D16*
X0497200Y0080717D02*
Y0101050D01*
X0413200Y0080717D02*
Y0101050D01*
X0040000Y0080717D02*
X0700200D01*
X0040000Y0060383D02*
X0700000D01*
X0040000Y0040050D02*
X0440500D01*
X0040050Y0101050D02*
X0700200D01*
X0040050Y0040050D02*
Y0101050D01*
Y0040050D02*
X0197600D01*
X0040000D02*
Y0101050D01*
X0286500Y0040050D02*
Y0101050D01*
X0700200Y0040050D02*
Y0101050D01*
X0440500Y0040050D02*
X0700200D01*
X0559400Y0039400D02*
Y0059683D01*
G54D24*
X0090700Y0157173D02*
X0093298D01*
Y0162620D01*
X0090700D02*
X0093298D01*
X0081302D02*
X0083900D01*
X0081302Y0157173D02*
Y0162620D01*
Y0157173D02*
X0083900D01*
X0108927Y0189265D02*
Y0191863D01*
X0103480D02*
X0108927D01*
X0103480Y0189265D02*
Y0191863D01*
Y0179866D02*
Y0182465D01*
Y0179866D02*
X0108927D01*
Y0182465D01*
X0118000Y0185250D02*
X0120300D01*
X0118000Y0181150D02*
Y0185250D01*
Y0181150D02*
X0120300D01*
X0125300Y0185250D02*
X0127600D01*
Y0181150D02*
Y0185250D01*
X0125300Y0181150D02*
X0127600D01*
X0118200Y0202550D02*
X0120500D01*
X0118200Y0198450D02*
Y0202550D01*
Y0198450D02*
X0120500D01*
X0125500Y0202550D02*
X0127800D01*
Y0198450D02*
Y0202550D01*
X0125500Y0198450D02*
X0127800D01*
X0128350Y0216500D02*
Y0218800D01*
X0124250D02*
X0128350D01*
X0124250Y0216500D02*
Y0218800D01*
X0128350Y0209200D02*
Y0211500D01*
X0124250Y0209200D02*
X0128350D01*
X0124250D02*
Y0211500D01*
X0106900Y0172950D02*
X0109200D01*
Y0177050D01*
X0106900D02*
X0109200D01*
X0099600Y0172950D02*
X0101900D01*
X0099600D02*
Y0177050D01*
X0101900D01*
G54D25*
X0122900Y0212400D02*
Y0215399D01*
X0121400D01*
X0120901Y0214899D01*
Y0213899D01*
X0121400Y0213400D01*
X0122900D01*
X0121900D02*
X0120901Y0212400D01*
X0117902Y0215399D02*
X0118901Y0214899D01*
X0119901Y0213899D01*
Y0212900D01*
X0119401Y0212400D01*
X0118401D01*
X0117902Y0212900D01*
Y0213400D01*
X0118401Y0213899D01*
X0119901D01*
X0125300Y0186500D02*
Y0189499D01*
X0123801D01*
X0123301Y0188999D01*
Y0187999D01*
X0123801Y0187500D01*
X0125300D01*
X0124300D02*
X0123301Y0186500D01*
X0120801D02*
Y0189499D01*
X0122301Y0187999D01*
X0120302D01*
X0122600Y0203800D02*
Y0206799D01*
X0121100D01*
X0120601Y0206299D01*
Y0205299D01*
X0121100Y0204800D01*
X0122600D01*
X0121600D02*
X0120601Y0203800D01*
X0119601Y0206299D02*
X0119101Y0206799D01*
X0118101D01*
X0117602Y0206299D01*
Y0205799D01*
X0118101Y0205299D01*
X0118601D01*
X0118101D01*
X0117602Y0204800D01*
Y0204300D01*
X0118101Y0203800D01*
X0119101D01*
X0119601Y0204300D01*
X0107900Y0168800D02*
Y0171799D01*
X0106401D01*
X0105901Y0171299D01*
Y0170299D01*
X0106401Y0169800D01*
X0107900D01*
X0106900D02*
X0105901Y0168800D01*
X0104901D02*
X0103901D01*
X0104401D01*
Y0171799D01*
X0104901Y0171299D01*
X0077801Y0160799D02*
X0078300Y0161299D01*
X0079300D01*
X0079800Y0160799D01*
Y0158800D01*
X0079300Y0158300D01*
X0078300D01*
X0077801Y0158800D01*
X0074802Y0158300D02*
X0076801D01*
X0074802Y0160299D01*
Y0160799D01*
X0075301Y0161299D01*
X0076301D01*
X0076801Y0160799D01*
X0113101Y0189499D02*
X0113601Y0189999D01*
X0114600D01*
X0115100Y0189499D01*
Y0187500D01*
X0114600Y0187000D01*
X0113601D01*
X0113101Y0187500D01*
X0112101Y0189499D02*
X0111601Y0189999D01*
X0110601D01*
X0110102Y0189499D01*
Y0188999D01*
X0110601Y0188499D01*
X0111101D01*
X0110601D01*
X0110102Y0188000D01*
Y0187500D01*
X0110601Y0187000D01*
X0111601D01*
X0112101Y0187500D01*
M02*
