G04 Layer_Color=32896*
%FSAX25Y25*%
%MOIN*%
G70*
G01*
G75*
%ADD14C,0.00800*%
%ADD15C,0.01500*%
%ADD16C,0.01000*%
%ADD39C,0.00100*%
G54D14*
X0567400Y0087833D02*
Y0093831D01*
X0571399Y0087833D01*
Y0093831D01*
X0574398Y0087833D02*
X0576397D01*
X0577397Y0088833D01*
Y0090832D01*
X0576397Y0091832D01*
X0574398D01*
X0573398Y0090832D01*
Y0088833D01*
X0574398Y0087833D01*
X0580396Y0092832D02*
Y0091832D01*
X0579396D01*
X0581395D01*
X0580396D01*
Y0088833D01*
X0581395Y0087833D01*
X0590393Y0093831D02*
X0592392D01*
X0591392D01*
Y0087833D01*
X0590393D01*
X0592392D01*
X0595391D02*
Y0091832D01*
X0598390D01*
X0599390Y0090832D01*
Y0087833D01*
X0607387Y0093831D02*
Y0089833D01*
X0609386Y0087833D01*
X0611386Y0089833D01*
Y0093831D01*
X0616384Y0087833D02*
X0614385D01*
X0613385Y0088833D01*
Y0090832D01*
X0614385Y0091832D01*
X0616384D01*
X0617384Y0090832D01*
Y0089833D01*
X0613385D01*
X0619383Y0091832D02*
Y0087833D01*
Y0089833D01*
X0620383Y0090832D01*
X0621383Y0091832D01*
X0622382D01*
X0625381Y0087833D02*
X0628380D01*
X0629380Y0088833D01*
X0628380Y0089833D01*
X0626381D01*
X0625381Y0090832D01*
X0626381Y0091832D01*
X0629380D01*
X0631379Y0087833D02*
X0633379D01*
X0632379D01*
Y0091832D01*
X0631379D01*
X0637377Y0087833D02*
X0639377D01*
X0640376Y0088833D01*
Y0090832D01*
X0639377Y0091832D01*
X0637377D01*
X0636378Y0090832D01*
Y0088833D01*
X0637377Y0087833D01*
X0642376D02*
Y0091832D01*
X0645375D01*
X0646374Y0090832D01*
Y0087833D01*
X0652373Y0092832D02*
X0651373Y0093831D01*
X0649373D01*
X0648374Y0092832D01*
Y0088833D01*
X0649373Y0087833D01*
X0651373D01*
X0652373Y0088833D01*
X0655372Y0087833D02*
X0657371D01*
X0658371Y0088833D01*
Y0090832D01*
X0657371Y0091832D01*
X0655372D01*
X0654372Y0090832D01*
Y0088833D01*
X0655372Y0087833D01*
X0660370D02*
Y0091832D01*
X0663369D01*
X0664369Y0090832D01*
Y0087833D01*
X0667368Y0092832D02*
Y0091832D01*
X0666368D01*
X0668367D01*
X0667368D01*
Y0088833D01*
X0668367Y0087833D01*
X0671366Y0091832D02*
Y0087833D01*
Y0089833D01*
X0672366Y0090832D01*
X0673366Y0091832D01*
X0674365D01*
X0678364Y0087833D02*
X0680364D01*
X0681363Y0088833D01*
Y0090832D01*
X0680364Y0091832D01*
X0678364D01*
X0677364Y0090832D01*
Y0088833D01*
X0678364Y0087833D01*
X0683362D02*
X0685362D01*
X0684362D01*
Y0093831D01*
X0683362D01*
X0520799Y0092832D02*
X0519799Y0093831D01*
X0517800D01*
X0516800Y0092832D01*
Y0091832D01*
X0517800Y0090832D01*
X0519799D01*
X0520799Y0089833D01*
Y0088833D01*
X0519799Y0087833D01*
X0517800D01*
X0516800Y0088833D01*
X0522798Y0093831D02*
Y0089833D01*
X0524797Y0087833D01*
X0526797Y0089833D01*
Y0093831D01*
X0528796Y0087833D02*
Y0093831D01*
X0532795Y0087833D01*
Y0093831D01*
X0540792Y0087833D02*
Y0093831D01*
X0543791D01*
X0544791Y0092832D01*
Y0090832D01*
X0543791Y0089833D01*
X0540792D01*
X0542792D02*
X0544791Y0087833D01*
X0550789Y0093831D02*
X0546790D01*
Y0087833D01*
X0550789D01*
X0546790Y0090832D02*
X0548790D01*
X0552788Y0093831D02*
Y0089833D01*
X0554788Y0087833D01*
X0556787Y0089833D01*
Y0093831D01*
X0558786Y0091832D02*
X0559786D01*
Y0090832D01*
X0558786D01*
Y0091832D01*
Y0088833D02*
X0559786D01*
Y0087833D01*
X0558786D01*
Y0088833D01*
X0433000Y0087833D02*
Y0093831D01*
X0435999D01*
X0436999Y0092832D01*
Y0090832D01*
X0435999Y0089833D01*
X0433000D01*
X0434999D02*
X0436999Y0087833D01*
X0442997Y0093831D02*
X0438998D01*
Y0087833D01*
X0442997D01*
X0438998Y0090832D02*
X0440997D01*
X0444996Y0093831D02*
Y0089833D01*
X0446995Y0087833D01*
X0448995Y0089833D01*
Y0093831D01*
X0450994Y0091832D02*
X0451994D01*
Y0090832D01*
X0450994D01*
Y0091832D01*
Y0088833D02*
X0451994D01*
Y0087833D01*
X0450994D01*
Y0088833D01*
X0126900Y0052965D02*
X0130899D01*
X0128899D01*
Y0046966D01*
X0132898Y0052965D02*
X0134897D01*
X0133898D01*
Y0046966D01*
X0132898D01*
X0134897D01*
X0137896Y0052965D02*
Y0046966D01*
X0140895D01*
X0141895Y0047966D01*
Y0051965D01*
X0140895Y0052965D01*
X0137896D01*
X0143895Y0046966D02*
Y0050965D01*
X0145894Y0052965D01*
X0147893Y0050965D01*
Y0046966D01*
Y0049966D01*
X0143895D01*
X0149893D02*
X0153891D01*
X0155891Y0051965D02*
X0156890Y0052965D01*
X0158890D01*
X0159889Y0051965D01*
Y0047966D01*
X0158890Y0046966D01*
X0156890D01*
X0155891Y0047966D01*
Y0051965D01*
X0161889Y0046966D02*
X0163888D01*
X0162888D01*
Y0052965D01*
X0161889Y0051965D01*
X0166887D02*
X0167887Y0052965D01*
X0169886D01*
X0170886Y0051965D01*
Y0050965D01*
X0169886Y0049966D01*
X0168886D01*
X0169886D01*
X0170886Y0048966D01*
Y0047966D01*
X0169886Y0046966D01*
X0167887D01*
X0166887Y0047966D01*
X0175884Y0046966D02*
Y0052965D01*
X0172885Y0049966D01*
X0176884D01*
X0178883Y0047966D02*
X0179883Y0046966D01*
X0181882D01*
X0182882Y0047966D01*
Y0051965D01*
X0181882Y0052965D01*
X0179883D01*
X0178883Y0051965D01*
Y0050965D01*
X0179883Y0049966D01*
X0182882D01*
X0188880Y0052965D02*
X0184881D01*
Y0046966D01*
X0188880D01*
X0184881Y0049966D02*
X0186881D01*
X0190879Y0046966D02*
X0192879D01*
X0191879D01*
Y0052965D01*
X0190879Y0051965D01*
X0195878Y0046966D02*
Y0047966D01*
X0196877D01*
Y0046966D01*
X0195878D01*
X0204875Y0051965D02*
X0203875Y0052965D01*
X0201876D01*
X0200876Y0051965D01*
Y0047966D01*
X0201876Y0046966D01*
X0203875D01*
X0204875Y0047966D01*
Y0049966D01*
X0202875D01*
X0206874Y0046966D02*
Y0052965D01*
X0208874Y0050965D01*
X0210873Y0052965D01*
Y0046966D01*
X0212872D02*
X0214872D01*
X0213872D01*
Y0052965D01*
X0212872Y0051965D01*
X0221869Y0046966D02*
X0217871D01*
X0221869Y0050965D01*
Y0051965D01*
X0220870Y0052965D01*
X0218870D01*
X0217871Y0051965D01*
X0381150Y0046966D02*
X0383149D01*
X0382150D01*
Y0052965D01*
X0381150Y0051965D01*
X0390147Y0046966D02*
X0386148D01*
X0390147Y0050965D01*
Y0051965D01*
X0389147Y0052965D01*
X0387148D01*
X0386148Y0051965D01*
X0392146Y0046966D02*
X0396145Y0050965D01*
X0398145Y0046966D02*
X0400144D01*
X0399144D01*
Y0052965D01*
X0398145Y0051965D01*
X0403143Y0047966D02*
X0404143Y0046966D01*
X0406142D01*
X0407142Y0047966D01*
Y0051965D01*
X0406142Y0052965D01*
X0404143D01*
X0403143Y0051965D01*
Y0050965D01*
X0404143Y0049966D01*
X0407142D01*
X0409141Y0046966D02*
X0413140Y0050965D01*
X0419138Y0046966D02*
X0415139D01*
X0419138Y0050965D01*
Y0051965D01*
X0418138Y0052965D01*
X0416139D01*
X0415139Y0051965D01*
X0421137D02*
X0422137Y0052965D01*
X0424136D01*
X0425136Y0051965D01*
Y0047966D01*
X0424136Y0046966D01*
X0422137D01*
X0421137Y0047966D01*
Y0051965D01*
X0427135Y0046966D02*
X0429135D01*
X0428135D01*
Y0052965D01*
X0427135Y0051965D01*
X0432133Y0052965D02*
X0436132D01*
Y0051965D01*
X0432133Y0047966D01*
Y0046966D01*
X0298199Y0051965D02*
X0297199Y0052965D01*
X0295200D01*
X0294200Y0051965D01*
Y0047966D01*
X0295200Y0046966D01*
X0297199D01*
X0298199Y0047966D01*
Y0049966D01*
X0296199D01*
X0304197Y0052965D02*
X0300198D01*
Y0046966D01*
X0304197D01*
X0300198Y0049966D02*
X0302197D01*
X0306196Y0046966D02*
Y0052965D01*
X0310195Y0046966D01*
Y0052965D01*
X0316193D02*
X0312194D01*
Y0046966D01*
X0316193D01*
X0312194Y0049966D02*
X0314194D01*
X0318192Y0046966D02*
Y0052965D01*
X0321191D01*
X0322191Y0051965D01*
Y0049966D01*
X0321191Y0048966D01*
X0318192D01*
X0320192D02*
X0322191Y0046966D01*
X0324190D02*
Y0050965D01*
X0326190Y0052965D01*
X0328189Y0050965D01*
Y0046966D01*
Y0049966D01*
X0324190D01*
X0330188Y0052965D02*
X0334187D01*
X0332188D01*
Y0046966D01*
X0340185Y0052965D02*
X0336186D01*
Y0046966D01*
X0340185D01*
X0336186Y0049966D02*
X0338186D01*
X0342184Y0052965D02*
Y0046966D01*
X0345183D01*
X0346183Y0047966D01*
Y0051965D01*
X0345183Y0052965D01*
X0342184D01*
X0372175Y0050965D02*
X0373175D01*
Y0049966D01*
X0372175D01*
Y0050965D01*
Y0047966D02*
X0373175D01*
Y0046966D01*
X0372175D01*
Y0047966D01*
X0046350Y0087833D02*
Y0091832D01*
X0048349Y0093831D01*
X0050349Y0091832D01*
Y0087833D01*
Y0090832D01*
X0046350D01*
X0052348Y0093831D02*
Y0087833D01*
X0056347D01*
X0058346Y0093831D02*
Y0087833D01*
X0062345D01*
X0070342D02*
Y0091832D01*
X0072342Y0093831D01*
X0074341Y0091832D01*
Y0087833D01*
Y0090832D01*
X0070342D01*
X0076340Y0087833D02*
Y0093831D01*
X0079339D01*
X0080339Y0092832D01*
Y0090832D01*
X0079339Y0089833D01*
X0076340D01*
X0078340D02*
X0080339Y0087833D01*
X0082338Y0093831D02*
X0086337D01*
X0084338D01*
Y0087833D01*
X0088336Y0093831D02*
Y0087833D01*
X0090336Y0089833D01*
X0092335Y0087833D01*
Y0093831D01*
X0097334D02*
X0095334D01*
X0094335Y0092832D01*
Y0088833D01*
X0095334Y0087833D01*
X0097334D01*
X0098333Y0088833D01*
Y0092832D01*
X0097334Y0093831D01*
X0100332Y0087833D02*
Y0093831D01*
X0103332D01*
X0104331Y0092832D01*
Y0090832D01*
X0103332Y0089833D01*
X0100332D01*
X0102332D02*
X0104331Y0087833D01*
X0106331Y0093831D02*
Y0087833D01*
Y0089833D01*
X0110329Y0093831D01*
X0107330Y0090832D01*
X0110329Y0087833D01*
X0118327Y0093831D02*
Y0089833D01*
X0120326Y0087833D01*
X0122325Y0089833D01*
Y0093831D01*
X0124325D02*
X0126324D01*
X0125324D01*
Y0087833D01*
X0124325D01*
X0126324D01*
X0133322Y0093831D02*
X0129323D01*
Y0087833D01*
X0133322D01*
X0129323Y0090832D02*
X0131323D01*
X0135321Y0093831D02*
Y0087833D01*
X0137321Y0089833D01*
X0139320Y0087833D01*
Y0093831D01*
X0145318D02*
X0141319D01*
Y0087833D01*
X0145318D01*
X0141319Y0090832D02*
X0143319D01*
X0147317Y0093831D02*
Y0087833D01*
X0150316D01*
X0151316Y0088833D01*
Y0092832D01*
X0150316Y0093831D01*
X0147317D01*
X0163312D02*
X0159313D01*
Y0090832D01*
X0161313D01*
X0159313D01*
Y0087833D01*
X0165312D02*
Y0093831D01*
X0168310D01*
X0169310Y0092832D01*
Y0090832D01*
X0168310Y0089833D01*
X0165312D01*
X0167311D02*
X0169310Y0087833D01*
X0174309Y0093831D02*
X0172309D01*
X0171310Y0092832D01*
Y0088833D01*
X0172309Y0087833D01*
X0174309D01*
X0175308Y0088833D01*
Y0092832D01*
X0174309Y0093831D01*
X0177308Y0087833D02*
Y0093831D01*
X0179307Y0091832D01*
X0181306Y0093831D01*
Y0087833D01*
X0189304Y0093831D02*
X0193303D01*
X0191303D01*
Y0087833D01*
X0198301Y0093831D02*
X0196301D01*
X0195302Y0092832D01*
Y0088833D01*
X0196301Y0087833D01*
X0198301D01*
X0199301Y0088833D01*
Y0092832D01*
X0198301Y0093831D01*
X0201300Y0087833D02*
Y0093831D01*
X0204299D01*
X0205299Y0092832D01*
Y0090832D01*
X0204299Y0089833D01*
X0201300D01*
X0217295Y0092832D02*
X0216295Y0093831D01*
X0214296D01*
X0213296Y0092832D01*
Y0091832D01*
X0214296Y0090832D01*
X0216295D01*
X0217295Y0089833D01*
Y0088833D01*
X0216295Y0087833D01*
X0214296D01*
X0213296Y0088833D01*
X0219294Y0093831D02*
X0221293D01*
X0220294D01*
Y0087833D01*
X0219294D01*
X0221293D01*
X0224292Y0093831D02*
Y0087833D01*
X0227291D01*
X0228291Y0088833D01*
Y0092832D01*
X0227291Y0093831D01*
X0224292D01*
X0234289D02*
X0230291D01*
Y0087833D01*
X0234289D01*
X0230291Y0090832D02*
X0232290D01*
X0466149Y0093831D02*
X0462150D01*
Y0087833D01*
X0466149D01*
X0462150Y0090832D02*
X0464149D01*
X0468148Y0087833D02*
X0470147D01*
X0469148D01*
Y0093831D01*
X0468148Y0092832D01*
X0348550Y0093831D02*
X0352549D01*
X0350549D01*
Y0087833D01*
X0354548Y0093831D02*
X0356547D01*
X0355548D01*
Y0087833D01*
X0354548D01*
X0356547D01*
X0359546Y0093831D02*
Y0087833D01*
X0362545D01*
X0363545Y0088833D01*
Y0092832D01*
X0362545Y0093831D01*
X0359546D01*
X0365545Y0087833D02*
Y0091832D01*
X0367544Y0093831D01*
X0369543Y0091832D01*
Y0087833D01*
Y0090832D01*
X0365545D01*
X0371543D02*
X0375541D01*
X0377541Y0092832D02*
X0378540Y0093831D01*
X0380540D01*
X0381539Y0092832D01*
Y0088833D01*
X0380540Y0087833D01*
X0378540D01*
X0377541Y0088833D01*
Y0092832D01*
X0383539Y0087833D02*
X0385538D01*
X0384538D01*
Y0093831D01*
X0383539Y0092832D01*
X0388537D02*
X0389537Y0093831D01*
X0391536D01*
X0392536Y0092832D01*
Y0091832D01*
X0391536Y0090832D01*
X0390536D01*
X0391536D01*
X0392536Y0089833D01*
Y0088833D01*
X0391536Y0087833D01*
X0389537D01*
X0388537Y0088833D01*
X0397534Y0087833D02*
Y0093831D01*
X0394535Y0090832D01*
X0398534D01*
X0400533Y0088833D02*
X0401533Y0087833D01*
X0403532D01*
X0404532Y0088833D01*
Y0092832D01*
X0403532Y0093831D01*
X0401533D01*
X0400533Y0092832D01*
Y0091832D01*
X0401533Y0090832D01*
X0404532D01*
X0294000Y0093831D02*
Y0087833D01*
X0296999D01*
X0297999Y0088833D01*
Y0089833D01*
X0296999Y0090832D01*
X0294000D01*
X0296999D01*
X0297999Y0091832D01*
Y0092832D01*
X0296999Y0093831D01*
X0294000D01*
X0302997D02*
X0300998D01*
X0299998Y0092832D01*
Y0088833D01*
X0300998Y0087833D01*
X0302997D01*
X0303997Y0088833D01*
Y0092832D01*
X0302997Y0093831D01*
X0305996Y0087833D02*
Y0091832D01*
X0307996Y0093831D01*
X0309995Y0091832D01*
Y0087833D01*
Y0090832D01*
X0305996D01*
X0311994Y0087833D02*
Y0093831D01*
X0314993D01*
X0315993Y0092832D01*
Y0090832D01*
X0314993Y0089833D01*
X0311994D01*
X0313994D02*
X0315993Y0087833D01*
X0317992Y0093831D02*
Y0087833D01*
X0320991D01*
X0321991Y0088833D01*
Y0092832D01*
X0320991Y0093831D01*
X0317992D01*
X0330988Y0087833D02*
Y0093831D01*
X0332987D02*
Y0087833D01*
X0329988Y0091832D02*
X0332987D01*
X0333987D01*
X0329988Y0089833D02*
X0333987D01*
X0335986Y0091832D02*
X0336986D01*
Y0090832D01*
X0335986D01*
Y0091832D01*
Y0088833D02*
X0336986D01*
Y0087833D01*
X0335986D01*
Y0088833D01*
X0046350Y0073549D02*
Y0067551D01*
X0050349D01*
X0052348D02*
Y0071549D01*
X0054347Y0073549D01*
X0056347Y0071549D01*
Y0067551D01*
Y0070550D01*
X0052348D01*
X0058346Y0073549D02*
Y0072549D01*
X0060346Y0070550D01*
X0062345Y0072549D01*
Y0073549D01*
X0060346Y0070550D02*
Y0067551D01*
X0068343Y0073549D02*
X0064344D01*
Y0067551D01*
X0068343D01*
X0064344Y0070550D02*
X0066343D01*
X0070342Y0067551D02*
Y0073549D01*
X0073341D01*
X0074341Y0072549D01*
Y0070550D01*
X0073341Y0069550D01*
X0070342D01*
X0072342D02*
X0074341Y0067551D01*
X0082338D02*
Y0073549D01*
X0086337Y0067551D01*
Y0073549D01*
X0088336Y0067551D02*
Y0071549D01*
X0090336Y0073549D01*
X0092335Y0071549D01*
Y0067551D01*
Y0070550D01*
X0088336D01*
X0094335Y0067551D02*
Y0073549D01*
X0096334Y0071549D01*
X0098333Y0073549D01*
Y0067551D01*
X0104331Y0073549D02*
X0100332D01*
Y0067551D01*
X0104331D01*
X0100332Y0070550D02*
X0102332D01*
X0112329Y0069550D02*
X0116327D01*
X0112329Y0071549D02*
X0116327D01*
X0046350Y0046966D02*
Y0052965D01*
X0049349D01*
X0050349Y0051965D01*
Y0049966D01*
X0049349Y0048966D01*
X0046350D01*
X0052348Y0052965D02*
Y0046966D01*
X0056347D01*
X0061345Y0052965D02*
X0059346D01*
X0058346Y0051965D01*
Y0047966D01*
X0059346Y0046966D01*
X0061345D01*
X0062345Y0047966D01*
Y0051965D01*
X0061345Y0052965D01*
X0064344D02*
X0068343D01*
X0066343D01*
Y0046966D01*
X0076340D02*
Y0052965D01*
X0080339Y0046966D01*
Y0052965D01*
X0082338Y0046966D02*
Y0050965D01*
X0084338Y0052965D01*
X0086337Y0050965D01*
Y0046966D01*
Y0049966D01*
X0082338D01*
X0088336Y0046966D02*
Y0052965D01*
X0090336Y0050965D01*
X0092335Y0052965D01*
Y0046966D01*
X0098333Y0052965D02*
X0094335D01*
Y0046966D01*
X0098333D01*
X0094335Y0049966D02*
X0096334D01*
X0106331Y0048966D02*
X0110329D01*
X0106331Y0050965D02*
X0110329D01*
X0454050Y0046966D02*
X0456049D01*
X0455050D01*
Y0052965D01*
X0454050Y0051965D01*
X0459048Y0050965D02*
X0460048D01*
Y0049966D01*
X0459048D01*
Y0050965D01*
Y0047966D02*
X0460048D01*
Y0046966D01*
X0459048D01*
Y0047966D01*
X0467046Y0046966D02*
Y0052965D01*
X0464047Y0049966D01*
X0468046D01*
X0473044Y0046966D02*
Y0052965D01*
X0470045Y0049966D01*
X0474044D01*
X0476043Y0050965D02*
X0477043D01*
Y0049966D01*
X0476043D01*
Y0050965D01*
Y0047966D02*
X0477043D01*
Y0046966D01*
X0476043D01*
Y0047966D01*
X0481041Y0051965D02*
X0482041Y0052965D01*
X0484040D01*
X0485040Y0051965D01*
Y0050965D01*
X0484040Y0049966D01*
X0483041D01*
X0484040D01*
X0485040Y0048966D01*
Y0047966D01*
X0484040Y0046966D01*
X0482041D01*
X0481041Y0047966D01*
X0491038Y0052965D02*
X0487039D01*
Y0049966D01*
X0489039Y0050965D01*
X0490038D01*
X0491038Y0049966D01*
Y0047966D01*
X0490038Y0046966D01*
X0488039D01*
X0487039Y0047966D01*
X0499035Y0046966D02*
Y0052965D01*
X0502035D01*
X0503034Y0051965D01*
Y0049966D01*
X0502035Y0048966D01*
X0499035D01*
X0505033Y0046966D02*
Y0052965D01*
X0507033Y0050965D01*
X0509032Y0052965D01*
Y0046966D01*
X0580500Y0052965D02*
X0584499D01*
X0582499D01*
Y0046966D01*
X0590497Y0052965D02*
X0586498D01*
Y0046966D01*
X0590497D01*
X0586498Y0049966D02*
X0588497D01*
X0592496Y0052965D02*
X0596495Y0046966D01*
Y0052965D02*
X0592496Y0046966D01*
X0598494D02*
Y0050965D01*
X0600493Y0052965D01*
X0602493Y0050965D01*
Y0046966D01*
Y0049966D01*
X0598494D01*
X0608491Y0051965D02*
X0607491Y0052965D01*
X0605492D01*
X0604492Y0051965D01*
Y0050965D01*
X0605492Y0049966D01*
X0607491D01*
X0608491Y0048966D01*
Y0047966D01*
X0607491Y0046966D01*
X0605492D01*
X0604492Y0047966D01*
X0616488Y0052965D02*
X0618488D01*
X0617488D01*
Y0046966D01*
X0616488D01*
X0618488D01*
X0621487D02*
Y0052965D01*
X0625486Y0046966D01*
Y0052965D01*
X0631484Y0051965D02*
X0630484Y0052965D01*
X0628484D01*
X0627485Y0051965D01*
Y0050965D01*
X0628484Y0049966D01*
X0630484D01*
X0631484Y0048966D01*
Y0047966D01*
X0630484Y0046966D01*
X0628484D01*
X0627485Y0047966D01*
X0633483Y0052965D02*
X0637482D01*
X0635482D01*
Y0046966D01*
X0639481D02*
Y0052965D01*
X0642480D01*
X0643480Y0051965D01*
Y0049966D01*
X0642480Y0048966D01*
X0639481D01*
X0641480D02*
X0643480Y0046966D01*
X0645479Y0052965D02*
Y0047966D01*
X0646479Y0046966D01*
X0648478D01*
X0649478Y0047966D01*
Y0052965D01*
X0651477Y0046966D02*
Y0052965D01*
X0653476Y0050965D01*
X0655476Y0052965D01*
Y0046966D01*
X0661474Y0052965D02*
X0657475D01*
Y0046966D01*
X0661474D01*
X0657475Y0049966D02*
X0659474D01*
X0663473Y0046966D02*
Y0052965D01*
X0667472Y0046966D01*
Y0052965D01*
X0669471D02*
X0673470D01*
X0671471D01*
Y0046966D01*
X0679468Y0051965D02*
X0678468Y0052965D01*
X0676469D01*
X0675469Y0051965D01*
Y0050965D01*
X0676469Y0049966D01*
X0678468D01*
X0679468Y0048966D01*
Y0047966D01*
X0678468Y0046966D01*
X0676469D01*
X0675469Y0047966D01*
X0294000Y0073498D02*
X0297999D01*
X0295999D01*
Y0067500D01*
X0299998Y0073498D02*
X0301997D01*
X0300998D01*
Y0067500D01*
X0299998D01*
X0301997D01*
X0304996Y0073498D02*
Y0067500D01*
X0307996D01*
X0308995Y0068500D01*
Y0072498D01*
X0307996Y0073498D01*
X0304996D01*
X0317992Y0067500D02*
Y0073498D01*
X0319992D02*
Y0067500D01*
X0316993Y0071499D02*
X0319992D01*
X0320991D01*
X0316993Y0069499D02*
X0320991D01*
X0322991Y0071499D02*
X0323990D01*
Y0070499D01*
X0322991D01*
Y0071499D01*
Y0068500D02*
X0323990D01*
Y0067500D01*
X0322991D01*
Y0068500D01*
X0348550Y0072498D02*
X0349550Y0073498D01*
X0351549D01*
X0352549Y0072498D01*
Y0068500D01*
X0351549Y0067500D01*
X0349550D01*
X0348550Y0068500D01*
Y0072498D01*
X0354548Y0067500D02*
X0356547D01*
X0355548D01*
Y0073498D01*
X0354548Y0072498D01*
X0359546D02*
X0360546Y0073498D01*
X0362545D01*
X0363545Y0072498D01*
Y0071499D01*
X0362545Y0070499D01*
X0361546D01*
X0362545D01*
X0363545Y0069499D01*
Y0068500D01*
X0362545Y0067500D01*
X0360546D01*
X0359546Y0068500D01*
X0368544Y0067500D02*
Y0073498D01*
X0365545Y0070499D01*
X0369543D01*
X0371543Y0068500D02*
X0372542Y0067500D01*
X0374542D01*
X0375541Y0068500D01*
Y0072498D01*
X0374542Y0073498D01*
X0372542D01*
X0371543Y0072498D01*
Y0071499D01*
X0372542Y0070499D01*
X0375541D01*
G54D15*
X1498189Y0821450D02*
Y0917450D01*
X1386221Y0893450D02*
X1498189D01*
X1386221Y0881450D02*
X1498189D01*
X1386221Y0869450D02*
X1498189D01*
X1386221Y0857450D02*
X1498189D01*
X1386221Y0845450D02*
X1498189D01*
X1386221Y0833450D02*
X1498189D01*
X1386221Y0821450D02*
X1498189D01*
X1386221D02*
Y0917450D01*
X1329235Y0893450D02*
X1386221D01*
X1329235Y0881450D02*
X1386221D01*
X1329235Y0869450D02*
X1386221D01*
X1329235Y0857450D02*
X1386221D01*
X1329235Y0845450D02*
X1386221D01*
X1329235Y0833450D02*
X1386221D01*
X1329235Y0821450D02*
X1386221D01*
X1329235D02*
Y0917450D01*
X1264251Y0893450D02*
X1329235D01*
X1264251Y0881450D02*
X1329235D01*
X1264251Y0869450D02*
X1329235D01*
X1264251Y0857450D02*
X1329235D01*
X1264251Y0845450D02*
X1329235D01*
X1264251Y0833450D02*
X1329235D01*
X1264251Y0821450D02*
X1329235D01*
X1264251D02*
Y0917450D01*
X1178275Y0893450D02*
X1264251D01*
X1178275Y0881450D02*
X1264251D01*
X1178275Y0869450D02*
X1264251D01*
X1178275Y0857450D02*
X1264251D01*
X1178275Y0845450D02*
X1264251D01*
X1178275Y0833450D02*
X1264251D01*
X1178275Y0821450D02*
X1264251D01*
X1178275D02*
Y0917450D01*
X1085300Y0893450D02*
X1178275D01*
X1085300Y0881450D02*
X1178275D01*
X1085300Y0869450D02*
X1178275D01*
X1085300Y0857450D02*
X1178275D01*
X1085300Y0845450D02*
X1178275D01*
X1085300Y0833450D02*
X1178275D01*
X1085300Y0821450D02*
X1178275D01*
X1085300D02*
Y0917450D01*
X1044309Y0893450D02*
X1085300D01*
X1044309Y0881450D02*
X1085300D01*
X1044309Y0869450D02*
X1085300D01*
X1044309Y0857450D02*
X1085300D01*
X1044309Y0845450D02*
X1085300D01*
X1044309Y0833450D02*
X1085300D01*
X1044309Y0821450D02*
X1085300D01*
X1044309D02*
Y0917450D01*
X1498189D01*
X1044309Y0905450D02*
X1498189D01*
G54D16*
X1392221Y0914448D02*
Y0908450D01*
X1395220D01*
X1396220Y0909450D01*
Y0910449D01*
X1395220Y0911449D01*
X1392221D01*
X1395220D01*
X1396220Y0912449D01*
Y0913448D01*
X1395220Y0914448D01*
X1392221D01*
X1399218Y0908450D02*
X1401218D01*
X1402217Y0909450D01*
Y0911449D01*
X1401218Y0912449D01*
X1399218D01*
X1398219Y0911449D01*
Y0909450D01*
X1399218Y0908450D01*
X1405217Y0912449D02*
X1407216D01*
X1408216Y0911449D01*
Y0908450D01*
X1405217D01*
X1404217Y0909450D01*
X1405217Y0910449D01*
X1408216D01*
X1410215Y0912449D02*
Y0908450D01*
Y0910449D01*
X1411215Y0911449D01*
X1412214Y0912449D01*
X1413214D01*
X1420212Y0914448D02*
Y0908450D01*
X1417213D01*
X1416213Y0909450D01*
Y0911449D01*
X1417213Y0912449D01*
X1420212D01*
X1428209Y0914448D02*
Y0908450D01*
X1432208D01*
X1435207Y0912449D02*
X1437206D01*
X1438206Y0911449D01*
Y0908450D01*
X1435207D01*
X1434207Y0909450D01*
X1435207Y0910449D01*
X1438206D01*
X1440205Y0912449D02*
Y0909450D01*
X1441205Y0908450D01*
X1444204D01*
Y0907450D01*
X1443204Y0906451D01*
X1442205D01*
X1444204Y0908450D02*
Y0912449D01*
X1449202Y0908450D02*
X1447203D01*
X1446203Y0909450D01*
Y0911449D01*
X1447203Y0912449D01*
X1449202D01*
X1450202Y0911449D01*
Y0910449D01*
X1446203D01*
X1452201Y0912449D02*
Y0908450D01*
Y0910449D01*
X1453201Y0911449D01*
X1454201Y0912449D01*
X1455200D01*
X1468196Y0913448D02*
X1467196Y0914448D01*
X1465197D01*
X1464198Y0913448D01*
Y0912449D01*
X1465197Y0911449D01*
X1467196D01*
X1468196Y0910449D01*
Y0909450D01*
X1467196Y0908450D01*
X1465197D01*
X1464198Y0909450D01*
X1471195Y0913448D02*
Y0912449D01*
X1470195D01*
X1472195D01*
X1471195D01*
Y0909450D01*
X1472195Y0908450D01*
X1476194Y0912449D02*
X1478193D01*
X1479193Y0911449D01*
Y0908450D01*
X1476194D01*
X1475194Y0909450D01*
X1476194Y0910449D01*
X1479193D01*
X1485191Y0912449D02*
X1482192D01*
X1481192Y0911449D01*
Y0909450D01*
X1482192Y0908450D01*
X1485191D01*
X1487190D02*
Y0914448D01*
Y0910449D02*
X1490189Y0912449D01*
X1487190Y0910449D02*
X1490189Y0908450D01*
X1335235Y0889448D02*
X1336234Y0890448D01*
X1338234D01*
X1339233Y0889448D01*
Y0888449D01*
X1338234Y0887449D01*
X1337234D01*
X1338234D01*
X1339233Y0886449D01*
Y0885450D01*
X1338234Y0884450D01*
X1336234D01*
X1335235Y0885450D01*
X1341233Y0884450D02*
Y0885450D01*
X1342232D01*
Y0884450D01*
X1341233D01*
X1350230Y0890448D02*
X1346231D01*
Y0887449D01*
X1348230Y0888449D01*
X1349230D01*
X1350230Y0887449D01*
Y0885450D01*
X1349230Y0884450D01*
X1347231D01*
X1346231Y0885450D01*
X1338234Y0860450D02*
Y0866448D01*
X1335235Y0863449D01*
X1339233D01*
X1341233Y0860450D02*
Y0861450D01*
X1342232D01*
Y0860450D01*
X1341233D01*
X1346231Y0865448D02*
X1347231Y0866448D01*
X1349230D01*
X1350230Y0865448D01*
Y0864449D01*
X1349230Y0863449D01*
X1350230Y0862449D01*
Y0861450D01*
X1349230Y0860450D01*
X1347231D01*
X1346231Y0861450D01*
Y0862449D01*
X1347231Y0863449D01*
X1346231Y0864449D01*
Y0865448D01*
X1347231Y0863449D02*
X1349230D01*
X1335235Y0841448D02*
X1336234Y0842448D01*
X1338234D01*
X1339233Y0841448D01*
Y0840449D01*
X1338234Y0839449D01*
X1337234D01*
X1338234D01*
X1339233Y0838449D01*
Y0837450D01*
X1338234Y0836450D01*
X1336234D01*
X1335235Y0837450D01*
X1341233Y0836450D02*
Y0837450D01*
X1342232D01*
Y0836450D01*
X1341233D01*
X1350230Y0842448D02*
X1346231D01*
Y0839449D01*
X1348230Y0840449D01*
X1349230D01*
X1350230Y0839449D01*
Y0837450D01*
X1349230Y0836450D01*
X1347231D01*
X1346231Y0837450D01*
X1339233Y0913448D02*
X1338234Y0914448D01*
X1336234D01*
X1335235Y0913448D01*
Y0909450D01*
X1336234Y0908450D01*
X1338234D01*
X1339233Y0909450D01*
X1342232Y0908450D02*
X1344232D01*
X1345231Y0909450D01*
Y0911449D01*
X1344232Y0912449D01*
X1342232D01*
X1341233Y0911449D01*
Y0909450D01*
X1342232Y0908450D01*
X1347231D02*
Y0912449D01*
X1350230D01*
X1351229Y0911449D01*
Y0908450D01*
X1353229D02*
X1356228D01*
X1357228Y0909450D01*
X1356228Y0910449D01*
X1354228D01*
X1353229Y0911449D01*
X1354228Y0912449D01*
X1357228D01*
X1360227Y0913448D02*
Y0912449D01*
X1359227D01*
X1361226D01*
X1360227D01*
Y0909450D01*
X1361226Y0908450D01*
X1365225Y0912449D02*
X1367224D01*
X1368224Y0911449D01*
Y0908450D01*
X1365225D01*
X1364225Y0909450D01*
X1365225Y0910449D01*
X1368224D01*
X1370223Y0908450D02*
Y0912449D01*
X1373222D01*
X1374222Y0911449D01*
Y0908450D01*
X1377221Y0913448D02*
Y0912449D01*
X1376221D01*
X1378221D01*
X1377221D01*
Y0909450D01*
X1378221Y0908450D01*
X1270251Y0889448D02*
X1271251Y0890448D01*
X1273250D01*
X1274250Y0889448D01*
Y0885450D01*
X1273250Y0884450D01*
X1271251D01*
X1270251Y0885450D01*
Y0889448D01*
X1276249Y0884450D02*
Y0885450D01*
X1277249D01*
Y0884450D01*
X1276249D01*
X1284247D02*
Y0890448D01*
X1281248Y0887449D01*
X1285246D01*
X1287246Y0889448D02*
X1288245Y0890448D01*
X1290245D01*
X1291244Y0889448D01*
Y0885450D01*
X1290245Y0884450D01*
X1288245D01*
X1287246Y0885450D01*
Y0889448D01*
X1293244Y0884450D02*
Y0888449D01*
X1294243D01*
X1295243Y0887449D01*
Y0884450D01*
Y0887449D01*
X1296243Y0888449D01*
X1297242Y0887449D01*
Y0884450D01*
X1299242D02*
X1301241D01*
X1300241D01*
Y0888449D01*
X1299242D01*
X1304240Y0884450D02*
X1306240D01*
X1305240D01*
Y0890448D01*
X1304240D01*
X1270251Y0872450D02*
X1272250D01*
X1271251D01*
Y0878448D01*
X1270251Y0877448D01*
X1275249Y0872450D02*
Y0873450D01*
X1276249D01*
Y0872450D01*
X1275249D01*
X1283247D02*
Y0878448D01*
X1280248Y0875449D01*
X1284247D01*
X1286246Y0877448D02*
X1287246Y0878448D01*
X1289245D01*
X1290245Y0877448D01*
Y0873450D01*
X1289245Y0872450D01*
X1287246D01*
X1286246Y0873450D01*
Y0877448D01*
X1292244Y0872450D02*
Y0876449D01*
X1293244D01*
X1294243Y0875449D01*
Y0872450D01*
Y0875449D01*
X1295243Y0876449D01*
X1296243Y0875449D01*
Y0872450D01*
X1298242D02*
X1300241D01*
X1299242D01*
Y0876449D01*
X1298242D01*
X1303240Y0872450D02*
X1305240D01*
X1304240D01*
Y0878448D01*
X1303240D01*
X1274250Y0866448D02*
X1270251D01*
Y0863449D01*
X1272250Y0864449D01*
X1273250D01*
X1274250Y0863449D01*
Y0861450D01*
X1273250Y0860450D01*
X1271251D01*
X1270251Y0861450D01*
X1276249D02*
X1277249Y0860450D01*
X1279248D01*
X1280248Y0861450D01*
Y0865448D01*
X1279248Y0866448D01*
X1277249D01*
X1276249Y0865448D01*
Y0864449D01*
X1277249Y0863449D01*
X1280248D01*
X1282247Y0860450D02*
Y0861450D01*
X1283247D01*
Y0860450D01*
X1282247D01*
X1291244D02*
X1287246D01*
X1291244Y0864449D01*
Y0865448D01*
X1290245Y0866448D01*
X1288245D01*
X1287246Y0865448D01*
X1293244D02*
X1294243Y0866448D01*
X1296243D01*
X1297242Y0865448D01*
Y0861450D01*
X1296243Y0860450D01*
X1294243D01*
X1293244Y0861450D01*
Y0865448D01*
X1299242Y0860450D02*
Y0864449D01*
X1300241D01*
X1301241Y0863449D01*
Y0860450D01*
Y0863449D01*
X1302241Y0864449D01*
X1303240Y0863449D01*
Y0860450D01*
X1305240D02*
X1307239D01*
X1306240D01*
Y0864449D01*
X1305240D01*
X1310238Y0860450D02*
X1312238D01*
X1311238D01*
Y0866448D01*
X1310238D01*
X1270251Y0848450D02*
X1272250D01*
X1271251D01*
Y0854448D01*
X1270251Y0853448D01*
X1275249Y0848450D02*
Y0849450D01*
X1276249D01*
Y0848450D01*
X1275249D01*
X1283247D02*
Y0854448D01*
X1280248Y0851449D01*
X1284247D01*
X1286246Y0853448D02*
X1287246Y0854448D01*
X1289245D01*
X1290245Y0853448D01*
Y0849450D01*
X1289245Y0848450D01*
X1287246D01*
X1286246Y0849450D01*
Y0853448D01*
X1292244Y0848450D02*
Y0852449D01*
X1293244D01*
X1294243Y0851449D01*
Y0848450D01*
Y0851449D01*
X1295243Y0852449D01*
X1296243Y0851449D01*
Y0848450D01*
X1298242D02*
X1300241D01*
X1299242D01*
Y0852449D01*
X1298242D01*
X1303240Y0848450D02*
X1305240D01*
X1304240D01*
Y0854448D01*
X1303240D01*
X1270251Y0841448D02*
X1271251Y0842448D01*
X1273250D01*
X1274250Y0841448D01*
Y0837450D01*
X1273250Y0836450D01*
X1271251D01*
X1270251Y0837450D01*
Y0841448D01*
X1276249Y0836450D02*
Y0837450D01*
X1277249D01*
Y0836450D01*
X1276249D01*
X1284247D02*
Y0842448D01*
X1281248Y0839449D01*
X1285246D01*
X1287246Y0841448D02*
X1288245Y0842448D01*
X1290245D01*
X1291244Y0841448D01*
Y0837450D01*
X1290245Y0836450D01*
X1288245D01*
X1287246Y0837450D01*
Y0841448D01*
X1293244Y0836450D02*
Y0840449D01*
X1294243D01*
X1295243Y0839449D01*
Y0836450D01*
Y0839449D01*
X1296243Y0840449D01*
X1297242Y0839449D01*
Y0836450D01*
X1299242D02*
X1301241D01*
X1300241D01*
Y0840449D01*
X1299242D01*
X1304240Y0836450D02*
X1306240D01*
X1305240D01*
Y0842448D01*
X1304240D01*
X1270251Y0914448D02*
X1274250D01*
X1272250D01*
Y0908450D01*
X1276249Y0914448D02*
Y0908450D01*
Y0911449D01*
X1277249Y0912449D01*
X1279248D01*
X1280248Y0911449D01*
Y0908450D01*
X1282247D02*
X1284247D01*
X1283247D01*
Y0912449D01*
X1282247D01*
X1291244D02*
X1288245D01*
X1287246Y0911449D01*
Y0909450D01*
X1288245Y0908450D01*
X1291244D01*
X1293244D02*
Y0914448D01*
Y0910449D02*
X1296243Y0912449D01*
X1293244Y0910449D02*
X1296243Y0908450D01*
X1299242D02*
Y0912449D01*
X1302241D01*
X1303240Y0911449D01*
Y0908450D01*
X1308239D02*
X1306240D01*
X1305240Y0909450D01*
Y0911449D01*
X1306240Y0912449D01*
X1308239D01*
X1309239Y0911449D01*
Y0910449D01*
X1305240D01*
X1311238Y0908450D02*
X1314237D01*
X1315237Y0909450D01*
X1314237Y0910449D01*
X1312238D01*
X1311238Y0911449D01*
X1312238Y0912449D01*
X1315237D01*
X1317236Y0908450D02*
X1320235D01*
X1321235Y0909450D01*
X1320235Y0910449D01*
X1318236D01*
X1317236Y0911449D01*
X1318236Y0912449D01*
X1321235D01*
X1188273Y0889448D02*
X1187274Y0890448D01*
X1185274D01*
X1184274Y0889448D01*
Y0888449D01*
X1185274Y0887449D01*
X1187274D01*
X1188273Y0886449D01*
Y0885450D01*
X1187274Y0884450D01*
X1185274D01*
X1184274Y0885450D01*
X1191272Y0884450D02*
X1193272D01*
X1194271Y0885450D01*
Y0887449D01*
X1193272Y0888449D01*
X1191272D01*
X1190273Y0887449D01*
Y0885450D01*
X1191272Y0884450D01*
X1196271D02*
X1198270D01*
X1197270D01*
Y0890448D01*
X1196271D01*
X1205268D02*
Y0884450D01*
X1202269D01*
X1201269Y0885450D01*
Y0887449D01*
X1202269Y0888449D01*
X1205268D01*
X1210266Y0884450D02*
X1208267D01*
X1207267Y0885450D01*
Y0887449D01*
X1208267Y0888449D01*
X1210266D01*
X1211266Y0887449D01*
Y0886449D01*
X1207267D01*
X1213265Y0888449D02*
Y0884450D01*
Y0886449D01*
X1214265Y0887449D01*
X1215264Y0888449D01*
X1216264D01*
X1225261Y0884450D02*
Y0890448D01*
X1228260D01*
X1229260Y0889448D01*
Y0887449D01*
X1228260Y0886449D01*
X1225261D01*
X1227260D02*
X1229260Y0884450D01*
X1234258D02*
X1232259D01*
X1231259Y0885450D01*
Y0887449D01*
X1232259Y0888449D01*
X1234258D01*
X1235258Y0887449D01*
Y0886449D01*
X1231259D01*
X1237257Y0884450D02*
X1240256D01*
X1241256Y0885450D01*
X1240256Y0886449D01*
X1238257D01*
X1237257Y0887449D01*
X1238257Y0888449D01*
X1241256D01*
X1243255Y0884450D02*
X1245255D01*
X1244255D01*
Y0888449D01*
X1243255D01*
X1248254Y0884450D02*
X1251253D01*
X1252252Y0885450D01*
X1251253Y0886449D01*
X1249253D01*
X1248254Y0887449D01*
X1249253Y0888449D01*
X1252252D01*
X1255252Y0889448D02*
Y0888449D01*
X1254252D01*
X1256251D01*
X1255252D01*
Y0885450D01*
X1256251Y0884450D01*
X1188273Y0877448D02*
X1187274Y0878448D01*
X1185274D01*
X1184274Y0877448D01*
Y0873450D01*
X1185274Y0872450D01*
X1187274D01*
X1188273Y0873450D01*
X1191272Y0872450D02*
X1193272D01*
X1194271Y0873450D01*
Y0875449D01*
X1193272Y0876449D01*
X1191272D01*
X1190273Y0875449D01*
Y0873450D01*
X1191272Y0872450D01*
X1196271Y0870451D02*
Y0876449D01*
X1199270D01*
X1200269Y0875449D01*
Y0873450D01*
X1199270Y0872450D01*
X1196271D01*
X1202269Y0870451D02*
Y0876449D01*
X1205268D01*
X1206267Y0875449D01*
Y0873450D01*
X1205268Y0872450D01*
X1202269D01*
X1211266D02*
X1209266D01*
X1208267Y0873450D01*
Y0875449D01*
X1209266Y0876449D01*
X1211266D01*
X1212265Y0875449D01*
Y0874449D01*
X1208267D01*
X1214265Y0876449D02*
Y0872450D01*
Y0874449D01*
X1215264Y0875449D01*
X1216264Y0876449D01*
X1217264D01*
X1188273Y0866448D02*
X1184274D01*
Y0863449D01*
X1186274D01*
X1184274D01*
Y0860450D01*
X1190273D02*
Y0866448D01*
X1193272D01*
X1194271Y0865448D01*
Y0863449D01*
X1193272Y0862449D01*
X1190273D01*
X1192272D02*
X1194271Y0860450D01*
X1196271Y0863449D02*
X1200269D01*
X1205268Y0860450D02*
Y0866448D01*
X1202269Y0863449D01*
X1206267D01*
X1214265Y0866448D02*
Y0860450D01*
Y0863449D01*
X1218264D01*
Y0866448D01*
Y0860450D01*
X1220263D02*
X1222262D01*
X1221262D01*
Y0864449D01*
X1220263D01*
X1227260Y0858451D02*
X1228260D01*
X1229260Y0859450D01*
Y0864449D01*
X1226261D01*
X1225261Y0863449D01*
Y0861450D01*
X1226261Y0860450D01*
X1229260D01*
X1231259Y0866448D02*
Y0860450D01*
Y0863449D01*
X1232259Y0864449D01*
X1234258D01*
X1235258Y0863449D01*
Y0860450D01*
X1243255Y0866448D02*
X1247254D01*
X1245255D01*
Y0860450D01*
X1251253Y0858451D02*
X1252252D01*
X1253252Y0859450D01*
Y0864449D01*
X1250253D01*
X1249253Y0863449D01*
Y0861450D01*
X1250253Y0860450D01*
X1253252D01*
X1188273Y0853448D02*
X1187274Y0854448D01*
X1185274D01*
X1184274Y0853448D01*
Y0849450D01*
X1185274Y0848450D01*
X1187274D01*
X1188273Y0849450D01*
X1191272Y0848450D02*
X1193272D01*
X1194271Y0849450D01*
Y0851449D01*
X1193272Y0852449D01*
X1191272D01*
X1190273Y0851449D01*
Y0849450D01*
X1191272Y0848450D01*
X1196271Y0846451D02*
Y0852449D01*
X1199270D01*
X1200269Y0851449D01*
Y0849450D01*
X1199270Y0848450D01*
X1196271D01*
X1202269Y0846451D02*
Y0852449D01*
X1205268D01*
X1206267Y0851449D01*
Y0849450D01*
X1205268Y0848450D01*
X1202269D01*
X1211266D02*
X1209266D01*
X1208267Y0849450D01*
Y0851449D01*
X1209266Y0852449D01*
X1211266D01*
X1212265Y0851449D01*
Y0850449D01*
X1208267D01*
X1214265Y0852449D02*
Y0848450D01*
Y0850449D01*
X1215264Y0851449D01*
X1216264Y0852449D01*
X1217264D01*
X1188273Y0841448D02*
X1187274Y0842448D01*
X1185274D01*
X1184274Y0841448D01*
Y0840449D01*
X1185274Y0839449D01*
X1187274D01*
X1188273Y0838449D01*
Y0837450D01*
X1187274Y0836450D01*
X1185274D01*
X1184274Y0837450D01*
X1191272Y0836450D02*
X1193272D01*
X1194271Y0837450D01*
Y0839449D01*
X1193272Y0840449D01*
X1191272D01*
X1190273Y0839449D01*
Y0837450D01*
X1191272Y0836450D01*
X1196271D02*
X1198270D01*
X1197270D01*
Y0842448D01*
X1196271D01*
X1205268D02*
Y0836450D01*
X1202269D01*
X1201269Y0837450D01*
Y0839449D01*
X1202269Y0840449D01*
X1205268D01*
X1210266Y0836450D02*
X1208267D01*
X1207267Y0837450D01*
Y0839449D01*
X1208267Y0840449D01*
X1210266D01*
X1211266Y0839449D01*
Y0838449D01*
X1207267D01*
X1213265Y0840449D02*
Y0836450D01*
Y0838449D01*
X1214265Y0839449D01*
X1215264Y0840449D01*
X1216264D01*
X1225261Y0836450D02*
Y0842448D01*
X1228260D01*
X1229260Y0841448D01*
Y0839449D01*
X1228260Y0838449D01*
X1225261D01*
X1227260D02*
X1229260Y0836450D01*
X1234258D02*
X1232259D01*
X1231259Y0837450D01*
Y0839449D01*
X1232259Y0840449D01*
X1234258D01*
X1235258Y0839449D01*
Y0838449D01*
X1231259D01*
X1237257Y0836450D02*
X1240256D01*
X1241256Y0837450D01*
X1240256Y0838449D01*
X1238257D01*
X1237257Y0839449D01*
X1238257Y0840449D01*
X1241256D01*
X1243255Y0836450D02*
X1245255D01*
X1244255D01*
Y0840449D01*
X1243255D01*
X1248254Y0836450D02*
X1251253D01*
X1252252Y0837450D01*
X1251253Y0838449D01*
X1249253D01*
X1248254Y0839449D01*
X1249253Y0840449D01*
X1252252D01*
X1255252Y0841448D02*
Y0840449D01*
X1254252D01*
X1256251D01*
X1255252D01*
Y0837450D01*
X1256251Y0836450D01*
X1184274Y0908450D02*
Y0914448D01*
X1186274Y0912449D01*
X1188273Y0914448D01*
Y0908450D01*
X1191272Y0912449D02*
X1193272D01*
X1194271Y0911449D01*
Y0908450D01*
X1191272D01*
X1190273Y0909450D01*
X1191272Y0910449D01*
X1194271D01*
X1197270Y0913448D02*
Y0912449D01*
X1196271D01*
X1198270D01*
X1197270D01*
Y0909450D01*
X1198270Y0908450D01*
X1204268D02*
X1202269D01*
X1201269Y0909450D01*
Y0911449D01*
X1202269Y0912449D01*
X1204268D01*
X1205268Y0911449D01*
Y0910449D01*
X1201269D01*
X1207267Y0912449D02*
Y0908450D01*
Y0910449D01*
X1208267Y0911449D01*
X1209266Y0912449D01*
X1210266D01*
X1213265Y0908450D02*
X1215264D01*
X1214265D01*
Y0912449D01*
X1213265D01*
X1219263D02*
X1221262D01*
X1222262Y0911449D01*
Y0908450D01*
X1219263D01*
X1218264Y0909450D01*
X1219263Y0910449D01*
X1222262D01*
X1224261Y0908450D02*
X1226261D01*
X1225261D01*
Y0914448D01*
X1224261D01*
X1091300Y0902448D02*
X1095299D01*
X1093299D01*
Y0896450D01*
X1098298D02*
X1100297D01*
X1101297Y0897450D01*
Y0899449D01*
X1100297Y0900449D01*
X1098298D01*
X1097298Y0899449D01*
Y0897450D01*
X1098298Y0896450D01*
X1103296Y0894451D02*
Y0900449D01*
X1106295D01*
X1107295Y0899449D01*
Y0897450D01*
X1106295Y0896450D01*
X1103296D01*
X1118291Y0902448D02*
X1116292D01*
X1115292Y0901448D01*
Y0897450D01*
X1116292Y0896450D01*
X1118291D01*
X1119291Y0897450D01*
Y0901448D01*
X1118291Y0902448D01*
X1121290Y0900449D02*
X1123290Y0896450D01*
X1125289Y0900449D01*
X1130287Y0896450D02*
X1128288D01*
X1127288Y0897450D01*
Y0899449D01*
X1128288Y0900449D01*
X1130287D01*
X1131287Y0899449D01*
Y0898449D01*
X1127288D01*
X1133286Y0900449D02*
Y0896450D01*
Y0898449D01*
X1134286Y0899449D01*
X1135286Y0900449D01*
X1136285D01*
X1139285Y0896450D02*
X1141284D01*
X1140284D01*
Y0902448D01*
X1139285D01*
X1145282Y0900449D02*
X1147282D01*
X1148282Y0899449D01*
Y0896450D01*
X1145282D01*
X1144283Y0897450D01*
X1145282Y0898449D01*
X1148282D01*
X1150281Y0900449D02*
Y0897450D01*
X1151281Y0896450D01*
X1154280D01*
Y0895450D01*
X1153280Y0894451D01*
X1152280D01*
X1154280Y0896450D02*
Y0900449D01*
X1091300Y0890448D02*
X1095299D01*
X1093299D01*
Y0884450D01*
X1098298D02*
X1100297D01*
X1101297Y0885450D01*
Y0887449D01*
X1100297Y0888449D01*
X1098298D01*
X1097298Y0887449D01*
Y0885450D01*
X1098298Y0884450D01*
X1103296Y0882451D02*
Y0888449D01*
X1106295D01*
X1107295Y0887449D01*
Y0885450D01*
X1106295Y0884450D01*
X1103296D01*
X1119291Y0889448D02*
X1118291Y0890448D01*
X1116292D01*
X1115292Y0889448D01*
Y0888449D01*
X1116292Y0887449D01*
X1118291D01*
X1119291Y0886449D01*
Y0885450D01*
X1118291Y0884450D01*
X1116292D01*
X1115292Y0885450D01*
X1122290Y0884450D02*
X1124289D01*
X1125289Y0885450D01*
Y0887449D01*
X1124289Y0888449D01*
X1122290D01*
X1121290Y0887449D01*
Y0885450D01*
X1122290Y0884450D01*
X1127288D02*
X1129288D01*
X1128288D01*
Y0890448D01*
X1127288D01*
X1136285D02*
Y0884450D01*
X1133286D01*
X1132287Y0885450D01*
Y0887449D01*
X1133286Y0888449D01*
X1136285D01*
X1141284Y0884450D02*
X1139285D01*
X1138285Y0885450D01*
Y0887449D01*
X1139285Y0888449D01*
X1141284D01*
X1142284Y0887449D01*
Y0886449D01*
X1138285D01*
X1144283Y0888449D02*
Y0884450D01*
Y0886449D01*
X1145282Y0887449D01*
X1146282Y0888449D01*
X1147282D01*
X1091300Y0878448D02*
X1095299D01*
X1093299D01*
Y0872450D01*
X1098298D02*
X1100297D01*
X1101297Y0873450D01*
Y0875449D01*
X1100297Y0876449D01*
X1098298D01*
X1097298Y0875449D01*
Y0873450D01*
X1098298Y0872450D01*
X1103296Y0870451D02*
Y0876449D01*
X1106295D01*
X1107295Y0875449D01*
Y0873450D01*
X1106295Y0872450D01*
X1103296D01*
X1115292Y0878448D02*
Y0872450D01*
X1119291D01*
X1122290Y0876449D02*
X1124289D01*
X1125289Y0875449D01*
Y0872450D01*
X1122290D01*
X1121290Y0873450D01*
X1122290Y0874449D01*
X1125289D01*
X1127288Y0876449D02*
Y0873450D01*
X1128288Y0872450D01*
X1131287D01*
Y0871450D01*
X1130287Y0870451D01*
X1129288D01*
X1131287Y0872450D02*
Y0876449D01*
X1136285Y0872450D02*
X1134286D01*
X1133286Y0873450D01*
Y0875449D01*
X1134286Y0876449D01*
X1136285D01*
X1137285Y0875449D01*
Y0874449D01*
X1133286D01*
X1139285Y0876449D02*
Y0872450D01*
Y0874449D01*
X1140284Y0875449D01*
X1141284Y0876449D01*
X1142284D01*
X1091300Y0866448D02*
Y0860450D01*
X1094299D01*
X1095299Y0861450D01*
Y0865448D01*
X1094299Y0866448D01*
X1091300D01*
X1097298Y0860450D02*
X1099297D01*
X1098298D01*
Y0864449D01*
X1097298D01*
X1105295Y0860450D02*
X1103296D01*
X1102296Y0861450D01*
Y0863449D01*
X1103296Y0864449D01*
X1105295D01*
X1106295Y0863449D01*
Y0862449D01*
X1102296D01*
X1108294Y0860450D02*
X1110294D01*
X1109294D01*
Y0866448D01*
X1108294D01*
X1116292Y0860450D02*
X1114293D01*
X1113293Y0861450D01*
Y0863449D01*
X1114293Y0864449D01*
X1116292D01*
X1117292Y0863449D01*
Y0862449D01*
X1113293D01*
X1123290Y0864449D02*
X1120291D01*
X1119291Y0863449D01*
Y0861450D01*
X1120291Y0860450D01*
X1123290D01*
X1126289Y0865448D02*
Y0864449D01*
X1125289D01*
X1127288D01*
X1126289D01*
Y0861450D01*
X1127288Y0860450D01*
X1130287Y0864449D02*
Y0860450D01*
Y0862449D01*
X1131287Y0863449D01*
X1132287Y0864449D01*
X1133286D01*
X1136285Y0860450D02*
X1138285D01*
X1137285D01*
Y0864449D01*
X1136285D01*
X1145282D02*
X1142284D01*
X1141284Y0863449D01*
Y0861450D01*
X1142284Y0860450D01*
X1145282D01*
X1147282D02*
X1149281D01*
X1148282D01*
Y0866448D01*
X1147282Y0865448D01*
X1091300Y0854448D02*
Y0848450D01*
X1094299D01*
X1095299Y0849450D01*
Y0850449D01*
X1094299Y0851449D01*
X1091300D01*
X1094299D01*
X1095299Y0852449D01*
Y0853448D01*
X1094299Y0854448D01*
X1091300D01*
X1098298Y0848450D02*
X1100297D01*
X1101297Y0849450D01*
Y0851449D01*
X1100297Y0852449D01*
X1098298D01*
X1097298Y0851449D01*
Y0849450D01*
X1098298Y0848450D01*
X1104296Y0853448D02*
Y0852449D01*
X1103296D01*
X1105295D01*
X1104296D01*
Y0849450D01*
X1105295Y0848450D01*
X1109294Y0853448D02*
Y0852449D01*
X1108294D01*
X1110294D01*
X1109294D01*
Y0849450D01*
X1110294Y0848450D01*
X1114293D02*
X1116292D01*
X1117292Y0849450D01*
Y0851449D01*
X1116292Y0852449D01*
X1114293D01*
X1113293Y0851449D01*
Y0849450D01*
X1114293Y0848450D01*
X1119291D02*
Y0852449D01*
X1120291D01*
X1121290Y0851449D01*
Y0848450D01*
Y0851449D01*
X1122290Y0852449D01*
X1123290Y0851449D01*
Y0848450D01*
X1131287Y0854448D02*
Y0848450D01*
X1135286D01*
X1138285Y0852449D02*
X1140284D01*
X1141284Y0851449D01*
Y0848450D01*
X1138285D01*
X1137285Y0849450D01*
X1138285Y0850449D01*
X1141284D01*
X1143283Y0852449D02*
Y0849450D01*
X1144283Y0848450D01*
X1147282D01*
Y0847450D01*
X1146282Y0846451D01*
X1145282D01*
X1147282Y0848450D02*
Y0852449D01*
X1152280Y0848450D02*
X1150281D01*
X1149281Y0849450D01*
Y0851449D01*
X1150281Y0852449D01*
X1152280D01*
X1153280Y0851449D01*
Y0850449D01*
X1149281D01*
X1155279Y0852449D02*
Y0848450D01*
Y0850449D01*
X1156279Y0851449D01*
X1157279Y0852449D01*
X1158278D01*
X1091300Y0842448D02*
Y0836450D01*
X1094299D01*
X1095299Y0837450D01*
Y0838449D01*
X1094299Y0839449D01*
X1091300D01*
X1094299D01*
X1095299Y0840449D01*
Y0841448D01*
X1094299Y0842448D01*
X1091300D01*
X1098298Y0836450D02*
X1100297D01*
X1101297Y0837450D01*
Y0839449D01*
X1100297Y0840449D01*
X1098298D01*
X1097298Y0839449D01*
Y0837450D01*
X1098298Y0836450D01*
X1104296Y0841448D02*
Y0840449D01*
X1103296D01*
X1105295D01*
X1104296D01*
Y0837450D01*
X1105295Y0836450D01*
X1109294Y0841448D02*
Y0840449D01*
X1108294D01*
X1110294D01*
X1109294D01*
Y0837450D01*
X1110294Y0836450D01*
X1114293D02*
X1116292D01*
X1117292Y0837450D01*
Y0839449D01*
X1116292Y0840449D01*
X1114293D01*
X1113293Y0839449D01*
Y0837450D01*
X1114293Y0836450D01*
X1119291D02*
Y0840449D01*
X1120291D01*
X1121290Y0839449D01*
Y0836450D01*
Y0839449D01*
X1122290Y0840449D01*
X1123290Y0839449D01*
Y0836450D01*
X1135286Y0841448D02*
X1134286Y0842448D01*
X1132287D01*
X1131287Y0841448D01*
Y0840449D01*
X1132287Y0839449D01*
X1134286D01*
X1135286Y0838449D01*
Y0837450D01*
X1134286Y0836450D01*
X1132287D01*
X1131287Y0837450D01*
X1138285Y0836450D02*
X1140284D01*
X1141284Y0837450D01*
Y0839449D01*
X1140284Y0840449D01*
X1138285D01*
X1137285Y0839449D01*
Y0837450D01*
X1138285Y0836450D01*
X1143283D02*
X1145282D01*
X1144283D01*
Y0842448D01*
X1143283D01*
X1152280D02*
Y0836450D01*
X1149281D01*
X1148282Y0837450D01*
Y0839449D01*
X1149281Y0840449D01*
X1152280D01*
X1157279Y0836450D02*
X1155279D01*
X1154280Y0837450D01*
Y0839449D01*
X1155279Y0840449D01*
X1157279D01*
X1158278Y0839449D01*
Y0838449D01*
X1154280D01*
X1160278Y0840449D02*
Y0836450D01*
Y0838449D01*
X1161277Y0839449D01*
X1162277Y0840449D01*
X1163277D01*
X1091300Y0830448D02*
Y0824450D01*
X1094299D01*
X1095299Y0825450D01*
Y0826449D01*
X1094299Y0827449D01*
X1091300D01*
X1094299D01*
X1095299Y0828449D01*
Y0829448D01*
X1094299Y0830448D01*
X1091300D01*
X1098298Y0824450D02*
X1100297D01*
X1101297Y0825450D01*
Y0827449D01*
X1100297Y0828449D01*
X1098298D01*
X1097298Y0827449D01*
Y0825450D01*
X1098298Y0824450D01*
X1104296Y0829448D02*
Y0828449D01*
X1103296D01*
X1105295D01*
X1104296D01*
Y0825450D01*
X1105295Y0824450D01*
X1109294Y0829448D02*
Y0828449D01*
X1108294D01*
X1110294D01*
X1109294D01*
Y0825450D01*
X1110294Y0824450D01*
X1114293D02*
X1116292D01*
X1117292Y0825450D01*
Y0827449D01*
X1116292Y0828449D01*
X1114293D01*
X1113293Y0827449D01*
Y0825450D01*
X1114293Y0824450D01*
X1119291D02*
Y0828449D01*
X1120291D01*
X1121290Y0827449D01*
Y0824450D01*
Y0827449D01*
X1122290Y0828449D01*
X1123290Y0827449D01*
Y0824450D01*
X1134286Y0830448D02*
X1132287D01*
X1131287Y0829448D01*
Y0825450D01*
X1132287Y0824450D01*
X1134286D01*
X1135286Y0825450D01*
Y0829448D01*
X1134286Y0830448D01*
X1137285Y0828449D02*
X1139285Y0824450D01*
X1141284Y0828449D01*
X1146282Y0824450D02*
X1144283D01*
X1143283Y0825450D01*
Y0827449D01*
X1144283Y0828449D01*
X1146282D01*
X1147282Y0827449D01*
Y0826449D01*
X1143283D01*
X1149281Y0828449D02*
Y0824450D01*
Y0826449D01*
X1150281Y0827449D01*
X1151281Y0828449D01*
X1152280D01*
X1155279Y0824450D02*
X1157279D01*
X1156279D01*
Y0830448D01*
X1155279D01*
X1161277Y0828449D02*
X1163277D01*
X1164276Y0827449D01*
Y0824450D01*
X1161277D01*
X1160278Y0825450D01*
X1161277Y0826449D01*
X1164276D01*
X1166276Y0828449D02*
Y0825450D01*
X1167275Y0824450D01*
X1170275D01*
Y0823450D01*
X1169275Y0822451D01*
X1168275D01*
X1170275Y0824450D02*
Y0828449D01*
X1091300Y0908450D02*
Y0914448D01*
X1095299Y0908450D01*
Y0914448D01*
X1098298Y0912449D02*
X1100297D01*
X1101297Y0911449D01*
Y0908450D01*
X1098298D01*
X1097298Y0909450D01*
X1098298Y0910449D01*
X1101297D01*
X1103296Y0908450D02*
Y0912449D01*
X1104296D01*
X1105295Y0911449D01*
Y0908450D01*
Y0911449D01*
X1106295Y0912449D01*
X1107295Y0911449D01*
Y0908450D01*
X1112293D02*
X1110294D01*
X1109294Y0909450D01*
Y0911449D01*
X1110294Y0912449D01*
X1112293D01*
X1113293Y0911449D01*
Y0910449D01*
X1109294D01*
X1050309Y0896450D02*
X1052308D01*
X1051308D01*
Y0902448D01*
X1050309Y0901448D01*
X1054307Y0884450D02*
X1050309D01*
X1054307Y0888449D01*
Y0889448D01*
X1053308Y0890448D01*
X1051308D01*
X1050309Y0889448D01*
Y0877448D02*
X1051308Y0878448D01*
X1053308D01*
X1054307Y0877448D01*
Y0876449D01*
X1053308Y0875449D01*
X1052308D01*
X1053308D01*
X1054307Y0874449D01*
Y0873450D01*
X1053308Y0872450D01*
X1051308D01*
X1050309Y0873450D01*
X1053308Y0860450D02*
Y0866448D01*
X1050309Y0863449D01*
X1054307D01*
Y0854448D02*
X1050309D01*
Y0851449D01*
X1052308Y0852449D01*
X1053308D01*
X1054307Y0851449D01*
Y0849450D01*
X1053308Y0848450D01*
X1051308D01*
X1050309Y0849450D01*
X1054307Y0842448D02*
X1052308Y0841448D01*
X1050309Y0839449D01*
Y0837450D01*
X1051308Y0836450D01*
X1053308D01*
X1054307Y0837450D01*
Y0838449D01*
X1053308Y0839449D01*
X1050309D01*
Y0830448D02*
X1054307D01*
Y0829448D01*
X1050309Y0825450D01*
Y0824450D01*
Y0914448D02*
Y0908450D01*
X1054307D01*
X1057306Y0912449D02*
X1059306D01*
X1060306Y0911449D01*
Y0908450D01*
X1057306D01*
X1056307Y0909450D01*
X1057306Y0910449D01*
X1060306D01*
X1062305Y0912449D02*
Y0909450D01*
X1063305Y0908450D01*
X1066304D01*
Y0907450D01*
X1065304Y0906451D01*
X1064304D01*
X1066304Y0908450D02*
Y0912449D01*
X1071302Y0908450D02*
X1069303D01*
X1068303Y0909450D01*
Y0911449D01*
X1069303Y0912449D01*
X1071302D01*
X1072302Y0911449D01*
Y0910449D01*
X1068303D01*
X1074301Y0912449D02*
Y0908450D01*
Y0910449D01*
X1075301Y0911449D01*
X1076300Y0912449D01*
X1077300D01*
X0497200Y0080717D02*
Y0101050D01*
X0413200Y0080717D02*
Y0101050D01*
X0040000Y0080717D02*
X0700200D01*
X0040000Y0060383D02*
X0700000D01*
X0040000Y0040050D02*
X0440500D01*
X0040050Y0101050D02*
X0700200D01*
X0040050Y0040050D02*
Y0101050D01*
Y0040050D02*
X0197600D01*
X0040000D02*
Y0101050D01*
X0286500Y0040050D02*
Y0101050D01*
X0700200Y0040050D02*
Y0101050D01*
X0440500Y0040050D02*
X0700200D01*
X0559400Y0039400D02*
Y0059683D01*
G54D39*
X1386221Y0901482D02*
X1390189Y0905450D01*
X1386221Y0895482D02*
X1396189Y0905450D01*
X1390189Y0893450D02*
X1402189Y0905450D01*
X1396189Y0893450D02*
X1408189Y0905450D01*
X1402189Y0893450D02*
X1414189Y0905450D01*
X1408189Y0893450D02*
X1420189Y0905450D01*
X1414189Y0893450D02*
X1426189Y0905450D01*
X1420189Y0893450D02*
X1432189Y0905450D01*
X1426189Y0893450D02*
X1438189Y0905450D01*
X1432189Y0893450D02*
X1444189Y0905450D01*
X1438189Y0893450D02*
X1450189Y0905450D01*
X1444189Y0893450D02*
X1456189Y0905450D01*
X1450189Y0893450D02*
X1462189Y0905450D01*
X1456189Y0893450D02*
X1468189Y0905450D01*
X1462189Y0893450D02*
X1474189Y0905450D01*
X1468189Y0893450D02*
X1480189Y0905450D01*
X1474189Y0893450D02*
X1486189Y0905450D01*
X1480189Y0893450D02*
X1492189Y0905450D01*
X1486189Y0893450D02*
X1498189Y0905450D01*
X1492189Y0893450D02*
X1498189Y0899450D01*
X1386221Y0889482D02*
X1390189Y0893450D01*
X1386221Y0883482D02*
X1396189Y0893450D01*
X1390189Y0881450D02*
X1402189Y0893450D01*
X1396189Y0881450D02*
X1408189Y0893450D01*
X1402189Y0881450D02*
X1414189Y0893450D01*
X1408189Y0881450D02*
X1420189Y0893450D01*
X1414189Y0881450D02*
X1426189Y0893450D01*
X1420189Y0881450D02*
X1432189Y0893450D01*
X1426189Y0881450D02*
X1438189Y0893450D01*
X1432189Y0881450D02*
X1444189Y0893450D01*
X1438189Y0881450D02*
X1450189Y0893450D01*
X1444189Y0881450D02*
X1456189Y0893450D01*
X1450189Y0881450D02*
X1462189Y0893450D01*
X1456189Y0881450D02*
X1468189Y0893450D01*
X1462189Y0881450D02*
X1474189Y0893450D01*
X1468189Y0881450D02*
X1480189Y0893450D01*
X1474189Y0881450D02*
X1486189Y0893450D01*
X1480189Y0881450D02*
X1492189Y0893450D01*
X1486189Y0881450D02*
X1498189Y0893450D01*
X1492189Y0881450D02*
X1498189Y0887450D01*
X1386221Y0877482D02*
X1390189Y0881450D01*
X1386221Y0871482D02*
X1396189Y0881450D01*
X1390189Y0869450D02*
X1402189Y0881450D01*
X1396189Y0869450D02*
X1408189Y0881450D01*
X1402189Y0869450D02*
X1414189Y0881450D01*
X1408189Y0869450D02*
X1420189Y0881450D01*
X1414189Y0869450D02*
X1426189Y0881450D01*
X1420189Y0869450D02*
X1432189Y0881450D01*
X1426189Y0869450D02*
X1438189Y0881450D01*
X1432189Y0869450D02*
X1444189Y0881450D01*
X1438189Y0869450D02*
X1450189Y0881450D01*
X1444189Y0869450D02*
X1456189Y0881450D01*
X1450189Y0869450D02*
X1462189Y0881450D01*
X1456189Y0869450D02*
X1468189Y0881450D01*
X1462189Y0869450D02*
X1474189Y0881450D01*
X1468189Y0869450D02*
X1480189Y0881450D01*
X1474189Y0869450D02*
X1486189Y0881450D01*
X1480189Y0869450D02*
X1492189Y0881450D01*
X1486189Y0869450D02*
X1498189Y0881450D01*
X1492189Y0869450D02*
X1498189Y0875450D01*
X1386221Y0865482D02*
X1390189Y0869450D01*
X1386221Y0859482D02*
X1396189Y0869450D01*
X1390189Y0857450D02*
X1402189Y0869450D01*
X1396189Y0857450D02*
X1408189Y0869450D01*
X1402189Y0857450D02*
X1414189Y0869450D01*
X1408189Y0857450D02*
X1420189Y0869450D01*
X1414189Y0857450D02*
X1426189Y0869450D01*
X1420189Y0857450D02*
X1432189Y0869450D01*
X1426189Y0857450D02*
X1438189Y0869450D01*
X1432189Y0857450D02*
X1444189Y0869450D01*
X1438189Y0857450D02*
X1450189Y0869450D01*
X1444189Y0857450D02*
X1456189Y0869450D01*
X1450189Y0857450D02*
X1462189Y0869450D01*
X1456189Y0857450D02*
X1468189Y0869450D01*
X1462189Y0857450D02*
X1474189Y0869450D01*
X1468189Y0857450D02*
X1480189Y0869450D01*
X1474189Y0857450D02*
X1486189Y0869450D01*
X1480189Y0857450D02*
X1492189Y0869450D01*
X1486189Y0857450D02*
X1498189Y0869450D01*
X1492189Y0857450D02*
X1498189Y0863450D01*
X1386221Y0853482D02*
X1390189Y0857450D01*
X1386221Y0847482D02*
X1396189Y0857450D01*
X1390189Y0845450D02*
X1402189Y0857450D01*
X1396189Y0845450D02*
X1408189Y0857450D01*
X1402189Y0845450D02*
X1414189Y0857450D01*
X1408189Y0845450D02*
X1420189Y0857450D01*
X1414189Y0845450D02*
X1426189Y0857450D01*
X1420189Y0845450D02*
X1432189Y0857450D01*
X1426189Y0845450D02*
X1438189Y0857450D01*
X1432189Y0845450D02*
X1444189Y0857450D01*
X1438189Y0845450D02*
X1450189Y0857450D01*
X1444189Y0845450D02*
X1456189Y0857450D01*
X1450189Y0845450D02*
X1462189Y0857450D01*
X1456189Y0845450D02*
X1468189Y0857450D01*
X1462189Y0845450D02*
X1474189Y0857450D01*
X1468189Y0845450D02*
X1480189Y0857450D01*
X1474189Y0845450D02*
X1486189Y0857450D01*
X1480189Y0845450D02*
X1492189Y0857450D01*
X1486189Y0845450D02*
X1498189Y0857450D01*
X1492189Y0845450D02*
X1498189Y0851450D01*
X1386221Y0841482D02*
X1390189Y0845450D01*
X1386221Y0835482D02*
X1396189Y0845450D01*
X1390189Y0833450D02*
X1402189Y0845450D01*
X1396189Y0833450D02*
X1408189Y0845450D01*
X1402189Y0833450D02*
X1414189Y0845450D01*
X1408189Y0833450D02*
X1420189Y0845450D01*
X1414189Y0833450D02*
X1426189Y0845450D01*
X1420189Y0833450D02*
X1432189Y0845450D01*
X1426189Y0833450D02*
X1438189Y0845450D01*
X1432189Y0833450D02*
X1444189Y0845450D01*
X1438189Y0833450D02*
X1450189Y0845450D01*
X1444189Y0833450D02*
X1456189Y0845450D01*
X1450189Y0833450D02*
X1462189Y0845450D01*
X1456189Y0833450D02*
X1468189Y0845450D01*
X1462189Y0833450D02*
X1474189Y0845450D01*
X1468189Y0833450D02*
X1480189Y0845450D01*
X1474189Y0833450D02*
X1486189Y0845450D01*
X1480189Y0833450D02*
X1492189Y0845450D01*
X1486189Y0833450D02*
X1498189Y0845450D01*
X1492189Y0833450D02*
X1498189Y0839450D01*
X1386221Y0829482D02*
X1390189Y0833450D01*
X1386221Y0823482D02*
X1396189Y0833450D01*
X1390189Y0821450D02*
X1402189Y0833450D01*
X1396189Y0821450D02*
X1408189Y0833450D01*
X1402189Y0821450D02*
X1414189Y0833450D01*
X1408189Y0821450D02*
X1420189Y0833450D01*
X1414189Y0821450D02*
X1426189Y0833450D01*
X1420189Y0821450D02*
X1432189Y0833450D01*
X1426189Y0821450D02*
X1438189Y0833450D01*
X1432189Y0821450D02*
X1444189Y0833450D01*
X1438189Y0821450D02*
X1450189Y0833450D01*
X1444189Y0821450D02*
X1456189Y0833450D01*
X1450189Y0821450D02*
X1462189Y0833450D01*
X1456189Y0821450D02*
X1468189Y0833450D01*
X1462189Y0821450D02*
X1474189Y0833450D01*
X1468189Y0821450D02*
X1480189Y0833450D01*
X1474189Y0821450D02*
X1486189Y0833450D01*
X1480189Y0821450D02*
X1492189Y0833450D01*
X1486189Y0821450D02*
X1498189Y0833450D01*
X1492189Y0821450D02*
X1498189Y0827450D01*
M02*
