G04 Layer_Physical_Order=2*
G04 Layer_Color=16711680*
%FSAX25Y25*%
%MOIN*%
G70*
G01*
G75*
%ADD11R,0.03937X0.03740*%
%ADD12R,0.02362X0.03150*%
%ADD13C,0.02000*%
%ADD14C,0.00800*%
%ADD16C,0.01000*%
%ADD17C,0.06102*%
%ADD18R,0.06102X0.06102*%
%ADD19C,0.02000*%
%ADD20R,0.03740X0.03937*%
%ADD21R,0.03150X0.02362*%
%ADD22C,0.02500*%
G36*
X0157161Y0155439D02*
X0117258D01*
X0116875Y0156363D01*
X0120156Y0159644D01*
X0120156Y0159644D01*
X0120419Y0160037D01*
X0120511Y0160500D01*
Y0170159D01*
X0120589Y0170211D01*
X0120984Y0170803D01*
X0121122Y0171500D01*
X0120984Y0172197D01*
X0120589Y0172789D01*
X0119997Y0173184D01*
X0119300Y0173322D01*
X0118603Y0173184D01*
X0118011Y0172789D01*
X0117616Y0172197D01*
X0117478Y0171500D01*
X0117616Y0170803D01*
X0118011Y0170211D01*
X0118089Y0170159D01*
Y0161002D01*
X0114199Y0157111D01*
X0087852D01*
X0086906Y0157243D01*
X0086906Y0158111D01*
Y0162557D01*
X0085508D01*
X0085505Y0162561D01*
X0085839Y0163561D01*
X0085839D01*
Y0171239D01*
X0078811D01*
X0078161Y0171239D01*
X0077811Y0172093D01*
Y0174994D01*
X0077878Y0175032D01*
X0078811Y0175251D01*
X0079262Y0174662D01*
X0080064Y0174047D01*
X0080998Y0173660D01*
X0082000Y0173528D01*
X0083002Y0173660D01*
X0083936Y0174047D01*
X0084738Y0174662D01*
X0085353Y0175464D01*
X0085740Y0176398D01*
X0085872Y0177400D01*
X0085740Y0178402D01*
X0085353Y0179336D01*
X0084738Y0180138D01*
X0083936Y0180753D01*
X0083002Y0181140D01*
X0082000Y0181272D01*
X0080998Y0181140D01*
X0080064Y0180753D01*
X0079262Y0180138D01*
X0078811Y0179549D01*
X0077878Y0179768D01*
X0077811Y0179806D01*
Y0184994D01*
X0077878Y0185032D01*
X0078811Y0185251D01*
X0079262Y0184662D01*
X0080064Y0184047D01*
X0080998Y0183660D01*
X0082000Y0183528D01*
X0083002Y0183660D01*
X0083936Y0184047D01*
X0084738Y0184662D01*
X0085353Y0185464D01*
X0085740Y0186398D01*
X0085872Y0187400D01*
X0085740Y0188402D01*
X0085353Y0189336D01*
X0084738Y0190138D01*
X0083936Y0190753D01*
X0083002Y0191140D01*
X0082000Y0191272D01*
X0080998Y0191140D01*
X0080064Y0190753D01*
X0079262Y0190138D01*
X0078811Y0189549D01*
X0077878Y0189768D01*
X0077811Y0189806D01*
Y0194994D01*
X0077878Y0195032D01*
X0078811Y0195251D01*
X0079262Y0194662D01*
X0080064Y0194047D01*
X0080998Y0193660D01*
X0082000Y0193528D01*
X0083002Y0193660D01*
X0083936Y0194047D01*
X0084738Y0194662D01*
X0085353Y0195464D01*
X0085740Y0196398D01*
X0085872Y0197400D01*
X0085740Y0198402D01*
X0085439Y0199127D01*
X0087502Y0201189D01*
X0088990D01*
X0089330Y0200189D01*
X0089262Y0200138D01*
X0088647Y0199336D01*
X0088260Y0198402D01*
X0088128Y0197400D01*
X0088260Y0196398D01*
X0088647Y0195464D01*
X0089262Y0194662D01*
X0090064Y0194047D01*
X0090998Y0193660D01*
X0092000Y0193528D01*
X0093002Y0193660D01*
X0093936Y0194047D01*
X0094738Y0194662D01*
X0094889Y0194860D01*
X0095889Y0194520D01*
Y0193001D01*
X0093727Y0190839D01*
X0093002Y0191140D01*
X0092000Y0191272D01*
X0090998Y0191140D01*
X0090064Y0190753D01*
X0089262Y0190138D01*
X0088647Y0189336D01*
X0088260Y0188402D01*
X0088128Y0187400D01*
X0088260Y0186398D01*
X0088647Y0185464D01*
X0089262Y0184662D01*
X0090064Y0184047D01*
X0090998Y0183660D01*
X0092000Y0183528D01*
X0093002Y0183660D01*
X0093936Y0184047D01*
X0094738Y0184662D01*
X0095353Y0185464D01*
X0095740Y0186398D01*
X0095872Y0187400D01*
X0095740Y0188402D01*
X0095439Y0189127D01*
X0096965Y0190653D01*
X0097889Y0190271D01*
Y0185002D01*
X0093727Y0180839D01*
X0093002Y0181140D01*
X0092000Y0181272D01*
X0090998Y0181140D01*
X0090064Y0180753D01*
X0089262Y0180138D01*
X0088647Y0179336D01*
X0088260Y0178402D01*
X0088128Y0177400D01*
X0088260Y0176398D01*
X0088647Y0175464D01*
X0089262Y0174662D01*
X0090064Y0174047D01*
X0090998Y0173660D01*
X0092000Y0173528D01*
X0093002Y0173660D01*
X0093936Y0174047D01*
X0094738Y0174662D01*
X0095353Y0175464D01*
X0095740Y0176398D01*
X0095872Y0177400D01*
X0095740Y0178402D01*
X0095439Y0179127D01*
X0099956Y0183644D01*
X0099956Y0183644D01*
X0100218Y0184037D01*
X0100311Y0184500D01*
X0100311Y0184500D01*
Y0195210D01*
X0102798Y0197697D01*
X0103397Y0197816D01*
X0103989Y0198211D01*
X0104384Y0198803D01*
X0104522Y0199500D01*
X0104384Y0200197D01*
X0103989Y0200789D01*
X0103397Y0201184D01*
X0102741Y0201314D01*
X0102623Y0201489D01*
X0102268Y0202256D01*
X0110301Y0210289D01*
X0112859D01*
X0112911Y0210211D01*
X0113503Y0209816D01*
X0114200Y0209678D01*
X0114897Y0209816D01*
X0115489Y0210211D01*
X0115884Y0210803D01*
X0116022Y0211500D01*
X0115884Y0212197D01*
X0115489Y0212789D01*
X0114897Y0213184D01*
X0114200Y0213322D01*
X0113503Y0213184D01*
X0112911Y0212789D01*
X0112859Y0212711D01*
X0110437D01*
X0110023Y0213711D01*
X0114201Y0217889D01*
X0121659D01*
X0121711Y0217811D01*
X0122303Y0217416D01*
X0123000Y0217278D01*
X0123561Y0217389D01*
X0124331Y0216619D01*
X0124331Y0214000D01*
X0124331Y0213000D01*
Y0209276D01*
X0124478D01*
Y0205030D01*
X0124074Y0204626D01*
X0123679Y0204035D01*
X0123540Y0203338D01*
X0123441Y0203103D01*
X0123000Y0202468D01*
X0122000Y0202468D01*
X0118276D01*
Y0202468D01*
X0117276Y0202179D01*
X0116759Y0202281D01*
X0116062Y0202143D01*
X0115470Y0201748D01*
X0115334Y0201543D01*
X0114284Y0201697D01*
X0113889Y0202289D01*
X0113297Y0202684D01*
X0112600Y0202822D01*
X0111903Y0202684D01*
X0111311Y0202289D01*
X0110916Y0201697D01*
X0110778Y0201000D01*
X0110575Y0200787D01*
X0109779Y0200502D01*
X0109082Y0200641D01*
X0108385Y0200502D01*
X0107793Y0200107D01*
X0107398Y0199515D01*
X0107260Y0198818D01*
X0107398Y0198121D01*
X0107793Y0197529D01*
X0108385Y0197134D01*
X0108789Y0197054D01*
Y0185471D01*
X0103542D01*
Y0180464D01*
X0102653Y0179692D01*
X0102500Y0179722D01*
X0101803Y0179584D01*
X0101211Y0179189D01*
X0100749Y0178726D01*
X0100354Y0178135D01*
X0100272Y0177722D01*
X0099676Y0176969D01*
X0099676Y0176969D01*
X0099676Y0176969D01*
Y0173031D01*
X0103400D01*
X0104400Y0173031D01*
X0105400Y0173031D01*
X0109124D01*
Y0173031D01*
X0110000Y0173178D01*
X0110527Y0172263D01*
X0110416Y0172097D01*
X0110278Y0171400D01*
X0110416Y0170703D01*
X0110811Y0170111D01*
X0111403Y0169716D01*
X0112100Y0169578D01*
X0112797Y0169716D01*
X0113389Y0170111D01*
X0113784Y0170703D01*
X0113922Y0171400D01*
X0113784Y0172097D01*
X0113398Y0172675D01*
Y0176700D01*
X0113398Y0176700D01*
X0113306Y0177163D01*
X0113043Y0177556D01*
X0113043Y0177556D01*
X0112798Y0177802D01*
Y0199217D01*
X0113297Y0199316D01*
X0113889Y0199711D01*
X0114025Y0199916D01*
X0115075Y0199762D01*
X0115470Y0199170D01*
X0116062Y0198775D01*
X0116759Y0198637D01*
X0117276Y0198739D01*
X0118276Y0198531D01*
Y0198531D01*
X0122000D01*
X0123000Y0198531D01*
X0124000Y0198531D01*
X0127724D01*
Y0202468D01*
X0127724Y0202468D01*
X0127870Y0203408D01*
X0127984Y0203578D01*
X0128122Y0204276D01*
X0128122Y0204276D01*
Y0209276D01*
X0128269D01*
Y0213000D01*
X0128269Y0214000D01*
X0128269Y0215000D01*
Y0218724D01*
X0125650D01*
X0124710Y0219664D01*
X0124684Y0219797D01*
X0124422Y0220189D01*
X0124658Y0220902D01*
X0124865Y0221189D01*
X0140998D01*
X0144289Y0217899D01*
Y0213141D01*
X0144211Y0213089D01*
X0143816Y0212497D01*
X0143678Y0211800D01*
X0143816Y0211103D01*
X0144211Y0210511D01*
X0144803Y0210116D01*
X0145500Y0209978D01*
X0146197Y0210116D01*
X0146789Y0210511D01*
X0147184Y0211103D01*
X0147322Y0211800D01*
X0147184Y0212497D01*
X0146789Y0213089D01*
X0146711Y0213141D01*
Y0218400D01*
X0146618Y0218863D01*
X0146356Y0219256D01*
X0146356Y0219256D01*
X0142356Y0223256D01*
X0141963Y0223518D01*
X0141500Y0223611D01*
X0141500Y0223611D01*
X0113800D01*
X0113337Y0223518D01*
X0112944Y0223256D01*
X0096849Y0207161D01*
X0096327Y0207289D01*
X0095849Y0207575D01*
X0095740Y0208402D01*
X0095353Y0209336D01*
X0094738Y0210138D01*
X0093936Y0210753D01*
X0093002Y0211140D01*
X0092000Y0211272D01*
X0090998Y0211140D01*
X0090064Y0210753D01*
X0089262Y0210138D01*
X0088647Y0209336D01*
X0088260Y0208402D01*
X0088128Y0207400D01*
X0088260Y0206398D01*
X0088647Y0205464D01*
X0089262Y0204662D01*
X0089330Y0204611D01*
X0088990Y0203611D01*
X0087000D01*
X0087000Y0203611D01*
X0086537Y0203519D01*
X0086144Y0203256D01*
X0086144Y0203256D01*
X0083727Y0200839D01*
X0083002Y0201140D01*
X0082000Y0201272D01*
X0080998Y0201140D01*
X0080064Y0200753D01*
X0079262Y0200138D01*
X0078811Y0199549D01*
X0077878Y0199768D01*
X0077811Y0199806D01*
Y0201499D01*
X0080273Y0203961D01*
X0080998Y0203660D01*
X0082000Y0203528D01*
X0083002Y0203660D01*
X0083936Y0204047D01*
X0084738Y0204662D01*
X0085353Y0205464D01*
X0085740Y0206398D01*
X0085872Y0207400D01*
X0085740Y0208402D01*
X0085353Y0209336D01*
X0084738Y0210138D01*
X0083936Y0210753D01*
X0083002Y0211140D01*
X0082000Y0211272D01*
X0080998Y0211140D01*
X0080064Y0210753D01*
X0079262Y0210138D01*
X0078647Y0209336D01*
X0078260Y0208402D01*
X0078128Y0207400D01*
X0078260Y0206398D01*
X0078561Y0205673D01*
X0075744Y0202856D01*
X0075481Y0202463D01*
X0075389Y0202000D01*
X0075389Y0202000D01*
Y0159200D01*
X0075389Y0159200D01*
X0075481Y0158737D01*
X0075744Y0158344D01*
X0077725Y0156363D01*
X0077342Y0155439D01*
X0071239D01*
Y0241361D01*
X0157161D01*
Y0155439D01*
D02*
G37*
%LPC*%
G36*
X0082000Y0221272D02*
X0080998Y0221140D01*
X0080064Y0220753D01*
X0079262Y0220138D01*
X0078647Y0219336D01*
X0078260Y0218402D01*
X0078128Y0217400D01*
X0078260Y0216398D01*
X0078647Y0215464D01*
X0079262Y0214662D01*
X0080064Y0214047D01*
X0080998Y0213660D01*
X0082000Y0213528D01*
X0083002Y0213660D01*
X0083936Y0214047D01*
X0084738Y0214662D01*
X0085353Y0215464D01*
X0085740Y0216398D01*
X0085872Y0217400D01*
X0085740Y0218402D01*
X0085353Y0219336D01*
X0084738Y0220138D01*
X0083936Y0220753D01*
X0083002Y0221140D01*
X0082000Y0221272D01*
D02*
G37*
G36*
X0122800Y0185169D02*
X0121800Y0185169D01*
X0118076D01*
X0118076Y0185169D01*
X0117076Y0185048D01*
X0116700Y0185122D01*
X0116003Y0184984D01*
X0115411Y0184589D01*
X0115016Y0183997D01*
X0114878Y0183300D01*
X0115016Y0182603D01*
X0115411Y0182011D01*
X0116003Y0181616D01*
X0116700Y0181478D01*
X0117076Y0181552D01*
X0118076Y0181231D01*
Y0181231D01*
X0121800D01*
X0122800Y0181231D01*
X0123800Y0181231D01*
X0127524D01*
Y0181378D01*
X0128400D01*
X0129097Y0181516D01*
X0129689Y0181911D01*
X0130084Y0182503D01*
X0130222Y0183200D01*
X0130084Y0183897D01*
X0129689Y0184489D01*
X0129097Y0184884D01*
X0128400Y0185022D01*
X0127524D01*
Y0185169D01*
X0123800D01*
X0122800Y0185169D01*
D02*
G37*
G36*
X0097038Y0232985D02*
X0096340Y0232846D01*
X0095749Y0232451D01*
X0095354Y0231860D01*
X0095215Y0231162D01*
X0095246Y0231008D01*
X0094339Y0230444D01*
X0093936Y0230753D01*
X0093002Y0231140D01*
X0092000Y0231272D01*
X0090998Y0231140D01*
X0090064Y0230753D01*
X0089262Y0230138D01*
X0088647Y0229336D01*
X0088260Y0228402D01*
X0088128Y0227400D01*
X0088260Y0226398D01*
X0088647Y0225464D01*
X0089262Y0224662D01*
X0090064Y0224047D01*
X0090998Y0223660D01*
X0092000Y0223528D01*
X0093002Y0223660D01*
X0093936Y0224047D01*
X0094738Y0224662D01*
X0095353Y0225464D01*
X0095740Y0226398D01*
X0095872Y0227400D01*
X0095740Y0228402D01*
X0095582Y0228782D01*
X0096210Y0229358D01*
X0096380Y0229471D01*
X0097038Y0229340D01*
X0097735Y0229479D01*
X0098326Y0229873D01*
X0098721Y0230465D01*
X0098860Y0231162D01*
X0098721Y0231860D01*
X0098326Y0232451D01*
X0097735Y0232846D01*
X0097038Y0232985D01*
D02*
G37*
G36*
X0082000Y0231272D02*
X0080998Y0231140D01*
X0080064Y0230753D01*
X0079262Y0230138D01*
X0078647Y0229336D01*
X0078260Y0228402D01*
X0078128Y0227400D01*
X0078260Y0226398D01*
X0078647Y0225464D01*
X0079262Y0224662D01*
X0080064Y0224047D01*
X0080998Y0223660D01*
X0082000Y0223528D01*
X0083002Y0223660D01*
X0083936Y0224047D01*
X0084738Y0224662D01*
X0085353Y0225464D01*
X0085740Y0226398D01*
X0085872Y0227400D01*
X0085740Y0228402D01*
X0085353Y0229336D01*
X0084738Y0230138D01*
X0083936Y0230753D01*
X0083002Y0231140D01*
X0082000Y0231272D01*
D02*
G37*
G36*
X0092000Y0221272D02*
X0090998Y0221140D01*
X0090064Y0220753D01*
X0089262Y0220138D01*
X0088647Y0219336D01*
X0088260Y0218402D01*
X0088128Y0217400D01*
X0088260Y0216398D01*
X0088647Y0215464D01*
X0089262Y0214662D01*
X0090064Y0214047D01*
X0090998Y0213660D01*
X0092000Y0213528D01*
X0093002Y0213660D01*
X0093936Y0214047D01*
X0094738Y0214662D01*
X0095353Y0215464D01*
X0095740Y0216398D01*
X0095872Y0217400D01*
X0095740Y0218402D01*
X0095353Y0219336D01*
X0094738Y0220138D01*
X0093936Y0220753D01*
X0093002Y0221140D01*
X0092000Y0221272D01*
D02*
G37*
%LPD*%
G54D11*
X0090450Y0159900D02*
D03*
X0084150D02*
D03*
G54D12*
X0126300Y0216362D02*
D03*
Y0211638D02*
D03*
G54D13*
X0125162Y0183200D02*
X0128400D01*
X0125362Y0203338D02*
X0126300Y0204276D01*
Y0211638D01*
X0125362Y0200500D02*
Y0203338D01*
X0106200Y0189014D02*
Y0193700D01*
X0092000Y0161450D02*
Y0167400D01*
X0090450Y0159900D02*
X0092000Y0161450D01*
X0106200Y0178300D02*
Y0182715D01*
X0102038Y0175000D02*
Y0177438D01*
X0102500Y0177900D01*
G54D14*
X0116700Y0183300D02*
X0116800Y0183200D01*
X0120438D01*
X0121438D01*
X0123562Y0219100D02*
X0126300Y0216362D01*
X0123000Y0219100D02*
X0123562D01*
X0102700Y0199311D02*
Y0199500D01*
X0116759Y0200459D02*
X0116800Y0200500D01*
X0120638D01*
X0119300Y0160500D02*
Y0171500D01*
X0114700Y0155900D02*
X0119300Y0160500D01*
X0141500Y0222400D02*
X0145500Y0218400D01*
Y0211800D02*
Y0218400D01*
X0113800Y0222400D02*
X0141500D01*
X0079900Y0155900D02*
X0114700D01*
X0076600Y0159200D02*
X0079900Y0155900D01*
X0076600Y0159200D02*
Y0202000D01*
X0082000Y0207400D01*
X0109800Y0211500D02*
X0114200D01*
X0087000Y0202400D02*
X0093800D01*
X0092000Y0197400D02*
X0113700Y0219100D01*
X0123000D01*
X0093800Y0202400D02*
X0113800Y0222400D01*
X0082000Y0197400D02*
X0087000Y0202400D01*
X0092000Y0187400D02*
X0097100Y0192500D01*
Y0198800D01*
X0109800Y0211500D01*
X0092000Y0177400D02*
X0099100Y0184500D01*
Y0195711D01*
X0102700Y0199311D01*
X0106962Y0174900D02*
X0107062Y0175000D01*
X0110000D01*
Y0197900D01*
X0109082Y0198818D02*
X0110000Y0197900D01*
X0111587Y0199987D02*
X0112600Y0201000D01*
X0112100Y0171400D02*
X0112187Y0171487D01*
Y0176700D01*
X0111587Y0177300D02*
X0112187Y0176700D01*
X0111587Y0177300D02*
Y0199987D01*
X0126900Y0073549D02*
Y0067551D01*
X0129899D01*
X0130899Y0068550D01*
Y0069550D01*
X0129899Y0070550D01*
X0126900D01*
X0129899D01*
X0130899Y0071549D01*
Y0072549D01*
X0129899Y0073549D01*
X0126900D01*
X0133898Y0067551D02*
X0135897D01*
X0136897Y0068550D01*
Y0070550D01*
X0135897Y0071549D01*
X0133898D01*
X0132898Y0070550D01*
Y0068550D01*
X0133898Y0067551D01*
X0139896Y0072549D02*
Y0071549D01*
X0138896D01*
X0140895D01*
X0139896D01*
Y0068550D01*
X0140895Y0067551D01*
X0144894Y0072549D02*
Y0071549D01*
X0143895D01*
X0145894D01*
X0144894D01*
Y0068550D01*
X0145894Y0067551D01*
X0149893D02*
X0151892D01*
X0152892Y0068550D01*
Y0070550D01*
X0151892Y0071549D01*
X0149893D01*
X0148893Y0070550D01*
Y0068550D01*
X0149893Y0067551D01*
X0154891D02*
Y0071549D01*
X0155891D01*
X0156890Y0070550D01*
Y0067551D01*
Y0070550D01*
X0157890Y0071549D01*
X0158890Y0070550D01*
Y0067551D01*
X0166887Y0073549D02*
Y0067551D01*
X0170886D01*
X0173885Y0071549D02*
X0175884D01*
X0176884Y0070550D01*
Y0067551D01*
X0173885D01*
X0172885Y0068550D01*
X0173885Y0069550D01*
X0176884D01*
X0178883Y0071549D02*
Y0068550D01*
X0179883Y0067551D01*
X0182882D01*
Y0066551D01*
X0181882Y0065551D01*
X0180883D01*
X0182882Y0067551D02*
Y0071549D01*
X0187880Y0067551D02*
X0185881D01*
X0184881Y0068550D01*
Y0070550D01*
X0185881Y0071549D01*
X0187880D01*
X0188880Y0070550D01*
Y0069550D01*
X0184881D01*
X0190879Y0071549D02*
Y0067551D01*
Y0069550D01*
X0191879Y0070550D01*
X0192879Y0071549D01*
X0193878D01*
X0567400Y0087833D02*
Y0093831D01*
X0571399Y0087833D01*
Y0093831D01*
X0574398Y0087833D02*
X0576397D01*
X0577397Y0088833D01*
Y0090832D01*
X0576397Y0091832D01*
X0574398D01*
X0573398Y0090832D01*
Y0088833D01*
X0574398Y0087833D01*
X0580396Y0092832D02*
Y0091832D01*
X0579396D01*
X0581395D01*
X0580396D01*
Y0088833D01*
X0581395Y0087833D01*
X0590393Y0093831D02*
X0592392D01*
X0591392D01*
Y0087833D01*
X0590393D01*
X0592392D01*
X0595391D02*
Y0091832D01*
X0598390D01*
X0599390Y0090832D01*
Y0087833D01*
X0607387Y0093831D02*
Y0089833D01*
X0609386Y0087833D01*
X0611386Y0089833D01*
Y0093831D01*
X0616384Y0087833D02*
X0614385D01*
X0613385Y0088833D01*
Y0090832D01*
X0614385Y0091832D01*
X0616384D01*
X0617384Y0090832D01*
Y0089833D01*
X0613385D01*
X0619383Y0091832D02*
Y0087833D01*
Y0089833D01*
X0620383Y0090832D01*
X0621383Y0091832D01*
X0622382D01*
X0625381Y0087833D02*
X0628380D01*
X0629380Y0088833D01*
X0628380Y0089833D01*
X0626381D01*
X0625381Y0090832D01*
X0626381Y0091832D01*
X0629380D01*
X0631379Y0087833D02*
X0633379D01*
X0632379D01*
Y0091832D01*
X0631379D01*
X0637377Y0087833D02*
X0639377D01*
X0640376Y0088833D01*
Y0090832D01*
X0639377Y0091832D01*
X0637377D01*
X0636378Y0090832D01*
Y0088833D01*
X0637377Y0087833D01*
X0642376D02*
Y0091832D01*
X0645375D01*
X0646374Y0090832D01*
Y0087833D01*
X0652373Y0092832D02*
X0651373Y0093831D01*
X0649373D01*
X0648374Y0092832D01*
Y0088833D01*
X0649373Y0087833D01*
X0651373D01*
X0652373Y0088833D01*
X0655372Y0087833D02*
X0657371D01*
X0658371Y0088833D01*
Y0090832D01*
X0657371Y0091832D01*
X0655372D01*
X0654372Y0090832D01*
Y0088833D01*
X0655372Y0087833D01*
X0660370D02*
Y0091832D01*
X0663369D01*
X0664369Y0090832D01*
Y0087833D01*
X0667368Y0092832D02*
Y0091832D01*
X0666368D01*
X0668367D01*
X0667368D01*
Y0088833D01*
X0668367Y0087833D01*
X0671366Y0091832D02*
Y0087833D01*
Y0089833D01*
X0672366Y0090832D01*
X0673366Y0091832D01*
X0674365D01*
X0678364Y0087833D02*
X0680364D01*
X0681363Y0088833D01*
Y0090832D01*
X0680364Y0091832D01*
X0678364D01*
X0677364Y0090832D01*
Y0088833D01*
X0678364Y0087833D01*
X0683362D02*
X0685362D01*
X0684362D01*
Y0093831D01*
X0683362D01*
X0520799Y0092832D02*
X0519799Y0093831D01*
X0517800D01*
X0516800Y0092832D01*
Y0091832D01*
X0517800Y0090832D01*
X0519799D01*
X0520799Y0089833D01*
Y0088833D01*
X0519799Y0087833D01*
X0517800D01*
X0516800Y0088833D01*
X0522798Y0093831D02*
Y0089833D01*
X0524797Y0087833D01*
X0526797Y0089833D01*
Y0093831D01*
X0528796Y0087833D02*
Y0093831D01*
X0532795Y0087833D01*
Y0093831D01*
X0540792Y0087833D02*
Y0093831D01*
X0543791D01*
X0544791Y0092832D01*
Y0090832D01*
X0543791Y0089833D01*
X0540792D01*
X0542792D02*
X0544791Y0087833D01*
X0550789Y0093831D02*
X0546790D01*
Y0087833D01*
X0550789D01*
X0546790Y0090832D02*
X0548790D01*
X0552788Y0093831D02*
Y0089833D01*
X0554788Y0087833D01*
X0556787Y0089833D01*
Y0093831D01*
X0558786Y0091832D02*
X0559786D01*
Y0090832D01*
X0558786D01*
Y0091832D01*
Y0088833D02*
X0559786D01*
Y0087833D01*
X0558786D01*
Y0088833D01*
X0433000Y0087833D02*
Y0093831D01*
X0435999D01*
X0436999Y0092832D01*
Y0090832D01*
X0435999Y0089833D01*
X0433000D01*
X0434999D02*
X0436999Y0087833D01*
X0442997Y0093831D02*
X0438998D01*
Y0087833D01*
X0442997D01*
X0438998Y0090832D02*
X0440997D01*
X0444996Y0093831D02*
Y0089833D01*
X0446995Y0087833D01*
X0448995Y0089833D01*
Y0093831D01*
X0450994Y0091832D02*
X0451994D01*
Y0090832D01*
X0450994D01*
Y0091832D01*
Y0088833D02*
X0451994D01*
Y0087833D01*
X0450994D01*
Y0088833D01*
X0126900Y0052965D02*
X0130899D01*
X0128899D01*
Y0046966D01*
X0132898Y0052965D02*
X0134897D01*
X0133898D01*
Y0046966D01*
X0132898D01*
X0134897D01*
X0137896Y0052965D02*
Y0046966D01*
X0140895D01*
X0141895Y0047966D01*
Y0051965D01*
X0140895Y0052965D01*
X0137896D01*
X0143895Y0046966D02*
Y0050965D01*
X0145894Y0052965D01*
X0147893Y0050965D01*
Y0046966D01*
Y0049966D01*
X0143895D01*
X0149893D02*
X0153891D01*
X0155891Y0051965D02*
X0156890Y0052965D01*
X0158890D01*
X0159889Y0051965D01*
Y0047966D01*
X0158890Y0046966D01*
X0156890D01*
X0155891Y0047966D01*
Y0051965D01*
X0161889Y0046966D02*
X0163888D01*
X0162888D01*
Y0052965D01*
X0161889Y0051965D01*
X0166887D02*
X0167887Y0052965D01*
X0169886D01*
X0170886Y0051965D01*
Y0050965D01*
X0169886Y0049966D01*
X0168886D01*
X0169886D01*
X0170886Y0048966D01*
Y0047966D01*
X0169886Y0046966D01*
X0167887D01*
X0166887Y0047966D01*
X0175884Y0046966D02*
Y0052965D01*
X0172885Y0049966D01*
X0176884D01*
X0178883Y0047966D02*
X0179883Y0046966D01*
X0181882D01*
X0182882Y0047966D01*
Y0051965D01*
X0181882Y0052965D01*
X0179883D01*
X0178883Y0051965D01*
Y0050965D01*
X0179883Y0049966D01*
X0182882D01*
X0188880Y0052965D02*
X0184881D01*
Y0046966D01*
X0188880D01*
X0184881Y0049966D02*
X0186881D01*
X0190879Y0046966D02*
X0192879D01*
X0191879D01*
Y0052965D01*
X0190879Y0051965D01*
X0195878Y0046966D02*
Y0047966D01*
X0196877D01*
Y0046966D01*
X0195878D01*
X0204875Y0051965D02*
X0203875Y0052965D01*
X0201876D01*
X0200876Y0051965D01*
Y0047966D01*
X0201876Y0046966D01*
X0203875D01*
X0204875Y0047966D01*
Y0049966D01*
X0202875D01*
X0206874Y0052965D02*
Y0046966D01*
X0209873D01*
X0210873Y0047966D01*
Y0048966D01*
X0209873Y0049966D01*
X0206874D01*
X0209873D01*
X0210873Y0050965D01*
Y0051965D01*
X0209873Y0052965D01*
X0206874D01*
X0212872D02*
Y0046966D01*
X0216871D01*
X0381150D02*
X0383149D01*
X0382150D01*
Y0052965D01*
X0381150Y0051965D01*
X0390147Y0046966D02*
X0386148D01*
X0390147Y0050965D01*
Y0051965D01*
X0389147Y0052965D01*
X0387148D01*
X0386148Y0051965D01*
X0392146Y0046966D02*
X0396145Y0050965D01*
X0398145Y0046966D02*
X0400144D01*
X0399144D01*
Y0052965D01*
X0398145Y0051965D01*
X0403143Y0047966D02*
X0404143Y0046966D01*
X0406142D01*
X0407142Y0047966D01*
Y0051965D01*
X0406142Y0052965D01*
X0404143D01*
X0403143Y0051965D01*
Y0050965D01*
X0404143Y0049966D01*
X0407142D01*
X0409141Y0046966D02*
X0413140Y0050965D01*
X0419138Y0046966D02*
X0415139D01*
X0419138Y0050965D01*
Y0051965D01*
X0418138Y0052965D01*
X0416139D01*
X0415139Y0051965D01*
X0421137D02*
X0422137Y0052965D01*
X0424136D01*
X0425136Y0051965D01*
Y0047966D01*
X0424136Y0046966D01*
X0422137D01*
X0421137Y0047966D01*
Y0051965D01*
X0427135Y0046966D02*
X0429135D01*
X0428135D01*
Y0052965D01*
X0427135Y0051965D01*
X0432133Y0052965D02*
X0436132D01*
Y0051965D01*
X0432133Y0047966D01*
Y0046966D01*
X0298199Y0051965D02*
X0297199Y0052965D01*
X0295200D01*
X0294200Y0051965D01*
Y0047966D01*
X0295200Y0046966D01*
X0297199D01*
X0298199Y0047966D01*
Y0049966D01*
X0296199D01*
X0304197Y0052965D02*
X0300198D01*
Y0046966D01*
X0304197D01*
X0300198Y0049966D02*
X0302197D01*
X0306196Y0046966D02*
Y0052965D01*
X0310195Y0046966D01*
Y0052965D01*
X0316193D02*
X0312194D01*
Y0046966D01*
X0316193D01*
X0312194Y0049966D02*
X0314194D01*
X0318192Y0046966D02*
Y0052965D01*
X0321191D01*
X0322191Y0051965D01*
Y0049966D01*
X0321191Y0048966D01*
X0318192D01*
X0320192D02*
X0322191Y0046966D01*
X0324190D02*
Y0050965D01*
X0326190Y0052965D01*
X0328189Y0050965D01*
Y0046966D01*
Y0049966D01*
X0324190D01*
X0330188Y0052965D02*
X0334187D01*
X0332188D01*
Y0046966D01*
X0340185Y0052965D02*
X0336186D01*
Y0046966D01*
X0340185D01*
X0336186Y0049966D02*
X0338186D01*
X0342184Y0052965D02*
Y0046966D01*
X0345183D01*
X0346183Y0047966D01*
Y0051965D01*
X0345183Y0052965D01*
X0342184D01*
X0372175Y0050965D02*
X0373175D01*
Y0049966D01*
X0372175D01*
Y0050965D01*
Y0047966D02*
X0373175D01*
Y0046966D01*
X0372175D01*
Y0047966D01*
X0046350Y0087833D02*
Y0091832D01*
X0048349Y0093831D01*
X0050349Y0091832D01*
Y0087833D01*
Y0090832D01*
X0046350D01*
X0052348Y0093831D02*
Y0087833D01*
X0056347D01*
X0058346Y0093831D02*
Y0087833D01*
X0062345D01*
X0070342D02*
Y0091832D01*
X0072342Y0093831D01*
X0074341Y0091832D01*
Y0087833D01*
Y0090832D01*
X0070342D01*
X0076340Y0087833D02*
Y0093831D01*
X0079339D01*
X0080339Y0092832D01*
Y0090832D01*
X0079339Y0089833D01*
X0076340D01*
X0078340D02*
X0080339Y0087833D01*
X0082338Y0093831D02*
X0086337D01*
X0084338D01*
Y0087833D01*
X0088336Y0093831D02*
Y0087833D01*
X0090336Y0089833D01*
X0092335Y0087833D01*
Y0093831D01*
X0097334D02*
X0095334D01*
X0094335Y0092832D01*
Y0088833D01*
X0095334Y0087833D01*
X0097334D01*
X0098333Y0088833D01*
Y0092832D01*
X0097334Y0093831D01*
X0100332Y0087833D02*
Y0093831D01*
X0103332D01*
X0104331Y0092832D01*
Y0090832D01*
X0103332Y0089833D01*
X0100332D01*
X0102332D02*
X0104331Y0087833D01*
X0106331Y0093831D02*
Y0087833D01*
Y0089833D01*
X0110329Y0093831D01*
X0107330Y0090832D01*
X0110329Y0087833D01*
X0118327Y0093831D02*
Y0089833D01*
X0120326Y0087833D01*
X0122325Y0089833D01*
Y0093831D01*
X0124325D02*
X0126324D01*
X0125324D01*
Y0087833D01*
X0124325D01*
X0126324D01*
X0133322Y0093831D02*
X0129323D01*
Y0087833D01*
X0133322D01*
X0129323Y0090832D02*
X0131323D01*
X0135321Y0093831D02*
Y0087833D01*
X0137321Y0089833D01*
X0139320Y0087833D01*
Y0093831D01*
X0145318D02*
X0141319D01*
Y0087833D01*
X0145318D01*
X0141319Y0090832D02*
X0143319D01*
X0147317Y0093831D02*
Y0087833D01*
X0150316D01*
X0151316Y0088833D01*
Y0092832D01*
X0150316Y0093831D01*
X0147317D01*
X0163312D02*
X0159313D01*
Y0090832D01*
X0161313D01*
X0159313D01*
Y0087833D01*
X0165312D02*
Y0093831D01*
X0168310D01*
X0169310Y0092832D01*
Y0090832D01*
X0168310Y0089833D01*
X0165312D01*
X0167311D02*
X0169310Y0087833D01*
X0174309Y0093831D02*
X0172309D01*
X0171310Y0092832D01*
Y0088833D01*
X0172309Y0087833D01*
X0174309D01*
X0175308Y0088833D01*
Y0092832D01*
X0174309Y0093831D01*
X0177308Y0087833D02*
Y0093831D01*
X0179307Y0091832D01*
X0181306Y0093831D01*
Y0087833D01*
X0189304Y0093831D02*
X0193303D01*
X0191303D01*
Y0087833D01*
X0198301Y0093831D02*
X0196301D01*
X0195302Y0092832D01*
Y0088833D01*
X0196301Y0087833D01*
X0198301D01*
X0199301Y0088833D01*
Y0092832D01*
X0198301Y0093831D01*
X0201300Y0087833D02*
Y0093831D01*
X0204299D01*
X0205299Y0092832D01*
Y0090832D01*
X0204299Y0089833D01*
X0201300D01*
X0217295Y0092832D02*
X0216295Y0093831D01*
X0214296D01*
X0213296Y0092832D01*
Y0091832D01*
X0214296Y0090832D01*
X0216295D01*
X0217295Y0089833D01*
Y0088833D01*
X0216295Y0087833D01*
X0214296D01*
X0213296Y0088833D01*
X0219294Y0093831D02*
X0221293D01*
X0220294D01*
Y0087833D01*
X0219294D01*
X0221293D01*
X0224292Y0093831D02*
Y0087833D01*
X0227291D01*
X0228291Y0088833D01*
Y0092832D01*
X0227291Y0093831D01*
X0224292D01*
X0234289D02*
X0230291D01*
Y0087833D01*
X0234289D01*
X0230291Y0090832D02*
X0232290D01*
X0466149Y0093831D02*
X0462150D01*
Y0087833D01*
X0466149D01*
X0462150Y0090832D02*
X0464149D01*
X0468148Y0087833D02*
X0470147D01*
X0469148D01*
Y0093831D01*
X0468148Y0092832D01*
X0348550Y0093831D02*
X0352549D01*
X0350549D01*
Y0087833D01*
X0354548Y0093831D02*
X0356547D01*
X0355548D01*
Y0087833D01*
X0354548D01*
X0356547D01*
X0359546Y0093831D02*
Y0087833D01*
X0362545D01*
X0363545Y0088833D01*
Y0092832D01*
X0362545Y0093831D01*
X0359546D01*
X0365545Y0087833D02*
Y0091832D01*
X0367544Y0093831D01*
X0369543Y0091832D01*
Y0087833D01*
Y0090832D01*
X0365545D01*
X0371543D02*
X0375541D01*
X0377541Y0092832D02*
X0378540Y0093831D01*
X0380540D01*
X0381539Y0092832D01*
Y0088833D01*
X0380540Y0087833D01*
X0378540D01*
X0377541Y0088833D01*
Y0092832D01*
X0383539Y0087833D02*
X0385538D01*
X0384538D01*
Y0093831D01*
X0383539Y0092832D01*
X0388537D02*
X0389537Y0093831D01*
X0391536D01*
X0392536Y0092832D01*
Y0091832D01*
X0391536Y0090832D01*
X0390536D01*
X0391536D01*
X0392536Y0089833D01*
Y0088833D01*
X0391536Y0087833D01*
X0389537D01*
X0388537Y0088833D01*
X0397534Y0087833D02*
Y0093831D01*
X0394535Y0090832D01*
X0398534D01*
X0400533Y0088833D02*
X0401533Y0087833D01*
X0403532D01*
X0404532Y0088833D01*
Y0092832D01*
X0403532Y0093831D01*
X0401533D01*
X0400533Y0092832D01*
Y0091832D01*
X0401533Y0090832D01*
X0404532D01*
X0294000Y0093831D02*
Y0087833D01*
X0296999D01*
X0297999Y0088833D01*
Y0089833D01*
X0296999Y0090832D01*
X0294000D01*
X0296999D01*
X0297999Y0091832D01*
Y0092832D01*
X0296999Y0093831D01*
X0294000D01*
X0302997D02*
X0300998D01*
X0299998Y0092832D01*
Y0088833D01*
X0300998Y0087833D01*
X0302997D01*
X0303997Y0088833D01*
Y0092832D01*
X0302997Y0093831D01*
X0305996Y0087833D02*
Y0091832D01*
X0307996Y0093831D01*
X0309995Y0091832D01*
Y0087833D01*
Y0090832D01*
X0305996D01*
X0311994Y0087833D02*
Y0093831D01*
X0314993D01*
X0315993Y0092832D01*
Y0090832D01*
X0314993Y0089833D01*
X0311994D01*
X0313994D02*
X0315993Y0087833D01*
X0317992Y0093831D02*
Y0087833D01*
X0320991D01*
X0321991Y0088833D01*
Y0092832D01*
X0320991Y0093831D01*
X0317992D01*
X0330988Y0087833D02*
Y0093831D01*
X0332987D02*
Y0087833D01*
X0329988Y0091832D02*
X0332987D01*
X0333987D01*
X0329988Y0089833D02*
X0333987D01*
X0335986Y0091832D02*
X0336986D01*
Y0090832D01*
X0335986D01*
Y0091832D01*
Y0088833D02*
X0336986D01*
Y0087833D01*
X0335986D01*
Y0088833D01*
X0046350Y0073549D02*
Y0067551D01*
X0050349D01*
X0052348D02*
Y0071549D01*
X0054347Y0073549D01*
X0056347Y0071549D01*
Y0067551D01*
Y0070550D01*
X0052348D01*
X0058346Y0073549D02*
Y0072549D01*
X0060346Y0070550D01*
X0062345Y0072549D01*
Y0073549D01*
X0060346Y0070550D02*
Y0067551D01*
X0068343Y0073549D02*
X0064344D01*
Y0067551D01*
X0068343D01*
X0064344Y0070550D02*
X0066343D01*
X0070342Y0067551D02*
Y0073549D01*
X0073341D01*
X0074341Y0072549D01*
Y0070550D01*
X0073341Y0069550D01*
X0070342D01*
X0072342D02*
X0074341Y0067551D01*
X0082338D02*
Y0073549D01*
X0086337Y0067551D01*
Y0073549D01*
X0088336Y0067551D02*
Y0071549D01*
X0090336Y0073549D01*
X0092335Y0071549D01*
Y0067551D01*
Y0070550D01*
X0088336D01*
X0094335Y0067551D02*
Y0073549D01*
X0096334Y0071549D01*
X0098333Y0073549D01*
Y0067551D01*
X0104331Y0073549D02*
X0100332D01*
Y0067551D01*
X0104331D01*
X0100332Y0070550D02*
X0102332D01*
X0112329Y0069550D02*
X0116327D01*
X0112329Y0071549D02*
X0116327D01*
X0046350Y0046966D02*
Y0052965D01*
X0049349D01*
X0050349Y0051965D01*
Y0049966D01*
X0049349Y0048966D01*
X0046350D01*
X0052348Y0052965D02*
Y0046966D01*
X0056347D01*
X0061345Y0052965D02*
X0059346D01*
X0058346Y0051965D01*
Y0047966D01*
X0059346Y0046966D01*
X0061345D01*
X0062345Y0047966D01*
Y0051965D01*
X0061345Y0052965D01*
X0064344D02*
X0068343D01*
X0066343D01*
Y0046966D01*
X0076340D02*
Y0052965D01*
X0080339Y0046966D01*
Y0052965D01*
X0082338Y0046966D02*
Y0050965D01*
X0084338Y0052965D01*
X0086337Y0050965D01*
Y0046966D01*
Y0049966D01*
X0082338D01*
X0088336Y0046966D02*
Y0052965D01*
X0090336Y0050965D01*
X0092335Y0052965D01*
Y0046966D01*
X0098333Y0052965D02*
X0094335D01*
Y0046966D01*
X0098333D01*
X0094335Y0049966D02*
X0096334D01*
X0106331Y0048966D02*
X0110329D01*
X0106331Y0050965D02*
X0110329D01*
X0454050Y0046966D02*
X0456049D01*
X0455050D01*
Y0052965D01*
X0454050Y0051965D01*
X0459048Y0050965D02*
X0460048D01*
Y0049966D01*
X0459048D01*
Y0050965D01*
Y0047966D02*
X0460048D01*
Y0046966D01*
X0459048D01*
Y0047966D01*
X0467046Y0046966D02*
Y0052965D01*
X0464047Y0049966D01*
X0468046D01*
X0473044Y0046966D02*
Y0052965D01*
X0470045Y0049966D01*
X0474044D01*
X0476043Y0050965D02*
X0477043D01*
Y0049966D01*
X0476043D01*
Y0050965D01*
Y0047966D02*
X0477043D01*
Y0046966D01*
X0476043D01*
Y0047966D01*
X0481041Y0051965D02*
X0482041Y0052965D01*
X0484040D01*
X0485040Y0051965D01*
Y0050965D01*
X0484040Y0049966D01*
X0483041D01*
X0484040D01*
X0485040Y0048966D01*
Y0047966D01*
X0484040Y0046966D01*
X0482041D01*
X0481041Y0047966D01*
X0490038Y0046966D02*
Y0052965D01*
X0487039Y0049966D01*
X0491038D01*
X0499035Y0046966D02*
Y0052965D01*
X0502035D01*
X0503034Y0051965D01*
Y0049966D01*
X0502035Y0048966D01*
X0499035D01*
X0505033Y0046966D02*
Y0052965D01*
X0507033Y0050965D01*
X0509032Y0052965D01*
Y0046966D01*
X0580500Y0052965D02*
X0584499D01*
X0582499D01*
Y0046966D01*
X0590497Y0052965D02*
X0586498D01*
Y0046966D01*
X0590497D01*
X0586498Y0049966D02*
X0588497D01*
X0592496Y0052965D02*
X0596495Y0046966D01*
Y0052965D02*
X0592496Y0046966D01*
X0598494D02*
Y0050965D01*
X0600493Y0052965D01*
X0602493Y0050965D01*
Y0046966D01*
Y0049966D01*
X0598494D01*
X0608491Y0051965D02*
X0607491Y0052965D01*
X0605492D01*
X0604492Y0051965D01*
Y0050965D01*
X0605492Y0049966D01*
X0607491D01*
X0608491Y0048966D01*
Y0047966D01*
X0607491Y0046966D01*
X0605492D01*
X0604492Y0047966D01*
X0616488Y0052965D02*
X0618488D01*
X0617488D01*
Y0046966D01*
X0616488D01*
X0618488D01*
X0621487D02*
Y0052965D01*
X0625486Y0046966D01*
Y0052965D01*
X0631484Y0051965D02*
X0630484Y0052965D01*
X0628484D01*
X0627485Y0051965D01*
Y0050965D01*
X0628484Y0049966D01*
X0630484D01*
X0631484Y0048966D01*
Y0047966D01*
X0630484Y0046966D01*
X0628484D01*
X0627485Y0047966D01*
X0633483Y0052965D02*
X0637482D01*
X0635482D01*
Y0046966D01*
X0639481D02*
Y0052965D01*
X0642480D01*
X0643480Y0051965D01*
Y0049966D01*
X0642480Y0048966D01*
X0639481D01*
X0641480D02*
X0643480Y0046966D01*
X0645479Y0052965D02*
Y0047966D01*
X0646479Y0046966D01*
X0648478D01*
X0649478Y0047966D01*
Y0052965D01*
X0651477Y0046966D02*
Y0052965D01*
X0653476Y0050965D01*
X0655476Y0052965D01*
Y0046966D01*
X0661474Y0052965D02*
X0657475D01*
Y0046966D01*
X0661474D01*
X0657475Y0049966D02*
X0659474D01*
X0663473Y0046966D02*
Y0052965D01*
X0667472Y0046966D01*
Y0052965D01*
X0669471D02*
X0673470D01*
X0671471D01*
Y0046966D01*
X0679468Y0051965D02*
X0678468Y0052965D01*
X0676469D01*
X0675469Y0051965D01*
Y0050965D01*
X0676469Y0049966D01*
X0678468D01*
X0679468Y0048966D01*
Y0047966D01*
X0678468Y0046966D01*
X0676469D01*
X0675469Y0047966D01*
X0294000Y0073498D02*
X0297999D01*
X0295999D01*
Y0067500D01*
X0299998Y0073498D02*
X0301997D01*
X0300998D01*
Y0067500D01*
X0299998D01*
X0301997D01*
X0304996Y0073498D02*
Y0067500D01*
X0307996D01*
X0308995Y0068500D01*
Y0072498D01*
X0307996Y0073498D01*
X0304996D01*
X0317992Y0067500D02*
Y0073498D01*
X0319992D02*
Y0067500D01*
X0316993Y0071499D02*
X0319992D01*
X0320991D01*
X0316993Y0069499D02*
X0320991D01*
X0322991Y0071499D02*
X0323990D01*
Y0070499D01*
X0322991D01*
Y0071499D01*
Y0068500D02*
X0323990D01*
Y0067500D01*
X0322991D01*
Y0068500D01*
X0348550Y0072498D02*
X0349550Y0073498D01*
X0351549D01*
X0352549Y0072498D01*
Y0068500D01*
X0351549Y0067500D01*
X0349550D01*
X0348550Y0068500D01*
Y0072498D01*
X0354548Y0067500D02*
X0356547D01*
X0355548D01*
Y0073498D01*
X0354548Y0072498D01*
X0359546D02*
X0360546Y0073498D01*
X0362545D01*
X0363545Y0072498D01*
Y0071499D01*
X0362545Y0070499D01*
X0361546D01*
X0362545D01*
X0363545Y0069499D01*
Y0068500D01*
X0362545Y0067500D01*
X0360546D01*
X0359546Y0068500D01*
X0368544Y0067500D02*
Y0073498D01*
X0365545Y0070499D01*
X0369543D01*
X0371543Y0068500D02*
X0372542Y0067500D01*
X0374542D01*
X0375541Y0068500D01*
Y0072498D01*
X0374542Y0073498D01*
X0372542D01*
X0371543Y0072498D01*
Y0071499D01*
X0372542Y0070499D01*
X0375541D01*
G54D16*
X0497200Y0080717D02*
Y0101050D01*
X0413200Y0080717D02*
Y0101050D01*
X0040000Y0080717D02*
X0700200D01*
X0040000Y0060383D02*
X0700000D01*
X0040000Y0040050D02*
X0440500D01*
X0040050Y0101050D02*
X0700200D01*
X0040050Y0040050D02*
Y0101050D01*
Y0040050D02*
X0197600D01*
X0040000D02*
Y0101050D01*
X0286500Y0040050D02*
Y0101050D01*
X0700200Y0040050D02*
Y0101050D01*
X0440500Y0040050D02*
X0700200D01*
X0559400Y0039400D02*
Y0059683D01*
G54D17*
X0092000Y0227400D02*
D03*
Y0217400D02*
D03*
Y0207400D02*
D03*
Y0197400D02*
D03*
Y0187400D02*
D03*
Y0177400D02*
D03*
Y0167400D02*
D03*
X0082000Y0227400D02*
D03*
Y0217400D02*
D03*
Y0207400D02*
D03*
Y0197400D02*
D03*
Y0187400D02*
D03*
Y0177400D02*
D03*
G54D18*
Y0167400D02*
D03*
G54D19*
X0128400Y0183200D02*
D03*
X0116700Y0183300D02*
D03*
X0112100Y0171400D02*
D03*
X0097038Y0231162D02*
D03*
X0102700Y0199500D02*
D03*
X0125362Y0203338D02*
D03*
X0116759Y0200459D02*
D03*
X0119300Y0171500D02*
D03*
X0145500Y0211800D02*
D03*
X0109082Y0198818D02*
D03*
X0112600Y0201000D02*
D03*
X0123000Y0219100D02*
D03*
X0114200Y0211500D02*
D03*
X0152100Y0170000D02*
D03*
X0106200Y0193700D02*
D03*
X0101100Y0237300D02*
D03*
X0106200Y0178300D02*
D03*
X0110000Y0175000D02*
D03*
X0102500Y0177900D02*
D03*
G54D20*
X0106200Y0189014D02*
D03*
Y0182715D02*
D03*
G54D21*
X0120438Y0183200D02*
D03*
X0125162D02*
D03*
X0120638Y0200500D02*
D03*
X0125362D02*
D03*
X0106762Y0175000D02*
D03*
X0102038D02*
D03*
G54D22*
X0082000Y0162050D02*
Y0167400D01*
Y0162050D02*
X0084150Y0159900D01*
M02*
