M48
;Layer_Color=9474304
;FILE_FORMAT=2:5
INCH
;TYPE=PLATED
T1F00S00C0.01000
T2F00S00C0.04016
%
T01
X0102500Y0177900
X0106200Y0178300
X0110000Y0175000
X0112100Y0171400
X0119300Y0171500
X0116700Y0183300
X0128400Y0183200
X0125362Y0203338
X0116759Y0200459
X0112600Y0201000
X0109082Y0198818
X0102700Y0199500
X0106200Y0193700
X0114200Y0211500
X0123000Y0219100
X0145500Y0211800
X0152100Y0170000
X0097038Y0231162
X0101100Y0237300
T02
X0082000Y0167400
X0092000
Y0177400
Y0187400
Y0197400
Y0207400
X0082000
Y0217400
Y0227400
X0092000
Y0217400
X0082000Y0197400
Y0187400
Y0177400
M30
