G04*
G04 #@! TF.GenerationSoftware,Altium Limited,Altium Designer,23.4.1 (23)*
G04*
G04 Layer_Color=2752767*
%FSLAX44Y44*%
%MOMM*%
G71*
G04*
G04 #@! TF.SameCoordinates,2805C024-4D9A-4381-85FD-023388383D32*
G04*
G04*
G04 #@! TF.FilePolarity,Positive*
G04*
G01*
G75*
%ADD13C,0.1270*%
%ADD59C,0.1693*%
D13*
X709920Y509920D02*
X712460Y515000D01*
X709920Y520080D01*
X715000Y517540D01*
X720080Y520080D01*
X717540Y515000D01*
X720080Y509920D01*
X715000Y512460D01*
X709920Y509920D01*
Y19920D02*
X712460Y25000D01*
X709920Y30080D01*
X715000Y27540D01*
X720080Y30080D01*
X717540Y25000D01*
X720080Y19920D01*
X715000Y22460D01*
X709920Y19920D01*
X19920D02*
X22460Y25000D01*
X19920Y30080D01*
X25000Y27540D01*
X30080Y30080D01*
X27540Y25000D01*
X30080Y19920D01*
X25000Y22460D01*
X19920Y19920D01*
Y509920D02*
X22460Y515000D01*
X19920Y520080D01*
X25000Y517540D01*
X30080Y520080D01*
X27540Y515000D01*
X30080Y509920D01*
X25000Y512460D01*
X19920Y509920D01*
X45000Y339920D02*
X39920Y350080D01*
X50080D01*
X45000Y339920D01*
Y364920D02*
X39920Y375080D01*
X50080D01*
X45000Y364920D01*
Y389920D02*
X39920Y400080D01*
X50080D01*
X45000Y389920D01*
X44750Y69920D02*
X39670Y80080D01*
X49830D01*
X44750Y69920D01*
Y94920D02*
X39670Y105080D01*
X49830D01*
X44750Y94920D01*
Y119920D02*
X39670Y130080D01*
X49830D01*
X44750Y119920D01*
X42210Y219960D02*
Y217420D01*
X47290D01*
Y219960D01*
X49830D01*
Y225040D01*
X47290D01*
Y227580D01*
X42210D01*
Y225040D01*
X39670D01*
Y219960D01*
X42210D01*
Y244960D02*
Y242420D01*
X47290D01*
Y244960D01*
X49830D01*
Y250040D01*
X47290D01*
Y252580D01*
X42210D01*
Y250040D01*
X39670D01*
Y244960D01*
X42210D01*
X164960Y67210D02*
Y64670D01*
X170040D01*
Y67210D01*
X172580D01*
Y72290D01*
X170040D01*
Y74830D01*
X164960D01*
Y72290D01*
X162420D01*
Y67210D01*
X164960D01*
X139960D02*
Y64670D01*
X145040D01*
Y67210D01*
X147580D01*
Y72290D01*
X145040D01*
Y74830D01*
X139960D01*
Y72290D01*
X137420D01*
Y67210D01*
X139960D01*
X251200Y469920D02*
X253740Y472460D01*
X256280D01*
X253740Y475000D01*
X256280Y477540D01*
X253740D01*
X251200Y480080D01*
X248660Y477540D01*
X246120D01*
X248660Y475000D01*
X246120Y472460D01*
X248660D01*
X251200Y469920D01*
X225800D02*
X228340Y472460D01*
X230880D01*
X228340Y475000D01*
X230880Y477540D01*
X228340D01*
X225800Y480080D01*
X223260Y477540D01*
X220720D01*
X223260Y475000D01*
X220720Y472460D01*
X223260D01*
X225800Y469920D01*
X200400D02*
X202940Y472460D01*
X205480D01*
X202940Y475000D01*
X205480Y477540D01*
X202940D01*
X200400Y480080D01*
X197860Y477540D01*
X195320D01*
X197860Y475000D01*
X195320Y472460D01*
X197860D01*
X200400Y469920D01*
X175000D02*
X177540Y472460D01*
X180080D01*
X177540Y475000D01*
X180080Y477540D01*
X177540D01*
X175000Y480080D01*
X172460Y477540D01*
X169920D01*
X172460Y475000D01*
X169920Y472460D01*
X172460D01*
X175000Y469920D01*
X149600D02*
X152140Y472460D01*
X154680D01*
X152140Y475000D01*
X154680Y477540D01*
X152140D01*
X149600Y480080D01*
X147060Y477540D01*
X144520D01*
X147060Y475000D01*
X144520Y472460D01*
X147060D01*
X149600Y469920D01*
X124200D02*
X126740Y472460D01*
X129280D01*
X126740Y475000D01*
X129280Y477540D01*
X126740D01*
X124200Y480080D01*
X121660Y477540D01*
X119120D01*
X121660Y475000D01*
X119120Y472460D01*
X121660D01*
X124200Y469920D01*
X530020Y328020D02*
Y338180D01*
X540180D01*
Y328020D01*
X530020D01*
X504620D02*
Y338180D01*
X514780D01*
Y328020D01*
X504620D01*
X479220D02*
Y338180D01*
X489380D01*
Y328020D01*
X479220D01*
X453820D02*
Y338180D01*
X463980D01*
Y328020D01*
X453820D01*
X428420D02*
Y338180D01*
X438580D01*
Y328020D01*
X428420D01*
X403020D02*
Y338180D01*
X413180D01*
Y328020D01*
X403020D01*
X377620D02*
Y338180D01*
X387780D01*
Y328020D01*
X377620D01*
X352220D02*
Y338180D01*
X362380D01*
Y328020D01*
X352220D01*
X326820D02*
Y338180D01*
X336980D01*
Y328020D01*
X326820D01*
X301420D02*
Y338180D01*
X311580D01*
Y328020D01*
X301420D01*
X276020D02*
Y338180D01*
X286180D01*
Y328020D01*
X276020D01*
X250620D02*
Y338180D01*
X260780D01*
Y328020D01*
X250620D01*
X225220D02*
Y338180D01*
X235380D01*
Y328020D01*
X225220D01*
X199820D02*
Y338180D01*
X209980D01*
Y328020D01*
X199820D01*
X530020Y251820D02*
Y261980D01*
X540180D01*
Y251820D01*
X530020D01*
X504620D02*
Y261980D01*
X514780D01*
Y251820D01*
X504620D01*
X479220D02*
Y261980D01*
X489380D01*
Y251820D01*
X479220D01*
X453820D02*
Y261980D01*
X463980D01*
Y251820D01*
X453820D01*
X428420D02*
Y261980D01*
X438580D01*
Y251820D01*
X428420D01*
X403020D02*
Y261980D01*
X413180D01*
Y251820D01*
X403020D01*
X377620D02*
Y261980D01*
X387780D01*
Y251820D01*
X377620D01*
X352220D02*
Y261980D01*
X362380D01*
Y251820D01*
X352220D01*
X326820D02*
Y261980D01*
X336980D01*
Y251820D01*
X326820D01*
X301420D02*
Y261980D01*
X311580D01*
Y251820D01*
X301420D01*
X276020D02*
Y261980D01*
X286180D01*
Y251820D01*
X276020D01*
X250620D02*
Y261980D01*
X260780D01*
Y251820D01*
X250620D01*
X225220D02*
Y261980D01*
X235380D01*
Y251820D01*
X225220D01*
X199820D02*
Y261980D01*
X209980D01*
Y251820D01*
X199820D01*
X374320Y374920D02*
X376860D01*
X379400Y377460D01*
X381940Y374920D01*
X384480D01*
Y377460D01*
X381940Y380000D01*
X384480Y382540D01*
Y385080D01*
X381940D01*
X379400Y382540D01*
X376860Y385080D01*
X374320D01*
Y382540D01*
X376860Y380000D01*
X374320Y377460D01*
Y374920D01*
X325520D02*
X328060D01*
X330600Y377460D01*
X333140Y374920D01*
X335680D01*
Y377460D01*
X333140Y380000D01*
X335680Y382540D01*
Y385080D01*
X333140D01*
X330600Y382540D01*
X328060Y385080D01*
X325520D01*
Y382540D01*
X328060Y380000D01*
X325520Y377460D01*
Y374920D01*
X264960Y67210D02*
Y64670D01*
X270040D01*
Y67210D01*
X272580D01*
Y72290D01*
X270040D01*
Y74830D01*
X264960D01*
Y72290D01*
X262420D01*
Y67210D01*
X264960D01*
X289960D02*
Y64670D01*
X295040D01*
Y67210D01*
X297580D01*
Y72290D01*
X295040D01*
Y74830D01*
X289960D01*
Y72290D01*
X287420D01*
Y67210D01*
X289960D01*
X665170Y132420D02*
Y142580D01*
X675330D01*
Y132420D01*
X665170D01*
Y107420D02*
Y117580D01*
X675330D01*
Y107420D01*
X665170D01*
Y82420D02*
Y92580D01*
X675330D01*
Y82420D01*
X665170D01*
Y57420D02*
Y67580D01*
X675330D01*
Y57420D01*
X665170D01*
X562420Y64670D02*
Y74830D01*
X572580D01*
Y64670D01*
X562420D01*
X537420D02*
Y74830D01*
X547580D01*
Y64670D01*
X537420D01*
X512420D02*
Y74830D01*
X522580D01*
Y64670D01*
X512420D01*
X487420D02*
Y74830D01*
X497580D01*
Y64670D01*
X487420D01*
X377460Y67460D02*
Y64920D01*
X382540D01*
Y67460D01*
X385080D01*
Y72540D01*
X382540D01*
Y75080D01*
X377460D01*
Y72540D01*
X374920D01*
Y67460D01*
X377460D01*
X402460D02*
Y64920D01*
X407540D01*
Y67460D01*
X410080D01*
Y72540D01*
X407540D01*
Y75080D01*
X402460D01*
Y72540D01*
X399920D01*
Y67460D01*
X402460D01*
X666920Y352420D02*
Y362580D01*
X677080D01*
Y352420D01*
X666920D01*
Y327420D02*
Y337580D01*
X677080D01*
Y327420D01*
X666920D01*
Y302420D02*
Y312580D01*
X677080D01*
Y302420D01*
X666920D01*
Y277420D02*
Y287580D01*
X677080D01*
Y277420D01*
X666920D01*
Y252420D02*
Y262580D01*
X677080D01*
Y252420D01*
X666920D01*
Y227420D02*
Y237580D01*
X677080D01*
Y227420D01*
X666920D01*
D59*
X595080Y182500D02*
G03*
X595080Y182500I-5080J0D01*
G01*
X465080Y185000D02*
G03*
X465080Y185000I-5080J0D01*
G01*
X407580Y202500D02*
G03*
X407580Y202500I-5080J0D01*
G01*
X575080Y195000D02*
G03*
X575080Y195000I-5080J0D01*
G01*
X100080Y255000D02*
G03*
X100080Y255000I-5080J0D01*
G01*
X105080Y322500D02*
G03*
X105080Y322500I-5080J0D01*
G01*
X440080Y437500D02*
G03*
X440080Y437500I-5080J0D01*
G01*
X307580Y435000D02*
G03*
X307580Y435000I-5080J0D01*
G01*
X295080Y360000D02*
G03*
X295080Y360000I-5080J0D01*
G01*
X420080Y205000D02*
G03*
X420080Y205000I-5080J0D01*
G01*
X210080Y227500D02*
G03*
X210080Y227500I-5080J0D01*
G01*
X507580Y292500D02*
G03*
X507580Y292500I-5080J0D01*
G01*
X502580Y247500D02*
G03*
X502580Y247500I-5080J0D01*
G01*
X500080Y300000D02*
G03*
X500080Y300000I-5080J0D01*
G01*
X625080Y225000D02*
G03*
X625080Y225000I-5080J0D01*
G01*
X635080Y395000D02*
G03*
X635080Y395000I-5080J0D01*
G01*
Y355000D02*
G03*
X635080Y355000I-5080J0D01*
G01*
X535080Y425000D02*
G03*
X535080Y425000I-5080J0D01*
G01*
X490080Y395000D02*
G03*
X490080Y395000I-5080J0D01*
G01*
X500080Y325000D02*
G03*
X500080Y325000I-5080J0D01*
G01*
X264060Y195000D02*
G03*
X264060Y195000I-5080J0D01*
G01*
X270080Y135000D02*
G03*
X270080Y135000I-5080J0D01*
G01*
X440080Y270000D02*
G03*
X440080Y270000I-5080J0D01*
G01*
X455080Y240000D02*
G03*
X455080Y240000I-5080J0D01*
G01*
X520080Y140000D02*
G03*
X520080Y140000I-5080J0D01*
G01*
X260080Y295000D02*
G03*
X260080Y295000I-5080J0D01*
G01*
X520080Y155000D02*
G03*
X520080Y155000I-5080J0D01*
G01*
X350080D02*
G03*
X350080Y155000I-5080J0D01*
G01*
X170080Y120000D02*
G03*
X170080Y120000I-5080J0D01*
G01*
X225080Y195000D02*
G03*
X225080Y195000I-5080J0D01*
G01*
X574600Y205480D02*
G03*
X574600Y205480I-5080J0D01*
G01*
X573260Y218180D02*
G03*
X573260Y218180I-5080J0D01*
G01*
X235080Y200000D02*
G03*
X235080Y200000I-5080J0D01*
G01*
X520080Y175000D02*
G03*
X520080Y175000I-5080J0D01*
G01*
X280080Y310000D02*
G03*
X280080Y310000I-5080J0D01*
G01*
X485080Y195000D02*
G03*
X485080Y195000I-5080J0D01*
G01*
Y205000D02*
G03*
X485080Y205000I-5080J0D01*
G01*
X474060Y240000D02*
G03*
X474060Y240000I-5080J0D01*
G01*
X192315Y217765D02*
G03*
X192315Y217765I-5080J0D01*
G01*
X180080Y210000D02*
G03*
X180080Y210000I-5080J0D01*
G01*
X635080Y255000D02*
G03*
X635080Y255000I-5080J0D01*
G01*
X650080Y235000D02*
G03*
X650080Y235000I-5080J0D01*
G01*
M02*
