G04*
G04 #@! TF.GenerationSoftware,Altium Limited,Altium Designer,23.4.1 (23)*
G04*
G04 Layer_Physical_Order=2*
G04 Layer_Color=16711680*
%FSLAX44Y44*%
%MOMM*%
G71*
G04*
G04 #@! TF.SameCoordinates,2805C024-4D9A-4381-85FD-023388383D32*
G04*
G04*
G04 #@! TF.FilePolarity,Positive*
G04*
G01*
G75*
%ADD35R,1.5700X1.5700*%
%ADD36C,1.5700*%
%ADD41R,1.4000X1.4000*%
%ADD42C,1.4000*%
%ADD43R,1.4000X1.4000*%
%ADD45C,0.3500*%
%ADD46C,3.5000*%
%ADD47R,1.5080X1.5080*%
%ADD48C,1.5080*%
%ADD49R,1.5750X1.5750*%
%ADD50C,1.5750*%
%ADD51R,1.5750X1.5750*%
%ADD52R,1.5000X1.5000*%
%ADD53C,1.5000*%
%ADD54C,1.2000*%
%ADD55R,1.2000X1.2000*%
%ADD56C,0.6000*%
G36*
X720000Y537961D02*
X721769Y537961D01*
X725239Y537271D01*
X728508Y535917D01*
X731449Y533951D01*
X733951Y531449D01*
X735917Y528508D01*
X737271Y525239D01*
X737961Y521769D01*
X737961Y520000D01*
X737961Y20000D01*
X737961Y18231D01*
X737271Y14761D01*
X735917Y11492D01*
X733951Y8551D01*
X731449Y6049D01*
X728508Y4083D01*
X725239Y2729D01*
X721769Y2039D01*
X720000D01*
X20000Y2039D01*
X18231D01*
X14761Y2729D01*
X11492Y4083D01*
X8551Y6049D01*
X6049Y8551D01*
X4083Y11492D01*
X2729Y14761D01*
X2039Y18231D01*
X2039Y20000D01*
Y520000D01*
X2039Y521769D01*
X2729Y525239D01*
X4083Y528508D01*
X6049Y531449D01*
X8551Y533951D01*
X11492Y535917D01*
X14761Y537271D01*
X18231Y537961D01*
X20000Y537961D01*
X720000Y537961D01*
D02*
G37*
%LPC*%
G36*
X716849Y533770D02*
X713151D01*
X709525Y533049D01*
X706109Y531634D01*
X703035Y529580D01*
X700420Y526965D01*
X698366Y523891D01*
X696951Y520475D01*
X696230Y516849D01*
Y513151D01*
X696951Y509525D01*
X698366Y506109D01*
X700420Y503035D01*
X703035Y500420D01*
X706109Y498366D01*
X709525Y496951D01*
X713151Y496230D01*
X716849D01*
X720475Y496951D01*
X723891Y498366D01*
X726965Y500420D01*
X729580Y503035D01*
X731634Y506109D01*
X733049Y509525D01*
X733770Y513151D01*
Y516849D01*
X733049Y520475D01*
X731634Y523891D01*
X729580Y526965D01*
X726965Y529580D01*
X723891Y531634D01*
X720475Y533049D01*
X716849Y533770D01*
D02*
G37*
G36*
X26849D02*
X23151D01*
X19525Y533049D01*
X16109Y531634D01*
X13035Y529580D01*
X10420Y526965D01*
X8366Y523891D01*
X6951Y520475D01*
X6230Y516849D01*
Y513151D01*
X6951Y509525D01*
X8366Y506109D01*
X10420Y503035D01*
X13035Y500420D01*
X16109Y498366D01*
X19525Y496951D01*
X23151Y496230D01*
X26849D01*
X30475Y496951D01*
X33891Y498366D01*
X36965Y500420D01*
X39580Y503035D01*
X41634Y506109D01*
X43049Y509525D01*
X43770Y513151D01*
Y516849D01*
X43049Y520475D01*
X41634Y523891D01*
X39580Y526965D01*
X36965Y529580D01*
X33891Y531634D01*
X30475Y533049D01*
X26849Y533770D01*
D02*
G37*
G36*
X125401Y484120D02*
X124835D01*
Y475635D01*
X133320D01*
Y476201D01*
X132698Y478520D01*
X131498Y480600D01*
X129800Y482298D01*
X127720Y483498D01*
X125401Y484120D01*
D02*
G37*
G36*
X123565D02*
X122999D01*
X120680Y483498D01*
X118600Y482298D01*
X116902Y480600D01*
X115702Y478520D01*
X115080Y476201D01*
Y475635D01*
X123565D01*
Y484120D01*
D02*
G37*
G36*
X260320D02*
X242080D01*
Y465880D01*
X260320D01*
Y484120D01*
D02*
G37*
G36*
X133320Y474365D02*
X124835D01*
Y465880D01*
X125401D01*
X127720Y466502D01*
X129800Y467702D01*
X131498Y469400D01*
X132698Y471480D01*
X133320Y473799D01*
Y474365D01*
D02*
G37*
G36*
X123565D02*
X115080D01*
Y473799D01*
X115702Y471480D01*
X116902Y469400D01*
X118600Y467702D01*
X120680Y466502D01*
X122999Y465880D01*
X123565D01*
Y474365D01*
D02*
G37*
G36*
X530849Y429270D02*
X529151D01*
X527581Y428620D01*
X527040Y428079D01*
X515000D01*
X513822Y427845D01*
X512823Y427177D01*
X484915Y399270D01*
X484151D01*
X482581Y398620D01*
X481380Y397419D01*
X480730Y395849D01*
Y394151D01*
X481380Y392581D01*
X482581Y391380D01*
X484151Y390730D01*
X485849D01*
X487419Y391380D01*
X488620Y392581D01*
X489270Y394151D01*
Y394915D01*
X516275Y421921D01*
X527040D01*
X527581Y421380D01*
X529151Y420730D01*
X530849D01*
X532419Y421380D01*
X533620Y422581D01*
X534270Y424151D01*
Y425849D01*
X533620Y427419D01*
X532419Y428620D01*
X530849Y429270D01*
D02*
G37*
G36*
X46160Y403810D02*
X45635D01*
Y395635D01*
X53810D01*
Y396160D01*
X53210Y398400D01*
X52050Y400410D01*
X50409Y402050D01*
X48401Y403210D01*
X46160Y403810D01*
D02*
G37*
G36*
X44365D02*
X43840D01*
X41599Y403210D01*
X39590Y402050D01*
X37950Y400410D01*
X36790Y398400D01*
X36190Y396160D01*
Y395635D01*
X44365D01*
Y403810D01*
D02*
G37*
G36*
X53810Y394365D02*
X45635D01*
Y386190D01*
X46160D01*
X48401Y386790D01*
X50409Y387950D01*
X52050Y389590D01*
X53210Y391600D01*
X53810Y393840D01*
Y394365D01*
D02*
G37*
G36*
X44365D02*
X36190D01*
Y393840D01*
X36790Y391600D01*
X37950Y389590D01*
X39590Y387950D01*
X41599Y386790D01*
X43840Y386190D01*
X44365D01*
Y394365D01*
D02*
G37*
G36*
X380357Y387270D02*
X378443D01*
X376594Y386775D01*
X374936Y385817D01*
X373583Y384464D01*
X372625Y382806D01*
X372130Y380957D01*
Y379043D01*
X372625Y377194D01*
X373583Y375536D01*
X374936Y374183D01*
X376594Y373225D01*
X378443Y372730D01*
X380357D01*
X382206Y373225D01*
X383864Y374183D01*
X385217Y375536D01*
X386175Y377194D01*
X386670Y379043D01*
Y380957D01*
X386175Y382806D01*
X385217Y384464D01*
X383864Y385817D01*
X382206Y386775D01*
X380357Y387270D01*
D02*
G37*
G36*
X337870D02*
X323330D01*
Y372730D01*
X337870D01*
Y387270D01*
D02*
G37*
G36*
X46160Y378810D02*
X43840D01*
X41599Y378210D01*
X39590Y377050D01*
X37950Y375410D01*
X36790Y373400D01*
X36190Y371160D01*
Y368840D01*
X36790Y366600D01*
X37950Y364590D01*
X39590Y362950D01*
X41599Y361790D01*
X43840Y361190D01*
X46160D01*
X48401Y361790D01*
X50409Y362950D01*
X52050Y364590D01*
X53210Y366600D01*
X53810Y368840D01*
Y371160D01*
X53210Y373400D01*
X52050Y375410D01*
X50409Y377050D01*
X48401Y378210D01*
X46160Y378810D01*
D02*
G37*
G36*
X630849Y399270D02*
X629151D01*
X627581Y398620D01*
X626380Y397419D01*
X625730Y395849D01*
Y394151D01*
X626380Y392581D01*
X626921Y392040D01*
Y357960D01*
X626380Y357419D01*
X625730Y355849D01*
Y354151D01*
X626380Y352581D01*
X627581Y351380D01*
X629151Y350730D01*
X630849D01*
X632419Y351380D01*
X633620Y352581D01*
X634270Y354151D01*
Y355849D01*
X633620Y357419D01*
X633079Y357960D01*
Y392040D01*
X633620Y392581D01*
X634270Y394151D01*
Y395849D01*
X633620Y397419D01*
X632419Y398620D01*
X630849Y399270D01*
D02*
G37*
G36*
X673089Y365770D02*
X670911D01*
X668808Y365207D01*
X666922Y364118D01*
X665383Y362578D01*
X664294Y360692D01*
X663730Y358589D01*
Y356411D01*
X664294Y354308D01*
X665383Y352422D01*
X666922Y350882D01*
X668808Y349794D01*
X670911Y349230D01*
X673089D01*
X675192Y349794D01*
X677078Y350882D01*
X678618Y352422D01*
X679707Y354308D01*
X680270Y356411D01*
Y358589D01*
X679707Y360692D01*
X678618Y362578D01*
X677078Y364118D01*
X675192Y365207D01*
X673089Y365770D01*
D02*
G37*
G36*
X53810Y353810D02*
X36190D01*
Y336190D01*
X53810D01*
Y353810D01*
D02*
G37*
G36*
X358455Y341870D02*
X357935D01*
Y333735D01*
X366070D01*
Y334254D01*
X365472Y336485D01*
X364318Y338485D01*
X362685Y340118D01*
X360685Y341272D01*
X358455Y341870D01*
D02*
G37*
G36*
X356665D02*
X356146D01*
X353915Y341272D01*
X351915Y340118D01*
X350282Y338485D01*
X349128Y336485D01*
X348530Y334254D01*
Y333735D01*
X356665D01*
Y341870D01*
D02*
G37*
G36*
X383855D02*
X381545D01*
X379315Y341272D01*
X377315Y340118D01*
X375682Y338485D01*
X374528Y336485D01*
X373930Y334254D01*
Y331945D01*
X374528Y329715D01*
X375682Y327715D01*
X377315Y326082D01*
X379315Y324927D01*
X381545Y324330D01*
X383855D01*
X386085Y324927D01*
X388085Y326082D01*
X389718Y327715D01*
X390872Y329715D01*
X391470Y331945D01*
Y334254D01*
X390872Y336485D01*
X389718Y338485D01*
X388085Y340118D01*
X386085Y341272D01*
X383855Y341870D01*
D02*
G37*
G36*
X366070Y332465D02*
X357935D01*
Y324330D01*
X358455D01*
X360685Y324927D01*
X362685Y326082D01*
X364318Y327715D01*
X365472Y329715D01*
X366070Y331945D01*
Y332465D01*
D02*
G37*
G36*
X356665D02*
X348530D01*
Y331945D01*
X349128Y329715D01*
X350282Y327715D01*
X351915Y326082D01*
X353915Y324927D01*
X356146Y324330D01*
X356665D01*
Y332465D01*
D02*
G37*
G36*
X333055Y341870D02*
X330746D01*
X328515Y341272D01*
X326515Y340118D01*
X324882Y338485D01*
X323728Y336485D01*
X323130Y334254D01*
Y331945D01*
X323728Y329715D01*
X324882Y327715D01*
X326515Y326082D01*
X328515Y324927D01*
X330746Y324330D01*
X333055D01*
X335285Y324927D01*
X337285Y326082D01*
X338918Y327715D01*
X340072Y329715D01*
X340670Y331945D01*
Y334254D01*
X340072Y336485D01*
X338918Y338485D01*
X337285Y340118D01*
X335285Y341272D01*
X333055Y341870D01*
D02*
G37*
G36*
X307655D02*
X305345D01*
X303115Y341272D01*
X301115Y340118D01*
X299482Y338485D01*
X298328Y336485D01*
X297730Y334254D01*
Y331945D01*
X298328Y329715D01*
X299482Y327715D01*
X301115Y326082D01*
X303115Y324927D01*
X305345Y324330D01*
X307655D01*
X309885Y324927D01*
X311885Y326082D01*
X313518Y327715D01*
X314672Y329715D01*
X315270Y331945D01*
Y334254D01*
X314672Y336485D01*
X313518Y338485D01*
X311885Y340118D01*
X309885Y341272D01*
X307655Y341870D01*
D02*
G37*
G36*
X282255D02*
X279946D01*
X277715Y341272D01*
X275715Y340118D01*
X274082Y338485D01*
X272928Y336485D01*
X272330Y334254D01*
Y331945D01*
X272928Y329715D01*
X274082Y327715D01*
X275715Y326082D01*
X277715Y324927D01*
X279946Y324330D01*
X282255D01*
X284485Y324927D01*
X286485Y326082D01*
X288118Y327715D01*
X289272Y329715D01*
X289870Y331945D01*
Y334254D01*
X289272Y336485D01*
X288118Y338485D01*
X286485Y340118D01*
X284485Y341272D01*
X282255Y341870D01*
D02*
G37*
G36*
X206055D02*
X203745D01*
X201515Y341272D01*
X199515Y340118D01*
X197882Y338485D01*
X196728Y336485D01*
X196130Y334254D01*
Y331945D01*
X196728Y329715D01*
X197882Y327715D01*
X199515Y326082D01*
X201515Y324927D01*
X203745Y324330D01*
X206055D01*
X208285Y324927D01*
X210285Y326082D01*
X211918Y327715D01*
X213072Y329715D01*
X213670Y331945D01*
Y334254D01*
X213072Y336485D01*
X211918Y338485D01*
X210285Y340118D01*
X208285Y341272D01*
X206055Y341870D01*
D02*
G37*
G36*
X673089Y340770D02*
X670911D01*
X668808Y340206D01*
X666922Y339118D01*
X665383Y337578D01*
X664294Y335692D01*
X664264Y335579D01*
X657500D01*
X656322Y335345D01*
X655323Y334677D01*
X566003Y245357D01*
X565335Y244358D01*
X565101Y243180D01*
Y221140D01*
X564560Y220599D01*
X563910Y219029D01*
Y217331D01*
X564560Y215761D01*
X565761Y214560D01*
X567331Y213910D01*
X569029D01*
X570599Y214560D01*
X571800Y215761D01*
X572450Y217331D01*
Y219029D01*
X571800Y220599D01*
X571259Y221140D01*
Y241905D01*
X658775Y329421D01*
X664264D01*
X664294Y329308D01*
X665383Y327422D01*
X666922Y325882D01*
X668808Y324794D01*
X670911Y324230D01*
X673089D01*
X675192Y324794D01*
X677078Y325882D01*
X678618Y327422D01*
X679707Y329308D01*
X680270Y331411D01*
Y333589D01*
X679707Y335692D01*
X678618Y337578D01*
X677078Y339118D01*
X675192Y340206D01*
X673089Y340770D01*
D02*
G37*
G36*
X227001Y484120D02*
X224599D01*
X222280Y483498D01*
X220200Y482298D01*
X218502Y480600D01*
X217302Y478520D01*
X216680Y476201D01*
Y473799D01*
X217302Y471480D01*
X218502Y469400D01*
X220200Y467702D01*
X222280Y466502D01*
X222721Y466383D01*
Y352477D01*
X222955Y351299D01*
X223623Y350300D01*
X230783Y343140D01*
X230257Y341870D01*
X229146D01*
X226915Y341272D01*
X224915Y340118D01*
X223282Y338485D01*
X222128Y336485D01*
X221530Y334254D01*
Y331945D01*
X222128Y329715D01*
X223282Y327715D01*
X224915Y326082D01*
X226915Y324927D01*
X229146Y324330D01*
X231455D01*
X233685Y324927D01*
X235685Y326082D01*
X237318Y327715D01*
X238472Y329715D01*
X239070Y331945D01*
Y332515D01*
X240329Y333083D01*
X240988Y332571D01*
Y305933D01*
X241222Y304755D01*
X241890Y303755D01*
X250730Y294915D01*
Y294151D01*
X251380Y292581D01*
X252581Y291380D01*
X254151Y290730D01*
X255849D01*
X257419Y291380D01*
X258620Y292581D01*
X259270Y294151D01*
Y295849D01*
X258620Y297419D01*
X257419Y298620D01*
X255849Y299270D01*
X255085D01*
X247146Y307208D01*
Y327836D01*
X248416Y328176D01*
X248682Y327715D01*
X250315Y326082D01*
X252315Y324927D01*
X254545Y324330D01*
X256855D01*
X259085Y324927D01*
X259359Y325086D01*
X271443Y313003D01*
Y312481D01*
X271380Y312419D01*
X270730Y310849D01*
Y309151D01*
X271380Y307581D01*
X272581Y306380D01*
X274151Y305730D01*
X275849D01*
X277419Y306380D01*
X278620Y307581D01*
X279270Y309151D01*
Y310849D01*
X278620Y312419D01*
X277601Y313438D01*
Y314278D01*
X277601Y314278D01*
X277366Y315457D01*
X276699Y316456D01*
X263714Y329440D01*
X263872Y329715D01*
X264470Y331945D01*
Y334254D01*
X263872Y336485D01*
X262718Y338485D01*
X261085Y340118D01*
X259085Y341272D01*
X256855Y341870D01*
X254545D01*
X252315Y341272D01*
X250315Y340118D01*
X248682Y338485D01*
X247611Y336629D01*
X246905Y336438D01*
X246706Y336423D01*
X246199Y336433D01*
X228879Y353753D01*
Y466383D01*
X229320Y466502D01*
X231400Y467702D01*
X233098Y469400D01*
X234298Y471480D01*
X234920Y473799D01*
Y476201D01*
X234298Y478520D01*
X233098Y480600D01*
X231400Y482298D01*
X229320Y483498D01*
X227001Y484120D01*
D02*
G37*
G36*
X673089Y315770D02*
X670911D01*
X668808Y315206D01*
X666922Y314117D01*
X665383Y312578D01*
X664294Y310692D01*
X663730Y308589D01*
Y306411D01*
X664279Y304363D01*
X569666Y209750D01*
X568671D01*
X567101Y209100D01*
X565900Y207899D01*
X565250Y206329D01*
Y204631D01*
X565900Y203061D01*
X567101Y201860D01*
X568671Y201210D01*
X569934D01*
X570533Y200136D01*
X569791Y199270D01*
X569151D01*
X567581Y198620D01*
X566380Y197419D01*
X565730Y195849D01*
Y194151D01*
X566380Y192581D01*
X567581Y191380D01*
X569151Y190730D01*
X570849D01*
X572419Y191380D01*
X573620Y192581D01*
X574270Y194151D01*
Y194915D01*
X630085Y250730D01*
X630849D01*
X632419Y251380D01*
X633620Y252581D01*
X634270Y254151D01*
Y255849D01*
X633620Y257419D01*
X632419Y258620D01*
X630849Y259270D01*
X629691D01*
X629165Y260540D01*
X668561Y299936D01*
X668808Y299793D01*
X670911Y299230D01*
X673089D01*
X675192Y299793D01*
X677078Y300882D01*
X678618Y302422D01*
X679707Y304308D01*
X680270Y306411D01*
Y308589D01*
X679707Y310692D01*
X678618Y312578D01*
X677078Y314117D01*
X675192Y315206D01*
X673089Y315770D01*
D02*
G37*
G36*
Y290770D02*
X670911D01*
X668808Y290207D01*
X666922Y289118D01*
X665383Y287578D01*
X664294Y285692D01*
X663730Y283589D01*
Y281411D01*
X664294Y279308D01*
X664352Y279207D01*
X642823Y257677D01*
X642155Y256678D01*
X641921Y255500D01*
Y237959D01*
X641380Y237419D01*
X640730Y235849D01*
Y234151D01*
X641380Y232581D01*
X642581Y231380D01*
X644151Y230730D01*
X645849D01*
X647419Y231380D01*
X648620Y232581D01*
X649270Y234151D01*
Y235849D01*
X648620Y237419D01*
X648079Y237959D01*
Y254224D01*
X668707Y274852D01*
X668808Y274794D01*
X670911Y274230D01*
X673089D01*
X675192Y274794D01*
X677078Y275882D01*
X678618Y277422D01*
X679707Y279308D01*
X680270Y281411D01*
Y283589D01*
X679707Y285692D01*
X678618Y287578D01*
X677078Y289118D01*
X675192Y290207D01*
X673089Y290770D01*
D02*
G37*
G36*
Y265770D02*
X670911D01*
X668808Y265206D01*
X666922Y264118D01*
X665383Y262578D01*
X664294Y260692D01*
X663730Y258589D01*
Y256411D01*
X664294Y254308D01*
X665383Y252422D01*
X666922Y250882D01*
X668808Y249793D01*
X670911Y249230D01*
X673089D01*
X675192Y249793D01*
X677078Y250882D01*
X678618Y252422D01*
X679707Y254308D01*
X680270Y256411D01*
Y258589D01*
X679707Y260692D01*
X678618Y262578D01*
X677078Y264118D01*
X675192Y265206D01*
X673089Y265770D01*
D02*
G37*
G36*
X391470Y256265D02*
X383335D01*
Y248130D01*
X383855D01*
X386085Y248727D01*
X388085Y249882D01*
X389718Y251515D01*
X390872Y253515D01*
X391470Y255745D01*
Y256265D01*
D02*
G37*
G36*
X382065D02*
X373930D01*
Y255745D01*
X374528Y253515D01*
X375682Y251515D01*
X377315Y249882D01*
X379315Y248727D01*
X381545Y248130D01*
X382065D01*
Y256265D01*
D02*
G37*
G36*
X45954Y256645D02*
X43546D01*
X41220Y256022D01*
X39135Y254818D01*
X37432Y253115D01*
X36228Y251030D01*
X35605Y248704D01*
Y246296D01*
X36228Y243970D01*
X37432Y241885D01*
X39135Y240182D01*
X41220Y238978D01*
X43546Y238355D01*
X45954D01*
X48280Y238978D01*
X50365Y240182D01*
X52068Y241885D01*
X53272Y243970D01*
X53895Y246296D01*
Y248704D01*
X53272Y251030D01*
X52068Y253115D01*
X50365Y254818D01*
X48280Y256022D01*
X45954Y256645D01*
D02*
G37*
G36*
X201601Y484120D02*
X199199D01*
X196880Y483498D01*
X194800Y482298D01*
X193102Y480600D01*
X191901Y478520D01*
X191280Y476201D01*
Y473799D01*
X191901Y471480D01*
X192130Y471084D01*
X182823Y461777D01*
X182155Y460778D01*
X181921Y459600D01*
Y261922D01*
X182155Y260744D01*
X182823Y259745D01*
X198365Y244203D01*
X198365Y244203D01*
X199364Y243535D01*
X200543Y243301D01*
X200543Y243301D01*
X270580D01*
X271758Y243535D01*
X272757Y244203D01*
X277441Y248886D01*
X277715Y248727D01*
X279946Y248130D01*
X282255D01*
X284485Y248727D01*
X286485Y249882D01*
X288118Y251515D01*
X289272Y253515D01*
X289870Y255745D01*
Y258054D01*
X289272Y260285D01*
X288118Y262285D01*
X286485Y263918D01*
X284485Y265072D01*
X282255Y265670D01*
X282300Y266921D01*
X305300D01*
X305345Y265670D01*
X303115Y265072D01*
X301115Y263918D01*
X299482Y262285D01*
X298328Y260285D01*
X297730Y258054D01*
Y255745D01*
X298328Y253515D01*
X298486Y253241D01*
X283325Y238079D01*
X201275D01*
X178079Y261275D01*
Y466383D01*
X178520Y466502D01*
X180600Y467702D01*
X182298Y469400D01*
X183498Y471480D01*
X184120Y473799D01*
Y476201D01*
X183498Y478520D01*
X182298Y480600D01*
X180600Y482298D01*
X178520Y483498D01*
X176201Y484120D01*
X173799D01*
X171480Y483498D01*
X169400Y482298D01*
X167702Y480600D01*
X166502Y478520D01*
X165880Y476201D01*
Y473799D01*
X166502Y471480D01*
X167702Y469400D01*
X169400Y467702D01*
X171480Y466502D01*
X171921Y466383D01*
Y260000D01*
X172155Y258822D01*
X172823Y257823D01*
X197823Y232823D01*
X197823Y232823D01*
X198822Y232155D01*
X200000Y231921D01*
X200000Y231921D01*
X201586D01*
X202112Y230651D01*
X201380Y229919D01*
X200730Y228349D01*
Y226651D01*
X201380Y225081D01*
X202581Y223880D01*
X204151Y223230D01*
X205849D01*
X207419Y223880D01*
X207959Y224421D01*
X295000D01*
X296178Y224655D01*
X297177Y225323D01*
X323501Y251646D01*
X324879Y251520D01*
X324882Y251515D01*
X326515Y249882D01*
X328515Y248727D01*
X330746Y248130D01*
X333055D01*
X335285Y248727D01*
X337285Y249882D01*
X338918Y251515D01*
X340072Y253515D01*
X340670Y255745D01*
Y258054D01*
X340072Y260285D01*
X338918Y262285D01*
X337285Y263918D01*
X335285Y265072D01*
X333055Y265670D01*
X333101Y266921D01*
X356100D01*
X356146Y265670D01*
X353915Y265072D01*
X351915Y263918D01*
X350282Y262285D01*
X349128Y260285D01*
X348530Y258054D01*
Y255745D01*
X349128Y253515D01*
X350282Y251515D01*
X351915Y249882D01*
X353915Y248727D01*
X356146Y248130D01*
X358455D01*
X360685Y248727D01*
X362685Y249882D01*
X364318Y251515D01*
X365472Y253515D01*
X366070Y255745D01*
Y258054D01*
X365472Y260285D01*
X364318Y262285D01*
X362685Y263918D01*
X360685Y265072D01*
X358455Y265670D01*
X358501Y266921D01*
X381500D01*
X381545Y265670D01*
X379315Y265072D01*
X377315Y263918D01*
X375682Y262285D01*
X374528Y260285D01*
X373930Y258054D01*
Y257535D01*
X382700D01*
X391470D01*
Y258054D01*
X390872Y260285D01*
X389718Y262285D01*
X388085Y263918D01*
X386085Y265072D01*
X383855Y265670D01*
X383900Y266921D01*
X406900D01*
X406945Y265670D01*
X404715Y265072D01*
X402715Y263918D01*
X401082Y262285D01*
X399928Y260285D01*
X399330Y258054D01*
Y255745D01*
X399928Y253515D01*
X400086Y253241D01*
X367690Y220844D01*
X190194D01*
X189654Y221385D01*
X188084Y222035D01*
X186386D01*
X184816Y221385D01*
X183615Y220184D01*
X182965Y218614D01*
Y216916D01*
X183615Y215346D01*
X184612Y214349D01*
X184393Y213385D01*
X184223Y213079D01*
X177959D01*
X177419Y213620D01*
X175849Y214270D01*
X174151D01*
X172581Y213620D01*
X171380Y212419D01*
X170730Y210849D01*
Y209151D01*
X171380Y207581D01*
X172581Y206380D01*
X174151Y205730D01*
X175849D01*
X177419Y206380D01*
X177959Y206921D01*
X405000D01*
X406178Y207155D01*
X407177Y207823D01*
X435677Y236323D01*
X436345Y237322D01*
X436579Y238500D01*
Y248646D01*
X436885Y248727D01*
X438885Y249882D01*
X440518Y251515D01*
X441672Y253515D01*
X442270Y255745D01*
Y258054D01*
X441672Y260285D01*
X440518Y262285D01*
X438885Y263918D01*
X437175Y264905D01*
X437095Y265846D01*
X437217Y266297D01*
X437419Y266380D01*
X438620Y267581D01*
X439270Y269151D01*
Y270849D01*
X438930Y271671D01*
X439757Y272941D01*
X444034D01*
X445301Y271674D01*
Y252542D01*
X445535Y251364D01*
X446203Y250365D01*
X451124Y245443D01*
X451092Y245305D01*
X450502Y244270D01*
X449151D01*
X447581Y243620D01*
X446380Y242419D01*
X445730Y240849D01*
Y240084D01*
X414915Y209270D01*
X414151D01*
X412581Y208620D01*
X411380Y207419D01*
X410730Y205849D01*
Y204151D01*
X411380Y202581D01*
X412581Y201380D01*
X414151Y200730D01*
X415849D01*
X417419Y201380D01*
X418620Y202581D01*
X419270Y204151D01*
Y204915D01*
X450085Y235730D01*
X450849D01*
X452419Y236380D01*
X453620Y237581D01*
X454270Y239151D01*
Y240502D01*
X455305Y241092D01*
X455443Y241125D01*
X458553Y238015D01*
X459552Y237348D01*
X460730Y237113D01*
X465828D01*
X466561Y236380D01*
X468131Y235730D01*
X469829D01*
X471399Y236380D01*
X472600Y237581D01*
X473250Y239151D01*
Y240849D01*
X472600Y242419D01*
X471399Y243620D01*
X469829Y244270D01*
X468131D01*
X466561Y243620D01*
X466213Y243272D01*
X462006D01*
X458417Y246860D01*
X458943Y248130D01*
X460055D01*
X462285Y248727D01*
X464285Y249882D01*
X465918Y251515D01*
X466922Y253254D01*
X467827Y253544D01*
X468401Y253567D01*
X476921Y245047D01*
Y207959D01*
X476380Y207419D01*
X475730Y205849D01*
Y204151D01*
X476380Y202581D01*
X477581Y201380D01*
X479151Y200730D01*
X480849D01*
X482419Y201380D01*
X483620Y202581D01*
X484270Y204151D01*
Y205849D01*
X483620Y207419D01*
X483079Y207959D01*
Y246322D01*
X482960Y246922D01*
X482964Y246948D01*
X483774Y248047D01*
X483916Y248130D01*
X485455D01*
X487685Y248727D01*
X489685Y249882D01*
X491318Y251515D01*
X492472Y253515D01*
X493070Y255745D01*
Y258054D01*
X492472Y260285D01*
X492314Y260559D01*
X493177Y261422D01*
X494350Y260936D01*
Y250389D01*
X493880Y249919D01*
X493230Y248349D01*
Y246651D01*
X493880Y245081D01*
X495081Y243880D01*
X496651Y243230D01*
X498349D01*
X499919Y243880D01*
X501120Y245081D01*
X501770Y246651D01*
Y248349D01*
X501120Y249919D01*
X500508Y250530D01*
Y252740D01*
X501778Y253081D01*
X502682Y251515D01*
X504315Y249882D01*
X506315Y248727D01*
X508545Y248130D01*
X510855D01*
X513085Y248727D01*
X515085Y249882D01*
X516718Y251515D01*
X517872Y253515D01*
X518470Y255745D01*
Y258054D01*
X517872Y260285D01*
X516718Y262285D01*
X515085Y263918D01*
X513085Y265072D01*
X512779Y265154D01*
Y310300D01*
X512545Y311478D01*
X511877Y312477D01*
X499270Y325085D01*
Y325849D01*
X498620Y327419D01*
X497419Y328620D01*
X495849Y329270D01*
X494151D01*
X493535Y329015D01*
X493050Y329335D01*
X492543Y329979D01*
X493070Y331945D01*
Y334254D01*
X492472Y336485D01*
X491318Y338485D01*
X490532Y339271D01*
X491058Y340541D01*
X502942D01*
X503468Y339271D01*
X502682Y338485D01*
X501528Y336485D01*
X500930Y334254D01*
Y331945D01*
X501528Y329715D01*
X502682Y327715D01*
X504315Y326082D01*
X506315Y324927D01*
X508545Y324330D01*
X510855D01*
X513085Y324927D01*
X515085Y326082D01*
X516718Y327715D01*
X517872Y329715D01*
X518470Y331945D01*
Y333057D01*
X519740Y333583D01*
X521501Y331822D01*
Y87670D01*
X521735Y86492D01*
X522403Y85493D01*
X534852Y73043D01*
X534794Y72942D01*
X534230Y70839D01*
Y68661D01*
X534794Y66558D01*
X535882Y64672D01*
X537422Y63132D01*
X539308Y62044D01*
X541411Y61480D01*
X543589D01*
X545692Y62044D01*
X547578Y63132D01*
X549118Y64672D01*
X550206Y66558D01*
X550770Y68661D01*
Y70839D01*
X550206Y72942D01*
X549118Y74828D01*
X547578Y76368D01*
X545692Y77456D01*
X543589Y78020D01*
X541411D01*
X539308Y77456D01*
X539207Y77398D01*
X527659Y88945D01*
Y250142D01*
X528929Y250668D01*
X529715Y249882D01*
X531715Y248727D01*
X533946Y248130D01*
X536255D01*
X538485Y248727D01*
X540485Y249882D01*
X542118Y251515D01*
X543272Y253515D01*
X543870Y255745D01*
Y258054D01*
X543272Y260285D01*
X542118Y262285D01*
X540485Y263918D01*
X538485Y265072D01*
X536255Y265670D01*
X533946D01*
X531715Y265072D01*
X529715Y263918D01*
X528929Y263132D01*
X527659Y263658D01*
Y324330D01*
X543870D01*
Y341870D01*
X526330D01*
Y337361D01*
X525157Y336875D01*
X516235Y345797D01*
X515236Y346465D01*
X514058Y346699D01*
X418620D01*
X417442Y346465D01*
X416443Y345797D01*
X411759Y341114D01*
X411485Y341272D01*
X409255Y341870D01*
X406945D01*
X404715Y341272D01*
X402715Y340118D01*
X401082Y338485D01*
X399928Y336485D01*
X399330Y334254D01*
Y331945D01*
X399928Y329715D01*
X401082Y327715D01*
X402715Y326082D01*
X404715Y324927D01*
X406945Y324330D01*
X409255D01*
X411485Y324927D01*
X413485Y326082D01*
X415118Y327715D01*
X416272Y329715D01*
X416870Y331945D01*
Y334254D01*
X416272Y336485D01*
X416114Y336759D01*
X419896Y340541D01*
X426742D01*
X427268Y339271D01*
X426482Y338485D01*
X425328Y336485D01*
X424730Y334254D01*
Y331945D01*
X425328Y329715D01*
X426482Y327715D01*
X428115Y326082D01*
X430115Y324927D01*
X432346Y324330D01*
X432621D01*
Y320377D01*
X432856Y319199D01*
X433523Y318200D01*
X466921Y284802D01*
Y262929D01*
X465651Y262552D01*
X464285Y263918D01*
X462285Y265072D01*
X460055Y265670D01*
X457746D01*
X455515Y265072D01*
X453515Y263918D01*
X452729Y263132D01*
X451459Y263658D01*
Y272950D01*
X451225Y274128D01*
X450557Y275127D01*
X450557Y275127D01*
X447487Y278197D01*
X446488Y278865D01*
X445310Y279099D01*
X224020D01*
X222842Y278865D01*
X221843Y278197D01*
X208559Y264914D01*
X208285Y265072D01*
X206055Y265670D01*
X203745D01*
X201515Y265072D01*
X199515Y263918D01*
X197882Y262285D01*
X196728Y260285D01*
X196130Y258054D01*
Y256943D01*
X194860Y256417D01*
X188079Y263198D01*
Y458325D01*
X196484Y466730D01*
X196880Y466502D01*
X199199Y465880D01*
X201601D01*
X203920Y466502D01*
X206000Y467702D01*
X207698Y469400D01*
X208899Y471480D01*
X209520Y473799D01*
Y476201D01*
X208899Y478520D01*
X207698Y480600D01*
X206000Y482298D01*
X203920Y483498D01*
X201601Y484120D01*
D02*
G37*
G36*
X680270Y240770D02*
X663730D01*
Y224230D01*
X680270D01*
Y240770D01*
D02*
G37*
G36*
X53895Y231645D02*
X35605D01*
Y213355D01*
X53895D01*
Y231645D01*
D02*
G37*
G36*
X480849Y199270D02*
X479151D01*
X477581Y198620D01*
X476380Y197419D01*
X476231Y197059D01*
X338371D01*
X338252Y197177D01*
X337253Y197845D01*
X336075Y198079D01*
X261940D01*
X261399Y198620D01*
X259829Y199270D01*
X258131D01*
X256561Y198620D01*
X255360Y197419D01*
X254710Y195849D01*
Y194151D01*
X255360Y192581D01*
X256561Y191380D01*
X258131Y190730D01*
X259829D01*
X261399Y191380D01*
X261940Y191921D01*
X334800D01*
X334918Y191803D01*
X335917Y191135D01*
X337095Y190901D01*
X478303D01*
X478597Y190959D01*
X479151Y190730D01*
X480849D01*
X482419Y191380D01*
X483620Y192581D01*
X484270Y194151D01*
Y195849D01*
X483620Y197419D01*
X482419Y198620D01*
X480849Y199270D01*
D02*
G37*
G36*
X230849Y204270D02*
X229151D01*
X227581Y203620D01*
X226380Y202419D01*
X225730Y200849D01*
Y199151D01*
X226380Y197581D01*
X227581Y196380D01*
X229151Y195730D01*
X229915D01*
X252823Y172823D01*
X252823Y172823D01*
X253822Y172155D01*
X255000Y171921D01*
X255000Y171921D01*
X512040D01*
X512581Y171380D01*
X514151Y170730D01*
X515849D01*
X517419Y171380D01*
X518620Y172581D01*
X519270Y174151D01*
Y175849D01*
X518620Y177419D01*
X517419Y178620D01*
X515849Y179270D01*
X514151D01*
X512581Y178620D01*
X512040Y178079D01*
X256275D01*
X234270Y200085D01*
Y200849D01*
X233620Y202419D01*
X232419Y203620D01*
X230849Y204270D01*
D02*
G37*
G36*
X515849Y159270D02*
X514151D01*
X512581Y158620D01*
X512040Y158079D01*
X347960D01*
X347419Y158620D01*
X345849Y159270D01*
X344151D01*
X342581Y158620D01*
X341380Y157419D01*
X340730Y155849D01*
Y154151D01*
X341380Y152581D01*
X342581Y151380D01*
X344151Y150730D01*
X345849D01*
X347419Y151380D01*
X347960Y151921D01*
X512040D01*
X512581Y151380D01*
X514151Y150730D01*
X515849D01*
X517419Y151380D01*
X518620Y152581D01*
X519270Y154151D01*
Y155849D01*
X518620Y157419D01*
X517419Y158620D01*
X515849Y159270D01*
D02*
G37*
G36*
X220849Y199270D02*
X219151D01*
X217581Y198620D01*
X216380Y197419D01*
X215730Y195849D01*
Y194151D01*
X216380Y192581D01*
X216921Y192041D01*
Y190000D01*
X217155Y188822D01*
X217823Y187823D01*
X265105Y140540D01*
X264579Y139270D01*
X264151D01*
X262581Y138620D01*
X261380Y137419D01*
X260730Y135849D01*
Y134151D01*
X261380Y132581D01*
X261921Y132041D01*
Y97250D01*
X262155Y96072D01*
X262823Y95073D01*
X283355Y74540D01*
Y60605D01*
X301645D01*
Y78895D01*
X287710D01*
X268079Y98525D01*
Y132041D01*
X268620Y132581D01*
X269270Y134151D01*
Y135771D01*
X269292Y135882D01*
X269617Y136359D01*
X270201Y136921D01*
X512040D01*
X512581Y136380D01*
X514151Y135730D01*
X515849D01*
X517419Y136380D01*
X518620Y137581D01*
X519270Y139151D01*
Y140849D01*
X518620Y142419D01*
X517419Y143620D01*
X515849Y144270D01*
X514151D01*
X512581Y143620D01*
X512040Y143079D01*
X271275D01*
X223079Y191276D01*
Y192041D01*
X223620Y192581D01*
X224270Y194151D01*
Y195849D01*
X223620Y197419D01*
X222419Y198620D01*
X220849Y199270D01*
D02*
G37*
G36*
X678520Y145770D02*
X661980D01*
Y129230D01*
X678520D01*
Y145770D01*
D02*
G37*
G36*
X45910Y133810D02*
X45385D01*
Y125635D01*
X53560D01*
Y126160D01*
X52960Y128400D01*
X51800Y130409D01*
X50160Y132050D01*
X48151Y133210D01*
X45910Y133810D01*
D02*
G37*
G36*
X44115D02*
X43590D01*
X41350Y133210D01*
X39341Y132050D01*
X37700Y130409D01*
X36540Y128400D01*
X35940Y126160D01*
Y125635D01*
X44115D01*
Y133810D01*
D02*
G37*
G36*
X53560Y124365D02*
X45385D01*
Y116190D01*
X45910D01*
X48151Y116790D01*
X50160Y117950D01*
X51800Y119591D01*
X52960Y121600D01*
X53560Y123840D01*
Y124365D01*
D02*
G37*
G36*
X44115D02*
X35940D01*
Y123840D01*
X36540Y121600D01*
X37700Y119591D01*
X39341Y117950D01*
X41350Y116790D01*
X43590Y116190D01*
X44115D01*
Y124365D01*
D02*
G37*
G36*
X150801Y484120D02*
X148399D01*
X146080Y483498D01*
X144000Y482298D01*
X142302Y480600D01*
X141102Y478520D01*
X140480Y476201D01*
Y473799D01*
X141102Y471480D01*
X142302Y469400D01*
X144000Y467702D01*
X146080Y466502D01*
X146521Y466383D01*
Y135400D01*
X146755Y134222D01*
X147423Y133223D01*
X160730Y119915D01*
Y119151D01*
X161380Y117581D01*
X162581Y116380D01*
X164151Y115730D01*
X165849D01*
X167419Y116380D01*
X168620Y117581D01*
X169270Y119151D01*
Y120849D01*
X168620Y122419D01*
X167419Y123620D01*
X165849Y124270D01*
X165085D01*
X152679Y136675D01*
Y466383D01*
X153120Y466502D01*
X155200Y467702D01*
X156898Y469400D01*
X158098Y471480D01*
X158720Y473799D01*
Y476201D01*
X158098Y478520D01*
X156898Y480600D01*
X155200Y482298D01*
X153120Y483498D01*
X150801Y484120D01*
D02*
G37*
G36*
X671339Y120770D02*
X669161D01*
X667058Y120206D01*
X665172Y119118D01*
X663632Y117578D01*
X662544Y115692D01*
X661980Y113589D01*
Y111411D01*
X662544Y109308D01*
X663632Y107422D01*
X665172Y105882D01*
X667058Y104794D01*
X669161Y104230D01*
X671339D01*
X673442Y104794D01*
X675328Y105882D01*
X676868Y107422D01*
X677956Y109308D01*
X678520Y111411D01*
Y113589D01*
X677956Y115692D01*
X676868Y117578D01*
X675328Y119118D01*
X673442Y120206D01*
X671339Y120770D01*
D02*
G37*
G36*
X45910Y108810D02*
X43590D01*
X41350Y108210D01*
X39341Y107050D01*
X37700Y105409D01*
X36540Y103400D01*
X35940Y101160D01*
Y98840D01*
X36540Y96600D01*
X37700Y94591D01*
X39341Y92950D01*
X41350Y91790D01*
X43590Y91190D01*
X45910D01*
X48151Y91790D01*
X50160Y92950D01*
X51800Y94591D01*
X52960Y96600D01*
X53560Y98840D01*
Y101160D01*
X52960Y103400D01*
X51800Y105409D01*
X50160Y107050D01*
X48151Y108210D01*
X45910Y108810D01*
D02*
G37*
G36*
X620849Y229270D02*
X619151D01*
X617581Y228620D01*
X616380Y227419D01*
X615730Y225849D01*
Y224151D01*
X616380Y222581D01*
X617581Y221380D01*
X619151Y220730D01*
X619915D01*
X621921Y218725D01*
Y132750D01*
X622155Y131572D01*
X622823Y130573D01*
X662602Y90793D01*
X662544Y90692D01*
X661980Y88589D01*
Y86411D01*
X662544Y84308D01*
X663632Y82422D01*
X665172Y80882D01*
X667058Y79794D01*
X669161Y79230D01*
X671339D01*
X673442Y79794D01*
X675328Y80882D01*
X676868Y82422D01*
X677956Y84308D01*
X678520Y86411D01*
Y88589D01*
X677956Y90692D01*
X676868Y92578D01*
X675328Y94118D01*
X673442Y95206D01*
X671339Y95770D01*
X669161D01*
X667058Y95206D01*
X666957Y95148D01*
X628079Y134025D01*
Y220000D01*
X627845Y221178D01*
X627177Y222177D01*
X624270Y225085D01*
Y225849D01*
X623620Y227419D01*
X622419Y228620D01*
X620849Y229270D01*
D02*
G37*
G36*
X381204Y79145D02*
X380635D01*
Y70635D01*
X389145D01*
Y71204D01*
X388522Y73530D01*
X387318Y75615D01*
X385615Y77318D01*
X383530Y78522D01*
X381204Y79145D01*
D02*
G37*
G36*
X379365D02*
X378796D01*
X376470Y78522D01*
X374385Y77318D01*
X372682Y75615D01*
X371478Y73530D01*
X370855Y71204D01*
Y70635D01*
X379365D01*
Y79145D01*
D02*
G37*
G36*
X493589Y78020D02*
X493135D01*
Y70385D01*
X500770D01*
Y70839D01*
X500206Y72942D01*
X499118Y74828D01*
X497578Y76368D01*
X495692Y77456D01*
X493589Y78020D01*
D02*
G37*
G36*
X491865D02*
X491411D01*
X489308Y77456D01*
X487422Y76368D01*
X485882Y74828D01*
X484794Y72942D01*
X484230Y70839D01*
Y70385D01*
X491865D01*
Y78020D01*
D02*
G37*
G36*
X268704Y78895D02*
X268135D01*
Y70385D01*
X276645D01*
Y70954D01*
X276022Y73280D01*
X274818Y75365D01*
X273115Y77068D01*
X271030Y78272D01*
X268704Y78895D01*
D02*
G37*
G36*
X266865D02*
X266296D01*
X263970Y78272D01*
X261885Y77068D01*
X260182Y75365D01*
X258978Y73280D01*
X258355Y70954D01*
Y70385D01*
X266865D01*
Y78895D01*
D02*
G37*
G36*
X143704D02*
X143135D01*
Y70385D01*
X151645D01*
Y70954D01*
X151022Y73280D01*
X149818Y75365D01*
X148115Y77068D01*
X146030Y78272D01*
X143704Y78895D01*
D02*
G37*
G36*
X141865D02*
X141296D01*
X138970Y78272D01*
X136885Y77068D01*
X135182Y75365D01*
X133978Y73280D01*
X133355Y70954D01*
Y70385D01*
X141865D01*
Y78895D01*
D02*
G37*
G36*
X53560Y83810D02*
X35940D01*
Y66190D01*
X53560D01*
Y83810D01*
D02*
G37*
G36*
X671339Y70770D02*
X670885D01*
Y63135D01*
X678520D01*
Y63589D01*
X677956Y65692D01*
X676868Y67578D01*
X675328Y69118D01*
X673442Y70206D01*
X671339Y70770D01*
D02*
G37*
G36*
X669615D02*
X669161D01*
X667058Y70206D01*
X665172Y69118D01*
X663632Y67578D01*
X662544Y65692D01*
X661980Y63589D01*
Y63135D01*
X669615D01*
Y70770D01*
D02*
G37*
G36*
X575770Y78020D02*
X559230D01*
Y61480D01*
X575770D01*
Y78020D01*
D02*
G37*
G36*
X518589D02*
X516411D01*
X514308Y77456D01*
X512422Y76368D01*
X510882Y74828D01*
X509794Y72942D01*
X509230Y70839D01*
Y68661D01*
X509794Y66558D01*
X510882Y64672D01*
X512422Y63132D01*
X514308Y62044D01*
X516411Y61480D01*
X518589D01*
X520692Y62044D01*
X522578Y63132D01*
X524118Y64672D01*
X525206Y66558D01*
X525770Y68661D01*
Y70839D01*
X525206Y72942D01*
X524118Y74828D01*
X522578Y76368D01*
X520692Y77456D01*
X518589Y78020D01*
D02*
G37*
G36*
X500770Y69115D02*
X493135D01*
Y61480D01*
X493589D01*
X495692Y62044D01*
X497578Y63132D01*
X499118Y64672D01*
X500206Y66558D01*
X500770Y68661D01*
Y69115D01*
D02*
G37*
G36*
X491865D02*
X484230D01*
Y68661D01*
X484794Y66558D01*
X485882Y64672D01*
X487422Y63132D01*
X489308Y62044D01*
X491411Y61480D01*
X491865D01*
Y69115D01*
D02*
G37*
G36*
X414145Y79145D02*
X395855D01*
Y60855D01*
X414145D01*
Y79145D01*
D02*
G37*
G36*
X389145Y69365D02*
X380635D01*
Y60855D01*
X381204D01*
X383530Y61478D01*
X385615Y62682D01*
X387318Y64385D01*
X388522Y66470D01*
X389145Y68796D01*
Y69365D01*
D02*
G37*
G36*
X379365D02*
X370855D01*
Y68796D01*
X371478Y66470D01*
X372682Y64385D01*
X374385Y62682D01*
X376470Y61478D01*
X378796Y60855D01*
X379365D01*
Y69365D01*
D02*
G37*
G36*
X276645Y69115D02*
X268135D01*
Y60605D01*
X268704D01*
X271030Y61228D01*
X273115Y62432D01*
X274818Y64135D01*
X276022Y66220D01*
X276645Y68546D01*
Y69115D01*
D02*
G37*
G36*
X266865D02*
X258355D01*
Y68546D01*
X258978Y66220D01*
X260182Y64135D01*
X261885Y62432D01*
X263970Y61228D01*
X266296Y60605D01*
X266865D01*
Y69115D01*
D02*
G37*
G36*
X176645Y78895D02*
X158355D01*
Y60605D01*
X176645D01*
Y78895D01*
D02*
G37*
G36*
X151645Y69115D02*
X143135D01*
Y60605D01*
X143704D01*
X146030Y61228D01*
X148115Y62432D01*
X149818Y64135D01*
X151022Y66220D01*
X151645Y68546D01*
Y69115D01*
D02*
G37*
G36*
X141865D02*
X133355D01*
Y68546D01*
X133978Y66220D01*
X135182Y64135D01*
X136885Y62432D01*
X138970Y61228D01*
X141296Y60605D01*
X141865D01*
Y69115D01*
D02*
G37*
G36*
X678520Y61865D02*
X670885D01*
Y54230D01*
X671339D01*
X673442Y54794D01*
X675328Y55882D01*
X676868Y57422D01*
X677956Y59308D01*
X678520Y61411D01*
Y61865D01*
D02*
G37*
G36*
X669615D02*
X661980D01*
Y61411D01*
X662544Y59308D01*
X663632Y57422D01*
X665172Y55882D01*
X667058Y54794D01*
X669161Y54230D01*
X669615D01*
Y61865D01*
D02*
G37*
G36*
X716849Y43770D02*
X713151D01*
X709525Y43049D01*
X706109Y41634D01*
X703035Y39580D01*
X700420Y36965D01*
X698366Y33891D01*
X696951Y30475D01*
X696230Y26849D01*
Y23151D01*
X696951Y19525D01*
X698366Y16109D01*
X700420Y13035D01*
X703035Y10420D01*
X706109Y8366D01*
X709525Y6951D01*
X713151Y6230D01*
X716849D01*
X720475Y6951D01*
X723891Y8366D01*
X726965Y10420D01*
X729580Y13035D01*
X731634Y16109D01*
X733049Y19525D01*
X733770Y23151D01*
Y26849D01*
X733049Y30475D01*
X731634Y33891D01*
X729580Y36965D01*
X726965Y39580D01*
X723891Y41634D01*
X720475Y43049D01*
X716849Y43770D01*
D02*
G37*
G36*
X26849D02*
X23151D01*
X19525Y43049D01*
X16109Y41634D01*
X13035Y39580D01*
X10420Y36965D01*
X8366Y33891D01*
X6951Y30475D01*
X6230Y26849D01*
Y23151D01*
X6951Y19525D01*
X8366Y16109D01*
X10420Y13035D01*
X13035Y10420D01*
X16109Y8366D01*
X19525Y6951D01*
X23151Y6230D01*
X26849D01*
X30475Y6951D01*
X33891Y8366D01*
X36965Y10420D01*
X39580Y13035D01*
X41634Y16109D01*
X43049Y19525D01*
X43770Y23151D01*
Y26849D01*
X43049Y30475D01*
X41634Y33891D01*
X39580Y36965D01*
X36965Y39580D01*
X33891Y41634D01*
X30475Y43049D01*
X26849Y43770D01*
D02*
G37*
%LPD*%
D35*
X251200Y475000D02*
D03*
D36*
X225800D02*
D03*
X200400D02*
D03*
X175000D02*
D03*
X149600D02*
D03*
X124200D02*
D03*
D41*
X670250Y137500D02*
D03*
X672000Y232500D02*
D03*
D42*
X670250Y112500D02*
D03*
Y87500D02*
D03*
Y62500D02*
D03*
X542500Y69750D02*
D03*
X517500D02*
D03*
X492500D02*
D03*
X672000Y357500D02*
D03*
Y332500D02*
D03*
Y307500D02*
D03*
Y282500D02*
D03*
Y257500D02*
D03*
D43*
X567500Y69750D02*
D03*
D45*
X255000Y175000D02*
X515000D01*
X230000Y200000D02*
X255000Y175000D01*
X570000Y195000D02*
X630000Y255000D01*
X415000Y205000D02*
X450000Y240000D01*
Y240000D01*
X205000Y227500D02*
X295000D01*
X330000Y255000D02*
X331900Y256900D01*
X295000Y227500D02*
X322500Y255000D01*
X330000D01*
X200000Y235000D02*
X284600D01*
X306500Y256900D01*
X224020Y276020D02*
X445310D01*
X448380Y252542D02*
Y272950D01*
X268800Y270000D02*
X435000D01*
X255700Y256900D02*
X268800Y270000D01*
X204900Y256900D02*
X224020Y276020D01*
X445310D02*
X448380Y272950D01*
X484300Y256900D02*
X495000Y267600D01*
Y300000D01*
X497429Y263283D02*
X502500Y268354D01*
Y292500D01*
X497429Y247571D02*
X497500Y247500D01*
X497429Y247571D02*
Y263283D01*
X620000Y225000D02*
X625000Y220000D01*
Y132750D02*
X670250Y87500D01*
X625000Y132750D02*
Y220000D01*
X630000Y355000D02*
Y395000D01*
X515000Y425000D02*
X530000D01*
X485000Y395000D02*
X515000Y425000D01*
X495000Y325000D02*
X509700Y310300D01*
Y256900D02*
Y310300D01*
X408100Y333100D02*
X418620Y343620D01*
X514058D02*
X524580Y333097D01*
X418620Y343620D02*
X514058D01*
X258980Y195000D02*
X336075D01*
X265000Y97250D02*
X292500Y69750D01*
X265000Y97250D02*
Y135000D01*
X448380Y252542D02*
X460730Y240192D01*
X336075Y195000D02*
X337095Y193980D01*
X478303D01*
X479324Y195000D01*
X480000D01*
X270000Y140000D02*
X515000D01*
X220000Y190000D02*
X270000Y140000D01*
X220000Y190000D02*
Y195000D01*
X185000Y459600D02*
X200400Y475000D01*
X185000Y261922D02*
Y459600D01*
Y261922D02*
X200543Y246380D01*
X270580D02*
X281100Y256900D01*
X200543Y246380D02*
X270580D01*
X244067Y305933D02*
X255000Y295000D01*
X244067Y305933D02*
Y334210D01*
X225800Y352477D02*
X244067Y334210D01*
X225800Y352477D02*
Y475000D01*
X175000Y260000D02*
Y475000D01*
Y260000D02*
X200000Y235000D01*
X345000Y155000D02*
X515000D01*
X524580Y87670D02*
X542500Y69750D01*
X524580Y87670D02*
Y333097D01*
X149600Y135400D02*
Y475000D01*
Y135400D02*
X165000Y120000D01*
X569520Y205480D02*
X569750D01*
X671770Y307500D01*
X630000Y255000D02*
X630000D01*
X671770Y307500D02*
X672000D01*
X568180Y218180D02*
Y243180D01*
X255700Y333100D02*
X274522Y314278D01*
Y310478D02*
Y314278D01*
Y310478D02*
X275000Y310000D01*
X175000Y210000D02*
X405000D01*
X187235Y217765D02*
X368965D01*
X405000Y210000D02*
X433500Y238500D01*
X368965Y217765D02*
X408100Y256900D01*
X480000Y205000D02*
Y246322D01*
X470000Y256322D02*
X480000Y246322D01*
X435701Y320377D02*
X470000Y286077D01*
Y256322D02*
Y286077D01*
X468788Y240192D02*
X468980Y240000D01*
X460730Y240192D02*
X468788D01*
X433500Y333100D02*
X435701Y330899D01*
Y320377D02*
Y330899D01*
X433500Y238500D02*
Y256900D01*
X645000Y235000D02*
Y255500D01*
X672000Y282500D01*
X568180Y243180D02*
X657500Y332500D01*
X672000D01*
D46*
X715000Y515000D02*
D03*
Y25000D02*
D03*
X25000D02*
D03*
Y515000D02*
D03*
D47*
X45000Y345000D02*
D03*
X44750Y75000D02*
D03*
D48*
X45000Y370000D02*
D03*
Y395000D02*
D03*
X44750Y100000D02*
D03*
Y125000D02*
D03*
D49*
Y222500D02*
D03*
D50*
Y247500D02*
D03*
X142500Y69750D02*
D03*
X267500D02*
D03*
X380000Y70000D02*
D03*
D51*
X167500Y69750D02*
D03*
X292500D02*
D03*
X405000Y70000D02*
D03*
D52*
X535100Y333100D02*
D03*
D53*
X509700D02*
D03*
X484300D02*
D03*
X458900D02*
D03*
X433500D02*
D03*
X408100D02*
D03*
X382700D02*
D03*
X357300D02*
D03*
X331900D02*
D03*
X306500D02*
D03*
X281100D02*
D03*
X255700D02*
D03*
X230300D02*
D03*
X204900D02*
D03*
X535100Y256900D02*
D03*
X509700D02*
D03*
X484300D02*
D03*
X458900D02*
D03*
X433500D02*
D03*
X408100D02*
D03*
X382700D02*
D03*
X357300D02*
D03*
X331900D02*
D03*
X306500D02*
D03*
X281100D02*
D03*
X255700D02*
D03*
X230300D02*
D03*
X204900D02*
D03*
D54*
X379400Y380000D02*
D03*
D55*
X330600D02*
D03*
D56*
X590000Y182500D02*
D03*
X460000Y185000D02*
D03*
X402500Y202500D02*
D03*
X570000Y195000D02*
D03*
X95000Y255000D02*
D03*
X100000Y322500D02*
D03*
X435000Y437500D02*
D03*
X302500Y435000D02*
D03*
X290000Y360000D02*
D03*
X415000Y205000D02*
D03*
X205000Y227500D02*
D03*
X502500Y292500D02*
D03*
X497500Y247500D02*
D03*
X495000Y300000D02*
D03*
X620000Y225000D02*
D03*
X630000Y395000D02*
D03*
Y355000D02*
D03*
X530000Y425000D02*
D03*
X485000Y395000D02*
D03*
X495000Y325000D02*
D03*
X258980Y195000D02*
D03*
X265000Y135000D02*
D03*
X435000Y270000D02*
D03*
X450000Y240000D02*
D03*
X515000Y140000D02*
D03*
X255000Y295000D02*
D03*
X515000Y155000D02*
D03*
X345000D02*
D03*
X165000Y120000D02*
D03*
X220000Y195000D02*
D03*
X569520Y205480D02*
D03*
X568180Y218180D02*
D03*
X230000Y200000D02*
D03*
X515000Y175000D02*
D03*
X275000Y310000D02*
D03*
X480000Y195000D02*
D03*
Y205000D02*
D03*
X468980Y240000D02*
D03*
X187235Y217765D02*
D03*
X175000Y210000D02*
D03*
X630000Y255000D02*
D03*
X645000Y235000D02*
D03*
M02*
