G04*
G04 #@! TF.GenerationSoftware,Altium Limited,Altium Designer,23.4.1 (23)*
G04*
G04 Layer_Color=128*
%FSLAX44Y44*%
%MOMM*%
G71*
G04*
G04 #@! TF.SameCoordinates,2805C024-4D9A-4381-85FD-023388383D32*
G04*
G04*
G04 #@! TF.FilePolarity,Positive*
G04*
G01*
G75*
%ADD13C,0.1270*%
D13*
X700000Y515000D02*
X730000D01*
X715000Y500000D02*
Y530000D01*
X700000Y25000D02*
X730000D01*
X715000Y10000D02*
Y40000D01*
X10000Y25000D02*
X40000D01*
X25000Y10000D02*
Y40000D01*
X10000Y515000D02*
X40000D01*
X25000Y500000D02*
Y530000D01*
X40000Y345000D02*
X50000D01*
X45000Y340000D02*
Y350000D01*
X40000Y370000D02*
X50000D01*
X45000Y365000D02*
Y375000D01*
X40000Y395000D02*
X50000D01*
X45000Y390000D02*
Y400000D01*
X39750Y75000D02*
X49750D01*
X44750Y70000D02*
Y80000D01*
X39750Y100000D02*
X49750D01*
X44750Y95000D02*
Y105000D01*
X39750Y125000D02*
X49750D01*
X44750Y120000D02*
Y130000D01*
X39500Y222500D02*
X50000D01*
X44750Y217250D02*
Y227750D01*
X39500Y247500D02*
X50000D01*
X44750Y242250D02*
Y252750D01*
X162250Y69750D02*
X172750D01*
X167500Y64500D02*
Y75000D01*
X137250Y69750D02*
X147750D01*
X142500Y64500D02*
Y75000D01*
X246100Y475000D02*
X256300D01*
X251200Y469900D02*
Y480100D01*
X220700Y475000D02*
X230900D01*
X225800Y469900D02*
Y480100D01*
X195300Y475000D02*
X205500D01*
X200400Y469900D02*
Y480100D01*
X169900Y475000D02*
X180100D01*
X175000Y469900D02*
Y480100D01*
X144500Y475000D02*
X154700D01*
X149600Y469900D02*
Y480100D01*
X119100Y475000D02*
X129300D01*
X124200Y469900D02*
Y480100D01*
X530600Y333100D02*
X539600D01*
X535100Y328600D02*
Y337600D01*
X505200Y333100D02*
X514200D01*
X509700Y328600D02*
Y337600D01*
X479800Y333100D02*
X488800D01*
X484300Y328600D02*
Y337600D01*
X454400Y333100D02*
X463400D01*
X458900Y328600D02*
Y337600D01*
X429000Y333100D02*
X438000D01*
X433500Y328600D02*
Y337600D01*
X403600Y333100D02*
X412600D01*
X408100Y328600D02*
Y337600D01*
X378200Y333100D02*
X387200D01*
X382700Y328600D02*
Y337600D01*
X352800Y333100D02*
X361800D01*
X357300Y328600D02*
Y337600D01*
X327400Y333100D02*
X336400D01*
X331900Y328600D02*
Y337600D01*
X302000Y333100D02*
X311000D01*
X306500Y328600D02*
Y337600D01*
X276600Y333100D02*
X285600D01*
X281100Y328600D02*
Y337600D01*
X251200Y333100D02*
X260200D01*
X255700Y328600D02*
Y337600D01*
X225800Y333100D02*
X234800D01*
X230300Y328600D02*
Y337600D01*
X200400Y333100D02*
X209400D01*
X204900Y328600D02*
Y337600D01*
X530600Y256900D02*
X539600D01*
X535100Y252400D02*
Y261400D01*
X505200Y256900D02*
X514200D01*
X509700Y252400D02*
Y261400D01*
X479800Y256900D02*
X488800D01*
X484300Y252400D02*
Y261400D01*
X454400Y256900D02*
X463400D01*
X458900Y252400D02*
Y261400D01*
X429000Y256900D02*
X438000D01*
X433500Y252400D02*
Y261400D01*
X403600Y256900D02*
X412600D01*
X408100Y252400D02*
Y261400D01*
X378200Y256900D02*
X387200D01*
X382700Y252400D02*
Y261400D01*
X352800Y256900D02*
X361800D01*
X357300Y252400D02*
Y261400D01*
X327400Y256900D02*
X336400D01*
X331900Y252400D02*
Y261400D01*
X302000Y256900D02*
X311000D01*
X306500Y252400D02*
Y261400D01*
X276600Y256900D02*
X285600D01*
X281100Y252400D02*
Y261400D01*
X251200Y256900D02*
X260200D01*
X255700Y252400D02*
Y261400D01*
X225800Y256900D02*
X234800D01*
X230300Y252400D02*
Y261400D01*
X200400Y256900D02*
X209400D01*
X204900Y252400D02*
Y261400D01*
X375900Y380000D02*
X382900D01*
X379400Y376500D02*
Y383500D01*
X327100Y380000D02*
X334100D01*
X330600Y376500D02*
Y383500D01*
X262250Y69750D02*
X272750D01*
X267500Y64500D02*
Y75000D01*
X287250Y69750D02*
X297750D01*
X292500Y64500D02*
Y75000D01*
X665750Y137500D02*
X674750D01*
X670250Y133000D02*
Y142000D01*
X665750Y112500D02*
X674750D01*
X670250Y108000D02*
Y117000D01*
X665750Y87500D02*
X674750D01*
X670250Y83000D02*
Y92000D01*
X665750Y62500D02*
X674750D01*
X670250Y58000D02*
Y67000D01*
X563000Y69750D02*
X572000D01*
X567500Y65250D02*
Y74250D01*
X538000Y69750D02*
X547000D01*
X542500Y65250D02*
Y74250D01*
X513000Y69750D02*
X522000D01*
X517500Y65250D02*
Y74250D01*
X488000Y69750D02*
X497000D01*
X492500Y65250D02*
Y74250D01*
X374750Y70000D02*
X385250D01*
X380000Y64750D02*
Y75250D01*
X399750Y70000D02*
X410250D01*
X405000Y64750D02*
Y75250D01*
X667500Y357500D02*
X676500D01*
X672000Y353000D02*
Y362000D01*
X667500Y332500D02*
X676500D01*
X672000Y328000D02*
Y337000D01*
X667500Y307500D02*
X676500D01*
X672000Y303000D02*
Y312000D01*
X667500Y282500D02*
X676500D01*
X672000Y278000D02*
Y287000D01*
X667500Y257500D02*
X676500D01*
X672000Y253000D02*
Y262000D01*
X667500Y232500D02*
X676500D01*
X672000Y228000D02*
Y237000D01*
X588500Y182500D02*
X591500D01*
X590000Y181000D02*
Y184000D01*
X458500Y185000D02*
X461500D01*
X460000Y183500D02*
Y186500D01*
X401000Y202500D02*
X404000D01*
X402500Y201000D02*
Y204000D01*
X568500Y195000D02*
X571500D01*
X570000Y193500D02*
Y196500D01*
X93500Y255000D02*
X96500D01*
X95000Y253500D02*
Y256500D01*
X98500Y322500D02*
X101500D01*
X100000Y321000D02*
Y324000D01*
X433500Y437500D02*
X436500D01*
X435000Y436000D02*
Y439000D01*
X301000Y435000D02*
X304000D01*
X302500Y433500D02*
Y436500D01*
X288500Y360000D02*
X291500D01*
X290000Y358500D02*
Y361500D01*
X413500Y205000D02*
X416500D01*
X415000Y203500D02*
Y206500D01*
X203500Y227500D02*
X206500D01*
X205000Y226000D02*
Y229000D01*
X501000Y292500D02*
X504000D01*
X502500Y291000D02*
Y294000D01*
X496000Y247500D02*
X499000D01*
X497500Y246000D02*
Y249000D01*
X493500Y300000D02*
X496500D01*
X495000Y298500D02*
Y301500D01*
X618500Y225000D02*
X621500D01*
X620000Y223500D02*
Y226500D01*
X628500Y395000D02*
X631500D01*
X630000Y393500D02*
Y396500D01*
X628500Y355000D02*
X631500D01*
X630000Y353500D02*
Y356500D01*
X528500Y425000D02*
X531500D01*
X530000Y423500D02*
Y426500D01*
X483500Y395000D02*
X486500D01*
X485000Y393500D02*
Y396500D01*
X493500Y325000D02*
X496500D01*
X495000Y323500D02*
Y326500D01*
X257480Y195000D02*
X260480D01*
X258980Y193500D02*
Y196500D01*
X263500Y135000D02*
X266500D01*
X265000Y133500D02*
Y136500D01*
X433500Y270000D02*
X436500D01*
X435000Y268500D02*
Y271500D01*
X448500Y240000D02*
X451500D01*
X450000Y238500D02*
Y241500D01*
X513500Y140000D02*
X516500D01*
X515000Y138500D02*
Y141500D01*
X253500Y295000D02*
X256500D01*
X255000Y293500D02*
Y296500D01*
X513500Y155000D02*
X516500D01*
X515000Y153500D02*
Y156500D01*
X343500Y155000D02*
X346500D01*
X345000Y153500D02*
Y156500D01*
X163500Y120000D02*
X166500D01*
X165000Y118500D02*
Y121500D01*
X218500Y195000D02*
X221500D01*
X220000Y193500D02*
Y196500D01*
X568020Y205480D02*
X571020D01*
X569520Y203980D02*
Y206980D01*
X566680Y218180D02*
X569680D01*
X568180Y216680D02*
Y219680D01*
X228500Y200000D02*
X231500D01*
X230000Y198500D02*
Y201500D01*
X513500Y175000D02*
X516500D01*
X515000Y173500D02*
Y176500D01*
X273500Y310000D02*
X276500D01*
X275000Y308500D02*
Y311500D01*
X478500Y195000D02*
X481500D01*
X480000Y193500D02*
Y196500D01*
X478500Y205000D02*
X481500D01*
X480000Y203500D02*
Y206500D01*
X467480Y240000D02*
X470480D01*
X468980Y238500D02*
Y241500D01*
X185735Y217765D02*
X188735D01*
X187235Y216265D02*
Y219265D01*
X173500Y210000D02*
X176500D01*
X175000Y208500D02*
Y211500D01*
X628500Y255000D02*
X631500D01*
X630000Y253500D02*
Y256500D01*
X643500Y235000D02*
X646500D01*
X645000Y233500D02*
Y236500D01*
M02*
