G04*
G04 #@! TF.GenerationSoftware,Altium Limited,Altium Designer,23.4.1 (23)*
G04*
G04 Layer_Color=0*
%FSLAX44Y44*%
%MOMM*%
G71*
G04*
G04 #@! TF.SameCoordinates,2805C024-4D9A-4381-85FD-023388383D32*
G04*
G04*
G04 #@! TF.FilePolarity,Positive*
G04*
G01*
G75*
%ADD57C,0.1000*%
D57*
X182700Y475000D02*
X192700D01*
X187700Y470000D02*
Y480000D01*
X590000Y205000D02*
Y215000D01*
X585000Y210000D02*
X595000D01*
X460000Y205000D02*
Y215000D01*
X455000Y210000D02*
X465000D01*
X130000Y320000D02*
X140000D01*
X135000Y315000D02*
Y325000D01*
X130000Y190000D02*
X140000D01*
X135000Y185000D02*
Y195000D01*
X385000Y210000D02*
Y220000D01*
X380000Y215000D02*
X390000D01*
X300000Y205000D02*
Y215000D01*
X295000Y210000D02*
X305000D01*
X345000D02*
Y220000D01*
X340000Y215000D02*
X350000D01*
X660000Y100000D02*
X670000D01*
X665000Y95000D02*
Y105000D01*
X525000Y375000D02*
Y385000D01*
X520000Y380000D02*
X530000D01*
Y70000D02*
Y80000D01*
X525000Y75000D02*
X535000D01*
X670000Y295000D02*
X680000D01*
X675000Y290000D02*
Y300000D01*
M02*
