G04*
G04 #@! TF.GenerationSoftware,Altium Limited,Altium Designer,23.4.1 (23)*
G04*
G04 Layer_Color=16711935*
%FSLAX44Y44*%
%MOMM*%
G71*
G04*
G04 #@! TF.SameCoordinates,2805C024-4D9A-4381-85FD-023388383D32*
G04*
G04*
G04 #@! TF.FilePolarity,Positive*
G04*
G01*
G75*
%ADD10C,0.2000*%
%ADD13C,0.1270*%
%ADD57C,0.1000*%
D10*
X46000Y312500D02*
G03*
X46000Y312500I-1000J0D01*
G01*
X45750Y42500D02*
G03*
X45750Y42500I-1000J0D01*
G01*
Y190600D02*
G03*
X45750Y190600I-1000J0D01*
G01*
X200400Y69750D02*
G03*
X200400Y69750I-1000J0D01*
G01*
X325400D02*
G03*
X325400Y69750I-1000J0D01*
G01*
X437900Y70000D02*
G03*
X437900Y70000I-1000J0D01*
G01*
X110250Y461300D02*
X265150D01*
X110250D02*
Y488700D01*
X265150D01*
Y461300D02*
Y488700D01*
X603500Y191500D02*
Y228500D01*
X576500Y191500D02*
X603500D01*
X576500D02*
Y228500D01*
X603500D01*
X473500Y191500D02*
Y228500D01*
X446500Y191500D02*
X473500D01*
X446500D02*
Y228500D01*
X473500D01*
X116500Y306500D02*
X153500D01*
X116500D02*
Y333500D01*
X153500D01*
Y306500D02*
Y333500D01*
X116500Y176500D02*
X153500D01*
X116500D02*
Y203500D01*
X153500D01*
Y176500D02*
Y203500D01*
X393000Y199000D02*
Y231000D01*
X377000Y199000D02*
X393000D01*
X377000D02*
Y231000D01*
X393000D01*
X313500Y191500D02*
Y228500D01*
X286500Y191500D02*
X313500D01*
X286500D02*
Y228500D01*
X313500D01*
X353000Y199000D02*
Y231000D01*
X337000Y199000D02*
X353000D01*
X337000D02*
Y231000D01*
X353000D01*
X636250Y38000D02*
X693750D01*
Y162000D01*
X636250D02*
X693750D01*
X636250Y38000D02*
Y162000D01*
X506500Y366500D02*
Y393500D01*
Y366500D02*
X543500D01*
Y393500D01*
X506500D02*
X543500D01*
X468000Y46250D02*
Y103750D01*
Y46250D02*
X592000D01*
Y103750D01*
X468000D02*
X592000D01*
X656000Y207500D02*
X694000D01*
Y382500D01*
X656000D02*
X694000D01*
X656000Y207500D02*
Y382500D01*
D13*
X21500Y419500D02*
X79000D01*
X21500Y320500D02*
Y419500D01*
Y320500D02*
X79000D01*
Y419500D01*
X21250Y149500D02*
X78750D01*
X21250Y50500D02*
Y149500D01*
Y50500D02*
X78750D01*
Y149500D01*
Y198000D02*
Y272000D01*
X21250D02*
X78750D01*
X21250Y198000D02*
Y272000D01*
Y198000D02*
X78750D01*
X118000Y103750D02*
X192000D01*
X118000Y46250D02*
Y103750D01*
Y46250D02*
X192000D01*
Y103750D01*
X317000Y46250D02*
Y103750D01*
X243000Y46250D02*
X317000D01*
X243000D02*
Y103750D01*
X317000D01*
X429500Y46500D02*
Y104000D01*
X355500Y46500D02*
X429500D01*
X355500D02*
Y104000D01*
X429500D01*
D57*
X542500Y322000D02*
G03*
X542500Y322000I-5000J0D01*
G01*
X405251Y394001D02*
G03*
X400751Y398501I-4500J0D01*
G01*
Y361501D02*
G03*
X405251Y366001I0J4500D01*
G01*
X304751D02*
G03*
X309251Y361501I4500J0D01*
G01*
Y398501D02*
G03*
X304751Y394001I0J-4500D01*
G01*
X411751Y395001D02*
G03*
X403501Y403251I-8250J0D01*
G01*
X403501Y356751D02*
G03*
X411751Y365001I0J8250D01*
G01*
X298251Y365001D02*
G03*
X306501Y356751I8250J0D01*
G01*
Y403251D02*
G03*
X298251Y395001I0J-8250D01*
G01*
X505500Y233100D02*
X511850Y239450D01*
X505500Y190550D02*
Y239450D01*
Y190550D02*
X544500D01*
Y239450D01*
X505500D02*
X544500D01*
X193500Y331000D02*
X546500D01*
X193500Y259000D02*
X546500D01*
Y331000D01*
X193500Y259000D02*
Y331000D01*
X146800Y274500D02*
X159500Y261800D01*
X110500Y274500D02*
X159500D01*
X110500Y235500D02*
Y274500D01*
Y235500D02*
X159500D01*
Y274500D01*
X298251Y365001D02*
X298251Y365001D01*
Y395001D01*
X304751Y366001D02*
Y394001D01*
X411751Y365001D02*
Y395001D01*
X405251Y366001D02*
Y394001D01*
X309250Y398501D02*
X400750D01*
X309250Y361501D02*
X400750D01*
X306501Y403251D02*
X403501D01*
X306501Y356751D02*
X403501D01*
X262000Y359000D02*
X278000D01*
Y391000D01*
X262000D02*
X278000D01*
X262000Y359000D02*
Y391000D01*
X432000Y359000D02*
X448000D01*
Y391000D01*
X432000D02*
X448000D01*
X432000Y359000D02*
Y391000D01*
X585000Y445000D02*
Y505000D01*
X645000Y445000D02*
Y505000D01*
X585000Y445000D02*
X645000D01*
X585000Y505000D02*
X645000D01*
X450000Y445000D02*
Y505000D01*
X510000Y445000D02*
Y505000D01*
X450000Y445000D02*
X510000D01*
X450000Y505000D02*
X510000D01*
X568000Y366500D02*
Y393500D01*
X602000Y366500D02*
Y393500D01*
X568000D02*
X602000D01*
X568000Y366500D02*
X602000D01*
X242000Y356500D02*
Y383500D01*
X208000Y356500D02*
Y383500D01*
Y356500D02*
X242000D01*
X208000Y383500D02*
X242000D01*
X320000Y445000D02*
Y505000D01*
X380000Y445000D02*
Y505000D01*
X320000Y445000D02*
X380000D01*
X320000Y505000D02*
X380000D01*
M02*
