G04*
G04 #@! TF.GenerationSoftware,Altium Limited,Altium Designer,23.4.1 (23)*
G04*
G04 Layer_Color=16711935*
%FSLAX44Y44*%
%MOMM*%
G71*
G04*
G04 #@! TF.SameCoordinates,2805C024-4D9A-4381-85FD-023388383D32*
G04*
G04*
G04 #@! TF.FilePolarity,Positive*
G04*
G01*
G75*
%ADD10C,0.2000*%
G36*
X186119Y474991D02*
X186193Y474982D01*
X186267Y474972D01*
X186461Y474935D01*
X186665Y474880D01*
X186877Y474797D01*
X186988Y474741D01*
X187090Y474677D01*
X187182Y474603D01*
X187275Y474519D01*
X187284Y474510D01*
X187293Y474501D01*
X187312Y474464D01*
X187339Y474427D01*
X187376Y474381D01*
X187414Y474316D01*
X187451Y474242D01*
X187497Y474159D01*
X187534Y474066D01*
X187571Y473955D01*
X187608Y473844D01*
X187645Y473715D01*
X187663Y473576D01*
X187691Y473419D01*
X187700Y473262D01*
Y473086D01*
X186933Y472975D01*
Y472985D01*
Y473003D01*
Y473040D01*
X186924Y473096D01*
X186914Y473151D01*
Y473216D01*
X186887Y473373D01*
X186859Y473539D01*
X186803Y473706D01*
X186748Y473854D01*
X186711Y473918D01*
X186665Y473974D01*
X186655Y473983D01*
X186618Y474011D01*
X186563Y474057D01*
X186489Y474103D01*
X186387Y474159D01*
X186276Y474196D01*
X186138Y474233D01*
X185990Y474242D01*
X185934D01*
X185879Y474233D01*
X185795Y474224D01*
X185712Y474205D01*
X185620Y474187D01*
X185527Y474150D01*
X185435Y474103D01*
X185426Y474094D01*
X185398Y474076D01*
X185361Y474039D01*
X185306Y474002D01*
X185259Y473937D01*
X185204Y473872D01*
X185158Y473798D01*
X185121Y473706D01*
Y473697D01*
X185102Y473660D01*
X185093Y473595D01*
X185074Y473512D01*
X185056Y473401D01*
X185047Y473262D01*
X185028Y473096D01*
Y472901D01*
Y468491D01*
X184177D01*
Y472855D01*
Y472864D01*
Y472892D01*
Y472929D01*
Y472985D01*
X184187Y473059D01*
Y473133D01*
X184205Y473308D01*
X184224Y473512D01*
X184261Y473724D01*
X184316Y473918D01*
X184381Y474103D01*
Y474113D01*
X184390Y474122D01*
X184418Y474177D01*
X184464Y474251D01*
X184529Y474353D01*
X184621Y474455D01*
X184723Y474566D01*
X184852Y474677D01*
X185000Y474769D01*
X185019Y474778D01*
X185074Y474806D01*
X185158Y474843D01*
X185278Y474880D01*
X185426Y474926D01*
X185592Y474963D01*
X185777Y474991D01*
X185980Y475000D01*
X186064D01*
X186119Y474991D01*
D02*
G37*
G36*
X180599Y473354D02*
X183382D01*
Y472633D01*
X180452Y468491D01*
X179814D01*
Y472633D01*
X178944D01*
Y473354D01*
X179814D01*
Y474889D01*
X180599D01*
Y473354D01*
D02*
G37*
G36*
X593522Y209991D02*
X593615D01*
X593707Y209982D01*
X593828Y209972D01*
X593948Y209954D01*
X594216Y209908D01*
X594512Y209843D01*
X594808Y209750D01*
X595094Y209621D01*
X595103Y209612D01*
X595131Y209603D01*
X595168Y209584D01*
X595214Y209547D01*
X595279Y209510D01*
X595353Y209464D01*
X595519Y209344D01*
X595704Y209186D01*
X595889Y209002D01*
X596074Y208789D01*
X596231Y208539D01*
X596241Y208530D01*
X596250Y208502D01*
X596268Y208465D01*
X596296Y208419D01*
X596324Y208345D01*
X596352Y208271D01*
X596389Y208179D01*
X596426Y208077D01*
X596463Y207966D01*
X596499Y207846D01*
X596555Y207587D01*
X596601Y207291D01*
X596620Y206986D01*
Y206894D01*
X596610Y206829D01*
X596601Y206746D01*
X596592Y206644D01*
X596583Y206542D01*
X596555Y206422D01*
X596499Y206172D01*
X596416Y205895D01*
X596361Y205756D01*
X596296Y205627D01*
X596213Y205497D01*
X596130Y205368D01*
X596120Y205359D01*
X596111Y205340D01*
X596083Y205303D01*
X596037Y205257D01*
X595991Y205211D01*
X595926Y205146D01*
X595852Y205081D01*
X595778Y205007D01*
X595686Y204933D01*
X595575Y204860D01*
X595464Y204776D01*
X595344Y204702D01*
X595205Y204638D01*
X595066Y204564D01*
X594919Y204508D01*
X594752Y204453D01*
X594558Y205285D01*
X594567D01*
X594586Y205294D01*
X594623Y205313D01*
X594669Y205331D01*
X594724Y205350D01*
X594798Y205377D01*
X594946Y205451D01*
X595113Y205544D01*
X595279Y205655D01*
X595436Y205793D01*
X595575Y205941D01*
X595593Y205960D01*
X595630Y206015D01*
X595677Y206108D01*
X595741Y206228D01*
X595797Y206385D01*
X595852Y206561D01*
X595889Y206773D01*
X595899Y207005D01*
Y207078D01*
X595889Y207125D01*
Y207189D01*
X595880Y207263D01*
X595852Y207439D01*
X595815Y207633D01*
X595751Y207837D01*
X595658Y208049D01*
X595538Y208243D01*
Y208253D01*
X595519Y208262D01*
X595473Y208327D01*
X595399Y208410D01*
X595288Y208512D01*
X595150Y208632D01*
X594992Y208743D01*
X594798Y208844D01*
X594586Y208937D01*
X594576D01*
X594558Y208946D01*
X594530Y208955D01*
X594484Y208965D01*
X594428Y208983D01*
X594364Y209002D01*
X594207Y209029D01*
X594022Y209066D01*
X593818Y209103D01*
X593596Y209122D01*
X593356Y209131D01*
X593347D01*
X593319D01*
X593273D01*
X593217D01*
X593153Y209122D01*
X593069D01*
X592977Y209112D01*
X592875Y209103D01*
X592653Y209076D01*
X592413Y209029D01*
X592173Y208974D01*
X591932Y208900D01*
X591923D01*
X591904Y208891D01*
X591877Y208872D01*
X591830Y208854D01*
X591720Y208798D01*
X591590Y208715D01*
X591442Y208613D01*
X591285Y208484D01*
X591146Y208336D01*
X591017Y208160D01*
Y208151D01*
X591008Y208132D01*
X590989Y208105D01*
X590971Y208068D01*
X590952Y208022D01*
X590924Y207966D01*
X590869Y207837D01*
X590813Y207670D01*
X590767Y207485D01*
X590730Y207282D01*
X590721Y207069D01*
Y207005D01*
X590730Y206949D01*
Y206884D01*
X590740Y206820D01*
X590776Y206653D01*
X590823Y206459D01*
X590897Y206265D01*
X590998Y206061D01*
X591054Y205960D01*
X591128Y205867D01*
X591137Y205858D01*
X591146Y205849D01*
X591174Y205821D01*
X591202Y205784D01*
X591248Y205747D01*
X591303Y205701D01*
X591359Y205645D01*
X591433Y205599D01*
X591516Y205544D01*
X591609Y205479D01*
X591701Y205424D01*
X591812Y205368D01*
X591932Y205322D01*
X592062Y205276D01*
X592200Y205229D01*
X592348Y205192D01*
X592136Y204342D01*
X592126D01*
X592089Y204351D01*
X592034Y204370D01*
X591960Y204397D01*
X591877Y204425D01*
X591775Y204462D01*
X591664Y204508D01*
X591544Y204564D01*
X591285Y204693D01*
X591026Y204860D01*
X590897Y204961D01*
X590767Y205063D01*
X590656Y205174D01*
X590545Y205303D01*
X590536Y205313D01*
X590518Y205331D01*
X590499Y205377D01*
X590462Y205424D01*
X590416Y205497D01*
X590370Y205571D01*
X590323Y205673D01*
X590277Y205775D01*
X590222Y205895D01*
X590176Y206024D01*
X590129Y206163D01*
X590083Y206311D01*
X590046Y206468D01*
X590028Y206635D01*
X590009Y206810D01*
X590000Y206995D01*
Y207097D01*
X590009Y207171D01*
Y207254D01*
X590018Y207356D01*
X590037Y207467D01*
X590055Y207596D01*
X590102Y207864D01*
X590176Y208142D01*
X590277Y208419D01*
X590342Y208549D01*
X590416Y208678D01*
X590425Y208687D01*
X590434Y208706D01*
X590462Y208743D01*
X590499Y208780D01*
X590536Y208835D01*
X590592Y208900D01*
X590656Y208974D01*
X590730Y209048D01*
X590813Y209122D01*
X590897Y209205D01*
X591109Y209371D01*
X591359Y209529D01*
X591636Y209667D01*
X591646D01*
X591673Y209686D01*
X591720Y209695D01*
X591775Y209723D01*
X591849Y209741D01*
X591941Y209769D01*
X592043Y209806D01*
X592154Y209834D01*
X592274Y209861D01*
X592413Y209898D01*
X592700Y209945D01*
X593023Y209982D01*
X593356Y210000D01*
X593365D01*
X593402D01*
X593458D01*
X593522Y209991D01*
D02*
G37*
G36*
X596509Y200958D02*
Y200320D01*
X592367D01*
Y199451D01*
X591646D01*
Y200320D01*
X590111D01*
Y201106D01*
X591646D01*
Y203889D01*
X592367D01*
X596509Y200958D01*
D02*
G37*
G36*
X463522Y209991D02*
X463615D01*
X463707Y209982D01*
X463828Y209972D01*
X463948Y209954D01*
X464216Y209908D01*
X464512Y209843D01*
X464808Y209750D01*
X465094Y209621D01*
X465103Y209612D01*
X465131Y209603D01*
X465168Y209584D01*
X465214Y209547D01*
X465279Y209510D01*
X465353Y209464D01*
X465519Y209344D01*
X465704Y209186D01*
X465889Y209002D01*
X466074Y208789D01*
X466231Y208539D01*
X466241Y208530D01*
X466250Y208502D01*
X466268Y208465D01*
X466296Y208419D01*
X466324Y208345D01*
X466352Y208271D01*
X466389Y208179D01*
X466426Y208077D01*
X466463Y207966D01*
X466499Y207846D01*
X466555Y207587D01*
X466601Y207291D01*
X466620Y206986D01*
Y206894D01*
X466610Y206829D01*
X466601Y206746D01*
X466592Y206644D01*
X466583Y206542D01*
X466555Y206422D01*
X466499Y206172D01*
X466416Y205895D01*
X466361Y205756D01*
X466296Y205627D01*
X466213Y205497D01*
X466130Y205368D01*
X466120Y205359D01*
X466111Y205340D01*
X466083Y205303D01*
X466037Y205257D01*
X465991Y205211D01*
X465926Y205146D01*
X465852Y205081D01*
X465778Y205007D01*
X465686Y204933D01*
X465575Y204860D01*
X465464Y204776D01*
X465344Y204702D01*
X465205Y204638D01*
X465066Y204564D01*
X464919Y204508D01*
X464752Y204453D01*
X464558Y205285D01*
X464567D01*
X464586Y205294D01*
X464623Y205313D01*
X464669Y205331D01*
X464724Y205350D01*
X464798Y205377D01*
X464946Y205451D01*
X465113Y205544D01*
X465279Y205655D01*
X465436Y205793D01*
X465575Y205941D01*
X465593Y205960D01*
X465630Y206015D01*
X465677Y206108D01*
X465741Y206228D01*
X465797Y206385D01*
X465852Y206561D01*
X465889Y206773D01*
X465899Y207005D01*
Y207078D01*
X465889Y207125D01*
Y207189D01*
X465880Y207263D01*
X465852Y207439D01*
X465815Y207633D01*
X465751Y207837D01*
X465658Y208049D01*
X465538Y208243D01*
Y208253D01*
X465519Y208262D01*
X465473Y208327D01*
X465399Y208410D01*
X465288Y208512D01*
X465150Y208632D01*
X464992Y208743D01*
X464798Y208844D01*
X464586Y208937D01*
X464576D01*
X464558Y208946D01*
X464530Y208955D01*
X464484Y208965D01*
X464428Y208983D01*
X464364Y209002D01*
X464207Y209029D01*
X464022Y209066D01*
X463818Y209103D01*
X463596Y209122D01*
X463356Y209131D01*
X463347D01*
X463319D01*
X463273D01*
X463217D01*
X463153Y209122D01*
X463069D01*
X462977Y209112D01*
X462875Y209103D01*
X462653Y209076D01*
X462413Y209029D01*
X462173Y208974D01*
X461932Y208900D01*
X461923D01*
X461904Y208891D01*
X461877Y208872D01*
X461830Y208854D01*
X461720Y208798D01*
X461590Y208715D01*
X461442Y208613D01*
X461285Y208484D01*
X461146Y208336D01*
X461017Y208160D01*
Y208151D01*
X461008Y208132D01*
X460989Y208105D01*
X460971Y208068D01*
X460952Y208022D01*
X460924Y207966D01*
X460869Y207837D01*
X460813Y207670D01*
X460767Y207485D01*
X460730Y207282D01*
X460721Y207069D01*
Y207005D01*
X460730Y206949D01*
Y206884D01*
X460740Y206820D01*
X460776Y206653D01*
X460823Y206459D01*
X460897Y206265D01*
X460998Y206061D01*
X461054Y205960D01*
X461128Y205867D01*
X461137Y205858D01*
X461146Y205849D01*
X461174Y205821D01*
X461202Y205784D01*
X461248Y205747D01*
X461303Y205701D01*
X461359Y205645D01*
X461433Y205599D01*
X461516Y205544D01*
X461609Y205479D01*
X461701Y205424D01*
X461812Y205368D01*
X461932Y205322D01*
X462062Y205276D01*
X462200Y205229D01*
X462348Y205192D01*
X462136Y204342D01*
X462126D01*
X462089Y204351D01*
X462034Y204370D01*
X461960Y204397D01*
X461877Y204425D01*
X461775Y204462D01*
X461664Y204508D01*
X461544Y204564D01*
X461285Y204693D01*
X461026Y204860D01*
X460897Y204961D01*
X460767Y205063D01*
X460656Y205174D01*
X460545Y205303D01*
X460536Y205313D01*
X460518Y205331D01*
X460499Y205377D01*
X460462Y205424D01*
X460416Y205497D01*
X460370Y205571D01*
X460323Y205673D01*
X460277Y205775D01*
X460222Y205895D01*
X460176Y206024D01*
X460129Y206163D01*
X460083Y206311D01*
X460046Y206468D01*
X460028Y206635D01*
X460009Y206810D01*
X460000Y206995D01*
Y207097D01*
X460009Y207171D01*
Y207254D01*
X460018Y207356D01*
X460037Y207467D01*
X460055Y207596D01*
X460102Y207864D01*
X460176Y208142D01*
X460277Y208419D01*
X460342Y208549D01*
X460416Y208678D01*
X460425Y208687D01*
X460434Y208706D01*
X460462Y208743D01*
X460499Y208780D01*
X460536Y208835D01*
X460592Y208900D01*
X460656Y208974D01*
X460730Y209048D01*
X460813Y209122D01*
X460897Y209205D01*
X461109Y209371D01*
X461359Y209529D01*
X461636Y209667D01*
X461646D01*
X461673Y209686D01*
X461720Y209695D01*
X461775Y209723D01*
X461849Y209741D01*
X461941Y209769D01*
X462043Y209806D01*
X462154Y209834D01*
X462274Y209861D01*
X462413Y209898D01*
X462700Y209945D01*
X463023Y209982D01*
X463356Y210000D01*
X463365D01*
X463402D01*
X463458D01*
X463522Y209991D01*
D02*
G37*
G36*
X461904Y202826D02*
X461895D01*
X461877Y202816D01*
X461840Y202807D01*
X461794Y202798D01*
X461738Y202789D01*
X461673Y202770D01*
X461535Y202724D01*
X461368Y202659D01*
X461211Y202576D01*
X461063Y202483D01*
X460934Y202372D01*
X460924Y202354D01*
X460887Y202317D01*
X460841Y202243D01*
X460795Y202151D01*
X460740Y202040D01*
X460693Y201901D01*
X460656Y201744D01*
X460647Y201577D01*
Y201522D01*
X460656Y201485D01*
X460666Y201383D01*
X460693Y201254D01*
X460740Y201106D01*
X460804Y200949D01*
X460897Y200791D01*
X461026Y200644D01*
X461045Y200625D01*
X461100Y200579D01*
X461183Y200523D01*
X461294Y200449D01*
X461433Y200375D01*
X461590Y200320D01*
X461775Y200274D01*
X461978Y200255D01*
X461988D01*
X462006D01*
X462034D01*
X462071Y200264D01*
X462173Y200274D01*
X462293Y200301D01*
X462441Y200338D01*
X462589Y200403D01*
X462737Y200496D01*
X462875Y200616D01*
X462894Y200634D01*
X462931Y200681D01*
X462986Y200755D01*
X463051Y200856D01*
X463116Y200986D01*
X463171Y201143D01*
X463208Y201318D01*
X463227Y201513D01*
Y201596D01*
X463217Y201661D01*
X463208Y201744D01*
X463190Y201836D01*
X463171Y201947D01*
X463143Y202067D01*
X463837Y201975D01*
Y201929D01*
X463828Y201892D01*
Y201772D01*
X463846Y201670D01*
X463865Y201550D01*
X463892Y201411D01*
X463938Y201254D01*
X464003Y201106D01*
X464086Y200949D01*
Y200939D01*
X464096Y200930D01*
X464133Y200884D01*
X464197Y200819D01*
X464281Y200745D01*
X464401Y200671D01*
X464539Y200607D01*
X464697Y200560D01*
X464789Y200542D01*
X464891D01*
X464900D01*
X464909D01*
X464965D01*
X465039Y200560D01*
X465140Y200579D01*
X465251Y200616D01*
X465372Y200662D01*
X465492Y200736D01*
X465603Y200838D01*
X465612Y200847D01*
X465649Y200893D01*
X465695Y200958D01*
X465751Y201041D01*
X465797Y201152D01*
X465843Y201282D01*
X465880Y201429D01*
X465889Y201596D01*
Y201670D01*
X465871Y201753D01*
X465852Y201864D01*
X465815Y201984D01*
X465769Y202104D01*
X465695Y202234D01*
X465603Y202354D01*
X465593Y202363D01*
X465547Y202400D01*
X465482Y202456D01*
X465390Y202520D01*
X465270Y202585D01*
X465122Y202650D01*
X464946Y202705D01*
X464743Y202742D01*
X464882Y203528D01*
X464891D01*
X464919Y203519D01*
X464955Y203510D01*
X465011Y203500D01*
X465076Y203482D01*
X465150Y203454D01*
X465325Y203399D01*
X465529Y203306D01*
X465732Y203195D01*
X465926Y203057D01*
X466102Y202881D01*
X466111Y202872D01*
X466120Y202853D01*
X466139Y202826D01*
X466167Y202789D01*
X466204Y202742D01*
X466241Y202678D01*
X466278Y202613D01*
X466324Y202530D01*
X466398Y202345D01*
X466472Y202132D01*
X466518Y201882D01*
X466536Y201753D01*
Y201522D01*
X466527Y201420D01*
X466509Y201300D01*
X466481Y201152D01*
X466435Y200986D01*
X466379Y200819D01*
X466305Y200653D01*
Y200644D01*
X466296Y200634D01*
X466268Y200579D01*
X466213Y200496D01*
X466148Y200403D01*
X466056Y200292D01*
X465954Y200181D01*
X465834Y200070D01*
X465695Y199978D01*
X465677Y199969D01*
X465630Y199941D01*
X465547Y199904D01*
X465446Y199858D01*
X465325Y199811D01*
X465187Y199774D01*
X465029Y199747D01*
X464872Y199737D01*
X464854D01*
X464798D01*
X464724Y199747D01*
X464623Y199765D01*
X464502Y199793D01*
X464373Y199839D01*
X464244Y199895D01*
X464114Y199969D01*
X464096Y199978D01*
X464059Y200006D01*
X463994Y200061D01*
X463920Y200135D01*
X463837Y200228D01*
X463744Y200338D01*
X463661Y200468D01*
X463578Y200625D01*
Y200616D01*
X463569Y200597D01*
X463559Y200570D01*
X463550Y200533D01*
X463513Y200431D01*
X463458Y200301D01*
X463384Y200154D01*
X463291Y200006D01*
X463171Y199867D01*
X463032Y199737D01*
X463014Y199728D01*
X462958Y199691D01*
X462866Y199636D01*
X462746Y199580D01*
X462598Y199525D01*
X462422Y199469D01*
X462219Y199432D01*
X461997Y199423D01*
X461988D01*
X461960D01*
X461914D01*
X461858Y199432D01*
X461784Y199442D01*
X461701Y199460D01*
X461609Y199479D01*
X461507Y199497D01*
X461285Y199571D01*
X461165Y199627D01*
X461054Y199682D01*
X460934Y199756D01*
X460813Y199839D01*
X460693Y199932D01*
X460582Y200043D01*
X460573Y200052D01*
X460555Y200070D01*
X460527Y200107D01*
X460490Y200154D01*
X460444Y200209D01*
X460397Y200283D01*
X460342Y200366D01*
X460296Y200468D01*
X460240Y200570D01*
X460185Y200690D01*
X460139Y200810D01*
X460092Y200949D01*
X460055Y201097D01*
X460028Y201254D01*
X460009Y201411D01*
X460000Y201587D01*
Y201670D01*
X460009Y201725D01*
X460018Y201799D01*
X460028Y201882D01*
X460046Y201975D01*
X460065Y202077D01*
X460120Y202299D01*
X460213Y202530D01*
X460268Y202650D01*
X460333Y202761D01*
X460416Y202872D01*
X460499Y202983D01*
X460508Y202992D01*
X460527Y203010D01*
X460555Y203038D01*
X460592Y203066D01*
X460638Y203112D01*
X460703Y203158D01*
X460767Y203214D01*
X460850Y203269D01*
X460943Y203325D01*
X461035Y203380D01*
X461257Y203482D01*
X461516Y203565D01*
X461655Y203593D01*
X461803Y203611D01*
X461904Y202826D01*
D02*
G37*
G36*
X132171Y319991D02*
X132254D01*
X132356Y319982D01*
X132467Y319963D01*
X132596Y319945D01*
X132864Y319898D01*
X133142Y319824D01*
X133419Y319723D01*
X133548Y319658D01*
X133678Y319584D01*
X133687Y319575D01*
X133706Y319566D01*
X133743Y319538D01*
X133780Y319501D01*
X133835Y319464D01*
X133900Y319408D01*
X133974Y319344D01*
X134048Y319270D01*
X134122Y319186D01*
X134205Y319103D01*
X134371Y318891D01*
X134529Y318641D01*
X134667Y318364D01*
Y318354D01*
X134686Y318327D01*
X134695Y318280D01*
X134723Y318225D01*
X134741Y318151D01*
X134769Y318058D01*
X134806Y317957D01*
X134834Y317846D01*
X134861Y317726D01*
X134898Y317587D01*
X134945Y317300D01*
X134982Y316977D01*
X135000Y316644D01*
Y316635D01*
Y316598D01*
Y316542D01*
X134991Y316478D01*
Y316385D01*
X134982Y316293D01*
X134972Y316172D01*
X134954Y316052D01*
X134908Y315784D01*
X134843Y315488D01*
X134750Y315192D01*
X134621Y314906D01*
X134612Y314897D01*
X134602Y314869D01*
X134584Y314832D01*
X134547Y314786D01*
X134510Y314721D01*
X134464Y314647D01*
X134344Y314480D01*
X134186Y314296D01*
X134002Y314111D01*
X133789Y313926D01*
X133539Y313769D01*
X133530Y313759D01*
X133502Y313750D01*
X133465Y313732D01*
X133419Y313704D01*
X133345Y313676D01*
X133271Y313648D01*
X133179Y313611D01*
X133077Y313574D01*
X132966Y313537D01*
X132846Y313500D01*
X132587Y313445D01*
X132291Y313399D01*
X131986Y313380D01*
X131894D01*
X131829Y313389D01*
X131746Y313399D01*
X131644Y313408D01*
X131542Y313417D01*
X131422Y313445D01*
X131172Y313500D01*
X130895Y313584D01*
X130756Y313639D01*
X130627Y313704D01*
X130498Y313787D01*
X130368Y313870D01*
X130359Y313880D01*
X130340Y313889D01*
X130303Y313916D01*
X130257Y313963D01*
X130211Y314009D01*
X130146Y314074D01*
X130081Y314148D01*
X130007Y314222D01*
X129934Y314314D01*
X129860Y314425D01*
X129776Y314536D01*
X129702Y314656D01*
X129638Y314795D01*
X129564Y314933D01*
X129508Y315081D01*
X129453Y315248D01*
X130285Y315442D01*
Y315433D01*
X130294Y315414D01*
X130312Y315377D01*
X130331Y315331D01*
X130350Y315276D01*
X130377Y315202D01*
X130451Y315054D01*
X130544Y314887D01*
X130655Y314721D01*
X130793Y314564D01*
X130941Y314425D01*
X130960Y314407D01*
X131015Y314370D01*
X131108Y314323D01*
X131228Y314259D01*
X131385Y314203D01*
X131561Y314148D01*
X131773Y314111D01*
X132004Y314101D01*
X132079D01*
X132125Y314111D01*
X132189D01*
X132263Y314120D01*
X132439Y314148D01*
X132633Y314185D01*
X132837Y314249D01*
X133049Y314342D01*
X133243Y314462D01*
X133253D01*
X133262Y314480D01*
X133327Y314527D01*
X133410Y314601D01*
X133511Y314712D01*
X133632Y314850D01*
X133743Y315007D01*
X133844Y315202D01*
X133937Y315414D01*
Y315424D01*
X133946Y315442D01*
X133955Y315470D01*
X133965Y315516D01*
X133983Y315571D01*
X134002Y315636D01*
X134029Y315793D01*
X134066Y315978D01*
X134103Y316182D01*
X134122Y316404D01*
X134131Y316644D01*
Y316653D01*
Y316681D01*
Y316727D01*
Y316783D01*
X134122Y316847D01*
Y316931D01*
X134113Y317023D01*
X134103Y317125D01*
X134075Y317347D01*
X134029Y317587D01*
X133974Y317827D01*
X133900Y318068D01*
Y318077D01*
X133891Y318095D01*
X133872Y318123D01*
X133854Y318169D01*
X133798Y318280D01*
X133715Y318410D01*
X133613Y318558D01*
X133484Y318715D01*
X133336Y318854D01*
X133160Y318983D01*
X133151D01*
X133132Y318992D01*
X133105Y319011D01*
X133068Y319029D01*
X133021Y319048D01*
X132966Y319076D01*
X132837Y319131D01*
X132670Y319186D01*
X132485Y319233D01*
X132282Y319270D01*
X132069Y319279D01*
X132004D01*
X131949Y319270D01*
X131884D01*
X131820Y319260D01*
X131653Y319223D01*
X131459Y319177D01*
X131265Y319103D01*
X131061Y319002D01*
X130960Y318946D01*
X130867Y318872D01*
X130858Y318863D01*
X130849Y318854D01*
X130821Y318826D01*
X130784Y318798D01*
X130747Y318752D01*
X130701Y318696D01*
X130645Y318641D01*
X130599Y318567D01*
X130544Y318484D01*
X130479Y318391D01*
X130423Y318299D01*
X130368Y318188D01*
X130322Y318068D01*
X130276Y317938D01*
X130229Y317800D01*
X130192Y317652D01*
X129342Y317864D01*
Y317874D01*
X129351Y317911D01*
X129369Y317966D01*
X129397Y318040D01*
X129425Y318123D01*
X129462Y318225D01*
X129508Y318336D01*
X129564Y318456D01*
X129693Y318715D01*
X129860Y318974D01*
X129961Y319103D01*
X130063Y319233D01*
X130174Y319344D01*
X130303Y319455D01*
X130312Y319464D01*
X130331Y319482D01*
X130377Y319501D01*
X130423Y319538D01*
X130498Y319584D01*
X130571Y319630D01*
X130673Y319676D01*
X130775Y319723D01*
X130895Y319778D01*
X131025Y319824D01*
X131163Y319871D01*
X131311Y319917D01*
X131468Y319954D01*
X131635Y319972D01*
X131810Y319991D01*
X131995Y320000D01*
X132097D01*
X132171Y319991D01*
D02*
G37*
G36*
X126448Y314887D02*
X126457Y314897D01*
X126503Y314933D01*
X126559Y314989D01*
X126651Y315054D01*
X126753Y315137D01*
X126882Y315229D01*
X127030Y315331D01*
X127197Y315433D01*
X127206D01*
X127215Y315442D01*
X127271Y315479D01*
X127363Y315525D01*
X127474Y315581D01*
X127604Y315645D01*
X127742Y315710D01*
X127881Y315775D01*
X128020Y315830D01*
Y315072D01*
X128010D01*
X127992Y315054D01*
X127955Y315044D01*
X127909Y315017D01*
X127853Y314989D01*
X127788Y314952D01*
X127631Y314860D01*
X127446Y314758D01*
X127261Y314628D01*
X127067Y314480D01*
X126873Y314323D01*
X126864Y314314D01*
X126855Y314305D01*
X126827Y314277D01*
X126790Y314249D01*
X126707Y314157D01*
X126596Y314046D01*
X126485Y313916D01*
X126365Y313769D01*
X126263Y313621D01*
X126171Y313463D01*
X125662D01*
Y319889D01*
X126448D01*
Y314887D01*
D02*
G37*
G36*
X132171Y189991D02*
X132254D01*
X132356Y189981D01*
X132467Y189963D01*
X132596Y189945D01*
X132864Y189898D01*
X133142Y189824D01*
X133419Y189723D01*
X133548Y189658D01*
X133678Y189584D01*
X133687Y189575D01*
X133706Y189566D01*
X133743Y189538D01*
X133780Y189501D01*
X133835Y189464D01*
X133900Y189408D01*
X133974Y189344D01*
X134048Y189270D01*
X134122Y189186D01*
X134205Y189103D01*
X134371Y188891D01*
X134529Y188641D01*
X134667Y188364D01*
Y188354D01*
X134686Y188327D01*
X134695Y188280D01*
X134723Y188225D01*
X134741Y188151D01*
X134769Y188058D01*
X134806Y187957D01*
X134834Y187846D01*
X134861Y187726D01*
X134898Y187587D01*
X134945Y187300D01*
X134982Y186977D01*
X135000Y186644D01*
Y186635D01*
Y186598D01*
Y186542D01*
X134991Y186478D01*
Y186385D01*
X134982Y186292D01*
X134972Y186172D01*
X134954Y186052D01*
X134908Y185784D01*
X134843Y185488D01*
X134750Y185192D01*
X134621Y184906D01*
X134612Y184897D01*
X134602Y184869D01*
X134584Y184832D01*
X134547Y184785D01*
X134510Y184721D01*
X134464Y184647D01*
X134344Y184480D01*
X134186Y184296D01*
X134002Y184111D01*
X133789Y183926D01*
X133539Y183769D01*
X133530Y183759D01*
X133502Y183750D01*
X133465Y183731D01*
X133419Y183704D01*
X133345Y183676D01*
X133271Y183648D01*
X133179Y183611D01*
X133077Y183574D01*
X132966Y183537D01*
X132846Y183500D01*
X132587Y183445D01*
X132291Y183399D01*
X131986Y183380D01*
X131894D01*
X131829Y183389D01*
X131746Y183399D01*
X131644Y183408D01*
X131542Y183417D01*
X131422Y183445D01*
X131172Y183500D01*
X130895Y183584D01*
X130756Y183639D01*
X130627Y183704D01*
X130498Y183787D01*
X130368Y183870D01*
X130359Y183879D01*
X130340Y183889D01*
X130303Y183916D01*
X130257Y183963D01*
X130211Y184009D01*
X130146Y184074D01*
X130081Y184148D01*
X130007Y184221D01*
X129934Y184314D01*
X129860Y184425D01*
X129776Y184536D01*
X129702Y184656D01*
X129638Y184795D01*
X129564Y184933D01*
X129508Y185081D01*
X129453Y185248D01*
X130285Y185442D01*
Y185433D01*
X130294Y185414D01*
X130312Y185377D01*
X130331Y185331D01*
X130350Y185275D01*
X130377Y185202D01*
X130451Y185054D01*
X130544Y184887D01*
X130655Y184721D01*
X130793Y184564D01*
X130941Y184425D01*
X130960Y184406D01*
X131015Y184370D01*
X131108Y184323D01*
X131228Y184258D01*
X131385Y184203D01*
X131561Y184148D01*
X131773Y184111D01*
X132004Y184101D01*
X132079D01*
X132125Y184111D01*
X132189D01*
X132263Y184120D01*
X132439Y184148D01*
X132633Y184184D01*
X132837Y184249D01*
X133049Y184342D01*
X133243Y184462D01*
X133253D01*
X133262Y184480D01*
X133327Y184527D01*
X133410Y184601D01*
X133511Y184711D01*
X133632Y184850D01*
X133743Y185007D01*
X133844Y185202D01*
X133937Y185414D01*
Y185424D01*
X133946Y185442D01*
X133955Y185470D01*
X133965Y185516D01*
X133983Y185571D01*
X134002Y185636D01*
X134029Y185793D01*
X134066Y185978D01*
X134103Y186182D01*
X134122Y186404D01*
X134131Y186644D01*
Y186653D01*
Y186681D01*
Y186727D01*
Y186783D01*
X134122Y186847D01*
Y186931D01*
X134113Y187023D01*
X134103Y187125D01*
X134075Y187346D01*
X134029Y187587D01*
X133974Y187827D01*
X133900Y188068D01*
Y188077D01*
X133891Y188095D01*
X133872Y188123D01*
X133854Y188169D01*
X133798Y188280D01*
X133715Y188410D01*
X133613Y188558D01*
X133484Y188715D01*
X133336Y188854D01*
X133160Y188983D01*
X133151D01*
X133132Y188992D01*
X133105Y189011D01*
X133068Y189029D01*
X133021Y189048D01*
X132966Y189076D01*
X132837Y189131D01*
X132670Y189186D01*
X132485Y189233D01*
X132282Y189270D01*
X132069Y189279D01*
X132004D01*
X131949Y189270D01*
X131884D01*
X131820Y189260D01*
X131653Y189223D01*
X131459Y189177D01*
X131265Y189103D01*
X131061Y189002D01*
X130960Y188946D01*
X130867Y188872D01*
X130858Y188863D01*
X130849Y188854D01*
X130821Y188826D01*
X130784Y188798D01*
X130747Y188752D01*
X130701Y188696D01*
X130645Y188641D01*
X130599Y188567D01*
X130544Y188484D01*
X130479Y188391D01*
X130423Y188299D01*
X130368Y188188D01*
X130322Y188068D01*
X130276Y187938D01*
X130229Y187800D01*
X130192Y187652D01*
X129342Y187864D01*
Y187873D01*
X129351Y187910D01*
X129369Y187966D01*
X129397Y188040D01*
X129425Y188123D01*
X129462Y188225D01*
X129508Y188336D01*
X129564Y188456D01*
X129693Y188715D01*
X129860Y188974D01*
X129961Y189103D01*
X130063Y189233D01*
X130174Y189344D01*
X130303Y189454D01*
X130312Y189464D01*
X130331Y189482D01*
X130377Y189501D01*
X130423Y189538D01*
X130498Y189584D01*
X130571Y189630D01*
X130673Y189676D01*
X130775Y189723D01*
X130895Y189778D01*
X131025Y189824D01*
X131163Y189871D01*
X131311Y189917D01*
X131468Y189954D01*
X131635Y189972D01*
X131810Y189991D01*
X131995Y190000D01*
X132097D01*
X132171Y189991D01*
D02*
G37*
G36*
X128731Y189880D02*
Y189843D01*
Y189787D01*
X128722Y189713D01*
X128713Y189630D01*
X128695Y189538D01*
X128676Y189445D01*
X128639Y189344D01*
Y189334D01*
X128630Y189325D01*
X128611Y189270D01*
X128574Y189186D01*
X128519Y189076D01*
X128445Y188946D01*
X128352Y188798D01*
X128251Y188650D01*
X128121Y188493D01*
Y188484D01*
X128103Y188475D01*
X128057Y188419D01*
X127973Y188336D01*
X127853Y188216D01*
X127715Y188077D01*
X127539Y187910D01*
X127326Y187726D01*
X127095Y187532D01*
X127086Y187522D01*
X127049Y187495D01*
X126993Y187448D01*
X126929Y187393D01*
X126845Y187319D01*
X126744Y187236D01*
X126642Y187143D01*
X126522Y187041D01*
X126291Y186819D01*
X126060Y186598D01*
X125949Y186487D01*
X125847Y186376D01*
X125754Y186274D01*
X125681Y186172D01*
Y186163D01*
X125662Y186154D01*
X125644Y186126D01*
X125625Y186089D01*
X125560Y185987D01*
X125486Y185867D01*
X125422Y185719D01*
X125357Y185562D01*
X125320Y185387D01*
X125301Y185220D01*
Y185211D01*
Y185202D01*
X125311Y185146D01*
X125320Y185054D01*
X125348Y184952D01*
X125385Y184823D01*
X125449Y184693D01*
X125533Y184564D01*
X125644Y184434D01*
X125662Y184416D01*
X125708Y184379D01*
X125773Y184333D01*
X125875Y184268D01*
X126004Y184212D01*
X126152Y184157D01*
X126328Y184120D01*
X126522Y184111D01*
X126577D01*
X126614Y184120D01*
X126725Y184129D01*
X126855Y184157D01*
X126993Y184194D01*
X127150Y184258D01*
X127298Y184342D01*
X127437Y184453D01*
X127456Y184471D01*
X127493Y184517D01*
X127548Y184591D01*
X127604Y184702D01*
X127668Y184832D01*
X127724Y184998D01*
X127761Y185183D01*
X127779Y185396D01*
X128584Y185312D01*
Y185303D01*
X128574Y185275D01*
Y185229D01*
X128565Y185165D01*
X128547Y185091D01*
X128528Y185007D01*
X128500Y184906D01*
X128473Y184804D01*
X128399Y184582D01*
X128288Y184360D01*
X128223Y184249D01*
X128140Y184138D01*
X128057Y184037D01*
X127964Y183944D01*
X127955Y183935D01*
X127936Y183926D01*
X127909Y183898D01*
X127863Y183870D01*
X127807Y183833D01*
X127742Y183796D01*
X127668Y183750D01*
X127576Y183704D01*
X127474Y183657D01*
X127363Y183611D01*
X127243Y183574D01*
X127114Y183537D01*
X126975Y183510D01*
X126827Y183482D01*
X126670Y183473D01*
X126503Y183463D01*
X126411D01*
X126346Y183473D01*
X126272Y183482D01*
X126180Y183491D01*
X126078Y183510D01*
X125976Y183528D01*
X125736Y183593D01*
X125496Y183685D01*
X125375Y183741D01*
X125255Y183806D01*
X125144Y183889D01*
X125042Y183981D01*
X125033Y183990D01*
X125015Y184000D01*
X124996Y184037D01*
X124959Y184074D01*
X124913Y184120D01*
X124867Y184184D01*
X124821Y184249D01*
X124765Y184333D01*
X124673Y184508D01*
X124580Y184730D01*
X124543Y184841D01*
X124525Y184970D01*
X124506Y185100D01*
X124497Y185238D01*
Y185257D01*
Y185303D01*
X124506Y185377D01*
X124515Y185479D01*
X124534Y185590D01*
X124571Y185719D01*
X124608Y185858D01*
X124663Y185997D01*
X124673Y186015D01*
X124691Y186061D01*
X124728Y186135D01*
X124784Y186237D01*
X124858Y186348D01*
X124950Y186487D01*
X125061Y186625D01*
X125190Y186783D01*
X125209Y186801D01*
X125255Y186856D01*
X125301Y186903D01*
X125348Y186949D01*
X125403Y187005D01*
X125477Y187078D01*
X125551Y187152D01*
X125644Y187236D01*
X125736Y187328D01*
X125847Y187430D01*
X125967Y187532D01*
X126096Y187652D01*
X126244Y187772D01*
X126392Y187901D01*
X126402Y187910D01*
X126420Y187929D01*
X126457Y187957D01*
X126503Y187994D01*
X126559Y188049D01*
X126623Y188105D01*
X126771Y188225D01*
X126929Y188364D01*
X127077Y188502D01*
X127206Y188622D01*
X127261Y188669D01*
X127308Y188715D01*
X127317Y188724D01*
X127345Y188752D01*
X127382Y188789D01*
X127428Y188844D01*
X127474Y188909D01*
X127530Y188974D01*
X127641Y189131D01*
X124488D01*
Y189889D01*
X128731D01*
Y189880D01*
D02*
G37*
G36*
X388522Y214991D02*
X388615D01*
X388707Y214982D01*
X388828Y214972D01*
X388948Y214954D01*
X389216Y214908D01*
X389512Y214843D01*
X389808Y214750D01*
X390094Y214621D01*
X390103Y214612D01*
X390131Y214603D01*
X390168Y214584D01*
X390214Y214547D01*
X390279Y214510D01*
X390353Y214464D01*
X390519Y214344D01*
X390704Y214186D01*
X390889Y214002D01*
X391074Y213789D01*
X391231Y213539D01*
X391241Y213530D01*
X391250Y213502D01*
X391268Y213465D01*
X391296Y213419D01*
X391324Y213345D01*
X391352Y213271D01*
X391389Y213179D01*
X391426Y213077D01*
X391463Y212966D01*
X391499Y212846D01*
X391555Y212587D01*
X391601Y212291D01*
X391620Y211986D01*
Y211894D01*
X391610Y211829D01*
X391601Y211746D01*
X391592Y211644D01*
X391583Y211542D01*
X391555Y211422D01*
X391499Y211172D01*
X391416Y210895D01*
X391361Y210756D01*
X391296Y210627D01*
X391213Y210497D01*
X391130Y210368D01*
X391120Y210359D01*
X391111Y210340D01*
X391083Y210303D01*
X391037Y210257D01*
X390991Y210211D01*
X390926Y210146D01*
X390852Y210081D01*
X390778Y210007D01*
X390686Y209933D01*
X390575Y209860D01*
X390464Y209776D01*
X390344Y209702D01*
X390205Y209638D01*
X390066Y209564D01*
X389919Y209508D01*
X389752Y209453D01*
X389558Y210285D01*
X389567D01*
X389586Y210294D01*
X389623Y210313D01*
X389669Y210331D01*
X389724Y210350D01*
X389798Y210377D01*
X389946Y210451D01*
X390113Y210544D01*
X390279Y210655D01*
X390436Y210793D01*
X390575Y210941D01*
X390593Y210960D01*
X390630Y211015D01*
X390677Y211108D01*
X390741Y211228D01*
X390797Y211385D01*
X390852Y211561D01*
X390889Y211773D01*
X390899Y212005D01*
Y212078D01*
X390889Y212125D01*
Y212189D01*
X390880Y212263D01*
X390852Y212439D01*
X390815Y212633D01*
X390751Y212837D01*
X390658Y213049D01*
X390538Y213243D01*
Y213253D01*
X390519Y213262D01*
X390473Y213327D01*
X390399Y213410D01*
X390288Y213512D01*
X390150Y213632D01*
X389992Y213743D01*
X389798Y213844D01*
X389586Y213937D01*
X389576D01*
X389558Y213946D01*
X389530Y213955D01*
X389484Y213965D01*
X389428Y213983D01*
X389364Y214002D01*
X389207Y214029D01*
X389022Y214066D01*
X388818Y214103D01*
X388596Y214122D01*
X388356Y214131D01*
X388347D01*
X388319D01*
X388273D01*
X388217D01*
X388153Y214122D01*
X388069D01*
X387977Y214112D01*
X387875Y214103D01*
X387653Y214076D01*
X387413Y214029D01*
X387173Y213974D01*
X386932Y213900D01*
X386923D01*
X386904Y213891D01*
X386877Y213872D01*
X386830Y213854D01*
X386720Y213798D01*
X386590Y213715D01*
X386442Y213613D01*
X386285Y213484D01*
X386146Y213336D01*
X386017Y213160D01*
Y213151D01*
X386008Y213132D01*
X385989Y213105D01*
X385971Y213068D01*
X385952Y213022D01*
X385924Y212966D01*
X385869Y212837D01*
X385813Y212670D01*
X385767Y212485D01*
X385730Y212282D01*
X385721Y212069D01*
Y212005D01*
X385730Y211949D01*
Y211884D01*
X385740Y211820D01*
X385776Y211653D01*
X385823Y211459D01*
X385897Y211265D01*
X385998Y211061D01*
X386054Y210960D01*
X386128Y210867D01*
X386137Y210858D01*
X386146Y210849D01*
X386174Y210821D01*
X386202Y210784D01*
X386248Y210747D01*
X386303Y210701D01*
X386359Y210645D01*
X386433Y210599D01*
X386516Y210544D01*
X386609Y210479D01*
X386701Y210424D01*
X386812Y210368D01*
X386932Y210322D01*
X387062Y210276D01*
X387200Y210229D01*
X387348Y210192D01*
X387136Y209342D01*
X387126D01*
X387089Y209351D01*
X387034Y209370D01*
X386960Y209397D01*
X386877Y209425D01*
X386775Y209462D01*
X386664Y209508D01*
X386544Y209564D01*
X386285Y209693D01*
X386026Y209860D01*
X385897Y209961D01*
X385767Y210063D01*
X385656Y210174D01*
X385545Y210303D01*
X385536Y210313D01*
X385518Y210331D01*
X385499Y210377D01*
X385462Y210424D01*
X385416Y210497D01*
X385370Y210571D01*
X385323Y210673D01*
X385277Y210775D01*
X385222Y210895D01*
X385176Y211024D01*
X385129Y211163D01*
X385083Y211311D01*
X385046Y211468D01*
X385028Y211635D01*
X385009Y211810D01*
X385000Y211995D01*
Y212097D01*
X385009Y212171D01*
Y212254D01*
X385018Y212356D01*
X385037Y212467D01*
X385055Y212596D01*
X385102Y212864D01*
X385176Y213142D01*
X385277Y213419D01*
X385342Y213549D01*
X385416Y213678D01*
X385425Y213687D01*
X385434Y213706D01*
X385462Y213743D01*
X385499Y213780D01*
X385536Y213835D01*
X385592Y213900D01*
X385656Y213974D01*
X385730Y214048D01*
X385813Y214122D01*
X385897Y214205D01*
X386109Y214371D01*
X386359Y214529D01*
X386636Y214667D01*
X386646D01*
X386673Y214686D01*
X386720Y214695D01*
X386775Y214723D01*
X386849Y214741D01*
X386941Y214769D01*
X387043Y214806D01*
X387154Y214834D01*
X387274Y214861D01*
X387413Y214898D01*
X387700Y214945D01*
X388023Y214982D01*
X388356Y215000D01*
X388365D01*
X388402D01*
X388458D01*
X388522Y214991D01*
D02*
G37*
G36*
X388273Y208648D02*
X388402D01*
X388550Y208639D01*
X388726Y208621D01*
X388920Y208602D01*
X389133Y208574D01*
X389345Y208537D01*
X389576Y208491D01*
X389798Y208436D01*
X390020Y208371D01*
X390233Y208288D01*
X390436Y208195D01*
X390630Y208094D01*
X390797Y207973D01*
X390806Y207964D01*
X390825Y207946D01*
X390862Y207909D01*
X390917Y207862D01*
X390973Y207807D01*
X391028Y207733D01*
X391102Y207641D01*
X391167Y207548D01*
X391231Y207437D01*
X391305Y207317D01*
X391361Y207178D01*
X391426Y207040D01*
X391472Y206882D01*
X391509Y206716D01*
X391527Y206540D01*
X391536Y206355D01*
Y206282D01*
X391527Y206226D01*
Y206161D01*
X391518Y206087D01*
X391481Y205912D01*
X391435Y205718D01*
X391361Y205514D01*
X391250Y205311D01*
X391185Y205209D01*
X391111Y205117D01*
X391102Y205107D01*
X391093Y205098D01*
X391065Y205070D01*
X391037Y205043D01*
X390991Y204996D01*
X390936Y204959D01*
X390806Y204858D01*
X390640Y204756D01*
X390436Y204664D01*
X390205Y204580D01*
X389946Y204525D01*
X389882Y205311D01*
X389891D01*
X389900Y205320D01*
X389955Y205329D01*
X390039Y205357D01*
X390140Y205394D01*
X390251Y205431D01*
X390362Y205486D01*
X390464Y205551D01*
X390547Y205616D01*
X390566Y205634D01*
X390603Y205671D01*
X390658Y205736D01*
X390723Y205828D01*
X390778Y205949D01*
X390834Y206078D01*
X390871Y206235D01*
X390889Y206402D01*
Y206466D01*
X390880Y206540D01*
X390862Y206624D01*
X390834Y206735D01*
X390797Y206845D01*
X390751Y206956D01*
X390677Y207067D01*
X390667Y207086D01*
X390630Y207132D01*
X390566Y207197D01*
X390473Y207280D01*
X390362Y207372D01*
X390233Y207474D01*
X390066Y207567D01*
X389882Y207659D01*
X389872D01*
X389854Y207668D01*
X389826Y207678D01*
X389789Y207696D01*
X389734Y207705D01*
X389669Y207724D01*
X389595Y207742D01*
X389502Y207761D01*
X389401Y207789D01*
X389290Y207807D01*
X389170Y207826D01*
X389040Y207835D01*
X388892Y207853D01*
X388744Y207862D01*
X388578Y207872D01*
X388411D01*
X388421Y207862D01*
X388476Y207826D01*
X388550Y207761D01*
X388643Y207678D01*
X388754Y207585D01*
X388855Y207465D01*
X388957Y207335D01*
X389049Y207188D01*
Y207178D01*
X389059Y207169D01*
X389086Y207114D01*
X389114Y207030D01*
X389160Y206919D01*
X389197Y206790D01*
X389225Y206642D01*
X389253Y206485D01*
X389262Y206318D01*
Y206245D01*
X389253Y206189D01*
X389244Y206115D01*
X389234Y206041D01*
X389216Y205949D01*
X389188Y205856D01*
X389123Y205644D01*
X389077Y205533D01*
X389012Y205422D01*
X388948Y205311D01*
X388874Y205191D01*
X388781Y205079D01*
X388680Y204978D01*
X388670Y204969D01*
X388652Y204950D01*
X388624Y204922D01*
X388578Y204895D01*
X388513Y204848D01*
X388448Y204802D01*
X388365Y204756D01*
X388273Y204701D01*
X388171Y204645D01*
X388060Y204599D01*
X387931Y204552D01*
X387801Y204506D01*
X387663Y204479D01*
X387505Y204451D01*
X387348Y204432D01*
X387182Y204423D01*
X387173D01*
X387154D01*
X387126D01*
X387080D01*
X387025Y204432D01*
X386969D01*
X386821Y204460D01*
X386646Y204488D01*
X386461Y204534D01*
X386257Y204599D01*
X386063Y204691D01*
X386054D01*
X386045Y204701D01*
X386017Y204719D01*
X385980Y204737D01*
X385887Y204793D01*
X385767Y204876D01*
X385638Y204978D01*
X385508Y205098D01*
X385379Y205246D01*
X385268Y205403D01*
Y205412D01*
X385259Y205422D01*
X385240Y205449D01*
X385231Y205486D01*
X385185Y205579D01*
X385139Y205699D01*
X385083Y205856D01*
X385046Y206032D01*
X385009Y206226D01*
X385000Y206439D01*
Y206485D01*
X385009Y206531D01*
Y206605D01*
X385018Y206688D01*
X385037Y206781D01*
X385065Y206892D01*
X385092Y207003D01*
X385129Y207132D01*
X385176Y207262D01*
X385231Y207391D01*
X385305Y207530D01*
X385388Y207659D01*
X385481Y207789D01*
X385592Y207918D01*
X385721Y208038D01*
X385730Y208047D01*
X385758Y208066D01*
X385795Y208094D01*
X385860Y208131D01*
X385943Y208186D01*
X386035Y208232D01*
X386156Y208288D01*
X386285Y208343D01*
X386442Y208408D01*
X386618Y208463D01*
X386812Y208510D01*
X387025Y208556D01*
X387265Y208602D01*
X387524Y208630D01*
X387801Y208648D01*
X388097Y208658D01*
X388106D01*
X388116D01*
X388143D01*
X388180D01*
X388273Y208648D01*
D02*
G37*
G36*
X303522Y209991D02*
X303615D01*
X303707Y209982D01*
X303828Y209972D01*
X303948Y209954D01*
X304216Y209908D01*
X304512Y209843D01*
X304808Y209750D01*
X305094Y209621D01*
X305103Y209612D01*
X305131Y209603D01*
X305168Y209584D01*
X305214Y209547D01*
X305279Y209510D01*
X305353Y209464D01*
X305520Y209344D01*
X305704Y209186D01*
X305889Y209002D01*
X306074Y208789D01*
X306231Y208539D01*
X306241Y208530D01*
X306250Y208502D01*
X306268Y208465D01*
X306296Y208419D01*
X306324Y208345D01*
X306352Y208271D01*
X306389Y208179D01*
X306426Y208077D01*
X306463Y207966D01*
X306500Y207846D01*
X306555Y207587D01*
X306601Y207291D01*
X306620Y206986D01*
Y206894D01*
X306611Y206829D01*
X306601Y206746D01*
X306592Y206644D01*
X306583Y206542D01*
X306555Y206422D01*
X306500Y206172D01*
X306416Y205895D01*
X306361Y205756D01*
X306296Y205627D01*
X306213Y205497D01*
X306130Y205368D01*
X306120Y205359D01*
X306111Y205340D01*
X306084Y205303D01*
X306037Y205257D01*
X305991Y205211D01*
X305926Y205146D01*
X305852Y205081D01*
X305778Y205007D01*
X305686Y204933D01*
X305575Y204860D01*
X305464Y204776D01*
X305344Y204702D01*
X305205Y204638D01*
X305067Y204564D01*
X304918Y204508D01*
X304752Y204453D01*
X304558Y205285D01*
X304567D01*
X304586Y205294D01*
X304623Y205313D01*
X304669Y205331D01*
X304724Y205350D01*
X304798Y205377D01*
X304946Y205451D01*
X305113Y205544D01*
X305279Y205655D01*
X305436Y205793D01*
X305575Y205941D01*
X305593Y205960D01*
X305630Y206015D01*
X305677Y206108D01*
X305741Y206228D01*
X305797Y206385D01*
X305852Y206561D01*
X305889Y206773D01*
X305899Y207005D01*
Y207078D01*
X305889Y207125D01*
Y207189D01*
X305880Y207263D01*
X305852Y207439D01*
X305815Y207633D01*
X305751Y207837D01*
X305658Y208049D01*
X305538Y208243D01*
Y208253D01*
X305520Y208262D01*
X305473Y208327D01*
X305399Y208410D01*
X305288Y208512D01*
X305150Y208632D01*
X304993Y208743D01*
X304798Y208844D01*
X304586Y208937D01*
X304576D01*
X304558Y208946D01*
X304530Y208955D01*
X304484Y208965D01*
X304429Y208983D01*
X304364Y209002D01*
X304207Y209029D01*
X304022Y209066D01*
X303818Y209103D01*
X303596Y209122D01*
X303356Y209131D01*
X303347D01*
X303319D01*
X303273D01*
X303217D01*
X303153Y209122D01*
X303069D01*
X302977Y209112D01*
X302875Y209103D01*
X302653Y209076D01*
X302413Y209029D01*
X302173Y208974D01*
X301932Y208900D01*
X301923D01*
X301905Y208891D01*
X301877Y208872D01*
X301831Y208854D01*
X301720Y208798D01*
X301590Y208715D01*
X301442Y208613D01*
X301285Y208484D01*
X301146Y208336D01*
X301017Y208160D01*
Y208151D01*
X301008Y208132D01*
X300989Y208105D01*
X300971Y208068D01*
X300952Y208022D01*
X300924Y207966D01*
X300869Y207837D01*
X300814Y207670D01*
X300767Y207485D01*
X300730Y207282D01*
X300721Y207069D01*
Y207005D01*
X300730Y206949D01*
Y206884D01*
X300739Y206820D01*
X300777Y206653D01*
X300823Y206459D01*
X300897Y206265D01*
X300998Y206061D01*
X301054Y205960D01*
X301128Y205867D01*
X301137Y205858D01*
X301146Y205849D01*
X301174Y205821D01*
X301202Y205784D01*
X301248Y205747D01*
X301304Y205701D01*
X301359Y205645D01*
X301433Y205599D01*
X301516Y205544D01*
X301609Y205479D01*
X301701Y205424D01*
X301812Y205368D01*
X301932Y205322D01*
X302062Y205276D01*
X302200Y205229D01*
X302348Y205192D01*
X302136Y204342D01*
X302126D01*
X302089Y204351D01*
X302034Y204370D01*
X301960Y204397D01*
X301877Y204425D01*
X301775Y204462D01*
X301664Y204508D01*
X301544Y204564D01*
X301285Y204693D01*
X301026Y204860D01*
X300897Y204961D01*
X300767Y205063D01*
X300656Y205174D01*
X300545Y205303D01*
X300536Y205313D01*
X300518Y205331D01*
X300499Y205377D01*
X300462Y205424D01*
X300416Y205497D01*
X300370Y205571D01*
X300324Y205673D01*
X300277Y205775D01*
X300222Y205895D01*
X300175Y206024D01*
X300129Y206163D01*
X300083Y206311D01*
X300046Y206468D01*
X300028Y206635D01*
X300009Y206810D01*
X300000Y206995D01*
Y207097D01*
X300009Y207171D01*
Y207254D01*
X300018Y207356D01*
X300037Y207467D01*
X300055Y207596D01*
X300102Y207864D01*
X300175Y208142D01*
X300277Y208419D01*
X300342Y208549D01*
X300416Y208678D01*
X300425Y208687D01*
X300434Y208706D01*
X300462Y208743D01*
X300499Y208780D01*
X300536Y208835D01*
X300592Y208900D01*
X300656Y208974D01*
X300730Y209048D01*
X300814Y209122D01*
X300897Y209205D01*
X301109Y209371D01*
X301359Y209529D01*
X301636Y209667D01*
X301646D01*
X301673Y209686D01*
X301720Y209695D01*
X301775Y209723D01*
X301849Y209741D01*
X301942Y209769D01*
X302043Y209806D01*
X302154Y209834D01*
X302274Y209861D01*
X302413Y209898D01*
X302700Y209945D01*
X303023Y209982D01*
X303356Y210000D01*
X303365D01*
X303402D01*
X303458D01*
X303522Y209991D01*
D02*
G37*
G36*
X306426Y199423D02*
X305806D01*
X305797Y199432D01*
X305778Y199451D01*
X305741Y199488D01*
X305686Y199525D01*
X305621Y199580D01*
X305547Y199654D01*
X305455Y199728D01*
X305344Y199811D01*
X305233Y199895D01*
X305103Y199996D01*
X304956Y200098D01*
X304808Y200200D01*
X304641Y200311D01*
X304466Y200422D01*
X304271Y200533D01*
X304077Y200644D01*
X304068Y200653D01*
X304031Y200671D01*
X303976Y200699D01*
X303892Y200745D01*
X303791Y200791D01*
X303680Y200847D01*
X303550Y200912D01*
X303402Y200976D01*
X303236Y201050D01*
X303069Y201134D01*
X302885Y201208D01*
X302690Y201282D01*
X302293Y201429D01*
X301868Y201568D01*
X301858D01*
X301831Y201577D01*
X301784Y201587D01*
X301729Y201605D01*
X301655Y201624D01*
X301562Y201642D01*
X301461Y201670D01*
X301350Y201688D01*
X301220Y201716D01*
X301082Y201744D01*
X300786Y201790D01*
X300462Y201836D01*
X300111Y201864D01*
Y202668D01*
X300120D01*
X300148D01*
X300185D01*
X300240Y202659D01*
X300314D01*
X300407Y202650D01*
X300508Y202641D01*
X300619Y202631D01*
X300749Y202613D01*
X300878Y202594D01*
X301035Y202567D01*
X301193Y202539D01*
X301359Y202511D01*
X301544Y202474D01*
X301923Y202382D01*
X301932D01*
X301969Y202372D01*
X302025Y202354D01*
X302108Y202326D01*
X302200Y202299D01*
X302311Y202262D01*
X302441Y202225D01*
X302579Y202169D01*
X302737Y202114D01*
X302894Y202058D01*
X303245Y201919D01*
X303615Y201753D01*
X303985Y201568D01*
X303994Y201559D01*
X304031Y201540D01*
X304077Y201513D01*
X304151Y201476D01*
X304234Y201429D01*
X304336Y201365D01*
X304447Y201300D01*
X304567Y201226D01*
X304835Y201050D01*
X305113Y200865D01*
X305399Y200653D01*
X305667Y200431D01*
Y203565D01*
X306426D01*
Y199423D01*
D02*
G37*
G36*
X348522Y214991D02*
X348615D01*
X348707Y214982D01*
X348828Y214972D01*
X348948Y214954D01*
X349216Y214908D01*
X349512Y214843D01*
X349808Y214750D01*
X350094Y214621D01*
X350103Y214612D01*
X350131Y214603D01*
X350168Y214584D01*
X350214Y214547D01*
X350279Y214510D01*
X350353Y214464D01*
X350519Y214344D01*
X350704Y214186D01*
X350889Y214002D01*
X351074Y213789D01*
X351231Y213539D01*
X351241Y213530D01*
X351250Y213502D01*
X351268Y213465D01*
X351296Y213419D01*
X351324Y213345D01*
X351352Y213271D01*
X351389Y213179D01*
X351426Y213077D01*
X351463Y212966D01*
X351499Y212846D01*
X351555Y212587D01*
X351601Y212291D01*
X351620Y211986D01*
Y211894D01*
X351610Y211829D01*
X351601Y211746D01*
X351592Y211644D01*
X351583Y211542D01*
X351555Y211422D01*
X351499Y211172D01*
X351416Y210895D01*
X351361Y210756D01*
X351296Y210627D01*
X351213Y210497D01*
X351130Y210368D01*
X351120Y210359D01*
X351111Y210340D01*
X351083Y210303D01*
X351037Y210257D01*
X350991Y210211D01*
X350926Y210146D01*
X350852Y210081D01*
X350778Y210007D01*
X350686Y209933D01*
X350575Y209860D01*
X350464Y209776D01*
X350344Y209702D01*
X350205Y209638D01*
X350066Y209564D01*
X349919Y209508D01*
X349752Y209453D01*
X349558Y210285D01*
X349567D01*
X349586Y210294D01*
X349623Y210313D01*
X349669Y210331D01*
X349724Y210350D01*
X349798Y210377D01*
X349946Y210451D01*
X350113Y210544D01*
X350279Y210655D01*
X350436Y210793D01*
X350575Y210941D01*
X350593Y210960D01*
X350630Y211015D01*
X350677Y211108D01*
X350741Y211228D01*
X350797Y211385D01*
X350852Y211561D01*
X350889Y211773D01*
X350899Y212005D01*
Y212078D01*
X350889Y212125D01*
Y212189D01*
X350880Y212263D01*
X350852Y212439D01*
X350815Y212633D01*
X350751Y212837D01*
X350658Y213049D01*
X350538Y213243D01*
Y213253D01*
X350519Y213262D01*
X350473Y213327D01*
X350399Y213410D01*
X350288Y213512D01*
X350150Y213632D01*
X349992Y213743D01*
X349798Y213844D01*
X349586Y213937D01*
X349576D01*
X349558Y213946D01*
X349530Y213955D01*
X349484Y213965D01*
X349428Y213983D01*
X349364Y214002D01*
X349207Y214029D01*
X349022Y214066D01*
X348818Y214103D01*
X348596Y214122D01*
X348356Y214131D01*
X348347D01*
X348319D01*
X348273D01*
X348217D01*
X348153Y214122D01*
X348069D01*
X347977Y214112D01*
X347875Y214103D01*
X347653Y214076D01*
X347413Y214029D01*
X347173Y213974D01*
X346932Y213900D01*
X346923D01*
X346904Y213891D01*
X346877Y213872D01*
X346830Y213854D01*
X346720Y213798D01*
X346590Y213715D01*
X346442Y213613D01*
X346285Y213484D01*
X346146Y213336D01*
X346017Y213160D01*
Y213151D01*
X346008Y213132D01*
X345989Y213105D01*
X345971Y213068D01*
X345952Y213022D01*
X345924Y212966D01*
X345869Y212837D01*
X345813Y212670D01*
X345767Y212485D01*
X345730Y212282D01*
X345721Y212069D01*
Y212005D01*
X345730Y211949D01*
Y211884D01*
X345740Y211820D01*
X345776Y211653D01*
X345823Y211459D01*
X345897Y211265D01*
X345998Y211061D01*
X346054Y210960D01*
X346128Y210867D01*
X346137Y210858D01*
X346146Y210849D01*
X346174Y210821D01*
X346202Y210784D01*
X346248Y210747D01*
X346303Y210701D01*
X346359Y210645D01*
X346433Y210599D01*
X346516Y210544D01*
X346609Y210479D01*
X346701Y210424D01*
X346812Y210368D01*
X346932Y210322D01*
X347062Y210276D01*
X347200Y210229D01*
X347348Y210192D01*
X347136Y209342D01*
X347126D01*
X347089Y209351D01*
X347034Y209370D01*
X346960Y209397D01*
X346877Y209425D01*
X346775Y209462D01*
X346664Y209508D01*
X346544Y209564D01*
X346285Y209693D01*
X346026Y209860D01*
X345897Y209961D01*
X345767Y210063D01*
X345656Y210174D01*
X345545Y210303D01*
X345536Y210313D01*
X345518Y210331D01*
X345499Y210377D01*
X345462Y210424D01*
X345416Y210497D01*
X345370Y210571D01*
X345323Y210673D01*
X345277Y210775D01*
X345222Y210895D01*
X345176Y211024D01*
X345129Y211163D01*
X345083Y211311D01*
X345046Y211468D01*
X345028Y211635D01*
X345009Y211810D01*
X345000Y211995D01*
Y212097D01*
X345009Y212171D01*
Y212254D01*
X345018Y212356D01*
X345037Y212467D01*
X345055Y212596D01*
X345102Y212864D01*
X345176Y213142D01*
X345277Y213419D01*
X345342Y213549D01*
X345416Y213678D01*
X345425Y213687D01*
X345434Y213706D01*
X345462Y213743D01*
X345499Y213780D01*
X345536Y213835D01*
X345592Y213900D01*
X345656Y213974D01*
X345730Y214048D01*
X345813Y214122D01*
X345897Y214205D01*
X346109Y214371D01*
X346359Y214529D01*
X346636Y214667D01*
X346646D01*
X346673Y214686D01*
X346720Y214695D01*
X346775Y214723D01*
X346849Y214741D01*
X346941Y214769D01*
X347043Y214806D01*
X347154Y214834D01*
X347274Y214861D01*
X347413Y214898D01*
X347700Y214945D01*
X348023Y214982D01*
X348356Y215000D01*
X348365D01*
X348402D01*
X348458D01*
X348522Y214991D01*
D02*
G37*
G36*
X346849Y207798D02*
X346840D01*
X346821D01*
X346794Y207789D01*
X346747Y207779D01*
X346646Y207752D01*
X346507Y207715D01*
X346368Y207659D01*
X346211Y207585D01*
X346072Y207493D01*
X345943Y207382D01*
X345934Y207363D01*
X345897Y207326D01*
X345850Y207252D01*
X345795Y207151D01*
X345740Y207040D01*
X345693Y206901D01*
X345656Y206744D01*
X345647Y206568D01*
Y206513D01*
X345656Y206476D01*
X345666Y206365D01*
X345703Y206235D01*
X345749Y206078D01*
X345823Y205921D01*
X345934Y205755D01*
X345998Y205681D01*
X346072Y205607D01*
X346082Y205597D01*
X346091Y205588D01*
X346119Y205570D01*
X346146Y205542D01*
X346248Y205477D01*
X346377Y205403D01*
X346535Y205338D01*
X346729Y205274D01*
X346960Y205228D01*
X347080Y205209D01*
X347210D01*
X347219D01*
X347237D01*
X347274D01*
X347321Y205218D01*
X347376D01*
X347441Y205228D01*
X347589Y205255D01*
X347764Y205301D01*
X347940Y205366D01*
X348106Y205459D01*
X348264Y205588D01*
X348273D01*
X348282Y205607D01*
X348328Y205653D01*
X348393Y205736D01*
X348467Y205847D01*
X348532Y205995D01*
X348596Y206161D01*
X348643Y206355D01*
X348661Y206466D01*
Y206642D01*
X348652Y206716D01*
X348643Y206808D01*
X348615Y206919D01*
X348587Y207030D01*
X348541Y207151D01*
X348485Y207271D01*
X348476Y207280D01*
X348458Y207317D01*
X348411Y207372D01*
X348365Y207446D01*
X348301Y207520D01*
X348217Y207594D01*
X348134Y207678D01*
X348032Y207742D01*
X348134Y208482D01*
X351426Y207862D01*
Y204682D01*
X350677D01*
Y207243D01*
X348948Y207585D01*
X348957Y207576D01*
X348966Y207557D01*
X348985Y207530D01*
X349012Y207483D01*
X349040Y207428D01*
X349077Y207363D01*
X349151Y207215D01*
X349225Y207030D01*
X349290Y206827D01*
X349336Y206605D01*
X349355Y206494D01*
Y206291D01*
X349345Y206235D01*
X349336Y206161D01*
X349327Y206078D01*
X349308Y205986D01*
X349281Y205884D01*
X349216Y205662D01*
X349170Y205542D01*
X349105Y205422D01*
X349040Y205301D01*
X348966Y205181D01*
X348874Y205070D01*
X348772Y204959D01*
X348763Y204950D01*
X348744Y204932D01*
X348717Y204904D01*
X348670Y204867D01*
X348606Y204821D01*
X348541Y204774D01*
X348458Y204719D01*
X348365Y204664D01*
X348264Y204617D01*
X348153Y204562D01*
X348023Y204516D01*
X347894Y204469D01*
X347755Y204432D01*
X347598Y204405D01*
X347441Y204386D01*
X347274Y204377D01*
X347265D01*
X347237D01*
X347191D01*
X347126Y204386D01*
X347052Y204395D01*
X346969Y204405D01*
X346867Y204423D01*
X346766Y204442D01*
X346525Y204497D01*
X346276Y204590D01*
X346146Y204645D01*
X346026Y204719D01*
X345897Y204793D01*
X345776Y204885D01*
X345767Y204895D01*
X345740Y204913D01*
X345703Y204950D01*
X345656Y204996D01*
X345601Y205061D01*
X345527Y205135D01*
X345462Y205228D01*
X345388Y205329D01*
X345314Y205440D01*
X345249Y205570D01*
X345185Y205708D01*
X345120Y205856D01*
X345074Y206013D01*
X345037Y206189D01*
X345009Y206374D01*
X345000Y206568D01*
Y206651D01*
X345009Y206716D01*
X345018Y206790D01*
X345028Y206873D01*
X345037Y206975D01*
X345065Y207077D01*
X345120Y207308D01*
X345203Y207539D01*
X345259Y207659D01*
X345323Y207779D01*
X345397Y207890D01*
X345481Y208001D01*
X345490Y208010D01*
X345499Y208029D01*
X345536Y208047D01*
X345573Y208084D01*
X345619Y208131D01*
X345675Y208177D01*
X345749Y208232D01*
X345832Y208279D01*
X345915Y208334D01*
X346017Y208389D01*
X346239Y208491D01*
X346498Y208574D01*
X346636Y208602D01*
X346784Y208621D01*
X346849Y207798D01*
D02*
G37*
G36*
X659203Y108774D02*
X659222Y108755D01*
X659259Y108719D01*
X659314Y108681D01*
X659379Y108626D01*
X659453Y108552D01*
X659545Y108478D01*
X659656Y108395D01*
X659767Y108312D01*
X659896Y108210D01*
X660044Y108108D01*
X660192Y108006D01*
X660359Y107896D01*
X660535Y107785D01*
X660729Y107674D01*
X660923Y107563D01*
X660932Y107554D01*
X660969Y107535D01*
X661024Y107507D01*
X661108Y107461D01*
X661209Y107415D01*
X661320Y107359D01*
X661450Y107295D01*
X661598Y107230D01*
X661764Y107156D01*
X661931Y107073D01*
X662115Y106999D01*
X662310Y106925D01*
X662707Y106777D01*
X663132Y106638D01*
X663142D01*
X663169Y106629D01*
X663216Y106620D01*
X663271Y106601D01*
X663345Y106583D01*
X663438Y106564D01*
X663539Y106537D01*
X663650Y106518D01*
X663780Y106490D01*
X663918Y106462D01*
X664214Y106416D01*
X664538Y106370D01*
X664889Y106342D01*
Y105538D01*
X664880D01*
X664852D01*
X664815D01*
X664760Y105547D01*
X664686D01*
X664593Y105556D01*
X664492Y105566D01*
X664381Y105575D01*
X664251Y105593D01*
X664122Y105612D01*
X663965Y105640D01*
X663807Y105667D01*
X663641Y105695D01*
X663456Y105732D01*
X663077Y105825D01*
X663068D01*
X663031Y105834D01*
X662975Y105852D01*
X662892Y105880D01*
X662800Y105908D01*
X662689Y105945D01*
X662559Y105982D01*
X662421Y106037D01*
X662263Y106093D01*
X662106Y106148D01*
X661755Y106287D01*
X661385Y106453D01*
X661015Y106638D01*
X661006Y106647D01*
X660969Y106666D01*
X660923Y106694D01*
X660849Y106731D01*
X660766Y106777D01*
X660664Y106842D01*
X660553Y106906D01*
X660433Y106980D01*
X660165Y107156D01*
X659887Y107341D01*
X659601Y107554D01*
X659333Y107775D01*
Y104641D01*
X658574D01*
Y108783D01*
X659194D01*
X659203Y108774D01*
D02*
G37*
G36*
X663058Y103513D02*
X663132D01*
X663308Y103495D01*
X663512Y103476D01*
X663724Y103439D01*
X663918Y103384D01*
X664103Y103319D01*
X664112D01*
X664122Y103310D01*
X664177Y103282D01*
X664251Y103236D01*
X664353Y103171D01*
X664455Y103079D01*
X664566Y102977D01*
X664677Y102847D01*
X664769Y102700D01*
X664778Y102681D01*
X664806Y102626D01*
X664843Y102542D01*
X664880Y102422D01*
X664926Y102274D01*
X664963Y102108D01*
X664991Y101923D01*
X665000Y101720D01*
Y101636D01*
X664991Y101581D01*
X664982Y101507D01*
X664972Y101433D01*
X664935Y101239D01*
X664880Y101035D01*
X664797Y100823D01*
X664741Y100712D01*
X664677Y100610D01*
X664603Y100518D01*
X664519Y100425D01*
X664510Y100416D01*
X664501Y100407D01*
X664464Y100388D01*
X664427Y100360D01*
X664381Y100323D01*
X664316Y100287D01*
X664242Y100250D01*
X664159Y100203D01*
X664066Y100166D01*
X663955Y100129D01*
X663844Y100092D01*
X663715Y100055D01*
X663576Y100037D01*
X663419Y100009D01*
X663262Y100000D01*
X663086D01*
X662975Y100767D01*
X662985D01*
X663003D01*
X663040D01*
X663095Y100777D01*
X663151Y100786D01*
X663216D01*
X663373Y100814D01*
X663539Y100841D01*
X663706Y100897D01*
X663854Y100952D01*
X663918Y100989D01*
X663974Y101035D01*
X663983Y101045D01*
X664011Y101082D01*
X664057Y101137D01*
X664103Y101211D01*
X664159Y101313D01*
X664196Y101424D01*
X664233Y101562D01*
X664242Y101710D01*
Y101766D01*
X664233Y101821D01*
X664223Y101904D01*
X664205Y101988D01*
X664186Y102080D01*
X664149Y102173D01*
X664103Y102265D01*
X664094Y102274D01*
X664075Y102302D01*
X664038Y102339D01*
X664002Y102395D01*
X663937Y102441D01*
X663872Y102496D01*
X663798Y102542D01*
X663706Y102579D01*
X663697D01*
X663660Y102598D01*
X663595Y102607D01*
X663512Y102626D01*
X663401Y102644D01*
X663262Y102653D01*
X663095Y102672D01*
X662901D01*
X658491D01*
Y103522D01*
X662855D01*
X662864D01*
X662892D01*
X662929D01*
X662985D01*
X663058Y103513D01*
D02*
G37*
G36*
X528171Y386610D02*
X528254Y386601D01*
X528356Y386592D01*
X528458Y386583D01*
X528578Y386555D01*
X528828Y386499D01*
X529105Y386416D01*
X529244Y386361D01*
X529373Y386296D01*
X529502Y386213D01*
X529632Y386130D01*
X529641Y386120D01*
X529660Y386111D01*
X529697Y386083D01*
X529743Y386037D01*
X529789Y385991D01*
X529854Y385926D01*
X529919Y385852D01*
X529992Y385778D01*
X530066Y385686D01*
X530140Y385575D01*
X530224Y385464D01*
X530298Y385344D01*
X530362Y385205D01*
X530436Y385066D01*
X530492Y384919D01*
X530547Y384752D01*
X529715Y384558D01*
Y384567D01*
X529706Y384586D01*
X529687Y384623D01*
X529669Y384669D01*
X529650Y384724D01*
X529623Y384798D01*
X529549Y384946D01*
X529456Y385113D01*
X529345Y385279D01*
X529207Y385436D01*
X529059Y385575D01*
X529040Y385593D01*
X528985Y385630D01*
X528892Y385677D01*
X528772Y385741D01*
X528615Y385797D01*
X528439Y385852D01*
X528227Y385889D01*
X527995Y385899D01*
X527921D01*
X527875Y385889D01*
X527811D01*
X527737Y385880D01*
X527561Y385852D01*
X527367Y385815D01*
X527163Y385751D01*
X526951Y385658D01*
X526757Y385538D01*
X526747D01*
X526738Y385519D01*
X526673Y385473D01*
X526590Y385399D01*
X526488Y385288D01*
X526368Y385150D01*
X526257Y384992D01*
X526156Y384798D01*
X526063Y384586D01*
Y384576D01*
X526054Y384558D01*
X526045Y384530D01*
X526035Y384484D01*
X526017Y384428D01*
X525998Y384364D01*
X525971Y384207D01*
X525934Y384022D01*
X525897Y383818D01*
X525878Y383596D01*
X525869Y383356D01*
Y383347D01*
Y383319D01*
Y383273D01*
Y383217D01*
X525878Y383153D01*
Y383069D01*
X525887Y382977D01*
X525897Y382875D01*
X525924Y382653D01*
X525971Y382413D01*
X526026Y382173D01*
X526100Y381932D01*
Y381923D01*
X526109Y381904D01*
X526128Y381877D01*
X526146Y381830D01*
X526202Y381720D01*
X526285Y381590D01*
X526387Y381442D01*
X526516Y381285D01*
X526664Y381146D01*
X526840Y381017D01*
X526849D01*
X526867Y381008D01*
X526895Y380989D01*
X526932Y380971D01*
X526978Y380952D01*
X527034Y380924D01*
X527163Y380869D01*
X527330Y380813D01*
X527515Y380767D01*
X527718Y380730D01*
X527931Y380721D01*
X527995D01*
X528051Y380730D01*
X528116D01*
X528180Y380740D01*
X528347Y380776D01*
X528541Y380823D01*
X528735Y380897D01*
X528938Y380998D01*
X529040Y381054D01*
X529133Y381128D01*
X529142Y381137D01*
X529151Y381146D01*
X529179Y381174D01*
X529216Y381202D01*
X529253Y381248D01*
X529299Y381303D01*
X529355Y381359D01*
X529401Y381433D01*
X529456Y381516D01*
X529521Y381609D01*
X529576Y381701D01*
X529632Y381812D01*
X529678Y381932D01*
X529724Y382062D01*
X529771Y382200D01*
X529808Y382348D01*
X530658Y382136D01*
Y382126D01*
X530649Y382089D01*
X530630Y382034D01*
X530603Y381960D01*
X530575Y381877D01*
X530538Y381775D01*
X530492Y381664D01*
X530436Y381544D01*
X530307Y381285D01*
X530140Y381026D01*
X530039Y380897D01*
X529937Y380767D01*
X529826Y380656D01*
X529697Y380545D01*
X529687Y380536D01*
X529669Y380518D01*
X529623Y380499D01*
X529576Y380462D01*
X529502Y380416D01*
X529428Y380370D01*
X529327Y380323D01*
X529225Y380277D01*
X529105Y380222D01*
X528975Y380176D01*
X528837Y380129D01*
X528689Y380083D01*
X528532Y380046D01*
X528365Y380028D01*
X528190Y380009D01*
X528005Y380000D01*
X527903D01*
X527829Y380009D01*
X527746D01*
X527644Y380018D01*
X527533Y380037D01*
X527404Y380055D01*
X527136Y380102D01*
X526858Y380176D01*
X526581Y380277D01*
X526451Y380342D01*
X526322Y380416D01*
X526313Y380425D01*
X526294Y380434D01*
X526257Y380462D01*
X526220Y380499D01*
X526165Y380536D01*
X526100Y380592D01*
X526026Y380656D01*
X525952Y380730D01*
X525878Y380813D01*
X525795Y380897D01*
X525629Y381109D01*
X525471Y381359D01*
X525333Y381636D01*
Y381646D01*
X525314Y381673D01*
X525305Y381720D01*
X525277Y381775D01*
X525259Y381849D01*
X525231Y381941D01*
X525194Y382043D01*
X525166Y382154D01*
X525139Y382274D01*
X525102Y382413D01*
X525055Y382700D01*
X525018Y383023D01*
X525000Y383356D01*
Y383365D01*
Y383402D01*
Y383458D01*
X525009Y383522D01*
Y383615D01*
X525018Y383707D01*
X525028Y383828D01*
X525046Y383948D01*
X525092Y384216D01*
X525157Y384512D01*
X525249Y384808D01*
X525379Y385094D01*
X525388Y385103D01*
X525397Y385131D01*
X525416Y385168D01*
X525453Y385214D01*
X525490Y385279D01*
X525536Y385353D01*
X525656Y385519D01*
X525813Y385704D01*
X525998Y385889D01*
X526211Y386074D01*
X526461Y386231D01*
X526470Y386241D01*
X526498Y386250D01*
X526535Y386268D01*
X526581Y386296D01*
X526655Y386324D01*
X526729Y386352D01*
X526821Y386389D01*
X526923Y386426D01*
X527034Y386463D01*
X527154Y386499D01*
X527413Y386555D01*
X527709Y386601D01*
X528014Y386620D01*
X528106D01*
X528171Y386610D01*
D02*
G37*
G36*
X533598Y386527D02*
X533672Y386518D01*
X533755Y386509D01*
X533848Y386499D01*
X533940Y386472D01*
X534162Y386416D01*
X534384Y386333D01*
X534495Y386278D01*
X534606Y386213D01*
X534708Y386130D01*
X534809Y386046D01*
X534819Y386037D01*
X534828Y386028D01*
X534856Y386000D01*
X534893Y385963D01*
X534930Y385908D01*
X534976Y385852D01*
X535068Y385714D01*
X535161Y385538D01*
X535244Y385335D01*
X535309Y385103D01*
X535318Y384983D01*
X535327Y384854D01*
Y384845D01*
Y384835D01*
Y384780D01*
X535318Y384697D01*
X535299Y384595D01*
X535272Y384465D01*
X535225Y384336D01*
X535170Y384207D01*
X535087Y384077D01*
X535078Y384059D01*
X535041Y384022D01*
X534985Y383966D01*
X534911Y383892D01*
X534809Y383809D01*
X534689Y383726D01*
X534551Y383643D01*
X534384Y383569D01*
X534393D01*
X534412Y383559D01*
X534440Y383550D01*
X534477Y383532D01*
X534588Y383485D01*
X534717Y383421D01*
X534856Y383328D01*
X535004Y383227D01*
X535142Y383097D01*
X535272Y382949D01*
Y382940D01*
X535281Y382931D01*
X535318Y382875D01*
X535373Y382783D01*
X535429Y382663D01*
X535484Y382515D01*
X535540Y382339D01*
X535577Y382145D01*
X535586Y381932D01*
Y381923D01*
Y381895D01*
Y381849D01*
X535577Y381794D01*
X535568Y381729D01*
X535558Y381646D01*
X535540Y381553D01*
X535512Y381451D01*
X535447Y381239D01*
X535401Y381119D01*
X535336Y381008D01*
X535272Y380887D01*
X535198Y380776D01*
X535105Y380666D01*
X535004Y380555D01*
X534994Y380545D01*
X534976Y380527D01*
X534948Y380499D01*
X534902Y380471D01*
X534837Y380425D01*
X534772Y380379D01*
X534689Y380333D01*
X534597Y380277D01*
X534495Y380222D01*
X534375Y380176D01*
X534245Y380129D01*
X534116Y380083D01*
X533968Y380055D01*
X533811Y380028D01*
X533654Y380009D01*
X533478Y380000D01*
X533386D01*
X533321Y380009D01*
X533238Y380018D01*
X533145Y380028D01*
X533044Y380046D01*
X532933Y380074D01*
X532683Y380139D01*
X532553Y380185D01*
X532433Y380231D01*
X532304Y380296D01*
X532174Y380370D01*
X532054Y380453D01*
X531943Y380555D01*
X531934Y380564D01*
X531916Y380582D01*
X531888Y380610D01*
X531851Y380656D01*
X531814Y380712D01*
X531758Y380776D01*
X531712Y380850D01*
X531657Y380943D01*
X531601Y381035D01*
X531555Y381146D01*
X531463Y381377D01*
X531426Y381516D01*
X531398Y381655D01*
X531379Y381803D01*
X531370Y381951D01*
Y381960D01*
Y381978D01*
Y382015D01*
X531379Y382052D01*
Y382108D01*
X531389Y382173D01*
X531407Y382321D01*
X531444Y382487D01*
X531499Y382653D01*
X531583Y382829D01*
X531684Y382995D01*
Y383005D01*
X531703Y383014D01*
X531740Y383060D01*
X531814Y383134D01*
X531916Y383227D01*
X532045Y383319D01*
X532202Y383421D01*
X532378Y383504D01*
X532590Y383569D01*
X532581D01*
X532572Y383578D01*
X532544Y383587D01*
X532507Y383606D01*
X532424Y383643D01*
X532313Y383698D01*
X532193Y383772D01*
X532073Y383865D01*
X531962Y383966D01*
X531860Y384077D01*
X531851Y384096D01*
X531823Y384133D01*
X531786Y384207D01*
X531749Y384299D01*
X531703Y384419D01*
X531666Y384558D01*
X531638Y384715D01*
X531629Y384882D01*
Y384891D01*
Y384909D01*
Y384946D01*
X531638Y385002D01*
X531647Y385057D01*
X531657Y385131D01*
X531694Y385288D01*
X531749Y385473D01*
X531842Y385667D01*
X531897Y385769D01*
X531962Y385871D01*
X532045Y385963D01*
X532128Y386056D01*
X532137Y386065D01*
X532156Y386074D01*
X532184Y386102D01*
X532221Y386130D01*
X532267Y386167D01*
X532332Y386204D01*
X532406Y386250D01*
X532480Y386296D01*
X532572Y386342D01*
X532674Y386389D01*
X532785Y386426D01*
X532905Y386463D01*
X533164Y386518D01*
X533312Y386527D01*
X533460Y386536D01*
X533543D01*
X533598Y386527D01*
D02*
G37*
G36*
X533522Y77145D02*
Y77136D01*
Y77108D01*
Y77071D01*
Y77015D01*
X533513Y76941D01*
Y76867D01*
X533495Y76692D01*
X533476Y76488D01*
X533439Y76276D01*
X533384Y76082D01*
X533319Y75897D01*
Y75887D01*
X533310Y75878D01*
X533282Y75823D01*
X533236Y75749D01*
X533171Y75647D01*
X533079Y75545D01*
X532977Y75434D01*
X532848Y75324D01*
X532700Y75231D01*
X532681Y75222D01*
X532626Y75194D01*
X532542Y75157D01*
X532422Y75120D01*
X532274Y75074D01*
X532108Y75037D01*
X531923Y75009D01*
X531720Y75000D01*
X531636D01*
X531581Y75009D01*
X531507Y75018D01*
X531433Y75028D01*
X531239Y75065D01*
X531035Y75120D01*
X530823Y75203D01*
X530712Y75259D01*
X530610Y75324D01*
X530518Y75397D01*
X530425Y75481D01*
X530416Y75490D01*
X530407Y75499D01*
X530388Y75536D01*
X530360Y75573D01*
X530323Y75619D01*
X530286Y75684D01*
X530249Y75758D01*
X530203Y75841D01*
X530166Y75934D01*
X530129Y76045D01*
X530092Y76156D01*
X530055Y76285D01*
X530037Y76424D01*
X530009Y76581D01*
X530000Y76738D01*
Y76914D01*
X530767Y77025D01*
Y77015D01*
Y76997D01*
Y76960D01*
X530776Y76905D01*
X530786Y76849D01*
Y76784D01*
X530813Y76627D01*
X530841Y76461D01*
X530897Y76294D01*
X530952Y76146D01*
X530989Y76082D01*
X531035Y76026D01*
X531045Y76017D01*
X531082Y75989D01*
X531137Y75943D01*
X531211Y75897D01*
X531313Y75841D01*
X531424Y75804D01*
X531562Y75767D01*
X531710Y75758D01*
X531766D01*
X531821Y75767D01*
X531904Y75777D01*
X531988Y75795D01*
X532080Y75813D01*
X532173Y75851D01*
X532265Y75897D01*
X532274Y75906D01*
X532302Y75924D01*
X532339Y75961D01*
X532394Y75998D01*
X532441Y76063D01*
X532496Y76128D01*
X532542Y76202D01*
X532579Y76294D01*
Y76304D01*
X532598Y76340D01*
X532607Y76405D01*
X532626Y76488D01*
X532644Y76599D01*
X532653Y76738D01*
X532672Y76905D01*
Y77099D01*
Y81509D01*
X533522D01*
Y77145D01*
D02*
G37*
G36*
X536703Y81527D02*
X536749D01*
X536814Y81518D01*
X536971Y81490D01*
X537147Y81453D01*
X537341Y81389D01*
X537535Y81305D01*
X537729Y81194D01*
X537738D01*
X537748Y81176D01*
X537775Y81157D01*
X537812Y81130D01*
X537905Y81056D01*
X538025Y80954D01*
X538145Y80815D01*
X538284Y80649D01*
X538404Y80455D01*
X538515Y80233D01*
Y80224D01*
X538524Y80205D01*
X538543Y80168D01*
X538561Y80122D01*
X538580Y80057D01*
X538607Y79974D01*
X538626Y79882D01*
X538654Y79780D01*
X538681Y79660D01*
X538709Y79521D01*
X538728Y79373D01*
X538746Y79216D01*
X538765Y79040D01*
X538783Y78855D01*
X538792Y78652D01*
Y78439D01*
Y78430D01*
Y78384D01*
Y78319D01*
Y78236D01*
X538783Y78134D01*
Y78014D01*
X538774Y77875D01*
X538755Y77737D01*
X538728Y77422D01*
X538681Y77089D01*
X538617Y76775D01*
X538571Y76618D01*
X538524Y76479D01*
Y76470D01*
X538515Y76451D01*
X538497Y76414D01*
X538478Y76359D01*
X538450Y76304D01*
X538413Y76230D01*
X538321Y76072D01*
X538210Y75897D01*
X538080Y75712D01*
X537914Y75536D01*
X537729Y75379D01*
X537720D01*
X537701Y75360D01*
X537674Y75342D01*
X537637Y75324D01*
X537581Y75296D01*
X537526Y75259D01*
X537452Y75222D01*
X537378Y75194D01*
X537202Y75120D01*
X536990Y75055D01*
X536758Y75018D01*
X536499Y75000D01*
X536426D01*
X536379Y75009D01*
X536315D01*
X536241Y75018D01*
X536065Y75055D01*
X535871Y75102D01*
X535667Y75175D01*
X535464Y75277D01*
X535362Y75342D01*
X535270Y75416D01*
X535261Y75425D01*
X535251Y75434D01*
X535224Y75462D01*
X535196Y75490D01*
X535159Y75536D01*
X535113Y75592D01*
X535020Y75721D01*
X534928Y75887D01*
X534835Y76091D01*
X534761Y76322D01*
X534706Y76590D01*
X535464Y76655D01*
Y76646D01*
X535473Y76627D01*
Y76609D01*
X535482Y76572D01*
X535510Y76470D01*
X535547Y76359D01*
X535593Y76230D01*
X535658Y76100D01*
X535732Y75980D01*
X535825Y75878D01*
X535834Y75869D01*
X535871Y75841D01*
X535936Y75804D01*
X536009Y75767D01*
X536111Y75721D01*
X536231Y75684D01*
X536370Y75656D01*
X536518Y75647D01*
X536583D01*
X536647Y75656D01*
X536731Y75666D01*
X536832Y75684D01*
X536934Y75712D01*
X537045Y75749D01*
X537147Y75804D01*
X537156Y75813D01*
X537193Y75832D01*
X537248Y75869D01*
X537304Y75924D01*
X537378Y75989D01*
X537452Y76063D01*
X537526Y76146D01*
X537600Y76248D01*
X537609Y76257D01*
X537627Y76304D01*
X537664Y76368D01*
X537701Y76451D01*
X537748Y76562D01*
X537794Y76692D01*
X537840Y76840D01*
X537886Y77006D01*
Y77015D01*
X537896Y77025D01*
Y77052D01*
X537905Y77089D01*
X537923Y77182D01*
X537951Y77302D01*
X537970Y77450D01*
X537988Y77607D01*
X537997Y77783D01*
X538007Y77968D01*
Y77977D01*
Y78005D01*
Y78051D01*
Y78125D01*
X537997Y78106D01*
X537960Y78060D01*
X537905Y77995D01*
X537840Y77903D01*
X537748Y77811D01*
X537637Y77709D01*
X537507Y77607D01*
X537359Y77515D01*
X537341Y77505D01*
X537285Y77478D01*
X537202Y77441D01*
X537100Y77404D01*
X536962Y77358D01*
X536814Y77320D01*
X536647Y77293D01*
X536472Y77284D01*
X536398D01*
X536342Y77293D01*
X536268Y77302D01*
X536194Y77311D01*
X536102Y77330D01*
X536009Y77358D01*
X535797Y77422D01*
X535686Y77469D01*
X535575Y77524D01*
X535455Y77589D01*
X535344Y77672D01*
X535233Y77755D01*
X535131Y77857D01*
X535122Y77866D01*
X535103Y77884D01*
X535085Y77912D01*
X535048Y77958D01*
X535002Y78023D01*
X534955Y78088D01*
X534909Y78171D01*
X534863Y78264D01*
X534808Y78365D01*
X534761Y78476D01*
X534715Y78606D01*
X534669Y78735D01*
X534632Y78883D01*
X534613Y79040D01*
X534595Y79197D01*
X534586Y79373D01*
Y79382D01*
Y79419D01*
Y79465D01*
X534595Y79530D01*
X534604Y79613D01*
X534613Y79715D01*
X534632Y79817D01*
X534660Y79937D01*
X534724Y80177D01*
X534771Y80307D01*
X534826Y80445D01*
X534891Y80575D01*
X534974Y80695D01*
X535057Y80825D01*
X535159Y80936D01*
X535168Y80945D01*
X535187Y80963D01*
X535214Y80991D01*
X535261Y81028D01*
X535316Y81074D01*
X535390Y81130D01*
X535464Y81176D01*
X535556Y81241D01*
X535649Y81296D01*
X535760Y81342D01*
X536009Y81444D01*
X536139Y81481D01*
X536287Y81509D01*
X536435Y81527D01*
X536592Y81537D01*
X536657D01*
X536703Y81527D01*
D02*
G37*
G36*
X674889Y301758D02*
X669887D01*
X669896Y301749D01*
X669933Y301703D01*
X669989Y301647D01*
X670054Y301555D01*
X670137Y301453D01*
X670229Y301324D01*
X670331Y301176D01*
X670433Y301010D01*
Y301000D01*
X670442Y300991D01*
X670479Y300936D01*
X670525Y300843D01*
X670581Y300732D01*
X670645Y300603D01*
X670710Y300464D01*
X670775Y300325D01*
X670830Y300187D01*
X670072D01*
Y300196D01*
X670054Y300214D01*
X670044Y300251D01*
X670017Y300298D01*
X669989Y300353D01*
X669952Y300418D01*
X669859Y300575D01*
X669758Y300760D01*
X669628Y300945D01*
X669481Y301139D01*
X669323Y301333D01*
X669314Y301342D01*
X669305Y301352D01*
X669277Y301379D01*
X669249Y301416D01*
X669157Y301500D01*
X669046Y301611D01*
X668916Y301721D01*
X668769Y301842D01*
X668621Y301943D01*
X668464Y302036D01*
Y302544D01*
X674889D01*
Y301758D01*
D02*
G37*
G36*
X673058Y298513D02*
X673132D01*
X673308Y298495D01*
X673512Y298476D01*
X673724Y298439D01*
X673918Y298384D01*
X674103Y298319D01*
X674112D01*
X674122Y298310D01*
X674177Y298282D01*
X674251Y298236D01*
X674353Y298171D01*
X674455Y298079D01*
X674566Y297977D01*
X674677Y297847D01*
X674769Y297700D01*
X674778Y297681D01*
X674806Y297626D01*
X674843Y297542D01*
X674880Y297422D01*
X674926Y297274D01*
X674963Y297108D01*
X674991Y296923D01*
X675000Y296720D01*
Y296636D01*
X674991Y296581D01*
X674982Y296507D01*
X674972Y296433D01*
X674935Y296239D01*
X674880Y296035D01*
X674797Y295823D01*
X674741Y295712D01*
X674677Y295610D01*
X674603Y295518D01*
X674519Y295425D01*
X674510Y295416D01*
X674501Y295407D01*
X674464Y295388D01*
X674427Y295361D01*
X674381Y295324D01*
X674316Y295287D01*
X674242Y295250D01*
X674159Y295203D01*
X674066Y295166D01*
X673955Y295129D01*
X673844Y295092D01*
X673715Y295055D01*
X673576Y295037D01*
X673419Y295009D01*
X673262Y295000D01*
X673086D01*
X672975Y295767D01*
X672985D01*
X673003D01*
X673040D01*
X673095Y295777D01*
X673151Y295786D01*
X673216D01*
X673373Y295814D01*
X673539Y295841D01*
X673706Y295897D01*
X673854Y295952D01*
X673918Y295989D01*
X673974Y296035D01*
X673983Y296045D01*
X674011Y296082D01*
X674057Y296137D01*
X674103Y296211D01*
X674159Y296313D01*
X674196Y296424D01*
X674233Y296562D01*
X674242Y296710D01*
Y296766D01*
X674233Y296821D01*
X674223Y296905D01*
X674205Y296988D01*
X674186Y297080D01*
X674149Y297173D01*
X674103Y297265D01*
X674094Y297274D01*
X674075Y297302D01*
X674039Y297339D01*
X674002Y297395D01*
X673937Y297441D01*
X673872Y297496D01*
X673798Y297542D01*
X673706Y297579D01*
X673697D01*
X673660Y297598D01*
X673595Y297607D01*
X673512Y297626D01*
X673401Y297644D01*
X673262Y297653D01*
X673095Y297672D01*
X672901D01*
X668491D01*
Y298522D01*
X672855D01*
X672864D01*
X672892D01*
X672929D01*
X672985D01*
X673058Y298513D01*
D02*
G37*
%LPC*%
G36*
X182615Y472633D02*
X180599D01*
Y469767D01*
X182615Y472633D01*
D02*
G37*
G36*
X592367Y203121D02*
Y201106D01*
X595233D01*
X592367Y203121D01*
D02*
G37*
G36*
X387182Y207752D02*
X387163D01*
X387117D01*
X387034Y207742D01*
X386932Y207733D01*
X386812Y207715D01*
X386683Y207678D01*
X386544Y207641D01*
X386405Y207585D01*
X386387Y207576D01*
X386340Y207548D01*
X386276Y207511D01*
X386193Y207456D01*
X386109Y207391D01*
X386008Y207308D01*
X385924Y207215D01*
X385841Y207104D01*
X385832Y207086D01*
X385813Y207049D01*
X385776Y206984D01*
X385749Y206901D01*
X385712Y206808D01*
X385675Y206698D01*
X385656Y206577D01*
X385647Y206448D01*
Y206402D01*
X385656Y206365D01*
X385666Y206272D01*
X385693Y206152D01*
X385749Y206023D01*
X385813Y205875D01*
X385915Y205727D01*
X385971Y205653D01*
X386045Y205588D01*
X386054D01*
X386063Y205570D01*
X386119Y205533D01*
X386211Y205477D01*
X386331Y205403D01*
X386488Y205338D01*
X386673Y205283D01*
X386886Y205246D01*
X387136Y205228D01*
X387145D01*
X387163D01*
X387200D01*
X387247Y205237D01*
X387302D01*
X387367Y205246D01*
X387515Y205274D01*
X387681Y205311D01*
X387857Y205375D01*
X388023Y205468D01*
X388180Y205588D01*
X388199Y205606D01*
X388245Y205653D01*
X388301Y205727D01*
X388374Y205828D01*
X388448Y205958D01*
X388504Y206106D01*
X388550Y206282D01*
X388569Y206476D01*
Y206531D01*
X388559Y206568D01*
X388550Y206660D01*
X388522Y206790D01*
X388476Y206929D01*
X388402Y207086D01*
X388310Y207234D01*
X388180Y207382D01*
X388162Y207400D01*
X388116Y207437D01*
X388032Y207502D01*
X387912Y207567D01*
X387774Y207631D01*
X387598Y207696D01*
X387404Y207733D01*
X387182Y207752D01*
D02*
G37*
G36*
X533478Y385889D02*
X533404D01*
X533321Y385871D01*
X533210Y385852D01*
X533090Y385815D01*
X532960Y385769D01*
X532840Y385695D01*
X532720Y385593D01*
X532711Y385584D01*
X532674Y385547D01*
X532627Y385482D01*
X532581Y385399D01*
X532526Y385298D01*
X532480Y385177D01*
X532443Y385048D01*
X532433Y384900D01*
Y384891D01*
Y384882D01*
X532443Y384826D01*
X532452Y384743D01*
X532470Y384641D01*
X532507Y384521D01*
X532553Y384401D01*
X532627Y384271D01*
X532720Y384160D01*
X532729Y384151D01*
X532775Y384114D01*
X532840Y384068D01*
X532923Y384022D01*
X533034Y383966D01*
X533164Y383920D01*
X533312Y383883D01*
X533478Y383874D01*
X533497D01*
X533552Y383883D01*
X533635Y383892D01*
X533746Y383911D01*
X533866Y383948D01*
X533987Y383994D01*
X534116Y384068D01*
X534227Y384160D01*
X534236Y384170D01*
X534273Y384216D01*
X534319Y384271D01*
X534375Y384355D01*
X534430Y384456D01*
X534477Y384576D01*
X534514Y384715D01*
X534523Y384863D01*
Y384872D01*
Y384882D01*
Y384937D01*
X534504Y385020D01*
X534486Y385122D01*
X534449Y385233D01*
X534393Y385353D01*
X534319Y385473D01*
X534218Y385593D01*
X534208Y385603D01*
X534162Y385640D01*
X534098Y385686D01*
X534014Y385741D01*
X533903Y385797D01*
X533783Y385843D01*
X533635Y385880D01*
X533478Y385889D01*
D02*
G37*
G36*
X533450Y383236D02*
X533395D01*
X533358Y383227D01*
X533256Y383217D01*
X533127Y383190D01*
X532979Y383143D01*
X532831Y383079D01*
X532674Y382986D01*
X532535Y382866D01*
X532517Y382848D01*
X532480Y382801D01*
X532424Y382718D01*
X532359Y382616D01*
X532285Y382478D01*
X532230Y382321D01*
X532193Y382145D01*
X532174Y381951D01*
Y381932D01*
Y381895D01*
X532184Y381830D01*
X532193Y381747D01*
X532211Y381646D01*
X532239Y381535D01*
X532276Y381424D01*
X532322Y381303D01*
X532332Y381294D01*
X532350Y381248D01*
X532387Y381193D01*
X532443Y381128D01*
X532507Y381045D01*
X532590Y380961D01*
X532683Y380887D01*
X532794Y380813D01*
X532812Y380804D01*
X532849Y380786D01*
X532914Y380758D01*
X532997Y380730D01*
X533099Y380703D01*
X533219Y380675D01*
X533349Y380656D01*
X533478Y380647D01*
X533534D01*
X533571Y380656D01*
X533681Y380666D01*
X533811Y380693D01*
X533959Y380740D01*
X534116Y380795D01*
X534264Y380887D01*
X534412Y381008D01*
X534430Y381026D01*
X534467Y381072D01*
X534532Y381156D01*
X534597Y381257D01*
X534661Y381387D01*
X534726Y381544D01*
X534763Y381729D01*
X534782Y381923D01*
Y381932D01*
Y381951D01*
Y381978D01*
X534772Y382015D01*
X534763Y382117D01*
X534735Y382256D01*
X534689Y382394D01*
X534625Y382552D01*
X534532Y382709D01*
X534403Y382857D01*
X534384Y382875D01*
X534338Y382912D01*
X534255Y382977D01*
X534144Y383051D01*
X534005Y383116D01*
X533839Y383180D01*
X533654Y383217D01*
X533450Y383236D01*
D02*
G37*
G36*
X536786Y80889D02*
X536638D01*
X536601Y80880D01*
X536499Y80871D01*
X536379Y80834D01*
X536231Y80788D01*
X536074Y80704D01*
X535917Y80603D01*
X535843Y80529D01*
X535769Y80455D01*
Y80445D01*
X535751Y80436D01*
X535732Y80409D01*
X535714Y80381D01*
X535649Y80288D01*
X535584Y80159D01*
X535510Y80002D01*
X535446Y79808D01*
X535409Y79586D01*
X535390Y79345D01*
Y79336D01*
Y79318D01*
Y79290D01*
X535399Y79244D01*
Y79188D01*
X535409Y79133D01*
X535436Y78994D01*
X535482Y78837D01*
X535538Y78670D01*
X535630Y78504D01*
X535751Y78356D01*
X535769Y78337D01*
X535815Y78301D01*
X535899Y78236D01*
X536000Y78171D01*
X536139Y78097D01*
X536296Y78032D01*
X536472Y77995D01*
X536666Y77977D01*
X536721D01*
X536758Y77986D01*
X536860Y77995D01*
X536980Y78023D01*
X537128Y78069D01*
X537276Y78134D01*
X537424Y78227D01*
X537563Y78356D01*
X537581Y78375D01*
X537618Y78430D01*
X537674Y78513D01*
X537748Y78633D01*
X537812Y78781D01*
X537868Y78957D01*
X537905Y79170D01*
X537923Y79410D01*
Y79419D01*
Y79438D01*
Y79475D01*
X537914Y79521D01*
Y79586D01*
X537905Y79650D01*
X537877Y79798D01*
X537840Y79974D01*
X537775Y80159D01*
X537683Y80335D01*
X537563Y80492D01*
Y80501D01*
X537544Y80510D01*
X537498Y80556D01*
X537424Y80621D01*
X537322Y80695D01*
X537193Y80760D01*
X537045Y80825D01*
X536879Y80871D01*
X536786Y80889D01*
D02*
G37*
%LPD*%
D10*
X109250Y460300D02*
X266150D01*
X109250D02*
Y489700D01*
X266150D01*
Y460300D02*
Y489700D01*
X604500Y189000D02*
Y231000D01*
X575500Y189000D02*
X604500D01*
X575500D02*
Y231000D01*
X604500D01*
X474500Y189000D02*
Y231000D01*
X445500Y189000D02*
X474500D01*
X445500D02*
Y231000D01*
X474500D01*
X114000Y305500D02*
X156000D01*
X114000D02*
Y334500D01*
X156000D01*
Y305500D02*
Y334500D01*
X114000Y175500D02*
X156000D01*
X114000D02*
Y204500D01*
X156000D01*
Y175500D02*
Y204500D01*
X399531Y187469D02*
Y242531D01*
X370469Y187469D02*
X399531D01*
X370469D02*
Y242531D01*
X399531D01*
X314500Y189000D02*
Y231000D01*
X285500Y189000D02*
X314500D01*
X285500D02*
Y231000D01*
X314500D01*
X359531Y187469D02*
Y242531D01*
X330469Y187469D02*
X359531D01*
X330469D02*
Y242531D01*
X359531D01*
X635250Y37000D02*
X694750D01*
Y163000D01*
X635250D02*
X694750D01*
X635250Y37000D02*
Y163000D01*
X504000Y365500D02*
Y394500D01*
Y365500D02*
X546000D01*
Y394500D01*
X504000D02*
X546000D01*
X467000Y45250D02*
Y104750D01*
Y45250D02*
X593000D01*
Y104750D01*
X467000D02*
X593000D01*
X655000Y206500D02*
X695000D01*
Y383500D01*
X655000D02*
X695000D01*
X655000Y206500D02*
Y383500D01*
M02*
