G04*
G04 #@! TF.GenerationSoftware,Altium Limited,Altium Designer,23.4.1 (23)*
G04*
G04 Layer_Color=16711935*
%FSLAX44Y44*%
%MOMM*%
G71*
G04*
G04 #@! TF.SameCoordinates,2805C024-4D9A-4381-85FD-023388383D32*
G04*
G04*
G04 #@! TF.FilePolarity,Negative*
G04*
G01*
G75*
%ADD29C,3.6500*%
%ADD30R,1.6580X1.6580*%
%ADD31C,1.6580*%
%ADD32R,1.7250X1.7250*%
%ADD33C,1.7250*%
%ADD34R,1.7250X1.7250*%
%ADD35R,1.5700X1.5700*%
%ADD36C,1.5700*%
%ADD37R,1.6500X1.6500*%
%ADD38C,1.6500*%
%ADD39C,1.3500*%
%ADD40R,1.3500X1.3500*%
%ADD41R,1.4000X1.4000*%
%ADD42C,1.4000*%
%ADD43R,1.4000X1.4000*%
%ADD44C,0.7500*%
D29*
X715000Y515000D02*
D03*
Y25000D02*
D03*
X25000D02*
D03*
Y515000D02*
D03*
D30*
X45000Y345000D02*
D03*
X44750Y75000D02*
D03*
D31*
X45000Y370000D02*
D03*
Y395000D02*
D03*
X44750Y100000D02*
D03*
Y125000D02*
D03*
D32*
Y222500D02*
D03*
D33*
Y247500D02*
D03*
X142500Y69750D02*
D03*
X267500D02*
D03*
X380000Y70000D02*
D03*
D34*
X167500Y69750D02*
D03*
X292500D02*
D03*
X405000Y70000D02*
D03*
D35*
X251200Y475000D02*
D03*
D36*
X225800D02*
D03*
X200400D02*
D03*
X175000D02*
D03*
X149600D02*
D03*
X124200D02*
D03*
D37*
X535100Y333100D02*
D03*
D38*
X509700D02*
D03*
X484300D02*
D03*
X458900D02*
D03*
X433500D02*
D03*
X408100D02*
D03*
X382700D02*
D03*
X357300D02*
D03*
X331900D02*
D03*
X306500D02*
D03*
X281100D02*
D03*
X255700D02*
D03*
X230300D02*
D03*
X204900D02*
D03*
X535100Y256900D02*
D03*
X509700D02*
D03*
X484300D02*
D03*
X458900D02*
D03*
X433500D02*
D03*
X408100D02*
D03*
X382700D02*
D03*
X357300D02*
D03*
X331900D02*
D03*
X306500D02*
D03*
X281100D02*
D03*
X255700D02*
D03*
X230300D02*
D03*
X204900D02*
D03*
D39*
X379400Y380000D02*
D03*
D40*
X330600D02*
D03*
D41*
X670250Y137500D02*
D03*
X672000Y232500D02*
D03*
D42*
X670250Y112500D02*
D03*
Y87500D02*
D03*
Y62500D02*
D03*
X542500Y69750D02*
D03*
X517500D02*
D03*
X492500D02*
D03*
X672000Y357500D02*
D03*
Y332500D02*
D03*
Y307500D02*
D03*
Y282500D02*
D03*
Y257500D02*
D03*
D43*
X567500Y69750D02*
D03*
D44*
X590000Y182500D02*
D03*
X460000Y185000D02*
D03*
X402500Y202500D02*
D03*
X570000Y195000D02*
D03*
X95000Y255000D02*
D03*
X100000Y322500D02*
D03*
X435000Y437500D02*
D03*
X302500Y435000D02*
D03*
X290000Y360000D02*
D03*
X415000Y205000D02*
D03*
X205000Y227500D02*
D03*
X502500Y292500D02*
D03*
X497500Y247500D02*
D03*
X495000Y300000D02*
D03*
X620000Y225000D02*
D03*
X630000Y395000D02*
D03*
Y355000D02*
D03*
X530000Y425000D02*
D03*
X485000Y395000D02*
D03*
X495000Y325000D02*
D03*
X258980Y195000D02*
D03*
X265000Y135000D02*
D03*
X435000Y270000D02*
D03*
X450000Y240000D02*
D03*
X515000Y140000D02*
D03*
X255000Y295000D02*
D03*
X515000Y155000D02*
D03*
X345000D02*
D03*
X165000Y120000D02*
D03*
X220000Y195000D02*
D03*
X569520Y205480D02*
D03*
X568180Y218180D02*
D03*
X230000Y200000D02*
D03*
X515000Y175000D02*
D03*
X275000Y310000D02*
D03*
X480000Y195000D02*
D03*
Y205000D02*
D03*
X468980Y240000D02*
D03*
X187235Y217765D02*
D03*
X175000Y210000D02*
D03*
X630000Y255000D02*
D03*
X645000Y235000D02*
D03*
M02*
