G04*
G04 #@! TF.GenerationSoftware,Altium Limited,Altium Designer,23.4.1 (23)*
G04*
G04 Layer_Physical_Order=2*
G04 Layer_Color=16711680*
%FSLAX44Y44*%
%MOMM*%
G71*
G04*
G04 #@! TF.SameCoordinates,D707CC84-C655-447D-9D72-A261F95A4AE0*
G04*
G04*
G04 #@! TF.FilePolarity,Positive*
G04*
G01*
G75*
%ADD14C,0.3000*%
%ADD29C,1.3500*%
%ADD30R,1.3500X1.3500*%
%ADD36R,1.2000X1.2000*%
%ADD37C,1.2000*%
%ADD38R,1.3500X1.3500*%
%ADD50R,1.2000X1.2000*%
%ADD54C,1.5500*%
%ADD55R,1.5500X1.5500*%
%ADD59C,4.0000*%
%ADD60C,1.5750*%
%ADD61C,3.1500*%
%ADD62R,3.1500X3.1500*%
%ADD63C,3.5000*%
%ADD64R,1.5000X1.5000*%
%ADD65C,1.5000*%
%ADD66R,1.6650X1.6650*%
%ADD67C,1.6650*%
%ADD68R,1.6000X1.6000*%
%ADD69C,1.6000*%
%ADD70C,1.5080*%
%ADD71R,1.5080X1.5080*%
%ADD72R,1.5750X1.5750*%
%ADD73R,1.6000X1.6000*%
%ADD74C,2.2500*%
%ADD75R,2.2500X2.2500*%
%ADD76R,1.5000X1.5000*%
%ADD77R,1.9800X1.9800*%
%ADD78C,1.9350*%
%ADD79C,1.9800*%
%ADD80C,1.3000*%
%ADD81C,0.6000*%
%ADD82C,1.6950*%
D14*
X970000Y420250D02*
Y457500D01*
Y420250D02*
X1125250Y265000D01*
X464850Y50000D02*
X588635D01*
X598635Y40000D01*
X599000D01*
D29*
X750000Y462900D02*
D03*
X1085400Y600000D02*
D03*
X450000Y754600D02*
D03*
D30*
X750000Y412100D02*
D03*
X450000Y805400D02*
D03*
D36*
X1047500Y520000D02*
D03*
D37*
X1072500D02*
D03*
X830000Y450000D02*
D03*
D38*
X1034600Y600000D02*
D03*
D50*
X830000Y425000D02*
D03*
D54*
X514400Y130000D02*
D03*
D55*
X425600D02*
D03*
D59*
X1102500Y52500D02*
X1154069D01*
X355000Y75000D02*
Y335000D01*
X335000Y55000D02*
X355000Y75000D01*
X492032Y217968D02*
X560000Y150000D01*
X492032Y217968D02*
Y572468D01*
X355000Y335000D02*
X450000Y430000D01*
X407968Y656532D02*
X492032Y572468D01*
X750000Y570000D02*
Y725000D01*
X515000Y865000D02*
X592500Y942500D01*
X515000Y865000D02*
X610000D01*
X750000Y725000D01*
X455400Y805400D02*
X515000Y865000D01*
X450000Y805400D02*
X455400D01*
X592500Y942500D02*
Y968200D01*
X407968Y656532D02*
Y897968D01*
X480000Y970000D01*
X1034600Y600000D02*
Y627100D01*
X1177500Y770000D02*
X1250000D01*
X1034600Y627100D02*
X1177500Y770000D01*
X750000Y537500D02*
Y570000D01*
X703868Y458232D02*
X750000Y412100D01*
X703868Y458232D02*
Y491368D01*
X750000Y537500D01*
X1140000Y207500D02*
X1177500Y170000D01*
Y75932D02*
Y170000D01*
X1154069Y52500D02*
X1177500Y75932D01*
X1127500Y207500D02*
X1140000D01*
X1084253Y52500D02*
X1095000D01*
X1044253Y92500D02*
X1084253Y52500D01*
X955000Y67500D02*
X980000Y92500D01*
X1044253D01*
X952500Y62500D02*
X982500D01*
X560000Y119000D02*
X579000Y100000D01*
X560000Y119000D02*
Y150000D01*
D60*
X683000Y258000D02*
D03*
X969000D02*
D03*
X987500Y54750D02*
D03*
D61*
X170000Y220000D02*
D03*
X160000Y600000D02*
D03*
X450000Y430000D02*
D03*
D62*
X270000Y220000D02*
D03*
X260000Y600000D02*
D03*
X550000Y430000D02*
D03*
D63*
X30000Y1010000D02*
D03*
Y30000D02*
D03*
X1280000D02*
D03*
Y1010000D02*
D03*
D64*
X1050000Y920000D02*
D03*
D65*
Y720000D02*
D03*
X1250000Y770000D02*
D03*
Y870000D02*
D03*
X640002Y637298D02*
D03*
Y662698D02*
D03*
X360000Y950000D02*
D03*
D66*
X480000Y970000D02*
D03*
D67*
X518100D02*
D03*
X556200D02*
D03*
X594300D02*
D03*
D68*
X835000Y70000D02*
D03*
D69*
X885000D02*
D03*
X110000Y875000D02*
D03*
D70*
X1130000Y60000D02*
D03*
Y85000D02*
D03*
X1125250Y215000D02*
D03*
Y240000D02*
D03*
D71*
X1130000Y110000D02*
D03*
X1125250Y265000D02*
D03*
D72*
X1012500Y54750D02*
D03*
D73*
X110000Y925000D02*
D03*
D74*
X830000Y570000D02*
D03*
X750000D02*
D03*
Y955000D02*
D03*
D75*
X857500D02*
D03*
D76*
X360000Y875000D02*
D03*
D77*
X599000Y160000D02*
D03*
D78*
X579000Y100000D02*
D03*
D79*
X599000Y40000D02*
D03*
X721000D02*
D03*
Y160000D02*
D03*
D80*
X435150Y50000D02*
D03*
X450000Y37300D02*
D03*
X464850Y50000D02*
D03*
D81*
X970000Y457500D02*
D03*
D82*
X335000Y55000D02*
D03*
M02*
