M48
;Layer_Color=9474304
;FILE_FORMAT=4:4
METRIC,LZ
;TYPE=PLATED
T1F00S00C0.3000
T2F00S00C0.7000
T3F00S00C0.8000
T4F00S00C0.8500
T5F00S00C1.0000
T6F00S00C1.0500
T7F00S00C1.1000
T8F00S00C1.1100
T9F00S00C1.1300
T10F00S00C1.2900
T11F00S00C1.3200
T12F00S00C1.5000
T13F00S00C2.1000
T14F00S00C3.0000
%
T01
X0097Y004575
T02
X0083Y00425
Y0045
X010475Y0052
X010725
T03
X0043515Y0005
X0045Y000373
X0046485Y0005
T04
X0075Y004121
Y004629
X0045Y007546
Y008054
X010346Y006
X010854
T05
X0113Y0006
Y00085
Y0011
X0112525Y00215
Y0024
Y00265
X005144Y0013
X004256
X00640002Y00637298
Y00662698
X0105Y0072
X0125Y0077
Y0087
X0105Y0092
X0036Y0095
Y00875
T06
X009875Y0005475
X010125
X00969Y00258
X00683
T07
X00835Y0007
X00885
X0011Y00875
Y00925
T08
X0048Y0097
X005181
X005562
X005943
T09
X00335Y00055
T10
X00579Y001
T11
X00599Y0004
Y0016
X00721
Y0004
T12
X0075Y0057
X0083
X008575Y00955
X0075
T13
X0017Y0022
X0027
X0026Y006
X0016
X0045Y0043
X0055
T14
X0128Y0003
X0003
X0128Y0101
X0003
M30
