G04*
G04 #@! TF.GenerationSoftware,Altium Limited,Altium Designer,23.4.1 (23)*
G04*
G04 Layer_Color=65535*
%FSLAX44Y44*%
%MOMM*%
G71*
G04*
G04 #@! TF.SameCoordinates,D707CC84-C655-447D-9D72-A261F95A4AE0*
G04*
G04*
G04 #@! TF.FilePolarity,Positive*
G04*
G01*
G75*
%ADD10C,0.2000*%
%ADD11C,0.1000*%
%ADD12C,0.1500*%
%ADD13C,0.2500*%
%ADD14C,0.3000*%
%ADD15C,0.1270*%
%ADD16C,0.2540*%
%ADD17C,0.5000*%
D10*
X372500Y220000D02*
G03*
X372500Y220000I-152500J0D01*
G01*
X362500Y600000D02*
G03*
X362500Y600000I-152500J0D01*
G01*
X1131000Y142500D02*
G03*
X1131000Y142500I-1000J0D01*
G01*
X1045400Y54750D02*
G03*
X1045400Y54750I-1000J0D01*
G01*
X1126250Y297500D02*
G03*
X1126250Y297500I-1000J0D01*
G01*
X652500Y430000D02*
G03*
X652500Y430000I-152500J0D01*
G01*
X425648Y66114D02*
G03*
X433927Y74378I24351J-16114D01*
G01*
X737300Y399400D02*
X762700D01*
Y475600D01*
X737300D02*
X762700D01*
X737300Y399400D02*
Y475600D01*
X1014500Y980500D02*
X1285500D01*
Y659500D02*
Y980500D01*
X1014500Y659500D02*
X1285500D01*
X1014500D02*
Y980500D01*
X1036250Y497000D02*
Y543000D01*
X1021900Y612700D02*
X1098100D01*
Y587300D02*
Y612700D01*
X1021900Y587300D02*
X1098100D01*
X1021900D02*
Y612700D01*
X1033000Y451580D02*
X1087000D01*
X1033000Y408420D02*
X1092750D01*
X464900Y977500D02*
X469150D01*
X464900Y946500D02*
Y977500D01*
Y946500D02*
X609400D01*
Y977500D01*
X605150D02*
X609400D01*
X569150D02*
X581150D01*
X531150D02*
X543150D01*
X493150D02*
X505150D01*
X437300Y818100D02*
X462700D01*
X437300Y741900D02*
Y818100D01*
Y741900D02*
X462700D01*
Y818100D01*
X804000Y29000D02*
Y111000D01*
X910000D01*
Y29000D02*
Y111000D01*
X804000Y29000D02*
X910000D01*
X508500Y50000D02*
X531500D01*
X69000Y850000D02*
Y956000D01*
Y850000D02*
X151000D01*
Y956000D01*
X69000D02*
X151000D01*
X708500Y1000500D02*
X976500D01*
X708500Y524500D02*
Y1000500D01*
Y524500D02*
X976500D01*
Y1000500D01*
X555500Y660000D02*
X584500D01*
X495500Y660000D02*
X524500D01*
X555500Y780000D02*
X584500D01*
X495500Y780000D02*
X524500D01*
X240000Y938300D02*
Y961700D01*
X330500Y850000D02*
X389500D01*
Y975000D01*
X330500D02*
X389500D01*
X330500Y850000D02*
Y975000D01*
X938100Y410500D02*
Y470250D01*
X901900Y410500D02*
Y464500D01*
X807000Y413750D02*
X853000D01*
X457000Y116700D02*
Y143300D01*
X496000Y130000D02*
X502650D01*
X437350D02*
X444000D01*
Y116000D02*
Y144000D01*
Y116000D02*
X496000D01*
Y144000D01*
X444000D02*
X496000D01*
X417098Y74661D02*
X425654Y66105D01*
X417098Y74661D02*
X425371Y82935D01*
X433927Y74378D01*
D11*
X1008000Y920000D02*
G03*
X1009000Y920000I500J0D01*
G01*
D02*
G03*
X1008000Y920000I-500J0D01*
G01*
X479000Y983000D02*
Y984000D01*
Y983000D01*
X857500Y1005000D02*
G03*
X857500Y1006000I0J500D01*
G01*
D02*
G03*
X857500Y1005000I0J-500D01*
G01*
X360000Y844000D02*
G03*
X360000Y843000I0J-500D01*
G01*
D02*
G03*
X360000Y844000I0J500D01*
G01*
X643556Y687072D02*
X636700D01*
X640128Y690500D02*
Y683644D01*
D12*
X1094000Y520000D02*
G03*
X1094000Y520000I-34000J0D01*
G01*
X656808Y624247D02*
G03*
X623190Y624251I-16806J25751D01*
G01*
X864000Y437500D02*
G03*
X864000Y437500I-34000J0D01*
G01*
X623190Y624250D02*
X656808D01*
D13*
X836250Y117500D02*
G03*
X836250Y117500I-1250J0D01*
G01*
X158750Y925000D02*
G03*
X158750Y925000I-1250J0D01*
G01*
D14*
X559000Y161190D02*
G03*
X559000Y161190I-1000J0D01*
G01*
D15*
X936000Y210500D02*
Y258000D01*
Y305500D01*
X716000D02*
X936000D01*
X716000Y258000D02*
Y305500D01*
Y210500D02*
Y258000D01*
Y210500D02*
X936000D01*
X694075Y258000D02*
X716000D01*
X936000D02*
X957925D01*
X1096000Y35500D02*
Y134500D01*
X1153500D01*
Y35500D02*
Y134500D01*
X1096000Y35500D02*
X1153500D01*
X1037000Y31250D02*
Y88750D01*
X963000Y31250D02*
X1037000D01*
X963000D02*
Y88750D01*
X1037000D01*
X1091250Y190500D02*
Y289500D01*
X1148750D01*
Y190500D02*
Y289500D01*
X1091250Y190500D02*
X1148750D01*
X564500Y22500D02*
Y177500D01*
X755500D01*
Y22500D02*
Y177500D01*
X564500Y22500D02*
X755500D01*
D16*
X1166704Y220871D02*
X1165038Y222537D01*
X1161706D01*
X1160040Y220871D01*
Y214206D01*
X1161706Y212540D01*
X1165038D01*
X1166704Y214206D01*
Y217538D01*
X1163372D01*
X1170037Y212540D02*
Y222537D01*
X1176701Y212540D01*
Y222537D01*
X1180034D02*
Y212540D01*
X1185032D01*
X1186698Y214206D01*
Y220871D01*
X1185032Y222537D01*
X1180034D01*
X1166704Y60871D02*
X1165038Y62537D01*
X1161706D01*
X1160040Y60871D01*
Y54206D01*
X1161706Y52540D01*
X1165038D01*
X1166704Y54206D01*
Y57538D01*
X1163372D01*
X1170037Y52540D02*
Y62537D01*
X1176701Y52540D01*
Y62537D01*
X1180034D02*
Y52540D01*
X1185032D01*
X1186698Y54206D01*
Y60871D01*
X1185032Y62537D01*
X1180034D01*
X966704Y20871D02*
X965038Y22537D01*
X961706D01*
X960040Y20871D01*
Y14206D01*
X961706Y12540D01*
X965038D01*
X966704Y14206D01*
Y17538D01*
X963372D01*
X970037Y12540D02*
Y22537D01*
X976701Y12540D01*
Y22537D01*
X980034D02*
Y12540D01*
X985032D01*
X986698Y14206D01*
Y20871D01*
X985032Y22537D01*
X980034D01*
X886704Y20871D02*
X885038Y22537D01*
X881706D01*
X880040Y20871D01*
Y14206D01*
X881706Y12540D01*
X885038D01*
X886704Y14206D01*
Y17538D01*
X883372D01*
X890037Y12540D02*
Y22537D01*
X896701Y12540D01*
Y22537D01*
X900034D02*
Y12540D01*
X905032D01*
X906698Y14206D01*
Y20871D01*
X905032Y22537D01*
X900034D01*
X493332Y53332D02*
X491666Y54998D01*
X488334D01*
X486668Y53332D01*
Y46668D01*
X488334Y45002D01*
X491666D01*
X493332Y46668D01*
X446668Y14998D02*
Y5002D01*
X451666D01*
X453332Y6668D01*
Y8334D01*
X451666Y10000D01*
X446668D01*
X451666D01*
X453332Y11666D01*
Y13332D01*
X451666Y14998D01*
X446668D01*
X413332Y54998D02*
X406668D01*
Y45002D01*
X413332D01*
X406668Y50000D02*
X410000D01*
X1012540Y415872D02*
X1019204D01*
X1015872Y419204D02*
Y412540D01*
X942540Y405872D02*
X949204D01*
X945872Y409204D02*
Y402540D01*
X1222540Y897538D02*
X1229204D01*
X1225872Y900871D02*
Y894206D01*
X1239201Y902537D02*
X1232537D01*
Y897538D01*
X1235869Y899204D01*
X1237535D01*
X1239201Y897538D01*
Y894206D01*
X1237535Y892540D01*
X1234203D01*
X1232537Y894206D01*
X1242534Y902537D02*
Y895872D01*
X1245866Y892540D01*
X1249198Y895872D01*
Y902537D01*
X822540Y597538D02*
X829204D01*
X825872Y600871D02*
Y594206D01*
X832537Y592540D02*
X835869D01*
X834203D01*
Y602537D01*
X832537Y600871D01*
X847532Y602537D02*
X840867D01*
Y597538D01*
X844200Y599204D01*
X845866D01*
X847532Y597538D01*
Y594206D01*
X845866Y592540D01*
X842534D01*
X840867Y594206D01*
X850864Y602537D02*
Y595872D01*
X854196Y592540D01*
X857529Y595872D01*
Y602537D01*
X1082540Y712540D02*
Y722537D01*
X1089204Y712540D01*
Y722537D01*
X732540Y922540D02*
Y932537D01*
X739204Y922540D01*
Y932537D01*
X1082540Y922537D02*
Y912540D01*
X1089204D01*
X852540Y932537D02*
Y922540D01*
X859204D01*
X592540Y932540D02*
X599204D01*
X472540Y935872D02*
X479204D01*
X475872Y939204D02*
Y932540D01*
X552540D02*
Y942537D01*
X559204Y932540D01*
Y942537D01*
X512540D02*
Y932540D01*
X519204D01*
X32540Y872540D02*
Y882537D01*
X39204Y872540D01*
Y882537D01*
X32540Y932537D02*
Y922540D01*
X39204D01*
X532540Y135872D02*
X539204D01*
X535872Y139205D02*
Y132540D01*
X1102540Y515872D02*
X1109204D01*
X1105872Y519204D02*
Y512540D01*
X842540Y475872D02*
X849204D01*
X845872Y479204D02*
Y472540D01*
X252540Y565872D02*
X259205D01*
X255872Y569204D02*
Y562540D01*
X582540Y435872D02*
X589204D01*
X585872Y439204D02*
Y432540D01*
X272540Y185872D02*
X279205D01*
X275872Y189205D02*
Y182540D01*
X792540Y24203D02*
Y14206D01*
X797538D01*
X799204Y15872D01*
Y22537D01*
X797538Y24203D01*
X792540D01*
X809201Y22537D02*
X807535Y24203D01*
X804203D01*
X802537Y22537D01*
Y15872D01*
X804203Y14206D01*
X807535D01*
X809201Y15872D01*
X812534Y12540D02*
X819198D01*
X822530Y24203D02*
Y14206D01*
X827529D01*
X829195Y15872D01*
Y17538D01*
X827529Y19204D01*
X822530D01*
X827529D01*
X829195Y20871D01*
Y22537D01*
X827529Y24203D01*
X822530D01*
X832527Y20871D02*
Y15872D01*
X834193Y14206D01*
X839192D01*
Y20871D01*
X842524Y14206D02*
X847522D01*
X849188Y15872D01*
X847522Y17538D01*
X844190D01*
X842524Y19204D01*
X844190Y20871D01*
X849188D01*
X1012540Y17538D02*
X1019204D01*
X1015872Y20871D02*
Y14206D01*
X1029201Y22537D02*
X1022537D01*
Y17538D01*
X1025869Y19204D01*
X1027535D01*
X1029201Y17538D01*
Y14206D01*
X1027535Y12540D01*
X1024203D01*
X1022537Y14206D01*
X1032534Y22537D02*
Y15872D01*
X1035866Y12540D01*
X1039198Y15872D01*
Y22537D01*
X1162540Y85872D02*
Y95869D01*
X1167538D01*
X1169204Y94203D01*
Y90871D01*
X1167538Y89205D01*
X1162540D01*
X1165872D02*
X1169204Y85872D01*
X1177535D02*
X1174203D01*
X1172537Y87538D01*
Y90871D01*
X1174203Y92537D01*
X1177535D01*
X1179201Y90871D01*
Y89205D01*
X1172537D01*
X1182534Y85872D02*
X1185866D01*
X1184200D01*
Y95869D01*
X1182534D01*
X1192530Y92537D02*
X1195863D01*
X1197529Y90871D01*
Y85872D01*
X1192530D01*
X1190864Y87538D01*
X1192530Y89205D01*
X1197529D01*
X1200861Y92537D02*
Y87538D01*
X1202527Y85872D01*
X1207525D01*
Y84206D01*
X1205859Y82540D01*
X1204193D01*
X1207525Y85872D02*
Y92537D01*
X1210858Y84206D02*
X1217522D01*
X1227519Y94203D02*
X1225853Y95869D01*
X1222521D01*
X1220854Y94203D01*
Y87538D01*
X1222521Y85872D01*
X1225853D01*
X1227519Y87538D01*
X1230851Y85872D02*
Y95869D01*
X1234184Y92537D01*
X1237516Y95869D01*
Y85872D01*
X1240848Y95869D02*
Y85872D01*
X1245846D01*
X1247513Y87538D01*
Y94203D01*
X1245846Y95869D01*
X1240848D01*
X1162540Y117538D02*
X1169204D01*
X1165872Y120871D02*
Y114206D01*
X1179201Y122537D02*
X1172537D01*
Y117538D01*
X1175869Y119205D01*
X1177535D01*
X1179201Y117538D01*
Y114206D01*
X1177535Y112540D01*
X1174203D01*
X1172537Y114206D01*
X1182534Y122537D02*
Y115872D01*
X1185866Y112540D01*
X1189198Y115872D01*
Y122537D01*
X1160000Y244998D02*
X1166665D01*
X1163332Y248331D02*
Y241666D01*
X1176661Y249997D02*
X1169997D01*
Y244998D01*
X1173329Y246665D01*
X1174995D01*
X1176661Y244998D01*
Y241666D01*
X1174995Y240000D01*
X1171663D01*
X1169997Y241666D01*
X1179994Y249997D02*
Y243332D01*
X1183326Y240000D01*
X1186658Y243332D01*
Y249997D01*
X1160000Y264998D02*
X1166665D01*
X1163332Y268331D02*
Y261666D01*
X1169997Y260000D02*
X1173329D01*
X1171663D01*
Y269997D01*
X1169997Y268331D01*
X1184992Y269997D02*
X1178327D01*
Y264998D01*
X1181660Y266665D01*
X1183326D01*
X1184992Y264998D01*
Y261666D01*
X1183326Y260000D01*
X1179994D01*
X1178327Y261666D01*
X1188324Y269997D02*
Y263332D01*
X1191656Y260000D01*
X1194989Y263332D01*
Y269997D01*
X972949Y114279D02*
X967870D01*
X970409D01*
Y101583D01*
X967870Y99044D01*
X965331D01*
X962792Y101583D01*
X988184Y114279D02*
X978027D01*
Y106662D01*
X983105Y109201D01*
X985645D01*
X988184Y106662D01*
Y101583D01*
X985645Y99044D01*
X980566D01*
X978027Y101583D01*
X1106045Y167365D02*
X1100966D01*
X1103505D01*
Y154669D01*
X1100966Y152130D01*
X1098427D01*
X1095888Y154669D01*
X1118741Y152130D02*
Y167365D01*
X1111123Y159747D01*
X1121280D01*
X815469Y142981D02*
X810390D01*
X812930D01*
Y130285D01*
X810390Y127746D01*
X807851D01*
X805312Y130285D01*
X820547Y140442D02*
X823086Y142981D01*
X828165D01*
X830704Y140442D01*
Y137903D01*
X828165Y135364D01*
X825625D01*
X828165D01*
X830704Y132824D01*
Y130285D01*
X828165Y127746D01*
X823086D01*
X820547Y130285D01*
X447931Y840466D02*
X445392Y843005D01*
X440313D01*
X437774Y840466D01*
Y830309D01*
X440313Y827770D01*
X445392D01*
X447931Y830309D01*
X460627Y827770D02*
Y843005D01*
X453009Y835387D01*
X463166D01*
X456824Y1011661D02*
Y996426D01*
X464441D01*
X466981Y998965D01*
Y1001504D01*
X464441Y1004044D01*
X456824D01*
X464441D01*
X466981Y1006583D01*
Y1009122D01*
X464441Y1011661D01*
X456824D01*
X472059Y996426D02*
Y1011661D01*
X479677D01*
X482216Y1009122D01*
Y1004044D01*
X479677Y1001504D01*
X472059D01*
X477137D02*
X482216Y996426D01*
X487294D02*
X492373D01*
X489833D01*
Y1011661D01*
X487294Y1009122D01*
X609478Y714481D02*
Y699246D01*
X617095D01*
X619635Y701785D01*
Y711942D01*
X617095Y714481D01*
X609478D01*
X634870Y711942D02*
X632331Y714481D01*
X627252D01*
X624713Y711942D01*
Y709403D01*
X627252Y706863D01*
X632331D01*
X634870Y704324D01*
Y701785D01*
X632331Y699246D01*
X627252D01*
X624713Y701785D01*
X639948Y699246D02*
X645026D01*
X642487D01*
Y714481D01*
X639948Y711942D01*
X1101219Y322305D02*
X1096140D01*
X1098680D01*
Y309609D01*
X1096140Y307070D01*
X1093601D01*
X1091062Y309609D01*
X1116454Y307070D02*
X1106297D01*
X1116454Y317227D01*
Y319766D01*
X1113915Y322305D01*
X1108836D01*
X1106297Y319766D01*
X322458Y993124D02*
Y1008359D01*
X330075D01*
X332615Y1005820D01*
Y1000742D01*
X330075Y998202D01*
X322458D01*
X327536D02*
X332615Y993124D01*
X337693Y1008359D02*
Y998202D01*
X342771Y993124D01*
X347850Y998202D01*
Y1008359D01*
X352928Y993124D02*
X358007D01*
X355467D01*
Y1008359D01*
X352928Y1005820D01*
X723304Y320382D02*
Y335617D01*
X730922D01*
X733461Y333078D01*
Y328000D01*
X730922Y325461D01*
X723304D01*
X728382D02*
X733461Y320382D01*
X748696Y335617D02*
X743617Y333078D01*
X738539Y328000D01*
Y322922D01*
X741078Y320382D01*
X746157D01*
X748696Y322922D01*
Y325461D01*
X746157Y328000D01*
X738539D01*
X506354Y81010D02*
Y96245D01*
X513971D01*
X516511Y93706D01*
Y88628D01*
X513971Y86088D01*
X506354D01*
X511432D02*
X516511Y81010D01*
X531746Y96245D02*
X521589D01*
Y88628D01*
X526667Y91167D01*
X529207D01*
X531746Y88628D01*
Y83549D01*
X529207Y81010D01*
X524128D01*
X521589Y83549D01*
X553344Y706612D02*
Y721847D01*
X560961D01*
X563501Y719308D01*
Y714230D01*
X560961Y711690D01*
X553344D01*
X558422D02*
X563501Y706612D01*
X576197D02*
Y721847D01*
X568579Y714230D01*
X578736D01*
X493400Y706612D02*
Y721847D01*
X501017D01*
X503557Y719308D01*
Y714230D01*
X501017Y711690D01*
X493400D01*
X498478D02*
X503557Y706612D01*
X508635Y719308D02*
X511174Y721847D01*
X516253D01*
X518792Y719308D01*
Y716769D01*
X516253Y714230D01*
X513713D01*
X516253D01*
X518792Y711690D01*
Y709151D01*
X516253Y706612D01*
X511174D01*
X508635Y709151D01*
X553344Y826500D02*
Y841735D01*
X560961D01*
X563501Y839196D01*
Y834118D01*
X560961Y831578D01*
X553344D01*
X558422D02*
X563501Y826500D01*
X578736D02*
X568579D01*
X578736Y836657D01*
Y839196D01*
X576197Y841735D01*
X571118D01*
X568579Y839196D01*
X493400Y826500D02*
Y841735D01*
X501017D01*
X503557Y839196D01*
Y834118D01*
X501017Y831578D01*
X493400D01*
X498478D02*
X503557Y826500D01*
X508635D02*
X513713D01*
X511174D01*
Y841735D01*
X508635Y839196D01*
X428119Y94725D02*
Y104882D01*
X425579Y107421D01*
X420501D01*
X417962Y104882D01*
Y94725D01*
X420501Y92186D01*
X425579D01*
X423040Y97264D02*
X428119Y92186D01*
X425579D02*
X428119Y94725D01*
X433197Y92186D02*
X438275D01*
X435736D01*
Y107421D01*
X433197Y104882D01*
X1009687Y992382D02*
Y1007617D01*
X1017304D01*
X1019843Y1005078D01*
Y1000000D01*
X1017304Y997461D01*
X1009687D01*
X1035078Y1005078D02*
X1032539Y1007617D01*
X1027461D01*
X1024922Y1005078D01*
Y1002539D01*
X1027461Y1000000D01*
X1032539D01*
X1035078Y997461D01*
Y994922D01*
X1032539Y992382D01*
X1027461D01*
X1024922Y994922D01*
X1050313Y992382D02*
X1040157D01*
X1050313Y1002539D01*
Y1005078D01*
X1047774Y1007617D01*
X1042696D01*
X1040157Y1005078D01*
X700664Y1018524D02*
Y1033759D01*
X708281D01*
X710821Y1031220D01*
Y1026142D01*
X708281Y1023602D01*
X700664D01*
X726056Y1031220D02*
X723517Y1033759D01*
X718438D01*
X715899Y1031220D01*
Y1028681D01*
X718438Y1026142D01*
X723517D01*
X726056Y1023602D01*
Y1021063D01*
X723517Y1018524D01*
X718438D01*
X715899Y1021063D01*
X731134Y1018524D02*
X736212D01*
X733673D01*
Y1033759D01*
X731134Y1031220D01*
X557916Y203179D02*
Y187944D01*
Y193022D01*
X568073Y203179D01*
X560455Y195562D01*
X568073Y187944D01*
X573151D02*
X578229D01*
X575690D01*
Y203179D01*
X573151Y200640D01*
X110000Y977617D02*
X104922D01*
X107461D01*
Y964922D01*
X104922Y962383D01*
X102382D01*
X99843Y964922D01*
X115078Y962383D02*
X120157D01*
X117618D01*
Y977617D01*
X115078Y975078D01*
X214759Y1000739D02*
X204602D01*
Y993121D01*
X209680D01*
X204602D01*
Y985504D01*
X219837D02*
X224915D01*
X222376D01*
Y1000739D01*
X219837Y998200D01*
X1026800Y478515D02*
Y463280D01*
X1034417D01*
X1036957Y465819D01*
Y475976D01*
X1034417Y478515D01*
X1026800D01*
X1042035Y475976D02*
X1044574Y478515D01*
X1049653D01*
X1052192Y475976D01*
Y473437D01*
X1049653Y470897D01*
X1047113D01*
X1049653D01*
X1052192Y468358D01*
Y465819D01*
X1049653Y463280D01*
X1044574D01*
X1042035Y465819D01*
X418470Y168889D02*
Y153654D01*
X426087D01*
X428627Y156193D01*
Y166350D01*
X426087Y168889D01*
X418470D01*
X443862Y153654D02*
X433705D01*
X443862Y163811D01*
Y166350D01*
X441323Y168889D01*
X436244D01*
X433705Y166350D01*
X900054Y496041D02*
Y480806D01*
X907672D01*
X910211Y483345D01*
Y493502D01*
X907672Y496041D01*
X900054D01*
X915289Y480806D02*
X920367D01*
X917828D01*
Y496041D01*
X915289Y493502D01*
X1036703Y576306D02*
X1034164Y578845D01*
X1029085D01*
X1026546Y576306D01*
Y566149D01*
X1029085Y563610D01*
X1034164D01*
X1036703Y566149D01*
X1041781Y576306D02*
X1044320Y578845D01*
X1049399D01*
X1051938Y576306D01*
Y573767D01*
X1049399Y571227D01*
X1051938Y568688D01*
Y566149D01*
X1049399Y563610D01*
X1044320D01*
X1041781Y566149D01*
Y568688D01*
X1044320Y571227D01*
X1041781Y573767D01*
Y576306D01*
X1044320Y571227D02*
X1049399D01*
X1032639Y634980D02*
X1030099Y637519D01*
X1025021D01*
X1022482Y634980D01*
Y624823D01*
X1025021Y622284D01*
X1030099D01*
X1032639Y624823D01*
X1037717Y637519D02*
X1047874D01*
Y634980D01*
X1037717Y624823D01*
Y622284D01*
X806579Y493756D02*
X804040Y496295D01*
X798961D01*
X796422Y493756D01*
Y483599D01*
X798961Y481060D01*
X804040D01*
X806579Y483599D01*
X821814Y496295D02*
X816735Y493756D01*
X811657Y488677D01*
Y483599D01*
X814196Y481060D01*
X819275D01*
X821814Y483599D01*
Y486138D01*
X819275Y488677D01*
X811657D01*
X747905Y497820D02*
X745366Y500359D01*
X740287D01*
X737748Y497820D01*
Y487663D01*
X740287Y485124D01*
X745366D01*
X747905Y487663D01*
X763140Y500359D02*
X752983D01*
Y492742D01*
X758061Y495281D01*
X760601D01*
X763140Y492742D01*
Y487663D01*
X760601Y485124D01*
X755522D01*
X752983Y487663D01*
X57461Y315078D02*
X54922Y317617D01*
X49843D01*
X47304Y315078D01*
Y304922D01*
X49843Y302383D01*
X54922D01*
X57461Y304922D01*
X62539Y315078D02*
X65078Y317617D01*
X70157D01*
X72696Y315078D01*
Y312539D01*
X70157Y310000D01*
X67618D01*
X70157D01*
X72696Y307461D01*
Y304922D01*
X70157Y302383D01*
X65078D01*
X62539Y304922D01*
X647461Y325078D02*
X644922Y327617D01*
X639843D01*
X637304Y325078D01*
Y314922D01*
X639843Y312383D01*
X644922D01*
X647461Y314922D01*
X662696Y312383D02*
X652539D01*
X662696Y322539D01*
Y325078D01*
X660157Y327617D01*
X655078D01*
X652539Y325078D01*
X70000Y725078D02*
X67461Y727617D01*
X62382D01*
X59843Y725078D01*
Y714922D01*
X62382Y712383D01*
X67461D01*
X70000Y714922D01*
X75078Y712383D02*
X80157D01*
X77618D01*
Y727617D01*
X75078Y725078D01*
D17*
X1236000Y479000D02*
X1255994D01*
Y469003D01*
X1252661Y465671D01*
X1245997D01*
X1242664Y469003D01*
Y479000D01*
X1236000Y455674D02*
Y449010D01*
X1239332Y445677D01*
X1245997D01*
X1249329Y449010D01*
Y455674D01*
X1245997Y459006D01*
X1239332D01*
X1236000Y455674D01*
X1249329Y439013D02*
X1239332D01*
X1236000Y435681D01*
X1239332Y432348D01*
X1236000Y429016D01*
X1239332Y425684D01*
X1249329D01*
X1236000Y409022D02*
Y415687D01*
X1239332Y419019D01*
X1245997D01*
X1249329Y415687D01*
Y409022D01*
X1245997Y405690D01*
X1242664D01*
Y419019D01*
X1249329Y399026D02*
X1236000D01*
X1242664D01*
X1245997Y395694D01*
X1249329Y392361D01*
Y389029D01*
M02*
