G04*
G04 #@! TF.GenerationSoftware,Altium Limited,Altium Designer,23.4.1 (23)*
G04*
G04 Layer_Color=128*
%FSLAX44Y44*%
%MOMM*%
G71*
G04*
G04 #@! TF.SameCoordinates,D707CC84-C655-447D-9D72-A261F95A4AE0*
G04*
G04*
G04 #@! TF.FilePolarity,Positive*
G04*
G01*
G75*
%ADD15C,0.1270*%
D15*
X677750Y258000D02*
X688250D01*
X683000Y252750D02*
Y263250D01*
X963750Y258000D02*
X974250D01*
X969000Y252750D02*
Y263250D01*
X745750Y462900D02*
X754250D01*
X750000Y458650D02*
Y467150D01*
X745750Y412100D02*
X754250D01*
X750000Y407850D02*
Y416350D01*
X159500Y220000D02*
X180500D01*
X170000Y209500D02*
Y230500D01*
X259500Y220000D02*
X280500D01*
X270000Y209500D02*
Y230500D01*
X15000Y1010000D02*
X45000D01*
X30000Y995000D02*
Y1025000D01*
X15000Y30000D02*
X45000D01*
X30000Y15000D02*
Y45000D01*
X1265000Y30000D02*
X1295000D01*
X1280000Y15000D02*
Y45000D01*
X1265000Y1010000D02*
X1295000D01*
X1280000Y995000D02*
Y1025000D01*
X1045000Y920000D02*
X1055000D01*
X1050000Y915000D02*
Y925000D01*
X1045000Y720000D02*
X1055000D01*
X1050000Y715000D02*
Y725000D01*
X1245000Y770000D02*
X1255000D01*
X1250000Y765000D02*
Y775000D01*
X1245000Y870000D02*
X1255000D01*
X1250000Y865000D02*
Y875000D01*
X1044000Y520000D02*
X1051000D01*
X1047500Y516500D02*
Y523500D01*
X1069000Y520000D02*
X1076000D01*
X1072500Y516500D02*
Y523500D01*
X1030350Y600000D02*
X1038850D01*
X1034600Y595750D02*
Y604250D01*
X1081150Y600000D02*
X1089650D01*
X1085400Y595750D02*
Y604250D01*
X249500Y600000D02*
X270500D01*
X260000Y589500D02*
Y610500D01*
X149500Y600000D02*
X170500D01*
X160000Y589500D02*
Y610500D01*
X474450Y970000D02*
X485550D01*
X480000Y964450D02*
Y975550D01*
X512550Y970000D02*
X523650D01*
X518100Y964450D02*
Y975550D01*
X550650Y970000D02*
X561750D01*
X556200Y964450D02*
Y975550D01*
X588750Y970000D02*
X599850D01*
X594300Y964450D02*
Y975550D01*
X445750Y754600D02*
X454250D01*
X450000Y750350D02*
Y758850D01*
X445750Y805400D02*
X454250D01*
X450000Y801150D02*
Y809650D01*
X829500Y70000D02*
X840500D01*
X835000Y64500D02*
Y75500D01*
X879500Y70000D02*
X890500D01*
X885000Y64500D02*
Y75500D01*
X1125000Y60000D02*
X1135000D01*
X1130000Y55000D02*
Y65000D01*
X1125000Y85000D02*
X1135000D01*
X1130000Y80000D02*
Y90000D01*
X1125000Y110000D02*
X1135000D01*
X1130000Y105000D02*
Y115000D01*
X982250Y54750D02*
X992750D01*
X987500Y49500D02*
Y60000D01*
X1007250Y54750D02*
X1017750D01*
X1012500Y49500D02*
Y60000D01*
X1120250Y215000D02*
X1130250D01*
X1125250Y210000D02*
Y220000D01*
X1120250Y240000D02*
X1130250D01*
X1125250Y235000D02*
Y245000D01*
X1120250Y265000D02*
X1130250D01*
X1125250Y260000D02*
Y270000D01*
X539500Y430000D02*
X560500D01*
X550000Y419500D02*
Y440500D01*
X439500Y430000D02*
X460500D01*
X450000Y419500D02*
Y440500D01*
X635002Y637298D02*
X645002D01*
X640002Y632298D02*
Y642298D01*
X635002Y662698D02*
X645002D01*
X640002Y657698D02*
Y667698D01*
X104500Y875000D02*
X115500D01*
X110000Y869500D02*
Y880500D01*
X104500Y925000D02*
X115500D01*
X110000Y919500D02*
Y930500D01*
X822500Y570000D02*
X837500D01*
X830000Y562500D02*
Y577500D01*
X742500Y570000D02*
X757500D01*
X750000Y562500D02*
Y577500D01*
X742500Y955000D02*
X757500D01*
X750000Y947500D02*
Y962500D01*
X850000Y955000D02*
X865000D01*
X857500Y947500D02*
Y962500D01*
X355000Y950000D02*
X365000D01*
X360000Y945000D02*
Y955000D01*
X355000Y875000D02*
X365000D01*
X360000Y870000D02*
Y880000D01*
X826500Y450000D02*
X833500D01*
X830000Y446500D02*
Y453500D01*
X826500Y425000D02*
X833500D01*
X830000Y421500D02*
Y428500D01*
X592400Y160000D02*
X605600D01*
X599000Y153400D02*
Y166600D01*
X572550Y100000D02*
X585450D01*
X579000Y93550D02*
Y106450D01*
X592400Y40000D02*
X605600D01*
X599000Y33400D02*
Y46600D01*
X714400Y40000D02*
X727600D01*
X721000Y33400D02*
Y46600D01*
X714400Y160000D02*
X727600D01*
X721000Y153400D02*
Y166600D01*
X509400Y130000D02*
X519400D01*
X514400Y125000D02*
Y135000D01*
X420600Y130000D02*
X430600D01*
X425600Y125000D02*
Y135000D01*
X431150Y50000D02*
X439150D01*
X435150Y46000D02*
Y54000D01*
X446000Y37300D02*
X454000D01*
X450000Y33300D02*
Y41300D01*
X460850Y50000D02*
X468850D01*
X464850Y46000D02*
Y54000D01*
X968500Y457500D02*
X971500D01*
X970000Y456000D02*
Y459000D01*
X329350Y55000D02*
X340650D01*
X335000Y49350D02*
Y60650D01*
M02*
