G04*
G04 #@! TF.GenerationSoftware,Altium Limited,Altium Designer,23.4.1 (23)*
G04*
G04 Layer_Color=16711935*
%FSLAX44Y44*%
%MOMM*%
G71*
G04*
G04 #@! TF.SameCoordinates,D707CC84-C655-447D-9D72-A261F95A4AE0*
G04*
G04*
G04 #@! TF.FilePolarity,Positive*
G04*
G01*
G75*
%ADD10C,0.2000*%
%ADD11C,0.1000*%
%ADD12C,0.1500*%
%ADD15C,0.1270*%
D10*
X1131000Y142500D02*
G03*
X1131000Y142500I-1000J0D01*
G01*
X1045400Y54750D02*
G03*
X1045400Y54750I-1000J0D01*
G01*
X1126250Y297500D02*
G03*
X1126250Y297500I-1000J0D01*
G01*
X737300Y399400D02*
X762700D01*
Y475600D01*
X737300D02*
X762700D01*
X737300Y399400D02*
Y475600D01*
X1021900Y612700D02*
X1098100D01*
Y587300D02*
Y612700D01*
X1021900Y587300D02*
X1098100D01*
X1021900D02*
Y612700D01*
X437300Y818100D02*
X462700D01*
X437300Y741900D02*
Y818100D01*
Y741900D02*
X462700D01*
Y818100D01*
X444000Y116000D02*
Y144000D01*
Y116000D02*
X496000D01*
Y144000D01*
X444000D02*
X496000D01*
D11*
X372500Y220000D02*
G03*
X372500Y220000I-152500J0D01*
G01*
X362500Y600000D02*
G03*
X362500Y600000I-152500J0D01*
G01*
X652500Y430000D02*
G03*
X652500Y430000I-152500J0D01*
G01*
X474850Y50000D02*
G03*
X474850Y50000I-24850J0D01*
G01*
X425649Y66114D02*
G03*
X433927Y74378I24351J-16114D01*
G01*
X1014500Y980500D02*
X1285500D01*
Y659500D02*
Y980500D01*
X1014500Y659500D02*
X1285500D01*
X1014500D02*
Y980500D01*
X1076250Y408420D02*
X1087000Y419180D01*
Y408420D02*
Y451580D01*
X1033000D02*
X1087000D01*
X1033000Y408420D02*
Y451580D01*
Y408420D02*
X1087000D01*
X464900Y946500D02*
X609400D01*
Y977500D01*
X464900D02*
X609400D01*
X464900Y946500D02*
Y977500D01*
X810000Y111000D02*
X910000D01*
Y29000D02*
Y111000D01*
X810000Y29000D02*
X910000D01*
X810000D02*
Y111000D01*
X532500Y34000D02*
Y66000D01*
X507500Y34000D02*
X532500D01*
X507500D02*
Y66000D01*
X532500D01*
X69000Y950000D02*
X151000D01*
X69000Y850000D02*
Y950000D01*
Y850000D02*
X151000D01*
Y950000D01*
X708500Y1000500D02*
X976500D01*
Y524500D02*
Y1000500D01*
X708500Y524500D02*
X976500D01*
X708500D02*
Y1000500D01*
X554500Y628500D02*
Y691500D01*
X585500D01*
Y628500D02*
Y691500D01*
X554500Y628500D02*
X585500D01*
X525500Y628500D02*
Y691500D01*
X494500Y628500D02*
X525500D01*
X494500D02*
Y691500D01*
X525500D01*
X585500Y748500D02*
Y811500D01*
X554500Y748500D02*
X585500D01*
X554500D02*
Y811500D01*
X585500D01*
X494500Y748500D02*
Y811500D01*
X525500D01*
Y748500D02*
Y811500D01*
X494500Y748500D02*
X525500D01*
X209500Y937300D02*
Y962700D01*
Y937300D02*
X270500D01*
Y962700D01*
X209500D02*
X270500D01*
X330500Y850000D02*
X389500D01*
Y975000D01*
X330500D02*
X389500D01*
X330500Y850000D02*
Y975000D01*
X938100Y410500D02*
Y464500D01*
X901900Y410500D02*
X938100D01*
X901900D02*
Y464500D01*
X938100D01*
X927350D02*
X938100Y453750D01*
X417098Y74661D02*
X425654Y66105D01*
X417098Y74661D02*
X425371Y82935D01*
X433927Y74378D01*
D12*
X1094000Y520000D02*
G03*
X1094000Y520000I-34000J0D01*
G01*
X864000Y437500D02*
G03*
X864000Y437500I-34000J0D01*
G01*
D15*
X683000Y258000D02*
X716000D01*
X936000D02*
X969000D01*
X936000Y210500D02*
Y258000D01*
Y305500D01*
X716000D02*
X936000D01*
X716000Y258000D02*
Y305500D01*
Y210500D02*
Y258000D01*
Y210500D02*
X936000D01*
X1096000Y35500D02*
Y134500D01*
X1153500D01*
Y35500D02*
Y134500D01*
X1096000Y35500D02*
X1153500D01*
X1037000Y31250D02*
Y88750D01*
X963000Y31250D02*
X1037000D01*
X963000D02*
Y88750D01*
X1037000D01*
X1091250Y190500D02*
Y289500D01*
X1148750D01*
Y190500D02*
Y289500D01*
X1091250Y190500D02*
X1148750D01*
X564500Y22500D02*
Y177500D01*
X755500D01*
Y22500D02*
Y177500D01*
X564500Y22500D02*
X755500D01*
M02*
