G04*
G04 #@! TF.GenerationSoftware,Altium Limited,Altium Designer,23.4.1 (23)*
G04*
G04 Layer_Color=16711935*
%FSLAX44Y44*%
%MOMM*%
G71*
G04*
G04 #@! TF.SameCoordinates,23056885-4623-4C4A-AB4B-1A291C1D203A*
G04*
G04*
G04 #@! TF.FilePolarity,Positive*
G04*
G01*
G75*
%ADD10C,0.2000*%
G36*
X114525Y441733D02*
X114515D01*
X114497D01*
X114460D01*
X114404Y441724D01*
X114349Y441714D01*
X114284D01*
X114127Y441687D01*
X113961Y441659D01*
X113794Y441603D01*
X113646Y441548D01*
X113582Y441511D01*
X113526Y441465D01*
X113517Y441455D01*
X113489Y441418D01*
X113443Y441363D01*
X113397Y441289D01*
X113341Y441187D01*
X113304Y441076D01*
X113267Y440938D01*
X113258Y440790D01*
Y440734D01*
X113267Y440679D01*
X113277Y440596D01*
X113295Y440512D01*
X113313Y440420D01*
X113350Y440327D01*
X113397Y440235D01*
X113406Y440226D01*
X113424Y440198D01*
X113461Y440161D01*
X113498Y440106D01*
X113563Y440059D01*
X113628Y440004D01*
X113702Y439958D01*
X113794Y439921D01*
X113804D01*
X113840Y439902D01*
X113905Y439893D01*
X113988Y439874D01*
X114099Y439856D01*
X114238Y439847D01*
X114404Y439828D01*
X114599D01*
X119009D01*
Y438978D01*
X114645D01*
X114636D01*
X114608D01*
X114571D01*
X114515D01*
X114441Y438987D01*
X114367D01*
X114192Y439005D01*
X113988Y439024D01*
X113776Y439061D01*
X113582Y439116D01*
X113397Y439181D01*
X113387D01*
X113378Y439190D01*
X113323Y439218D01*
X113249Y439264D01*
X113147Y439329D01*
X113045Y439421D01*
X112934Y439523D01*
X112823Y439652D01*
X112731Y439800D01*
X112722Y439819D01*
X112694Y439874D01*
X112657Y439958D01*
X112620Y440078D01*
X112574Y440226D01*
X112537Y440392D01*
X112509Y440577D01*
X112500Y440780D01*
Y440864D01*
X112509Y440919D01*
X112518Y440993D01*
X112528Y441067D01*
X112564Y441261D01*
X112620Y441465D01*
X112703Y441677D01*
X112759Y441788D01*
X112823Y441890D01*
X112897Y441982D01*
X112981Y442075D01*
X112990Y442084D01*
X112999Y442093D01*
X113036Y442112D01*
X113073Y442140D01*
X113119Y442177D01*
X113184Y442214D01*
X113258Y442251D01*
X113341Y442297D01*
X113434Y442334D01*
X113545Y442371D01*
X113656Y442408D01*
X113785Y442445D01*
X113924Y442463D01*
X114081Y442491D01*
X114238Y442500D01*
X114414D01*
X114525Y441733D01*
D02*
G37*
G36*
X114404Y437119D02*
X114395D01*
X114377Y437110D01*
X114340Y437101D01*
X114293Y437091D01*
X114238Y437082D01*
X114173Y437064D01*
X114035Y437018D01*
X113868Y436953D01*
X113711Y436870D01*
X113563Y436777D01*
X113434Y436666D01*
X113424Y436648D01*
X113387Y436611D01*
X113341Y436537D01*
X113295Y436444D01*
X113239Y436333D01*
X113193Y436195D01*
X113156Y436037D01*
X113147Y435871D01*
Y435816D01*
X113156Y435779D01*
X113166Y435677D01*
X113193Y435547D01*
X113239Y435400D01*
X113304Y435242D01*
X113397Y435085D01*
X113526Y434937D01*
X113545Y434919D01*
X113600Y434873D01*
X113683Y434817D01*
X113794Y434743D01*
X113933Y434669D01*
X114090Y434614D01*
X114275Y434567D01*
X114478Y434549D01*
X114488D01*
X114506D01*
X114534D01*
X114571Y434558D01*
X114672Y434567D01*
X114793Y434595D01*
X114941Y434632D01*
X115089Y434697D01*
X115237Y434789D01*
X115375Y434910D01*
X115394Y434928D01*
X115431Y434974D01*
X115486Y435048D01*
X115551Y435150D01*
X115616Y435279D01*
X115671Y435437D01*
X115708Y435612D01*
X115726Y435806D01*
Y435890D01*
X115717Y435954D01*
X115708Y436037D01*
X115690Y436130D01*
X115671Y436241D01*
X115643Y436361D01*
X116337Y436269D01*
Y436222D01*
X116327Y436185D01*
Y436065D01*
X116346Y435964D01*
X116364Y435843D01*
X116392Y435705D01*
X116439Y435547D01*
X116503Y435400D01*
X116586Y435242D01*
Y435233D01*
X116596Y435224D01*
X116633Y435178D01*
X116697Y435113D01*
X116781Y435039D01*
X116901Y434965D01*
X117039Y434900D01*
X117197Y434854D01*
X117289Y434836D01*
X117391D01*
X117400D01*
X117409D01*
X117465D01*
X117539Y434854D01*
X117640Y434873D01*
X117751Y434910D01*
X117872Y434956D01*
X117992Y435030D01*
X118103Y435131D01*
X118112Y435141D01*
X118149Y435187D01*
X118195Y435252D01*
X118251Y435335D01*
X118297Y435446D01*
X118343Y435575D01*
X118380Y435723D01*
X118389Y435890D01*
Y435964D01*
X118371Y436047D01*
X118352Y436158D01*
X118315Y436278D01*
X118269Y436398D01*
X118195Y436527D01*
X118103Y436648D01*
X118093Y436657D01*
X118047Y436694D01*
X117983Y436749D01*
X117890Y436814D01*
X117770Y436879D01*
X117622Y436944D01*
X117446Y436999D01*
X117243Y437036D01*
X117381Y437822D01*
X117391D01*
X117418Y437813D01*
X117456Y437803D01*
X117511Y437794D01*
X117576Y437776D01*
X117650Y437748D01*
X117825Y437692D01*
X118029Y437600D01*
X118232Y437489D01*
X118426Y437350D01*
X118602Y437175D01*
X118611Y437165D01*
X118620Y437147D01*
X118639Y437119D01*
X118667Y437082D01*
X118704Y437036D01*
X118741Y436971D01*
X118778Y436907D01*
X118824Y436823D01*
X118898Y436638D01*
X118972Y436426D01*
X119018Y436176D01*
X119037Y436047D01*
Y435816D01*
X119027Y435714D01*
X119009Y435594D01*
X118981Y435446D01*
X118935Y435279D01*
X118879Y435113D01*
X118805Y434947D01*
Y434937D01*
X118796Y434928D01*
X118768Y434873D01*
X118713Y434789D01*
X118648Y434697D01*
X118556Y434586D01*
X118454Y434475D01*
X118334Y434364D01*
X118195Y434272D01*
X118177Y434262D01*
X118130Y434235D01*
X118047Y434198D01*
X117945Y434151D01*
X117825Y434105D01*
X117687Y434068D01*
X117529Y434040D01*
X117372Y434031D01*
X117354D01*
X117298D01*
X117224Y434040D01*
X117123Y434059D01*
X117002Y434087D01*
X116873Y434133D01*
X116744Y434188D01*
X116614Y434262D01*
X116596Y434272D01*
X116559Y434299D01*
X116494Y434355D01*
X116420Y434429D01*
X116337Y434521D01*
X116244Y434632D01*
X116161Y434762D01*
X116078Y434919D01*
Y434910D01*
X116069Y434891D01*
X116059Y434863D01*
X116050Y434826D01*
X116013Y434725D01*
X115958Y434595D01*
X115884Y434447D01*
X115791Y434299D01*
X115671Y434161D01*
X115532Y434031D01*
X115514Y434022D01*
X115458Y433985D01*
X115366Y433929D01*
X115246Y433874D01*
X115098Y433819D01*
X114922Y433763D01*
X114719Y433726D01*
X114497Y433717D01*
X114488D01*
X114460D01*
X114414D01*
X114358Y433726D01*
X114284Y433735D01*
X114201Y433754D01*
X114109Y433772D01*
X114007Y433791D01*
X113785Y433865D01*
X113665Y433920D01*
X113554Y433976D01*
X113434Y434050D01*
X113313Y434133D01*
X113193Y434225D01*
X113082Y434336D01*
X113073Y434346D01*
X113055Y434364D01*
X113027Y434401D01*
X112990Y434447D01*
X112944Y434503D01*
X112897Y434577D01*
X112842Y434660D01*
X112796Y434762D01*
X112740Y434863D01*
X112685Y434983D01*
X112639Y435104D01*
X112592Y435242D01*
X112555Y435390D01*
X112528Y435547D01*
X112509Y435705D01*
X112500Y435880D01*
Y435964D01*
X112509Y436019D01*
X112518Y436093D01*
X112528Y436176D01*
X112546Y436269D01*
X112564Y436370D01*
X112620Y436592D01*
X112712Y436823D01*
X112768Y436944D01*
X112833Y437054D01*
X112916Y437165D01*
X112999Y437276D01*
X113008Y437286D01*
X113027Y437304D01*
X113055Y437332D01*
X113091Y437360D01*
X113138Y437406D01*
X113202Y437452D01*
X113267Y437508D01*
X113350Y437563D01*
X113443Y437618D01*
X113535Y437674D01*
X113757Y437776D01*
X114016Y437859D01*
X114155Y437887D01*
X114303Y437905D01*
X114404Y437119D01*
D02*
G37*
D10*
X92500Y531000D02*
X132500D01*
X92500Y353999D02*
Y531000D01*
Y353999D02*
X132500D01*
Y531000D01*
M02*
