G04*
G04 #@! TF.GenerationSoftware,Altium Limited,Altium Designer,23.4.1 (23)*
G04*
G04 Layer_Color=255*
%FSLAX44Y44*%
%MOMM*%
G71*
G04*
G04 #@! TF.SameCoordinates,23056885-4623-4C4A-AB4B-1A291C1D203A*
G04*
G04*
G04 #@! TF.FilePolarity,Positive*
G04*
G01*
G75*
%ADD17R,2.7200X1.3500*%
%ADD18R,0.8000X1.3000*%
%ADD19R,1.2500X2.7000*%
%ADD20R,1.1500X2.7000*%
%ADD21R,2.8000X2.1500*%
%ADD22R,3.4500X1.6500*%
%ADD23R,2.7000X1.1000*%
%ADD24R,1.2500X2.3000*%
%ADD25R,1.3500X2.7200*%
%ADD47C,1.4000*%
%ADD48R,1.4000X1.4000*%
%ADD53C,1.6950*%
%ADD54C,1.9500*%
G04:AMPARAMS|DCode=55|XSize=1.95mm|YSize=1.95mm|CornerRadius=0.4875mm|HoleSize=0mm|Usage=FLASHONLY|Rotation=180.000|XOffset=0mm|YOffset=0mm|HoleType=Round|Shape=RoundedRectangle|*
%AMROUNDEDRECTD55*
21,1,1.9500,0.9750,0,0,180.0*
21,1,0.9750,1.9500,0,0,180.0*
1,1,0.9750,-0.4875,0.4875*
1,1,0.9750,0.4875,0.4875*
1,1,0.9750,0.4875,-0.4875*
1,1,0.9750,-0.4875,-0.4875*
%
%ADD55ROUNDEDRECTD55*%
%ADD56C,1.6000*%
%ADD57R,1.6000X1.6000*%
%ADD58C,3.5000*%
%ADD59C,1.5750*%
%ADD60R,1.5750X1.5750*%
%ADD61R,1.3000X1.3000*%
%ADD62C,1.3000*%
%ADD63C,1.5080*%
%ADD64R,1.5080X1.5080*%
D17*
X750000Y357100D02*
D03*
Y382900D02*
D03*
X170000Y138300D02*
D03*
Y112500D02*
D03*
X752500Y297900D02*
D03*
Y272100D02*
D03*
X747500Y472900D02*
D03*
Y447100D02*
D03*
D18*
X822500Y387000D02*
D03*
Y353000D02*
D03*
X827500Y268000D02*
D03*
Y302000D02*
D03*
X820000Y443000D02*
D03*
Y477000D02*
D03*
D19*
X306750Y192500D02*
D03*
X278250D02*
D03*
X361000D02*
D03*
X332500D02*
D03*
X278250Y132500D02*
D03*
X306750D02*
D03*
X163250Y467500D02*
D03*
X191750D02*
D03*
X163250Y577500D02*
D03*
X191750D02*
D03*
Y307500D02*
D03*
X163250D02*
D03*
X191750Y362500D02*
D03*
X163250D02*
D03*
X213250Y77500D02*
D03*
X241750D02*
D03*
X330750Y77500D02*
D03*
X359250D02*
D03*
X192500Y415000D02*
D03*
X164000D02*
D03*
X191750Y522500D02*
D03*
X163250D02*
D03*
D20*
X250000Y577500D02*
D03*
X220000D02*
D03*
X250000Y467500D02*
D03*
X220000D02*
D03*
Y307500D02*
D03*
X250000D02*
D03*
X220000Y362500D02*
D03*
X250000D02*
D03*
X220000Y415000D02*
D03*
X250000D02*
D03*
X242500Y132500D02*
D03*
X212500D02*
D03*
X220000Y522500D02*
D03*
X250000D02*
D03*
D21*
X807500Y545450D02*
D03*
Y594550D02*
D03*
X742500Y542950D02*
D03*
Y592050D02*
D03*
X675000Y545450D02*
D03*
Y594550D02*
D03*
D22*
X422500Y196000D02*
D03*
Y139000D02*
D03*
X475000Y196000D02*
D03*
Y139000D02*
D03*
X527500Y196000D02*
D03*
Y139000D02*
D03*
D23*
X170000Y177500D02*
D03*
Y207500D02*
D03*
D24*
X212750Y192500D02*
D03*
X247250D02*
D03*
D25*
X277100Y77500D02*
D03*
X302900D02*
D03*
D47*
X115500Y379999D02*
D03*
Y405000D02*
D03*
Y430000D02*
D03*
Y454999D02*
D03*
Y480000D02*
D03*
D48*
Y504999D02*
D03*
D53*
X524500Y582500D02*
D03*
X549900Y557499D02*
D03*
X524500Y532500D02*
D03*
Y482500D02*
D03*
X549900Y457500D02*
D03*
X524500Y407500D02*
D03*
X549900Y382500D02*
D03*
X524500Y357500D02*
D03*
X549900Y332500D02*
D03*
X524500Y307499D02*
D03*
X335100Y310000D02*
D03*
X360500Y328000D02*
D03*
X335100Y346000D02*
D03*
X360500Y364000D02*
D03*
X335100Y382000D02*
D03*
X360500Y400000D02*
D03*
X335100Y418000D02*
D03*
X360500Y436000D02*
D03*
X335100Y453999D02*
D03*
X360500Y472000D02*
D03*
X335100Y490000D02*
D03*
X360500Y508000D02*
D03*
X335100Y526000D02*
D03*
X360500Y544000D02*
D03*
X335100Y562000D02*
D03*
X360500Y580000D02*
D03*
D54*
X682503Y695000D02*
D03*
X732503D02*
D03*
D55*
X782502D02*
D03*
D56*
X142500Y695000D02*
D03*
D57*
X192500D02*
D03*
D58*
X30000Y740000D02*
D03*
Y30000D02*
D03*
X870000D02*
D03*
Y740000D02*
D03*
D59*
X95000Y155000D02*
D03*
D60*
Y130000D02*
D03*
D61*
X667500Y362500D02*
D03*
Y450000D02*
D03*
X670000Y277500D02*
D03*
D62*
X667500Y382500D02*
D03*
Y470000D02*
D03*
X670000Y297500D02*
D03*
D63*
X94750Y300000D02*
D03*
Y275000D02*
D03*
D64*
Y250000D02*
D03*
M02*
