G04*
G04 #@! TF.GenerationSoftware,Altium Limited,Altium Designer,23.4.1 (23)*
G04*
G04 Layer_Color=128*
%FSLAX44Y44*%
%MOMM*%
G71*
G04*
G04 #@! TF.SameCoordinates,23056885-4623-4C4A-AB4B-1A291C1D203A*
G04*
G04*
G04 #@! TF.FilePolarity,Positive*
G04*
G01*
G75*
%ADD13C,0.1270*%
D13*
X518850Y582500D02*
X530150D01*
X524500Y576850D02*
Y588150D01*
X544250Y557499D02*
X555550D01*
X549900Y551849D02*
Y563149D01*
X518850Y532500D02*
X530150D01*
X524500Y526850D02*
Y538150D01*
X518850Y482500D02*
X530150D01*
X524500Y476850D02*
Y488150D01*
X544250Y457500D02*
X555550D01*
X549900Y451850D02*
Y463150D01*
X518850Y407500D02*
X530150D01*
X524500Y401850D02*
Y413150D01*
X544250Y382500D02*
X555550D01*
X549900Y376850D02*
Y388149D01*
X518850Y357500D02*
X530150D01*
X524500Y351850D02*
Y363150D01*
X544250Y332500D02*
X555550D01*
X549900Y326850D02*
Y338150D01*
X518850Y307499D02*
X530150D01*
X524500Y301849D02*
Y313149D01*
X329450Y310000D02*
X340750D01*
X335100Y304350D02*
Y315650D01*
X354850Y328000D02*
X366150D01*
X360500Y322350D02*
Y333650D01*
X329450Y346000D02*
X340750D01*
X335100Y340350D02*
Y351650D01*
X354850Y364000D02*
X366150D01*
X360500Y358350D02*
Y369650D01*
X329450Y382000D02*
X340750D01*
X335100Y376350D02*
Y387650D01*
X354850Y400000D02*
X366150D01*
X360500Y394350D02*
Y405650D01*
X329450Y418000D02*
X340750D01*
X335100Y412350D02*
Y423650D01*
X354850Y436000D02*
X366150D01*
X360500Y430350D02*
Y441650D01*
X329450Y453999D02*
X340750D01*
X335100Y448349D02*
Y459650D01*
X354850Y472000D02*
X366150D01*
X360500Y466349D02*
Y477649D01*
X329450Y490000D02*
X340750D01*
X335100Y484350D02*
Y495649D01*
X354850Y508000D02*
X366150D01*
X360500Y502350D02*
Y513650D01*
X329450Y526000D02*
X340750D01*
X335100Y520350D02*
Y531650D01*
X354850Y544000D02*
X366150D01*
X360500Y538350D02*
Y549650D01*
X329450Y562000D02*
X340750D01*
X335100Y556350D02*
Y567650D01*
X354850Y580000D02*
X366150D01*
X360500Y574350D02*
Y585650D01*
X676003Y695000D02*
X689003D01*
X682503Y688500D02*
Y701500D01*
X776002Y695000D02*
X789002D01*
X782502Y688500D02*
Y701500D01*
X726003Y695000D02*
X739003D01*
X732503Y688500D02*
Y701500D01*
X137001Y695000D02*
X148000D01*
X142500Y689500D02*
Y700500D01*
X187000Y695000D02*
X198000D01*
X192500Y689500D02*
Y700500D01*
X15000Y740000D02*
X45000D01*
X30000Y725000D02*
Y755000D01*
X15000Y30000D02*
X45000D01*
X30000Y15000D02*
Y45000D01*
X855000Y30000D02*
X885000D01*
X870000Y15000D02*
Y45000D01*
X855000Y740000D02*
X885000D01*
X870000Y725000D02*
Y755000D01*
X89750Y155000D02*
X100250D01*
X95000Y149750D02*
Y160250D01*
X89750Y130000D02*
X100250D01*
X95000Y124750D02*
Y135250D01*
X663500Y362500D02*
X671500D01*
X667500Y358500D02*
Y366500D01*
X663500Y382500D02*
X671500D01*
X667500Y378500D02*
Y386500D01*
X663500Y450000D02*
X671500D01*
X667500Y446000D02*
Y454000D01*
X663500Y470000D02*
X671500D01*
X667500Y466000D02*
Y474000D01*
X666000Y277500D02*
X674000D01*
X670000Y273500D02*
Y281500D01*
X666000Y297500D02*
X674000D01*
X670000Y293500D02*
Y301500D01*
X89750Y300000D02*
X99750D01*
X94750Y295000D02*
Y305000D01*
X89750Y275000D02*
X99750D01*
X94750Y270000D02*
Y280000D01*
X89750Y250000D02*
X99750D01*
X94750Y245000D02*
Y255000D01*
X111000Y379999D02*
X120000D01*
X115500Y375499D02*
Y384499D01*
X111000Y405000D02*
X120000D01*
X115500Y400499D02*
Y409500D01*
X111000Y430000D02*
X120000D01*
X115500Y425500D02*
Y434500D01*
X111000Y454999D02*
X120000D01*
X115500Y450499D02*
Y459499D01*
X111000Y480000D02*
X120000D01*
X115500Y475500D02*
Y484500D01*
X111000Y504999D02*
X120000D01*
X115500Y500499D02*
Y509499D01*
X466444Y342500D02*
X473556D01*
X470000Y338944D02*
Y346056D01*
X386444Y320000D02*
X393556D01*
X390000Y316444D02*
Y323556D01*
X386444Y305000D02*
X393556D01*
X390000Y301444D02*
Y308556D01*
X386444Y290000D02*
X393556D01*
X390000Y286444D02*
Y293556D01*
X386444Y335000D02*
X393556D01*
X390000Y331444D02*
Y338556D01*
X386444Y425000D02*
X393556D01*
X390000Y421444D02*
Y428556D01*
X386444Y410000D02*
X393556D01*
X390000Y406444D02*
Y413556D01*
X386444Y395000D02*
X393556D01*
X390000Y391444D02*
Y398556D01*
X386444Y350000D02*
X393556D01*
X390000Y346444D02*
Y353556D01*
X386444Y365000D02*
X393556D01*
X390000Y361444D02*
Y368556D01*
X386444Y380000D02*
X393556D01*
X390000Y376444D02*
Y383556D01*
X386444Y470000D02*
X393556D01*
X390000Y466444D02*
Y473556D01*
X386444Y455000D02*
X393556D01*
X390000Y451444D02*
Y458556D01*
X386444Y440000D02*
X393556D01*
X390000Y436444D02*
Y443556D01*
X386444Y485000D02*
X393556D01*
X390000Y481444D02*
Y488556D01*
X386444Y500000D02*
X393556D01*
X390000Y496444D02*
Y503556D01*
X386444Y515000D02*
X393556D01*
X390000Y511444D02*
Y518556D01*
X476444Y355000D02*
X483556D01*
X480000Y351444D02*
Y358556D01*
X453944Y355000D02*
X461056D01*
X457500Y351444D02*
Y358556D01*
X446444Y370000D02*
X453556D01*
X450000Y366444D02*
Y373556D01*
X461444Y370000D02*
X468556D01*
X465000Y366444D02*
Y373556D01*
X476444Y370000D02*
X483556D01*
X480000Y366444D02*
Y373556D01*
X491444Y370000D02*
X498556D01*
X495000Y366444D02*
Y373556D01*
X446444Y385000D02*
X453556D01*
X450000Y381444D02*
Y388556D01*
X461444Y385000D02*
X468556D01*
X465000Y381444D02*
Y388556D01*
X476444Y385000D02*
X483556D01*
X480000Y381444D02*
Y388556D01*
X491444Y385000D02*
X498556D01*
X495000Y381444D02*
Y388556D01*
X446444Y400000D02*
X453556D01*
X450000Y396444D02*
Y403556D01*
X461444Y400000D02*
X468556D01*
X465000Y396444D02*
Y403556D01*
X476444Y400000D02*
X483556D01*
X480000Y396444D02*
Y403556D01*
X491444Y400000D02*
X498556D01*
X495000Y396444D02*
Y403556D01*
X446444Y415000D02*
X453556D01*
X450000Y411444D02*
Y418556D01*
X461444Y415000D02*
X468556D01*
X465000Y411444D02*
Y418556D01*
X476444Y415000D02*
X483556D01*
X480000Y411444D02*
Y418556D01*
X491444Y415000D02*
X498556D01*
X495000Y411444D02*
Y418556D01*
X446444Y430000D02*
X453556D01*
X450000Y426444D02*
Y433556D01*
X461444Y430000D02*
X468556D01*
X465000Y426444D02*
Y433556D01*
X476444Y430000D02*
X483556D01*
X480000Y426444D02*
Y433556D01*
X491444Y430000D02*
X498556D01*
X495000Y426444D02*
Y433556D01*
X446444Y445000D02*
X453556D01*
X450000Y441444D02*
Y448556D01*
X461444Y445000D02*
X468556D01*
X465000Y441444D02*
Y448556D01*
X476444Y445000D02*
X483556D01*
X480000Y441444D02*
Y448556D01*
X491444Y445000D02*
X498556D01*
X495000Y441444D02*
Y448556D01*
X446444Y460000D02*
X453556D01*
X450000Y456444D02*
Y463556D01*
X461444Y460000D02*
X468556D01*
X465000Y456444D02*
Y463556D01*
X476444Y460000D02*
X483556D01*
X480000Y456444D02*
Y463556D01*
X491444Y460000D02*
X498556D01*
X495000Y456444D02*
Y463556D01*
X446444Y475000D02*
X453556D01*
X450000Y471444D02*
Y478556D01*
X461444Y475000D02*
X468556D01*
X465000Y471444D02*
Y478556D01*
X476444Y475000D02*
X483556D01*
X480000Y471444D02*
Y478556D01*
X491444Y475000D02*
X498556D01*
X495000Y471444D02*
Y478556D01*
X446444Y490000D02*
X453556D01*
X450000Y486444D02*
Y493556D01*
X461444Y490000D02*
X468556D01*
X465000Y486444D02*
Y493556D01*
X476444Y490000D02*
X483556D01*
X480000Y486444D02*
Y493556D01*
X491444Y490000D02*
X498556D01*
X495000Y486444D02*
Y493556D01*
X446444Y505000D02*
X453556D01*
X450000Y501444D02*
Y508556D01*
X461444Y505000D02*
X468556D01*
X465000Y501444D02*
Y508556D01*
X476444Y505000D02*
X483556D01*
X480000Y501444D02*
Y508556D01*
X491444Y505000D02*
X498556D01*
X495000Y501444D02*
Y508556D01*
X446444Y520000D02*
X453556D01*
X450000Y516444D02*
Y523556D01*
X461444Y520000D02*
X468556D01*
X465000Y516444D02*
Y523556D01*
X476444Y520000D02*
X483556D01*
X480000Y516444D02*
Y523556D01*
X491444Y520000D02*
X498556D01*
X495000Y516444D02*
Y523556D01*
X446444Y535000D02*
X453556D01*
X450000Y531444D02*
Y538556D01*
X461444Y535000D02*
X468556D01*
X465000Y531444D02*
Y538556D01*
X476444Y535000D02*
X483556D01*
X480000Y531444D02*
Y538556D01*
X491444Y535000D02*
X498556D01*
X495000Y531444D02*
Y538556D01*
X446444Y550000D02*
X453556D01*
X450000Y546444D02*
Y553556D01*
X461444Y550000D02*
X468556D01*
X465000Y546444D02*
Y553556D01*
X476444Y550000D02*
X483556D01*
X480000Y546444D02*
Y553556D01*
X491444Y550000D02*
X498556D01*
X495000Y546444D02*
Y553556D01*
X446444Y565000D02*
X453556D01*
X450000Y561444D02*
Y568556D01*
X461444Y565000D02*
X468556D01*
X465000Y561444D02*
Y568556D01*
X476444Y565000D02*
X483556D01*
X480000Y561444D02*
Y568556D01*
X491444Y565000D02*
X498556D01*
X495000Y561444D02*
Y568556D01*
X446444Y580000D02*
X453556D01*
X450000Y576444D02*
Y583556D01*
X461444Y580000D02*
X468556D01*
X465000Y576444D02*
Y583556D01*
X476444Y580000D02*
X483556D01*
X480000Y576444D02*
Y583556D01*
X491444Y580000D02*
X498556D01*
X495000Y576444D02*
Y583556D01*
X491444Y595000D02*
X498556D01*
X495000Y591444D02*
Y598556D01*
X476444Y595000D02*
X483556D01*
X480000Y591444D02*
Y598556D01*
X461444Y595000D02*
X468556D01*
X465000Y591444D02*
Y598556D01*
X446444Y595000D02*
X453556D01*
X450000Y591444D02*
Y598556D01*
X231000Y230000D02*
X234000D01*
X232500Y228500D02*
Y231500D01*
X211000Y212500D02*
X214000D01*
X212500Y211000D02*
Y214000D01*
X276000Y242500D02*
X279000D01*
X277500Y241000D02*
Y244000D01*
X245750Y212250D02*
X248750D01*
X247250Y210750D02*
Y213750D01*
X191000Y177500D02*
X194000D01*
X192500Y176000D02*
Y179000D01*
X329250Y159250D02*
X332250D01*
X330750Y157750D02*
Y160750D01*
X233500Y330000D02*
X236500D01*
X235000Y328500D02*
Y331500D01*
X218500Y337500D02*
X221500D01*
X220000Y336000D02*
Y339000D01*
X218500Y392500D02*
X221500D01*
X220000Y391000D02*
Y394000D01*
X218500Y442500D02*
X221500D01*
X220000Y441000D02*
Y444000D01*
X218500Y555000D02*
X221500D01*
X220000Y553500D02*
Y556500D01*
X218500Y497500D02*
X221500D01*
X220000Y496000D02*
Y499000D01*
X237026Y113420D02*
X240026D01*
X238526Y111920D02*
Y114920D01*
X414350Y245000D02*
X425650D01*
X420000Y239350D02*
Y250650D01*
X576850Y382500D02*
X588150D01*
X582500Y376850D02*
Y388150D01*
X736850Y527500D02*
X748150D01*
X742500Y521850D02*
Y533150D01*
M02*
