G04*
G04 #@! TF.GenerationSoftware,Altium Limited,Altium Designer,23.4.1 (23)*
G04*
G04 Layer_Color=65535*
%FSLAX44Y44*%
%MOMM*%
G71*
G04*
G04 #@! TF.SameCoordinates,23056885-4623-4C4A-AB4B-1A291C1D203A*
G04*
G04*
G04 #@! TF.FilePolarity,Positive*
G04*
G01*
G75*
%ADD10C,0.2000*%
%ADD11C,0.2500*%
%ADD12C,0.1000*%
%ADD13C,0.1270*%
%ADD14C,0.5000*%
%ADD15C,0.2540*%
%ADD16C,0.1500*%
D10*
X361500Y595000D02*
G03*
X359500Y595000I-1000J0D01*
G01*
D02*
G03*
X361500Y595000I1000J0D01*
G01*
X96000Y98100D02*
G03*
X96000Y98100I-1000J0D01*
G01*
X692500Y372500D02*
G03*
X692500Y372500I-25000J0D01*
G01*
Y460000D02*
G03*
X692500Y460000I-25000J0D01*
G01*
X695000Y287500D02*
G03*
X695000Y287500I-25000J0D01*
G01*
X95750Y217500D02*
G03*
X95750Y217500I-1000J0D01*
G01*
X203000Y193500D02*
G03*
X203000Y191500I0J-1000D01*
G01*
D02*
G03*
X203000Y193500I0J1000D01*
G01*
X657500Y661500D02*
Y735000D01*
Y644999D02*
Y654500D01*
X651499Y652002D02*
X657500Y654500D01*
X651499Y652002D02*
Y664002D01*
X657500Y661504D01*
X807500Y706497D02*
X813501Y704000D01*
X807500Y713502D02*
X813501Y716000D01*
Y704000D02*
Y716000D01*
X807500Y644999D02*
Y706497D01*
Y713500D02*
Y735000D01*
X657500D02*
X807500D01*
X657500Y644999D02*
X807500D01*
X117500Y736000D02*
X223500D01*
X117500Y654000D02*
Y736000D01*
Y654000D02*
X223500D01*
Y736000D01*
X738500Y370000D02*
X761500D01*
X830500Y356750D02*
Y383250D01*
X814500Y346500D02*
Y383250D01*
X288500Y180000D02*
X296500D01*
X288500Y205000D02*
X296500D01*
X342750Y180000D02*
X350750D01*
X342750Y205000D02*
X350750D01*
X288500Y145000D02*
X296500D01*
X288500Y120000D02*
X296500D01*
X229500Y565000D02*
X240500D01*
X229500Y590000D02*
X240500D01*
X158500Y125400D02*
X181500D01*
X173500Y480000D02*
X181500D01*
X173500Y455000D02*
X181500D01*
X229500D02*
X240500D01*
X229500Y480000D02*
X240500D01*
X173500Y590000D02*
X181500D01*
X173500Y565000D02*
X181500D01*
X795800Y570000D02*
X819200D01*
X730800Y567500D02*
X754200D01*
X663300Y570000D02*
X686700D01*
X407500Y167500D02*
X437500D01*
X460000D02*
X490000D01*
X512500D02*
X542500D01*
X173500Y295000D02*
X181500D01*
X173500Y320000D02*
X181500D01*
X173500Y350000D02*
X181500D01*
X173500Y375000D02*
X181500D01*
X223500Y90000D02*
X231500D01*
X223500Y65000D02*
X231500D01*
X341000Y90000D02*
X349000D01*
X341000Y65000D02*
X349000D01*
X174250Y402500D02*
X182250D01*
X174250Y427500D02*
X182250D01*
X173500Y510000D02*
X181500D01*
X173500Y535000D02*
X181500D01*
X158500Y192500D02*
X181500D01*
X230000Y181000D02*
Y204000D01*
X741000Y285000D02*
X764000D01*
X290000Y66000D02*
Y89000D01*
X736000Y460000D02*
X759000D01*
X229500Y320000D02*
X240500D01*
X229500Y295000D02*
X240500D01*
X229500Y375000D02*
X240500D01*
X229500Y350000D02*
X240500D01*
X229500Y427500D02*
X240500D01*
X229500Y402500D02*
X240500D01*
X222000Y120000D02*
X233000D01*
X222000Y145000D02*
X233000D01*
X229500Y535000D02*
X240500D01*
X229500Y510000D02*
X240500D01*
X819500Y261500D02*
Y298250D01*
X835500Y271750D02*
Y298250D01*
X812000Y436500D02*
Y473250D01*
X828000Y446750D02*
Y473250D01*
X93500Y530000D02*
X131500D01*
X93500Y355000D02*
Y530000D01*
Y355000D02*
X131500D01*
Y530000D01*
D11*
X193750Y647500D02*
G03*
X193750Y647500I-1250J0D01*
G01*
X116750Y536000D02*
G03*
X116750Y536000I-1250J0D01*
G01*
D12*
X380250Y605750D02*
X504750D01*
X380250Y284250D02*
Y605750D01*
Y284250D02*
X504750D01*
Y605750D01*
D13*
X71500Y105500D02*
X129000D01*
X71500D02*
Y179500D01*
X129000D01*
Y105500D02*
Y179500D01*
X128750Y225500D02*
Y324500D01*
X71250Y225500D02*
X128750D01*
X71250D02*
Y324500D01*
X128750D01*
D14*
X814994Y225000D02*
Y218335D01*
Y221668D01*
X795000D01*
Y225000D01*
Y218335D01*
Y208339D02*
X814994D01*
Y198342D01*
X811661Y195010D01*
X804997D01*
X801665Y198342D01*
Y208339D01*
X795000Y188345D02*
X814994D01*
X808329Y181681D01*
X814994Y175016D01*
X795000D01*
X811661Y135029D02*
X814994Y138361D01*
Y145026D01*
X811661Y148358D01*
X798332D01*
X795000Y145026D01*
Y138361D01*
X798332Y135029D01*
X795000Y128364D02*
Y121700D01*
Y125032D01*
X808329D01*
Y128364D01*
Y111703D02*
X795000D01*
X801665D01*
X804997Y108371D01*
X808329Y105039D01*
Y101706D01*
Y78381D02*
Y88377D01*
X804997Y91710D01*
X798332D01*
X795000Y88377D01*
Y78381D01*
X808329Y71716D02*
X798332D01*
X795000Y68384D01*
Y58387D01*
X808329D01*
X795000Y51722D02*
Y45058D01*
Y48390D01*
X808329D01*
Y51722D01*
X811661Y31729D02*
X808329D01*
Y35061D01*
Y28397D01*
Y31729D01*
X798332D01*
X795000Y28397D01*
D15*
X172540Y754203D02*
Y744206D01*
X177538D01*
X179205Y745872D01*
Y752537D01*
X177538Y754203D01*
X172540D01*
X189201Y752537D02*
X187535Y754203D01*
X184203D01*
X182537Y752537D01*
Y745872D01*
X184203Y744206D01*
X187535D01*
X189201Y745872D01*
X192533Y742540D02*
X199198D01*
X202530Y754203D02*
Y744206D01*
X207529D01*
X209195Y745872D01*
Y747538D01*
X207529Y749204D01*
X202530D01*
X207529D01*
X209195Y750871D01*
Y752537D01*
X207529Y754203D01*
X202530D01*
X212527D02*
Y745872D01*
X214193Y744206D01*
X217526D01*
X219192Y745872D01*
Y754203D01*
X229188Y752537D02*
X227522Y754203D01*
X224190D01*
X222524Y752537D01*
Y750871D01*
X224190Y749204D01*
X227522D01*
X229188Y747538D01*
Y745872D01*
X227522Y744206D01*
X224190D01*
X222524Y745872D01*
X124205Y750871D02*
X122538Y752537D01*
X119206D01*
X117540Y750871D01*
Y744206D01*
X119206Y742540D01*
X122538D01*
X124205Y744206D01*
Y747538D01*
X120872D01*
X127537Y742540D02*
Y752537D01*
X134201Y742540D01*
Y752537D01*
X137534D02*
Y742540D01*
X142532D01*
X144198Y744206D01*
Y750871D01*
X142532Y752537D01*
X137534D01*
X777540Y757537D02*
Y749206D01*
X779206Y747540D01*
X782538D01*
X784204Y749206D01*
Y757537D01*
X727540D02*
Y750872D01*
X730872Y747540D01*
X734204Y750872D01*
Y757537D01*
X677540D02*
Y747540D01*
X680872Y750872D01*
X684204Y747540D01*
Y757537D01*
X40040Y511703D02*
Y501706D01*
Y506704D01*
X46705D01*
Y511703D01*
Y501706D01*
X50037Y511703D02*
X53369D01*
X51703D01*
Y501706D01*
X50037D01*
X53369D01*
X58367D02*
Y508371D01*
X63366D01*
X65032Y506704D01*
Y501706D01*
X68364Y500040D02*
X75029D01*
X78361Y511703D02*
Y501706D01*
X81693Y505038D01*
X85026Y501706D01*
Y511703D01*
X40040Y486703D02*
Y476706D01*
X46705D01*
X50037Y486703D02*
X53369D01*
X51703D01*
Y476706D01*
X50037D01*
X53369D01*
X58367D02*
Y483371D01*
X63366D01*
X65032Y481704D01*
Y476706D01*
X68364Y475040D02*
X75029D01*
X78361Y486703D02*
Y476706D01*
X81693Y480038D01*
X85026Y476706D01*
Y486703D01*
X40040Y461703D02*
Y451706D01*
Y456704D01*
X46705D01*
Y461703D01*
Y451706D01*
X50037Y461703D02*
X53369D01*
X51703D01*
Y451706D01*
X50037D01*
X53369D01*
X58367D02*
Y458371D01*
X63366D01*
X65032Y456704D01*
Y451706D01*
X68364Y450040D02*
X75029D01*
X78361Y461703D02*
Y455038D01*
X81693Y451706D01*
X85026Y455038D01*
Y461703D01*
X40040Y436703D02*
Y426706D01*
X46705D01*
X50037Y436703D02*
X53369D01*
X51703D01*
Y426706D01*
X50037D01*
X53369D01*
X58367D02*
Y433371D01*
X63366D01*
X65032Y431704D01*
Y426706D01*
X68364Y425040D02*
X75029D01*
X78361Y436703D02*
Y430038D01*
X81693Y426706D01*
X85026Y430038D01*
Y436703D01*
X40040Y411703D02*
Y401706D01*
Y406704D01*
X46705D01*
Y411703D01*
Y401706D01*
X50037Y411703D02*
X53369D01*
X51703D01*
Y401706D01*
X50037D01*
X53369D01*
X58367D02*
Y408371D01*
X63366D01*
X65032Y406704D01*
Y401706D01*
X68364Y400040D02*
X75029D01*
X78361Y411703D02*
Y403372D01*
X80027Y401706D01*
X83359D01*
X85026Y403372D01*
Y411703D01*
X40040Y384203D02*
Y374206D01*
X46705D01*
X50037Y384203D02*
X53369D01*
X51703D01*
Y374206D01*
X50037D01*
X53369D01*
X58367D02*
Y380871D01*
X63366D01*
X65032Y379204D01*
Y374206D01*
X68364Y372540D02*
X75029D01*
X78361Y384203D02*
Y375872D01*
X80027Y374206D01*
X83359D01*
X85026Y375872D01*
Y384203D01*
X34204Y305871D02*
X32538Y307537D01*
X29206D01*
X27540Y305871D01*
Y299206D01*
X29206Y297540D01*
X32538D01*
X34204Y299206D01*
Y302538D01*
X30872D01*
X37537Y297540D02*
Y307537D01*
X44201Y297540D01*
Y307537D01*
X47534D02*
Y297540D01*
X52532D01*
X54198Y299206D01*
Y305871D01*
X52532Y307537D01*
X47534D01*
X25040Y275038D02*
X31704D01*
X28372Y278371D02*
Y271706D01*
X41701Y280037D02*
X35037D01*
Y275038D01*
X38369Y276705D01*
X40035D01*
X41701Y275038D01*
Y271706D01*
X40035Y270040D01*
X36703D01*
X35037Y271706D01*
X45033Y280037D02*
Y273372D01*
X48366Y270040D01*
X51698Y273372D01*
Y280037D01*
X25040Y247538D02*
X31704D01*
X28372Y250871D02*
Y244206D01*
X35037Y242540D02*
X38369D01*
X36703D01*
Y252537D01*
X35037Y250871D01*
X50032Y252537D02*
X43367D01*
Y247538D01*
X46700Y249205D01*
X48366D01*
X50032Y247538D01*
Y244206D01*
X48366Y242540D01*
X45033D01*
X43367Y244206D01*
X53364Y252537D02*
Y245872D01*
X56696Y242540D01*
X60029Y245872D01*
Y252537D01*
X22540Y125040D02*
Y135037D01*
X27538D01*
X29204Y133371D01*
Y130038D01*
X27538Y128372D01*
X22540D01*
X25872D02*
X29204Y125040D01*
X39201Y133371D02*
X37535Y135037D01*
X34203D01*
X32537Y133371D01*
Y131705D01*
X34203Y130038D01*
X37535D01*
X39201Y128372D01*
Y126706D01*
X37535Y125040D01*
X34203D01*
X32537Y126706D01*
X20040Y162537D02*
X26704D01*
X23372D01*
Y152540D01*
X36701Y162537D02*
X30037D01*
Y152540D01*
X36701D01*
X30037Y157538D02*
X33369D01*
X40033Y152540D02*
Y162537D01*
X43366Y159205D01*
X46698Y162537D01*
Y152540D01*
X50030D02*
Y162537D01*
X55029D01*
X56695Y160871D01*
Y157538D01*
X55029Y155872D01*
X50030D01*
X78054Y199831D02*
X74722D01*
X76388D01*
Y191500D01*
X74722Y189834D01*
X73056D01*
X71390Y191500D01*
X86385Y189834D02*
Y199831D01*
X81387Y194832D01*
X88051D01*
X656413Y625789D02*
X649748D01*
Y620790D01*
X653080D01*
X649748D01*
Y615792D01*
X659745Y624123D02*
X661411Y625789D01*
X664743D01*
X666409Y624123D01*
Y622457D01*
X664743Y620790D01*
X663077D01*
X664743D01*
X666409Y619124D01*
Y617458D01*
X664743Y615792D01*
X661411D01*
X659745Y617458D01*
X723723Y623249D02*
X717058D01*
Y618250D01*
X720390D01*
X717058D01*
Y613252D01*
X733719D02*
X727055D01*
X733719Y619916D01*
Y621583D01*
X732053Y623249D01*
X728721D01*
X727055Y621583D01*
X788746Y625789D02*
X782082D01*
Y620790D01*
X785414D01*
X782082D01*
Y615792D01*
X792079D02*
X795411D01*
X793745D01*
Y625789D01*
X792079Y624123D01*
X77800Y344865D02*
X74468D01*
X76134D01*
Y336534D01*
X74468Y334868D01*
X72802D01*
X71136Y336534D01*
X87797Y344865D02*
X81133D01*
Y339866D01*
X84465Y341533D01*
X86131D01*
X87797Y339866D01*
Y336534D01*
X86131Y334868D01*
X82799D01*
X81133Y336534D01*
X156734Y331312D02*
Y341309D01*
X161732D01*
X163398Y339643D01*
Y336310D01*
X161732Y334644D01*
X156734D01*
X160066D02*
X163398Y331312D01*
X166731D02*
X170063D01*
X168397D01*
Y341309D01*
X166731Y339643D01*
X181726Y341309D02*
X178394Y339643D01*
X175061Y336310D01*
Y332978D01*
X176728Y331312D01*
X180060D01*
X181726Y332978D01*
Y334644D01*
X180060Y336310D01*
X175061D01*
X404892Y214726D02*
Y224723D01*
X409890D01*
X411557Y223057D01*
Y219724D01*
X409890Y218058D01*
X404892D01*
X408224D02*
X411557Y214726D01*
X414889D02*
X418221D01*
X416555D01*
Y224723D01*
X414889Y223057D01*
X429884Y224723D02*
X423219D01*
Y219724D01*
X426552Y221390D01*
X428218D01*
X429884Y219724D01*
Y216392D01*
X428218Y214726D01*
X424886D01*
X423219Y216392D01*
X457216Y214726D02*
Y224723D01*
X462214D01*
X463881Y223057D01*
Y219724D01*
X462214Y218058D01*
X457216D01*
X460548D02*
X463881Y214726D01*
X467213D02*
X470545D01*
X468879D01*
Y224723D01*
X467213Y223057D01*
X480542Y214726D02*
Y224723D01*
X475543Y219724D01*
X482208D01*
X509794Y214726D02*
Y224723D01*
X514792D01*
X516459Y223057D01*
Y219724D01*
X514792Y218058D01*
X509794D01*
X513126D02*
X516459Y214726D01*
X519791D02*
X523123D01*
X521457D01*
Y224723D01*
X519791Y223057D01*
X528121D02*
X529788Y224723D01*
X533120D01*
X534786Y223057D01*
Y221390D01*
X533120Y219724D01*
X531454D01*
X533120D01*
X534786Y218058D01*
Y216392D01*
X533120Y214726D01*
X529788D01*
X528121Y216392D01*
X156226Y223362D02*
Y233359D01*
X161224D01*
X162890Y231693D01*
Y228360D01*
X161224Y226694D01*
X156226D01*
X159558D02*
X162890Y223362D01*
X166223D02*
X169555D01*
X167889D01*
Y233359D01*
X166223Y231693D01*
X181218Y223362D02*
X174553D01*
X181218Y230026D01*
Y231693D01*
X179552Y233359D01*
X176220D01*
X174553Y231693D01*
X156734Y386430D02*
Y396427D01*
X161732D01*
X163398Y394761D01*
Y391428D01*
X161732Y389762D01*
X156734D01*
X160066D02*
X163398Y386430D01*
X166731D02*
X170063D01*
X168397D01*
Y396427D01*
X166731Y394761D01*
X175061Y386430D02*
X178394D01*
X176728D01*
Y396427D01*
X175061Y394761D01*
X206772Y101442D02*
Y111439D01*
X211770D01*
X213437Y109773D01*
Y106440D01*
X211770Y104774D01*
X206772D01*
X210104D02*
X213437Y101442D01*
X216769D02*
X220101D01*
X218435D01*
Y111439D01*
X216769Y109773D01*
X225099D02*
X226766Y111439D01*
X230098D01*
X231764Y109773D01*
Y103108D01*
X230098Y101442D01*
X226766D01*
X225099Y103108D01*
Y109773D01*
X199152Y223108D02*
Y233105D01*
X204150D01*
X205816Y231439D01*
Y228106D01*
X204150Y226440D01*
X199152D01*
X202484D02*
X205816Y223108D01*
X209149Y224774D02*
X210815Y223108D01*
X214147D01*
X215813Y224774D01*
Y231439D01*
X214147Y233105D01*
X210815D01*
X209149Y231439D01*
Y229772D01*
X210815Y228106D01*
X215813D01*
X324374Y101442D02*
Y111439D01*
X329372D01*
X331039Y109773D01*
Y106440D01*
X329372Y104774D01*
X324374D01*
X327706D02*
X331039Y101442D01*
X334371Y109773D02*
X336037Y111439D01*
X339369D01*
X341035Y109773D01*
Y108106D01*
X339369Y106440D01*
X341035Y104774D01*
Y103108D01*
X339369Y101442D01*
X336037D01*
X334371Y103108D01*
Y104774D01*
X336037Y106440D01*
X334371Y108106D01*
Y109773D01*
X336037Y106440D02*
X339369D01*
X157496Y438754D02*
Y448751D01*
X162494D01*
X164160Y447085D01*
Y443752D01*
X162494Y442086D01*
X157496D01*
X160828D02*
X164160Y438754D01*
X167493Y448751D02*
X174157D01*
Y447085D01*
X167493Y440420D01*
Y438754D01*
X156734Y491332D02*
Y501329D01*
X161732D01*
X163398Y499663D01*
Y496330D01*
X161732Y494664D01*
X156734D01*
X160066D02*
X163398Y491332D01*
X173395Y501329D02*
X170063Y499663D01*
X166731Y496330D01*
Y492998D01*
X168397Y491332D01*
X171729D01*
X173395Y492998D01*
Y494664D01*
X171729Y496330D01*
X166731D01*
X271796Y156306D02*
Y166303D01*
X276794D01*
X278461Y164637D01*
Y161304D01*
X276794Y159638D01*
X271796D01*
X275128D02*
X278461Y156306D01*
X288457Y166303D02*
X281793D01*
Y161304D01*
X285125Y162971D01*
X286791D01*
X288457Y161304D01*
Y157972D01*
X286791Y156306D01*
X283459D01*
X281793Y157972D01*
X326152Y216250D02*
Y226247D01*
X331150D01*
X332817Y224581D01*
Y221248D01*
X331150Y219582D01*
X326152D01*
X329484D02*
X332817Y216250D01*
X341147D02*
Y226247D01*
X336149Y221248D01*
X342813D01*
X271796Y216250D02*
Y226247D01*
X276794D01*
X278461Y224581D01*
Y221248D01*
X276794Y219582D01*
X271796D01*
X275128D02*
X278461Y216250D01*
X281793Y224581D02*
X283459Y226247D01*
X286791D01*
X288457Y224581D01*
Y222915D01*
X286791Y221248D01*
X285125D01*
X286791D01*
X288457Y219582D01*
Y217916D01*
X286791Y216250D01*
X283459D01*
X281793Y217916D01*
X156734Y546450D02*
Y556447D01*
X161732D01*
X163398Y554781D01*
Y551448D01*
X161732Y549782D01*
X156734D01*
X160066D02*
X163398Y546450D01*
X173395D02*
X166731D01*
X173395Y553115D01*
Y554781D01*
X171729Y556447D01*
X168397D01*
X166731Y554781D01*
X156734Y601314D02*
Y611311D01*
X161732D01*
X163398Y609645D01*
Y606312D01*
X161732Y604646D01*
X156734D01*
X160066D02*
X163398Y601314D01*
X166731D02*
X170063D01*
X168397D01*
Y611311D01*
X166731Y609645D01*
X100660Y556193D02*
X97328D01*
X98994D01*
Y547862D01*
X97328Y546196D01*
X95662D01*
X93996Y547862D01*
X103993Y554527D02*
X105659Y556193D01*
X108991D01*
X110657Y554527D01*
Y552860D01*
X108991Y551194D01*
X107325D01*
X108991D01*
X110657Y549528D01*
Y547862D01*
X108991Y546196D01*
X105659D01*
X103993Y547862D01*
X630834Y732498D02*
X627502D01*
X629168D01*
Y724168D01*
X627502Y722502D01*
X625835D01*
X624169Y724168D01*
X640831Y722502D02*
X634166D01*
X640831Y729166D01*
Y730832D01*
X639165Y732498D01*
X635832D01*
X634166Y730832D01*
X100000Y667498D02*
X96668D01*
X98334D01*
Y659168D01*
X96668Y657502D01*
X95002D01*
X93336Y659168D01*
X103332Y657502D02*
X106664D01*
X104998D01*
Y667498D01*
X103332Y665832D01*
X318786Y633917D02*
X322118D01*
X320452D01*
Y623920D01*
X318786D01*
X322118D01*
X333781Y632251D02*
X332115Y633917D01*
X328783D01*
X327117Y632251D01*
Y625586D01*
X328783Y623920D01*
X332115D01*
X333781Y625586D01*
X337113Y623920D02*
X340446D01*
X338780D01*
Y633917D01*
X337113Y632251D01*
X813324Y328863D02*
Y318866D01*
X818322D01*
X819988Y320532D01*
Y327197D01*
X818322Y328863D01*
X813324D01*
X823321Y327197D02*
X824987Y328863D01*
X828319D01*
X829985Y327197D01*
Y325531D01*
X828319Y323864D01*
X826653D01*
X828319D01*
X829985Y322198D01*
Y320532D01*
X828319Y318866D01*
X824987D01*
X823321Y320532D01*
X808244Y413953D02*
Y403956D01*
X813242D01*
X814909Y405622D01*
Y412287D01*
X813242Y413953D01*
X808244D01*
X824905Y403956D02*
X818241D01*
X824905Y410620D01*
Y412287D01*
X823239Y413953D01*
X819907D01*
X818241Y412287D01*
X805704Y503869D02*
Y493872D01*
X810702D01*
X812368Y495538D01*
Y502203D01*
X810702Y503869D01*
X805704D01*
X815701Y493872D02*
X819033D01*
X817367D01*
Y503869D01*
X815701Y502203D01*
X220548Y339643D02*
X218882Y341309D01*
X215550D01*
X213884Y339643D01*
Y332978D01*
X215550Y331312D01*
X218882D01*
X220548Y332978D01*
X223881Y331312D02*
X227213D01*
X225547D01*
Y341309D01*
X223881Y339643D01*
X238876Y341309D02*
X232211D01*
Y336310D01*
X235544Y337976D01*
X237210D01*
X238876Y336310D01*
Y332978D01*
X237210Y331312D01*
X233878D01*
X232211Y332978D01*
X163906Y162859D02*
X162240Y164525D01*
X158908D01*
X157242Y162859D01*
Y156194D01*
X158908Y154528D01*
X162240D01*
X163906Y156194D01*
X167239Y154528D02*
X170571D01*
X168905D01*
Y164525D01*
X167239Y162859D01*
X180568Y154528D02*
Y164525D01*
X175569Y159526D01*
X182234D01*
X220548Y394761D02*
X218882Y396427D01*
X215550D01*
X213884Y394761D01*
Y388096D01*
X215550Y386430D01*
X218882D01*
X220548Y388096D01*
X223881Y386430D02*
X227213D01*
X225547D01*
Y396427D01*
X223881Y394761D01*
X232211D02*
X233878Y396427D01*
X237210D01*
X238876Y394761D01*
Y393094D01*
X237210Y391428D01*
X235544D01*
X237210D01*
X238876Y389762D01*
Y388096D01*
X237210Y386430D01*
X233878D01*
X232211Y388096D01*
X277698Y108757D02*
X276032Y110423D01*
X272700D01*
X271034Y108757D01*
Y102092D01*
X272700Y100426D01*
X276032D01*
X277698Y102092D01*
X281031Y100426D02*
X284363D01*
X282697D01*
Y110423D01*
X281031Y108757D01*
X296026Y100426D02*
X289361D01*
X296026Y107091D01*
Y108757D01*
X294360Y110423D01*
X291028D01*
X289361Y108757D01*
X220548Y447085D02*
X218882Y448751D01*
X215550D01*
X213884Y447085D01*
Y440420D01*
X215550Y438754D01*
X218882D01*
X220548Y440420D01*
X223881Y438754D02*
X227213D01*
X225547D01*
Y448751D01*
X223881Y447085D01*
X232211Y438754D02*
X235544D01*
X233878D01*
Y448751D01*
X232211Y447085D01*
X212929Y164637D02*
X211262Y166303D01*
X207930D01*
X206264Y164637D01*
Y157972D01*
X207930Y156306D01*
X211262D01*
X212929Y157972D01*
X216261Y156306D02*
X219593D01*
X217927D01*
Y166303D01*
X216261Y164637D01*
X224591D02*
X226258Y166303D01*
X229590D01*
X231256Y164637D01*
Y157972D01*
X229590Y156306D01*
X226258D01*
X224591Y157972D01*
Y164637D01*
X220548Y499663D02*
X218882Y501329D01*
X215550D01*
X213884Y499663D01*
Y492998D01*
X215550Y491332D01*
X218882D01*
X220548Y492998D01*
X223881D02*
X225547Y491332D01*
X228879D01*
X230545Y492998D01*
Y499663D01*
X228879Y501329D01*
X225547D01*
X223881Y499663D01*
Y497996D01*
X225547Y496330D01*
X230545D01*
X220548Y554781D02*
X218882Y556447D01*
X215550D01*
X213884Y554781D01*
Y548116D01*
X215550Y546450D01*
X218882D01*
X220548Y548116D01*
X223881Y554781D02*
X225547Y556447D01*
X228879D01*
X230545Y554781D01*
Y553115D01*
X228879Y551448D01*
X230545Y549782D01*
Y548116D01*
X228879Y546450D01*
X225547D01*
X223881Y548116D01*
Y549782D01*
X225547Y551448D01*
X223881Y553115D01*
Y554781D01*
X225547Y551448D02*
X228879D01*
X652857Y329737D02*
X651190Y331403D01*
X647858D01*
X646192Y329737D01*
Y323072D01*
X647858Y321406D01*
X651190D01*
X652857Y323072D01*
X656189Y331403D02*
X662853D01*
Y329737D01*
X656189Y323072D01*
Y321406D01*
X650571Y414827D02*
X648904Y416493D01*
X645572D01*
X643906Y414827D01*
Y408162D01*
X645572Y406496D01*
X648904D01*
X650571Y408162D01*
X660567Y416493D02*
X657235Y414827D01*
X653903Y411494D01*
Y408162D01*
X655569Y406496D01*
X658901D01*
X660567Y408162D01*
Y409828D01*
X658901Y411494D01*
X653903D01*
X650571Y502203D02*
X648904Y503869D01*
X645572D01*
X643906Y502203D01*
Y495538D01*
X645572Y493872D01*
X648904D01*
X650571Y495538D01*
X660567Y503869D02*
X653903D01*
Y498870D01*
X657235Y500536D01*
X658901D01*
X660567Y498870D01*
Y495538D01*
X658901Y493872D01*
X655569D01*
X653903Y495538D01*
X746329Y322371D02*
X744662Y324037D01*
X741330D01*
X739664Y322371D01*
Y315706D01*
X741330Y314040D01*
X744662D01*
X746329Y315706D01*
X754659Y314040D02*
Y324037D01*
X749661Y319038D01*
X756325D01*
X743789Y407461D02*
X742122Y409127D01*
X738790D01*
X737124Y407461D01*
Y400796D01*
X738790Y399130D01*
X742122D01*
X743789Y400796D01*
X747121Y407461D02*
X748787Y409127D01*
X752119D01*
X753785Y407461D01*
Y405794D01*
X752119Y404128D01*
X750453D01*
X752119D01*
X753785Y402462D01*
Y400796D01*
X752119Y399130D01*
X748787D01*
X747121Y400796D01*
X741248Y497377D02*
X739582Y499043D01*
X736250D01*
X734584Y497377D01*
Y490712D01*
X736250Y489046D01*
X739582D01*
X741248Y490712D01*
X751245Y489046D02*
X744581D01*
X751245Y495710D01*
Y497377D01*
X749579Y499043D01*
X746247D01*
X744581Y497377D01*
X220548Y609645D02*
X218882Y611311D01*
X215550D01*
X213884Y609645D01*
Y602980D01*
X215550Y601314D01*
X218882D01*
X220548Y602980D01*
X223881Y601314D02*
X227213D01*
X225547D01*
Y611311D01*
X223881Y609645D01*
D16*
X667502Y335000D02*
Y341665D01*
X664169Y338332D02*
X670834D01*
X667502Y422500D02*
Y429165D01*
X664169Y425832D02*
X670834D01*
X670002Y250000D02*
Y256665D01*
X666669Y253332D02*
X673334D01*
M02*
