G04*
G04 #@! TF.GenerationSoftware,Altium Limited,Altium Designer,23.4.1 (23)*
G04*
G04 Layer_Physical_Order=1*
G04 Layer_Color=255*
%FSLAX44Y44*%
%MOMM*%
G71*
G04*
G04 #@! TF.SameCoordinates,23056885-4623-4C4A-AB4B-1A291C1D203A*
G04*
G04*
G04 #@! TF.FilePolarity,Positive*
G04*
G01*
G75*
%ADD17R,2.7200X1.3500*%
%ADD18R,0.8000X1.3000*%
%ADD19R,1.2500X2.7000*%
%ADD20R,1.1500X2.7000*%
%ADD21R,2.8000X2.1500*%
%ADD22R,3.4500X1.6500*%
%ADD23R,2.7000X1.1000*%
%ADD24R,1.2500X2.3000*%
%ADD25R,1.3500X2.7200*%
%ADD47C,1.4000*%
%ADD48R,1.4000X1.4000*%
%ADD51C,4.0000*%
%ADD52C,0.3000*%
%ADD53C,1.6950*%
%ADD54C,1.9500*%
G04:AMPARAMS|DCode=55|XSize=1.95mm|YSize=1.95mm|CornerRadius=0.4875mm|HoleSize=0mm|Usage=FLASHONLY|Rotation=180.000|XOffset=0mm|YOffset=0mm|HoleType=Round|Shape=RoundedRectangle|*
%AMROUNDEDRECTD55*
21,1,1.9500,0.9750,0,0,180.0*
21,1,0.9750,1.9500,0,0,180.0*
1,1,0.9750,-0.4875,0.4875*
1,1,0.9750,0.4875,0.4875*
1,1,0.9750,0.4875,-0.4875*
1,1,0.9750,-0.4875,-0.4875*
%
%ADD55ROUNDEDRECTD55*%
%ADD56C,1.6000*%
%ADD57R,1.6000X1.6000*%
%ADD58C,3.5000*%
%ADD59C,1.5750*%
%ADD60R,1.5750X1.5750*%
%ADD61R,1.3000X1.3000*%
%ADD62C,1.3000*%
%ADD63C,1.5080*%
%ADD64R,1.5080X1.5080*%
%ADD65C,1.2700*%
%ADD66C,0.6000*%
D17*
X750000Y357100D02*
D03*
Y382900D02*
D03*
X170000Y138300D02*
D03*
Y112500D02*
D03*
X752500Y297900D02*
D03*
Y272100D02*
D03*
X747500Y472900D02*
D03*
Y447100D02*
D03*
D18*
X822500Y387000D02*
D03*
Y353000D02*
D03*
X827500Y268000D02*
D03*
Y302000D02*
D03*
X820000Y443000D02*
D03*
Y477000D02*
D03*
D19*
X306750Y192500D02*
D03*
X278250D02*
D03*
X361000D02*
D03*
X332500D02*
D03*
X278250Y132500D02*
D03*
X306750D02*
D03*
X163250Y467500D02*
D03*
X191750D02*
D03*
X163250Y577500D02*
D03*
X191750D02*
D03*
Y307500D02*
D03*
X163250D02*
D03*
X191750Y362500D02*
D03*
X163250D02*
D03*
X213250Y77500D02*
D03*
X241750D02*
D03*
X330750Y77500D02*
D03*
X359250D02*
D03*
X192500Y415000D02*
D03*
X164000D02*
D03*
X191750Y522500D02*
D03*
X163250D02*
D03*
D20*
X250000Y577500D02*
D03*
X220000D02*
D03*
X250000Y467500D02*
D03*
X220000D02*
D03*
Y307500D02*
D03*
X250000D02*
D03*
X220000Y362500D02*
D03*
X250000D02*
D03*
X220000Y415000D02*
D03*
X250000D02*
D03*
X242500Y132500D02*
D03*
X212500D02*
D03*
X220000Y522500D02*
D03*
X250000D02*
D03*
D21*
X807500Y545450D02*
D03*
Y594550D02*
D03*
X742500Y542950D02*
D03*
Y592050D02*
D03*
X675000Y545450D02*
D03*
Y594550D02*
D03*
D22*
X422500Y196000D02*
D03*
Y139000D02*
D03*
X475000Y196000D02*
D03*
Y139000D02*
D03*
X527500Y196000D02*
D03*
Y139000D02*
D03*
D23*
X170000Y177500D02*
D03*
Y207500D02*
D03*
D24*
X212750Y192500D02*
D03*
X247250D02*
D03*
D25*
X277100Y77500D02*
D03*
X302900D02*
D03*
D47*
X115500Y379999D02*
D03*
Y405000D02*
D03*
Y430000D02*
D03*
Y454999D02*
D03*
Y480000D02*
D03*
D48*
Y504999D02*
D03*
D51*
X742500Y527500D02*
Y542950D01*
X667500Y397500D02*
X820000D01*
X376182Y643818D02*
X420000Y600000D01*
Y350000D02*
X493331Y276669D01*
X420000Y350000D02*
Y600000D01*
X265000Y415000D02*
Y572500D01*
Y297500D02*
Y415000D01*
X420000Y222500D02*
X435000Y207500D01*
X525000D01*
X73432Y305000D02*
X110000D01*
X235000Y267500D02*
X265000Y297500D01*
X225000Y35000D02*
X270282Y80282D01*
X274125Y110000D02*
Y127500D01*
X270282Y106157D02*
X274125Y110000D01*
X270282Y80282D02*
Y106157D01*
X68432Y62593D02*
X165839D01*
X45000Y86025D02*
Y276569D01*
X73432Y305000D01*
X45000Y86025D02*
X68432Y62593D01*
X165839D02*
X170000Y58432D01*
Y102500D01*
Y58432D02*
X193431Y35000D01*
X225000D01*
X110000Y305000D02*
X147500Y267500D01*
X230408D01*
X243682Y643818D02*
X376182D01*
X302456Y572500D02*
X322463Y592507D01*
X347736D01*
X360243Y580000D01*
X265000Y572500D02*
X302456D01*
X360243Y580000D02*
X360500D01*
X493331Y276669D02*
X536813D01*
X555007Y294863D01*
X420000Y222500D02*
Y242500D01*
X367500Y77500D02*
X417500Y127500D01*
X422500D01*
X525000D01*
X617914Y220414D01*
X365000Y187500D02*
X372500Y180000D01*
Y90750D02*
Y180000D01*
X617914Y220414D02*
Y347086D01*
X582500Y382500D02*
X617914Y347086D01*
X549900Y382500D02*
X582500D01*
X549900Y382500D02*
X549900Y382500D01*
X549900Y457500D02*
X607500D01*
X667500Y397500D01*
X662500Y485468D02*
X747032D01*
X675000Y497968D02*
Y545450D01*
X662500Y485468D02*
X675000Y497968D01*
X549900Y557499D02*
X590469D01*
X662500Y485468D01*
X747500Y485000D02*
X817500D01*
X742500Y527500D02*
X742500Y527500D01*
X747032Y485468D02*
X747500Y485000D01*
X752500Y312500D02*
X825000D01*
X675625Y312500D02*
X752500Y312500D01*
X670000Y306875D02*
X675625Y312500D01*
X836551Y547500D02*
X870000Y514051D01*
X825000Y312500D02*
X870000Y357500D01*
Y514051D01*
X809550Y547500D02*
X836551D01*
X555007Y294863D02*
Y327393D01*
X549900Y332500D02*
X555007Y327393D01*
X192500Y695000D02*
X243682Y643818D01*
X782502Y619548D02*
Y695000D01*
Y619548D02*
X807500Y594550D01*
X732503Y602048D02*
Y695000D01*
Y602048D02*
X742500Y592050D01*
X682503Y602053D02*
Y695000D01*
X675000Y594550D02*
X682503Y602053D01*
D52*
X315000Y267500D02*
Y433900D01*
X232500Y230000D02*
X277500D01*
X315000Y267500D01*
Y433900D02*
X335100Y453999D01*
X277500Y242500D02*
X305762Y270762D01*
Y441642D01*
X212500Y212500D02*
X212750Y212250D01*
Y192500D02*
Y212250D01*
X348493Y275993D02*
Y440973D01*
X332500Y192500D02*
Y260000D01*
X348493Y275993D01*
X372507Y464987D02*
Y476973D01*
X360500Y436000D02*
X377539Y453039D01*
X359480Y490000D02*
X372507Y476973D01*
X377539Y453039D02*
Y526961D01*
X335100Y490000D02*
X359480D01*
X348493Y440973D02*
X372507Y464987D01*
X360500Y544000D02*
X377539Y526961D01*
X305762Y441642D02*
X336119Y472000D01*
X360500D01*
X247250Y192500D02*
Y212250D01*
X178000Y207500D02*
X190500Y220000D01*
X258000D02*
X278250Y199750D01*
X190500Y220000D02*
X258000D01*
X752500Y272100D02*
X825000D01*
X827500Y269600D01*
Y268000D02*
Y269600D01*
X670000Y277500D02*
X740250D01*
X745650Y272100D01*
X752500D01*
X524500Y407500D02*
X610000D01*
X655000Y362500D02*
X667500D01*
X610000Y407500D02*
X655000Y362500D01*
X670000Y360000D02*
X747100D01*
X750000Y357100D01*
X820000D01*
X822500Y354600D01*
Y353000D02*
Y354600D01*
X572500Y532500D02*
X655000Y450000D01*
X744600D01*
X524500Y532500D02*
X572500D01*
X747500Y447100D02*
X817500D01*
X820000Y444600D01*
Y443000D02*
Y444600D01*
X744600Y450000D02*
X747500Y447100D01*
X192500Y177500D02*
X192500Y177500D01*
X170000Y177500D02*
X192500D01*
X330750Y77500D02*
Y159250D01*
X162000Y207500D02*
X178000D01*
X278250Y192500D02*
Y199750D01*
X170000Y138300D02*
Y177500D01*
X360500Y436000D02*
X372507Y423993D01*
Y376007D02*
Y423993D01*
X360500Y364000D02*
X372507Y376007D01*
X234750Y330000D02*
X235000D01*
X220000Y307500D02*
Y315250D01*
X234750Y330000D01*
X220000Y337500D02*
X220000Y337500D01*
Y362500D01*
X220000Y392500D02*
X220000Y392500D01*
Y415000D01*
X220000Y442500D02*
X220000Y442500D01*
Y467500D01*
X220000Y577500D02*
X220000Y577500D01*
X220000Y555000D02*
Y577500D01*
Y497500D02*
Y522500D01*
X220000Y522500D01*
X238526Y113420D02*
Y128526D01*
X242500Y132500D01*
Y187750D01*
X94750Y274750D02*
Y275000D01*
Y274750D02*
X162000Y207500D01*
X95000Y155000D02*
X146450D01*
X163150Y138300D01*
X170000D01*
X115500Y504999D02*
Y522500D01*
X163250Y570250D01*
Y577500D01*
X115500Y480000D02*
X146001Y510500D01*
X158500D01*
X163250Y515250D01*
Y522500D01*
X115500Y454999D02*
X116001Y455500D01*
X158500D01*
X163250Y460250D01*
Y467500D01*
X115500Y430000D02*
X156250D01*
X164000Y422250D01*
Y415000D02*
Y422250D01*
X115500Y405000D02*
X146000Y374500D01*
X158500D01*
X163250Y369750D01*
Y362500D02*
Y369750D01*
X115500Y362500D02*
Y379999D01*
Y362500D02*
X163250Y314750D01*
Y307500D02*
Y314750D01*
X115500Y379999D02*
X118001D01*
X191750Y577500D02*
X220000D01*
X191750Y522500D02*
X220000D01*
X191750Y467500D02*
X220000D01*
X192500Y415000D02*
X220000D01*
X191750Y362500D02*
X220000D01*
X191750Y307500D02*
X220000D01*
X212500Y192250D02*
X212750Y192500D01*
X212500Y132500D02*
Y192250D01*
X213250Y77500D02*
Y131750D01*
X212500Y132500D02*
X213250Y131750D01*
X242500Y187750D02*
X247250Y192500D01*
X302900Y77500D02*
X330750D01*
X306750Y192500D02*
X332500D01*
X306750D02*
X306750Y192500D01*
Y132500D02*
Y192500D01*
D53*
X524500Y582500D02*
D03*
X549900Y557499D02*
D03*
X524500Y532500D02*
D03*
Y482500D02*
D03*
X549900Y457500D02*
D03*
X524500Y407500D02*
D03*
X549900Y382500D02*
D03*
X524500Y357500D02*
D03*
X549900Y332500D02*
D03*
X524500Y307499D02*
D03*
X335100Y310000D02*
D03*
X360500Y328000D02*
D03*
X335100Y346000D02*
D03*
X360500Y364000D02*
D03*
X335100Y382000D02*
D03*
X360500Y400000D02*
D03*
X335100Y418000D02*
D03*
X360500Y436000D02*
D03*
X335100Y453999D02*
D03*
X360500Y472000D02*
D03*
X335100Y490000D02*
D03*
X360500Y508000D02*
D03*
X335100Y526000D02*
D03*
X360500Y544000D02*
D03*
X335100Y562000D02*
D03*
X360500Y580000D02*
D03*
X420000Y245000D02*
D03*
X582500Y382500D02*
D03*
X742500Y527500D02*
D03*
D54*
X682503Y695000D02*
D03*
X732503D02*
D03*
D55*
X782502D02*
D03*
D56*
X142500Y695000D02*
D03*
D57*
X192500D02*
D03*
D58*
X30000Y740000D02*
D03*
Y30000D02*
D03*
X870000D02*
D03*
Y740000D02*
D03*
D59*
X95000Y155000D02*
D03*
D60*
Y130000D02*
D03*
D61*
X667500Y362500D02*
D03*
Y450000D02*
D03*
X670000Y277500D02*
D03*
D62*
X667500Y382500D02*
D03*
Y470000D02*
D03*
X670000Y297500D02*
D03*
D63*
X94750Y300000D02*
D03*
Y275000D02*
D03*
D64*
Y250000D02*
D03*
D65*
X470000Y342500D02*
D03*
X390000Y320000D02*
D03*
Y305000D02*
D03*
Y290000D02*
D03*
Y335000D02*
D03*
Y425000D02*
D03*
Y410000D02*
D03*
Y395000D02*
D03*
Y350000D02*
D03*
Y365000D02*
D03*
Y380000D02*
D03*
Y470000D02*
D03*
Y455000D02*
D03*
Y440000D02*
D03*
Y485000D02*
D03*
Y500000D02*
D03*
Y515000D02*
D03*
X480000Y355000D02*
D03*
X457500D02*
D03*
X450000Y370000D02*
D03*
X465000D02*
D03*
X480000D02*
D03*
X495000D02*
D03*
X450000Y385000D02*
D03*
X465000D02*
D03*
X480000D02*
D03*
X495000D02*
D03*
X450000Y400000D02*
D03*
X465000D02*
D03*
X480000D02*
D03*
X495000D02*
D03*
X450000Y415000D02*
D03*
X465000D02*
D03*
X480000D02*
D03*
X495000D02*
D03*
X450000Y430000D02*
D03*
X465000D02*
D03*
X480000D02*
D03*
X495000D02*
D03*
X450000Y445000D02*
D03*
X465000D02*
D03*
X480000D02*
D03*
X495000D02*
D03*
X450000Y460000D02*
D03*
X465000D02*
D03*
X480000D02*
D03*
X495000D02*
D03*
X450000Y475000D02*
D03*
X465000D02*
D03*
X480000D02*
D03*
X495000D02*
D03*
X450000Y490000D02*
D03*
X465000D02*
D03*
X480000D02*
D03*
X495000D02*
D03*
X450000Y505000D02*
D03*
X465000D02*
D03*
X480000D02*
D03*
X495000D02*
D03*
X450000Y520000D02*
D03*
X465000D02*
D03*
X480000D02*
D03*
X495000D02*
D03*
X450000Y535000D02*
D03*
X465000D02*
D03*
X480000D02*
D03*
X495000D02*
D03*
X450000Y550000D02*
D03*
X465000D02*
D03*
X480000D02*
D03*
X495000D02*
D03*
X450000Y565000D02*
D03*
X465000D02*
D03*
X480000D02*
D03*
X495000D02*
D03*
X450000Y580000D02*
D03*
X465000D02*
D03*
X480000D02*
D03*
X495000D02*
D03*
Y595000D02*
D03*
X480000D02*
D03*
X465000D02*
D03*
X450000D02*
D03*
D66*
X232500Y230000D02*
D03*
X212500Y212500D02*
D03*
X277500Y242500D02*
D03*
X247250Y212250D02*
D03*
X192500Y177500D02*
D03*
X330750Y159250D02*
D03*
X235000Y330000D02*
D03*
X220000Y337500D02*
D03*
Y392500D02*
D03*
Y442500D02*
D03*
Y555000D02*
D03*
Y497500D02*
D03*
X238526Y113420D02*
D03*
M02*
