G04*
G04 #@! TF.GenerationSoftware,Altium Limited,Altium Designer,23.4.1 (23)*
G04*
G04 Layer_Color=8421504*
%FSLAX44Y44*%
%MOMM*%
G71*
G04*
G04 #@! TF.SameCoordinates,23056885-4623-4C4A-AB4B-1A291C1D203A*
G04*
G04*
G04 #@! TF.FilePolarity,Positive*
G04*
G01*
G75*
%ADD17R,2.7200X1.3500*%
%ADD18R,0.8000X1.3000*%
%ADD19R,1.2500X2.7000*%
%ADD20R,1.1500X2.7000*%
%ADD21R,2.8000X2.1500*%
%ADD22R,3.4500X1.6500*%
%ADD23R,2.7000X1.1000*%
%ADD24R,1.2500X2.3000*%
%ADD25R,1.3500X2.7200*%
D17*
X750000Y357100D02*
D03*
Y382900D02*
D03*
X170000Y138300D02*
D03*
Y112500D02*
D03*
X752500Y297900D02*
D03*
Y272100D02*
D03*
X747500Y472900D02*
D03*
Y447100D02*
D03*
D18*
X822500Y387000D02*
D03*
Y353000D02*
D03*
X827500Y268000D02*
D03*
Y302000D02*
D03*
X820000Y443000D02*
D03*
Y477000D02*
D03*
D19*
X306750Y192500D02*
D03*
X278250D02*
D03*
X361000D02*
D03*
X332500D02*
D03*
X278250Y132500D02*
D03*
X306750D02*
D03*
X163250Y467500D02*
D03*
X191750D02*
D03*
X163250Y577500D02*
D03*
X191750D02*
D03*
Y307500D02*
D03*
X163250D02*
D03*
X191750Y362500D02*
D03*
X163250D02*
D03*
X213250Y77500D02*
D03*
X241750D02*
D03*
X330750Y77500D02*
D03*
X359250D02*
D03*
X192500Y415000D02*
D03*
X164000D02*
D03*
X191750Y522500D02*
D03*
X163250D02*
D03*
D20*
X250000Y577500D02*
D03*
X220000D02*
D03*
X250000Y467500D02*
D03*
X220000D02*
D03*
Y307500D02*
D03*
X250000D02*
D03*
X220000Y362500D02*
D03*
X250000D02*
D03*
X220000Y415000D02*
D03*
X250000D02*
D03*
X242500Y132500D02*
D03*
X212500D02*
D03*
X220000Y522500D02*
D03*
X250000D02*
D03*
D21*
X807500Y545450D02*
D03*
Y594550D02*
D03*
X742500Y542950D02*
D03*
Y592050D02*
D03*
X675000Y545450D02*
D03*
Y594550D02*
D03*
D22*
X422500Y196000D02*
D03*
Y139000D02*
D03*
X475000Y196000D02*
D03*
Y139000D02*
D03*
X527500Y196000D02*
D03*
Y139000D02*
D03*
D23*
X170000Y177500D02*
D03*
Y207500D02*
D03*
D24*
X212750Y192500D02*
D03*
X247250D02*
D03*
D25*
X277100Y77500D02*
D03*
X302900D02*
D03*
M02*
