G04*
G04 #@! TF.GenerationSoftware,Altium Limited,Altium Designer,23.4.1 (23)*
G04*
G04 Layer_Color=2752767*
%FSLAX44Y44*%
%MOMM*%
G71*
G04*
G04 #@! TF.SameCoordinates,23056885-4623-4C4A-AB4B-1A291C1D203A*
G04*
G04*
G04 #@! TF.FilePolarity,Positive*
G04*
G01*
G75*
%ADD13C,0.1270*%
%ADD68C,0.1693*%
%ADD69C,0.1016*%
D13*
X524500Y577420D02*
X527040Y579960D01*
X529580D01*
X527040Y582500D01*
X529580Y585040D01*
X527040D01*
X524500Y587580D01*
X521960Y585040D01*
X519420D01*
X521960Y582500D01*
X519420Y579960D01*
X521960D01*
X524500Y577420D01*
X549900Y552419D02*
X552440Y554959D01*
X554980D01*
X552440Y557499D01*
X554980Y560039D01*
X552440D01*
X549900Y562579D01*
X547360Y560039D01*
X544820D01*
X547360Y557499D01*
X544820Y554959D01*
X547360D01*
X549900Y552419D01*
X524500Y527420D02*
X527040Y529960D01*
X529580D01*
X527040Y532500D01*
X529580Y535040D01*
X527040D01*
X524500Y537580D01*
X521960Y535040D01*
X519420D01*
X521960Y532500D01*
X519420Y529960D01*
X521960D01*
X524500Y527420D01*
Y477420D02*
X527040Y479960D01*
X529580D01*
X527040Y482500D01*
X529580Y485040D01*
X527040D01*
X524500Y487580D01*
X521960Y485040D01*
X519420D01*
X521960Y482500D01*
X519420Y479960D01*
X521960D01*
X524500Y477420D01*
X549900Y452420D02*
X552440Y454960D01*
X554980D01*
X552440Y457500D01*
X554980Y460040D01*
X552440D01*
X549900Y462580D01*
X547360Y460040D01*
X544820D01*
X547360Y457500D01*
X544820Y454960D01*
X547360D01*
X549900Y452420D01*
X524500Y402420D02*
X527040Y404960D01*
X529580D01*
X527040Y407500D01*
X529580Y410040D01*
X527040D01*
X524500Y412580D01*
X521960Y410040D01*
X519420D01*
X521960Y407500D01*
X519420Y404960D01*
X521960D01*
X524500Y402420D01*
X549900Y377420D02*
X552440Y379959D01*
X554980D01*
X552440Y382500D01*
X554980Y385039D01*
X552440D01*
X549900Y387579D01*
X547360Y385039D01*
X544820D01*
X547360Y382500D01*
X544820Y379959D01*
X547360D01*
X549900Y377420D01*
X524500Y352420D02*
X527040Y354960D01*
X529580D01*
X527040Y357500D01*
X529580Y360040D01*
X527040D01*
X524500Y362580D01*
X521960Y360040D01*
X519420D01*
X521960Y357500D01*
X519420Y354960D01*
X521960D01*
X524500Y352420D01*
X549900Y327420D02*
X552440Y329960D01*
X554980D01*
X552440Y332500D01*
X554980Y335040D01*
X552440D01*
X549900Y337580D01*
X547360Y335040D01*
X544820D01*
X547360Y332500D01*
X544820Y329960D01*
X547360D01*
X549900Y327420D01*
X524500Y302419D02*
X527040Y304959D01*
X529580D01*
X527040Y307499D01*
X529580Y310039D01*
X527040D01*
X524500Y312579D01*
X521960Y310039D01*
X519420D01*
X521960Y307499D01*
X519420Y304959D01*
X521960D01*
X524500Y302419D01*
X335100Y304920D02*
X337640Y307460D01*
X340180D01*
X337640Y310000D01*
X340180Y312540D01*
X337640D01*
X335100Y315080D01*
X332560Y312540D01*
X330020D01*
X332560Y310000D01*
X330020Y307460D01*
X332560D01*
X335100Y304920D01*
X360500Y322920D02*
X363040Y325460D01*
X365580D01*
X363040Y328000D01*
X365580Y330540D01*
X363040D01*
X360500Y333080D01*
X357960Y330540D01*
X355420D01*
X357960Y328000D01*
X355420Y325460D01*
X357960D01*
X360500Y322920D01*
X335100Y340920D02*
X337640Y343460D01*
X340180D01*
X337640Y346000D01*
X340180Y348540D01*
X337640D01*
X335100Y351080D01*
X332560Y348540D01*
X330020D01*
X332560Y346000D01*
X330020Y343460D01*
X332560D01*
X335100Y340920D01*
X360500Y358920D02*
X363040Y361460D01*
X365580D01*
X363040Y364000D01*
X365580Y366540D01*
X363040D01*
X360500Y369080D01*
X357960Y366540D01*
X355420D01*
X357960Y364000D01*
X355420Y361460D01*
X357960D01*
X360500Y358920D01*
X335100Y376920D02*
X337640Y379460D01*
X340180D01*
X337640Y382000D01*
X340180Y384540D01*
X337640D01*
X335100Y387080D01*
X332560Y384540D01*
X330020D01*
X332560Y382000D01*
X330020Y379460D01*
X332560D01*
X335100Y376920D01*
X360500Y394920D02*
X363040Y397460D01*
X365580D01*
X363040Y400000D01*
X365580Y402540D01*
X363040D01*
X360500Y405080D01*
X357960Y402540D01*
X355420D01*
X357960Y400000D01*
X355420Y397460D01*
X357960D01*
X360500Y394920D01*
X335100Y412920D02*
X337640Y415460D01*
X340180D01*
X337640Y418000D01*
X340180Y420540D01*
X337640D01*
X335100Y423080D01*
X332560Y420540D01*
X330020D01*
X332560Y418000D01*
X330020Y415460D01*
X332560D01*
X335100Y412920D01*
X360500Y430920D02*
X363040Y433460D01*
X365580D01*
X363040Y436000D01*
X365580Y438540D01*
X363040D01*
X360500Y441080D01*
X357960Y438540D01*
X355420D01*
X357960Y436000D01*
X355420Y433460D01*
X357960D01*
X360500Y430920D01*
X335100Y448919D02*
X337640Y451460D01*
X340180D01*
X337640Y453999D01*
X340180Y456539D01*
X337640D01*
X335100Y459080D01*
X332560Y456539D01*
X330020D01*
X332560Y453999D01*
X330020Y451460D01*
X332560D01*
X335100Y448919D01*
X360500Y466920D02*
X363040Y469459D01*
X365580D01*
X363040Y472000D01*
X365580Y474539D01*
X363040D01*
X360500Y477080D01*
X357960Y474539D01*
X355420D01*
X357960Y472000D01*
X355420Y469459D01*
X357960D01*
X360500Y466920D01*
X335100Y484920D02*
X337640Y487459D01*
X340180D01*
X337640Y490000D01*
X340180Y492539D01*
X337640D01*
X335100Y495079D01*
X332560Y492539D01*
X330020D01*
X332560Y490000D01*
X330020Y487459D01*
X332560D01*
X335100Y484920D01*
X360500Y502920D02*
X363040Y505460D01*
X365580D01*
X363040Y508000D01*
X365580Y510540D01*
X363040D01*
X360500Y513080D01*
X357960Y510540D01*
X355420D01*
X357960Y508000D01*
X355420Y505460D01*
X357960D01*
X360500Y502920D01*
X335100Y520920D02*
X337640Y523460D01*
X340180D01*
X337640Y526000D01*
X340180Y528540D01*
X337640D01*
X335100Y531080D01*
X332560Y528540D01*
X330020D01*
X332560Y526000D01*
X330020Y523460D01*
X332560D01*
X335100Y520920D01*
X360500Y538920D02*
X363040Y541460D01*
X365580D01*
X363040Y544000D01*
X365580Y546540D01*
X363040D01*
X360500Y549080D01*
X357960Y546540D01*
X355420D01*
X357960Y544000D01*
X355420Y541460D01*
X357960D01*
X360500Y538920D01*
X335100Y556920D02*
X337640Y559460D01*
X340180D01*
X337640Y562000D01*
X340180Y564540D01*
X337640D01*
X335100Y567080D01*
X332560Y564540D01*
X330020D01*
X332560Y562000D01*
X330020Y559460D01*
X332560D01*
X335100Y556920D01*
X360500Y574920D02*
X363040Y577460D01*
X365580D01*
X363040Y580000D01*
X365580Y582540D01*
X363040D01*
X360500Y585080D01*
X357960Y582540D01*
X355420D01*
X357960Y580000D01*
X355420Y577460D01*
X357960D01*
X360500Y574920D01*
X682503Y689920D02*
X677423Y700080D01*
X687583D01*
X682503Y689920D01*
X782502D02*
X777422Y700080D01*
X787582D01*
X782502Y689920D01*
X732503D02*
X727422Y700080D01*
X737582D01*
X732503Y689920D01*
X137421Y689920D02*
Y700080D01*
X147580D01*
Y689920D01*
X137421D01*
X187420D02*
Y700080D01*
X197580D01*
Y689920D01*
X187420D01*
X24920Y734920D02*
Y745080D01*
X35080D01*
Y734920D01*
X24920D01*
X26952Y736952D02*
Y743048D01*
X33048D01*
Y736952D01*
X26952D01*
X24920Y24920D02*
Y35080D01*
X35080D01*
Y24920D01*
X24920D01*
X26952Y26952D02*
Y33048D01*
X33048D01*
Y26952D01*
X26952D01*
X864920Y24920D02*
Y35080D01*
X875080D01*
Y24920D01*
X864920D01*
X866952Y26952D02*
Y33048D01*
X873048D01*
Y26952D01*
X866952D01*
X864920Y734920D02*
Y745080D01*
X875080D01*
Y734920D01*
X864920D01*
X866952Y736952D02*
Y743048D01*
X873048D01*
Y736952D01*
X866952D01*
X89920Y149920D02*
X92460D01*
X95000Y152460D01*
X97540Y149920D01*
X100080D01*
Y152460D01*
X97540Y155000D01*
X100080Y157540D01*
Y160080D01*
X97540D01*
X95000Y157540D01*
X92460Y160080D01*
X89920D01*
Y157540D01*
X92460Y155000D01*
X89920Y152460D01*
Y149920D01*
Y124920D02*
X92460D01*
X95000Y127460D01*
X97540Y124920D01*
X100080D01*
Y127460D01*
X97540Y130000D01*
X100080Y132540D01*
Y135080D01*
X97540D01*
X95000Y132540D01*
X92460Y135080D01*
X89920D01*
Y132540D01*
X92460Y130000D01*
X89920Y127460D01*
Y124920D01*
X92210Y297460D02*
Y294920D01*
X97290D01*
Y297460D01*
X99830D01*
Y302540D01*
X97290D01*
Y305080D01*
X92210D01*
Y302540D01*
X89670D01*
Y297460D01*
X92210D01*
Y272460D02*
Y269920D01*
X97290D01*
Y272460D01*
X99830D01*
Y277540D01*
X97290D01*
Y280080D01*
X92210D01*
Y277540D01*
X89670D01*
Y272460D01*
X92210D01*
Y247460D02*
Y244920D01*
X97290D01*
Y247460D01*
X99830D01*
Y252540D01*
X97290D01*
Y255080D01*
X92210D01*
Y252540D01*
X89670D01*
Y247460D01*
X92210D01*
X110421Y374919D02*
X112961Y379999D01*
X110421Y385079D01*
X115500Y382539D01*
X120581Y385079D01*
X118041Y379999D01*
X120581Y374919D01*
X115500Y377459D01*
X110421Y374919D01*
Y399920D02*
X112961Y405000D01*
X110421Y410079D01*
X115500Y407539D01*
X120581Y410079D01*
X118041Y405000D01*
X120581Y399920D01*
X115500Y402459D01*
X110421Y399920D01*
Y424920D02*
X112961Y430000D01*
X110421Y435080D01*
X115500Y432540D01*
X120581Y435080D01*
X118041Y430000D01*
X120581Y424920D01*
X115500Y427460D01*
X110421Y424920D01*
Y449919D02*
X112961Y454999D01*
X110421Y460079D01*
X115500Y457539D01*
X120581Y460079D01*
X118041Y454999D01*
X120581Y449919D01*
X115500Y452459D01*
X110421Y449919D01*
Y474920D02*
X112961Y480000D01*
X110421Y485080D01*
X115500Y482540D01*
X120581Y485080D01*
X118041Y480000D01*
X120581Y474920D01*
X115500Y477460D01*
X110421Y474920D01*
Y499919D02*
X112961Y504999D01*
X110421Y510079D01*
X115500Y507539D01*
X120581Y510079D01*
X118041Y504999D01*
X120581Y499919D01*
X115500Y502459D01*
X110421Y499919D01*
X227420Y230000D02*
X232500Y235080D01*
X237580Y230000D01*
X232500Y224920D01*
X227420Y230000D01*
X207420Y212500D02*
X212500Y217580D01*
X217580Y212500D01*
X212500Y207420D01*
X207420Y212500D01*
X272420Y242500D02*
X277500Y247580D01*
X282580Y242500D01*
X277500Y237420D01*
X272420Y242500D01*
X242170Y212250D02*
X247250Y217330D01*
X252330Y212250D01*
X247250Y207170D01*
X242170Y212250D01*
X187420Y177500D02*
X192500Y182580D01*
X197580Y177500D01*
X192500Y172420D01*
X187420Y177500D01*
X325670Y159250D02*
X330750Y164330D01*
X335830Y159250D01*
X330750Y154170D01*
X325670Y159250D01*
X229920Y330000D02*
X235000Y335080D01*
X240080Y330000D01*
X235000Y324920D01*
X229920Y330000D01*
X214920Y337500D02*
X220000Y342580D01*
X225080Y337500D01*
X220000Y332420D01*
X214920Y337500D01*
Y392500D02*
X220000Y397580D01*
X225080Y392500D01*
X220000Y387420D01*
X214920Y392500D01*
Y442500D02*
X220000Y447580D01*
X225080Y442500D01*
X220000Y437420D01*
X214920Y442500D01*
Y555000D02*
X220000Y560080D01*
X225080Y555000D01*
X220000Y549920D01*
X214920Y555000D01*
Y497500D02*
X220000Y502580D01*
X225080Y497500D01*
X220000Y492420D01*
X214920Y497500D01*
X233446Y113420D02*
X238526Y118500D01*
X243606Y113420D01*
X238526Y108340D01*
X233446Y113420D01*
X420000Y239920D02*
X422540Y242460D01*
X425080D01*
X422540Y245000D01*
X425080Y247540D01*
X422540D01*
X420000Y250080D01*
X417460Y247540D01*
X414920D01*
X417460Y245000D01*
X414920Y242460D01*
X417460D01*
X420000Y239920D01*
X582500Y377420D02*
X585040Y379960D01*
X587580D01*
X585040Y382500D01*
X587580Y385040D01*
X585040D01*
X582500Y387580D01*
X579960Y385040D01*
X577420D01*
X579960Y382500D01*
X577420Y379960D01*
X579960D01*
X582500Y377420D01*
X742500Y522420D02*
X745040Y524960D01*
X747580D01*
X745040Y527500D01*
X747580Y530040D01*
X745040D01*
X742500Y532580D01*
X739960Y530040D01*
X737420D01*
X739960Y527500D01*
X737420Y524960D01*
X739960D01*
X742500Y522420D01*
D68*
X672580Y362500D02*
G03*
X672580Y362500I-5080J0D01*
G01*
Y382500D02*
G03*
X672580Y382500I-5080J0D01*
G01*
Y450000D02*
G03*
X672580Y450000I-5080J0D01*
G01*
Y470000D02*
G03*
X672580Y470000I-5080J0D01*
G01*
X675080Y277500D02*
G03*
X675080Y277500I-5080J0D01*
G01*
Y297500D02*
G03*
X675080Y297500I-5080J0D01*
G01*
X475080Y342500D02*
G03*
X475080Y342500I-5080J0D01*
G01*
X395080Y320000D02*
G03*
X395080Y320000I-5080J0D01*
G01*
Y305000D02*
G03*
X395080Y305000I-5080J0D01*
G01*
Y290000D02*
G03*
X395080Y290000I-5080J0D01*
G01*
Y335000D02*
G03*
X395080Y335000I-5080J0D01*
G01*
Y425000D02*
G03*
X395080Y425000I-5080J0D01*
G01*
Y410000D02*
G03*
X395080Y410000I-5080J0D01*
G01*
Y395000D02*
G03*
X395080Y395000I-5080J0D01*
G01*
Y350000D02*
G03*
X395080Y350000I-5080J0D01*
G01*
Y365000D02*
G03*
X395080Y365000I-5080J0D01*
G01*
Y380000D02*
G03*
X395080Y380000I-5080J0D01*
G01*
Y470000D02*
G03*
X395080Y470000I-5080J0D01*
G01*
Y455000D02*
G03*
X395080Y455000I-5080J0D01*
G01*
Y440000D02*
G03*
X395080Y440000I-5080J0D01*
G01*
Y485000D02*
G03*
X395080Y485000I-5080J0D01*
G01*
Y500000D02*
G03*
X395080Y500000I-5080J0D01*
G01*
Y515000D02*
G03*
X395080Y515000I-5080J0D01*
G01*
X485080Y355000D02*
G03*
X485080Y355000I-5080J0D01*
G01*
X462580D02*
G03*
X462580Y355000I-5080J0D01*
G01*
X455080Y370000D02*
G03*
X455080Y370000I-5080J0D01*
G01*
X470080D02*
G03*
X470080Y370000I-5080J0D01*
G01*
X485080D02*
G03*
X485080Y370000I-5080J0D01*
G01*
X500080D02*
G03*
X500080Y370000I-5080J0D01*
G01*
X455080Y385000D02*
G03*
X455080Y385000I-5080J0D01*
G01*
X470080D02*
G03*
X470080Y385000I-5080J0D01*
G01*
X485080D02*
G03*
X485080Y385000I-5080J0D01*
G01*
X500080D02*
G03*
X500080Y385000I-5080J0D01*
G01*
X455080Y400000D02*
G03*
X455080Y400000I-5080J0D01*
G01*
X470080D02*
G03*
X470080Y400000I-5080J0D01*
G01*
X485080D02*
G03*
X485080Y400000I-5080J0D01*
G01*
X500080D02*
G03*
X500080Y400000I-5080J0D01*
G01*
X455080Y415000D02*
G03*
X455080Y415000I-5080J0D01*
G01*
X470080D02*
G03*
X470080Y415000I-5080J0D01*
G01*
X485080D02*
G03*
X485080Y415000I-5080J0D01*
G01*
X500080D02*
G03*
X500080Y415000I-5080J0D01*
G01*
X455080Y430000D02*
G03*
X455080Y430000I-5080J0D01*
G01*
X470080D02*
G03*
X470080Y430000I-5080J0D01*
G01*
X485080D02*
G03*
X485080Y430000I-5080J0D01*
G01*
X500080D02*
G03*
X500080Y430000I-5080J0D01*
G01*
X455080Y445000D02*
G03*
X455080Y445000I-5080J0D01*
G01*
X470080D02*
G03*
X470080Y445000I-5080J0D01*
G01*
X485080D02*
G03*
X485080Y445000I-5080J0D01*
G01*
X500080D02*
G03*
X500080Y445000I-5080J0D01*
G01*
X455080Y460000D02*
G03*
X455080Y460000I-5080J0D01*
G01*
X470080D02*
G03*
X470080Y460000I-5080J0D01*
G01*
X485080D02*
G03*
X485080Y460000I-5080J0D01*
G01*
X500080D02*
G03*
X500080Y460000I-5080J0D01*
G01*
X455080Y475000D02*
G03*
X455080Y475000I-5080J0D01*
G01*
X470080D02*
G03*
X470080Y475000I-5080J0D01*
G01*
X485080D02*
G03*
X485080Y475000I-5080J0D01*
G01*
X500080D02*
G03*
X500080Y475000I-5080J0D01*
G01*
X455080Y490000D02*
G03*
X455080Y490000I-5080J0D01*
G01*
X470080D02*
G03*
X470080Y490000I-5080J0D01*
G01*
X485080D02*
G03*
X485080Y490000I-5080J0D01*
G01*
X500080D02*
G03*
X500080Y490000I-5080J0D01*
G01*
X455080Y505000D02*
G03*
X455080Y505000I-5080J0D01*
G01*
X470080D02*
G03*
X470080Y505000I-5080J0D01*
G01*
X485080D02*
G03*
X485080Y505000I-5080J0D01*
G01*
X500080D02*
G03*
X500080Y505000I-5080J0D01*
G01*
X455080Y520000D02*
G03*
X455080Y520000I-5080J0D01*
G01*
X470080D02*
G03*
X470080Y520000I-5080J0D01*
G01*
X485080D02*
G03*
X485080Y520000I-5080J0D01*
G01*
X500080D02*
G03*
X500080Y520000I-5080J0D01*
G01*
X455080Y535000D02*
G03*
X455080Y535000I-5080J0D01*
G01*
X470080D02*
G03*
X470080Y535000I-5080J0D01*
G01*
X485080D02*
G03*
X485080Y535000I-5080J0D01*
G01*
X500080D02*
G03*
X500080Y535000I-5080J0D01*
G01*
X455080Y550000D02*
G03*
X455080Y550000I-5080J0D01*
G01*
X470080D02*
G03*
X470080Y550000I-5080J0D01*
G01*
X485080D02*
G03*
X485080Y550000I-5080J0D01*
G01*
X500080D02*
G03*
X500080Y550000I-5080J0D01*
G01*
X455080Y565000D02*
G03*
X455080Y565000I-5080J0D01*
G01*
X470080D02*
G03*
X470080Y565000I-5080J0D01*
G01*
X485080D02*
G03*
X485080Y565000I-5080J0D01*
G01*
X500080D02*
G03*
X500080Y565000I-5080J0D01*
G01*
X455080Y580000D02*
G03*
X455080Y580000I-5080J0D01*
G01*
X470080D02*
G03*
X470080Y580000I-5080J0D01*
G01*
X485080D02*
G03*
X485080Y580000I-5080J0D01*
G01*
X500080D02*
G03*
X500080Y580000I-5080J0D01*
G01*
Y595000D02*
G03*
X500080Y595000I-5080J0D01*
G01*
X485080D02*
G03*
X485080Y595000I-5080J0D01*
G01*
X470080D02*
G03*
X470080Y595000I-5080J0D01*
G01*
X455080D02*
G03*
X455080Y595000I-5080J0D01*
G01*
D69*
X473048Y342500D02*
G03*
X473048Y342500I-3048J0D01*
G01*
X393048Y320000D02*
G03*
X393048Y320000I-3048J0D01*
G01*
Y305000D02*
G03*
X393048Y305000I-3048J0D01*
G01*
Y290000D02*
G03*
X393048Y290000I-3048J0D01*
G01*
Y335000D02*
G03*
X393048Y335000I-3048J0D01*
G01*
Y425000D02*
G03*
X393048Y425000I-3048J0D01*
G01*
Y410000D02*
G03*
X393048Y410000I-3048J0D01*
G01*
Y395000D02*
G03*
X393048Y395000I-3048J0D01*
G01*
Y350000D02*
G03*
X393048Y350000I-3048J0D01*
G01*
Y365000D02*
G03*
X393048Y365000I-3048J0D01*
G01*
Y380000D02*
G03*
X393048Y380000I-3048J0D01*
G01*
Y470000D02*
G03*
X393048Y470000I-3048J0D01*
G01*
Y455000D02*
G03*
X393048Y455000I-3048J0D01*
G01*
Y440000D02*
G03*
X393048Y440000I-3048J0D01*
G01*
Y485000D02*
G03*
X393048Y485000I-3048J0D01*
G01*
Y500000D02*
G03*
X393048Y500000I-3048J0D01*
G01*
Y515000D02*
G03*
X393048Y515000I-3048J0D01*
G01*
X483048Y355000D02*
G03*
X483048Y355000I-3048J0D01*
G01*
X460548D02*
G03*
X460548Y355000I-3048J0D01*
G01*
X453048Y370000D02*
G03*
X453048Y370000I-3048J0D01*
G01*
X468048D02*
G03*
X468048Y370000I-3048J0D01*
G01*
X483048D02*
G03*
X483048Y370000I-3048J0D01*
G01*
X498048D02*
G03*
X498048Y370000I-3048J0D01*
G01*
X453048Y385000D02*
G03*
X453048Y385000I-3048J0D01*
G01*
X468048D02*
G03*
X468048Y385000I-3048J0D01*
G01*
X483048D02*
G03*
X483048Y385000I-3048J0D01*
G01*
X498048D02*
G03*
X498048Y385000I-3048J0D01*
G01*
X453048Y400000D02*
G03*
X453048Y400000I-3048J0D01*
G01*
X468048D02*
G03*
X468048Y400000I-3048J0D01*
G01*
X483048D02*
G03*
X483048Y400000I-3048J0D01*
G01*
X498048D02*
G03*
X498048Y400000I-3048J0D01*
G01*
X453048Y415000D02*
G03*
X453048Y415000I-3048J0D01*
G01*
X468048D02*
G03*
X468048Y415000I-3048J0D01*
G01*
X483048D02*
G03*
X483048Y415000I-3048J0D01*
G01*
X498048D02*
G03*
X498048Y415000I-3048J0D01*
G01*
X453048Y430000D02*
G03*
X453048Y430000I-3048J0D01*
G01*
X468048D02*
G03*
X468048Y430000I-3048J0D01*
G01*
X483048D02*
G03*
X483048Y430000I-3048J0D01*
G01*
X498048D02*
G03*
X498048Y430000I-3048J0D01*
G01*
X453048Y445000D02*
G03*
X453048Y445000I-3048J0D01*
G01*
X468048D02*
G03*
X468048Y445000I-3048J0D01*
G01*
X483048D02*
G03*
X483048Y445000I-3048J0D01*
G01*
X498048D02*
G03*
X498048Y445000I-3048J0D01*
G01*
X453048Y460000D02*
G03*
X453048Y460000I-3048J0D01*
G01*
X468048D02*
G03*
X468048Y460000I-3048J0D01*
G01*
X483048D02*
G03*
X483048Y460000I-3048J0D01*
G01*
X498048D02*
G03*
X498048Y460000I-3048J0D01*
G01*
X453048Y475000D02*
G03*
X453048Y475000I-3048J0D01*
G01*
X468048D02*
G03*
X468048Y475000I-3048J0D01*
G01*
X483048D02*
G03*
X483048Y475000I-3048J0D01*
G01*
X498048D02*
G03*
X498048Y475000I-3048J0D01*
G01*
X453048Y490000D02*
G03*
X453048Y490000I-3048J0D01*
G01*
X468048D02*
G03*
X468048Y490000I-3048J0D01*
G01*
X483048D02*
G03*
X483048Y490000I-3048J0D01*
G01*
X498048D02*
G03*
X498048Y490000I-3048J0D01*
G01*
X453048Y505000D02*
G03*
X453048Y505000I-3048J0D01*
G01*
X468048D02*
G03*
X468048Y505000I-3048J0D01*
G01*
X483048D02*
G03*
X483048Y505000I-3048J0D01*
G01*
X498048D02*
G03*
X498048Y505000I-3048J0D01*
G01*
X453048Y520000D02*
G03*
X453048Y520000I-3048J0D01*
G01*
X468048D02*
G03*
X468048Y520000I-3048J0D01*
G01*
X483048D02*
G03*
X483048Y520000I-3048J0D01*
G01*
X498048D02*
G03*
X498048Y520000I-3048J0D01*
G01*
X453048Y535000D02*
G03*
X453048Y535000I-3048J0D01*
G01*
X468048D02*
G03*
X468048Y535000I-3048J0D01*
G01*
X483048D02*
G03*
X483048Y535000I-3048J0D01*
G01*
X498048D02*
G03*
X498048Y535000I-3048J0D01*
G01*
X453048Y550000D02*
G03*
X453048Y550000I-3048J0D01*
G01*
X468048D02*
G03*
X468048Y550000I-3048J0D01*
G01*
X483048D02*
G03*
X483048Y550000I-3048J0D01*
G01*
X498048D02*
G03*
X498048Y550000I-3048J0D01*
G01*
X453048Y565000D02*
G03*
X453048Y565000I-3048J0D01*
G01*
X468048D02*
G03*
X468048Y565000I-3048J0D01*
G01*
X483048D02*
G03*
X483048Y565000I-3048J0D01*
G01*
X498048D02*
G03*
X498048Y565000I-3048J0D01*
G01*
X453048Y580000D02*
G03*
X453048Y580000I-3048J0D01*
G01*
X468048D02*
G03*
X468048Y580000I-3048J0D01*
G01*
X483048D02*
G03*
X483048Y580000I-3048J0D01*
G01*
X498048D02*
G03*
X498048Y580000I-3048J0D01*
G01*
Y595000D02*
G03*
X498048Y595000I-3048J0D01*
G01*
X483048D02*
G03*
X483048Y595000I-3048J0D01*
G01*
X468048D02*
G03*
X468048Y595000I-3048J0D01*
G01*
X453048D02*
G03*
X453048Y595000I-3048J0D01*
G01*
M02*
