M48
;Layer_Color=9474304
;FILE_FORMAT=4:4
METRIC,LZ
;TYPE=PLATED
T1F00S00C0.3000
T2F00S00C0.7112
T3F00S00C0.8000
T4F00S00C0.9000
T5F00S00C1.0000
T6F00S00C1.0500
T7F00S00C1.1000
T8F00S00C1.1300
T9F00S00C1.3000
T10F00S00C3.0000
%
T01
X00238526Y0011342
X0024725Y0021225
X002325Y0023
X002125Y002125
X001925Y001775
X002775Y002425
X00235Y0033
X0022Y003375
Y003925
Y004425
Y004975
X0033075Y0015925
X0022Y00555
T02
X0039Y0029
Y00305
Y0032
Y00335
Y0035
Y00365
Y0038
Y00395
Y0041
Y00425
Y0044
Y00455
Y0047
Y00485
Y005
Y00515
X0045Y0052
Y00505
Y0049
Y00475
X00465
X0048
Y0049
X00465
Y00505
X0048
Y0052
X00465
X00495
Y00505
Y0049
Y00475
Y0046
Y00445
Y0043
Y00415
Y004
Y00385
Y0037
X0048
Y00355
X0047Y003425
X004575Y00355
X0045Y0037
X00465
Y00385
X0045
Y004
X00465
X0048
Y00415
X00465
X0045
Y0043
X00465
X0048
Y00445
X00465
X0045
Y0046
X00465
X0048
Y00385
Y00535
X00465
X0045
Y0055
X00465
X0048
X00495
Y00535
Y00565
Y0058
Y00595
X0048
Y0058
Y00565
X00465
X0045
Y0058
X00465
Y00595
X0045
T03
X0067Y002775
Y002975
X006675Y003625
Y003825
Y0045
Y0047
T04
X001155Y00379999
Y00405
Y0043
Y00454999
Y0048
Y00504999
T05
X0009475Y0025
Y00275
Y003
T06
X00095Y0013
Y00155
T07
X001425Y00695
X001925
T08
X005499Y003325
Y003825
X005825Y003825
X005499Y004575
X007425Y005275
X005245Y005325
Y004825
Y004075
Y003575
Y00307499
X0042Y00245
X003605Y00328
Y00364
Y004
Y00436
Y00472
Y00508
X003351Y00526
Y0049
Y00453999
Y00418
Y00382
Y00346
Y0031
Y00562
X003605Y00544
Y0058
X005245Y005825
X005499Y00557499
T09
X00682503Y00695
X00732503
X00782502
T10
X0003Y0003
X0087
X0003Y0074
X0087
M30
