G04*
G04 #@! TF.GenerationSoftware,Altium Limited,Altium Designer,23.4.1 (23)*
G04*
G04 Layer_Color=255*
%FSLAX44Y44*%
%MOMM*%
G71*
G04*
G04 #@! TF.SameCoordinates,23056885-4623-4C4A-AB4B-1A291C1D203A*
G04*
G04*
G04 #@! TF.FilePolarity,Positive*
G04*
G01*
G75*
%ADD47C,1.4000*%
%ADD48R,1.4000X1.4000*%
%ADD53C,1.6950*%
%ADD54C,1.9500*%
G04:AMPARAMS|DCode=55|XSize=1.95mm|YSize=1.95mm|CornerRadius=0.4875mm|HoleSize=0mm|Usage=FLASHONLY|Rotation=180.000|XOffset=0mm|YOffset=0mm|HoleType=Round|Shape=RoundedRectangle|*
%AMROUNDEDRECTD55*
21,1,1.9500,0.9750,0,0,180.0*
21,1,0.9750,1.9500,0,0,180.0*
1,1,0.9750,-0.4875,0.4875*
1,1,0.9750,0.4875,0.4875*
1,1,0.9750,0.4875,-0.4875*
1,1,0.9750,-0.4875,-0.4875*
%
%ADD55ROUNDEDRECTD55*%
%ADD56C,1.6000*%
%ADD57R,1.6000X1.6000*%
%ADD58C,3.5000*%
%ADD59C,1.5750*%
%ADD60R,1.5750X1.5750*%
%ADD61R,1.3000X1.3000*%
%ADD62C,1.3000*%
%ADD63C,1.5080*%
%ADD64R,1.5080X1.5080*%
D47*
X115500Y379999D02*
D03*
Y405000D02*
D03*
Y430000D02*
D03*
Y454999D02*
D03*
Y480000D02*
D03*
D48*
Y504999D02*
D03*
D53*
X524500Y582500D02*
D03*
X549900Y557499D02*
D03*
X524500Y532500D02*
D03*
Y482500D02*
D03*
X549900Y457500D02*
D03*
X524500Y407500D02*
D03*
X549900Y382500D02*
D03*
X524500Y357500D02*
D03*
X549900Y332500D02*
D03*
X524500Y307499D02*
D03*
X335100Y310000D02*
D03*
X360500Y328000D02*
D03*
X335100Y346000D02*
D03*
X360500Y364000D02*
D03*
X335100Y382000D02*
D03*
X360500Y400000D02*
D03*
X335100Y418000D02*
D03*
X360500Y436000D02*
D03*
X335100Y453999D02*
D03*
X360500Y472000D02*
D03*
X335100Y490000D02*
D03*
X360500Y508000D02*
D03*
X335100Y526000D02*
D03*
X360500Y544000D02*
D03*
X335100Y562000D02*
D03*
X360500Y580000D02*
D03*
D54*
X682503Y695000D02*
D03*
X732503D02*
D03*
D55*
X782502D02*
D03*
D56*
X142500Y695000D02*
D03*
D57*
X192500D02*
D03*
D58*
X30000Y740000D02*
D03*
Y30000D02*
D03*
X870000D02*
D03*
Y740000D02*
D03*
D59*
X95000Y155000D02*
D03*
D60*
Y130000D02*
D03*
D61*
X667500Y362500D02*
D03*
Y450000D02*
D03*
X670000Y277500D02*
D03*
D62*
X667500Y382500D02*
D03*
Y470000D02*
D03*
X670000Y297500D02*
D03*
D63*
X94750Y300000D02*
D03*
Y275000D02*
D03*
D64*
Y250000D02*
D03*
M02*
