G04*
G04 #@! TF.GenerationSoftware,Altium Limited,Altium Designer,23.4.1 (23)*
G04*
G04 Layer_Color=32768*
%FSLAX44Y44*%
%MOMM*%
G71*
G04*
G04 #@! TF.SameCoordinates,23056885-4623-4C4A-AB4B-1A291C1D203A*
G04*
G04*
G04 #@! TF.FilePolarity,Positive*
G04*
G01*
G75*
%ADD10C,0.2000*%
%ADD12C,0.1000*%
%ADD67C,0.0500*%
D10*
X92500Y531000D02*
X132500D01*
X92500Y353999D02*
Y531000D01*
Y353999D02*
X132500D01*
Y531000D01*
D12*
X316630Y615750D02*
X568370D01*
X316630Y274250D02*
Y615750D01*
Y274250D02*
X568370D01*
Y615750D01*
X167500Y690000D02*
Y700000D01*
X162500Y695000D02*
X172500D01*
X662500Y372500D02*
X672500D01*
X667500Y367500D02*
Y377500D01*
X662500Y460000D02*
X672500D01*
X667500Y455000D02*
Y465000D01*
X292500Y187500D02*
Y197500D01*
X287500Y192500D02*
X297500D01*
X346750Y187500D02*
Y197500D01*
X341750Y192500D02*
X351750D01*
X292500Y127500D02*
Y137500D01*
X287500Y132500D02*
X297500D01*
X235000Y572500D02*
Y582500D01*
X230000Y577500D02*
X240000D01*
X665000Y287500D02*
X675000D01*
X670000Y282500D02*
Y292500D01*
X177500Y462500D02*
Y472500D01*
X172500Y467500D02*
X182500D01*
X235000Y462500D02*
Y472500D01*
X230000Y467500D02*
X240000D01*
X177500Y572500D02*
Y582500D01*
X172500Y577500D02*
X182500D01*
X172500Y307500D02*
X182500D01*
X177500Y302500D02*
Y312500D01*
X172500Y362500D02*
X182500D01*
X177500Y357500D02*
Y367500D01*
X222500Y77500D02*
X232500D01*
X227500Y72500D02*
Y82500D01*
X340000Y77500D02*
X350000D01*
X345000Y72500D02*
Y82500D01*
X173250Y415000D02*
X183250D01*
X178250Y410000D02*
Y420000D01*
X172500Y522500D02*
X182500D01*
X177500Y517500D02*
Y527500D01*
X197000Y215000D02*
X263000D01*
Y170000D02*
Y215000D01*
X197000Y170000D02*
X263000D01*
X197000D02*
Y215000D01*
X230000Y307500D02*
X240000D01*
X235000Y302500D02*
Y312500D01*
X230000Y362500D02*
X240000D01*
X235000Y357500D02*
Y367500D01*
X230000Y415000D02*
X240000D01*
X235000Y410000D02*
Y420000D01*
X222500Y132500D02*
X232500D01*
X227500Y127500D02*
Y137500D01*
X230000Y522500D02*
X240000D01*
X235000Y517500D02*
Y527500D01*
D67*
X693500Y372500D02*
G03*
X693500Y372500I-26000J0D01*
G01*
Y460000D02*
G03*
X693500Y460000I-26000J0D01*
G01*
X696000Y287500D02*
G03*
X696000Y287500I-26000J0D01*
G01*
X815500Y642999D02*
Y737000D01*
X649500D02*
X815500D01*
X649500Y642999D02*
Y737000D01*
Y642999D02*
X815500D01*
X224500Y653000D02*
Y737000D01*
X116500Y653000D02*
X224500D01*
X116500D02*
Y737000D01*
X224500D01*
X69000Y182000D02*
X131500D01*
X69000Y103000D02*
Y182000D01*
Y103000D02*
X131500D01*
Y182000D01*
X734900Y391150D02*
X765100D01*
X734900Y348850D02*
Y391150D01*
Y348850D02*
X765100D01*
Y391150D01*
X806000Y344000D02*
X839000D01*
Y396000D01*
X806000D02*
X839000D01*
X806000Y344000D02*
Y396000D01*
X269500Y176500D02*
X315500D01*
X269500Y208500D02*
X315500D01*
Y176500D02*
Y208500D01*
X269500Y176500D02*
Y208500D01*
X323750Y176500D02*
X369750D01*
X323750Y208500D02*
X369750D01*
Y176500D02*
Y208500D01*
X323750Y176500D02*
Y208500D01*
X269500Y148500D02*
X315500D01*
X269500Y116500D02*
X315500D01*
X269500D02*
Y148500D01*
X315500Y116500D02*
Y148500D01*
X211500Y561500D02*
X258500D01*
X211500Y593500D02*
X258500D01*
Y561500D02*
Y593500D01*
X211500Y561500D02*
Y593500D01*
X154900Y104250D02*
X185100D01*
Y146550D01*
X154900D02*
X185100D01*
X154900Y104250D02*
Y146550D01*
X154500Y483500D02*
X200500D01*
X154500Y451500D02*
X200500D01*
X154500D02*
Y483500D01*
X200500Y451500D02*
Y483500D01*
X211500Y451500D02*
X258500D01*
X211500Y483500D02*
X258500D01*
Y451500D02*
Y483500D01*
X211500Y451500D02*
Y483500D01*
X154500Y593500D02*
X200500D01*
X154500Y561500D02*
X200500D01*
X154500D02*
Y593500D01*
X200500Y561500D02*
Y593500D01*
X791000Y532200D02*
Y607800D01*
X824000D01*
Y532200D02*
Y607800D01*
X791000Y532200D02*
X824000D01*
X726000Y529700D02*
Y605300D01*
X759000D01*
Y529700D02*
Y605300D01*
X726000Y529700D02*
X759000D01*
X658500Y532200D02*
Y607800D01*
X691500D01*
Y532200D02*
Y607800D01*
X658500Y532200D02*
X691500D01*
X131250Y223000D02*
Y327000D01*
X68750Y223000D02*
X131250D01*
X68750D02*
Y327000D01*
X131250D01*
X442500Y128250D02*
Y206750D01*
X402500Y128250D02*
X442500D01*
X402500D02*
Y206750D01*
X442500D01*
X495000Y128250D02*
Y206750D01*
X455000Y128250D02*
X495000D01*
X455000D02*
Y206750D01*
X495000D01*
X547500Y128250D02*
Y206750D01*
X507500Y128250D02*
X547500D01*
X507500D02*
Y206750D01*
X547500D01*
X200500Y291500D02*
Y323500D01*
X154500Y291500D02*
Y323500D01*
Y291500D02*
X200500D01*
X154500Y323500D02*
X200500D01*
Y346500D02*
Y378500D01*
X154500Y346500D02*
Y378500D01*
Y346500D02*
X200500D01*
X154500Y378500D02*
X200500D01*
X204500Y61500D02*
Y93500D01*
X250500Y61500D02*
Y93500D01*
X204500D02*
X250500D01*
X204500Y61500D02*
X250500D01*
X322000Y61500D02*
Y93500D01*
X368000Y61500D02*
Y93500D01*
X322000D02*
X368000D01*
X322000Y61500D02*
X368000D01*
X201250Y399000D02*
Y431000D01*
X155250Y399000D02*
Y431000D01*
Y399000D02*
X201250D01*
X155250Y431000D02*
X201250D01*
X200500Y506500D02*
Y538500D01*
X154500Y506500D02*
Y538500D01*
Y506500D02*
X200500D01*
X154500Y538500D02*
X200500D01*
X154000Y169500D02*
Y215500D01*
X186000D01*
Y169500D02*
Y215500D01*
X154000Y169500D02*
X186000D01*
X767600Y263850D02*
Y306150D01*
X737400Y263850D02*
X767600D01*
X737400D02*
Y306150D01*
X767600D01*
X268850Y92600D02*
X311150D01*
Y62400D02*
Y92600D01*
X268850Y62400D02*
X311150D01*
X268850D02*
Y92600D01*
X762600Y438850D02*
Y481150D01*
X732400Y438850D02*
X762600D01*
X732400D02*
Y481150D01*
X762600D01*
X211500Y291500D02*
Y323500D01*
X258500Y291500D02*
Y323500D01*
X211500D02*
X258500D01*
X211500Y291500D02*
X258500D01*
X211500Y346500D02*
Y378500D01*
X258500Y346500D02*
Y378500D01*
X211500D02*
X258500D01*
X211500Y346500D02*
X258500D01*
X211500Y399000D02*
Y431000D01*
X258500Y399000D02*
Y431000D01*
X211500D02*
X258500D01*
X211500Y399000D02*
X258500D01*
X251000Y116500D02*
Y148500D01*
X204000Y116500D02*
Y148500D01*
Y116500D02*
X251000D01*
X204000Y148500D02*
X251000D01*
X211500Y506500D02*
Y538500D01*
X258500Y506500D02*
Y538500D01*
X211500D02*
X258500D01*
X211500Y506500D02*
X258500D01*
X811000Y259000D02*
Y311000D01*
X844000D01*
Y259000D02*
Y311000D01*
X811000Y259000D02*
X844000D01*
X803500Y434000D02*
Y486000D01*
X836500D01*
Y434000D02*
Y486000D01*
X803500Y434000D02*
X836500D01*
M02*
